<svg width="24" height="24" viewBox="0 0 24 24" fill="none" xmlns="http://www.w3.org/2000/svg">
<g id="Type=Filled">
<path id="Vector" d="M1.75 12C1.75 17.661 6.339 22.25 12 22.25C17.661 22.25 22.25 17.661 22.25 12C22.25 6.339 17.661 1.75 12 1.75C6.339 1.75 1.75 6.339 1.75 12ZM13.5 6.5C13.5 7.328 12.828 8 12 8C11.172 8 10.5 7.328 10.5 6.5C10.5 5.672 11.172 5 12 5C12.828 5 13.5 5.672 13.5 6.5ZM6 10.665V9.165H18V10.665H13.5V13.811L15.2 18.231L13.8 18.769L12 14.089L10.2 18.769L8.8 18.231L10.5 13.811V10.665H6Z" fill="#202022"/>
</g>
</svg>
