<svg width="24" height="24" viewBox="0 0 24 24" fill="none" xmlns="http://www.w3.org/2000/svg">
<g id="Type=Outline">
<path id="Vector" d="M13.5 6.5C13.5 7.328 12.828 8 12 8C11.172 8 10.5 7.328 10.5 6.5C10.5 5.672 11.172 5 12 5C12.828 5 13.5 5.672 13.5 6.5Z" fill="#202022"/>
<path id="Vector_2" d="M6 9.16504V10.665H10.5V13.811L8.8 18.231L10.2 18.769L12 14.089L13.8 18.769L15.2 18.231L13.5 13.811V10.665H18V9.16504H6Z" fill="#202022"/>
<path id="Vector_3" d="M1.75 12C1.75 6.339 6.339 1.75 12 1.75C17.661 1.75 22.25 6.339 22.25 12C22.25 17.661 17.661 22.25 12 22.25C6.339 22.25 1.75 17.661 1.75 12ZM12 3.25C7.168 3.25 3.25 7.168 3.25 12C3.25 16.832 7.168 20.75 12 20.75C16.833 20.75 20.75 16.832 20.75 12C20.75 7.168 16.832 3.25 12 3.25Z" fill="#202022"/>
</g>
</svg>
