<svg width="24" height="24" viewBox="0 0 24 24" fill="none" xmlns="http://www.w3.org/2000/svg">
<g id="Type=Outline">
<path id="Vector" d="M6.298 18.833L7.535 17.596L8.773 18.833L9.834 17.772L8.596 16.534L9.833 15.297L8.772 14.236L7.535 15.473L6.298 14.236L5.237 15.297L6.474 16.534L5.237 17.772L6.298 18.833Z" fill="#202022"/>
<path id="Vector_2" d="M5 8.25H6.75V10H8.25V8.25H10V6.75H8.25V5H6.75V6.75H5V8.25Z" fill="#202022"/>
<path id="Vector_3" d="M19 15.75H14V14.25H19V15.75Z" fill="#202022"/>
<path id="Vector_4" d="M14 18.75H19V17.25H14V18.75Z" fill="#202022"/>
<path id="Vector_5" d="M14 8.25H19V6.75H14V8.25Z" fill="#202022"/>
<path id="Vector_6" d="M21.75 2.25H2.25V21.75H21.75V2.25ZM3.75 20.25V12.75H11.25V20.25H3.75ZM11.25 11.25H3.75V3.75H11.25V11.25ZM12.75 20.25V12.75H20.25V20.25H12.75ZM12.75 11.25V3.75H20.25V11.25H12.75Z" fill="#202022"/>
</g>
</svg>
