<svg width="24" height="24" viewBox="0 0 24 24" fill="none" xmlns="http://www.w3.org/2000/svg">
<g id="Type=Outline">
<path id="Vector" d="M19.329 3.75H16.14V2.25H21.89V8H20.39V4.811L13.64 11.561L9.64001 7.561L3.17001 14.031L2.10901 12.97L9.63901 5.44L13.639 9.44L19.328 3.751L19.329 3.75Z" fill="#202022"/>
<path id="Vector_2" d="M21.89 10.75H16.39V21.75H21.89V10.75ZM20.39 12.25V20.25H17.89V12.25H20.39Z" fill="#202022"/>
<path id="Vector_3" d="M14.89 13.25H9.39001V21.75H14.89V13.25ZM13.39 14.75V20.25H10.89V14.75H13.39Z" fill="#202022"/>
<path id="Vector_4" d="M7.89001 15.75H2.39001V21.75H7.89001V15.75ZM3.89001 20.25V17.25H6.39001V20.25H3.89001Z" fill="#202022"/>
</g>
</svg>
