<svg width="24" height="24" viewBox="0 0 24 24" fill="none" xmlns="http://www.w3.org/2000/svg">
<g id="Type=Filled">
<path id="Vector" d="M2.25 2.25V11.25H11.25V2.25H2.25ZM7.5 4.25V6H9.25V7.5H7.5V9.25H6V7.5H4.25V6H6V4.25H7.5Z" fill="#202022"/>
<path id="Vector_2" d="M12.75 2.25V11.25H21.75V2.25H12.75ZM19.75 7.5H14.75V6H19.75V7.5Z" fill="#202022"/>
<path id="Vector_3" d="M11.25 12.75H2.25V21.75H11.25V12.75ZM9.048 16.012L7.811 17.249L9.048 18.486L7.987 19.547L6.75 18.31L5.513 19.547L4.452 18.486L5.689 17.249L4.452 16.012L5.513 14.951L6.75 16.188L7.987 14.951L9.048 16.012Z" fill="#202022"/>
<path id="Vector_4" d="M12.75 12.75V21.75H21.75V12.75H12.75ZM19.75 16.5H14.75V15H19.75V16.5ZM19.75 19.5H14.75V18H19.75V19.5Z" fill="#202022"/>
</g>
</svg>
