<svg width="24" height="24" viewBox="0 0 24 24" fill="none" xmlns="http://www.w3.org/2000/svg">
<g id="Type=Filled">
<path id="Vector" d="M23 17.125V18.625H1V17.125C3.347 17.125 5.25 15.222 5.25 12.875V7.875C5.25 4.147 8.272 1.125 12 1.125C15.728 1.125 18.75 4.147 18.75 7.875V12.875C18.75 15.222 20.653 17.125 23 17.125ZM11.25 7.5V10.25H8.5V11.75H11.25V14.5H12.75V11.75H15.5V10.25H12.75V7.5H11.25Z" fill="#202022"/>
<path id="Vector_2" d="M9.01001 20.125C9.13701 21.665 10.427 22.875 12 22.875C13.573 22.875 14.863 21.665 14.99 20.125H9.01001Z" fill="#202022"/>
</g>
</svg>
