<svg width="24" height="24" viewBox="0 0 24 24" fill="none" xmlns="http://www.w3.org/2000/svg">
<g id="Type=Outline">
<path id="Vector" d="M11.25 7.625V10.375H8.5V11.875H11.25V14.625H12.75V11.875H15.5V10.375H12.75V7.625H11.25Z" fill="#202022"/>
<path id="Vector_2" d="M23 19.875V18.375C20.653 18.375 18.75 16.472 18.75 14.125V8.625C18.75 4.897 15.728 1.875 12 1.875C8.272 1.875 5.25 4.897 5.25 8.625V14.125C5.25 16.472 3.347 18.375 1 18.375V19.875H9.095C9.428 21.169 10.603 22.125 12 22.125C13.397 22.125 14.572 21.169 14.905 19.875H23ZM6.75 8.625C6.75 5.726 9.101 3.375 12 3.375C14.899 3.375 17.25 5.726 17.25 8.625V14.125C17.25 15.809 17.974 17.323 19.127 18.375H4.873C6.026 17.323 6.75 15.809 6.75 14.125V8.625Z" fill="#202022"/>
</g>
</svg>
