<svg width="24" height="24" viewBox="0 0 24 24" fill="none" xmlns="http://www.w3.org/2000/svg">
<g id="Additional Info Outline">
<path id="Vector" d="M10.625 8.625V14.625H9.125V8.625H10.625Z" fill="#202022"/>
<path id="Vector_2" d="M9.875 5.125C9.323 5.125 8.875 5.573 8.875 6.125C8.875 6.677 9.323 7.125 9.875 7.125C10.427 7.125 10.875 6.677 10.875 6.125C10.875 5.573 10.427 5.125 9.875 5.125Z" fill="#202022"/>
<path id="Vector_3" d="M9.875 1.625C5.319 1.625 1.625 5.319 1.625 9.875C1.625 14.431 5.319 18.125 9.875 18.125C14.431 18.125 18.125 14.431 18.125 9.875C18.125 5.319 14.431 1.625 9.875 1.625ZM3.125 9.875C3.125 6.147 6.147 3.125 9.875 3.125C13.603 3.125 16.625 6.147 16.625 9.875C16.625 13.603 13.603 16.625 9.875 16.625C6.147 16.625 3.125 13.603 3.125 9.875Z" fill="#202022"/>
<path id="Vector_4" d="M18.125 15.375V18.125H15.375V19.625H18.125V22.375H19.625V19.625H22.375V18.125H19.625V15.375H18.125Z" fill="#202022"/>
</g>
</svg>
