<svg width="24" height="24" viewBox="0 0 24 24" fill="none" xmlns="http://www.w3.org/2000/svg">
<g id="Type=Filled">
<path id="Vector" d="M10.948 15.594C9.805 15.928 8.97 16.983 8.97 18.234C8.97 19.753 10.201 20.984 11.72 20.984C13.239 20.984 14.47 19.753 14.47 18.234C14.47 16.983 13.635 15.927 12.492 15.594C12.797 11.136 16.261 7.54497 20.662 7.04397L18.69 9.01597L19.751 10.077L23.281 6.54697L19.751 3.01697L18.69 4.07797L20.203 5.59097C16.328 6.13797 13.116 8.75197 11.72 12.282C10.145 8.30097 6.261 5.48497 1.72 5.48497H0.720001V6.98497H1.72C6.613 6.98497 10.619 10.785 10.948 15.595V15.594Z" fill="#202022"/>
</g>
</svg>
