<svg width="24" height="24" viewBox="0 0 24 24" fill="none" xmlns="http://www.w3.org/2000/svg">
<g id="Type=Outline">
<path id="Vector" d="M12.491 15.594C12.796 11.136 16.26 7.54497 20.661 7.04397L18.689 9.01597L19.75 10.077L23.28 6.54697L19.75 3.01697L18.689 4.07797L20.202 5.59097C16.327 6.13797 13.115 8.75197 11.719 12.282C10.144 8.30097 6.25999 5.48497 1.71899 5.48497H0.718994V6.98497H1.71899C6.61199 6.98497 10.618 10.785 10.947 15.595C9.80399 15.929 8.96899 16.984 8.96899 18.235C8.96899 19.754 10.2 20.985 11.719 20.985C13.238 20.985 14.469 19.754 14.469 18.235C14.469 16.984 13.634 15.928 12.491 15.595V15.594ZM10.47 18.234C10.47 17.544 11.03 16.984 11.72 16.984C12.41 16.984 12.97 17.544 12.97 18.234C12.97 18.924 12.41 19.484 11.72 19.484C11.03 19.484 10.47 18.924 10.47 18.234Z" fill="#202022"/>
</g>
</svg>
