<svg width="24" height="24" viewBox="0 0 24 24" fill="none" xmlns="http://www.w3.org/2000/svg">
<g id="Type=Filled">
<path id="Shape" d="M6.97 10.055C6.52 10.055 6.15 10.425 6.15 10.875V11.505H7.79V10.875C7.79 10.425 7.42 10.055 6.97 10.055ZM12.9 10.225H11.91V11.515H12.9C13.26 11.515 13.54 11.225 13.54 10.875C13.54 10.525 13.25 10.235 12.9 10.235V10.225ZM12 0.13501L1.72 6.06501V17.935L12 23.865L22.28 17.935V6.06501L12 0.13501ZM9.29 14.875H7.79V12.995H6.15V14.875H4.65V10.865C4.65 9.58501 5.69 8.54501 6.97 8.54501C8.25 8.54501 9.29 9.58501 9.29 10.865V14.875ZM12.9 13.015H11.91V14.875H10.41V8.72501H12.9C14.08 8.72501 15.04 9.68501 15.04 10.865C15.04 12.045 14.08 13.005 12.9 13.005V13.015ZM19.18 10.225H18.19V13.605H19.18V15.105H15.7V13.605H16.69V10.225H15.7V8.72501H19.18V10.225Z" fill="#202022"/>
</g>
</svg>
