<svg width="24" height="24" viewBox="0 0 24 24" fill="none" xmlns="http://www.w3.org/2000/svg">
<g id="Type=Outline">
<g id="Shape">
<path fill-rule="evenodd" clip-rule="evenodd" d="M4.65625 10.8673C4.65625 9.58699 5.69416 8.54907 6.97449 8.54907C8.25482 8.54907 9.29273 9.58698 9.29273 10.8673V14.875H7.79273V12.9998H6.15625V14.875H4.65625V10.8673ZM7.79273 11.4998V10.8673C7.79273 10.4154 7.42639 10.0491 6.97449 10.0491C6.52259 10.0491 6.15625 10.4154 6.15625 10.8673V11.4998H7.79273Z" fill="#202022"/>
<path fill-rule="evenodd" clip-rule="evenodd" d="M10.4146 8.72339H12.907C14.0911 8.72339 15.051 9.68329 15.051 10.8674C15.051 12.0515 14.0911 13.0114 12.907 13.0114H11.9146V14.8751H10.4146V8.72339ZM11.9146 11.5114H12.907C13.2627 11.5114 13.551 11.223 13.551 10.8674C13.551 10.5117 13.2627 10.2234 12.907 10.2234H11.9146V11.5114Z" fill="#202022"/>
<path d="M15.7025 13.6077H16.695V10.2288H15.7025V8.72876H19.1875V10.2288H18.195V13.6077H19.1875V15.1077H15.7025V13.6077Z" fill="#202022"/>
<path fill-rule="evenodd" clip-rule="evenodd" d="M12 0.134033L22.2763 6.06705V17.9331L12 23.8661L1.72372 17.9331V6.06705L12 0.134033ZM3.22372 6.93307V17.067L12 22.134L20.7763 17.067V6.93307L12 1.86608L3.22372 6.93307Z" fill="#202022"/>
</g>
</g>
</svg>
