<svg width="24" height="24" viewBox="0 0 24 24" fill="none" xmlns="http://www.w3.org/2000/svg">
<g id="Type=Outline">
<path id="Vector" d="M5.76 3.12C4.302 3.12 3.12 4.302 3.12 5.76V8.64C3.12 10.098 4.302 11.28 5.76 11.28H8.64C10.098 11.28 11.28 10.098 11.28 8.64V5.76C11.28 4.302 10.098 3.12 8.64 3.12H5.76ZM4.56 5.76C4.56 5.097 5.097 4.56 5.76 4.56H8.64C9.303 4.56 9.84 5.097 9.84 5.76V8.64C9.84 9.303 9.303 9.84 8.64 9.84H5.76C5.097 9.84 4.56 9.303 4.56 8.64V5.76Z" fill="#202022"/>
<path id="Vector_2" d="M5.76 12.72C4.302 12.72 3.12 13.902 3.12 15.36V18.24C3.12 19.698 4.302 20.88 5.76 20.88H8.64C10.098 20.88 11.28 19.698 11.28 18.24V15.36C11.28 13.902 10.098 12.72 8.64 12.72H5.76ZM4.56 15.36C4.56 14.697 5.097 14.16 5.76 14.16H8.64C9.303 14.16 9.84 14.697 9.84 15.36V18.24C9.84 18.903 9.303 19.44 8.64 19.44H5.76C5.097 19.44 4.56 18.903 4.56 18.24V15.36Z" fill="#202022"/>
<path id="Vector_3" d="M12.72 5.76C12.72 4.302 13.902 3.12 15.36 3.12H18.24C19.698 3.12 20.88 4.302 20.88 5.76V8.64C20.88 10.098 19.698 11.28 18.24 11.28H15.36C13.902 11.28 12.72 10.098 12.72 8.64V5.76ZM15.36 4.56C14.697 4.56 14.16 5.097 14.16 5.76V8.64C14.16 9.303 14.697 9.84 15.36 9.84H18.24C18.903 9.84 19.44 9.303 19.44 8.64V5.76C19.44 5.097 18.903 4.56 18.24 4.56H15.36Z" fill="#202022"/>
<path id="Vector_4" d="M15.36 12.72C13.902 12.72 12.72 13.902 12.72 15.36V18.24C12.72 19.698 13.902 20.88 15.36 20.88H18.24C19.698 20.88 20.88 19.698 20.88 18.24V15.36C20.88 13.902 19.698 12.72 18.24 12.72H15.36ZM14.16 15.36C14.16 14.697 14.697 14.16 15.36 14.16H18.24C18.903 14.16 19.44 14.697 19.44 15.36V18.24C19.44 18.903 18.903 19.44 18.24 19.44H15.36C14.697 19.44 14.16 18.903 14.16 18.24V15.36Z" fill="#202022"/>
</g>
</svg>
