<svg width="24" height="24" viewBox="0 0 24 24" fill="none" xmlns="http://www.w3.org/2000/svg">
<g id="App Header">
<path id="Vector" d="M12 10.439L15.53 13.969L14.469 15.03L12.749 13.31V17.999H11.249V13.31L9.52902 15.03L8.46802 13.969L11.998 10.439H12Z" fill="#202022"/>
<path id="Vector_2" d="M7.5 2.75H16.5C19.123 2.75 21.25 4.877 21.25 7.5V16.5C21.25 19.123 19.123 21.25 16.5 21.25H7.5C4.877 21.25 2.75 19.123 2.75 16.5V7.5C2.75 4.877 4.877 2.75 7.5 2.75ZM4.25 7.5H19.75C19.75 5.705 18.295 4.25 16.5 4.25H7.5C5.705 4.25 4.25 5.705 4.25 7.5ZM4.25 9V16.5C4.25 18.295 5.705 19.75 7.5 19.75H16.5C18.295 19.75 19.75 18.295 19.75 16.5V9H4.25Z" fill="#202022"/>
</g>
</svg>
