<svg width="24" height="24" viewBox="0 0 24 24" fill="none" xmlns="http://www.w3.org/2000/svg">
<g id="Type=Filled">
<path id="Vector" d="M5.5 2.75C3.981 2.75 2.75 3.981 2.75 5.5V8.5C2.75 10.019 3.981 11.25 5.5 11.25H8.5C10.019 11.25 11.25 10.019 11.25 8.5V5.5C11.25 3.981 10.019 2.75 8.5 2.75H5.5Z" fill="#202022"/>
<path id="Vector_2" d="M5.5 12.75C3.981 12.75 2.75 13.981 2.75 15.5V18.5C2.75 20.019 3.981 21.25 5.5 21.25H8.5C10.019 21.25 11.25 20.019 11.25 18.5V15.5C11.25 13.981 10.019 12.75 8.5 12.75H5.5Z" fill="#202022"/>
<path id="Vector_3" d="M15.5 2.75C13.981 2.75 12.75 3.981 12.75 5.5V8.5C12.75 10.019 13.981 11.25 15.5 11.25H18.5C20.019 11.25 21.25 10.019 21.25 8.5V5.5C21.25 3.981 20.019 2.75 18.5 2.75H15.5Z" fill="#202022"/>
<path id="Vector_4" d="M15.5 12.75C13.981 12.75 12.75 13.981 12.75 15.5V18.5C12.75 20.019 13.981 21.25 15.5 21.25H18.5C20.019 21.25 21.25 20.019 21.25 18.5V15.5C21.25 13.981 20.019 12.75 18.5 12.75H15.5Z" fill="#202022"/>
</g>
</svg>
