<svg width="24" height="24" viewBox="0 0 24 24" fill="none" xmlns="http://www.w3.org/2000/svg">
<g id="Apple Safari">
<path id="Vector" d="M20.461 8.388C19.999 7.283 19.336 6.291 18.493 5.438C17.649 4.585 16.667 3.917 15.574 3.45C14.442 2.966 13.24 2.721 12 2.721C10.76 2.721 9.558 2.966 8.426 3.45C7.332 3.917 6.351 4.587 5.507 5.438C4.663 6.291 4.002 7.283 3.539 8.388C3.06 9.531 2.818 10.747 2.818 11.999C2.818 13.251 3.061 14.467 3.539 15.61C4.001 16.715 4.664 17.707 5.507 18.56C6.351 19.413 7.333 20.081 8.426 20.548C9.558 21.032 10.76 21.277 12 21.277C13.24 21.277 14.442 21.032 15.574 20.548C16.667 20.081 17.649 19.411 18.493 18.56C19.337 17.707 19.998 16.715 20.461 15.61C20.94 14.467 21.182 13.251 21.182 11.999C21.182 10.747 20.939 9.532 20.461 8.388ZM20.713 11.15C20.719 11.208 20.678 11.259 20.62 11.264L19.188 11.411C19.188 11.411 19.181 11.411 19.177 11.411C19.124 11.411 19.079 11.371 19.073 11.317C19.067 11.259 19.109 11.208 19.166 11.203L20.598 11.056C20.655 11.05 20.706 11.092 20.711 11.15H20.713ZM20.465 10.191C20.521 10.18 20.575 10.217 20.586 10.274C20.597 10.331 20.56 10.386 20.504 10.397L18.571 10.786C18.564 10.786 18.557 10.787 18.55 10.787C18.501 10.787 18.459 10.753 18.448 10.703C18.437 10.646 18.474 10.591 18.53 10.58L20.465 10.191ZM20.382 9.45C20.398 9.505 20.368 9.564 20.314 9.581L18.938 10.007C18.928 10.01 18.917 10.011 18.908 10.011C18.863 10.011 18.822 9.982 18.808 9.937C18.792 9.882 18.822 9.823 18.876 9.806L20.252 9.38C20.306 9.363 20.365 9.394 20.381 9.449L20.382 9.45ZM20.088 8.615C20.11 8.669 20.085 8.729 20.032 8.751L18.212 9.513C18.198 9.519 18.186 9.521 18.172 9.521C18.131 9.521 18.093 9.496 18.077 9.456C18.055 9.402 18.08 9.342 18.133 9.32L19.953 8.558C20.006 8.536 20.066 8.562 20.088 8.615ZM19.727 7.846C19.754 7.897 19.735 7.96 19.685 7.988L18.418 8.677C18.403 8.685 18.385 8.689 18.369 8.689C18.332 8.689 18.297 8.668 18.278 8.634C18.251 8.583 18.27 8.52 18.32 8.492L19.587 7.803C19.637 7.775 19.7 7.795 19.727 7.846ZM19.278 7.084C19.309 7.132 19.297 7.197 19.249 7.23L17.61 8.336C17.592 8.348 17.572 8.354 17.553 8.354C17.519 8.354 17.486 8.337 17.467 8.307C17.436 8.259 17.448 8.194 17.496 8.161L19.135 7.055C19.183 7.023 19.246 7.036 19.278 7.084ZM18.631 6.389C18.675 6.352 18.74 6.359 18.777 6.403C18.814 6.447 18.807 6.513 18.763 6.55L17.653 7.476C17.634 7.493 17.611 7.499 17.588 7.499C17.558 7.499 17.528 7.487 17.507 7.46C17.47 7.416 17.477 7.35 17.521 7.313L18.631 6.387V6.389ZM17.566 5.175C17.611 5.212 17.616 5.277 17.581 5.322L16.672 6.449C16.651 6.474 16.621 6.488 16.591 6.488C16.568 6.488 16.545 6.48 16.526 6.465C16.481 6.428 16.475 6.363 16.511 6.318L17.42 5.191C17.457 5.146 17.521 5.139 17.566 5.175ZM16.864 4.644C16.912 4.676 16.924 4.742 16.893 4.79L15.798 6.446C15.777 6.476 15.745 6.493 15.712 6.493C15.691 6.493 15.672 6.487 15.655 6.475C15.607 6.443 15.595 6.377 15.626 6.329L16.721 4.673C16.752 4.625 16.817 4.612 16.864 4.644ZM16 4.252C16.027 4.201 16.09 4.182 16.141 4.208C16.191 4.236 16.21 4.299 16.185 4.35L15.51 5.634C15.491 5.67 15.455 5.689 15.419 5.689C15.403 5.689 15.386 5.685 15.37 5.677C15.32 5.649 15.301 5.586 15.326 5.535L16.001 4.251L16 4.252ZM15.35 3.827C15.403 3.849 15.428 3.911 15.406 3.963L14.652 5.802C14.636 5.842 14.598 5.867 14.557 5.867C14.543 5.867 14.53 5.864 14.517 5.859C14.464 5.837 14.439 5.775 14.461 5.723L15.215 3.884C15.237 3.83 15.298 3.805 15.35 3.828V3.827ZM14.014 5.004L14.427 3.611C14.443 3.556 14.502 3.524 14.556 3.541C14.61 3.558 14.642 3.615 14.625 3.672L14.212 5.065C14.198 5.11 14.157 5.139 14.112 5.139C14.103 5.139 14.092 5.138 14.082 5.135C14.028 5.118 13.996 5.059 14.013 5.004H14.014ZM13.586 3.406C13.597 3.35 13.651 3.312 13.707 3.323C13.763 3.334 13.8 3.389 13.789 3.446L13.405 5.4C13.396 5.45 13.352 5.484 13.303 5.484C13.296 5.484 13.289 5.484 13.282 5.483C13.226 5.472 13.189 5.417 13.2 5.36L13.584 3.406H13.585H13.586ZM12.762 3.294C12.768 3.236 12.818 3.195 12.875 3.2C12.932 3.205 12.974 3.256 12.969 3.314L12.833 4.761C12.828 4.815 12.783 4.856 12.729 4.856C12.726 4.856 12.722 4.856 12.719 4.856C12.662 4.85 12.621 4.8 12.626 4.742L12.762 3.295L12.761 3.294H12.762ZM11.896 3.258C11.896 3.2 11.942 3.153 12 3.153C12.058 3.153 12.104 3.2 12.104 3.258V5.249C12.104 5.307 12.058 5.354 12 5.354C11.942 5.354 11.896 5.307 11.896 5.249V3.258ZM11.159 3.196C11.216 3.19 11.267 3.232 11.272 3.29L11.418 4.737C11.423 4.795 11.382 4.846 11.325 4.851C11.321 4.851 11.318 4.851 11.314 4.851C11.261 4.851 11.216 4.811 11.21 4.757L11.064 3.31C11.059 3.252 11.1 3.201 11.157 3.196H11.158H11.159ZM10.291 3.323C10.347 3.312 10.402 3.349 10.412 3.406L10.796 5.36C10.807 5.416 10.77 5.472 10.714 5.483C10.707 5.483 10.7 5.484 10.693 5.484C10.644 5.484 10.602 5.45 10.591 5.4L10.206 3.446C10.195 3.39 10.232 3.334 10.288 3.323H10.291ZM9.476 3.531C9.531 3.514 9.589 3.545 9.606 3.6L10.027 4.99C10.043 5.045 10.013 5.104 9.959 5.121C9.949 5.124 9.939 5.125 9.929 5.125C9.884 5.125 9.843 5.096 9.829 5.051L9.408 3.661C9.392 3.606 9.422 3.548 9.476 3.531ZM8.65 3.827C8.703 3.805 8.763 3.83 8.785 3.883L9.539 5.722C9.561 5.776 9.536 5.836 9.483 5.858C9.469 5.864 9.457 5.866 9.443 5.866C9.402 5.866 9.364 5.841 9.348 5.801L8.594 3.962C8.572 3.908 8.597 3.849 8.65 3.827ZM7.889 4.191C7.939 4.163 8.002 4.183 8.029 4.234L8.711 5.514C8.738 5.565 8.719 5.628 8.669 5.656C8.654 5.664 8.636 5.668 8.62 5.668C8.583 5.668 8.548 5.647 8.529 5.613L7.847 4.333C7.82 4.282 7.839 4.219 7.889 4.191ZM7.135 4.644C7.183 4.612 7.247 4.625 7.28 4.673L8.375 6.329C8.406 6.377 8.394 6.442 8.346 6.475C8.328 6.487 8.308 6.493 8.289 6.493C8.255 6.493 8.222 6.476 8.203 6.446L7.108 4.79C7.077 4.742 7.089 4.677 7.137 4.644H7.135ZM6.46 5.151C6.504 5.114 6.569 5.121 6.606 5.165L7.522 6.286C7.559 6.33 7.552 6.396 7.508 6.433C7.489 6.45 7.466 6.456 7.443 6.456C7.413 6.456 7.383 6.444 7.363 6.417L6.447 5.296C6.41 5.252 6.417 5.186 6.461 5.149L6.46 5.151ZM5.81 5.744C5.851 5.703 5.916 5.703 5.957 5.744L7.35 7.152C7.391 7.193 7.391 7.259 7.35 7.301C7.33 7.322 7.304 7.331 7.276 7.331C7.248 7.331 7.223 7.321 7.202 7.301L5.808 5.893C5.767 5.852 5.767 5.786 5.808 5.744H5.81ZM5.245 6.375C5.282 6.33 5.346 6.324 5.391 6.36L6.506 7.279C6.551 7.316 6.556 7.381 6.521 7.426C6.501 7.451 6.471 7.465 6.441 7.465C6.418 7.465 6.395 7.457 6.376 7.442L5.261 6.523C5.216 6.486 5.211 6.421 5.246 6.376L5.245 6.375ZM4.72 7.084C4.751 7.036 4.817 7.023 4.865 7.055L6.504 8.161C6.552 8.193 6.564 8.259 6.533 8.307C6.513 8.337 6.48 8.354 6.447 8.354C6.427 8.354 6.407 8.348 6.39 8.336L4.751 7.23C4.703 7.198 4.691 7.132 4.722 7.084H4.72ZM4.288 7.814C4.315 7.763 4.378 7.744 4.428 7.77L5.699 8.452C5.749 8.48 5.769 8.543 5.743 8.594C5.724 8.63 5.688 8.649 5.652 8.649C5.636 8.649 5.619 8.645 5.603 8.637L4.332 7.955C4.282 7.927 4.262 7.865 4.288 7.814ZM3.912 8.615C3.934 8.561 3.995 8.536 4.047 8.559L5.867 9.321C5.92 9.343 5.945 9.405 5.923 9.457C5.907 9.497 5.868 9.522 5.828 9.522C5.814 9.522 5.801 9.519 5.788 9.514L3.968 8.752C3.915 8.73 3.89 8.668 3.912 8.616V8.615ZM3.628 9.415C3.644 9.36 3.702 9.328 3.758 9.345L5.136 9.762C5.191 9.779 5.222 9.836 5.206 9.893C5.192 9.938 5.151 9.967 5.106 9.967C5.096 9.967 5.086 9.966 5.076 9.963L3.697 9.546C3.642 9.529 3.612 9.472 3.628 9.415ZM3.535 10.191L5.468 10.58C5.524 10.591 5.561 10.646 5.55 10.703C5.54 10.753 5.497 10.787 5.448 10.787C5.441 10.787 5.434 10.787 5.428 10.786L3.495 10.397C3.439 10.386 3.402 10.331 3.413 10.274C3.424 10.217 3.478 10.18 3.534 10.191H3.535ZM3.403 11.02L4.835 11.158C4.892 11.164 4.935 11.215 4.929 11.272C4.924 11.326 4.879 11.367 4.825 11.367C4.822 11.367 4.818 11.367 4.815 11.367L3.383 11.229C3.326 11.223 3.285 11.173 3.29 11.115C3.295 11.057 3.346 11.015 3.403 11.02ZM3.245 12C3.245 11.942 3.291 11.895 3.349 11.895H5.319C5.376 11.895 5.423 11.942 5.423 12C5.423 12.058 5.377 12.105 5.319 12.105H3.349C3.292 12.105 3.245 12.058 3.245 12ZM3.389 12.942C3.336 12.942 3.291 12.902 3.285 12.848C3.28 12.79 3.32 12.739 3.378 12.734L4.81 12.587C4.867 12.581 4.918 12.623 4.923 12.681C4.928 12.739 4.888 12.79 4.83 12.795L3.398 12.942C3.398 12.942 3.391 12.942 3.387 12.942H3.389ZM3.535 13.808C3.528 13.808 3.521 13.809 3.515 13.809C3.466 13.809 3.424 13.775 3.413 13.725C3.402 13.668 3.439 13.613 3.495 13.602L5.428 13.213C5.484 13.202 5.538 13.239 5.549 13.296C5.56 13.353 5.523 13.408 5.467 13.419L3.535 13.808ZM3.717 14.623C3.672 14.623 3.631 14.594 3.617 14.549C3.601 14.494 3.631 14.435 3.685 14.418L5.061 13.992C5.116 13.975 5.174 14.006 5.191 14.061C5.208 14.116 5.177 14.175 5.123 14.192L3.747 14.618C3.737 14.621 3.727 14.622 3.717 14.622V14.623ZM4.007 15.45C3.966 15.45 3.928 15.425 3.912 15.385C3.89 15.331 3.915 15.271 3.968 15.249L5.788 14.487C5.841 14.465 5.901 14.49 5.923 14.543C5.945 14.596 5.92 14.657 5.867 14.679L4.047 15.441C4.033 15.447 4.021 15.45 4.007 15.45ZM4.363 16.207C4.326 16.207 4.291 16.186 4.272 16.152C4.245 16.101 4.264 16.038 4.314 16.01L5.581 15.321C5.631 15.293 5.694 15.313 5.721 15.364C5.748 15.415 5.729 15.478 5.679 15.506L4.412 16.195C4.397 16.203 4.379 16.207 4.363 16.207ZM4.806 16.961C4.772 16.961 4.739 16.944 4.72 16.914C4.689 16.866 4.701 16.801 4.749 16.768L6.388 15.662C6.436 15.63 6.5 15.643 6.533 15.691C6.564 15.739 6.552 15.804 6.504 15.837L4.865 16.943C4.847 16.955 4.827 16.961 4.808 16.961H4.806ZM5.368 17.61C5.349 17.627 5.326 17.634 5.303 17.634C5.273 17.634 5.243 17.622 5.223 17.595C5.186 17.551 5.193 17.485 5.237 17.448L6.347 16.522C6.391 16.485 6.456 16.492 6.493 16.536C6.53 16.58 6.523 16.646 6.479 16.683L5.369 17.609L5.368 17.61ZM6.498 18.849C6.475 18.849 6.452 18.841 6.433 18.826C6.388 18.789 6.383 18.724 6.418 18.679L7.327 17.552C7.364 17.507 7.428 17.501 7.473 17.537C7.518 17.574 7.523 17.639 7.488 17.684L6.579 18.811C6.559 18.836 6.529 18.85 6.499 18.85L6.498 18.849ZM7.194 19.372C7.174 19.372 7.154 19.366 7.137 19.354C7.089 19.322 7.077 19.256 7.108 19.208L8.203 17.552C8.234 17.504 8.3 17.491 8.348 17.523C8.396 17.555 8.408 17.621 8.377 17.669L7.282 19.325C7.262 19.355 7.229 19.372 7.196 19.372H7.194ZM7.998 19.747C7.979 19.783 7.943 19.802 7.907 19.802C7.891 19.802 7.874 19.798 7.858 19.79C7.808 19.762 7.788 19.699 7.814 19.648L8.489 18.364C8.516 18.313 8.579 18.294 8.629 18.32C8.679 18.347 8.699 18.411 8.673 18.462L7.998 19.747ZM8.689 20.179C8.675 20.179 8.662 20.176 8.649 20.171C8.596 20.149 8.571 20.087 8.593 20.035L9.347 18.196C9.369 18.142 9.43 18.117 9.482 18.139C9.535 18.161 9.56 18.223 9.538 18.275L8.784 20.114C8.768 20.154 8.729 20.179 8.689 20.179ZM9.985 18.995L9.572 20.388C9.558 20.433 9.517 20.462 9.472 20.462C9.462 20.462 9.452 20.461 9.442 20.458C9.387 20.441 9.356 20.384 9.372 20.327L9.785 18.934C9.801 18.879 9.86 18.847 9.915 18.864C9.97 18.881 10.001 18.938 9.985 18.995ZM10.413 20.593C10.403 20.643 10.36 20.677 10.311 20.677C10.304 20.677 10.297 20.677 10.291 20.676C10.235 20.665 10.198 20.61 10.209 20.553L10.594 18.599C10.605 18.543 10.659 18.505 10.715 18.516C10.771 18.527 10.808 18.582 10.797 18.639L10.413 20.593ZM11.236 20.704C11.231 20.758 11.186 20.799 11.132 20.799C11.129 20.799 11.125 20.799 11.123 20.799C11.066 20.793 11.025 20.742 11.03 20.685L11.166 19.238C11.171 19.18 11.222 19.137 11.279 19.144C11.336 19.15 11.378 19.201 11.373 19.258L11.237 20.705L11.236 20.704ZM12.104 20.74C12.104 20.798 12.058 20.845 12 20.845C11.942 20.845 11.896 20.798 11.896 20.74V18.749C11.896 18.691 11.942 18.644 12 18.644C12.058 18.644 12.104 18.691 12.104 18.749V20.74ZM12.84 20.804C12.84 20.804 12.833 20.804 12.829 20.804C12.776 20.804 12.731 20.764 12.725 20.71L12.579 19.263C12.573 19.205 12.614 19.154 12.672 19.149C12.73 19.144 12.78 19.185 12.785 19.243L12.929 20.69C12.935 20.748 12.894 20.799 12.836 20.804H12.839H12.84ZM6.915 17.285L5.955 18.255C5.935 18.276 5.909 18.285 5.881 18.285C5.853 18.285 5.828 18.275 5.807 18.255C5.766 18.214 5.766 18.147 5.807 18.106L6.733 17.17L10.769 11.001L12.979 13.234L6.914 17.284L6.915 17.285ZM10.804 10.968L16.91 6.89L18.043 5.745C18.084 5.704 18.149 5.704 18.19 5.745C18.231 5.786 18.231 5.852 18.19 5.894L17.021 7.075L13.012 13.202L10.803 10.969L10.804 10.968ZM13.707 20.676C13.7 20.676 13.693 20.677 13.687 20.677C13.638 20.677 13.596 20.643 13.585 20.593L13.201 18.639C13.19 18.582 13.227 18.527 13.283 18.516C13.339 18.505 13.393 18.542 13.404 18.599L13.788 20.553C13.799 20.61 13.763 20.665 13.707 20.676ZM14.524 20.467C14.514 20.47 14.503 20.471 14.494 20.471C14.449 20.471 14.408 20.442 14.394 20.397L13.973 19.007C13.957 18.952 13.987 18.893 14.041 18.876C14.095 18.859 14.154 18.89 14.17 18.945L14.591 20.335C14.607 20.39 14.577 20.449 14.523 20.466L14.524 20.467ZM15.35 20.173C15.336 20.179 15.324 20.181 15.31 20.181C15.269 20.181 15.231 20.156 15.215 20.116L14.461 18.277C14.439 18.223 14.464 18.163 14.517 18.141C14.57 18.119 14.63 18.144 14.652 18.197L15.406 20.036C15.428 20.09 15.403 20.151 15.35 20.173ZM16.11 19.808C16.095 19.816 16.077 19.82 16.061 19.82C16.024 19.82 15.989 19.799 15.97 19.765L15.288 18.485C15.261 18.434 15.28 18.371 15.33 18.343C15.38 18.315 15.443 18.335 15.47 18.386L16.152 19.666C16.179 19.717 16.16 19.78 16.11 19.808ZM16.864 19.354C16.846 19.366 16.826 19.372 16.807 19.372C16.773 19.372 16.74 19.356 16.721 19.325L15.626 17.669C15.595 17.621 15.607 17.556 15.655 17.523C15.703 17.491 15.767 17.504 15.799 17.552L16.894 19.208C16.925 19.256 16.912 19.321 16.864 19.354ZM17.539 18.847C17.52 18.864 17.497 18.87 17.473 18.87C17.443 18.87 17.413 18.858 17.393 18.831L16.477 17.709C16.44 17.665 16.447 17.599 16.491 17.562C16.535 17.525 16.6 17.532 16.637 17.576L17.553 18.697C17.59 18.741 17.583 18.807 17.539 18.844V18.847ZM18.19 18.255C18.17 18.276 18.144 18.285 18.116 18.285C18.088 18.285 18.063 18.275 18.042 18.255L16.649 16.847C16.608 16.806 16.608 16.739 16.649 16.698C16.69 16.657 16.755 16.657 16.796 16.698L18.189 18.106C18.23 18.147 18.23 18.214 18.189 18.255H18.19ZM18.755 17.624C18.735 17.649 18.705 17.663 18.675 17.663C18.652 17.663 18.629 17.655 18.609 17.64L17.494 16.721C17.449 16.684 17.443 16.619 17.479 16.574C17.516 16.529 17.58 16.523 17.625 16.559L18.74 17.478C18.785 17.515 18.791 17.579 18.755 17.624ZM19.278 16.914C19.258 16.944 19.225 16.961 19.192 16.961C19.172 16.961 19.153 16.955 19.135 16.943L17.496 15.837C17.448 15.805 17.436 15.739 17.467 15.691C17.498 15.643 17.564 15.63 17.611 15.662L19.25 16.768C19.298 16.8 19.309 16.866 19.278 16.914ZM19.711 16.184C19.692 16.22 19.656 16.239 19.62 16.239C19.604 16.239 19.587 16.235 19.571 16.227L18.3 15.545C18.25 15.518 18.231 15.454 18.256 15.403C18.283 15.352 18.346 15.333 18.396 15.359L19.667 16.041C19.718 16.069 19.737 16.133 19.711 16.184ZM20.088 15.385C20.072 15.425 20.033 15.45 19.992 15.45C19.978 15.45 19.965 15.447 19.953 15.442L18.133 14.68C18.08 14.658 18.055 14.596 18.077 14.544C18.099 14.49 18.16 14.466 18.212 14.488L20.032 15.25C20.085 15.272 20.11 15.333 20.088 15.385ZM20.371 14.585C20.357 14.63 20.317 14.659 20.272 14.659C20.262 14.659 20.251 14.658 20.242 14.655L18.864 14.238C18.809 14.222 18.778 14.164 18.794 14.107C18.81 14.052 18.868 14.02 18.924 14.037L20.302 14.454C20.356 14.47 20.388 14.528 20.371 14.585ZM20.484 13.809C20.484 13.809 20.47 13.809 20.463 13.808L18.53 13.419C18.474 13.408 18.437 13.353 18.448 13.296C18.459 13.239 18.514 13.202 18.569 13.213L20.502 13.602C20.558 13.613 20.595 13.668 20.584 13.725C20.574 13.775 20.531 13.809 20.482 13.809H20.484ZM20.605 12.98C20.605 12.98 20.598 12.98 20.596 12.98L19.164 12.842C19.107 12.836 19.066 12.785 19.071 12.728C19.076 12.671 19.127 12.629 19.184 12.634L20.616 12.772C20.673 12.778 20.714 12.829 20.709 12.886C20.703 12.94 20.658 12.981 20.605 12.981V12.98ZM20.65 12.105H18.68C18.623 12.105 18.576 12.058 18.576 12C18.576 11.942 18.622 11.895 18.68 11.895H20.65C20.707 11.895 20.754 11.942 20.754 12C20.754 12.058 20.708 12.105 20.65 12.105ZM12 1.896C6.476 1.896 2 6.419 2 12C2 17.581 6.476 22.104 12 22.104C17.524 22.104 22 17.581 22 12C22 6.419 17.522 1.896 12 1.896ZM18.639 18.708C17.777 19.579 16.772 20.263 15.654 20.742C14.496 21.237 13.266 21.487 11.998 21.487C10.73 21.487 9.5 21.236 8.342 20.742C7.224 20.264 6.219 19.581 5.357 18.708C4.495 17.837 3.818 16.822 3.344 15.692C2.855 14.522 2.606 13.28 2.606 11.998C2.606 10.716 2.854 9.474 3.344 8.304C3.817 7.174 4.493 6.159 5.357 5.288C6.219 4.417 7.224 3.733 8.342 3.254C9.5 2.759 10.73 2.509 11.998 2.509C13.266 2.509 14.496 2.76 15.654 3.254C16.772 3.732 17.777 4.415 18.639 5.288C19.501 6.159 20.178 7.174 20.652 8.304C21.141 9.474 21.39 10.716 21.39 11.998C21.39 13.28 21.142 14.522 20.652 15.692C20.179 16.822 19.503 17.837 18.639 18.708Z" fill="#202022"/>
</g>
</svg>
