<svg width="24" height="24" viewBox="0 0 24 24" fill="none" xmlns="http://www.w3.org/2000/svg">
<g id="Apple">
<path id="Vector" d="M19.186 16.93C18.917 17.554 18.598 18.129 18.229 18.658C17.725 19.378 17.313 19.877 16.996 20.154C16.504 20.608 15.976 20.841 15.411 20.855C15.005 20.855 14.516 20.739 13.947 20.504C13.376 20.27 12.851 20.154 12.371 20.154C11.868 20.154 11.328 20.27 10.75 20.504C10.172 20.739 9.70601 20.861 9.34901 20.874C8.80701 20.897 8.26701 20.658 7.72801 20.155C7.38401 19.854 6.95401 19.337 6.43801 18.606C5.88501 17.825 5.43001 16.919 5.07401 15.886C4.69201 14.77 4.50101 13.69 4.50101 12.645C4.50101 11.447 4.75901 10.414 5.27501 9.54799C5.68101 8.85299 6.22101 8.30399 6.89701 7.90099C7.57301 7.49799 8.30301 7.29299 9.09001 7.27999C9.52001 7.27999 10.085 7.41399 10.786 7.67599C11.485 7.93899 11.934 8.07299 12.131 8.07299C12.278 8.07299 12.777 7.91699 13.623 7.60499C14.423 7.31599 15.098 7.19699 15.651 7.24399C17.149 7.36499 18.275 7.95799 19.023 9.02599C17.683 9.84099 17.02 10.982 17.033 12.447C17.045 13.588 17.457 14.537 18.267 15.29C18.634 15.64 19.044 15.91 19.5 16.102C19.401 16.39 19.297 16.665 19.186 16.93ZM15.75 3.35799C15.75 4.25199 15.425 5.08699 14.776 5.85899C13.993 6.77699 13.047 7.30799 12.02 7.22399C12.007 7.11699 11.999 7.00399 11.999 6.88499C11.999 6.02699 12.371 5.10799 13.032 4.35699C13.362 3.97699 13.782 3.66099 14.291 3.40799C14.799 3.15999 15.279 3.02199 15.731 2.99899C15.744 3.11899 15.75 3.23899 15.75 3.35799Z" fill="#202022"/>
</g>
</svg>
