<svg width="24" height="24" viewBox="0 0 24 24" fill="none" xmlns="http://www.w3.org/2000/svg">
<g id="Type=Outline">
<path id="Vector" d="M13.215 15.225L14.453 13.987L13.216 12.75L14.277 11.689L15.514 12.926L16.751 11.689L17.812 12.75L16.575 13.987L17.813 15.225L16.752 16.286L15.514 15.048L14.276 16.286L13.215 15.225Z" fill="#202022"/>
<path id="Vector_2" d="M11.53 7.75094L7.49997 11.7809L5.46997 9.75094L6.53097 8.68994L7.50097 9.65994L10.471 6.68994L11.532 7.75094H11.53Z" fill="#202022"/>
<path id="Vector_3" d="M14.704 6.70605L6.70398 15.2061L7.79598 16.2341L15.796 7.73406L14.704 6.70605Z" fill="#202022"/>
<path id="Vector_4" d="M12.5901 1.75706L12.0001 1.00806L11.4111 1.75706C10.7471 2.60106 9.30006 3.46906 7.36706 3.92006C5.68906 4.31106 4.11406 4.27806 3.00206 3.95006L2.18206 3.70906L2.04906 4.55306C0.238058 16.0711 7.05906 21.7681 11.8201 22.9481L12.0001 22.9931L12.1801 22.9481C16.9411 21.7681 23.7621 16.0711 21.9511 4.55306L21.8181 3.70906L20.9981 3.95006C19.8861 4.27706 18.3111 4.31106 16.6331 3.92006C14.7001 3.46906 13.2531 2.60106 12.5891 1.75706H12.5901ZM7.70706 5.38006C9.45106 4.97306 10.9821 4.23006 12.0001 3.31006C13.0181 4.23106 14.5491 4.97406 16.2931 5.38006C17.8121 5.73406 19.3141 5.79306 20.5811 5.58006C21.8201 15.5851 15.9511 20.3671 12.0001 21.4451C8.04906 20.3671 2.18006 15.5851 3.41906 5.58006C4.68606 5.79306 6.18906 5.73406 7.70706 5.38006Z" fill="#202022"/>
</g>
</svg>
