<svg width="24" height="24" viewBox="0 0 24 24" fill="none" xmlns="http://www.w3.org/2000/svg">
<g id="Type=Filled">
<path id="Vector" d="M15.021 9.47394C14.458 9.98394 14.001 10.6509 14.001 11.4099V13.3609H19.001C21.072 13.3609 22.751 15.0399 22.751 17.1109V18.3609H1.25101V17.1109C1.25101 15.0399 2.93001 13.3609 5.00101 13.3609H10.001V11.4099C10.001 10.6509 9.54301 9.98394 8.98001 9.47394C8.07101 8.65094 7.50101 7.46094 7.50101 6.13794C7.50101 3.65294 9.51601 1.63794 12.001 1.63794C14.486 1.63794 16.501 3.65294 16.501 6.13794C16.501 7.46094 15.93 8.64994 15.022 9.47394H15.021Z" fill="#202022"/>
<path id="Vector_2" d="M3.25 20.611V19.861H20.75V20.611C20.75 21.577 19.967 22.361 19 22.361H5C4.034 22.361 3.25 21.578 3.25 20.611Z" fill="#202022"/>
</g>
</svg>
