<svg width="24" height="24" viewBox="0 0 24 24" fill="none" xmlns="http://www.w3.org/2000/svg">
<g id="Type=Filled">
<path id="Vector" d="M22 4.6L21.9 3.8L21 3.9C19.9 4.2 18.3 4.3 16.6 3.9C14.7 3.4 13.2 2.6 12.6 1.7L12 1L11.4 1.7C10.7 2.5 9.30004 3.4 7.40004 3.9C5.70004 4.3 4.10004 4.3 3.00004 3.9L2.20004 3.7L2.00004 4.6C0.200041 16.1 7.00004 21.8 11.8 23H12.2C16.9 21.8 23.8 16.1 22 4.6ZM4.50004 9.5L5.60004 8.4L6.60004 9.4L9.60004 6.4L10.7 7.5L6.70004 11.5L4.50004 9.5ZM7.80004 16L6.70004 15L14.7 6.5L15.8 7.5L7.80004 16ZM17 16.1L15.8 14.9L14.6 16.1L13.5 15L14.7 13.8L13.5 12.6L14.6 11.5L15.8 12.7L17 11.5L18.1 12.6L16.9 13.8L18.1 15L17 16.1Z" fill="#202022"/>
</g>
</svg>
