<svg width="24" height="24" viewBox="0 0 24 24" fill="none" xmlns="http://www.w3.org/2000/svg">
<g id="Type=Outline">
<path id="Vector" d="M9.25 14.236H5C2.929 14.236 1.25 15.915 1.25 17.986V19.736H3.25V20.986C3.25 21.952 4.033 22.736 5 22.736H19C19.966 22.736 20.75 21.953 20.75 20.986V19.736H22.75V17.986C22.75 15.915 21.071 14.236 19 14.236H14.75V11.785C14.75 11.334 15.029 10.853 15.524 10.405C16.583 9.44504 17.25 8.05704 17.25 6.51404C17.25 3.61404 14.899 1.26404 12 1.26404C9.101 1.26404 6.75 3.61504 6.75 6.51404C6.75 8.05704 7.417 9.44604 8.476 10.405C8.971 10.854 9.25 11.334 9.25 11.785V14.236ZM8.25 6.51404C8.25 4.44304 9.929 2.76404 12 2.76404C14.071 2.76404 15.75 4.44304 15.75 6.51404C15.75 7.61604 15.275 8.60704 14.517 9.29404C13.887 9.86504 13.25 10.718 13.25 11.786V14.237H10.75V11.786C10.75 10.719 10.113 9.86504 9.483 9.29404C8.725 8.60704 8.25 7.61604 8.25 6.51404ZM5 15.736H19C20.243 15.736 21.25 16.743 21.25 17.986V18.236H2.75V17.986C2.75 16.743 3.757 15.736 5 15.736ZM4.75 20.986V19.736H19.25V20.986C19.25 21.124 19.138 21.236 19 21.236H5C4.862 21.236 4.75 21.124 4.75 20.986Z" fill="#202022"/>
</g>
</svg>
