<svg width="24" height="24" viewBox="0 0 24 24" fill="none" xmlns="http://www.w3.org/2000/svg">
<g id="Type=Filled">
<path id="Vector" d="M2.75 5.5C2.75 3.981 3.981 2.75 5.5 2.75H8.5C10.019 2.75 11.25 3.981 11.25 5.5V8.5C11.25 10.019 10.019 11.25 8.5 11.25H5.5C3.981 11.25 2.75 10.019 2.75 8.5V5.5Z" fill="#202022"/>
<path id="Vector_2" d="M2.75 15.5C2.75 13.981 3.981 12.75 5.5 12.75H8.5C10.019 12.75 11.25 13.981 11.25 15.5V18.5C11.25 20.019 10.019 21.25 8.5 21.25H5.5C3.981 21.25 2.75 20.019 2.75 18.5V15.5Z" fill="#202022"/>
<path id="Vector_3" d="M12.75 15.5C12.75 13.981 13.981 12.75 15.5 12.75H18.5C20.019 12.75 21.25 13.981 21.25 15.5V18.5C21.25 20.019 20.019 21.25 18.5 21.25H15.5C13.981 21.25 12.75 20.019 12.75 18.5V15.5Z" fill="#202022"/>
<path id="Vector_4" d="M16.25 10.558V7.80798H13.5V6.30798H16.25V3.55798H17.75V6.30798H20.5V7.80798H17.75V10.558H16.25Z" fill="#202022"/>
</g>
</svg>
