<svg width="24" height="24" viewBox="0 0 24 24" fill="none" xmlns="http://www.w3.org/2000/svg">
<g id="Arrival Outline">
<path id="Vector" d="M10.579 2.435L7.434 1.88L9.897 10.945L6.506 10.347L5.998 9.34301C5.607 8.57101 4.875 8.028 4.022 7.878L0.944 7.335L2.319 13.475C2.562 14.558 3.432 15.39 4.525 15.582L19.222 18.174C20.201 18.347 21.209 18.123 22.024 17.553L22.094 17.504C23.112 16.791 23.359 15.388 22.647 14.37L22.598 14.3C22.028 13.485 21.157 12.931 20.177 12.758L16.842 12.17L12.542 3.877C12.148 3.117 11.422 2.583 10.578 2.435H10.579ZM11.965 12.834L9.502 3.769L10.319 3.913C10.702 3.981 11.033 4.223 11.212 4.569L15.853 13.52L19.918 14.237C20.506 14.341 21.028 14.673 21.37 15.162L21.419 15.232C21.656 15.571 21.574 16.039 21.235 16.276L21.165 16.325C20.676 16.667 20.071 16.801 19.484 16.698L4.787 14.106C4.29 14.018 3.895 13.641 3.784 13.148L2.901 9.20401L3.763 9.356C4.15 9.424 4.483 9.67101 4.661 10.022L5.508 11.695L11.965 12.834Z" fill="#202022"/>
<path id="Vector_2" d="M2.051 22.119H22.051V20.619H2.051V22.119Z" fill="#202022"/>
</g>
</svg>
