<svg width="24" height="24" viewBox="0 0 24 24" fill="none" xmlns="http://www.w3.org/2000/svg">
<g id="Type=Outline">
<path id="Vector" d="M20.936 9.94397L12.587 1.59497V6.60297C6.745 6.98897 2.126 11.85 2.126 17.79C2.126 18.757 2.249 19.696 2.479 20.592H3.932C4.95 16.637 8.398 13.658 12.588 13.338V18.293L20.936 9.94397ZM14.087 8.07797V5.21597L18.815 9.94397L14.087 14.672V11.81H13.337C9.192 11.81 5.573 14.059 3.633 17.403C3.837 12.219 8.103 8.07897 13.337 8.07897H14.087V8.07797Z" fill="#202022"/>
<path id="Vector_2" d="M17.625 15.405V18.155H14.875V19.655H17.625V22.405H19.125V19.655H21.875V18.155H19.125V15.405H17.625Z" fill="#202022"/>
</g>
</svg>
