<svg width="24" height="24" viewBox="0 0 24 24" fill="none" xmlns="http://www.w3.org/2000/svg">
<g id="Type=Filled">
<path id="Vector" d="M15.552 0.946045L20.491 5.88505V21.446H15.223C16.908 20.128 17.991 18.076 17.991 15.771C17.991 11.795 14.767 8.57104 10.791 8.57104C8.412 8.57104 6.302 9.72504 4.991 11.504V0.946045H15.552ZM18.681 6.19604L15.242 2.75704V6.19604H18.681Z" fill="#202022"/>
<path id="Vector_2" d="M7.32599 20.297C8.15299 20.931 9.15799 21.344 10.254 21.446H11.329C14.225 21.175 16.492 18.738 16.492 15.771C16.492 12.623 13.94 10.071 10.792 10.071C7.64399 10.071 5.09199 12.623 5.09199 15.771C5.09199 16.952 5.45099 18.048 6.06499 18.958C6.12899 19.053 6.19599 19.146 6.26499 19.236L3.50699 21.994L4.56799 23.055L7.32599 20.297ZM10.792 11.571C13.112 11.571 14.992 13.451 14.992 15.771C14.992 18.091 13.112 19.971 10.792 19.971C8.47199 19.971 6.59199 18.091 6.59199 15.771C6.59199 13.451 8.47199 11.571 10.792 11.571Z" fill="#202022"/>
</g>
</svg>
