<svg width="24" height="24" viewBox="0 0 24 24" fill="none" xmlns="http://www.w3.org/2000/svg">
<g id="Type=Outline">
<path id="Vector" d="M15.552 0.945946H4.991V11.5039C5.414 10.9299 5.92 10.4209 6.491 9.99495V2.44495H14.741V6.69895H18.991V19.9449H16.658C16.254 20.5109 15.77 21.0169 15.223 21.4449H20.491V5.88395L15.552 0.945946Z" fill="#202022"/>
<path id="Vector_2" d="M10.792 10.071C13.94 10.071 16.492 12.623 16.492 15.771C16.492 18.919 13.94 21.471 10.792 21.471C9.488 21.471 8.287 21.033 7.327 20.297L4.57 23.054L3.509 21.993L6.266 19.236C5.53 18.276 5.092 17.074 5.092 15.771C5.092 12.623 7.644 10.071 10.792 10.071ZM14.992 15.771C14.992 13.451 13.111 11.571 10.792 11.571C8.473 11.571 6.592 13.451 6.592 15.771C6.592 18.091 8.472 19.971 10.792 19.971C13.111 19.971 14.992 18.091 14.992 15.771Z" fill="#202022"/>
</g>
</svg>
