<svg width="24" height="24" viewBox="0 0 24 24" fill="none" xmlns="http://www.w3.org/2000/svg">
<g id="Type=Filled">
<path id="Shape" d="M18.75 7.47502C19.8 7.47502 20.76 7.85502 21.5 8.48502V7.33502C21.5 5.85502 20.4 4.52502 18.89 4.52502H2.61C1.1 4.53502 0 5.86502 0 7.34502V12.235C0 13.715 1.1 15.045 2.61 15.045H13V11.485H14.51C14.64 9.25502 16.49 7.48502 18.75 7.48502V7.47502ZM3.75 10.725C3.2 10.725 2.75 10.275 2.75 9.72502C2.75 9.17502 3.2 8.72502 3.75 8.72502C4.3 8.72502 4.75 9.17502 4.75 9.72502C4.75 10.275 4.3 10.725 3.75 10.725ZM7.75 10.725C7.2 10.725 6.75 10.275 6.75 9.72502C6.75 9.17502 7.2 8.72502 7.75 8.72502C8.3 8.72502 8.75 9.17502 8.75 9.72502C8.75 10.275 8.3 10.725 7.75 10.725ZM11.75 10.725C11.2 10.725 10.75 10.275 10.75 9.72502C10.75 9.17502 11.2 8.72502 11.75 8.72502C12.3 8.72502 12.75 9.17502 12.75 9.72502C12.75 10.275 12.3 10.725 11.75 10.725ZM21.5 12.975V11.725C21.5 10.205 20.27 8.97502 18.75 8.97502C17.23 8.97502 16 10.205 16 11.725V12.975H14.5V19.475H23V12.975H21.5ZM20 12.975H17.5V11.725C17.5 11.635 17.5 11.555 17.53 11.475C17.65 10.905 18.15 10.475 18.75 10.475C19.35 10.475 19.86 10.905 19.97 11.475C19.99 11.555 20 11.635 20 11.725V12.975Z" fill="#202022"/>
</g>
</svg>
