<svg width="24" height="24" viewBox="0 0 24 24" fill="none" xmlns="http://www.w3.org/2000/svg">
<g id="Type=Outline">
<g id="Shape">
<path d="M3.15476 4.25C1.70531 4.25 0.5 5.40221 0.5 6.86046V13.1395C0.5 14.5978 1.70531 15.75 3.15476 15.75H13.5V14.25H3.15476C2.50027 14.25 2 13.7363 2 13.1395V6.86046C2 6.26371 2.50027 5.75 3.15476 5.75H19.3452C19.9997 5.75 20.5 6.26371 20.5 6.86047V7.9368C21.0576 8.10812 21.5662 8.39105 22 8.75952V6.86047C22 5.40221 20.7947 4.25 19.3452 4.25H3.15476Z" fill="#202022"/>
<path fill-rule="evenodd" clip-rule="evenodd" d="M22 12C22 10.4812 20.7688 9.25 19.25 9.25C17.7312 9.25 16.5 10.4812 16.5 12V13.25H15V19.75H23.5V13.25H22V12ZM20.5 13.25H18V12C18 11.3096 18.5596 10.75 19.25 10.75C19.9404 10.75 20.5 11.3096 20.5 12V13.25Z" fill="#202022"/>
<path d="M6.25 11C6.80228 11 7.25 10.5523 7.25 10C7.25 9.44772 6.80228 9 6.25 9C5.69772 9 5.25 9.44772 5.25 10C5.25 10.5523 5.69772 11 6.25 11Z" fill="#202022"/>
<path d="M11.25 10C11.25 10.5523 10.8023 11 10.25 11C9.69771 11 9.25 10.5523 9.25 10C9.25 9.44772 9.69771 9 10.25 9C10.8023 9 11.25 9.44772 11.25 10Z" fill="#202022"/>
<path d="M14.25 11C14.8023 11 15.25 10.5523 15.25 10C15.25 9.44772 14.8023 9 14.25 9C13.6977 9 13.25 9.44772 13.25 10C13.25 10.5523 13.6977 11 14.25 11Z" fill="#202022"/>
</g>
</g>
</svg>
