<svg width="24" height="24" viewBox="0 0 24 24" fill="none" xmlns="http://www.w3.org/2000/svg">
<g id="Type=Filled">
<path id="Vector" d="M1.625 1.625V21.125H13.152C11.674 19.259 10.652 16.554 10.917 13.255L11.028 11.875H17.125V1.625H1.625ZM15.201 21.125C13.664 19.738 12.303 17.31 12.378 14.04C12.383 13.822 12.394 13.6 12.412 13.375H22.337C22.756 18.588 19.562 21.832 17.374 22.375C16.7 22.208 15.93 21.784 15.2 21.125H15.201ZM10.405 4.405L5.875 8.935L3.345 6.405L4.406 5.344L5.876 6.814L9.346 3.344L10.407 4.405H10.405ZM10.405 9.905L5.875 14.435L3.345 11.905L4.406 10.844L5.876 12.314L9.346 8.844L10.407 9.905H10.405Z" fill="#202022"/>
</g>
</svg>
