<svg width="24" height="24" viewBox="0 0 24 24" fill="none" xmlns="http://www.w3.org/2000/svg">
<g id="Type=Filled">
<path id="Vector" d="M8.90001 2.80005H15C17 2.80005 18.9 4.10005 19.5 6.00005L21 10.4C21.8 11.2 22.2 12.3 22.2 13.5V20C22.2 20.6 21.8 21 21.2 21H19.2C18.6 21 18.2 20.6 18.2 20V18.3H5.70001V20.1C5.70001 20.7001 5.30001 21.1 4.70001 21.1H2.70001C2.10001 21.1 1.70001 20.7001 1.70001 20.1V13.6C1.70001 12.4 2.20001 11.3 2.90001 10.5L4.40001 6.10005C5.00001 4.20005 6.90001 2.90005 8.90001 2.90005V2.80005ZM17.5 8.90005C18 8.90005 18.6 9.00005 19 9.10005L18.2 6.60005C17.8 5.30005 16.5 4.40005 15.1 4.40005H8.90001C7.50001 4.40005 6.30001 5.30005 5.80001 6.60005L5.00001 9.10005C5.40001 9.00005 6.00001 8.90005 6.50001 8.90005H17.5ZM6.50001 15.1C7.30001 15.1 8.00001 14.4 8.00001 13.6C8.00001 12.8 7.30001 12.1 6.50001 12.1C5.70001 12.1 5.00001 12.8 5.00001 13.6C5.00001 14.4 5.70001 15.1 6.50001 15.1ZM19 13.6C19 12.8 18.3 12.1 17.5 12.1C16.7 12.1 16 12.7 16 13.6C16 14.5 16.7 15.1 17.5 15.1C18.3 15.1 19 14.4 19 13.6ZM9.50001 14.4H14.5V12.9H9.50001V14.4Z" fill="#202022"/>
</g>
</svg>
