<svg width="24" height="24" viewBox="0 0 24 24" fill="none" xmlns="http://www.w3.org/2000/svg">
<g id="Type=Filled">
<g id="Shape">
<path d="M7.375 16.1089C7.37504 17.3515 8.38239 18.3589 9.625 18.3589C10.8676 18.3589 11.875 17.3515 11.875 16.1089V9.85888H12.125C13.6438 9.85888 14.875 11.0901 14.875 12.6089V20.1089C14.875 21.6276 13.6438 22.8589 12.125 22.8589H7.125C5.60624 22.8589 4.37504 21.6276 4.375 20.1089V12.6089C4.375 11.0901 5.60622 9.85888 7.125 9.85888H7.375V16.1089Z" fill="#202022"/>
<path d="M19.625 21.8589H16.625V20.3589H19.625V21.8589Z" fill="#202022"/>
<path d="M19.625 18.8589H16.625V17.3589H19.625V18.8589Z" fill="#202022"/>
<path d="M10.375 16.1089C10.375 16.523 10.0392 16.8589 9.625 16.8589C9.21079 16.8589 8.87504 16.523 8.875 16.1089V8.85888H10.375V16.1089Z" fill="#202022"/>
<path d="M19.625 15.8589H16.625V14.3589H19.625V15.8589Z" fill="#202022"/>
<path d="M19.625 12.8589H16.625V11.3589H19.625V12.8589Z" fill="#202022"/>
<path d="M6.84473 3.37158C7.50566 0.397616 11.7443 0.397634 12.4053 3.37158C12.5472 4.01015 12.4654 4.67808 12.1729 5.26318L11.125 7.35888H8.125L7.07715 5.26318C6.78466 4.67809 6.70283 4.01013 6.84473 3.37158Z" fill="#202022"/>
</g>
</g>
</svg>
