<svg width="24" height="24" viewBox="0 0 24 24" fill="none" xmlns="http://www.w3.org/2000/svg">
<g id="Type=Outline">
<path id="Vector" d="M2.125 1.625H17.625V11.875H16.125V3.125H3.625V19.625H11.67C11.963 20.172 12.294 20.673 12.652 21.125H2.125V1.625Z" fill="#202022"/>
<path id="Vector_2" d="M11.912 13.375C11.703 15.981 12.396 18.095 13.415 19.625C13.806 20.213 14.246 20.714 14.701 21.125C15.431 21.784 16.201 22.208 16.875 22.375C19.063 21.832 22.256 18.588 21.838 13.375H11.913H11.912Z" fill="#202022"/>
<path id="Vector_3" d="M11.905 5.40499L7.375 9.93499L4.845 7.40499L5.906 6.34399L7.376 7.81399L10.846 4.34399L11.907 5.40499H11.905Z" fill="#202022"/>
<path id="Vector_4" d="M7.375 15.436L11.905 10.906L10.844 9.84497L7.374 13.315L5.904 11.845L4.843 12.906L7.373 15.436H7.375Z" fill="#202022"/>
</g>
</svg>
