<svg width="24" height="24" viewBox="0 0 24 24" fill="none" xmlns="http://www.w3.org/2000/svg">
<g id="Type=Outline">
<g id="Shape">
<path fill-rule="evenodd" clip-rule="evenodd" d="M6.1543 3.78565C7.11295 0.20287 12.3155 0.260541 13.1377 3.9585L13.1914 4.26319C13.2865 4.97523 13.1671 5.70238 12.8438 6.34912L11.875 8.28565V9.85889H12.125C13.6438 9.85889 14.875 11.0901 14.875 12.6089V20.1089C14.875 21.6277 13.6438 22.8589 12.125 22.8589H7.125C5.60622 22.8589 4.375 21.6277 4.375 20.1089V12.6089C4.375 11.0901 5.60622 9.85889 7.125 9.85889H7.375V8.28565L6.40625 6.34912C6.03669 5.60994 5.93303 4.76523 6.1123 3.9585L6.1543 3.78565ZM7.125 11.3589C6.43465 11.3589 5.875 11.9185 5.875 12.6089V20.1089C5.875 20.7992 6.43464 21.3589 7.125 21.3589H12.125C12.8154 21.3589 13.375 20.7992 13.375 20.1089V12.6089C13.375 11.9185 12.8154 11.3589 12.125 11.3589H11.875V16.1089C11.875 17.3515 10.8676 18.3589 9.625 18.3589C8.38237 18.3589 7.375 17.3515 7.375 16.1089V11.3589H7.125ZM8.875 16.1089C8.875 16.5231 9.21077 16.8589 9.625 16.8589C10.0392 16.8589 10.375 16.5231 10.375 16.1089V8.85889H8.875V16.1089ZM11.6729 4.28467C11.2011 2.16225 8.25618 2.09564 7.62988 4.08545L7.57617 4.28467C7.47174 4.755 7.53261 5.24729 7.74805 5.67823L8.58887 7.35889H10.6611L11.502 5.67823C11.6906 5.30099 11.7606 4.87675 11.7051 4.46143L11.6729 4.28467Z" fill="#202022"/>
<path d="M19.625 21.8589H16.625V20.3589H19.625V21.8589Z" fill="#202022"/>
<path d="M19.625 18.8589H16.625V17.3589H19.625V18.8589Z" fill="#202022"/>
<path d="M19.625 15.8589H16.625V14.3589H19.625V15.8589Z" fill="#202022"/>
<path d="M19.625 12.8589H16.625V11.3589H19.625V12.8589Z" fill="#202022"/>
</g>
</g>
</svg>
