<svg width="24" height="24" viewBox="0 0 24 24" fill="none" xmlns="http://www.w3.org/2000/svg">
<g id="Type=Outline">
<path id="Vector" d="M6.5 15.125C7.328 15.125 8 14.453 8 13.625C8 12.797 7.328 12.125 6.5 12.125C5.672 12.125 5 12.797 5 13.625C5 14.453 5.672 15.125 6.5 15.125Z" fill="#202022"/>
<path id="Vector_2" d="M19 13.625C19 14.453 18.328 15.125 17.5 15.125C16.672 15.125 16 14.453 16 13.625C16 12.797 16.672 12.125 17.5 12.125C18.328 12.125 19 12.797 19 13.625Z" fill="#202022"/>
<path id="Vector_3" d="M9.5 14.375H14.5V12.875H9.5V14.375Z" fill="#202022"/>
<path id="Vector_4" d="M4.377 6.123C5.024 4.183 6.839 2.875 8.883 2.875H15.117C17.161 2.875 18.977 4.183 19.623 6.123L21.085 10.509C21.811 11.343 22.25 12.433 22.25 13.625V20.09C22.25 20.642 21.802 21.09 21.25 21.09H19.25C18.698 21.09 18.25 20.642 18.25 20.09V18.375H5.75V20.125C5.75 20.677 5.302 21.125 4.75 21.125H2.75C2.198 21.125 1.75 20.677 1.75 20.125V13.625C1.75 12.433 2.189 11.343 2.915 10.509L4.377 6.123ZM19.788 11.362L19.766 11.295C19.181 10.725 18.381 10.374 17.5 10.374H6.5C5.619 10.374 4.819 10.725 4.234 11.295L4.212 11.362L4.179 11.351C3.605 11.937 3.251 12.74 3.251 13.625V16.625C3.251 16.763 3.363 16.875 3.501 16.875H20.501C20.639 16.875 20.751 16.763 20.751 16.625V13.625C20.751 12.74 20.397 11.937 19.823 11.351L19.79 11.362H19.788ZM18.2 6.597C17.758 5.27 16.516 4.375 15.117 4.375H8.883C7.484 4.375 6.242 5.27 5.8 6.597L4.955 9.132C5.439 8.965 5.959 8.875 6.5 8.875H17.5C18.041 8.875 18.561 8.965 19.045 9.132L18.2 6.597Z" fill="#202022"/>
</g>
</svg>
