<svg width="24" height="24" viewBox="0 0 24 24" fill="none" xmlns="http://www.w3.org/2000/svg">
<g id="Type=Outline">
<path id="Vector" d="M7.8 7.90002V17.9H9.3V7.90002H7.8Z" fill="#202022"/>
<path id="Vector_2" d="M14.8 17.9V7.90002H16.3V17.9H14.8Z" fill="#202022"/>
<path id="Vector_3" d="M11.2 7.90002V17.9H12.7V7.90002H11.2Z" fill="#202022"/>
<path id="Vector_4" d="M9.2 2.39998C9.2 1.39998 10 0.599976 11 0.599976H13C14 0.599976 14.8 1.39998 14.8 2.39998V4.59998H17C18.5 4.59998 19.8 5.79998 19.8 7.39998V18.4C19.8 19.9 18.6 21.2 17 21.2H16.8C16.9 21.4 17 21.7 17 22C17 22.8 16.3 23.5 15.5 23.5C14.7 23.5 14 22.7 14 21.9C14 21.6 14.1 21.4 14.2 21.1H9.8C9.9 21.3 10 21.6 10 21.9C10 22.7 9.3 23.4 8.5 23.4C7.7 23.4 7 22.7 7 21.9C7 21.6 7.1 21.4 7.2 21.1H7C5.5 21.1 4.2 19.9 4.2 18.3V7.29998C4.2 5.79998 5.4 4.49998 7 4.49998H9.2V2.39998ZM13.2 2.39998C13.2 2.19998 13.1 2.09998 12.9 2.19998H10.9C10.8 2.19998 10.7 2.29998 10.7 2.39998V4.59998H13.2V2.39998ZM7 6.09998C6.3 6.09998 5.8 6.69998 5.8 7.29998V18.3C5.8 19 6.4 19.5 7 19.5H17C17.7 19.5 18.2 18.9 18.2 18.3V7.29998C18.2 6.59998 17.6 6.09998 17 6.09998H7Z" fill="#202022"/>
</g>
</svg>
