<svg width="24" height="24" viewBox="0 0 24 24" fill="none" xmlns="http://www.w3.org/2000/svg">
<g id="Type=Outline">
<path id="Shape" fill-rule="evenodd" clip-rule="evenodd" d="M20.87 16.97L18 15.32V14.51L12.89 12.33C12.43 12.13 12.13 11.68 12.13 11.18V3.75H11.5V2H10V3.75H4.14V2H2.64V3.75H2V19.5C2 21.02 3.23 22.25 4.75 22.25H18V21.5H19.75C20.99 21.5 22 20.49 22 19.25V18.92C22 18.11 21.57 17.37 20.87 16.97ZM3.5 5.25H10.63V7.75H3.5V5.25ZM3.5 9.25H9.78L3.5 15.53V9.25ZM4.75 20.75C4.06 20.75 3.5 20.19 3.5 19.5V17.65L10.63 10.52V11.18C10.63 12.28 11.29 13.28 12.3 13.71L13.36 14.16L6.77 20.75H4.74H4.75ZM16.5 20.75H8.9L14.85 14.8L16.49 15.5V20.75H16.5ZM20.5 19.25C20.5 19.66 20.16 20 19.75 20H18V17.05L20.12 18.27C20.35 18.4 20.5 18.65 20.5 18.92V19.25Z" fill="#202022"/>
</g>
</svg>
