<svg width="24" height="24" viewBox="0 0 24 24" fill="none" xmlns="http://www.w3.org/2000/svg">
<g id="Type=Filled">
<g id="Shape">
<path d="M4.25 1.875L4.25 3.625H9.85938L9.85938 1.875H11.3594L11.3594 3.625H12.1344V6.625H2V3.625H2.75L2.75 1.875H4.25Z" fill="#202022"/>
<path d="M2 8.125V16.9081L10.7831 8.125H2Z" fill="#202022"/>
<path d="M2 19.0295V19.375C2 20.8938 3.23122 22.125 4.75 22.125H5.28314L14.5144 12.8938L12.8943 12.2033C12.4335 12.0068 12.1344 11.5543 12.1344 11.0533V8.89504L2 19.0295Z" fill="#202022"/>
<path fill-rule="evenodd" clip-rule="evenodd" d="M16.0018 13.5277L7.40446 22.125H18V21.3748H19.75C20.9926 21.3748 22 20.3675 22 19.1248V18.7936C22 17.9885 21.5698 17.2447 20.872 16.8433L18 15.1911V14.3794L16.0018 13.5277ZM18 19.8748V16.9216L20.124 18.1435C20.3566 18.2773 20.5 18.5252 20.5 18.7936V19.1248C20.5 19.5391 20.1642 19.8748 19.75 19.8748H18Z" fill="#202022"/>
</g>
</g>
</svg>
