<svg width="24" height="24" viewBox="0 0 24 24" fill="none" xmlns="http://www.w3.org/2000/svg">
<g id="Bento Box">
<path id="Vector" d="M3 4.5C3 3.672 3.672 3 4.5 3H6C6.828 3 7.5 3.672 7.5 4.5V6C7.5 6.828 6.828 7.5 6 7.5H4.5C3.672 7.5 3 6.828 3 6V4.5Z" fill="#202022"/>
<path id="Vector_2" d="M3 11.25C3 10.422 3.672 9.75 4.5 9.75H6C6.828 9.75 7.5 10.422 7.5 11.25V12.75C7.5 13.578 6.828 14.25 6 14.25H4.5C3.672 14.25 3 13.578 3 12.75V11.25Z" fill="#202022"/>
<path id="Vector_3" d="M4.5 16.5C3.672 16.5 3 17.172 3 18V19.5C3 20.328 3.672 21 4.5 21H6C6.828 21 7.5 20.328 7.5 19.5V18C7.5 17.172 6.828 16.5 6 16.5H4.5Z" fill="#202022"/>
<path id="Vector_4" d="M9.75 4.5C9.75 3.672 10.422 3 11.25 3H12.75C13.578 3 14.25 3.672 14.25 4.5V6C14.25 6.828 13.578 7.5 12.75 7.5H11.25C10.422 7.5 9.75 6.828 9.75 6V4.5Z" fill="#202022"/>
<path id="Vector_5" d="M11.25 9.75C10.422 9.75 9.75 10.422 9.75 11.25V12.75C9.75 13.578 10.422 14.25 11.25 14.25H12.75C13.578 14.25 14.25 13.578 14.25 12.75V11.25C14.25 10.422 13.578 9.75 12.75 9.75H11.25Z" fill="#202022"/>
<path id="Vector_6" d="M9.75 18C9.75 17.172 10.422 16.5 11.25 16.5H12.75C13.578 16.5 14.25 17.172 14.25 18V19.5C14.25 20.328 13.578 21 12.75 21H11.25C10.422 21 9.75 20.328 9.75 19.5V18Z" fill="#202022"/>
<path id="Vector_7" d="M18 3C17.172 3 16.5 3.672 16.5 4.5V6C16.5 6.828 17.172 7.5 18 7.5H19.5C20.328 7.5 21 6.828 21 6V4.5C21 3.672 20.328 3 19.5 3H18Z" fill="#202022"/>
<path id="Vector_8" d="M16.5 11.25C16.5 10.422 17.172 9.75 18 9.75H19.5C20.328 9.75 21 10.422 21 11.25V12.75C21 13.578 20.328 14.25 19.5 14.25H18C17.172 14.25 16.5 13.578 16.5 12.75V11.25Z" fill="#202022"/>
<path id="Vector_9" d="M18 16.5C17.172 16.5 16.5 17.172 16.5 18V19.5C16.5 20.328 17.172 21 18 21H19.5C20.328 21 21 20.328 21 19.5V18C21 17.172 20.328 16.5 19.5 16.5H18Z" fill="#202022"/>
</g>
</svg>
