<svg width="24" height="24" viewBox="0 0 24 24" fill="none" xmlns="http://www.w3.org/2000/svg">
<g id="Brazilian Real">
<path id="Vector" d="M17.25 19.5H13.5V18H17.25V12.75H16.875C14.596 12.75 12.75 10.904 12.75 8.625C12.75 6.346 14.596 4.5 16.875 4.5H17.25V2.25H18.75V4.5H21.75V6H18.75V11.25H19.125C21.404 11.25 23.25 13.096 23.25 15.375C23.25 17.654 21.404 19.5 19.125 19.5H18.75V21.75H17.25V19.5ZM18.75 18H19.125C20.575 18 21.75 16.825 21.75 15.375C21.75 13.925 20.575 12.75 19.125 12.75H18.75V18ZM17.25 6H16.875C15.425 6 14.25 7.175 14.25 8.625C14.25 10.075 15.425 11.25 16.875 11.25H17.25V6Z" fill="#202022"/>
<path id="Vector_2" d="M11.813 19.5H9.938L4.875 12.75H3.75V19.5H2.25V4.5H7.125C9.404 4.5 11.25 6.346 11.25 8.625C11.25 10.904 9.404 12.75 7.125 12.75H6.75L11.813 19.5ZM3.75 6V11.25H7.125C8.575 11.25 9.75 10.075 9.75 8.625C9.75 7.175 8.575 6 7.125 6H3.75Z" fill="#202022"/>
</g>
</svg>
