<svg width="24" height="24" viewBox="0 0 24 24" fill="none" xmlns="http://www.w3.org/2000/svg">
<g id="Brex">
<path id="Vector" d="M16.116 4.44C15.237 5.61 15.024 6 14.175 6H1.5V21H6.473C7.595 21 8.686 20.46 9.384 19.56C10.294 18.36 10.415 18 11.294 18H24V3H18.996C17.874 3 16.784 3.54 16.116 4.44ZM20.058 14.13H14.751C13.599 14.13 12.538 14.61 11.84 15.54C10.93 16.74 10.748 17.1 9.899 17.1H5.411V9.9H10.718C11.87 9.9 12.931 9.36 13.629 8.46C14.539 7.29 14.781 6.93 15.6 6.93H20.058V14.13Z" fill="#202022"/>
</g>
</svg>
