<svg width="24" height="24" viewBox="0 0 24 24" fill="none" xmlns="http://www.w3.org/2000/svg">
<g id="Type=Outline">
<path id="Vector" d="M10 3H14C14.966 3 15.75 3.783 15.75 4.75V6H20C21.519 6 22.75 7.231 22.75 8.75V18.25C22.75 19.769 21.519 21 20 21H4C2.481 21 1.25 19.769 1.25 18.25V8.75C1.25 7.231 2.481 6 4 6H8.25V4.75C8.25 3.784 9.033 3 10 3ZM14.25 6V4.75C14.25 4.612 14.138 4.5 14 4.5H10C9.862 4.5 9.75 4.612 9.75 4.75V6H14.25ZM2.75 8.75V18.25C2.75 18.94 3.31 19.5 4 19.5H6.25V7.5H4C3.31 7.5 2.75 8.06 2.75 8.75ZM7.75 19.5H16.25V7.5H7.75V19.5ZM20 19.5C20.69 19.5 21.25 18.94 21.25 18.25V8.75C21.25 8.06 20.69 7.5 20 7.5H17.75V19.5H20Z" fill="#202022"/>
</g>
</svg>
