<svg width="24" height="24" viewBox="0 0 24 24" fill="none" xmlns="http://www.w3.org/2000/svg">
<g id="Type=Outline" clip-path="url(#clip0_4556_2559)">
<path id="Vector" d="M11.294 4.67399V0.140991L10.443 0.256991C4.686 1.04199 0.25 5.97699 0.25 11.949C0.25 14.626 1.143 17.097 2.646 19.078L3.166 19.763L6.372 16.557L6.023 16.044C5.229 14.877 4.765 13.469 4.765 11.95C4.765 8.39399 7.314 5.42999 10.685 4.79099L11.295 4.67499L11.294 4.67399ZM1.75 11.949C1.75 7.03499 5.191 2.92399 9.794 1.89599V3.45499C6.035 4.45199 3.264 7.87599 3.264 11.949C3.264 13.555 3.695 15.062 4.449 16.358L3.347 17.46C2.336 15.867 1.75 13.977 1.75 11.949Z" fill="#202022"/>
<path id="Vector_2" d="M13.659 0.256991L12.808 0.140991V4.67399L13.418 4.78999C16.345 5.34499 18.655 7.65499 19.21 10.582L19.326 11.192H23.859L23.743 10.341C23.03 5.10899 18.891 0.969991 13.659 0.256991ZM14.308 3.45499V1.89599C18.185 2.76199 21.238 5.81499 22.104 9.69199H20.545C19.739 6.65299 17.347 4.25999 14.308 3.45499Z" fill="#202022"/>
<path id="Vector_3" d="M23.859 12.7061H19.326L19.21 13.3161C18.57 16.6871 15.607 19.2361 12.051 19.2361C10.531 19.2361 9.12199 18.7711 7.95499 17.9771L7.44199 17.6281L4.23599 20.8341L4.92099 21.3541C6.90199 22.8581 9.37299 23.7511 12.051 23.7511C18.023 23.7511 22.958 19.3151 23.743 13.5581L23.859 12.7061ZM12.051 20.7361C16.124 20.7361 19.549 17.9651 20.545 14.2061H22.104C21.075 18.8091 16.964 22.2501 12.051 22.2501C10.022 22.2501 8.13199 21.6641 6.53799 20.6521L7.63999 19.5501C8.93699 20.3041 10.444 20.7361 12.051 20.7361Z" fill="#202022"/>
<path id="Vector_4" d="M11.965 6.5C10.117 6.5 8.60399 7.934 8.47699 9.75H7.21799V11.25H8.46799V12.75H7.21799V14.25H8.47699C8.60299 16.066 10.117 17.5 11.965 17.5C13.813 17.5 15.327 16.065 15.453 14.25H13.947C13.826 15.236 12.985 16 11.966 16C10.947 16 10.106 15.236 9.98499 14.25H12.22V12.75H9.96999V11.25H12.22V9.75H9.98499C10.106 8.764 10.947 8 11.966 8C12.985 8 13.826 8.764 13.947 9.75H15.453C15.327 7.935 13.814 6.5 11.965 6.5Z" fill="#202022"/>
</g>
<defs>
<clipPath id="clip0_4556_2559">
<rect width="24" height="24" fill="white"/>
</clipPath>
</defs>
</svg>
