<svg width="24" height="24" viewBox="0 0 24 24" fill="none" xmlns="http://www.w3.org/2000/svg">
<g id="Type=Filled" clip-path="url(#clip0_4556_2542)">
<path id="Vector" d="M11.294 4.67399V0.140991L10.443 0.256991C4.686 1.04199 0.25 5.97699 0.25 11.949C0.25 14.626 1.143 17.097 2.646 19.078L3.166 19.763L6.372 16.557L6.023 16.044C5.229 14.877 4.765 13.469 4.765 11.95C4.765 8.39399 7.314 5.42999 10.685 4.79099L11.295 4.67499L11.294 4.67399Z" fill="#202022"/>
<path id="Vector_2" d="M13.659 0.256991L12.808 0.140991V4.67399L13.418 4.78999C16.345 5.34499 18.655 7.65499 19.21 10.582L19.326 11.192H23.859L23.743 10.341C23.03 5.10899 18.891 0.969991 13.659 0.256991Z" fill="#202022"/>
<path id="Vector_3" d="M23.859 12.7061H19.326L19.21 13.3161C18.57 16.6871 15.607 19.2361 12.051 19.2361C10.531 19.2361 9.12202 18.7711 7.95502 17.9771L7.44202 17.6271L4.23602 20.8331L4.92102 21.3531C6.90202 22.8571 9.37302 23.7501 12.051 23.7501C18.023 23.7501 22.958 19.3141 23.743 13.5571L23.859 12.7061Z" fill="#202022"/>
<path id="Vector_4" d="M13.754 8.5H15.754V7H8.24597V8.5H8.25397V8.504H10.758C11.737 8.504 12.57 9.13 12.879 10.004H8.25497V11.504H12.878C12.569 12.376 11.737 13 10.759 13H8.25497V14.371L12.799 17.846L13.71 16.655L10.89 14.498C12.643 14.437 14.091 13.172 14.431 11.504H15.755V10.004H14.432C14.319 9.448 14.084 8.937 13.755 8.5H13.754Z" fill="#202022"/>
</g>
<defs>
<clipPath id="clip0_4556_2542">
<rect width="24" height="24" fill="white"/>
</clipPath>
</defs>
</svg>
