<svg width="24" height="24" viewBox="0 0 24 24" fill="none" xmlns="http://www.w3.org/2000/svg">
<g id="Type=Filled" clip-path="url(#clip0_4556_2553)">
<path id="Vector" d="M11.294 4.67399V0.140991L10.443 0.256991C4.686 1.04199 0.25 5.97699 0.25 11.949C0.25 14.626 1.143 17.097 2.646 19.078L3.166 19.763L6.372 16.557L6.023 16.044C5.229 14.877 4.765 13.469 4.765 11.95C4.765 8.39399 7.314 5.42999 10.685 4.79099L11.295 4.67499L11.294 4.67399Z" fill="#202022"/>
<path id="Vector_2" d="M13.659 0.256991L12.808 0.140991V4.67399L13.418 4.78999C16.345 5.34499 18.655 7.65499 19.21 10.582L19.326 11.192H23.859L23.743 10.341C23.03 5.10899 18.891 0.969991 13.659 0.256991Z" fill="#202022"/>
<path id="Vector_3" d="M23.859 12.7061H19.326L19.21 13.3161C18.57 16.6871 15.607 19.2361 12.051 19.2361C10.531 19.2361 9.12202 18.7711 7.95502 17.9771L7.44202 17.6271L4.23602 20.8331L4.92102 21.3531C6.90202 22.8571 9.37302 23.7501 12.051 23.7501C18.023 23.7501 22.958 19.3141 23.743 13.5571L23.859 12.7061Z" fill="#202022"/>
<path id="Vector_4" d="M9.75 9.125C9.75 7.537 11.037 6.25 12.625 6.25C14.213 6.25 15.5 7.537 15.5 9.125V9.75H14V9.125C14 8.366 13.384 7.75 12.625 7.75C11.866 7.75 11.25 8.366 11.25 9.125V11H13.5V12.5H11.25V14.25C11.25 14.7 11.142 15.125 10.95 15.5H15.5V17H8.5V15.5C9.19 15.5 9.75 14.94 9.75 14.25V12.5H8.5V11H9.75V9.125Z" fill="#202022"/>
</g>
<defs>
<clipPath id="clip0_4556_2553">
<rect width="24" height="24" fill="white"/>
</clipPath>
</defs>
</svg>
