<svg width="24" height="24" viewBox="0 0 24 24" fill="none" xmlns="http://www.w3.org/2000/svg">
<g id="Type=Filled" clip-path="url(#clip0_4556_2564)">
<path id="Vector" d="M11.294 4.67399V0.140991L10.443 0.256991C4.686 1.04199 0.25 5.97699 0.25 11.949C0.25 14.626 1.143 17.097 2.646 19.078L3.166 19.763L6.372 16.557L6.023 16.044C5.229 14.877 4.765 13.469 4.765 11.95C4.765 8.39399 7.314 5.42999 10.685 4.79099L11.295 4.67499L11.294 4.67399Z" fill="#202022"/>
<path id="Vector_2" d="M13.659 0.256991L12.808 0.140991V4.67399L13.418 4.78999C16.345 5.34499 18.655 7.65499 19.21 10.582L19.326 11.192H23.859L23.743 10.341C23.03 5.10899 18.891 0.969991 13.659 0.256991Z" fill="#202022"/>
<path id="Vector_3" d="M23.859 12.7061H19.326L19.21 13.3161C18.57 16.6871 15.607 19.2361 12.051 19.2361C10.531 19.2361 9.12199 18.7711 7.95499 17.9771L7.44199 17.6271L4.23599 20.8331L4.92099 21.3531C6.90199 22.8571 9.37299 23.7501 12.051 23.7501C18.023 23.7501 22.958 19.3141 23.743 13.5571L23.859 12.7061Z" fill="#202022"/>
<path id="Vector_4" d="M8.56299 9.75C8.68899 7.934 10.203 6.5 12.051 6.5C13.899 6.5 15.412 7.935 15.539 9.75H14.033C13.912 8.764 13.071 8 12.052 8C11.033 8 10.192 8.764 10.071 9.75H12.306V11.25H10.056V12.75H12.306V14.25H10.071C10.192 15.236 11.033 16 12.052 16C13.071 16 13.912 15.236 14.033 14.25H15.539C15.413 16.065 13.9 17.5 12.051 17.5C10.202 17.5 8.68999 16.066 8.56299 14.25H7.30399V12.75H8.55399V11.25H7.30399V9.75H8.56299Z" fill="#202022"/>
</g>
<defs>
<clipPath id="clip0_4556_2564">
<rect width="24" height="24" fill="white"/>
</clipPath>
</defs>
</svg>
