<svg width="24" height="24" viewBox="0 0 24 24" fill="none" xmlns="http://www.w3.org/2000/svg">
<g id="Type=Filled">
<path id="Shape" fill-rule="evenodd" clip-rule="evenodd" d="M20.75 19.375V16.375H12.75V14.875H18V2.755L15.16 0.125H6V14.875H11.25V16.375H3.25V19.375H1.75V23.875H6.25V19.375H4.75V17.875H11.25V19.375H9.75V23.875H14.25V19.375H12.75V17.875H19.25V19.375H17.75V23.875H22.25V19.375H20.75ZM12.75 10.795V11.885H11.25V10.815H10.25V9.315H12.47C12.76 9.315 13 9.075 13 8.785C13 8.495 12.76 8.255 12.47 8.255H11.52C10.4 8.255 9.49 7.345 9.49 6.225C9.49 5.195 10.25 4.355 11.24 4.215V3.125H12.74V4.195H13.74V5.695H11.52C11.23 5.695 10.99 5.935 10.99 6.225C10.99 6.515 11.23 6.755 11.52 6.755H12.47C13.59 6.755 14.5 7.665 14.5 8.785C14.5 9.815 13.74 10.655 12.75 10.795Z" fill="#202022"/>
</g>
</svg>
