<svg width="24" height="24" viewBox="0 0 24 24" fill="none" xmlns="http://www.w3.org/2000/svg">
<g id="Type=Outline">
<path id="Shape" d="M20.75 19.375V16.375H12.75V14.875H18V2.755L15.16 0.125H6V14.875H11.25V16.375H3.25V19.375H1.75V23.875H6.25V19.375H4.75V17.875H11.25V19.375H9.75V23.875H14.25V19.375H12.75V17.875H19.25V19.375H17.75V23.875H22.25V19.375H20.75ZM4.75 22.375H3.25V20.875H4.75V22.375ZM12.75 22.375H11.25V20.875H12.75V22.375ZM7.5 13.395V1.605H14.23V3.745H16.5V13.385H7.5V13.395ZM20.75 22.375H19.25V20.875H20.75V22.375ZM12.47 6.745H11.52C11.23 6.745 10.99 6.505 10.99 6.215C10.99 5.925 11.23 5.685 11.52 5.685H13.74V4.185H12.74V3.115H11.24V4.205C10.25 4.335 9.49 5.185 9.49 6.215C9.49 7.335 10.4 8.245 11.52 8.245H12.47C12.76 8.245 13 8.485 13 8.775C13 9.065 12.76 9.305 12.47 9.305H10.25V10.805H11.25V11.875H12.75V10.785C13.74 10.655 14.5 9.805 14.5 8.775C14.5 7.655 13.59 6.745 12.47 6.745Z" fill="#202022"/>
</g>
</svg>
