<svg width="24" height="24" viewBox="0 0 24 24" fill="none" xmlns="http://www.w3.org/2000/svg">
<g id="Cabin Class">
<path id="Vector" d="M2 3.75H22V2.25H2V3.75Z" fill="#202022"/>
<path id="Vector_2" d="M2 21.75H22V20.25H2V21.75Z" fill="#202022"/>
<path id="Vector_3" d="M7.99999 11.25H4.31399L4.51999 13H8.99999C10.105 13 11 13.895 11 15V15.75H5.87499V17.25H9.12499V18.75H4.37499V15.75H3.33299L2.16699 5.843L3.65699 5.668L4.13699 9.75H7.99999V11.25Z" fill="#202022"/>
<path id="Vector_4" d="M19 11.25H15.314L15.52 13H20C21.105 13 22 13.895 22 15V15.75H16.875V17.25H20.125V18.75H15.375V15.75H14.333L13.168 5.843L14.658 5.668L15.138 9.75H19.001L19 11.25Z" fill="#202022"/>
</g>
</svg>
