<svg width="24" height="24" viewBox="0 0 24 24" fill="none" xmlns="http://www.w3.org/2000/svg">
<g id="Type=Filled">
<path id="Vector" d="M12 10.625C10.481 10.625 9.25 11.856 9.25 13.375C9.25 14.894 10.481 16.125 12 16.125C13.519 16.125 14.75 14.894 14.75 13.375C14.75 11.856 13.519 10.625 12 10.625Z" fill="#202022"/>
<path id="Vector_2" d="M8.08799 3.375L6.70599 5.546C6.47699 5.907 6.07899 6.125 5.65099 6.125H3.99899C2.47999 6.125 1.24899 7.356 1.24899 8.875V17.875C1.24899 19.394 2.47999 20.625 3.99899 20.625H19.999C21.518 20.625 22.749 19.394 22.749 17.875V8.875C22.749 7.356 21.518 6.125 19.999 6.125H18.347C17.92 6.125 17.522 5.907 17.292 5.546L15.91 3.375H8.08699H8.08799ZM7.74999 13.375C7.74999 11.028 9.65299 9.125 12 9.125C14.347 9.125 16.25 11.028 16.25 13.375C16.25 15.722 14.347 17.625 12 17.625C9.65299 17.625 7.74999 15.722 7.74999 13.375ZM19.75 10.375C19.75 10.927 19.302 11.375 18.75 11.375C18.198 11.375 17.75 10.927 17.75 10.375C17.75 9.823 18.198 9.375 18.75 9.375C19.302 9.375 19.75 9.823 19.75 10.375Z" fill="#202022"/>
</g>
</svg>
