<svg width="24" height="24" viewBox="0 0 24 24" fill="none" xmlns="http://www.w3.org/2000/svg">
<g id="Type=Outline">
<path id="Vector" d="M7.75 13.375C7.75 11.028 9.653 9.125 12 9.125C14.347 9.125 16.25 11.028 16.25 13.375C16.25 15.722 14.347 17.625 12 17.625C9.653 17.625 7.75 15.722 7.75 13.375ZM12 10.625C10.481 10.625 9.25 11.856 9.25 13.375C9.25 14.894 10.481 16.125 12 16.125C13.519 16.125 14.75 14.894 14.75 13.375C14.75 11.856 13.519 10.625 12 10.625Z" fill="#202022"/>
<path id="Vector_2" d="M19.75 10.125C19.75 10.677 19.302 11.125 18.75 11.125C18.198 11.125 17.75 10.677 17.75 10.125C17.75 9.573 18.198 9.125 18.75 9.125C19.302 9.125 19.75 9.573 19.75 10.125Z" fill="#202022"/>
<path id="Vector_3" d="M15.912 3.375H8.089L6.707 5.546C6.478 5.907 6.08 6.125 5.652 6.125H4C2.481 6.125 1.25 7.356 1.25 8.875V17.875C1.25 19.394 2.481 20.625 4 20.625H20C21.519 20.625 22.75 19.394 22.75 17.875V8.875C22.75 7.356 21.519 6.125 20 6.125H18.348C17.921 6.125 17.523 5.907 17.293 5.546L15.912 3.375ZM7.972 6.351L8.912 4.875H15.089L16.028 6.351C16.533 7.144 17.408 7.625 18.348 7.625H20C20.69 7.625 21.25 8.185 21.25 8.875V17.875C21.25 18.565 20.69 19.125 20 19.125H4C3.31 19.125 2.75 18.565 2.75 17.875V8.875C2.75 8.185 3.31 7.625 4 7.625H5.652C6.592 7.625 7.467 7.145 7.972 6.351Z" fill="#202022"/>
</g>
</svg>
