<svg width="24" height="24" viewBox="0 0 24 24" fill="none" xmlns="http://www.w3.org/2000/svg">
<g id="Type=Outline">
<path id="Vector" d="M12 1.75C17.661 1.75 22.25 6.339 22.25 12C22.25 17.661 17.661 22.25 12 22.25C6.339 22.25 1.75 17.661 1.75 12C1.75 6.339 6.339 1.75 12 1.75ZM6.366 5.305L18.695 17.634C19.978 16.112 20.75 14.146 20.75 12C20.75 7.168 16.832 3.25 12 3.25C9.854 3.25 7.888 4.023 6.366 5.305ZM5.305 6.366C4.023 7.888 3.25 9.854 3.25 12C3.25 16.833 7.168 20.75 12 20.75C14.146 20.75 16.112 19.977 17.634 18.695L5.305 6.366Z" fill="#202022"/>
</g>
</svg>
