<svg width="24" height="24" viewBox="0 0 24 24" fill="none" xmlns="http://www.w3.org/2000/svg">
<g id="Type=Filled">
<path id="Vector" d="M2.582 7.5C3.546 4.317 6.503 2 10 2H10.75V7.5H2.582Z" fill="#202022"/>
<path id="Vector_2" d="M2.286 9C2.246 9.416 2.25 9.833 2.25 10.25C2.25 12.873 4.377 15 7 15H8.932L7.844 16.632C7.578 16.546 7.294 16.5 7 16.5C5.481 16.5 4.25 17.731 4.25 19.25C4.25 20.769 5.481 22 7 22C8.519 22 9.75 20.769 9.75 19.25C9.75 18.569 9.502 17.945 9.092 17.465L10.735 15H13.608L15.251 17.465C14.841 17.945 14.593 18.569 14.593 19.25C14.593 20.769 15.824 22 17.343 22C18.862 22 20.093 20.769 20.093 19.25C20.093 17.731 18.862 16.5 17.343 16.5C17.049 16.5 16.765 16.546 16.499 16.632L15.411 15H17C19.623 15 21.75 12.873 21.75 10.25V9H14.735L18.402 3.5H21.751V2H17.6L12.933 9H2.286ZM5.75 19.25C5.75 18.56 6.31 18 7 18C7.69 18 8.25 18.56 8.25 19.25C8.25 19.94 7.69 20.5 7 20.5C6.31 20.5 5.75 19.94 5.75 19.25ZM17.343 18C18.033 18 18.593 18.56 18.593 19.25C18.593 19.94 18.033 20.5 17.343 20.5C16.653 20.5 16.093 19.94 16.093 19.25C16.093 18.56 16.653 18 17.343 18Z" fill="#202022"/>
</g>
</svg>
