<svg width="24" height="24" viewBox="0 0 24 24" fill="none" xmlns="http://www.w3.org/2000/svg">
<g id="Type=Outline">
<path id="Vector" d="M10 2H10.75V9H12.932L17.599 2H21.75V3.5H18.401L14.734 9H21.749V10.25C21.749 12.873 19.622 15 16.999 15H15.41L16.498 16.632C16.764 16.546 17.048 16.5 17.342 16.5C18.861 16.5 20.092 17.731 20.092 19.25C20.092 20.769 18.861 22 17.342 22C15.823 22 14.592 20.769 14.592 19.25C14.592 18.569 14.84 17.945 15.25 17.465L13.607 15H10.734L9.091 17.465C9.501 17.945 9.749 18.569 9.749 19.25C9.749 20.769 8.518 22 6.999 22C5.48 22 4.249 20.769 4.249 19.25C4.249 17.731 5.48 16.5 6.999 16.5C7.293 16.5 7.577 16.546 7.843 16.632L8.931 15H6.999C4.459 15 2.385 13.007 2.255 10.5H2.249V9.75C2.249 5.47 5.719 2 9.999 2H10ZM9.25 9V3.545C6.398 3.886 4.136 6.148 3.795 9H9.25ZM3.759 10.5C3.887 12.178 5.289 13.5 7 13.5H17C18.711 13.5 20.113 12.178 20.24 10.5H3.759ZM7 18C6.31 18 5.75 18.56 5.75 19.25C5.75 19.94 6.31 20.5 7 20.5C7.69 20.5 8.25 19.94 8.25 19.25C8.25 18.56 7.69 18 7 18ZM18.593 19.25C18.593 18.56 18.033 18 17.343 18C16.653 18 16.093 18.56 16.093 19.25C16.093 19.94 16.653 20.5 17.343 20.5C18.033 20.5 18.593 19.94 18.593 19.25Z" fill="#202022"/>
</g>
</svg>
