<svg width="24" height="24" viewBox="0 0 24 24" fill="none" xmlns="http://www.w3.org/2000/svg">
<g id="Type=Outline">
<path id="Vector" d="M7.79999 12.4V17.4H9.29999V12.4H7.79999Z" fill="#202022"/>
<path id="Vector_2" d="M14.8 17.4V12.4H16.3V17.4H14.8Z" fill="#202022"/>
<path id="Vector_3" d="M11.2 12.4V17.4H12.7V12.4H11.2Z" fill="#202022"/>
<path id="Vector_4" d="M9.20001 2.89998C9.20001 1.89998 10 1.09998 11 1.09998H13C14 1.09998 14.8 1.89998 14.8 2.89998V9.09998H17C18.5 9.09998 19.8 10.3 19.8 11.9V17.9C19.8 19.4 18.6 20.7 17 20.7H16.8C16.9 20.9 17 21.2 17 21.5C17 22.3 16.3 23 15.5 23C14.7 23 14 22.2 14 21.4C14 21.1 14.1 20.9 14.2 20.6H9.80001C9.90001 20.8 10 21.1 10 21.4C10 22.2 9.30001 22.9 8.50001 22.9C7.70001 22.9 7.00001 22.2 7.00001 21.4C7.00001 21.1 7.10001 20.9 7.20001 20.6H7.00001C5.50001 20.6 4.20001 19.4 4.20001 17.8V11.8C4.20001 10.3 5.40001 8.99998 7.00001 8.99998H9.20001V2.89998ZM13.2 2.89998C13.2 2.69998 13.1 2.59998 12.9 2.69998H10.9C10.8 2.69998 10.7 2.79998 10.7 2.89998V9.09998H13.2V2.89998ZM7.00001 10.6C6.30001 10.6 5.80001 11.2 5.80001 11.8V17.8C5.80001 18.5 6.40001 19 7.00001 19H17C17.7 19 18.2 18.4 18.2 17.8V11.8C18.2 11.1 17.6 10.6 17 10.6H7.00001Z" fill="#202022"/>
</g>
</svg>
