<svg width="24" height="24" viewBox="0 0 24 24" fill="none" xmlns="http://www.w3.org/2000/svg">
<g id="Carta">
<path id="Vector" d="M1.5 13.469C1.5 13.469 10.102 16.914 21.75 13.469H21.726C21.534 13.469 21.331 13.472 21.116 13.475C20.65 13.481 20.13 13.488 19.55 13.469H19.415C19.237 13.464 18.842 13.437 18.842 13.437L18.572 13.414C18.211 13.386 17.831 13.34 17.431 13.275L17.137 13.224C17.1 13.215 16.817 13.156 16.596 13.111C16.473 13.086 16.369 13.064 16.338 13.057C16.251 13.038 16.17 13.02 16.083 12.997C15.989 12.974 15.896 12.948 15.801 12.922C15.74 12.905 15.679 12.888 15.616 12.872L15.395 12.807C15.246 12.765 15.097 12.719 14.943 12.668L14.669 12.58C14.534 12.538 14.399 12.492 14.265 12.441C12.45 11.783 10.337 10.721 7.907 9.00101L1.5 13.47V13.469Z" fill="#202022"/>
<path id="Vector_2" d="M22.014 11.986H22.5L17.384 9L14.25 11.013C14.312 11.032 14.371 11.051 14.43 11.071C14.511 11.097 14.59 11.123 14.671 11.146L14.957 11.23C15.117 11.279 15.273 11.323 15.428 11.363L15.659 11.425C15.825 11.469 15.985 11.509 16.146 11.544C16.201 11.558 16.25 11.568 16.303 11.579C16.337 11.586 16.372 11.593 16.411 11.602C16.511 11.624 16.963 11.713 17.068 11.73L17.233 11.752L17.539 11.801C17.955 11.863 18.346 11.907 18.728 11.934L19.009 11.956C19.009 11.956 19.018 11.957 19.033 11.958C19.122 11.964 19.442 11.987 19.606 11.987H19.746C20.347 12.008 20.89 12 21.377 11.993C21.601 11.99 21.813 11.987 22.013 11.987L22.014 11.986Z" fill="#202022"/>
</g>
</svg>
