<svg width="24" height="24" viewBox="0 0 24 24" fill="none" xmlns="http://www.w3.org/2000/svg">
<g id="Type=Outline">
<path id="Vector" d="M2.125 1.875H21.625V9.666C21.187 9.241 20.681 8.886 20.125 8.617V3.375H3.625V15.875H12.262C12.473 16.42 12.766 16.925 13.124 17.375H2.125V1.875Z" fill="#202022"/>
<path id="Vector_2" d="M20.125 10.36C19.75 10.087 19.329 9.873 18.875 9.734C18.48 9.613 18.06 9.547 17.625 9.547C16.681 9.547 15.809 9.855 15.104 10.375C14.428 10.874 13.905 11.568 13.619 12.375C13.461 12.82 13.375 13.298 13.375 13.797C13.375 13.823 13.375 13.849 13.376 13.875C13.389 14.601 13.584 15.282 13.917 15.875C14.259 16.483 14.745 16.999 15.331 17.375C15.427 17.436 15.525 17.494 15.625 17.548V22.125L17.625 20.775L19.625 22.125V17.548C19.726 17.494 19.824 17.437 19.919 17.375C20.7 16.873 21.305 16.123 21.625 15.236C21.787 14.786 21.875 14.302 21.875 13.796C21.875 13.29 21.787 12.806 21.625 12.356C21.334 11.549 20.806 10.855 20.125 10.358V10.36ZM17.625 16.547C16.936 16.547 16.306 16.294 15.824 15.875C15.243 15.371 14.875 14.627 14.875 13.797C14.875 12.278 16.106 11.047 17.625 11.047C18.734 11.047 19.69 11.704 20.125 12.65C20.285 12.999 20.375 13.388 20.375 13.797C20.375 14.206 20.285 14.595 20.125 14.944C19.96 15.303 19.721 15.619 19.426 15.875C18.943 16.294 18.314 16.547 17.625 16.547Z" fill="#202022"/>
<path id="Vector_3" d="M14.65 8.875C14.008 9.264 13.448 9.774 13.003 10.375H4.87399V8.875H14.65Z" fill="#202022"/>
<path id="Vector_4" d="M11.875 13.797C11.875 13.306 11.937 12.83 12.052 12.375H4.875V13.875H11.876C11.876 13.849 11.876 13.823 11.876 13.797H11.875Z" fill="#202022"/>
<path id="Vector_5" d="M4.875 6.875H18.875V5.375H4.875V6.875Z" fill="#202022"/>
</g>
</svg>
