<svg width="24" height="24" viewBox="0 0 24 24" fill="none" xmlns="http://www.w3.org/2000/svg">
<g id="Type=Filled">
<path id="Vector" d="M21.625 1.875V9.666C20.59 8.664 19.18 8.047 17.625 8.047C16.536 8.047 15.518 8.35 14.65 8.875H4.87399V10.375H13.003C12.565 10.965 12.238 11.642 12.052 12.375H4.87499V13.875H11.875C11.893 15.197 12.357 16.412 13.123 17.375H2.12399V1.875H21.625ZM4.87499 6.875H18.875V5.375H4.87499V6.875Z" fill="#202022"/>
<path id="Vector_2" d="M13.376 13.875C13.334 11.549 15.275 9.547 17.625 9.547C19.972 9.547 21.875 11.45 21.875 13.797C21.875 15.421 20.964 16.833 19.625 17.548V22.125L17.625 20.775L15.625 22.125V17.548C14.308 16.844 13.404 15.466 13.376 13.875ZM14.875 13.797C14.875 15.316 16.106 16.547 17.625 16.547C19.144 16.547 20.375 15.316 20.375 13.797C20.375 12.278 19.144 11.047 17.625 11.047C16.106 11.047 14.875 12.278 14.875 13.797Z" fill="#202022"/>
</g>
</svg>
