<svg width="24" height="24" viewBox="0 0 24 24" fill="none" xmlns="http://www.w3.org/2000/svg">
<g id="Type=Filled">
<path id="Vector" d="M9.74998 1.5H14.25V2.683C14.25 3.213 14.657 3.76 15.316 4.035C15.961 4.304 16.615 4.203 16.996 3.821L17.833 2.984L21.015 6.166L20.177 7.004C19.795 7.386 19.695 8.039 19.963 8.684C20.238 9.343 20.785 9.75 21.315 9.75H22.499V14.25H21.316C20.786 14.25 20.239 14.657 19.964 15.316C19.695 15.961 19.796 16.615 20.178 16.996L21.016 17.834L17.834 21.016L16.996 20.178C16.614 19.796 15.961 19.696 15.316 19.964C14.657 20.239 14.25 20.786 14.25 21.316V22.5H9.74998V21.316C9.74998 20.786 9.34298 20.239 8.68398 19.964C8.03898 19.695 7.38598 19.796 7.00398 20.178L6.16598 21.016L2.98398 17.834L3.82198 16.996C4.20398 16.614 4.30498 15.961 4.03598 15.316C3.76098 14.657 3.21398 14.25 2.68398 14.25H1.50098V9.75H2.68498C3.21498 9.75 3.76198 9.343 4.03698 8.684C4.30598 8.039 4.20498 7.386 3.82298 7.004L2.98498 6.166L6.16698 2.984L7.00398 3.821C7.38598 4.203 8.03898 4.304 8.68398 4.035C9.34298 3.76 9.74998 3.213 9.74998 2.683V1.5ZM12.302 6.375C10.708 6.375 9.41598 7.667 9.41598 9.261V10.782H8.43698V12.282H9.41598V14.397C9.41598 14.937 8.97798 15.376 8.43698 15.376V16.876H15.562V15.376H10.715C10.844 15.076 10.916 14.745 10.916 14.397V12.282H12.937V10.782H10.916V9.261C10.916 8.496 11.536 7.875 12.302 7.875C13.068 7.875 13.688 8.495 13.688 9.261V9.375H15.188V9.261C15.188 7.667 13.896 6.375 12.302 6.375Z" fill="#202022"/>
</g>
</svg>
