<svg width="24" height="24" viewBox="0 0 24 24" fill="none" xmlns="http://www.w3.org/2000/svg">
<g id="Type=Filled">
<path id="Vector" d="M9.74998 1.5V2.683C9.74998 3.213 9.34298 3.76 8.68398 4.035C8.03898 4.304 7.38598 4.203 7.00398 3.821L6.16698 2.984L2.98498 6.166L3.82298 7.004C4.20498 7.386 4.30498 8.039 4.03698 8.684C3.76198 9.343 3.21498 9.75 2.68498 9.75H1.50098V14.25H2.68398C3.21398 14.25 3.76098 14.657 4.03598 15.316C4.30498 15.961 4.20398 16.615 3.82198 16.996L2.98398 17.834L6.16598 21.016L7.00398 20.178C7.38598 19.796 8.03898 19.696 8.68398 19.964C9.34298 20.239 9.74998 20.786 9.74998 21.316V22.5H14.25V21.316C14.25 20.786 14.657 20.239 15.316 19.964C15.961 19.695 16.614 19.796 16.996 20.178L17.834 21.016L21.016 17.834L20.178 16.996C19.796 16.614 19.695 15.961 19.964 15.316C20.239 14.657 20.786 14.25 21.316 14.25H22.5V9.75H21.316C20.786 9.75 20.239 9.343 19.964 8.684C19.695 8.039 19.796 7.386 20.178 7.004L21.016 6.166L17.834 2.984L16.997 3.821C16.615 4.203 15.962 4.304 15.317 4.035C14.658 3.76 14.251 3.213 14.251 2.683V1.5H9.75098H9.74998ZM12.622 11.257H8.62498V9.757H12.622C12.313 8.879 11.476 8.25 10.492 8.25H8.62398V6.75H15.374V8.25H13.496C13.826 8.688 14.062 9.2 14.174 9.757H15.374V11.257H14.174C13.847 12.87 12.488 14.107 10.816 14.25L13.28 16.72L12.218 17.779L8.64698 14.2V12.764H10.491C11.475 12.764 12.312 12.135 12.622 11.257Z" fill="#202022"/>
</g>
</svg>
