<svg width="24" height="24" viewBox="0 0 24 24" fill="none" xmlns="http://www.w3.org/2000/svg">
<g id="Type=Outline">
<path id="Vector" d="M14.25 1.5H9.75001V2.683C9.75001 3.213 9.34301 3.76 8.68401 4.035C8.03901 4.304 7.38501 4.203 7.00401 3.821L6.16701 2.984L2.98501 6.166L3.82301 7.004C4.20501 7.386 4.30501 8.039 4.03701 8.684C3.76201 9.343 3.21501 9.75 2.68501 9.75H1.50101V14.25H2.68401C3.21401 14.25 3.76101 14.657 4.03601 15.316C4.30501 15.961 4.20401 16.615 3.82201 16.996L2.98401 17.834L6.16601 21.016L7.00401 20.178C7.38601 19.796 8.03901 19.696 8.68401 19.964C9.34301 20.239 9.75001 20.786 9.75001 21.316V22.5H14.25V21.316C14.25 20.786 14.657 20.239 15.316 19.964C15.961 19.695 16.614 19.796 16.996 20.178L17.834 21.016L21.016 17.834L20.178 16.996C19.796 16.614 19.695 15.961 19.964 15.316C20.239 14.657 20.786 14.25 21.316 14.25H22.499V9.75H21.315C20.785 9.75 20.238 9.343 19.963 8.684C19.694 8.039 19.795 7.386 20.177 7.004L21.015 6.166L17.833 2.984L16.996 3.821C16.614 4.203 15.961 4.304 15.316 4.035C14.657 3.76 14.25 3.213 14.25 2.683V1.5ZM9.26101 5.42C10.214 5.023 11.093 4.152 11.231 3H12.769C12.907 4.153 13.786 5.023 14.739 5.42C15.704 5.822 16.918 5.807 17.821 5.093L18.908 6.179C18.194 7.082 18.178 8.295 18.581 9.26C18.978 10.213 19.849 11.092 21.001 11.23V12.768C19.848 12.906 18.978 13.785 18.581 14.738C18.179 15.703 18.194 16.917 18.908 17.82L17.822 18.906C16.919 18.191 15.705 18.176 14.74 18.578C13.787 18.975 12.908 19.846 12.77 20.998H11.233C11.095 19.845 10.216 18.975 9.26301 18.578C8.29801 18.176 7.08401 18.191 6.18101 18.906L5.09501 17.82C5.81001 16.917 5.82501 15.703 5.42201 14.738C5.02501 13.785 4.15401 12.906 3.00201 12.768V11.23C4.15401 11.092 5.02501 10.213 5.42201 9.26C5.82401 8.295 5.80901 7.081 5.09501 6.179L6.18101 5.093C7.08401 5.807 8.29701 5.822 9.26301 5.42H9.26101ZM8.25001 7.5H15.75V15H14.219L15.75 16.5H13.773L12.242 15H11.758L10.227 16.5H8.25001L9.78101 15H8.25001V7.5ZM9.75001 10.5H14.25V9H9.75001V10.5ZM9.75001 13.5H11.25V12H9.75001V13.5ZM12.75 13.5H14.25V12H12.75V13.5Z" fill="#202022"/>
</g>
</svg>
