<svg width="24" height="24" viewBox="0 0 24 24" fill="none" xmlns="http://www.w3.org/2000/svg">
<g id="Type=Filled">
<path id="Vector" d="M9.75 1.5H14.25V2.683C14.25 3.213 14.657 3.76 15.316 4.035C15.961 4.304 16.615 4.203 16.996 3.821L17.833 2.984L21.015 6.166L20.177 7.004C19.795 7.386 19.695 8.039 19.963 8.684C20.238 9.343 20.785 9.75 21.315 9.75H22.499V14.25H21.315C20.785 14.25 20.238 14.657 19.963 15.316C19.694 15.961 19.795 16.615 20.177 16.996L21.015 17.834L17.833 21.016L16.995 20.178C16.613 19.796 15.96 19.696 15.315 19.964C14.656 20.239 14.249 20.786 14.249 21.316V22.5H9.749V21.316C9.749 20.786 9.342 20.239 8.683 19.964C8.038 19.695 7.385 19.796 7.003 20.178L6.165 21.016L2.983 17.834L3.821 16.996C4.203 16.614 4.304 15.961 4.035 15.316C3.76 14.657 3.213 14.25 2.683 14.25H1.5V9.75H2.684C3.214 9.75 3.761 9.343 4.036 8.684C4.305 8.039 4.204 7.386 3.822 7.004L2.984 6.166L6.166 2.984L7.003 3.821C7.385 4.203 8.038 4.304 8.683 4.035C9.342 3.76 9.749 3.213 9.749 2.683V1.5H9.75ZM11.25 7.748C9.986 7.877 9 8.945 9 10.243C9 11.628 10.123 12.751 11.508 12.751H12.492C13.049 12.751 13.5 13.202 13.5 13.759C13.5 14.316 13.049 14.767 12.492 14.767H9.75V16.267H11.25V17.626H12.75V16.254C14.014 16.125 15 15.057 15 13.759C15 12.374 13.877 11.251 12.492 11.251H11.508C10.951 11.251 10.5 10.8 10.5 10.243C10.5 9.686 10.951 9.235 11.508 9.235H14.25V7.735H12.75V6.376H11.25V7.748Z" fill="#202022"/>
</g>
</svg>
