<svg width="24" height="24" viewBox="0 0 24 24" fill="none" xmlns="http://www.w3.org/2000/svg">
<g id="Type=Filled">
<path id="Vector" d="M9.74998 1.5V2.683C9.74998 3.213 9.34298 3.76 8.68398 4.035C8.03898 4.304 7.38598 4.203 7.00398 3.821L6.16698 2.984L2.98498 6.166L3.82298 7.004C4.20498 7.386 4.30498 8.039 4.03698 8.684C3.76198 9.343 3.21498 9.75 2.68498 9.75H1.50098V14.25H2.68398C3.21398 14.25 3.76098 14.657 4.03598 15.316C4.30498 15.961 4.20398 16.615 3.82198 16.996L2.98398 17.834L6.16598 21.016L7.00398 20.178C7.38598 19.796 8.03898 19.696 8.68398 19.964C9.34298 20.239 9.74998 20.786 9.74998 21.316V22.5H14.25V21.316C14.25 20.786 14.657 20.239 15.316 19.964C15.961 19.695 16.614 19.796 16.996 20.178L17.834 21.016L21.016 17.834L20.178 16.996C19.796 16.614 19.695 15.961 19.964 15.316C20.239 14.657 20.786 14.25 21.316 14.25H22.5V9.75H21.316C20.786 9.75 20.239 9.343 19.964 8.684C19.695 8.039 19.796 7.386 20.178 7.004L21.016 6.166L17.834 2.984L16.997 3.821C16.615 4.203 15.962 4.304 15.317 4.035C14.658 3.76 14.251 3.213 14.251 2.683V1.5H9.75098H9.74998ZM7.34498 8.406L8.40498 7.345L12 10.936L15.595 7.345L16.655 8.406L13.812 11.246H15.375V12.746H12.75V14.243H15.375V15.743H12.75V18.001H11.25V15.743H8.62498V14.243H11.25V12.746H8.62498V11.246H10.188L7.34498 8.406Z" fill="#202022"/>
</g>
</svg>
