<svg width="24" height="24" viewBox="0 0 24 24" fill="none" xmlns="http://www.w3.org/2000/svg">
<g id="Type=Outline">
<path id="Vector" d="M12.302 6.375C10.708 6.375 9.41601 7.667 9.41601 9.261V10.782H8.43701V12.282H9.41601V14.397C9.41601 14.937 8.97801 15.376 8.43701 15.376V16.876H15.562V15.376H10.715C10.844 15.076 10.916 14.745 10.916 14.397V12.282H12.937V10.782H10.916V9.261C10.916 8.496 11.536 7.875 12.302 7.875C13.068 7.875 13.688 8.495 13.688 9.261V9.375H15.188V9.261C15.188 7.667 13.896 6.375 12.302 6.375Z" fill="#202022"/>
<path id="Vector_2" d="M14.25 1.5H9.74998V2.683C9.74998 3.213 9.34298 3.76 8.68398 4.035C8.03898 4.304 7.38598 4.203 7.00398 3.821L6.16698 2.984L2.98498 6.166L3.82298 7.004C4.20498 7.386 4.30498 8.039 4.03698 8.684C3.76198 9.343 3.21498 9.75 2.68498 9.75H1.50098V14.25H2.68398C3.21398 14.25 3.76098 14.657 4.03598 15.316C4.30498 15.961 4.20398 16.615 3.82198 16.996L2.98398 17.834L6.16598 21.016L7.00398 20.178C7.38598 19.796 8.03898 19.696 8.68398 19.964C9.34298 20.239 9.74998 20.786 9.74998 21.316V22.5H14.25V21.316C14.25 20.786 14.657 20.239 15.316 19.964C15.961 19.695 16.614 19.796 16.996 20.178L17.834 21.016L21.016 17.834L20.178 16.996C19.796 16.614 19.695 15.961 19.964 15.316C20.239 14.657 20.786 14.25 21.316 14.25H22.5V9.75H21.316C20.786 9.75 20.239 9.343 19.964 8.684C19.695 8.039 19.796 7.386 20.178 7.004L21.016 6.166L17.834 2.984L16.997 3.821C16.615 4.203 15.962 4.304 15.317 4.035C14.658 3.76 14.251 3.213 14.251 2.683V1.5H14.25ZM9.26098 5.42C10.214 5.023 11.093 4.152 11.231 3H12.769C12.907 4.153 13.786 5.023 14.739 5.42C15.704 5.822 16.918 5.807 17.821 5.093L18.907 6.179C18.193 7.082 18.177 8.295 18.58 9.26C18.977 10.213 19.848 11.092 21 11.23V12.768C19.848 12.906 18.977 13.785 18.58 14.738C18.178 15.704 18.193 16.917 18.907 17.82L17.821 18.906C16.918 18.191 15.704 18.176 14.739 18.578C13.786 18.975 12.907 19.846 12.769 20.998H11.231C11.093 19.846 10.214 18.975 9.26098 18.578C8.29598 18.176 7.08198 18.191 6.17898 18.906L5.09298 17.82C5.80798 16.917 5.82298 15.703 5.41998 14.738C5.02298 13.785 4.15198 12.906 2.99998 12.768V11.23C4.15198 11.092 5.02298 10.213 5.41998 9.26C5.82198 8.295 5.80698 7.081 5.09298 6.179L6.17898 5.093C7.08198 5.807 8.29498 5.822 9.26098 5.42Z" fill="#202022"/>
</g>
</svg>
