<svg width="24" height="24" viewBox="0 0 24 24" fill="none" xmlns="http://www.w3.org/2000/svg">
<g id="Type=Filled">
<path id="Vector" d="M9.75 10.5H14.25V9H9.75V10.5Z" fill="#202022"/>
<path id="Vector_2" d="M9.75 13.5H11.25V12H9.75V13.5Z" fill="#202022"/>
<path id="Vector_3" d="M12.75 13.5H14.25V12H12.75V13.5Z" fill="#202022"/>
<path id="Vector_4" d="M9.75001 1.5V2.683C9.75001 3.213 9.34301 3.76 8.68401 4.035C8.03901 4.304 7.38501 4.203 7.00401 3.821L6.16701 2.984L2.98501 6.166L3.82301 7.004C4.20501 7.386 4.30501 8.039 4.03701 8.684C3.76201 9.343 3.21501 9.75 2.68501 9.75H1.50101V14.25H2.68401C3.21401 14.25 3.76101 14.657 4.03601 15.316C4.30501 15.961 4.20401 16.615 3.82201 16.996L2.98401 17.834L6.16601 21.016L7.00401 20.178C7.38601 19.796 8.03901 19.696 8.68401 19.964C9.34301 20.239 9.75001 20.786 9.75001 21.316V22.5H14.25V21.316C14.25 20.786 14.657 20.239 15.316 19.964C15.961 19.695 16.614 19.796 16.996 20.178L17.834 21.016L21.016 17.834L20.178 16.996C19.796 16.614 19.695 15.961 19.964 15.316C20.239 14.657 20.786 14.25 21.316 14.25H22.499V9.75H21.315C20.785 9.75 20.238 9.343 19.963 8.684C19.694 8.039 19.795 7.386 20.177 7.004L21.015 6.166L17.833 2.984L16.996 3.821C16.614 4.203 15.961 4.304 15.316 4.035C14.657 3.76 14.25 3.213 14.25 2.683V1.5H9.75001ZM8.25001 7.5H15.75V15H14.219L15.75 16.5H13.773L12.242 15H11.758L10.227 16.5H8.25001L9.78101 15H8.25001V7.5Z" fill="#202022"/>
</g>
</svg>
