<svg width="24" height="24" viewBox="0 0 24 24" fill="none" xmlns="http://www.w3.org/2000/svg">
<g id="Type=Outline">
<path id="Vector" d="M11.25 14.242V12.745H8.62497V11.245H10.188L7.34497 8.40499L8.40497 7.34399L12 10.935L15.595 7.34399L16.655 8.40499L13.812 11.245H15.375V12.745H12.75V14.242H15.375V15.742H12.75V18H11.25V15.742H8.62497V14.242H11.25Z" fill="#202022"/>
<path id="Vector_2" d="M9.74998 1.5H14.25V2.683C14.25 3.213 14.657 3.76 15.316 4.035C15.961 4.304 16.615 4.203 16.996 3.821L17.833 2.984L21.015 6.166L20.177 7.004C19.795 7.386 19.695 8.039 19.963 8.684C20.238 9.343 20.785 9.75 21.315 9.75H22.499V14.25H21.316C20.786 14.25 20.239 14.657 19.964 15.316C19.695 15.961 19.796 16.615 20.178 16.996L21.016 17.834L17.834 21.016L16.996 20.178C16.614 19.796 15.961 19.696 15.316 19.964C14.657 20.239 14.25 20.786 14.25 21.316V22.5H9.74998V21.316C9.74998 20.786 9.34298 20.239 8.68398 19.964C8.03898 19.695 7.38598 19.796 7.00398 20.178L6.16598 21.016L2.98398 17.834L3.82198 16.996C4.20398 16.614 4.30498 15.961 4.03598 15.316C3.76098 14.657 3.21398 14.25 2.68398 14.25H1.50098V9.75H2.68498C3.21498 9.75 3.76198 9.343 4.03698 8.684C4.30598 8.039 4.20498 7.386 3.82298 7.004L2.98498 6.166L6.16698 2.984L7.00398 3.821C7.38598 4.203 8.03898 4.304 8.68398 4.035C9.34298 3.76 9.74998 3.213 9.74998 2.683V1.5ZM11.231 3C11.093 4.153 10.214 5.023 9.26098 5.42C8.29598 5.822 7.08198 5.807 6.17898 5.093L5.09298 6.179C5.80698 7.082 5.82298 8.295 5.41998 9.26C5.02298 10.213 4.15198 11.092 2.99998 11.23V12.768C4.15298 12.906 5.02298 13.785 5.41998 14.738C5.82198 15.704 5.80698 16.917 5.09298 17.82L6.17898 18.906C7.08198 18.191 8.29598 18.176 9.26098 18.578C10.214 18.975 11.093 19.846 11.231 20.998H12.769C12.907 19.846 13.786 18.975 14.739 18.578C15.705 18.176 16.918 18.191 17.821 18.906L18.907 17.82C18.192 16.917 18.177 15.703 18.58 14.738C18.977 13.785 19.848 12.906 21 12.768V11.23C19.848 11.092 18.977 10.213 18.58 9.26C18.178 8.295 18.193 7.081 18.907 6.179L17.821 5.093C16.918 5.807 15.705 5.822 14.739 5.42C13.786 5.023 12.907 4.152 12.769 3H11.231Z" fill="#202022"/>
</g>
</svg>
