<svg width="24" height="24" viewBox="0 0 24 24" fill="none" xmlns="http://www.w3.org/2000/svg">
<g id="Type=Outline">
<path id="Vector" d="M9 10.242C9 8.94402 9.986 7.87602 11.25 7.74702V6.37402H12.75V7.73302H14.25V9.23302H11.508C10.951 9.23302 10.5 9.68402 10.5 10.241C10.5 10.798 10.951 11.249 11.508 11.249H12.492C13.877 11.249 15 12.372 15 13.757C15 15.055 14.014 16.123 12.75 16.252V17.625H11.25V16.266H9.75V14.766H12.492C13.049 14.766 13.5 14.315 13.5 13.758C13.5 13.201 13.049 12.75 12.492 12.75H11.508C10.123 12.75 9 11.627 9 10.242Z" fill="#202022"/>
<path id="Vector_2" d="M9.75 1.5H14.25V2.683C14.25 3.213 14.657 3.76 15.316 4.035C15.961 4.304 16.615 4.203 16.996 3.821L17.833 2.984L21.015 6.166L20.177 7.004C19.795 7.386 19.695 8.039 19.963 8.684C20.238 9.343 20.785 9.75 21.315 9.75H22.499V14.25H21.315C20.785 14.25 20.238 14.657 19.963 15.316C19.694 15.961 19.795 16.615 20.177 16.996L21.015 17.834L17.833 21.016L16.995 20.178C16.613 19.796 15.96 19.696 15.315 19.964C14.656 20.239 14.249 20.786 14.249 21.316V22.5H9.749V21.316C9.749 20.786 9.342 20.239 8.683 19.964C8.038 19.695 7.385 19.796 7.003 20.178L6.165 21.016L2.983 17.834L3.821 16.996C4.203 16.614 4.304 15.961 4.035 15.316C3.76 14.657 3.213 14.25 2.683 14.25H1.5V9.75H2.684C3.214 9.75 3.761 9.343 4.036 8.684C4.305 8.039 4.204 7.386 3.822 7.004L2.984 6.166L6.166 2.984L7.003 3.821C7.385 4.203 8.038 4.304 8.683 4.035C9.342 3.76 9.749 3.213 9.749 2.683V1.5H9.75ZM11.231 3C11.093 4.153 10.214 5.023 9.261 5.42C8.296 5.822 7.082 5.807 6.179 5.093L5.093 6.179C5.807 7.082 5.823 8.295 5.42 9.26C5.023 10.213 4.152 11.092 3 11.23V12.768C4.153 12.906 5.023 13.785 5.42 14.738C5.822 15.703 5.807 16.917 5.093 17.82L6.179 18.906C7.082 18.191 8.296 18.176 9.261 18.578C10.214 18.975 11.093 19.846 11.231 20.998H12.768C12.906 19.845 13.785 18.975 14.738 18.578C15.703 18.176 16.917 18.191 17.82 18.906L18.906 17.82C18.191 16.917 18.176 15.703 18.579 14.738C18.976 13.785 19.847 12.906 20.999 12.768V11.23C19.846 11.092 18.976 10.213 18.579 9.26C18.177 8.295 18.192 7.081 18.906 6.179L17.819 5.093C16.916 5.807 15.703 5.822 14.737 5.42C13.784 5.023 12.905 4.152 12.767 3H11.229H11.231Z" fill="#202022"/>
</g>
</svg>
