<svg width="24" height="24" viewBox="0 0 24 24" fill="none" xmlns="http://www.w3.org/2000/svg">
<g id="Type=Outline">
<path id="Vector" d="M18.25 14.25C16.179 14.25 14.5 15.929 14.5 18C14.5 20.071 16.179 21.75 18.25 21.75C20.321 21.75 22 20.071 22 18C22 15.929 20.321 14.25 18.25 14.25ZM16 18C16 16.757 17.007 15.75 18.25 15.75C19.493 15.75 20.5 16.757 20.5 18C20.5 19.243 19.493 20.25 18.25 20.25C17.007 20.25 16 19.243 16 18Z" fill="#202022"/>
<path id="Vector_2" d="M9 2.25H2.5V8.75H9V2.25ZM4 7.25V3.75H7.5V7.25H4Z" fill="#202022"/>
<path id="Vector_3" d="M4.99999 13.311L3.27999 15.031L2.21899 13.97L5.74899 10.44L9.27899 13.97L8.21799 15.031L6.49799 13.311V17.25H13.248V18.75H4.99799V13.311H4.99999Z" fill="#202022"/>
<path id="Vector_4" d="M19 10.189L20.72 8.469L21.781 9.53L18.251 13.06L14.721 9.53L15.782 8.469L17.502 10.189V6.25H10.752V4.75H19.002V10.189H19Z" fill="#202022"/>
</g>
</svg>
