<svg width="24" height="24" viewBox="0 0 24 24" fill="none" xmlns="http://www.w3.org/2000/svg">
<g id="Type=Outline">
<path id="Vector" d="M8.60002 13L3.90002 19.8L8.40002 23L12 17.8L15.6 23L20.2 19.8L15.4 13L17.8 9.20002C19.3 7.10002 18.8 4.10002 16.7 2.60002C13.9 0.500023 9.90002 0.400023 7.10002 2.60002C5.00002 4.10002 4.50002 7.10002 6.00002 9.20002L8.60002 13ZM8.70002 3.40002C10.7 2.20002 13.3 2.20002 15.4 3.40002L14.3 4.90002C12.9 4.30002 11.2 4.30002 9.80002 4.90002L8.70002 3.40002ZM10.6 6.20002C11.5 5.90002 12.5 5.90002 13.4 6.20002L12 8.20002L10.6 6.20002ZM11.1 9.50002L9.60002 11.7L7.30002 8.40002C6.40002 7.20002 6.50002 5.50002 7.50002 4.40002L11.1 9.50002ZM12.9 16.5L14.4 14.3L18 19.5L16 20.9L12.9 16.5ZM5.90002 19.4L16.5 4.40002C17.5 5.50002 17.6 7.20002 16.7 8.40002L8.00002 20.9L5.90002 19.4Z" fill="#202022"/>
</g>
</svg>
