<svg width="24" height="24" viewBox="0 0 24 24" fill="none" xmlns="http://www.w3.org/2000/svg">
<g id="Type=Filled">
<path id="Vector" d="M16.378 3.39602L5.68201 18.672L5.66601 18.66L4.87701 19.784L8.16601 22.069L12 16.591L12.003 16.595L14.443 13.111L14.44 13.107L17.343 8.96002L17.519 8.65302C18.53 6.89302 18.062 4.65502 16.431 3.44702L16.378 3.40702L16.382 3.39702L16.379 3.39502L16.378 3.39602Z" fill="#202022"/>
<path id="Vector_2" d="M15.359 14.418L12.918 17.904L15.834 22.071L19.123 19.786L15.358 14.419L15.359 14.418Z" fill="#202022"/>
<path id="Vector_3" d="M8.65402 11.812L11.088 8.33497L7.63102 3.39697L7.63502 3.40797L7.63002 3.40197L7.56902 3.44697C5.93802 4.65497 5.47002 6.89297 6.48102 8.65297L6.65702 8.95997L8.65302 11.811L8.65402 11.812Z" fill="#202022"/>
<path id="Vector_4" d="M15.091 2.61905L12.902 5.74605C12.306 5.66605 11.701 5.66505 11.105 5.74505L8.91602 2.61805C10.865 1.69905 13.139 1.70205 15.091 2.61905Z" fill="#202022"/>
</g>
</svg>
