<svg width="24" height="24" viewBox="0 0 24 24" fill="none" xmlns="http://www.w3.org/2000/svg">
<g id="Type=Outline">
<path id="Vector" d="M11 0.599976C10 0.599976 9.20001 1.39998 9.20001 2.39998V4.59998H7.00001C5.50001 4.59998 4.20001 5.79998 4.20001 7.39998V18.4C4.20001 19.9 5.40001 21.2 7.00001 21.2H7.20001C7.10001 21.3 7.00001 21.6 7.00001 21.9C7.00001 22.7 7.70001 23.4 8.50001 23.4C9.30001 23.4 10 22.7 10 21.9C10 21.6 9.90001 21.4 9.80001 21.1H14.2C14.1 21.3 14 21.6 14 21.9C14 22.7 14.7 23.4 15.5 23.4C16.3 23.4 17 22.7 17 21.9C17 21.6 16.9 21.4 16.8 21.1H17C18.5 21.1 19.8 19.9 19.8 18.3V7.29998C19.8 5.79998 18.6 4.49998 17 4.49998H14.8V2.39998C14.8 1.39998 14 0.599976 13 0.599976H11ZM13.2 4.59998H10.8V2.39998C10.8 2.29998 10.9 2.19998 11 2.19998H13C13.1 2.19998 13.2 2.29998 13.2 2.39998V4.59998ZM5.80001 7.39998C5.80001 6.69998 6.40001 6.19998 7.00001 6.19998H9.20001V8.39998H7.80001V14.4H12.3V8.39998H10.7V6.09998H17C17.7 6.09998 18.2 6.69998 18.2 7.29998V18.3C18.2 19 17.6 19.5 17 19.5H7.00001C6.30001 19.5 5.80001 18.9 5.80001 18.3V7.39998Z" fill="#202022"/>
</g>
</svg>
