<svg width="24" height="24" viewBox="0 0 24 24" fill="none" xmlns="http://www.w3.org/2000/svg">
<g id="Type=Filled">
<path id="Vector" d="M11 0.625H13C13.966 0.625 14.75 1.408 14.75 2.375V4.625H17C18.519 4.625 19.75 5.856 19.75 7.375V18.375C19.75 19.894 18.519 21.125 17 21.125H16.799C16.927 21.346 17 21.602 17 21.875C17 22.703 16.328 23.375 15.5 23.375C14.672 23.375 14 22.703 14 21.875C14 21.602 14.073 21.346 14.201 21.125H9.79998C9.92798 21.346 10.001 21.602 10.001 21.875C10.001 22.703 9.32898 23.375 8.50098 23.375C7.67298 23.375 7.00098 22.703 7.00098 21.875C7.00098 21.602 7.07398 21.346 7.20198 21.125H7.00098C5.48198 21.125 4.25098 19.894 4.25098 18.375V7.375C4.25098 5.856 5.48198 4.625 7.00098 4.625H7.75098V8.375H6.31398V14.375H10.814V8.375H9.25098V2.375C9.25098 1.409 10.034 0.625 11.001 0.625H11ZM13.25 4.625V2.375C13.25 2.237 13.138 2.125 13 2.125H11C10.862 2.125 10.75 2.237 10.75 2.375V4.625H13.25Z" fill="#202022"/>
</g>
</svg>
