<svg width="24" height="24" viewBox="0 0 24 24" fill="none" xmlns="http://www.w3.org/2000/svg">
<g id="Chrome">
<path id="Vector" d="M8.67095 12.006C8.67095 13.842 10.1569 15.329 11.9929 15.335C13.8289 15.335 15.3149 13.842 15.3149 12.006C15.3149 10.17 13.8289 8.68297 11.9929 8.67697C10.1569 8.68297 8.67095 10.17 8.67095 12.006ZM21.4239 8.66997L15.0799 8.67597C16.6329 10.121 16.9689 12.462 15.9229 14.274C15.1279 15.64 12.6009 19.914 11.3729 21.979C18.5519 22.424 23.7889 15.381 21.4229 8.66897L21.4239 8.66997ZM9.88695 7.94697C10.8619 7.43597 11.7649 7.46497 13.1609 7.46497H20.9009C17.6819 1.13897 9.05695 0.0729747 4.41095 5.48497L7.57095 10.987C7.87795 9.66897 8.73795 8.54897 9.88695 7.94697ZM8.03895 14.233C7.12495 12.655 4.71695 8.45297 3.62095 6.54597C-0.218054 12.433 3.09095 20.452 10.0609 21.819L13.2799 16.359C11.4149 16.913 9.22995 16.299 8.03795 14.235L8.03895 14.233Z" fill="#202022"/>
</g>
</svg>
