<svg width="24" height="24" viewBox="0 0 24 24" fill="none" xmlns="http://www.w3.org/2000/svg">
<g id="Type=Outline">
<path id="Vector" d="M1.96999 3.03002L3.03099 1.96902L5.30199 4.24002C7.09799 2.68802 9.43999 1.74902 12 1.74902C17.661 1.74902 22.25 6.33802 22.25 11.999C22.25 14.56 21.311 16.901 19.759 18.697L22.03 20.968L20.969 22.029L1.96899 3.02902L1.96999 3.03002ZM6.36599 5.30502L18.695 17.634C19.977 16.112 20.75 14.146 20.75 12C20.75 7.16802 16.832 3.25002 12 3.25002C9.85399 3.25002 7.88799 4.02302 6.36599 5.30502Z" fill="#202022"/>
<path id="Vector_2" d="M3.336 6.521L4.428 7.613C3.679 8.903 3.25 10.401 3.25 12C3.25 16.833 7.168 20.75 12 20.75C13.599 20.75 15.097 20.321 16.387 19.573L17.479 20.665C15.894 21.669 14.015 22.251 12 22.251C6.339 22.251 1.75 17.662 1.75 12.001C1.75 9.986 2.331 8.106 3.336 6.521Z" fill="#202022"/>
</g>
</svg>
