<svg width="24" height="24" viewBox="0 0 24 24" fill="none" xmlns="http://www.w3.org/2000/svg">
<g id="Type=Outline">
<path id="Vector" d="M21.43 9.54C21.04 8.03 20.29 6.65 19.28 5.52C19.42 5.21 19.5 4.86 19.5 4.5C19.5 3.12 18.38 2 17 2C16.28 2 15.64 2.3 15.18 2.78C14.18 2.44 13.11 2.25 12 2.25C10.89 2.25 9.81001 2.44 8.82001 2.78C8.36001 2.3 7.72001 2 7.00001 2C5.62001 2 4.50001 3.12 4.50001 4.5C4.50001 4.86 4.58001 5.21 4.72001 5.52C3.71001 6.65 2.96001 8.03 2.57001 9.54C1.40001 9.75 0.51001 10.77 0.51001 12C0.51001 13.23 1.40001 14.26 2.57001 14.46C2.96001 15.97 3.71001 17.35 4.72001 18.48C4.58001 18.79 4.50001 19.14 4.50001 19.5C4.50001 20.88 5.62001 22 7.00001 22C7.72001 22 8.36001 21.7 8.82001 21.22C9.82001 21.56 10.89 21.75 12 21.75C13.11 21.75 14.19 21.56 15.18 21.22C15.64 21.7 16.28 22 17 22C18.38 22 19.5 20.88 19.5 19.5C19.5 19.14 19.42 18.79 19.28 18.48C20.29 17.35 21.04 15.97 21.43 14.46C22.6 14.25 23.49 13.23 23.49 12C23.49 10.77 22.6 9.74 21.43 9.54ZM16.99 3.5C17.54 3.5 17.99 3.95 17.99 4.5C17.99 5.05 17.54 5.5 16.99 5.5C16.44 5.5 15.99 5.05 15.99 4.5C15.99 3.95 16.44 3.5 16.99 3.5ZM6.99001 3.5C7.54001 3.5 7.99001 3.95 7.99001 4.5C7.99001 5.05 7.54001 5.5 6.99001 5.5C6.44001 5.5 5.99001 5.05 5.99001 4.5C5.99001 3.95 6.44001 3.5 6.99001 3.5ZM2.99001 13C2.44001 13 1.99001 12.55 1.99001 12C1.99001 11.45 2.44001 11 2.99001 11C3.54001 11 3.99001 11.45 3.99001 12C3.99001 12.55 3.54001 13 2.99001 13ZM6.99001 20.5C6.44001 20.5 5.99001 20.05 5.99001 19.5C5.99001 18.95 6.44001 18.5 6.99001 18.5C7.54001 18.5 7.99001 18.95 7.99001 19.5C7.99001 20.05 7.54001 20.5 6.99001 20.5ZM16.99 20.5C16.44 20.5 15.99 20.05 15.99 19.5C15.99 18.95 16.44 18.5 16.99 18.5C17.54 18.5 17.99 18.95 17.99 19.5C17.99 20.05 17.54 20.5 16.99 20.5ZM19.93 14.26C19.6 15.41 19.03 16.46 18.27 17.35C17.9 17.13 17.46 17 16.99 17C15.61 17 14.49 18.12 14.49 19.5C14.49 19.62 14.49 19.74 14.52 19.86C13.72 20.12 12.88 20.25 11.99 20.25C11.1 20.25 10.26 20.11 9.46001 19.86C9.48001 19.74 9.49001 19.62 9.49001 19.5C9.49001 18.12 8.37001 17 6.99001 17C6.52001 17 6.09001 17.13 5.71001 17.35C4.95001 16.46 4.38001 15.41 4.05001 14.26C4.90001 13.86 5.49001 13 5.49001 12C5.49001 11 4.90001 10.14 4.05001 9.74C4.38001 8.59 4.95001 7.54 5.71001 6.65C6.08001 6.87 6.52001 7 6.99001 7C8.37001 7 9.49001 5.88 9.49001 4.5C9.49001 4.38 9.49001 4.26 9.46001 4.14C10.26 3.88 11.1 3.75 11.99 3.75C12.88 3.75 13.72 3.89 14.52 4.14C14.5 4.26 14.49 4.38 14.49 4.5C14.49 5.88 15.61 7 16.99 7C17.46 7 17.89 6.87 18.27 6.65C19.03 7.54 19.6 8.59 19.93 9.74C19.08 10.14 18.49 11 18.49 12C18.49 13 19.08 13.86 19.93 14.26ZM20.99 13C20.44 13 19.99 12.55 19.99 12C19.99 11.45 20.44 11 20.99 11C21.54 11 21.99 11.45 21.99 12C21.99 12.55 21.54 13 20.99 13ZM12.79 12.27H11.19C9.70001 12.27 8.49001 13.48 8.49001 14.97V15.71H15.49V14.97C15.49 13.48 14.28 12.27 12.79 12.27ZM11.99 11.2C13.09 11.2 13.99 10.3 13.99 9.2C13.99 8.1 13.09 7.2 11.99 7.2C10.89 7.2 9.99001 8.1 9.99001 9.2C9.99001 10.3 10.89 11.2 11.99 11.2Z" fill="#202022"/>
</g>
</svg>
