<svg width="24" height="24" viewBox="0 0 24 24" fill="none" xmlns="http://www.w3.org/2000/svg">
<g id="Type=Filled">
<path id="Vector" d="M14 9.203C14 10.308 13.105 11.203 12 11.203C10.895 11.203 10 10.307 10 9.203C10 8.098 10.895 7.203 12 7.203C13.105 7.203 14 8.098 14 9.203Z" fill="#202022"/>
<path id="Vector_2" d="M11.2 12.266C9.709 12.266 8.5 13.475 8.5 14.966V15.704H15.5V14.966C15.5 13.475 14.291 12.266 12.8 12.266H11.2Z" fill="#202022"/>
<path id="Vector_3" d="M4.50002 4.5C4.50002 4.863 4.57702 5.207 4.71602 5.519C3.70602 6.653 2.95702 8.024 2.56302 9.538C1.39002 9.744 0.499023 10.768 0.499023 12C0.499023 13.232 1.39002 14.256 2.56302 14.462C2.95702 15.976 3.70602 17.348 4.71602 18.482C4.57702 18.793 4.50002 19.138 4.50002 19.5C4.50002 20.881 5.61902 22 7.00002 22C7.71502 22 8.36002 21.7 8.81602 21.218C9.81402 21.563 10.885 21.75 12 21.75C13.115 21.75 14.186 21.563 15.184 21.218C15.64 21.699 16.285 22 17 22C18.381 22 19.5 20.881 19.5 19.5C19.5 19.137 19.423 18.793 19.284 18.482C20.294 17.348 21.043 15.977 21.437 14.462C22.61 14.255 23.501 13.232 23.501 12C23.501 10.768 22.61 9.744 21.437 9.538C21.043 8.024 20.294 6.652 19.284 5.518C19.423 5.207 19.5 4.862 19.5 4.5C19.5 3.119 18.381 2 17 2C16.285 2 15.64 2.3 15.184 2.782C14.186 2.437 13.115 2.25 12 2.25C10.885 2.25 9.81402 2.437 8.81602 2.782C8.36002 2.301 7.71502 2 7.00002 2C5.61902 2 4.50002 3.119 4.50002 4.5ZM4.06402 9.737C4.39202 8.585 4.96402 7.535 5.72102 6.648C6.09502 6.871 6.53302 6.999 7.00002 6.999C8.38102 6.999 9.50002 5.88 9.50002 4.499C9.50002 4.378 9.49102 4.259 9.47502 4.143C10.271 3.887 11.119 3.749 12 3.749C12.881 3.749 13.729 3.887 14.525 4.143C14.508 4.259 14.5 4.378 14.5 4.499C14.5 5.88 15.619 6.999 17 6.999C17.467 6.999 17.905 6.871 18.279 6.647C19.036 7.534 19.608 8.583 19.936 9.736C19.087 10.136 18.5 10.999 18.5 11.999C18.5 12.999 19.087 13.862 19.936 14.262C19.608 15.414 19.036 16.464 18.279 17.351C17.905 17.128 17.467 17 17 17C15.619 17 14.5 18.119 14.5 19.5C14.5 19.621 14.509 19.74 14.525 19.856C13.729 20.112 12.881 20.25 12 20.25C11.119 20.25 10.271 20.112 9.47502 19.856C9.49202 19.74 9.50002 19.621 9.50002 19.5C9.50002 18.119 8.38102 17 7.00002 17C6.53302 17 6.09502 17.128 5.72102 17.351C4.96402 16.464 4.39202 15.414 4.06402 14.262C4.91302 13.862 5.50002 12.999 5.50002 11.999C5.50002 10.999 4.91302 10.136 4.06402 9.736V9.737Z" fill="#202022"/>
</g>
</svg>
