<svg width="24" height="24" viewBox="0 0 24 24" fill="none" xmlns="http://www.w3.org/2000/svg">
<g id="Type=Outline">
<path id="Vector" d="M8.25 7.5C6.593 7.5 5.25 8.843 5.25 10.5V13.5C5.25 15.157 6.593 16.5 8.25 16.5C9.907 16.5 11.25 15.157 11.25 13.5H9.75C9.75 14.328 9.078 15 8.25 15C7.422 15 6.75 14.328 6.75 13.5V10.5C6.75 9.672 7.422 9 8.25 9C9.078 9 9.75 9.672 9.75 10.5H11.25C11.25 8.843 9.907 7.5 8.25 7.5Z" fill="#202022"/>
<path id="Vector_2" d="M15.75 7.5C14.093 7.5 12.75 8.843 12.75 10.5V13.5C12.75 15.157 14.093 16.5 15.75 16.5C17.407 16.5 18.75 15.157 18.75 13.5H17.25C17.25 14.328 16.578 15 15.75 15C14.922 15 14.25 14.328 14.25 13.5V10.5C14.25 9.672 14.922 9 15.75 9C16.578 9 17.25 9.672 17.25 10.5H18.75C18.75 8.843 17.407 7.5 15.75 7.5Z" fill="#202022"/>
<path id="Vector_3" d="M22.75 3.75H1.25V20.25H22.75V3.75ZM2.75 18.75V5.25H21.25V18.75H2.75Z" fill="#202022"/>
</g>
</svg>
