<svg width="24" height="24" viewBox="0 0 24 24" fill="none" xmlns="http://www.w3.org/2000/svg">
<g id="Type=Filled">
<path id="Vector" d="M1.25 3.75H22.75V20.25H1.25V3.75ZM8.187 7.5C6.53 7.5 5.187 8.843 5.187 10.5V13.5C5.187 15.157 6.53 16.5 8.187 16.5C9.585 16.5 10.759 15.544 11.093 14.25H9.487C9.228 14.698 8.743 15 8.188 15C7.36 15 6.688 14.328 6.688 13.5V10.5C6.688 9.672 7.36 9 8.188 9C8.743 9 9.228 9.302 9.487 9.75H11.093C10.76 8.456 9.585 7.5 8.187 7.5ZM15.687 7.5C14.03 7.5 12.687 8.843 12.687 10.5V13.5C12.687 15.157 14.03 16.5 15.687 16.5C17.085 16.5 18.26 15.544 18.592 14.25H16.986C16.727 14.698 16.242 15 15.687 15C14.859 15 14.187 14.328 14.187 13.5V10.5C14.187 9.672 14.859 9 15.687 9C16.242 9 16.727 9.302 16.986 9.75H18.592C18.259 8.456 17.084 7.5 15.687 7.5Z" fill="#202022"/>
</g>
</svg>
