<svg width="24" height="24" viewBox="0 0 24 24" fill="none" xmlns="http://www.w3.org/2000/svg">
<g id="Co2">
<path id="Vector" d="M0.155029 8.25C0.155029 6.041 1.94603 4.25 4.15503 4.25C6.28003 4.25 8.01803 5.907 8.14703 8H6.64203C6.51703 6.737 5.45103 5.75 4.15403 5.75C2.77303 5.75 1.65403 6.869 1.65403 8.25V12.75C1.65403 14.131 2.77303 15.25 4.15403 15.25C5.45003 15.25 6.51603 14.263 6.64203 13H8.14703C8.01803 15.093 6.28003 16.75 4.15503 16.75C1.94603 16.75 0.155029 14.959 0.155029 12.75V8.25Z" fill="#202022"/>
<path id="Vector_2" d="M9.40503 8.25C9.40503 6.041 11.196 4.25 13.405 4.25C15.614 4.25 17.405 6.041 17.405 8.25V12.75C17.405 14.959 15.614 16.75 13.405 16.75C11.196 16.75 9.40503 14.959 9.40503 12.75V8.25ZM13.404 5.75C12.023 5.75 10.904 6.869 10.904 8.25V12.75C10.904 14.131 12.023 15.25 13.404 15.25C14.785 15.25 15.904 14.131 15.904 12.75V8.25C15.904 6.869 14.785 5.75 13.404 5.75Z" fill="#202022"/>
<path id="Vector_3" d="M20.898 12.75H20.731C20.137 12.75 19.655 13.232 19.655 13.826H18.155C18.155 12.403 19.308 11.25 20.731 11.25H20.898C23.164 11.25 24.453 13.841 23.086 15.648L21.118 18.25H23.846V19.75H18.103L21.89 14.743C22.509 13.924 21.925 12.75 20.898 12.75Z" fill="#202022"/>
</g>
</svg>
