<svg width="24" height="24" viewBox="0 0 24 24" fill="none" xmlns="http://www.w3.org/2000/svg">
<g id="Codecov">
<path id="Vector" d="M12.021 2.82C6.71902 2.82 2.40002 7.096 2.40002 12.313V12.356L4.02502 13.297H4.06802C5.09402 12.613 6.33402 12.356 7.57402 12.57C8.42902 12.741 9.24202 13.126 9.88302 13.725L10.182 13.982L10.353 13.64C10.524 13.298 10.695 12.999 10.866 12.699C10.952 12.571 11.037 12.485 11.123 12.357L11.294 12.143L11.08 11.972C10.182 11.245 9.11302 10.732 7.95802 10.518C6.84602 10.304 5.73402 10.347 4.70802 10.689C5.47802 7.311 8.47103 4.916 12.02 4.916C14.03 4.916 15.911 5.686 17.322 7.097C18.348 8.081 19.032 9.321 19.332 10.689C18.691 10.475 18.006 10.39 17.322 10.39H17.194C16.937 10.39 16.681 10.433 16.382 10.433H16.339C16.253 10.433 16.125 10.476 16.04 10.476C15.869 10.519 15.741 10.519 15.57 10.562L15.442 10.605C15.314 10.648 15.185 10.691 15.057 10.733H15.014C14.715 10.818 14.458 10.947 14.159 11.075C14.031 11.118 13.902 11.203 13.774 11.289H13.731C13.09 11.674 12.491 12.144 12.021 12.743L11.978 12.829C11.85 13 11.764 13.128 11.679 13.214C11.594 13.3 11.551 13.428 11.465 13.556L11.422 13.642C11.336 13.77 11.294 13.899 11.251 13.984V14.027C11.123 14.284 10.994 14.583 10.909 14.882V14.925C10.695 15.609 10.567 16.336 10.567 17.106V17.191C10.567 17.277 10.567 17.405 10.567 17.49C10.567 17.533 10.567 17.576 10.567 17.618C10.567 17.66 10.567 17.746 10.567 17.789V17.917C10.567 18.003 10.61 18.131 10.61 18.216C10.824 19.242 11.294 20.226 12.021 21.124L12.064 21.167L12.107 21.124C12.406 20.782 13.091 19.713 13.176 19.071C12.834 18.43 12.663 17.703 12.663 17.018C12.663 14.623 14.544 12.614 16.982 12.485H17.153C18.137 12.442 19.12 12.742 19.932 13.297H19.975L21.6 12.356V12.313C21.6 9.79 20.616 7.395 18.778 5.599C16.982 3.803 14.587 2.819 12.022 2.819L12.021 2.82Z" fill="#202022"/>
</g>
</svg>
