<svg width="24" height="24" viewBox="0 0 24 24" fill="none" xmlns="http://www.w3.org/2000/svg">
<g id="Type=Filled">
<g id="Shape">
<path d="M12.6533 8.35868C12.912 9.09794 13.0988 10.103 13.1564 11.25H10.8436C10.9012 10.103 11.088 9.09794 11.3467 8.35868C11.5048 7.90696 11.6758 7.59487 11.8285 7.41036C11.9163 7.30434 11.9742 7.26678 12 7.25425C12.0258 7.26678 12.0837 7.30434 12.1715 7.41036C12.3242 7.59487 12.4952 7.90696 12.6533 8.35868Z" fill="#202022"/>
<path d="M12.6533 15.6413C12.912 14.9021 13.0988 13.897 13.1564 12.75H10.8436C10.9012 13.897 11.088 14.9021 11.3467 15.6413C11.5048 16.093 11.6758 16.4051 11.8285 16.5896C11.9163 16.6957 11.9742 16.7332 12 16.7458C12.0258 16.7332 12.0837 16.6957 12.1715 16.5896C12.3242 16.4051 12.4952 16.093 12.6533 15.6413Z" fill="#202022"/>
<path d="M16.6911 12.75H14.6581C14.5994 14.0397 14.3906 15.2182 14.0691 16.1369C14.0491 16.1939 14.0285 16.2504 14.0074 16.3063C15.4105 15.6511 16.4405 14.3303 16.6911 12.75Z" fill="#202022"/>
<path d="M14.6581 11.25H16.6911C16.4405 9.66977 15.4105 8.34901 14.0074 7.69381C14.0286 7.74965 14.0491 7.80612 14.0691 7.86315C14.3906 8.78182 14.5994 9.9603 14.6581 11.25Z" fill="#202022"/>
<path d="M7.30888 11.25H9.34194C9.40062 9.9603 9.60939 8.78182 9.93093 7.86315C9.95089 7.80612 9.97143 7.74965 9.99258 7.69381C8.58948 8.34901 7.55955 9.66977 7.30888 11.25Z" fill="#202022"/>
<path d="M7.30887 12.75H9.34194C9.40062 14.0397 9.60939 15.2182 9.93093 16.1369C9.95089 16.1939 9.97145 16.2504 9.99261 16.3063C8.58948 15.6511 7.55952 14.3303 7.30887 12.75Z" fill="#202022"/>
<path fill-rule="evenodd" clip-rule="evenodd" d="M9.71154 1.25H14.2885V2.44459C14.2885 2.9983 14.7126 3.56538 15.3938 3.84929C16.0607 4.12729 16.7397 4.02465 17.1383 3.62607L17.9833 2.78105L21.2197 6.01742L20.3741 6.86302C19.9757 7.26139 19.8731 7.94 20.1509 8.60664C20.4347 9.28754 21.0015 9.71154 21.555 9.71154H22.75V14.2885H21.5554C21.0017 14.2885 20.4346 14.7126 20.1507 15.3938C19.8727 16.0607 19.9754 16.7397 20.3739 17.1383L21.2195 17.9839L17.9831 21.2202L17.137 20.3741C16.7386 19.9757 16.06 19.8731 15.3934 20.1509C14.7125 20.4347 14.2885 21.0015 14.2885 21.555V22.75H9.71154V21.555C9.71154 21.0015 9.28754 20.4347 8.60664 20.1509C7.94 19.8731 7.26139 19.9757 6.86302 20.3741L6.01686 21.2202L2.78049 17.9838L3.62607 17.1383C4.02465 16.7397 4.12729 16.0607 3.84929 15.3938C3.56538 14.7126 2.9983 14.2885 2.44459 14.2885H1.25V9.71154H2.445C2.99847 9.71154 3.56535 9.28754 3.84912 8.60664C4.12694 7.94 4.02431 7.26139 3.62594 6.86302L2.78035 6.01743L6.01672 2.78106L6.86174 3.62607C7.26032 4.02465 7.93928 4.12729 8.60622 3.84929C9.28736 3.56538 9.71154 2.9983 9.71154 2.44459V1.25ZM12 5.75L11.989 5.75004C8.5423 5.75596 5.75 8.55191 5.75 12C5.75 15.4518 8.54822 18.25 12 18.25C15.4518 18.25 18.25 15.4518 18.25 12C18.25 8.55188 15.4577 5.75592 12.0109 5.75004L12 5.75Z" fill="#202022"/>
</g>
</g>
</svg>
