<svg width="24" height="24" viewBox="0 0 24 24" fill="none" xmlns="http://www.w3.org/2000/svg">
<g id="Type=Outline">
<path id="Shape" d="M12.01 6.25C8.83001 6.25 6.26001 8.82 6.26001 12C6.26001 15.18 8.83001 17.75 12.01 17.75C15.19 17.75 17.76 15.18 17.76 12C17.76 8.82 15.19 6.25 12.01 6.25ZM7.83001 12.75H9.53001C9.59001 13.9 9.78001 14.95 10.06 15.78C8.90001 15.18 8.06001 14.07 7.82001 12.75H7.83001ZM9.53001 11.25H7.83001C8.07001 9.93 8.91001 8.82 10.07 8.22C9.78001 9.05 9.59001 10.1 9.54001 11.25H9.53001ZM12.54 15.29C12.4 15.7 12.25 15.97 12.11 16.13C12.06 16.19 12.03 16.22 12.01 16.23C11.99 16.21 11.95 16.18 11.91 16.13C11.78 15.97 11.63 15.7 11.48 15.29C11.25 14.64 11.09 13.76 11.03 12.75H12.99C12.93 13.76 12.77 14.64 12.54 15.29ZM11.03 11.25C11.09 10.24 11.25 9.36 11.48 8.71C11.62 8.3 11.77 8.03 11.91 7.87C11.96 7.81 11.99 7.78 12.01 7.77C12.03 7.79 12.07 7.82 12.11 7.87C12.24 8.03 12.39 8.3 12.54 8.71C12.77 9.36 12.93 10.24 12.99 11.25H11.03ZM13.96 15.78C14.25 14.95 14.44 13.9 14.49 12.75H16.19C15.95 14.07 15.11 15.18 13.95 15.78H13.96ZM14.49 11.25C14.43 10.1 14.24 9.05 13.96 8.22C15.12 8.82 15.96 9.93 16.2 11.25H14.5H14.49ZM21.56 9.71C21.01 9.71 20.44 9.29 20.16 8.61C19.88 7.94 19.98 7.26 20.38 6.87L21.23 6.02L17.99 2.78L17.15 3.63C16.75 4.03 16.07 4.13 15.41 3.85C14.73 3.57 14.3 3 14.3 2.45V1.25H9.72001V2.44C9.72001 2.99 9.30001 3.56 8.61001 3.84C7.94001 4.12 7.26001 4.02 6.87001 3.62L6.02001 2.77L2.78001 6.01L3.63001 6.86C4.03001 7.26 4.13001 7.94 3.85001 8.6C3.57001 9.28 3.00001 9.7 2.45001 9.7H1.26001V14.28H2.45001C3.00001 14.28 3.57001 14.7 3.85001 15.39C4.13001 16.06 4.03001 16.74 3.63001 17.13L2.78001 17.98L6.02001 21.22L6.87001 20.37C7.27001 19.97 7.95001 19.87 8.61001 20.15C9.29001 20.43 9.71001 21 9.71001 21.55V22.75H14.29V21.55C14.29 21 14.71 20.43 15.39 20.15C16.06 19.87 16.74 19.97 17.13 20.37L17.98 21.22L21.22 17.98L20.37 17.13C19.97 16.73 19.87 16.05 20.15 15.39C20.43 14.71 21 14.28 21.55 14.28H22.74V9.7H21.54L21.56 9.71ZM21.26 12.81C20.08 12.94 19.18 13.84 18.78 14.82C18.37 15.81 18.39 17.05 19.12 17.98L17.98 19.12C17.06 18.38 15.82 18.36 14.82 18.78C13.84 19.19 12.94 20.08 12.81 21.26H11.2C11.07 20.08 10.17 19.18 9.19001 18.78C8.20001 18.37 6.96001 18.39 6.03001 19.12L4.89001 17.98C5.63001 17.06 5.65001 15.81 5.23001 14.82C4.82001 13.84 3.93001 12.94 2.75001 12.81V11.2C3.93001 11.07 4.83001 10.17 5.23001 9.19C5.64001 8.2 5.62001 6.96 4.89001 6.04L6.03001 4.9C6.95001 5.64 8.19001 5.66 9.18001 5.24C10.16 4.83 11.06 3.94 11.19 2.76H12.8C12.93 3.94 13.83 4.84 14.81 5.24C15.8 5.65 17.04 5.63 17.96 4.9L19.1 6.04C18.36 6.96 18.34 8.2 18.76 9.19C19.17 10.17 20.06 11.07 21.24 11.2V12.81H21.26Z" fill="#202022"/>
</g>
</svg>
