<svg width="24" height="24" viewBox="0 0 24 24" fill="none" xmlns="http://www.w3.org/2000/svg">
<g id="Type=Outline">
<g id="Shape">
<path fill-rule="evenodd" clip-rule="evenodd" d="M3.84473 11.25C4.79112 11.25 5.68349 11.4883 6.36328 11.9131C7.03253 12.3314 7.59473 13.0053 7.59473 13.875C7.59473 13.9171 7.59243 13.9588 7.58984 14H7.59473V17.8594C7.59473 18.7145 6.97125 19.3249 6.32617 19.6777C5.65312 20.0458 4.77422 20.25 3.84473 20.25C2.91524 20.25 2.03633 20.0458 1.36328 19.6777C0.718199 19.3249 0.0947266 18.7145 0.0947266 17.8594V14H0.0996094C0.0970201 13.9588 0.0947266 13.9171 0.0947266 13.875C0.0947266 13.0053 0.65692 12.3314 1.32617 11.9131C2.00597 11.4883 2.89833 11.25 3.84473 11.25ZM6.09473 15.9883C5.45621 16.3173 4.67131 16.5 3.84473 16.5C3.01815 16.5 2.23325 16.3173 1.59473 15.9883V17.8594C1.59473 17.9103 1.64257 18.1204 2.08301 18.3613C2.49574 18.587 3.11736 18.75 3.84473 18.75C4.57209 18.75 5.19371 18.587 5.60645 18.3613C6.04688 18.1204 6.09473 17.9103 6.09473 17.8594V15.9883ZM3.84473 12.75C3.13438 12.75 2.52706 12.9318 2.12109 13.1855C1.70459 13.4459 1.59473 13.7091 1.59473 13.875C1.59473 14.0409 1.70459 14.3041 2.12109 14.5645C2.52706 14.8182 3.13438 15 3.84473 15C4.55508 15 5.1624 14.8182 5.56836 14.5645C5.98487 14.3041 6.09473 14.0409 6.09473 13.875C6.09473 13.7091 5.98487 13.4459 5.56836 13.1855C5.1624 12.9318 4.55508 12.75 3.84473 12.75Z" fill="#202022"/>
<path fill-rule="evenodd" clip-rule="evenodd" d="M12.8447 3.75C13.7911 3.75 14.6835 3.98829 15.3633 4.41309C16.0325 4.83137 16.5947 5.50533 16.5947 6.375V17.8594C16.5947 18.7145 15.9713 19.3249 15.3262 19.6777C14.6531 20.0458 13.7742 20.25 12.8447 20.25C11.9152 20.25 11.0363 20.0458 10.3633 19.6777C9.7182 19.3249 9.09473 18.7145 9.09473 17.8594V6.375C9.09473 5.50533 9.65692 4.83137 10.3262 4.41309C11.006 3.98829 11.8983 3.75 12.8447 3.75ZM15.0947 15.9883C14.4562 16.3173 13.6713 16.5 12.8447 16.5C12.0181 16.5 11.2332 16.3173 10.5947 15.9883V17.8594C10.5947 17.9103 10.6426 18.1204 11.083 18.3613C11.4957 18.587 12.1174 18.75 12.8447 18.75C13.5721 18.75 14.1937 18.587 14.6064 18.3613C15.0469 18.1204 15.0947 17.9103 15.0947 17.8594V15.9883ZM15.0947 12.2383C14.4562 12.5673 13.6713 12.75 12.8447 12.75C12.0181 12.75 11.2332 12.5673 10.5947 12.2383V13.875C10.5947 14.0409 10.7046 14.3041 11.1211 14.5645C11.5271 14.8182 12.1344 15 12.8447 15C13.5551 15 14.1624 14.8182 14.5684 14.5645C14.9849 14.3041 15.0947 14.0409 15.0947 13.875V12.2383ZM15.0947 8.48828C14.4562 8.81733 13.6713 9 12.8447 9C12.0181 9 11.2332 8.81733 10.5947 8.48828V10.125C10.5947 10.2909 10.7046 10.5541 11.1211 10.8145C11.5271 11.0682 12.1344 11.25 12.8447 11.25C13.5551 11.25 14.1624 11.0682 14.5684 10.8145C14.9849 10.5541 15.0947 10.2909 15.0947 10.125V8.48828ZM12.8447 5.25C12.1344 5.25 11.5271 5.43182 11.1211 5.68555C10.7046 5.94587 10.5947 6.20914 10.5947 6.375C10.5947 6.54086 10.7046 6.80413 11.1211 7.06445C11.5271 7.31818 12.1344 7.5 12.8447 7.5C13.5551 7.5 14.1624 7.31818 14.5684 7.06445C14.9849 6.80413 15.0947 6.54086 15.0947 6.375C15.0947 6.20914 14.9849 5.94587 14.5684 5.68555C14.1624 5.43182 13.5551 5.25 12.8447 5.25Z" fill="#202022"/>
<path d="M23.9053 7.03125L22.8447 8.09082L21.625 6.87109V16.8584L22.8447 15.6387L23.9053 16.6992L20.875 19.7295L17.8447 16.6992L18.9053 15.6387L20.125 16.8584V6.87109L18.9053 8.09082L17.8447 7.03027L20.875 4L23.9053 7.03125Z" fill="#202022"/>
</g>
</g>
</svg>
