<svg width="24" height="24" viewBox="0 0 24 24" fill="none" xmlns="http://www.w3.org/2000/svg">
<g id="Type=Filled">
<g id="Union">
<path d="M7.6167 18.2002C7.61588 18.7544 7.17904 19.1918 6.62061 19.4756C6.04803 19.7664 5.27373 19.9395 4.43311 19.9395C3.59264 19.9394 2.81906 19.7664 2.24658 19.4756C1.6881 19.1918 1.2513 18.7545 1.25049 18.2002V16.4492L1.61475 16.6367C2.40761 17.0455 3.39117 17.2763 4.43311 17.2764C5.4752 17.2764 6.45947 17.0455 7.25244 16.6367L7.6167 16.4492V18.2002Z" fill="#202022"/>
<path d="M15.438 18.2002C15.4372 18.7545 15.0004 19.1918 14.4419 19.4756C13.8694 19.7664 13.0958 19.9394 12.2554 19.9395C11.4147 19.9395 10.6404 19.7664 10.0679 19.4756C9.50943 19.1918 9.07256 18.7545 9.07178 18.2002V16.4551L9.43604 16.6436C10.229 17.0523 11.2133 17.2822 12.2554 17.2822C13.2973 17.2822 14.2809 17.0523 15.0737 16.6436L15.438 16.4551V18.2002Z" fill="#202022"/>
<path d="M22.7495 7.0918L21.689 8.15137L20.4692 6.93164V16.9189L21.689 15.6992L22.7495 16.7598L19.7192 19.79L16.689 16.7598L17.7495 15.6992L18.9692 16.9189V6.93164L17.7495 8.15137L16.689 7.09082L19.7192 4.06055L22.7495 7.0918Z" fill="#202022"/>
<path d="M15.438 14.1084L15.4272 14.2363C15.3775 14.5422 15.1479 14.8985 14.6343 15.2197C14.0596 15.579 13.2205 15.8261 12.2554 15.8262C11.2901 15.8262 10.4502 15.579 9.87549 15.2197C9.28844 14.8525 9.07221 14.4395 9.07178 14.1084V12.3223L9.43604 12.5098C10.229 12.9185 11.2134 13.1494 12.2554 13.1494C13.2972 13.1494 14.2809 12.9184 15.0737 12.5098L15.438 12.3223V14.1084Z" fill="#202022"/>
<path d="M4.43311 12.3848C5.39857 12.3848 6.23821 12.6318 6.81299 12.9912C7.39951 13.3581 7.61631 13.7701 7.6167 14.1016C7.61607 14.4326 7.39991 14.8468 6.81299 15.2139C6.23824 15.5732 5.39839 15.8193 4.43311 15.8193C3.46805 15.8193 2.62886 15.5731 2.0542 15.2139C1.46728 14.8468 1.25112 14.4336 1.25049 14.1025C1.25087 13.7711 1.46762 13.3581 2.0542 12.9912C2.6289 12.6318 3.46782 12.3848 4.43311 12.3848Z" fill="#202022"/>
<path d="M15.438 9.9873L15.4292 10.084L15.4272 10.1035C15.3765 10.4108 15.1478 10.7658 14.6343 11.0869C14.0596 11.446 13.2203 11.6923 12.2554 11.6924C11.2902 11.6924 10.4502 11.4461 9.87549 11.0869C9.36197 10.7658 9.13322 10.4108 9.08252 10.1035L9.08057 10.084L9.07178 9.9873V8.1875L9.43604 8.375C10.229 8.78382 11.2132 9.01465 12.2554 9.01465C13.2974 9.01459 14.2808 8.78377 15.0737 8.375L15.438 8.1875V9.9873Z" fill="#202022"/>
<path d="M12.2554 4.12207C13.2209 4.12214 14.0598 4.37029 14.6343 4.72949C15.0739 5.00452 15.3024 5.30355 15.3911 5.57617L15.4204 5.69141L15.4224 5.7002C15.427 5.73083 15.4365 5.78634 15.437 5.84375V5.84961C15.4328 6.17921 15.2166 6.58794 14.6343 6.95215C14.0596 7.31136 13.2204 7.55755 12.2554 7.55762C11.2901 7.55762 10.4502 7.31145 9.87549 6.95215C9.29365 6.58826 9.076 6.17966 9.07178 5.84961V5.84375C9.0723 5.78667 9.08181 5.73173 9.08643 5.70117L9.0874 5.69141C9.14491 5.38919 9.37351 5.04355 9.87549 4.72949L10.103 4.59961C10.6618 4.31152 11.4104 4.12207 12.2554 4.12207Z" fill="#202022"/>
</g>
</g>
</svg>
