<svg width="24" height="24" viewBox="0 0 24 24" fill="none" xmlns="http://www.w3.org/2000/svg">
<g id="Type=Outline">
<path id="Vector" d="M2.20001 2.19995V21.7H21.7V2.19995H2.20001ZM3.80001 20.2V18.7L5.30001 20.2H3.80001ZM8.20001 20.2H7.30001L3.70001 16.6V14.6L8.20001 19.1V20.2ZM8.20001 17L3.70001 12.5V10.8L8.20001 15.3V17ZM8.20001 13.2L3.70001 8.69995V6.89995L8.20001 11.4V13.2ZM8.20001 9.19995L3.80001 4.69995V3.69995H4.70001L8.30001 7.29995V9.09995L8.20001 9.19995ZM8.20001 5.29995L6.70001 3.79995H8.20001V5.29995ZM20.2 20.2H9.70001V3.79995H20.2V20.2Z" fill="#202022"/>
</g>
</svg>
