<svg width="24" height="24" viewBox="0 0 24 24" fill="none" xmlns="http://www.w3.org/2000/svg">
<g id="Comfort Filled">
<path id="Vector" d="M6.11499 5.875C7.21999 5.875 8.11499 4.98 8.11499 3.875C8.11499 2.77 7.21999 1.875 6.11499 1.875C5.00999 1.875 4.11499 2.77 4.11499 3.875C4.11499 4.98 5.00999 5.875 6.11499 5.875Z" fill="#202022"/>
<path id="Vector_2" d="M2.51897 4.39401L7.61497 16.625H15.365V18.125H8.86497V20.625H14.115V22.125H7.36497V18.125H6.61497L1.13397 4.97101L2.51897 4.39401Z" fill="#202022"/>
<path id="Vector_3" d="M19.115 22.125H22.115C22.529 22.125 22.865 21.789 22.865 21.375C22.865 20.961 22.529 20.625 22.115 20.625H21.17L18.02 13.918C17.649 13.129 16.856 12.625 15.983 12.625H11.891L9.954 8.08999C9.52 7.07399 8.345 6.60199 7.329 7.03599C6.313 7.46999 5.841 8.64499 6.275 9.66099L8.607 15.122L8.61 15.121V15.126H15.823L19.108 22.118L19.114 22.115V22.126L19.115 22.125Z" fill="#202022"/>
</g>
</svg>
