<svg width="24" height="24" viewBox="0 0 24 24" fill="none" xmlns="http://www.w3.org/2000/svg">
<g id="Type=Filled">
<path id="Vector" d="M12 1.00702L11.411 1.75602C10.747 2.60002 9.3 3.46802 7.367 3.91902C5.689 4.31002 4.114 4.27702 3.002 3.94902L2.182 3.70802L2.049 4.55202C0.237997 16.07 7.059 21.767 11.82 22.947L12 22.992L12.18 22.947C16.941 21.767 23.762 16.07 21.951 4.55202L21.818 3.70802L20.998 3.94902C19.886 4.27602 18.311 4.31002 16.633 3.91902C14.7 3.46802 13.253 2.60002 12.589 1.75602L12 1.00702ZM8.75 7.19402L16.988 12L8.75 16.806V7.19402Z" fill="#202022"/>
</g>
</svg>
