<svg width="24" height="24" viewBox="0 0 24 24" fill="none" xmlns="http://www.w3.org/2000/svg">
<g id="Compliance 360">
<path id="Vector" d="M12.275 1.757L11.686 1.008L11.097 1.757C10.433 2.601 8.986 3.469 7.053 3.92C5.375 4.311 3.8 4.278 2.688 3.95L1.868 3.709L1.735 4.553C1.382 6.796 1.356 8.825 1.583 10.648L3.072 10.463C2.891 9.003 2.883 7.378 3.106 5.581C4.374 5.794 5.876 5.735 7.394 5.381C9.138 4.974 10.669 4.231 11.687 3.311C12.705 4.232 14.236 4.974 15.98 5.381C17.499 5.735 19.001 5.794 20.268 5.581C20.7 9.065 20.268 11.903 19.37 14.167L18.422 12.007L17.048 12.61L18.956 16.96L23.306 15.051L22.703 13.677L20.853 14.489C21.86 11.827 22.262 8.53 21.637 4.554L21.504 3.71L20.684 3.951C19.573 4.278 17.997 4.312 16.319 3.921C14.386 3.47 12.939 2.602 12.275 1.758V1.757Z" fill="#202022"/>
<path id="Vector_2" d="M4.155 14.535C5.896 18.574 9.167 20.758 11.686 21.445C13.432 20.969 15.552 19.768 17.268 17.715L18.419 18.677C16.44 21.044 13.955 22.43 11.866 22.948L11.686 22.993L11.506 22.948C8.578 22.222 4.843 19.78 2.845 15.283L2.092 17.22L0.694 16.676L2.415 12.249L6.842 13.97L6.298 15.368L4.154 14.535H4.155Z" fill="#202022"/>
<path id="Vector_3" d="M10.509 15.769L16.373 9.90499L15.312 8.84399L10.509 13.647L8.373 11.511L7.312 12.572L10.509 15.769Z" fill="#202022"/>
</g>
</svg>
