<svg width="24" height="24" viewBox="0 0 24 24" fill="none" xmlns="http://www.w3.org/2000/svg">
<g id="Type=Outline">
<path id="Vector" d="M21.155 8.05202C22.229 6.97802 22.229 5.23702 21.155 4.16302L19.919 2.92702C18.845 1.85302 17.104 1.85302 16.03 2.92702L3.35299 15.604L2.12399 21.958L8.47799 20.729L21.155 8.05202ZM20.095 5.22302C20.583 5.71102 20.583 6.50302 20.095 6.99102L18.824 8.26202L15.82 5.25802L17.091 3.98702C17.579 3.49902 18.371 3.49902 18.859 3.98702L20.095 5.22302ZM14.759 6.31902L17.763 9.32302L7.74299 19.343L4.01899 20.063L4.73899 16.339L14.759 6.31902Z" fill="#202022"/>
<path id="Vector_2" d="M4.789 6.29303V9.04303H6.289V6.29303H9.039V4.79303H6.289V2.04303H4.789V4.79303H2.039V6.29303H4.789Z" fill="#202022"/>
</g>
</svg>
