<svg width="24" height="24" viewBox="0 0 24 24" fill="none" xmlns="http://www.w3.org/2000/svg">
<g id="Type=Filled">
<path id="Vector" d="M10.2 1.39999V2.99999C10.2 5.09999 11.9 6.79999 14 6.79999V5.19999C12.8 5.19999 11.8 4.19999 11.8 2.99999V1.29999C11.9 1.29999 12 1.29999 12 1.29999C16.6 1.29999 20.2 4.99999 20.2 9.49999V9.99999C21.5 10.1 22.4 11.2 22.4 12.5C22.4 13.8 21.4 14.9 20.1 15C19.8 19.3 16.3 22.8 11.9 22.8C7.49999 22.8 3.89999 19.4 3.69999 15C2.39999 14.9 1.39999 13.8 1.39999 12.5C1.39999 11.2 2.39999 10.1 3.59999 9.99999V9.49999C3.79999 5.49999 6.49999 2.19999 10.2 1.39999ZM7.99999 14.5C7.99999 16.7 9.79999 18.5 12 18.5C14.2 18.5 16 16.7 16 14.5H7.99999ZM10.5 11C10.5 10.4 10.1 9.99999 9.49999 9.99999C8.89999 9.99999 8.49999 10.4 8.49999 11C8.49999 11.6 8.89999 12 9.49999 12C10.1 12 10.5 11.6 10.5 11ZM15.5 11C15.5 10.4 15.1 9.99999 14.5 9.99999C13.9 9.99999 13.5 10.4 13.5 11C13.5 11.6 13.9 12 14.5 12C15.1 12 15.5 11.6 15.5 11Z" fill="#202022"/>
</g>
</svg>
