<svg width="24" height="24" viewBox="0 0 24 24" fill="none" xmlns="http://www.w3.org/2000/svg">
<g id="Type=Outline">
<path id="Vector" d="M7 11C7 10.172 7.672 9.5 8.5 9.5H9.5V8.5C9.5 7.534 10.283 6.75 11.25 6.75H12.75C13.716 6.75 14.5 7.533 14.5 8.5V9.5H15.5C16.328 9.5 17 10.172 17 11V14.75C17 15.578 16.328 16.25 15.5 16.25H8.5C7.672 16.25 7 15.578 7 14.75V11ZM13 9.5V8.5C13 8.362 12.888 8.25 12.75 8.25H11.25C11.112 8.25 11 8.362 11 8.5V9.5H13Z" fill="#202022"/>
<path id="Vector_2" d="M9.712 1.25H14.289V2.445C14.289 2.999 14.713 3.566 15.394 3.85C16.061 4.128 16.74 4.025 17.139 3.627L17.984 2.782L21.22 6.018L20.374 6.864C19.976 7.262 19.873 7.941 20.151 8.608C20.435 9.289 21.002 9.713 21.555 9.713H22.75V14.29H21.555C21.001 14.29 20.434 14.714 20.15 15.395C19.872 16.062 19.975 16.741 20.373 17.14L21.219 17.986L17.983 21.222L17.137 20.376C16.739 19.978 16.06 19.875 15.393 20.153C14.712 20.437 14.288 21.004 14.288 21.557V22.752H9.711V21.557C9.711 21.004 9.287 20.437 8.606 20.153C7.939 19.875 7.261 19.978 6.862 20.376L6.016 21.222L2.78 17.986L3.626 17.14C4.025 16.741 4.127 16.062 3.849 15.395C3.565 14.714 2.998 14.29 2.444 14.29H1.249V9.713H2.444C2.997 9.713 3.564 9.289 3.848 8.608C4.126 7.941 4.023 7.263 3.625 6.864L2.779 6.018L6.015 2.782L6.86 3.627C7.259 4.026 7.938 4.128 8.604 3.85C9.285 3.566 9.709 2.999 9.709 2.445V1.25H9.712ZM11.194 2.75C11.06 3.932 10.161 4.826 9.183 5.234C8.193 5.647 6.949 5.628 6.028 4.891L4.889 6.03C5.627 6.951 5.645 8.194 5.233 9.184C4.826 10.162 3.931 11.061 2.749 11.195V12.806C3.931 12.94 4.825 13.839 5.233 14.817C5.646 15.807 5.627 17.051 4.889 17.972L6.027 19.111C6.948 18.373 8.192 18.354 9.182 18.767C10.16 19.174 11.059 20.069 11.193 21.251H12.804C12.938 20.069 13.837 19.175 14.815 18.767C15.805 18.354 17.049 18.373 17.97 19.111L19.109 17.972C18.371 17.051 18.352 15.807 18.765 14.817C19.173 13.839 20.067 12.94 21.249 12.806V11.195C20.067 11.061 19.173 10.162 18.765 9.184C18.352 8.194 18.371 6.95 19.109 6.029L17.97 4.89C17.049 5.628 15.805 5.646 14.815 5.233C13.837 4.826 12.938 3.931 12.804 2.749H11.193L11.194 2.75Z" fill="#202022"/>
</g>
</svg>
