<svg width="24" height="24" viewBox="0 0 24 24" fill="none" xmlns="http://www.w3.org/2000/svg">
<g id="Type=Outline">
<path id="Vector" d="M16.8 14.5V13.7H7.2V14.5C7.2 17.1 9.3 19.3 12 19.3C14.6 19.2 16.8 17.1 16.8 14.5ZM12 17.8C10.5 17.8 9.2 16.7 8.8 15.3H15.1C14.8 16.7 13.5 17.8 12 17.8Z" fill="#202022"/>
<path id="Vector_2" d="M10.5 11C10.5 11.6 10.1 12 9.5 12C8.9 12 8.5 11.6 8.5 11C8.5 10.4 8.9 10 9.5 10C10.1 10 10.5 10.4 10.5 11Z" fill="#202022"/>
<path id="Vector_3" d="M14.5 12C15.1 12 15.5 11.6 15.5 11C15.5 10.4 15.1 10 14.5 10C13.9 10 13.5 10.4 13.5 11C13.5 11.6 13.9 12 14.5 12Z" fill="#202022"/>
<path id="Vector_4" d="M0.800003 12.5C0.800003 10.8 2.1 9.39999 4 9.29999C4.1 4.89999 7.7 1.29999 12.2 1.29999C16.6 1.29999 20.3 4.89999 20.4 9.29999C22.1 9.39999 23.4 10.8 23.4 12.5C23.4 14.2 22 15.6 20.3 15.7C19.7 19.7 16.3 22.7 12.1 22.7C7.9 22.7 4.5 19.7 3.9 15.7C2.2 15.7 0.800003 14.2 0.800003 12.5ZM2.2 12.5C2.2 13.4 2.9 14.1 3.7 14.3V10.8C2.9 10.9 2.2 11.6 2.2 12.5ZM20.2 10.8V14.3C21 14.2 21.7 13.4 21.7 12.6C21.7 11.8 21.1 10.9 20.2 10.8ZM12 2.79999C11.9 2.79999 11.8 2.79999 11.8 2.79999V2.99999C11.8 4.19999 12.8 5.19999 14 5.19999V6.69999C11.9 6.69999 10.2 4.99999 10.2 2.89999C7.3 3.69999 5.2 6.29999 5.2 9.39999V14.4C5.2 18.1 8.2 21.2 12 21.2C15.7 21.2 18.8 18.2 18.8 14.4V9.39999C18.8 5.79999 15.7 2.79999 12 2.79999Z" fill="#202022"/>
</g>
</svg>
