<svg width="24" height="24" viewBox="0 0 24 24" fill="none" xmlns="http://www.w3.org/2000/svg">
<g id="Type=Filled">
<path id="Vector" d="M13 8.5V9.5H11V8.5C11 8.362 11.112 8.25 11.25 8.25H12.75C12.888 8.25 13 8.362 13 8.5Z" fill="#202022"/>
<path id="Vector_2" d="M9.712 1.25002V2.44502C9.712 2.99902 9.288 3.56602 8.607 3.85002C7.94 4.12802 7.261 4.02502 6.863 3.62702L6.018 2.78202L2.782 6.01802L3.628 6.86402C4.026 7.26202 4.129 7.94102 3.851 8.60802C3.567 9.28902 3 9.71302 2.447 9.71302H1.252V14.29H2.447C3.001 14.29 3.568 14.714 3.852 15.395C4.13 16.062 4.027 16.741 3.629 17.139L2.783 17.985L6.019 21.221L6.865 20.375C7.263 19.977 7.942 19.874 8.609 20.152C9.29 20.436 9.714 21.003 9.714 21.556V22.751H14.291V21.556C14.291 21.003 14.715 20.436 15.396 20.152C16.063 19.874 16.741 19.977 17.14 20.375L17.986 21.221L21.222 17.985L20.376 17.139C19.977 16.74 19.875 16.061 20.153 15.394C20.437 14.713 21.004 14.289 21.558 14.289H22.753V9.71202H21.558C21.005 9.71202 20.438 9.28802 20.154 8.60702C19.876 7.94002 19.979 7.26202 20.377 6.86302L21.223 6.01702L17.987 2.78102L17.142 3.62602C16.743 4.02502 16.064 4.12702 15.398 3.84902C14.717 3.56502 14.293 2.99802 14.293 2.44402V1.24902H9.716L9.712 1.25002ZM9.5 8.50002C9.5 7.53402 10.283 6.75002 11.25 6.75002H12.75C13.716 6.75002 14.5 7.53302 14.5 8.50002V9.50002H15.5C16.328 9.50002 17 10.172 17 11V14.75C17 15.578 16.328 16.25 15.5 16.25H8.5C7.672 16.25 7 15.578 7 14.75V11C7 10.172 7.672 9.50002 8.5 9.50002H9.5V8.50002Z" fill="#202022"/>
</g>
</svg>
