<svg width="24" height="24" viewBox="0 0 24 24" fill="none" xmlns="http://www.w3.org/2000/svg">
<g id="Type=Outline">
<path id="Vector" d="M8.90601 7.414V17.026L17.144 12.22L8.90601 7.414ZM10.406 14.414V10.025L14.168 12.219L10.406 14.414Z" fill="#202022"/>
<path id="Vector_2" d="M12.59 1.757L12 1.008L11.411 1.757C10.747 2.601 9.3 3.469 7.367 3.92C5.689 4.311 4.114 4.278 3.002 3.95L2.182 3.709L2.049 4.553C0.237997 16.071 7.059 21.768 11.82 22.948L12 22.993L12.18 22.948C16.941 21.768 23.762 16.071 21.951 4.553L21.818 3.709L20.998 3.95C19.886 4.277 18.311 4.311 16.633 3.92C14.7 3.469 13.253 2.601 12.589 1.757H12.59ZM7.707 5.38C9.451 4.973 10.982 4.23 12 3.31C13.018 4.231 14.549 4.974 16.293 5.38C17.812 5.734 19.314 5.793 20.581 5.58C21.82 15.585 15.951 20.367 12 21.445C8.049 20.367 2.18 15.585 3.419 5.58C4.686 5.793 6.189 5.734 7.707 5.38Z" fill="#202022"/>
</g>
</svg>
