<svg width="24" height="24" viewBox="0 0 24 24" fill="none" xmlns="http://www.w3.org/2000/svg">
<g id="Type=Outline">
<g id="SHape">
<path fill-rule="evenodd" clip-rule="evenodd" d="M13.5 11.6924C14.4665 11.6924 15.25 12.4759 15.25 13.4424V14.4424C15.25 14.8146 15.1326 15.1588 14.9346 15.4424C15.1326 15.726 15.25 16.0702 15.25 16.4424V17.4424C15.25 17.8146 15.1326 18.1588 14.9346 18.4424C15.1326 18.726 15.25 19.0702 15.25 19.4424V20.4424C15.25 21.4089 14.4665 22.1924 13.5 22.1924H7.5C6.5335 22.1924 5.75 21.4089 5.75 20.4424V19.4424C5.75 19.0704 5.86658 18.7259 6.06445 18.4424C5.86658 18.1589 5.75 17.8144 5.75 17.4424V16.4424C5.75 16.0704 5.86658 15.7259 6.06445 15.4424C5.86658 15.1589 5.75 14.8144 5.75 14.4424V13.4424C5.75 12.4759 6.5335 11.6924 7.5 11.6924H13.5ZM7.5 19.1924C7.36193 19.1924 7.25 19.3043 7.25 19.4424V20.4424C7.25 20.5805 7.36193 20.6924 7.5 20.6924H13.5C13.6381 20.6924 13.75 20.5805 13.75 20.4424V19.4424C13.75 19.3043 13.6381 19.1924 13.5 19.1924H7.5ZM7.5 16.1924C7.36193 16.1924 7.25 16.3043 7.25 16.4424V17.4424C7.25 17.5805 7.36193 17.6924 7.5 17.6924H13.5C13.6381 17.6924 13.75 17.5805 13.75 17.4424V16.4424C13.75 16.3043 13.6381 16.1924 13.5 16.1924H7.5ZM7.5 13.1924C7.36193 13.1924 7.25 13.3043 7.25 13.4424V14.4424C7.25 14.5805 7.36193 14.6924 7.5 14.6924H13.5C13.6381 14.6924 13.75 14.5805 13.75 14.4424V13.4424C13.75 13.3043 13.6381 13.1924 13.5 13.1924H7.5Z" fill="#202022"/>
<path d="M13.0381 1.80762C17.0673 1.80779 20.3633 4.90651 20.7949 8.86621C22.5213 9.51478 23.75 11.1809 23.75 13.1348C23.7499 15.6518 21.7094 17.6923 19.1924 17.6924H16.7393C16.7456 17.6099 16.75 17.5265 16.75 17.4424V16.4424C16.75 16.3582 16.7456 16.2749 16.7393 16.1924H19.1924C20.881 16.1923 22.2499 14.8234 22.25 13.1348C22.25 11.6948 21.2538 10.4856 19.9121 10.1621L19.3623 10.0293L19.3379 9.46484C19.1915 6.02694 16.4148 3.30779 13.0381 3.30762C10.1979 3.30762 7.78234 5.22952 6.99805 7.88867L6.81641 8.50488L6.17871 8.41992C6.0075 8.39695 5.83252 8.38479 5.6543 8.38477C3.49836 8.38477 1.75016 10.1322 1.75 12.2881C1.75 13.9633 2.80593 15.3913 4.28809 15.9453C4.27573 16.0245 4.26614 16.1046 4.25977 16.1855L4.25 16.4424V17.4424C4.25 17.4643 4.25151 17.486 4.25195 17.5078C1.94734 16.8901 0.25 14.7875 0.25 12.2881C0.250165 9.30376 2.66994 6.88477 5.6543 6.88477C5.6879 6.88477 5.72141 6.88708 5.75488 6.8877C6.88161 3.92296 9.71048 1.80762 13.0381 1.80762Z" fill="#202022"/>
</g>
</g>
</svg>
