<svg width="24" height="24" viewBox="0 0 24 24" fill="none" xmlns="http://www.w3.org/2000/svg">
<g id="Type=Outline">
<path id="Vector" d="M14.6 18.7001C14.3 17.8001 13.6 17.1 12.7 16.8V13.7H17.2C19.1 13.7 20.7 12.1 20.7 10.2C20.7 8.30005 19.8 7.50005 18.5 7.00005C18.1 4.10005 15.7 1.80005 12.7 1.80005C9.7 1.80005 8.1 3.30005 7.3 5.50005C5 5.50005 3.2 7.40005 3.2 9.60005C3.2 11.8 5.1 13.7 7.3 13.7H11.2V16.8C10.3 17.1 9.6 17.8001 9.3 18.7001H2V20.2001H9.4C9.7 21.4001 10.8 22.2001 12 22.2001C13.2 22.2001 14.3 21.4001 14.6 20.2001H22V18.7001H14.6ZM7.4 12.1C5.9 12.1 4.8 10.9 4.8 9.50005C4.8 8.10005 6 6.90005 7.4 6.90005C8.8 6.90005 7.6 6.90005 7.8 6.90005H8.4L8.6 6.40005C9.1 4.50005 10.8 3.20005 12.8 3.20005C14.8 3.20005 17.1 5.10005 17.2 7.50005V8.10005L17.8 8.20005C18.7 8.40005 19.3 9.20005 19.3 10.2C19.3 11.2 18.4 12.2 17.3 12.2H7.4V12.1ZM12 20.7001C11.3 20.7001 10.8 20.1 10.8 19.5C10.8 18.9 11.4 18.3 12 18.3C12.6 18.3 13.2 18.9 13.2 19.5C13.2 20.1 12.6 20.7001 12 20.7001Z" fill="#202022"/>
</g>
</svg>
