<svg width="24" height="24" viewBox="0 0 24 24" fill="none" xmlns="http://www.w3.org/2000/svg">
<g id="Type=Filled">
<g id="Shape">
<path d="M13 20C13.2761 20 13.5 20.2239 13.5 20.5V21.5C13.5 21.7761 13.2761 22 13 22H7C6.72386 22 6.5 21.7761 6.5 21.5V20.5C6.5 20.2239 6.72386 20 7 20H13Z" fill="#202022"/>
<path d="M13 16.5C13.1728 16.5 13.3252 16.5875 13.415 16.7207C13.4509 16.7739 13.477 16.8344 13.4902 16.8994C13.4969 16.9319 13.5 16.9656 13.5 17V18C13.5 18.2761 13.2761 18.5 13 18.5H7C6.72386 18.5 6.5 18.2761 6.5 18V17C6.5 16.9656 6.50314 16.9319 6.50977 16.8994C6.52303 16.8344 6.54913 16.7739 6.58496 16.7207C6.67478 16.5875 6.82725 16.5 7 16.5H13Z" fill="#202022"/>
<path d="M13.0381 1.86035C17.0673 1.86052 20.3633 4.95924 20.7949 8.91895C22.5212 9.56755 23.75 11.2337 23.75 13.1875C23.7497 15.7043 21.7093 17.7451 19.1924 17.7451H15V17C14.9999 16.5269 14.8343 16.0924 14.5596 15.75C14.8343 15.4076 14.9999 14.9731 15 14.5V13.5C14.9998 12.3956 14.1044 11.5 13 11.5H7C5.89555 11.5 5.0002 12.3956 5 13.5V14.5C5.00009 14.9731 5.16571 15.4076 5.44043 15.75C5.16571 16.0924 5.00009 16.5269 5 17V17.7031C2.32431 17.38 0.250183 15.1035 0.25 12.3408C0.250162 9.3565 2.66994 6.9375 5.6543 6.9375C5.6879 6.9375 5.72141 6.93981 5.75488 6.94043C6.88161 3.97569 9.71048 1.86035 13.0381 1.86035Z" fill="#202022"/>
<path d="M13 13C13.1723 13 13.3242 13.087 13.4141 13.2197C13.4321 13.2464 13.4482 13.2747 13.4609 13.3047C13.4737 13.3348 13.4835 13.3666 13.4902 13.3994C13.4969 13.4319 13.5 13.4656 13.5 13.5V14.5C13.5 14.7761 13.2761 15 13 15H7C6.72386 15 6.5 14.7761 6.5 14.5V13.5C6.5 13.4656 6.50314 13.4319 6.50977 13.3994C6.51646 13.3666 6.52628 13.3348 6.53906 13.3047C6.55179 13.2747 6.56785 13.2464 6.58594 13.2197C6.67585 13.087 6.8277 13 7 13H13Z" fill="#202022"/>
</g>
</g>
</svg>
