<svg width="24" height="24" viewBox="0 0 24 24" fill="none" xmlns="http://www.w3.org/2000/svg">
<g id="Type=Filled">
<path id="Vector" d="M6 2.125H17V9.125H12.5L10 12.125V9.125H6V2.125Z" fill="#202022"/>
<path id="Vector_2" d="M4 13.8929C4 12.5119 5.119 11.3929 6.5 11.3929C7.881 11.3929 9 12.5119 9 13.8929C9 15.2739 7.881 16.3929 6.5 16.3929C5.119 16.3929 4 15.2739 4 13.8929Z" fill="#202022"/>
<path id="Vector_3" d="M2.25 20.625C2.25 18.83 3.705 17.375 5.5 17.375H7.5C9.295 17.375 10.75 18.83 10.75 20.625V21.875H2.25V20.625Z" fill="#202022"/>
<path id="Vector_4" d="M15 13.8929C15 12.5119 16.119 11.3929 17.5 11.3929C18.881 11.3929 20 12.5119 20 13.8929C20 15.2739 18.881 16.3929 17.5 16.3929C16.119 16.3929 15 15.2739 15 13.8929Z" fill="#202022"/>
<path id="Vector_5" d="M13.25 20.625C13.25 18.83 14.705 17.375 16.5 17.375H18.5C20.295 17.375 21.75 18.83 21.75 20.625V21.875H13.25V20.625Z" fill="#202022"/>
</g>
</svg>
