<svg width="24" height="24" viewBox="0 0 24 24" fill="none" xmlns="http://www.w3.org/2000/svg">
<g id="Type=Outline">
<path id="Vector" d="M17.75 1.875H7.25V9.375H10.25V13.697L13.851 9.375H17.75V1.875ZM8.75 7.875V3.375H16.25V7.875H13.149L11.75 9.553V7.875H8.75Z" fill="#202022"/>
<path id="Vector_2" d="M3.75 14.125C3.75 12.606 4.981 11.375 6.5 11.375C8.019 11.375 9.25 12.606 9.25 14.125C9.25 15.644 8.019 16.875 6.5 16.875C4.981 16.875 3.75 15.644 3.75 14.125ZM6.5 12.875C5.81 12.875 5.25 13.435 5.25 14.125C5.25 14.815 5.81 15.375 6.5 15.375C7.19 15.375 7.75 14.815 7.75 14.125C7.75 13.435 7.19 12.875 6.5 12.875Z" fill="#202022"/>
<path id="Vector_3" d="M2.25 21.125C2.25 19.33 3.705 17.875 5.5 17.875H7.5C9.295 17.875 10.75 19.33 10.75 21.125V22.125H9.25V21.125C9.25 20.159 8.467 19.375 7.5 19.375H5.5C4.534 19.375 3.75 20.158 3.75 21.125V22.125H2.25V21.125Z" fill="#202022"/>
<path id="Vector_4" d="M17.5 11.375C15.981 11.375 14.75 12.606 14.75 14.125C14.75 15.644 15.981 16.875 17.5 16.875C19.019 16.875 20.25 15.644 20.25 14.125C20.25 12.606 19.019 11.375 17.5 11.375ZM16.25 14.125C16.25 13.435 16.81 12.875 17.5 12.875C18.19 12.875 18.75 13.435 18.75 14.125C18.75 14.815 18.19 15.375 17.5 15.375C16.81 15.375 16.25 14.815 16.25 14.125Z" fill="#202022"/>
<path id="Vector_5" d="M13.25 21.125C13.25 19.33 14.705 17.875 16.5 17.875H18.5C20.295 17.875 21.75 19.33 21.75 21.125V22.125H20.25V21.125C20.25 20.159 19.467 19.375 18.5 19.375H16.5C15.534 19.375 14.75 20.158 14.75 21.125V22.125H13.25V21.125Z" fill="#202022"/>
</g>
</svg>
