<svg width="24" height="24" viewBox="0 0 24 24" fill="none" xmlns="http://www.w3.org/2000/svg">
<g id="Type=Filled">
<path id="Vector" d="M12.75 17.738C13.697 17.161 14.85 16.711 16.137 16.469C17.842 16.149 19.463 16.254 20.774 16.668L21.75 16.976V3.19998L21.226 3.03398C19.657 2.53898 17.785 2.42998 15.861 2.79098C14.733 3.00298 13.683 3.35798 12.75 3.82198V17.737V17.738Z" fill="#202022"/>
<path id="Vector_2" d="M11.25 3.823C10.317 3.359 9.267 3.003 8.139 2.792C6.215 2.431 4.342 2.539 2.774 3.035L2.25 3.201V16.977L3.226 16.669C4.537 16.255 6.157 16.15 7.863 16.47C9.15 16.712 10.304 17.162 11.25 17.739V3.823Z" fill="#202022"/>
<path id="Vector_3" d="M7.62301 19.457C5.89501 19.091 4.20201 19.424 2.75101 19.941L2.24701 18.528C3.83601 17.962 5.83001 17.544 7.93301 17.989C9.46401 18.313 10.847 18.954 11.999 19.745C13.151 18.953 14.533 18.313 16.065 17.989C18.168 17.543 20.162 17.962 21.751 18.528L21.247 19.941C19.796 19.424 18.103 19.091 16.375 19.457C14.874 19.775 13.528 20.448 12.454 21.268L11.999 21.615L11.544 21.268C10.469 20.448 9.12401 19.775 7.62201 19.457H7.62301Z" fill="#202022"/>
</g>
</svg>
