<svg width="24" height="24" viewBox="0 0 24 24" fill="none" xmlns="http://www.w3.org/2000/svg">
<g id="Type=Outline">
<path id="Vector" d="M2.774 2.93796C4.343 2.44296 6.215 2.33396 8.139 2.69496C9.58 2.96596 10.895 3.47096 12 4.13796C13.104 3.46996 14.419 2.96496 15.861 2.69496C17.785 2.33396 19.658 2.44196 21.226 2.93796L21.75 3.10396V16.88L20.774 16.572C19.463 16.158 17.843 16.053 16.137 16.373C14.696 16.643 13.423 17.175 12.42 17.853L12 18.137L11.58 17.853C10.577 17.175 9.304 16.643 7.863 16.373C6.158 16.053 4.537 16.158 3.226 16.572L2.25 16.88V3.10396L2.774 2.93796ZM3.75 4.22296V14.891C5.094 14.621 6.6 14.609 8.139 14.899C9.267 15.111 10.317 15.466 11.25 15.93V5.43796C10.303 4.86096 9.15 4.41096 7.863 4.16896C6.378 3.88996 4.958 3.93396 3.75 4.22296ZM12.75 5.43796V15.93C13.683 15.465 14.733 15.11 15.861 14.899C17.4 14.61 18.906 14.622 20.25 14.891V4.22296C19.042 3.93396 17.622 3.88996 16.137 4.16896C14.85 4.41096 13.696 4.86096 12.75 5.43796Z" fill="#202022"/>
<path id="Vector_2" d="M7.62301 19.36C5.89501 18.994 4.20201 19.327 2.75101 19.844L2.24701 18.431C3.83601 17.865 5.83001 17.447 7.93301 17.892C9.46401 18.216 10.847 18.857 11.999 19.649C13.151 18.857 14.533 18.217 16.065 17.892C18.168 17.446 20.162 17.865 21.751 18.431L21.247 19.844C19.796 19.327 18.103 18.994 16.375 19.36C14.874 19.678 13.528 20.351 12.453 21.171L11.998 21.518L11.543 21.171C10.468 20.351 9.12301 19.678 7.62101 19.36H7.62301Z" fill="#202022"/>
</g>
</svg>
