<svg width="24" height="24" viewBox="0 0 24 24" fill="none" xmlns="http://www.w3.org/2000/svg">
<g id="Costa Rican Coln">
<path id="Vector" d="M10.754 4.646L11.182 2.25H12.706L12.3031 4.504C13.061 4.532 13.783 4.701 14.443 4.984L14.931 2.25H16.455L15.819 5.809C16.8201 6.609 17.559 7.721 17.887 9H16.32C16.135 8.476 15.855 7.996 15.502 7.582L13.695 17.7C14.918 17.228 15.882 16.239 16.32 15H17.887C17.329 17.167 15.591 18.86 13.4 19.354L12.972 21.75H11.448L11.851 19.495C11.093 19.467 10.371 19.298 9.71005 19.015L9.22205 21.75H7.69805L8.33405 18.191C6.95805 17.091 6.07605 15.399 6.07605 13.5V10.5C6.07605 7.641 8.07605 5.249 10.752 4.646H10.754ZM12.1191 18L14.17 6.515C13.544 6.186 12.833 6 12.078 6H12.036L9.98605 17.485C10.612 17.814 11.3231 18 12.0791 18H12.121H12.1191ZM10.459 6.3C8.77405 6.95 7.57805 8.585 7.57805 10.5V13.5C7.57805 14.614 7.98205 15.632 8.65205 16.418L10.459 6.3Z" fill="#202022"/>
</g>
</svg>
