<svg width="24" height="24" viewBox="0 0 24 24" fill="none" xmlns="http://www.w3.org/2000/svg">
<g id="Type=Filled">
<path id="Vector" d="M12.75 21.888C13.296 22.273 13.959 22.5 14.679 22.5C16.223 22.5 17.5 21.458 17.942 20.051C19.744 19.919 21.122 18.363 21.122 16.521C21.122 15.924 20.978 15.359 20.723 14.863C21.359 14.218 21.75 13.322 21.75 12.337C21.75 11.17 21.2 10.125 20.342 9.47802C20.471 9.10502 20.541 8.70402 20.541 8.28702C20.541 6.70902 19.53 5.34102 18.106 4.89802C18.035 3.03502 16.555 1.49902 14.68 1.49902C13.96 1.49902 13.297 1.72602 12.751 2.11102V21.888H12.75Z" fill="#202022"/>
<path id="Vector_2" d="M11.25 2.112C10.704 1.727 10.041 1.5 9.32101 1.5C7.44601 1.5 5.96501 3.036 5.89501 4.899C4.47101 5.342 3.46001 6.709 3.46001 8.288C3.46001 8.704 3.53001 9.105 3.65901 9.479C2.80001 10.126 2.25101 11.171 2.25101 12.338C2.25101 13.322 2.64101 14.219 3.27801 14.864C3.02301 15.36 2.87901 15.924 2.87901 16.522C2.87901 18.364 4.25701 19.92 6.05901 20.052C6.50101 21.459 7.77801 22.501 9.32201 22.501C10.042 22.501 10.705 22.274 11.251 21.889L11.25 2.112Z" fill="#202022"/>
</g>
</svg>
