<svg width="24" height="24" viewBox="0 0 24 24" fill="none" xmlns="http://www.w3.org/2000/svg">
<g id="Type=Outline">
<path id="Vector" d="M9.32099 1.5C10.416 1.5 11.376 2.024 12 2.83C12.624 2.023 13.584 1.5 14.679 1.5C16.554 1.5 18.035 3.036 18.105 4.899C19.529 5.342 20.54 6.709 20.54 8.288C20.54 8.704 20.47 9.105 20.341 9.479C21.2 10.126 21.749 11.171 21.749 12.338C21.749 13.322 21.359 14.219 20.722 14.864C20.977 15.36 21.121 15.924 21.121 16.522C21.121 18.364 19.743 19.92 17.941 20.052C17.499 21.459 16.222 22.501 14.678 22.501C13.583 22.501 12.623 21.977 11.999 21.171C11.375 21.978 10.415 22.501 9.31999 22.501C7.77599 22.501 6.49899 21.459 6.05699 20.052C4.25499 19.92 2.87699 18.364 2.87699 16.522C2.87699 15.925 3.02099 15.36 3.27599 14.864C2.63999 14.219 2.24899 13.323 2.24899 12.338C2.24899 11.171 2.79899 10.126 3.65699 9.479C3.52799 9.106 3.45799 8.705 3.45799 8.288C3.45799 6.71 4.46899 5.342 5.89299 4.899C5.96399 3.036 7.44399 1.5 9.31899 1.5H9.32099ZM7.39199 5.039C7.39199 5.158 7.40199 5.274 7.41999 5.388L7.54999 6.191L6.73899 6.256C5.76899 6.333 4.95899 7.191 4.95899 8.289C4.95899 8.696 5.07099 9.072 5.26199 9.387L5.70199 10.113L4.92699 10.46C4.24499 10.766 3.74899 11.483 3.74899 12.338C3.74899 13.084 4.12599 13.726 4.67499 14.08L5.38199 14.536L4.84799 15.186C4.55599 15.542 4.37699 16.007 4.37699 16.521C4.37699 17.676 5.26899 18.56 6.30599 18.56C6.39099 18.56 6.47399 18.554 6.55399 18.543L7.31899 18.435L7.40499 19.203C7.51999 20.239 8.35699 21.001 9.32099 21.001C10.356 21.001 11.246 20.121 11.25 18.97L11.247 18.838V5.163L11.25 5.032C11.246 3.881 10.356 3.001 9.32099 3.001C8.28399 3.001 7.39199 3.884 7.39199 5.039ZM16.608 5.039C16.608 3.884 15.716 3 14.679 3C13.644 3 12.754 3.88 12.75 5.031L12.753 5.162V18.837L12.75 18.969C12.754 20.12 13.644 21 14.679 21C15.643 21 16.479 20.239 16.595 19.202L16.68 18.434L17.445 18.542C17.525 18.553 17.607 18.559 17.693 18.559C18.73 18.559 19.622 17.675 19.622 16.52C19.622 16.005 19.443 15.541 19.151 15.185L18.617 14.535L19.324 14.079C19.873 13.725 20.25 13.083 20.25 12.337C20.25 11.481 19.754 10.764 19.072 10.459L18.297 10.112L18.737 9.386C18.928 9.071 19.04 8.695 19.04 8.288C19.04 7.19 18.23 6.332 17.26 6.255L16.449 6.19L16.579 5.387C16.597 5.274 16.607 5.157 16.607 5.038L16.608 5.039Z" fill="#202022"/>
</g>
</svg>
