<svg width="24" height="24" viewBox="0 0 24 24" fill="none" xmlns="http://www.w3.org/2000/svg">
<g id="Type=Filled">
<path id="Vector" d="M4.20001 3.99999V22.3H19.8V4.79999H6.60001C6.10001 4.79999 5.80001 4.39999 5.80001 3.99999C5.80001 3.59999 6.10001 3.19999 6.50001 3.29999H19.7V1.79999H6.40001C5.20001 1.79999 4.20001 2.79999 4.20001 3.99999ZM16.2 11.4L15.5 12.1L13.4 9.99999L14.1 9.29999C14.5 8.89999 15.3 8.89999 15.7 9.29999L16.2 9.79999C16.6 10.2 16.6 11 16.2 11.4ZM12.3 11.1L14.4 13.2L10.1 17.5L7.50001 18L8.00001 15.4L12.3 11.1Z" fill="#202022"/>
</g>
</svg>
