<svg width="24" height="24" viewBox="0 0 24 24" fill="none" xmlns="http://www.w3.org/2000/svg">
<g id="Type=Outline">
<path id="Vector" d="M16.171 11.416C16.61 10.977 16.61 10.265 16.171 9.82501L15.674 9.32901C15.235 8.89001 14.523 8.89001 14.084 9.32901L13.386 10.027L15.473 12.114L16.171 11.416Z" fill="#202022"/>
<path id="Vector_2" d="M12.325 11.088L14.412 13.175L10.088 17.5L7.5 18.001L8.001 15.413L12.325 11.088Z" fill="#202022"/>
<path id="Vector_3" d="M4.25 4V22.25H19.75V4.75H6.5C6.086 4.75 5.75 4.414 5.75 4C5.75 3.586 6.086 3.25 6.5 3.25H19.766V1.75H6.5C5.257 1.75 4.25 2.757 4.25 4ZM5.75 20.75V6.122C5.985 6.205 6.237 6.25 6.5 6.25H18.25V20.75H5.75Z" fill="#202022"/>
</g>
</svg>
