<svg width="24" height="24" viewBox="0 0 24 24" fill="none" xmlns="http://www.w3.org/2000/svg">
<g id="Type=Filled">
<path id="Vector" d="M4.5 2C2.981 2 1.75 3.231 1.75 4.75V6.5H22.25V4.75C22.25 3.231 21.019 2 19.5 2H4.5Z" fill="#202022"/>
<path id="Vector_2" d="M1.75 14.25V8H22.25V14H22.243C22.114 11.769 20.263 10 18 10C15.737 10 13.887 11.769 13.757 14H12.25V17H4.5C2.981 17 1.75 15.769 1.75 14.25Z" fill="#202022"/>
<path id="Vector_3" d="M18 11.5C19.519 11.5 20.75 12.731 20.75 14.25V15.5H22.25V22H13.75V15.5H15.25V14.25C15.25 12.731 16.481 11.5 18 11.5ZM16.775 14C16.759 14.081 16.75 14.164 16.75 14.25V15.5H19.25V14.25C19.25 14.164 19.241 14.081 19.225 14C19.109 13.429 18.605 13 18 13C17.395 13 16.891 13.429 16.775 14Z" fill="#202022"/>
</g>
</svg>
