<svg width="24" height="24" viewBox="0 0 24 24" fill="none" xmlns="http://www.w3.org/2000/svg">
<g id="Type=Filled">
<g id="Shape">
<path d="M23 18.0557C22.9999 19.4056 21.8683 20.5 20.4727 20.5H8.52734C7.13174 20.5 6.00006 19.4056 6 18.0557V13.25H23V18.0557Z" fill="#202022"/>
<path d="M15.4727 3.5C16.8683 3.5 17.9999 4.59436 18 5.94434V7H8.52734C6.35068 7 4.50006 8.71935 4.5 10.9443V15.5H3.52734C2.13174 15.5 1.00006 14.4056 1 13.0557V5.94434C1.00006 4.59436 2.13174 3.5 3.52734 3.5H15.4727Z" fill="#202022"/>
<path d="M20.4727 8.5C21.8683 8.5 22.9999 9.59436 23 10.9443V11.75H6V10.9443C6.00006 9.59436 7.13174 8.5 8.52734 8.5H20.4727Z" fill="#202022"/>
</g>
</g>
</svg>
