<svg width="24" height="24" viewBox="0 0 24 24" fill="none" xmlns="http://www.w3.org/2000/svg">
<g id="Type=Outline">
<g id="Shape">
<path fill-rule="evenodd" clip-rule="evenodd" d="M20.8154 8.06592C22.1598 8.06592 23.25 9.15611 23.25 10.5005V18.5005C23.2498 19.8447 22.1597 20.9341 20.8154 20.9341H8.18457C6.84031 20.9341 5.75019 19.8447 5.75 18.5005V10.5005C5.75 9.15611 6.84019 8.06592 8.18457 8.06592H20.8154ZM7.25 13.4399V18.5005C7.25019 19.0163 7.66874 19.4341 8.18457 19.4341H20.8154C21.3313 19.4341 21.7498 19.0163 21.75 18.5005V13.4399H7.25ZM8.18457 9.56592C7.66862 9.56592 7.25 9.98454 7.25 10.5005V11.9399H21.75V10.5005C21.75 9.98454 21.3314 9.56592 20.8154 9.56592H8.18457Z" fill="#202022"/>
<path d="M15.8154 3.06592C17.1598 3.06592 18.25 4.15611 18.25 5.50049V6.56592H16.75V5.50049C16.75 4.98454 16.3314 4.56592 15.8154 4.56592H3.18457C2.66862 4.56592 2.25 4.98454 2.25 5.50049V13.5005C2.25019 14.0163 2.66874 14.4341 3.18457 14.4341H4.25V15.9341H3.18457C1.84031 15.9341 0.750195 14.8447 0.75 13.5005V5.50049C0.75 4.15611 1.84019 3.06592 3.18457 3.06592H15.8154Z" fill="#202022"/>
</g>
</g>
</svg>
