<svg width="24" height="24" viewBox="0 0 24 24" fill="none" xmlns="http://www.w3.org/2000/svg">
<g id="Type=Outline">
<g id="Shape">
<path fill-rule="evenodd" clip-rule="evenodd" d="M4.18615 4.35986C4.18615 3.39336 4.96965 2.60986 5.93615 2.60986H14.9361C15.9026 2.60986 16.6861 3.39337 16.6861 4.35986V9.85986C16.6861 10.8264 15.9026 11.6099 14.9361 11.6099H5.93615C4.96965 11.6099 4.18615 10.8264 4.18615 9.85986V4.35986ZM5.93615 4.10986C5.79808 4.10986 5.68615 4.22179 5.68615 4.35986V5.60986H15.1861V4.35986C15.1861 4.22179 15.0742 4.10986 14.9361 4.10986H5.93615ZM15.1861 7.10986H5.68615V9.85986C5.68615 9.99793 5.79808 10.1099 5.93615 10.1099H14.9361C15.0742 10.1099 15.1861 9.99793 15.1861 9.85986V7.10986Z" fill="#202022"/>
<path d="M20.0303 11.3903L13 18.4206L10.5 15.9206L5.03033 21.3902L3.96967 20.3296L10.5 13.7993L13 16.2993L18.9697 10.3296L20.0303 11.3903Z" fill="#202022"/>
</g>
</g>
</svg>
