<svg width="24" height="24" viewBox="0 0 24 24" fill="none" xmlns="http://www.w3.org/2000/svg">
<g id="Type=Outline">
<path id="Vector" d="M4.5 2.75C2.981 2.75 1.75 3.981 1.75 5.5V15C1.75 16.519 2.981 17.75 4.5 17.75H12.25V16.25H4.5C3.81 16.25 3.25 15.69 3.25 15V8.851H20.75V10.26C21.608 10.989 22.173 12.053 22.243 13.251H22.25V5.501C22.25 3.982 21.019 2.751 19.5 2.751L4.5 2.75ZM3.25 5.5C3.25 4.81 3.81 4.25 4.5 4.25H19.5C20.19 4.25 20.75 4.81 20.75 5.5V7.351H3.25V5.5Z" fill="#202022"/>
<path id="Vector_2" d="M18 10.75C19.519 10.75 20.75 11.981 20.75 13.5V14.75H22.25V21.25H13.75V14.75H15.25V13.5C15.25 11.981 16.481 10.75 18 10.75ZM16.75 13.5V14.75H19.25V13.5C19.25 12.81 18.69 12.25 18 12.25C17.31 12.25 16.75 12.81 16.75 13.5Z" fill="#202022"/>
</g>
</svg>
