<svg width="24" height="24" viewBox="0 0 24 24" fill="none" xmlns="http://www.w3.org/2000/svg">
<g id="Type=Outline">
<path id="Vector" d="M23 4.75H1V3.25H23V4.75Z" fill="#202022"/>
<path id="Vector_2" d="M23 20.75H1V19.25H23V20.75Z" fill="#202022"/>
<path id="Vector_3" d="M18.13 16.25L15.815 7.75H17.37L18.907 13.396L20.445 7.75H22L19.685 16.25H18.13Z" fill="#202022"/>
<path id="Vector_4" d="M4.95398 7.5C3.29698 7.5 1.95398 8.843 1.95398 10.5V13.5C1.95398 15.157 3.29698 16.5 4.95398 16.5C6.61098 16.5 7.95398 15.157 7.95398 13.5H6.45398C6.45398 14.328 5.78198 15 4.95398 15C4.12598 15 3.45398 14.328 3.45398 13.5V10.5C3.45398 9.672 4.12598 9 4.95398 9C5.78198 9 6.45398 9.672 6.45398 10.5H7.95398C7.95398 8.843 6.61098 7.5 4.95398 7.5Z" fill="#202022"/>
<path id="Vector_5" d="M11.629 7.75C10.26 7.75 9.21198 8.904 9.21198 10.25C9.21198 11.596 10.26 12.75 11.629 12.75H12.82C13.292 12.75 13.737 13.163 13.737 13.75C13.737 14.337 13.293 14.75 12.82 14.75H9.48698V16.25H12.82C14.189 16.25 15.237 15.096 15.237 13.75C15.237 12.404 14.189 11.25 12.82 11.25H11.629C11.157 11.25 10.712 10.837 10.712 10.25C10.712 9.663 11.156 9.25 11.629 9.25H14.486V7.75H11.629Z" fill="#202022"/>
</g>
</svg>
