<svg width="24" height="24" viewBox="0 0 24 24" fill="none" xmlns="http://www.w3.org/2000/svg">
<g id="Type=Filled">
<path id="Vector" d="M22.5 4.5H1.5V19.5H22.5V4.5ZM3 11.063C3 9.613 4.175 8.438 5.625 8.438C7.012 8.438 8.147 9.513 8.243 10.876H6.734C6.645 10.344 6.182 9.938 5.625 9.938C5.004 9.938 4.5 10.442 4.5 11.063V12.944C4.5 13.565 5.004 14.069 5.625 14.069C6.184 14.069 6.648 13.661 6.735 13.126H8.243C8.15 14.491 7.013 15.569 5.624 15.569C4.174 15.569 2.999 14.394 2.999 12.944L3 11.063ZM11.437 8.625H13.875V10.125H11.437C11.127 10.125 10.875 10.377 10.875 10.687C10.875 10.997 11.127 11.249 11.437 11.249L12.562 11.25C13.701 11.25 14.624 12.173 14.624 13.312C14.624 14.451 13.701 15.374 12.562 15.374H9.374V13.874H12.562C12.873 13.874 13.124 13.622 13.124 13.312C13.124 13.002 12.872 12.75 12.562 12.75L11.437 12.749C10.298 12.749 9.375 11.826 9.375 10.687C9.375 9.548 10.298 8.625 11.437 8.625ZM17.623 15.375L15.375 8.625H16.956L18.334 12.764L19.712 8.625H21.293L19.045 15.375H17.623Z" fill="#202022"/>
</g>
</svg>
