<svg width="24" height="24" viewBox="0 0 24 24" fill="none" xmlns="http://www.w3.org/2000/svg">
<g id="Cup">
<path id="Vector" d="M1.37499 2.75H18.125C20.748 2.75 22.875 4.877 22.875 7.5C22.875 10.123 20.748 12.25 18.125 12.25H17.564C16.585 15.713 13.401 18.25 9.62399 18.25C5.06799 18.25 1.37399 14.556 1.37399 10V2.75H1.37499ZM16.375 10V4.25H2.87499V10C2.87499 13.728 5.89699 16.75 9.62499 16.75C13.353 16.75 16.375 13.728 16.375 10ZM17.875 4.25V10.75H18.125C19.92 10.75 21.375 9.295 21.375 7.5C21.375 5.705 19.92 4.25 18.125 4.25H17.875Z" fill="#202022"/>
<path id="Vector_2" d="M1.125 21.25V19.75H18.125V21.25H1.125Z" fill="#202022"/>
</g>
</svg>
