<svg width="24" height="24" viewBox="0 0 24 24" fill="none" xmlns="http://www.w3.org/2000/svg">
<g id="Type=Outline">
<g id="Shape">
<path fill-rule="evenodd" clip-rule="evenodd" d="M22.1198 17.198C22.9991 18.5805 22.8007 20.3889 21.6422 21.5476C20.2768 22.9128 18.0624 22.9126 16.6969 21.5476C15.5383 20.3889 15.3398 18.5805 16.2194 17.198L19.1696 12.5613L22.1198 17.198ZM17.484 18.0027C16.9819 18.792 17.0961 19.8245 17.7575 20.4861C18.5372 21.2658 19.802 21.2658 20.5817 20.4861C21.2429 19.8244 21.3563 18.792 20.8541 18.0027L19.1696 15.3552L17.484 18.0027Z" fill="#202022"/>
<path fill-rule="evenodd" clip-rule="evenodd" d="M16.4928 11.2214C17.176 11.9048 17.176 13.0127 16.4928 13.696L10.4069 19.782C9.7662 20.4226 8.75239 20.4626 8.06507 19.9021L7.93226 19.782L1.84632 13.696C1.163 13.0126 1.163 11.9048 1.84632 11.2214L8.10901 4.95874L5.63929 2.48901L6.69983 1.42847L16.4928 11.2214ZM3.48011 13.2087L8.9928 18.7214L9.03187 18.7537C9.12886 18.8176 9.26094 18.8067 9.34632 18.7214L14.859 13.2087H3.48011ZM3.48011 11.7087H14.859L9.16956 6.01929L3.48011 11.7087Z" fill="#202022"/>
</g>
</g>
</svg>
