<svg width="24" height="24" viewBox="0 0 24 24" fill="none" xmlns="http://www.w3.org/2000/svg">
<g id="Type=Filled">
<g id="Shape">
<path d="M22.1198 17.198C22.9991 18.5805 22.8007 20.3889 21.6422 21.5476C20.2768 22.9128 18.0624 22.9126 16.6969 21.5476C15.5383 20.3889 15.3398 18.5805 16.2194 17.198L19.1696 12.5613L22.1198 17.198Z" fill="#202022"/>
<path fill-rule="evenodd" clip-rule="evenodd" d="M16.4928 11.2214C17.176 11.9048 17.176 13.0127 16.4928 13.696L10.4069 19.782C9.7662 20.4226 8.75239 20.4626 8.06507 19.9021L7.93226 19.782L1.84632 13.696C1.163 13.0126 1.163 11.9048 1.84632 11.2214L8.10901 4.95874L5.63929 2.48901L6.69983 1.42847L16.4928 11.2214ZM9.16956 6.01929L3.48011 11.7087H14.859L9.16956 6.01929Z" fill="#202022"/>
</g>
</g>
</svg>
