<svg width="24" height="24" viewBox="0 0 24 24" fill="none" xmlns="http://www.w3.org/2000/svg">
<g id="Currency Coversion Dollar">
<path id="Vector" d="M12 3.25C7.168 3.25 3.25 7.168 3.25 12C3.25 14.253 4.101 16.306 5.5 17.858V15.5H7V20.25H2.25V18.75H4.286C2.707 16.947 1.75 14.585 1.75 12C1.75 6.339 6.339 1.75 12 1.75C13.389 1.75 14.715 2.027 15.925 2.528L15.35 3.914C14.319 3.486 13.188 3.25 12 3.25Z" fill="#202022"/>
<path id="Vector_2" d="M19.714 5.25H21.75V3.75H17V8.5H18.5V6.142C19.899 7.693 20.75 9.747 20.75 12C20.75 16.833 16.832 20.75 12 20.75C10.806 20.75 9.66998 20.511 8.63498 20.08L8.05798 21.464C9.27298 21.971 10.605 22.25 12.001 22.25C17.662 22.25 22.251 17.661 22.251 12C22.251 9.415 21.292 7.053 19.714 5.25Z" fill="#202022"/>
<path id="Vector_3" d="M12.75 6V7.75H14.5V9.25H11.25C10.698 9.25 10.25 9.698 10.25 10.25C10.25 10.802 10.698 11.25 11.25 11.25H12.75C14.131 11.25 15.25 12.369 15.25 13.75C15.25 15.131 14.131 16.25 12.75 16.25V18H11.25V16.25H9.5V14.75H12.75C13.302 14.75 13.75 14.302 13.75 13.75C13.75 13.198 13.302 12.75 12.75 12.75H11.25C9.869 12.75 8.75 11.631 8.75 10.25C8.75 8.869 9.869 7.75 11.25 7.75V6H12.75Z" fill="#202022"/>
</g>
</svg>
