<svg width="24" height="24" viewBox="0 0 24 24" fill="none" xmlns="http://www.w3.org/2000/svg">
<g id="Currency Coversion Rupee">
<path id="Vector" d="M12 3.25C7.168 3.25 3.25 7.168 3.25 12C3.25 14.253 4.101 16.306 5.5 17.858V15.5H7V20.25H2.25V18.75H4.286C2.707 16.947 1.75 14.585 1.75 12C1.75 6.339 6.339 1.75 12 1.75C13.389 1.75 14.715 2.027 15.925 2.528L15.35 3.914C14.319 3.486 13.188 3.25 12 3.25Z" fill="#202022"/>
<path id="Vector_2" d="M19.714 5.25H21.75V3.75H17V8.5H18.5V6.142C19.899 7.693 20.75 9.747 20.75 12C20.75 16.833 16.832 20.75 12 20.75C10.806 20.75 9.66998 20.511 8.63498 20.08L8.05798 21.464C9.27298 21.971 10.605 22.25 12.001 22.25C17.662 22.25 22.251 17.661 22.251 12C22.251 9.415 21.292 7.053 19.714 5.25Z" fill="#202022"/>
<path id="Vector_3" d="M8.25 8.50399H10.754C11.733 8.50399 12.566 9.12999 12.875 10.004H8.251V11.504H12.874C12.565 12.376 11.733 13 10.755 13H8.252V14.371L12.796 17.846L13.707 16.654L10.887 14.497C12.64 14.436 14.088 13.171 14.428 11.503H15.752V10.003H14.429C14.317 9.44899 14.082 8.93899 13.755 8.50299H15.752V7.00299H8.252V8.50299L8.25 8.50399Z" fill="#202022"/>
</g>
</svg>
