<svg width="24" height="24" viewBox="0 0 24 24" fill="none" xmlns="http://www.w3.org/2000/svg">
<g id="Currency Coversion Yen">
<path id="Vector" d="M12 3.25C7.168 3.25 3.25 7.168 3.25 12C3.25 14.253 4.101 16.306 5.5 17.858V15.5H7V20.25H2.25V18.75H4.286C2.707 16.947 1.75 14.585 1.75 12C1.75 6.339 6.339 1.75 12 1.75C13.389 1.75 14.715 2.027 15.925 2.528L15.35 3.914C14.319 3.486 13.188 3.25 12 3.25Z" fill="#202022"/>
<path id="Vector_2" d="M19.714 5.25H21.75V3.75H17V8.5H18.5V6.142C19.899 7.693 20.75 9.747 20.75 12C20.75 16.833 16.832 20.75 12 20.75C10.806 20.75 9.66998 20.511 8.63498 20.08L8.05798 21.464C9.27298 21.971 10.605 22.25 12.001 22.25C17.662 22.25 22.251 17.661 22.251 12C22.251 9.415 21.292 7.053 19.714 5.25Z" fill="#202022"/>
<path id="Vector_3" d="M7.46997 8.02999L8.53097 6.96899L11.751 10.189L14.971 6.96899L16.032 8.02999L13.062 11H14.751V12.5H12.501V14H14.751V15.5H12.501V17.5H11.001V15.5H8.75097V14H11.001V12.5H8.75097V11H10.44L7.46997 8.02999Z" fill="#202022"/>
</g>
</svg>
