<svg width="24" height="24" viewBox="0 0 24 24" fill="none" xmlns="http://www.w3.org/2000/svg">
<g id="Currency Coversion Euro">
<path id="Vector" d="M12 3.25C7.168 3.25 3.25 7.168 3.25 12C3.25 14.253 4.101 16.306 5.5 17.858V15.5H7V20.25H2.25V18.75H4.286C2.707 16.947 1.75 14.585 1.75 12C1.75 6.339 6.339 1.75 12 1.75C13.389 1.75 14.715 2.027 15.925 2.528L15.35 3.914C14.319 3.486 13.188 3.25 12 3.25Z" fill="#202022"/>
<path id="Vector_2" d="M19.714 5.25H21.75V3.75H17V8.5H18.5V6.142C19.899 7.693 20.75 9.747 20.75 12C20.75 16.833 16.832 20.75 12 20.75C10.806 20.75 9.66998 20.511 8.63498 20.08L8.05798 21.464C9.27298 21.971 10.605 22.25 12.001 22.25C17.662 22.25 22.251 17.661 22.251 12C22.251 9.415 21.292 7.053 19.714 5.25Z" fill="#202022"/>
<path id="Vector_3" d="M12.496 6.5C10.648 6.5 9.13502 7.934 9.00802 9.75H7.74902V11.25H8.99902V12.75H7.74902V14.25H9.00802C9.13402 16.066 10.648 17.5 12.496 17.5C14.344 17.5 15.857 16.065 15.984 14.25H14.478C14.357 15.236 13.516 16 12.497 16C11.478 16 10.637 15.236 10.516 14.25H12.751V12.75H10.501V11.25H12.751V9.75H10.516C10.637 8.764 11.478 8 12.497 8C13.516 8 14.357 8.764 14.478 9.75H15.984C15.858 7.935 14.345 6.5 12.496 6.5Z" fill="#202022"/>
</g>
</svg>
