<svg width="24" height="24" viewBox="0 0 24 24" fill="none" xmlns="http://www.w3.org/2000/svg">
<g id="Type=Filled">
<path id="Vector" d="M21.75 5.75V7H20.25V5.75C20.25 4.507 19.243 3.5 18 3.5H17V2H18C20.071 2 21.75 3.679 21.75 5.75Z" fill="#202022"/>
<path id="Vector_2" d="M21.75 15H20.25V9H21.75V15Z" fill="#202022"/>
<path id="Vector_3" d="M3.75 9V15H2.25V9H3.75Z" fill="#202022"/>
<path id="Vector_4" d="M18 21.5H17V20H18C19.243 20 20.25 18.993 20.25 17.75V17H21.75V17.75C21.75 19.821 20.071 21.5 18 21.5Z" fill="#202022"/>
<path id="Vector_5" d="M2.25 17V17.75C2.25 19.821 3.929 21.5 6 21.5H7V20H6C4.757 20 3.75 18.993 3.75 17.75V17H2.25Z" fill="#202022"/>
<path id="Vector_6" d="M15 2V3.5H9V2H15Z" fill="#202022"/>
<path id="Vector_7" d="M15 20V21.5H9V20H15Z" fill="#202022"/>
<path id="Vector_8" d="M7 3.5H6C4.757 3.5 3.75 4.507 3.75 5.75V7H2.25V5.75C2.25 3.679 3.929 2 6 2H7V3.5Z" fill="#202022"/>
<path id="Vector_9" d="M17.546 8.83697L12 6.16797L6.45398 8.83697L12 11.358L17.546 8.83697Z" fill="#202022"/>
<path id="Vector_10" d="M6.25 10.392V15.065L11.25 17.471V12.664L6.25 10.391V10.392Z" fill="#202022"/>
<path id="Vector_11" d="M17.75 15.065L12.75 17.471V12.664L17.75 10.391V15.065Z" fill="#202022"/>
</g>
</svg>
