<svg width="24" height="24" viewBox="0 0 24 24" fill="none" xmlns="http://www.w3.org/2000/svg">
<g id="Type=Outline">
<path id="Vector" d="M17 10.47H11.5V10.97C11.5 11.66 10.94 12.22 10.25 12.22C9.56 12.22 9 11.66 9 10.97V10.47H7V8.96997H9V8.46997C9 7.77997 9.56 7.21997 10.25 7.21997C10.94 7.21997 11.5 7.77997 11.5 8.46997V8.96997H17V10.47Z" fill="#202022"/>
<path id="Vector_2" d="M15 15.97H17V14.47H15V13.97C15 13.28 14.44 12.72 13.75 12.72C13.06 12.72 12.5 13.28 12.5 13.97V14.47H7V15.97H12.5V16.47C12.5 17.16 13.06 17.72 13.75 17.72C14.44 17.72 15 17.16 15 16.47V15.97Z" fill="#202022"/>
<path id="Vector_3" d="M12 1.00696L12.59 1.75596C13.254 2.59996 14.701 3.46796 16.634 3.91896C18.312 4.30996 19.887 4.27696 20.999 3.94896L21.819 3.70796L21.952 4.55196C23.764 16.07 16.942 21.767 12.181 22.947L12.001 22.992L11.821 22.947C7.06 21.767 0.239004 16.07 2.05 4.55196L2.183 3.70796L3.003 3.94896C4.115 4.27596 5.69 4.30996 7.368 3.91896C9.301 3.46796 10.748 2.59996 11.412 1.75596L12.001 1.00696H12ZM12 3.30996C10.982 4.23096 9.451 4.97396 7.707 5.37996C6.188 5.73396 4.686 5.79296 3.419 5.57996C2.18 15.585 8.049 20.367 12 21.445C15.951 20.367 21.82 15.585 20.581 5.57996C19.314 5.79296 17.811 5.73396 16.293 5.37996C14.549 4.97296 13.018 4.22996 12 3.30996Z" fill="#202022"/>
</g>
</svg>
