<svg width="24" height="24" viewBox="0 0 24 24" fill="none" xmlns="http://www.w3.org/2000/svg">
<g id="Type=Outline">
<path id="Vector" d="M14.75 2H8.75V3.5H14.75V2ZM6 8.69V14.82L11.75 17.59L17.5 14.82V8.69L11.75 5.92L6 8.69ZM11 15.56L7.5 13.88V10.9L11 12.49V15.56ZM16 13.87L12.5 15.55V12.48L16 10.89V13.87ZM11.75 11.18L7.91 9.43L11.75 7.58L15.59 9.43L11.75 11.18ZM20 6.75H21.5C21.5 4.13 19.37 2 16.75 2V3.5C18.54 3.5 20 4.96 20 6.75ZM8.75 21.5H14.75V20H8.75V21.5ZM16.75 20V21.5C19.37 21.5 21.5 19.37 21.5 16.75H20C20 18.54 18.54 20 16.75 20ZM20 14.75H21.5V8.75H20V14.75ZM3.5 8.75H2V14.75H3.5V8.75ZM3.5 16.75H2C2 19.37 4.13 21.5 6.75 21.5V20C4.96 20 3.5 18.54 3.5 16.75ZM6.75 3.5V2C4.13 2 2 4.13 2 6.75H3.5C3.5 4.96 4.96 3.5 6.75 3.5Z" fill="#202022"/>
</g>
</svg>
