<svg width="24" height="24" viewBox="0 0 24 24" fill="none" xmlns="http://www.w3.org/2000/svg">
<g id="Type=Filled">
<path id="Vector" d="M12 0.800049C16.1 0.800049 19.4 4.10005 19.5 8.10005V8.30005C19.5 12.4 16.1 15.8 12 15.8C7.9 15.8 4.5 12.4 4.5 8.30005C4.5 4.20005 7.9 0.800049 12 0.800049ZM14 5.80005C14 4.70005 13.1 3.80005 12 3.80005C10.9 3.80005 10 4.70005 10 5.80005C10 6.90005 10.9 7.80005 12 7.80005C13.1 7.80005 14 6.90005 14 5.80005ZM11.2 8.90005C9.7 8.90005 8.5 10.1 8.5 11.6V12.3H15.5V11.6C15.5 10.1 14.3 8.90005 12.8 8.90005H11.2Z" fill="#202022"/>
<path id="Vector_2" d="M11.8 17.3L13.9 23L15.7 20.7L18.6 21.3L16.6 16C15.2 16.8 13.7 17.3 12 17.3C11.9 17.3 11.9 17.3 11.8 17.3Z" fill="#202022"/>
<path id="Vector_3" d="M7.39999 16.1L5.39999 21.5L8.29999 20.9L10.1 23.2L11.2 20.2L10.1 17.2C9.19999 16.9 8.19999 16.6 7.39999 16.1Z" fill="#202022"/>
</g>
</svg>
