<svg width="24" height="24" viewBox="0 0 24 24" fill="none" xmlns="http://www.w3.org/2000/svg">
<g id="Type=Outline">
<path id="Vector" d="M14 6.09998C14 7.19998 13.1 8.09998 12 8.09998C10.9 8.09998 10 7.19998 10 6.09998C10 4.99998 10.9 4.09998 12 4.09998C13.1 4.09998 14 4.99998 14 6.09998Z" fill="#202022"/>
<path id="Vector_2" d="M11.2 9.19995C9.7 9.19995 8.5 10.4 8.5 11.9V12.6H15.5V11.9C15.5 10.4 14.3 9.19995 12.8 9.19995H11.2Z" fill="#202022"/>
<path id="Vector_3" d="M12 0.400024C7.39999 0.400024 3.79999 4.10002 3.79999 8.70002C3.79999 11.4 5.09999 13.7 6.99999 15.3L4.69999 21.6L8.39999 20.8L10.8 23.8L12 20.5L13.2 23.8L15.6 20.8L19.3 21.6L17 15.2C19 13.7 20.2 11.3 20.2 8.60003C20.2 4.10003 16.6 0.400024 12 0.400024ZM5.19999 8.60003C5.19999 4.90003 8.19999 1.80002 12 1.80002C15.7 1.80002 18.8 4.80002 18.8 8.60003C18.8 12.3 15.8 15.3 12 15.3C8.29999 15.4 5.19999 12.3 5.19999 8.60003ZM6.99999 19.4L8.29999 16C9.09999 16.4 9.89999 16.6 10.7 16.8L11.2 18.2L10.3 20.7L8.99999 19L6.99999 19.4ZM15.7 16L17 19.4L15 19L13.7 20.7L12.3 16.9C13.5 16.8 14.7 16.5 15.7 16Z" fill="#202022"/>
</g>
</svg>
