<svg width="24" height="24" viewBox="0 0 24 24" fill="none" xmlns="http://www.w3.org/2000/svg">
<g id="Type=Filled">
<path id="Vector" d="M12 1L12.6 1.7C13.3 2.5 14.7 3.4 16.6 3.9C18.3 4.3 19.9 4.3 21 3.9L21.8 3.7L22 4.6C23.8 16.1 17 21.8 12.2 23H11.8C7.10001 21.8 0.200005 16.1 2.00001 4.6L2.10001 3.8L3.00001 3.9C4.10001 4.2 5.70001 4.3 7.40001 3.9C9.30001 3.4 10.8 2.6 11.4 1.7L12 1ZM9.00001 8.5V9H7.00001V10.5H9.00001V11C9.00001 11.7 9.60001 12.2 10.3 12.2C10.9 12.2 11.5 11.7 11.5 11V10.5H17V9H11.4V8.5C11.4 7.9 10.9 7.3 10.2 7.3C9.60001 7.3 9.00001 7.8 9.00001 8.5ZM7.00001 16H12.5V16.5C12.5 17.2 13.1 17.7 13.7 17.7C14.3 17.7 14.9 17.1 14.9 16.5V16H16.9V14.5H14.9V14C14.9 13.3 14.3 12.8 13.7 12.8C13.1 12.8 12.5 13.4 12.5 14V14.5H7.00001V16Z" fill="#202022"/>
</g>
</svg>
