<svg width="24" height="24" viewBox="0 0 24 24" fill="none" xmlns="http://www.w3.org/2000/svg">
<g id="Type=Outline">
<path id="Vector" d="M12 2.5C10.681 2.5 9.552 3.32 9.098 4.482L8.852 5.113L8.199 4.932C7.934 4.858 7.654 4.819 7.364 4.819C5.644 4.819 4.25 6.213 4.25 7.933C4.25 8.782 4.589 9.55 5.14 10.112L5.655 10.637L5.14 11.162C4.589 11.724 4.25 12.493 4.25 13.342C4.25 15.062 5.644 16.456 7.364 16.456C8.066 16.456 8.711 16.225 9.232 15.834L10.133 17.033C9.362 17.612 8.402 17.956 7.364 17.956C4.816 17.956 2.75 15.89 2.75 13.342C2.75 12.332 3.075 11.397 3.626 10.637C3.076 9.877 2.75 8.942 2.75 7.932C2.75 5.384 4.816 3.318 7.364 3.318C7.571 3.318 7.775 3.332 7.975 3.358C8.765 1.951 10.271 1 12.001 1C13.731 1 15.237 1.952 16.027 3.358C16.227 3.331 16.431 3.318 16.638 3.318C19.186 3.318 21.252 5.384 21.252 7.932C21.252 8.942 20.927 9.877 20.376 10.637C20.926 11.397 21.252 12.332 21.252 13.342C21.252 15.89 19.186 17.956 16.638 17.956C15.6 17.956 14.64 17.613 13.869 17.033L14.77 15.834C15.29 16.225 15.936 16.456 16.638 16.456C18.358 16.456 19.752 15.062 19.752 13.342C19.752 12.493 19.413 11.725 18.862 11.162L18.347 10.637L18.862 10.112C19.413 9.55 19.752 8.781 19.752 7.933C19.752 6.213 18.358 4.819 16.638 4.819C16.347 4.819 16.068 4.859 15.802 4.932L15.149 5.113L14.903 4.482C14.45 3.321 13.32 2.501 12.001 2.501L12 2.5Z" fill="#202022"/>
<path id="Vector_2" d="M9.00001 21.5C10.243 21.5 11.25 20.493 11.25 19.25V13.061L8.47001 10.281L9.53101 9.21998L11.251 10.94V7.75098H12.751V12.94L15.471 10.22L16.532 11.281L12.752 15.061V19.25C12.752 20.493 13.759 21.5 15.002 21.5H16.002V23H15.002C13.775 23 12.686 22.411 12.002 21.5C11.318 22.411 10.229 23 9.00201 23H8.00201V21.5H9.00201H9.00001Z" fill="#202022"/>
</g>
</svg>
