<svg width="24" height="24" viewBox="0 0 24 24" fill="none" xmlns="http://www.w3.org/2000/svg">
<g id="Type=Filled">
<path id="Vector" d="M12.094 13.436L15.874 9.65602L14.813 8.59502L12.093 11.315V6.12602H10.593V9.31502L8.87299 7.59502L7.81199 8.65602L10.592 11.436V16.192C9.85799 17.086 8.74499 17.656 7.49799 17.656C5.28899 17.656 3.49799 15.865 3.49799 13.656C3.49799 12.462 4.02199 11.389 4.85199 10.656C4.02199 9.92302 3.49799 8.85002 3.49799 7.65602C3.49799 5.44702 5.28899 3.65602 7.49799 3.65602C7.82699 3.65602 8.14699 3.69502 8.45299 3.77002C9.12199 2.49502 10.458 1.62402 11.998 1.62402C13.538 1.62402 14.874 2.49402 15.543 3.77002C15.849 3.69502 16.169 3.65602 16.498 3.65602C18.707 3.65602 20.498 5.44702 20.498 7.65602C20.498 8.85002 19.974 9.92302 19.143 10.656C19.973 11.389 20.498 12.462 20.498 13.656C20.498 15.865 18.707 17.656 16.498 17.656C15.353 17.656 14.321 17.175 13.592 16.404V18.624C13.592 19.867 14.599 20.874 15.842 20.874H16.842V22.374H15.842C14.615 22.374 13.526 21.785 12.842 20.874C12.158 21.785 11.069 22.374 9.84199 22.374H8.84199V20.874H9.84199C11.085 20.874 12.092 19.867 12.092 18.624V13.435L12.094 13.436Z" fill="#202022"/>
</g>
</svg>
