<svg width="24" height="24" viewBox="0 0 24 24" fill="none" xmlns="http://www.w3.org/2000/svg">
<g id="Cut">
<path id="Vector" d="M3.30898 14.505C3.29798 14.51 3.36498 14.478 3.30898 14.505L8.95298 12L3.30898 9.49499C3.25098 9.47099 3.36498 9.52199 3.30898 9.49499C2.22198 8.96899 1.47198 7.85599 1.47198 6.56799C1.47198 4.77299 2.92698 3.31799 4.72198 3.31799C6.51698 3.31799 7.97198 4.77299 7.97198 6.56799C7.97198 7.69999 7.39398 8.69599 6.51598 9.27799L10.801 11.179L21.918 6.24599L22.526 7.61699L12.65 11.999L22.526 16.381L21.918 17.752L10.801 12.819L6.51598 14.72C7.39298 15.302 7.97198 16.299 7.97198 17.43C7.97198 19.225 6.51698 20.68 4.72198 20.68C2.92698 20.68 1.47198 19.225 1.47198 17.43C1.47198 16.142 2.22198 15.028 3.30898 14.503V14.505ZM3.96098 15.857C3.37598 16.14 2.97298 16.739 2.97298 17.433C2.97298 18.399 3.75598 19.183 4.72298 19.183C5.68998 19.183 6.47298 18.4 6.47298 17.433C6.47298 16.467 5.68998 15.683 4.72298 15.683C4.49098 15.683 4.26998 15.728 4.06798 15.81L3.96098 15.857ZM3.96098 8.14399L4.06798 8.19199C4.26998 8.27399 4.49098 8.31899 4.72298 8.31899C5.68898 8.31899 6.47298 7.53599 6.47298 6.56899C6.47298 5.60199 5.68998 4.81899 4.72298 4.81899C3.75698 4.81899 2.97298 5.60199 2.97298 6.56899C2.97298 7.26199 3.37598 7.86099 3.96098 8.14499V8.14399Z" fill="#202022"/>
</g>
</svg>
