<svg width="24" height="24" viewBox="0 0 24 24" fill="none" xmlns="http://www.w3.org/2000/svg">
<g id="Czech Koruna">
<path id="Vector" d="M5.99998 11.018L11.311 4.5H13.246L7.62498 11.399L13.69 19.5H11.816L6.64898 12.597L6.00098 13.392V19.5H4.50098V4.5H6.00098L5.99998 11.018Z" fill="#202022"/>
<path id="Vector_2" d="M14.25 13.8C14.25 11.632 15.863 9.75 18 9.75C19.781 9.75 21.2 11.059 21.621 12.75H20.053C19.69 11.841 18.874 11.25 18 11.25C16.823 11.25 15.75 12.322 15.75 13.8V15.45C15.75 16.927 16.823 18 18 18C18.874 18 19.69 17.409 20.053 16.5H21.621C21.199 18.191 19.781 19.5 18 19.5C15.863 19.5 14.25 17.618 14.25 15.45V13.8Z" fill="#202022"/>
<path id="Vector_3" d="M17.992 8.194L20.406 5.78L19.345 4.72L18.009 6.056L16.723 4.729L15.646 5.773L17.993 8.196L17.992 8.194Z" fill="#202022"/>
</g>
</svg>
