<svg width="24" height="24" viewBox="0 0 24 24" fill="none" xmlns="http://www.w3.org/2000/svg">
<g id="Dashlane">
<path id="Vector" d="M11.289 1.95099L9.021 1.10799C8.652 0.97699 8.207 1.15099 8.207 1.42299V7.76499C8.207 7.89799 8.317 8.01999 8.495 8.08499L10.767 8.92799C11.134 9.05899 11.577 8.88299 11.577 8.60799V2.26999C11.577 2.13699 11.467 2.01599 11.289 1.95099ZM11.289 15.932L9.021 15.089C8.652 14.958 8.207 15.132 8.207 15.407V21.73C8.207 21.863 8.317 21.985 8.495 22.05L10.767 22.893C11.134 23.024 11.577 22.85 11.577 22.573V16.25C11.577 16.117 11.467 15.995 11.289 15.93V15.932ZM7.086 2.18899L4.814 1.34399C4.447 1.21299 4 1.38899 4 1.66399V21.492C4 21.625 4.11 21.747 4.288 21.812L6.56 22.657C6.927 22.788 7.374 22.612 7.374 22.337V2.50899C7.374 2.37599 7.264 2.25599 7.086 2.18899ZM15.5 14.872L13.228 14.029C12.861 13.898 12.414 14.074 12.414 14.349V20.174C12.414 20.307 12.524 20.429 12.702 20.492L14.974 21.337C15.341 21.468 15.788 21.294 15.788 21.017V15.192C15.788 15.059 15.678 14.937 15.5 14.872ZM19.71 7.77199H19.708L17.436 6.92899C17.069 6.79799 16.626 6.97399 16.626 7.24899V16.818C16.626 16.951 16.736 17.073 16.914 17.138L19.186 17.981C19.553 18.112 20 17.938 20 17.663V8.09399C20 7.96099 19.89 7.83899 19.712 7.77399L19.71 7.77199ZM15.5 4.41599L13.228 3.57299C12.861 3.44199 12.414 3.61599 12.414 3.88799V9.71299C12.414 9.84599 12.524 9.96799 12.702 10.033L14.974 10.876C15.341 11.007 15.788 10.831 15.788 10.556V4.73099C15.788 4.59799 15.678 4.47799 15.5 4.41599Z" fill="#202022"/>
</g>
</svg>
