<svg width="24" height="24" viewBox="0 0 24 24" fill="none" xmlns="http://www.w3.org/2000/svg">
<g id="Type=Outline">
<g id="Shape">
<path d="M7.28027 14.2803L5.06055 16.5H13.25V18H5.06055L7.28027 20.2197L6.21973 21.2803L2.18945 17.25L6.21973 13.2197L7.28027 14.2803Z" fill="#202022"/>
<path fill-rule="evenodd" clip-rule="evenodd" d="M21 20.5H14.5V14H21V20.5ZM16 19H19.5V15.5H16V19Z" fill="#202022"/>
<path d="M21.8105 6.75L17.7803 10.7803L16.7197 9.71973L18.9395 7.5H11.25V6H18.9395L16.7197 3.78027L17.7803 2.71973L21.8105 6.75Z" fill="#202022"/>
<path fill-rule="evenodd" clip-rule="evenodd" d="M6.25 3C8.32107 3 10 4.67893 10 6.75C10 8.82107 8.32107 10.5 6.25 10.5C4.17893 10.5 2.5 8.82107 2.5 6.75C2.5 4.67893 4.17893 3 6.25 3ZM6.25 4.5C5.00736 4.5 4 5.50736 4 6.75C4 7.99264 5.00736 9 6.25 9C7.49264 9 8.5 7.99264 8.5 6.75C8.5 5.50736 7.49264 4.5 6.25 4.5Z" fill="#202022"/>
</g>
</g>
</svg>
