<svg width="24" height="24" viewBox="0 0 24 24" fill="none" xmlns="http://www.w3.org/2000/svg">
<g id="Type=Filled">
<path id="Vector" d="M22.03 3.02999L19.685 5.37499C20.842 7.03199 20.68 9.32999 19.202 10.809L16.904 13.107L15.489 11.692L13.191 13.99L12.13 12.929L14.428 10.631L13.368 9.57099L11.07 11.869L10.009 10.808L12.307 8.50999L10.893 7.09599L13.191 4.79799C14.67 3.31899 16.967 3.15799 18.624 4.31399L20.969 1.96899L22.03 3.02999Z" fill="#202022"/>
<path id="Vector_2" d="M3.02999 22.03L5.32099 19.739C6.98199 20.937 9.31299 20.788 10.808 19.293L13.106 16.995L7.09599 10.985L4.79799 13.283C3.33499 14.746 3.16199 17.009 4.27699 18.662L1.96899 20.97L3.02999 22.03Z" fill="#202022"/>
</g>
</svg>
