<svg width="24" height="24" viewBox="0 0 24 24" fill="none" xmlns="http://www.w3.org/2000/svg">
<g id="Type=Outline">
<path id="Vector" d="M19.685 5.37499L22.03 3.02999L20.969 1.96899L18.624 4.31399C16.967 3.15799 14.67 3.31899 13.191 4.79799L10.893 7.09599L12.307 8.50999L10.009 10.808L11.07 11.869L13.368 9.57099L14.428 10.631L12.13 12.929L13.191 13.99L15.489 11.692L16.904 13.106L19.202 10.808C20.681 9.32899 20.842 7.03199 19.686 5.37399L19.685 5.37499ZM18.141 5.85899C19.215 6.93299 19.215 8.67399 18.141 9.74799L16.904 10.985L13.015 7.09599L14.252 5.85899C15.326 4.78499 17.067 4.78499 18.141 5.85899Z" fill="#202022"/>
<path id="Vector_2" d="M4.27699 18.662C3.16199 17.009 3.33499 14.745 4.79799 13.283L7.09599 10.985L13.106 16.995L10.808 19.293C9.31299 20.788 6.98199 20.936 5.32099 19.739L3.02999 22.03L1.96899 20.969L4.27699 18.661V18.662ZM5.85899 14.343C4.78499 15.417 4.78499 17.158 5.85899 18.232C6.93299 19.306 8.67399 19.306 9.74799 18.232L10.985 16.995L7.09599 13.106L5.85899 14.343Z" fill="#202022"/>
</g>
</svg>
