<svg width="24" height="24" viewBox="0 0 24 24" fill="none" xmlns="http://www.w3.org/2000/svg">
<g id="Decimal Increase">
<path id="Vector" d="M6.25 4.75C6.25 2.817 7.817 1.25 9.75 1.25C11.683 1.25 13.25 2.817 13.25 4.75V9.25C13.25 11.183 11.683 12.75 9.75 12.75C7.817 12.75 6.25 11.183 6.25 9.25V4.75ZM9.75 2.75C8.645 2.75 7.75 3.645 7.75 4.75V9.25C7.75 10.355 8.645 11.25 9.75 11.25C10.855 11.25 11.75 10.355 11.75 9.25V4.75C11.75 3.645 10.855 2.75 9.75 2.75Z" fill="#202022"/>
<path id="Vector_2" d="M14.75 4.75C14.75 2.817 16.317 1.25 18.25 1.25C20.183 1.25 21.75 2.817 21.75 4.75V9.25C21.75 11.183 20.183 12.75 18.25 12.75C16.317 12.75 14.75 11.183 14.75 9.25V4.75ZM18.25 2.75C17.145 2.75 16.25 3.645 16.25 4.75V9.25C16.25 10.355 17.145 11.25 18.25 11.25C19.355 11.25 20.25 10.355 20.25 9.25V4.75C20.25 3.645 19.355 2.75 18.25 2.75Z" fill="#202022"/>
<path id="Vector_3" d="M2.25 10.25V12.75H4.75V10.25H2.25Z" fill="#202022"/>
<path id="Vector_4" d="M19.189 19.25H11V17.75H19.189L16.969 15.53L18.03 14.469L22.06 18.499L18.03 22.529L16.969 21.468L19.189 19.248V19.25Z" fill="#202022"/>
</g>
</svg>
