<svg width="24" height="24" viewBox="0 0 24 24" fill="none" xmlns="http://www.w3.org/2000/svg">
<g id="Decimal Decrease">
<path id="Vector" d="M9.75 1.25C7.817 1.25 6.25 2.817 6.25 4.75V9.25C6.25 11.183 7.817 12.75 9.75 12.75C11.683 12.75 13.25 11.183 13.25 9.25V4.75C13.25 2.817 11.683 1.25 9.75 1.25ZM7.75 4.75C7.75 3.645 8.645 2.75 9.75 2.75C10.855 2.75 11.75 3.645 11.75 4.75V9.25C11.75 10.355 10.855 11.25 9.75 11.25C8.645 11.25 7.75 10.355 7.75 9.25V4.75Z" fill="#202022"/>
<path id="Vector_2" d="M2.25 10.25V12.75H4.75V10.25H2.25Z" fill="#202022"/>
<path id="Vector_3" d="M12.811 19.25H21V17.75H12.811L15.031 15.53L13.97 14.469L9.94 18.499L13.97 22.529L15.031 21.468L12.811 19.248V19.25Z" fill="#202022"/>
</g>
</svg>
