<svg width="24" height="24" viewBox="0 0 24 24" fill="none" xmlns="http://www.w3.org/2000/svg">
<g id="Type=Outline">
<path id="Vector" d="M0.25 3.875H16.25V7.375H19.811L23.75 11.314V18.375H20.885C20.567 19.389 19.619 20.125 18.5 20.125C17.381 20.125 16.433 19.389 16.115 18.375H7.886C7.567 19.389 6.62 20.125 5.5 20.125C4.38 20.125 3.433 19.389 3.114 18.375H0.25V3.875ZM14.75 16.875V5.375H1.75V16.875H3.114C3.433 15.861 4.38 15.125 5.5 15.125C6.62 15.125 7.567 15.861 7.886 16.875H14.75ZM20.886 16.875H22.251V13.375H17.751V8.875H16.251V16.534C16.656 15.7 17.511 15.125 18.501 15.125C19.62 15.125 20.568 15.861 20.886 16.875ZM19.25 8.936V11.875H22.189L19.25 8.936Z" fill="#202022"/>
</g>
</svg>
