<svg width="24" height="24" viewBox="0 0 24 24" fill="none" xmlns="http://www.w3.org/2000/svg">
<g id="Type=Filled">
<path id="Vector" d="M14.75 3.65698H0.25V18.157H2.001C2 18.13 2 18.103 2 18.076C2 16.143 3.567 14.576 5.5 14.576C7.433 14.576 9 16.143 9 18.076C9 18.103 9 18.13 8.999 18.157H14.75V3.65698Z" fill="#202022"/>
<path id="Vector_2" d="M3.5 18.076C3.5 17.938 3.514 17.803 3.541 17.673L3.5 18.076Z" fill="#202022"/>
<path id="Vector_3" d="M3.5 18.076C3.5 18.103 3.501 18.13 3.502 18.157C3.544 19.224 4.423 20.076 5.5 20.076C6.577 20.076 7.456 19.224 7.498 18.157C7.499 18.13 7.5 18.103 7.5 18.076C7.5 18.067 7.5 18.059 7.5 18.05C7.498 17.921 7.485 17.795 7.46 17.673C7.274 16.762 6.467 16.076 5.501 16.076C4.535 16.076 3.728 16.762 3.542 17.673L3.5 18.076Z" fill="#202022"/>
<path id="Vector_4" d="M19.811 7.15698L23.75 11.096V18.157H21.995C21.898 16.311 20.37 14.844 18.5 14.844C17.643 14.844 16.858 15.152 16.25 15.663V7.15698H19.811ZM17.781 8.79198V11.125H21.656L19.323 8.79198H17.781Z" fill="#202022"/>
<path id="Vector_5" d="M20.491 18.157C20.397 17.14 19.541 16.344 18.5 16.344C17.459 16.344 16.603 17.14 16.509 18.157C16.503 18.218 16.5 18.281 16.5 18.344C16.5 19.449 17.395 20.344 18.5 20.344C19.605 20.344 20.5 19.449 20.5 18.344C20.5 18.281 20.497 18.219 20.491 18.157Z" fill="#202022"/>
</g>
</svg>
