<svg width="24" height="24" viewBox="0 0 24 24" fill="none" xmlns="http://www.w3.org/2000/svg">
<g id="Type=Filled">
<path id="Vector" d="M7.383 2.38298C7.996 2.27498 8.625 2.45898 9.084 2.87998L16.234 9.45298L19.934 8.80098C20.718 8.66298 21.524 8.84198 22.176 9.29798L22.246 9.34698C22.925 9.82198 23.089 10.758 22.614 11.436L22.565 11.506C22.109 12.158 21.412 12.601 20.628 12.74L5.931 15.332C5.136 15.472 4.334 15.121 3.899 14.441L1.114 10.089L3.084 9.74198C3.704 9.63298 4.339 9.82198 4.799 10.252L5.894 11.278L10.818 10.41L5.403 2.73398L7.384 2.38498L7.383 2.38298Z" fill="#202022"/>
<path id="Vector_2" d="M1.938 21.6479H21.938V20.1479H1.938V21.6479Z" fill="#202022"/>
</g>
</svg>
