<svg width="24" height="24" viewBox="0 0 24 24" fill="none" xmlns="http://www.w3.org/2000/svg">
<g id="Type=Outline">
<path id="Vector" d="M7.497 3.57594L4.352 4.13094L9.767 11.8069L6.376 12.4049L5.555 11.6359C4.923 11.0439 4.05 10.7839 3.197 10.9349L0.118999 11.4779L3.511 16.7769C4.109 17.7119 5.211 18.1959 6.305 18.0029L21.002 15.4109C21.981 15.2379 22.852 14.6839 23.423 13.8689L23.472 13.7989C24.185 12.7809 23.937 11.3779 22.92 10.6649L22.85 10.6159C22.035 10.0459 21.027 9.82194 20.048 9.99494L16.713 10.5829L9.836 4.26094C9.205 3.68094 8.341 3.42694 7.497 3.57594ZM12.355 12.8739L6.94 5.19794L7.757 5.05394C8.14 4.98594 8.533 5.10094 8.82 5.36494L16.243 12.1889L20.308 11.4719C20.896 11.3679 21.5 11.5019 21.989 11.8449L22.059 11.8939C22.398 12.1319 22.481 12.5989 22.243 12.9379L22.194 13.0079C21.852 13.4969 21.329 13.8299 20.742 13.9329L6.045 16.5249C5.548 16.6129 5.047 16.3929 4.775 15.9679L2.596 12.5639L3.458 12.4119C3.845 12.3439 4.243 12.4619 4.53 12.7309L5.898 14.0129L12.355 12.8739Z" fill="#202022"/>
<path id="Vector_2" d="M1.98 22.119H21.98V20.619H1.98V22.119Z" fill="#202022"/>
</g>
</svg>
