<svg width="24" height="24" viewBox="0 0 24 24" fill="none" xmlns="http://www.w3.org/2000/svg">
<g id="Type=Filled">
<path id="Vector" d="M12 0.0849609L13.138 0.878961C18.203 4.41296 19.27 11.306 15.472 16.124L13.796 18.25H10.202L8.52602 16.124C4.72902 11.306 5.79502 4.41296 10.86 0.878961L11.998 0.0849609H12ZM12 10.5C12.966 10.5 13.75 9.71696 13.75 8.74996C13.75 7.78296 12.967 6.99996 12 6.99996C11.034 6.99996 10.25 7.78296 10.25 8.74996C10.25 9.71696 11.033 10.5 12 10.5Z" fill="#202022"/>
<path id="Vector_2" d="M7.25 22.5V18.25H8.75V22.5H7.25Z" fill="#202022"/>
<path id="Vector_3" d="M11.25 19.75V24H12.75V19.75H11.25Z" fill="#202022"/>
<path id="Vector_4" d="M15.25 22.5V18.25H16.75V22.5H15.25Z" fill="#202022"/>
<path id="Vector_5" d="M20.25 16.7499H16.882C18.013 15.2229 18.728 13.5269 19.051 11.7889L20.25 13.2279V16.7499Z" fill="#202022"/>
<path id="Vector_6" d="M3.75 13.229L4.949 11.79C5.272 13.527 5.987 15.223 7.118 16.751H3.75V13.229Z" fill="#202022"/>
</g>
</svg>
