<svg width="24" height="24" viewBox="0 0 24 24" fill="none" xmlns="http://www.w3.org/2000/svg">
<g id="Type=Outline">
<path id="Vector" d="M11.2 24H12.7V19.8H11.2V24ZM12 6.19998C10.6 6.19998 9.49999 7.29997 9.49999 8.69998C9.49999 10.1 10.6 11.2 12 11.2C13.4 11.2 14.5 10.1 14.5 8.69998C14.5 7.29997 13.4 6.19998 12 6.19998ZM12 9.79998C11.4 9.79998 11 9.39998 11 8.79998C11 8.19998 11.4 7.79998 12 7.79998C12.6 7.79998 13 8.19998 13 8.79998C13 9.39998 12.6 9.79998 12 9.79998ZM7.19999 22.5H8.69999V18.3H7.19999V22.5ZM17.7 10.2C17.9 6.69998 16.3 3.09998 13.1 0.899976L12 0.0999756L10.9 0.899976C7.69999 3.09998 6.09999 6.69998 6.29999 10.2L3.79999 13.2V16.7H9.09999L10.3 18.2H13.9L15.1 16.7H20.4V13.2L17.9 10.2H17.7ZM5.19999 15.2V13.7L6.49999 12.1C6.79999 13.2 7.19999 14.2 7.79999 15.2H5.19999ZM14.3 15.2L13.1 16.8H11L9.79999 15.2C6.49999 11.1 7.39999 5.19998 11.8 2.09998L12.1 1.89998L12.4 2.09998C16.8 5.09998 17.7 11.1 14.4 15.2H14.3ZM18.8 15.2H16.1C16.7 14.2 17.2 13.2 17.4 12.1L18.7 13.7V15.2H18.8ZM15.2 22.5H16.7V18.3H15.2V22.5Z" fill="#202022"/>
</g>
</svg>
