<svg width="24" height="24" viewBox="0 0 24 24" fill="none" xmlns="http://www.w3.org/2000/svg">
<g id="Type=Filled">
<path id="Vector" d="M5.75 1.25H8.75V4.25H11.75V1.25H14.75V8.75H5.75V1.25Z" fill="#202022"/>
<path id="Vector_2" d="M0.25 10.25H3.25V13.25H6.25V10.25H9.25V17.75H0.25V10.25Z" fill="#202022"/>
<path id="Vector_3" d="M19.75 10.25H10.75V17.75H14.341C14.811 15.19 17.054 13.25 19.75 13.25V10.25Z" fill="#202022"/>
<path id="Vector_4" d="M17.215 20.224L16.391 21.048L17.452 22.109L18.276 21.286C18.5 21.417 18.743 21.518 19 21.586V22.751H20.5V21.586C20.757 21.518 21 21.416 21.224 21.286L22.048 22.11L23.109 21.049L22.284 20.225C22.415 20.001 22.516 19.758 22.584 19.501H23.749V18.001H22.584C22.516 17.744 22.414 17.501 22.284 17.277L23.109 16.452L22.048 15.391L21.223 16.216C20.999 16.085 20.756 15.984 20.499 15.916V14.751H18.999V15.916C18.742 15.984 18.499 16.086 18.275 16.216L17.451 15.392L16.39 16.453L17.214 17.277C17.083 17.501 16.982 17.744 16.914 18.001H15.749V19.501H16.914C16.982 19.758 17.083 20.001 17.214 20.225L17.215 20.224ZM18.318 18.75C18.318 17.959 18.959 17.318 19.75 17.318C20.541 17.318 21.182 17.959 21.182 18.75C21.182 19.541 20.541 20.182 19.75 20.182C18.959 20.182 18.318 19.541 18.318 18.75Z" fill="#202022"/>
</g>
</svg>
