<svg width="24" height="24" viewBox="0 0 24 24" fill="none" xmlns="http://www.w3.org/2000/svg">
<g id="Type=Outline">
<path id="Vector" d="M4.875 1.85205H15.875V9.19305H20.625V12.6021H19.125V10.6931H11.125V17.3981H14.375V18.8981H0.125V9.19305H4.875V1.85205ZM6.375 3.35205V9.17905H14.375V3.35205H11.671V6.05705H9.08V3.35205H6.375ZM4.33 10.6931H1.625V17.3981H9.625V10.6931H6.921V13.3981H4.33V10.6931Z" fill="#202022"/>
<path id="Vector_2" d="M16.517 20.445L17.341 19.621C17.21 19.397 17.109 19.154 17.041 18.897H15.876V17.397H17.041C17.109 17.14 17.211 16.897 17.341 16.673L16.517 15.849L17.578 14.788L18.402 15.612C18.626 15.481 18.869 15.38 19.126 15.312V14.147H20.626V15.312C20.883 15.38 21.126 15.482 21.35 15.612L22.175 14.787L23.236 15.848L22.411 16.673C22.542 16.897 22.643 17.14 22.711 17.397H23.876V18.897H22.711C22.643 19.154 22.542 19.397 22.411 19.621L23.236 20.446L22.175 21.507L21.351 20.682C21.127 20.813 20.884 20.914 20.627 20.982V22.147H19.127V20.982C18.87 20.914 18.627 20.812 18.403 20.682L17.579 21.506L16.517 20.445ZM19.875 16.716C19.084 16.716 18.443 17.357 18.443 18.148C18.443 18.939 19.084 19.58 19.875 19.58C20.666 19.58 21.307 18.939 21.307 18.148C21.307 17.357 20.666 16.716 19.875 16.716Z" fill="#202022"/>
</g>
</svg>
