<svg width="24" height="24" viewBox="0 0 24 24" fill="none" xmlns="http://www.w3.org/2000/svg">
<g id="Direct Reports Outline">
<path id="Vector" d="M15.596 1.728C18.518 2.791 20.732 4.941 21.948 7.552L22.264 8.231L20.501 9.053C21.399 11.225 21.518 13.726 20.651 16.109C18.809 21.169 13.214 23.778 8.15401 21.936C3.09401 20.094 0.485009 14.499 2.32701 9.439C4.09201 4.59 9.30301 1.992 14.187 3.404L14.891 1.47L15.596 1.727V1.728ZM19.14 9.689L10.42 13.755L13.672 4.819C9.56801 3.688 5.21701 5.884 3.73601 9.954C2.17801 14.236 4.38501 18.97 8.66701 20.528C12.949 22.086 17.683 19.879 19.241 15.597C19.967 13.604 19.877 11.512 19.14 9.689ZM13.068 10.865L20.245 7.518C19.258 5.761 17.725 4.302 15.778 3.421L13.069 10.865H13.068Z" fill="#202022"/>
</g>
</svg>
