<svg width="24" height="24" viewBox="0 0 24 24" fill="none" xmlns="http://www.w3.org/2000/svg">
<g id="Type=Filled">
<path id="Vector" d="M2.71901 5.143L0.885008 9.37C0.668008 9.87 0.693008 10.441 0.952008 10.92C1.66001 12.229 3.56701 12.137 4.14601 10.767L5.30301 8.032L4.52701 15.016C4.28301 17.21 6.41301 18.907 8.49801 18.179L11.251 17.217V14.847C11.154 14.786 11.063 14.713 10.98 14.627L10.219 13.837C9.35301 12.937 9.99101 11.437 11.24 11.437H12.761C14.011 11.437 14.649 12.937 13.782 13.837L13.021 14.627C12.938 14.713 12.847 14.787 12.75 14.847V17.217L15.504 18.179C17.588 18.907 19.719 17.21 19.475 15.015L18.695 7.995L19.855 10.739C20.434 12.109 22.342 12.2 23.049 10.892C23.308 10.413 23.333 9.841 23.116 9.342L21.282 5.115C20.452 3.202 18.191 2.551 16.506 3.49C15.31 2.405 13.725 1.75 12.001 1.75C10.267 1.75 8.67501 2.412 7.47701 3.507C5.79401 2.583 3.54601 3.237 2.71901 5.143ZM10 8.781C10 9.333 9.55201 9.781 9.00001 9.781C8.44801 9.781 8.00001 9.333 8.00001 8.781C8.00001 8.229 8.44801 7.781 9.00001 7.781C9.55201 7.781 10 8.229 10 8.781ZM16 8.781C16 9.333 15.552 9.781 15 9.781C14.448 9.781 14 9.333 14 8.781C14 8.229 14.448 7.781 15 7.781C15.552 7.781 16 8.229 16 8.781Z" fill="#202022"/>
<path id="Vector_2" d="M10 20.25V19.243L12 18.545L14 19.244V20.25C14 21.355 13.105 22.25 12 22.25C10.895 22.25 10 21.355 10 20.25Z" fill="#202022"/>
</g>
</svg>
