<svg width="24" height="24" viewBox="0 0 24 24" fill="none" xmlns="http://www.w3.org/2000/svg">
<g id="Type=Outline">
<path id="Vector" d="M10 8.79999C10 9.39999 9.6 9.79999 9 9.79999C8.4 9.79999 8 9.39999 8 8.79999C8 8.19999 8.4 7.79999 9 7.79999C9.6 7.79999 10 8.19999 10 8.79999Z" fill="#202022"/>
<path id="Vector_2" d="M15 9.79999C15.6 9.79999 16 9.39999 16 8.79999C16 8.19999 15.6 7.79999 15 7.79999C14.4 7.79999 14 8.19999 14 8.79999C14 9.29999 14.4 9.79999 15 9.79999Z" fill="#202022"/>
<path id="Vector_3" d="M12 1.5C14.1 1.5 16 2.3 17.4 3.7C19.1 2.6 21.6 3.3 22.3 5.4L23.3 8.2C23.7 9.4 23.2 10.8 22 11.4C21.3 11.7 20.6 11.7 19.9 11.5L20.3 15.3C20.6 18.1 17.9 20.2 15.3 19.3L14.8 19.1V19.6C14.8 21.2 13.5 22.4 12 22.4C10.5 22.4 9.29998 21.1 9.29998 19.6V19.1L8.79998 19.3C6.19998 20.2 3.49998 18 3.79998 15.3L4.19998 11.5C3.49998 11.8 2.79998 11.8 2.09998 11.4C0.899981 10.8 0.399981 9.4 0.799981 8.2L1.79998 5.4C2.49998 3.4 4.99998 2.6 6.69998 3.7C7.99998 2.3 9.89998 1.5 12 1.5ZM18.3 4.9C18.9 5.8 19.3 6.9 19.4 8.1L19.5 9.2C19.6 10 20.5 10.4 21.2 10C21.7 9.7 21.9 9.1 21.8 8.6L20.8 5.8C20.4 4.8 19.2 4.4 18.3 4.9ZM18 8.8L17.9 8.3C17.6 5.3 15 3 12 3C8.99998 3 6.39998 5.3 6.09998 8.3L5.99998 9.4L5.29998 15.6C5.09998 17.2 6.69998 18.5 8.29998 18L11.3 17V15C11.2 14.9 11.1 14.8 11 14.7L10.2 13.9C9.29998 12.9 9.99998 11.4 11.3 11.4H12.9C14.2 11.4 14.9 13 14 13.9L13.2 14.7C13.1 14.8 13 14.9 12.9 15V17L15.9 18C17.5 18.5 19.1 17.3 18.9 15.6L18 9.5V9.4V8.8ZM3.19998 5.9L2.19998 8.7C2.09998 9.2 2.29998 9.8 2.79998 10.1C3.49998 10.4 4.39998 10 4.49998 9.2L4.59998 8.1C4.69998 6.9 5.09998 5.8 5.69998 4.9C4.79998 4.4 3.59998 4.8 3.19998 5.9ZM13.3 18.7L12 18.3L10.7 18.7V19.8C10.7 20.5 11.3 21 11.9 21C12.6 21 13.1 20.4 13.1 19.8V18.7H13.3Z" fill="#202022"/>
</g>
</svg>
