<svg width="24" height="24" viewBox="0 0 24 24" fill="none" xmlns="http://www.w3.org/2000/svg">
<g id="Dollar Mini">
<path id="Vector" d="M13.688 1.5V3.938H17.626V6.938H10.032C9.04798 6.938 8.25098 7.735 8.25098 8.719C8.25098 9.703 9.04798 10.5 10.032 10.5H14.345C16.986 10.5 19.126 12.641 19.126 15.281C19.126 17.921 16.985 20.062 14.345 20.062H13.689V22.5H10.689V20.062H6.75098V17.062H14.345C15.329 17.062 16.126 16.264 16.126 15.281C16.126 14.298 15.328 13.5 14.345 13.5H10.032C7.39098 13.5 5.25098 11.359 5.25098 8.719C5.25098 6.079 7.39198 3.938 10.032 3.938H10.688V1.5H13.688Z" fill="#202022"/>
</g>
</svg>
