<svg width="24" height="24" viewBox="0 0 24 24" fill="none" xmlns="http://www.w3.org/2000/svg">
<g id="Dollar Sign Graph">
<g id="Shape">
<path d="M11.25 3.23486V1.48486H9.75V3.23486C8.36928 3.23486 7.25 4.35415 7.25 5.73486C7.25 7.11557 8.36928 8.23486 9.75 8.23486H11.25C11.8023 8.23486 12.25 8.68258 12.25 9.23486C12.25 9.78715 11.8023 10.2349 11.25 10.2349H8V11.7349H9.75V13.4849H11.25V11.7349C12.6307 11.7349 13.75 10.6156 13.75 9.23486C13.75 7.85415 12.6307 6.73486 11.25 6.73486H9.75C9.19771 6.73486 8.75 6.28715 8.75 5.73486C8.75 5.18258 9.19771 4.73486 9.75 4.73486H13V3.23486H11.25Z" fill="#202022"/>
<path d="M13 19.5456L20.0303 12.5153L18.9697 11.4546L13 17.4243L10.5 14.9243L3.96967 21.4546L5.03033 22.5152L10.5 17.0456L13 19.5456Z" fill="#202022"/>
</g>
</g>
</svg>
