<svg width="24" height="24" viewBox="0 0 24 24" fill="none" xmlns="http://www.w3.org/2000/svg">
<g id="Type=Outline">
<path id="Vector" d="M2.375 11.88C2.375 7.05 6.295 3.13 11.125 3.13C15.955 3.13 19.875 7.05 19.875 11.88C19.875 12.22 19.855 12.55 19.815 12.88H21.325C21.355 12.55 21.375 12.22 21.375 11.88C21.375 6.22001 16.785 1.63 11.125 1.63C5.465 1.63 0.875 6.22001 0.875 11.88C0.875 17.54 5.465 22.13 11.125 22.13C11.985 22.13 12.825 22.02 13.625 21.82V20.26C12.835 20.5 11.995 20.62 11.125 20.62C6.295 20.62 2.375 16.7 2.375 11.87V11.88ZM12.125 11.13H10.125C9.435 11.13 8.875 10.57 8.875 9.88C8.875 9.19 9.435 8.63 10.125 8.63H14.125V7.13H11.875V5.38H10.375V7.13H10.125C8.605 7.13 7.375 8.36 7.375 9.88C7.375 11.4 8.605 12.63 10.125 12.63H12.125C12.815 12.63 13.375 13.19 13.375 13.88C13.375 14.57 12.815 15.13 12.125 15.13H8.125V16.63H10.375V18.38H11.875V16.63H12.125C13.645 16.63 14.875 15.4 14.875 13.88C14.875 12.36 13.645 11.13 12.125 11.13ZM23.125 19.13V17.63H21.965C21.895 17.37 21.795 17.13 21.665 16.91L22.485 16.09L21.425 15.03L20.605 15.85C20.385 15.72 20.135 15.62 19.885 15.55V14.39H18.385V15.55C18.125 15.62 17.885 15.72 17.665 15.85L16.845 15.03L15.785 16.09L16.605 16.91C16.475 17.13 16.375 17.38 16.305 17.63H15.145V19.13H16.305C16.375 19.39 16.475 19.63 16.605 19.85L15.785 20.67L16.845 21.73L17.665 20.91C17.885 21.04 18.135 21.14 18.385 21.21V22.37H19.885V21.21C20.145 21.14 20.385 21.04 20.605 20.91L21.425 21.73L22.485 20.67L21.665 19.85C21.795 19.63 21.895 19.38 21.965 19.13H23.125ZM19.125 19.81C18.335 19.81 17.695 19.17 17.695 18.38C17.695 17.59 18.335 16.95 19.125 16.95C19.915 16.95 20.555 17.59 20.555 18.38C20.555 19.17 19.915 19.81 19.125 19.81Z" fill="#202022"/>
</g>
</svg>
