<svg width="24" height="24" viewBox="0 0 24 24" fill="none" xmlns="http://www.w3.org/2000/svg">
<g id="Dollar">
<path id="Vector" d="M11.25 19.5V21.75H12.75V19.5H13.875C16.154 19.5 18 17.654 18 15.375C18 13.096 16.154 11.25 13.875 11.25H12.75V6H16.5V4.5H12.75V2.25H11.25V4.5H10.125C7.846 4.5 6 6.346 6 8.625C6 10.904 7.846 12.75 10.125 12.75H11.25V18H6.75V19.5H11.25ZM13.875 18H12.75V12.75H13.875C15.325 12.75 16.5 13.925 16.5 15.375C16.5 16.825 15.325 18 13.875 18ZM10.125 6H11.25V11.25H10.125C8.675 11.25 7.5 10.075 7.5 8.625C7.5 7.175 8.675 6 10.125 6Z" fill="#202022"/>
</g>
</svg>
