<svg width="24" height="24" viewBox="0 0 24 24" fill="none" xmlns="http://www.w3.org/2000/svg">
<g id="Type= Filled">
<path id="Vector" d="M19.03 14.83L17.97 15.89L20.19 18.11H3.81L6.03 15.89L4.97 14.83L0.940002 18.86L4.97 22.89L6.03 21.83L3.81 19.61H20.19L17.97 21.83L19.03 22.89L23.06 18.86L19.03 14.83ZM12 16.61C16.28 16.61 19.75 13.14 19.75 8.85999C19.75 4.57999 16.28 1.10999 12 1.10999C7.72 1.10999 4.25 4.57999 4.25 8.85999C4.25 13.14 7.72 16.61 12 16.61ZM11.25 5.19999V3.85999H12.75V5.18999H14V6.68999H11.46C11.07 6.68999 10.75 7.00999 10.75 7.39999C10.75 7.78999 11.07 8.10999 11.46 8.10999H12.54C13.76 8.10999 14.75 9.09999 14.75 10.32C14.75 11.47 13.87 12.41 12.75 12.52V13.86H11.25V12.53H10V11.03H12.54C12.93 11.03 13.25 10.71 13.25 10.32C13.25 9.92999 12.93 9.60999 12.54 9.60999H11.46C10.24 9.60999 9.25 8.61999 9.25 7.39999C9.25 6.24999 10.13 5.30999 11.25 5.19999Z" fill="#202022"/>
</g>
</svg>
