<svg width="24" height="24" viewBox="0 0 24 24" fill="none" xmlns="http://www.w3.org/2000/svg">
<g id="Type=Outline">
<path id="Vector" d="M11 7.25C9.481 7.25 8.25 8.481 8.25 10C8.25 11.519 9.481 12.75 11 12.75H13C13.69 12.75 14.25 13.31 14.25 14C14.25 14.69 13.69 15.25 13 15.25H9V16.75H11.25V18.5H12.75V16.75H13C14.519 16.75 15.75 15.519 15.75 14C15.75 12.481 14.519 11.25 13 11.25H11C10.31 11.25 9.75 10.69 9.75 10C9.75 9.31 10.31 8.75 11 8.75H15V7.25H12.75V5.5H11.25V7.25H11Z" fill="#202022"/>
<path id="Vector_2" d="M12 1.75C6.339 1.75 1.75 6.339 1.75 12C1.75 17.661 6.339 22.25 12 22.25C17.661 22.25 22.25 17.661 22.25 12C22.25 6.339 17.661 1.75 12 1.75ZM3.25 12C3.25 7.168 7.168 3.25 12 3.25C16.832 3.25 20.75 7.168 20.75 12C20.75 16.833 16.832 20.75 12 20.75C7.168 20.75 3.25 16.832 3.25 12Z" fill="#202022"/>
</g>
</svg>
