<svg width="24" height="24" viewBox="0 0 24 24" fill="none" xmlns="http://www.w3.org/2000/svg">
<g id="Type= Outline">
<path id="Vector" d="M11.46 9.60999H12.54C12.93 9.60999 13.25 9.92999 13.25 10.32C13.25 10.71 12.93 11.03 12.54 11.03H10V12.53H11.25V13.86H12.75V12.52C13.87 12.42 14.75 11.47 14.75 10.32C14.75 9.09999 13.76 8.10999 12.54 8.10999H11.46C11.07 8.10999 10.75 7.78999 10.75 7.39999C10.75 7.00999 11.07 6.68999 11.46 6.68999H14V5.18999H12.75V3.85999H11.25V5.19999C10.13 5.30999 9.25 6.24999 9.25 7.39999C9.25 8.61999 10.24 9.60999 11.46 9.60999ZM12 16.61C16.28 16.61 19.75 13.14 19.75 8.85999C19.75 4.57999 16.28 1.10999 12 1.10999C7.72 1.10999 4.25 4.57999 4.25 8.85999C4.25 13.14 7.72 16.61 12 16.61ZM12 2.60999C15.45 2.60999 18.25 5.40999 18.25 8.85999C18.25 12.31 15.45 15.11 12 15.11C8.55 15.11 5.75 12.31 5.75 8.85999C5.75 5.40999 8.55 2.60999 12 2.60999ZM19.03 14.83L17.97 15.89L20.19 18.11H3.81L6.03 15.89L4.97 14.83L0.940002 18.86L4.97 22.89L6.03 21.83L3.81 19.61H20.19L17.97 21.83L19.03 22.89L23.06 18.86L19.03 14.83Z" fill="#202022"/>
</g>
</svg>
