<svg width="24" height="24" viewBox="0 0 24 24" fill="none" xmlns="http://www.w3.org/2000/svg">
<g id="Type=Filled">
<path id="Vector" d="M23.875 19.38V17.88H22.715C22.645 17.62 22.545 17.38 22.415 17.16L23.235 16.34L22.175 15.28L21.355 16.1C21.135 15.97 20.885 15.87 20.635 15.8V14.64H19.135V15.8C18.875 15.87 18.635 15.97 18.415 16.1L17.595 15.28L16.535 16.34L17.355 17.16C17.225 17.38 17.125 17.63 17.055 17.88H15.895V19.38H17.055C17.125 19.64 17.225 19.88 17.355 20.1L16.535 20.92L17.595 21.98L18.415 21.16C18.635 21.29 18.885 21.39 19.135 21.46V22.62H20.635V21.46C20.895 21.39 21.135 21.29 21.355 21.16L22.175 21.98L23.235 20.92L22.415 20.1C22.545 19.88 22.645 19.63 22.715 19.38H23.875ZM19.875 20.06C19.085 20.06 18.445 19.42 18.445 18.63C18.445 17.84 19.085 17.2 19.875 17.2C20.665 17.2 21.305 17.84 21.305 18.63C21.305 19.42 20.665 20.06 19.875 20.06ZM19.875 13.15C20.085 13.15 20.295 13.16 20.505 13.19C20.585 12.68 20.625 12.16 20.625 11.63C20.625 5.97001 16.035 1.38 10.375 1.38C4.715 1.38 0.125 5.97001 0.125 11.63C0.125 17.29 4.715 21.88 10.375 21.88C11.975 21.88 13.485 21.51 14.835 20.86C14.535 20.18 14.375 19.44 14.375 18.65C14.375 15.61 16.835 13.15 19.875 13.15ZM11.375 16.38H11.125V18.13H9.625V16.38H7.375V14.88H11.375C12.065 14.88 12.625 14.32 12.625 13.63C12.625 12.94 12.065 12.38 11.375 12.38H9.375C7.855 12.38 6.625 11.15 6.625 9.63C6.625 8.11 7.855 6.88 9.375 6.88H9.625V5.13H11.125V6.88H13.375V8.38H9.375C8.685 8.38 8.125 8.94 8.125 9.63C8.125 10.32 8.685 10.88 9.375 10.88H11.375C12.895 10.88 14.125 12.11 14.125 13.63C14.125 15.15 12.895 16.38 11.375 16.38Z" fill="#202022"/>
</g>
</svg>
