<svg width="24" height="24" viewBox="0 0 24 24" fill="none" xmlns="http://www.w3.org/2000/svg">
<g id="Type=Filled">
<path id="Vector" d="M1.75 12C1.75 17.661 6.339 22.25 12 22.25C17.661 22.25 22.25 17.661 22.25 12C22.25 6.339 17.661 1.75 12 1.75C6.339 1.75 1.75 6.339 1.75 12ZM12.75 5.5V7.25H15V8.75H11C10.31 8.75 9.75 9.31 9.75 10C9.75 10.69 10.31 11.25 11 11.25H13C14.519 11.25 15.75 12.481 15.75 14C15.75 15.519 14.519 16.75 13 16.75H12.75V18.5H11.25V16.75H9V15.25H13C13.69 15.25 14.25 14.69 14.25 14C14.25 13.31 13.69 12.75 13 12.75H11C9.481 12.75 8.25 11.519 8.25 10C8.25 8.481 9.481 7.25 11 7.25H11.25V5.5H12.75Z" fill="#202022"/>
</g>
</svg>
