<svg width="24" height="24" viewBox="0 0 24 24" fill="none" xmlns="http://www.w3.org/2000/svg">
<g id="Type=Filled">
<path id="Vector" d="M14.248 8.69098C13.804 8.38898 13.297 8.17398 12.75 8.06998V1.77698C15.016 1.94098 17.079 2.84198 18.698 4.24098L14.248 8.69098Z" fill="#202022"/>
<path id="Vector_2" d="M19.759 5.302L15.309 9.752C15.745 10.393 16 11.167 16 12C16 12.851 15.734 13.64 15.281 14.288L19.544 18.939C21.224 17.113 22.25 14.677 22.25 12C22.25 9.44 21.311 7.098 19.759 5.302Z" fill="#202022"/>
<path id="Vector_3" d="M18.451 19.966L14.207 15.337C13.574 15.756 12.815 16.001 11.999 16.001C9.79002 16.001 7.99902 14.21 7.99902 12.001C7.99902 10.048 9.39802 8.42202 11.249 8.07102V1.77802C5.93802 2.16202 1.74902 6.59202 1.74902 12.001C1.74902 17.662 6.33802 22.251 11.999 22.251C14.444 22.251 16.688 21.395 18.45 19.967L18.451 19.966Z" fill="#202022"/>
</g>
</svg>
