<svg width="24" height="24" viewBox="0 0 24 24" fill="none" xmlns="http://www.w3.org/2000/svg">
<g id="Type=Outline">
<path id="Vector" d="M1.79999 12C1.79999 6.29999 6.29999 1.79999 12 1.79999C17.7 1.79999 22.2 6.39999 22.2 12C22.2 17.7 17.6 22.2 12 22.2C6.29999 22.2 1.79999 17.7 1.79999 12ZM11.2 3.29999C6.69999 3.69999 3.19999 7.39999 3.19999 12C3.19999 16.8 7.09999 20.8 12 20.8C14.1 20.8 16.1 20 17.6 18.7L14.4 15.5C13.7 16 12.9 16.3 12 16.3C9.69999 16.3 7.79999 14.4 7.79999 12.1C7.79999 9.99999 9.29999 8.29999 11.3 7.89999V3.29999H11.2ZM15.5 14.4L18.7 17.6C20 16.1 20.8 14.1 20.8 12C20.8 9.89999 20 7.89999 18.7 6.39999L15.5 9.59999C16 10.3 16.3 11.1 16.3 12C16.3 12.9 16 13.7 15.5 14.4ZM12.8 3.29999V7.79999C13.4 7.89999 14 8.19999 14.5 8.49999L17.7 5.29999C16.3 4.19999 14.7 3.49999 12.8 3.29999ZM12 9.19999C10.5 9.19999 9.19999 10.4 9.19999 12C9.19999 13.6 10.4 14.8 12 14.8C13.6 14.8 14.8 13.6 14.8 12C14.8 10.4 13.5 9.19999 12 9.19999Z" fill="#202022"/>
</g>
</svg>
