<svg width="24" height="24" viewBox="0 0 24 24" fill="none" xmlns="http://www.w3.org/2000/svg">
<g id="Drag">
<path id="Vector" d="M8.5 1.75C7.257 1.75 6.25 2.757 6.25 4C6.25 5.243 7.257 6.25 8.5 6.25C9.743 6.25 10.75 5.243 10.75 4C10.75 2.757 9.743 1.75 8.5 1.75Z" fill="#202022"/>
<path id="Vector_2" d="M15.5 1.75C14.257 1.75 13.25 2.757 13.25 4C13.25 5.243 14.257 6.25 15.5 6.25C16.743 6.25 17.75 5.243 17.75 4C17.75 2.757 16.743 1.75 15.5 1.75Z" fill="#202022"/>
<path id="Vector_3" d="M15.5 17.75C14.257 17.75 13.25 18.757 13.25 20C13.25 21.243 14.257 22.25 15.5 22.25C16.743 22.25 17.75 21.243 17.75 20C17.75 18.757 16.743 17.75 15.5 17.75Z" fill="#202022"/>
<path id="Vector_4" d="M15.5 9.75C14.257 9.75 13.25 10.757 13.25 12C13.25 13.243 14.257 14.25 15.5 14.25C16.743 14.25 17.75 13.243 17.75 12C17.75 10.757 16.743 9.75 15.5 9.75Z" fill="#202022"/>
<path id="Vector_5" d="M8.5 17.75C7.257 17.75 6.25 18.757 6.25 20C6.25 21.243 7.257 22.25 8.5 22.25C9.743 22.25 10.75 21.243 10.75 20C10.75 18.757 9.743 17.75 8.5 17.75Z" fill="#202022"/>
<path id="Vector_6" d="M8.5 9.75C7.257 9.75 6.25 10.757 6.25 12C6.25 13.243 7.257 14.25 8.5 14.25C9.743 14.25 10.75 13.243 10.75 12C10.75 10.757 9.743 9.75 8.5 9.75Z" fill="#202022"/>
</g>
</svg>
