<svg width="24" height="24" viewBox="0 0 24 24" fill="none" xmlns="http://www.w3.org/2000/svg">
<g id="Duo">
<path id="Vector" d="M19.793 7.98401C17.807 7.98401 16.182 9.67601 16.086 11.8H23.496C23.404 9.67301 21.779 7.98401 19.793 7.98401ZM0.5 16.016H4.211C6.197 16.016 7.819 14.327 7.914 12.2H0.5V16.016ZM4.211 7.98401H0.5V11.8H7.917C7.818 9.67301 6.197 7.98401 4.211 7.98401ZM12.188 16.016H15.711V7.98401H12.188V16.016ZM16.086 12.2C16.182 14.327 17.803 16.016 19.793 16.016C21.783 16.016 23.404 14.327 23.5 12.2H16.086ZM8.29 12C8.29 14.15 9.85 15.908 11.817 16.012V7.98401H8.29V12Z" fill="#202022"/>
</g>
</svg>
