<svg width="24" height="24" viewBox="0 0 24 24" fill="none" xmlns="http://www.w3.org/2000/svg">
<g id="E Attach">
<path id="Vector" d="M19.12 3.854C18.28 3.014 16.917 3.014 16.077 3.854L5.30499 14.626C3.89799 16.033 3.89799 18.314 5.30499 19.721C6.71199 21.128 8.99299 21.128 10.4 19.721L19.633 10.488L20.694 11.549L11.461 20.782C9.46799 22.775 6.23799 22.775 4.24499 20.782C2.25199 18.789 2.25199 15.559 4.24499 13.566L15.017 2.794C16.443 1.368 18.755 1.368 20.181 2.794C21.607 4.22 21.607 6.532 20.181 7.958L9.40899 18.73C8.54999 19.59 7.15599 19.59 6.29699 18.73C5.43799 17.87 5.43799 16.477 6.29699 15.618L15.53 6.385L16.591 7.446L7.35799 16.679C7.08399 16.953 7.08399 17.396 7.35799 17.67C7.63199 17.944 8.07499 17.944 8.34899 17.67L19.121 6.898C19.961 6.058 19.961 4.695 19.121 3.855L19.12 3.854Z" fill="#202022"/>
</g>
</svg>
