<svg width="24" height="24" viewBox="0 0 24 24" fill="none" xmlns="http://www.w3.org/2000/svg">
<g id="E Bold">
<path id="Vector" d="M12.154 2.25C14.777 2.25 16.904 4.377 16.904 7C16.904 8.48 16.228 9.801 15.167 10.672C17.269 11.528 18.75 13.591 18.75 16C18.75 19.176 16.176 21.75 13 21.75H5.25V2.25H12.154ZM12.154 10.25C13.949 10.25 15.404 8.795 15.404 7C15.404 5.205 13.949 3.75 12.154 3.75H6.75V10.25H12.154ZM6.75 11.75V20.25H13C15.347 20.25 17.25 18.347 17.25 16C17.25 13.653 15.347 11.75 13 11.75H6.75Z" fill="#202022"/>
</g>
</svg>
