<svg width="24" height="24" viewBox="0 0 24 24" fill="none" xmlns="http://www.w3.org/2000/svg">
<g id="E Font Color">
<path id="Vector" d="M13.675 15.827C13.675 14.308 14.906 13.077 16.425 13.077C17.944 13.077 19.175 14.308 19.175 15.827C19.175 17.346 17.944 18.577 16.425 18.577C14.906 18.577 13.675 17.346 13.675 15.827ZM16.425 14.577C15.735 14.577 15.175 15.137 15.175 15.827C15.175 16.517 15.735 17.077 16.425 17.077C17.115 17.077 17.675 16.517 17.675 15.827C17.675 15.137 17.115 14.577 16.425 14.577Z" fill="#202022"/>
<path id="Vector_2" d="M9.12801 7.74899C9.95601 7.74899 10.628 7.07699 10.628 6.24899C10.628 5.42099 9.95601 4.74899 9.12801 4.74899C8.30001 4.74899 7.62801 5.42099 7.62801 6.24899C7.62801 7.07699 8.30001 7.74899 9.12801 7.74899Z" fill="#202022"/>
<path id="Vector_3" d="M8.065 9.811C8.065 10.639 7.393 11.311 6.565 11.311C5.737 11.311 5.065 10.639 5.065 9.811C5.065 8.983 5.737 8.311 6.565 8.311C7.393 8.311 8.065 8.983 8.065 9.811Z" fill="#202022"/>
<path id="Vector_4" d="M6.565 15.827C7.393 15.827 8.065 15.155 8.065 14.327C8.065 13.499 7.393 12.827 6.565 12.827C5.737 12.827 5.065 13.499 5.065 14.327C5.065 15.155 5.737 15.827 6.565 15.827Z" fill="#202022"/>
<path id="Vector_5" d="M9.978 0.932C11.503 0.552999 13.42 0.653 14.439 2.418C14.816 3.071 14.798 3.784 14.654 4.385C14.51 4.986 14.223 5.552 13.947 6.003C13.58 6.604 13.481 7.265 13.692 7.79C13.969 8.478 14.799 8.93 15.817 8.989C18.03 9.118 20.141 10.324 21.334 12.39C23.218 15.653 22.1 19.827 18.836 21.711L18.818 21.721C13.376 24.863 6.417 22.998 3.275 17.556C0.133001 12.114 1.998 5.155 7.44 2.013C8.248 1.547 9.09 1.191 9.948 0.94L9.963 0.936L9.978 0.932ZM10.355 2.384C9.616 2.601 8.889 2.909 8.191 3.312C3.466 6.04 1.847 12.082 4.575 16.806C7.303 21.53 13.345 23.149 18.069 20.422L18.087 20.412C20.633 18.942 21.505 15.686 20.036 13.14C19.106 11.529 17.461 10.588 15.73 10.487C14.436 10.411 12.889 9.811 12.301 8.35C11.864 7.265 12.13 6.101 12.667 5.221C12.902 4.837 13.102 4.422 13.195 4.035C13.288 3.648 13.256 3.37 13.14 3.169C12.63 2.285 11.633 2.071 10.354 2.385L10.355 2.384Z" fill="#202022"/>
</g>
</svg>
