<svg width="24" height="24" viewBox="0 0 24 24" fill="none" xmlns="http://www.w3.org/2000/svg">
<g id="E Link">
<path id="Vector" d="M12.97 2.97001C15.196 0.744007 18.805 0.744007 21.031 2.97001C21.627 3.56501 22.063 4.26001 22.339 5.00001C23.097 7.02701 22.66 9.40001 21.03 11.03L18.03 14.03C16.877 15.183 15.353 15.739 13.843 15.697C12.437 15.658 11.043 15.103 9.96999 14.03C9.29799 13.358 8.82899 12.561 8.56299 11.713C9.00199 11.436 9.50399 11.298 10.006 11.299C10.204 11.91 10.546 12.484 11.031 12.969C11.837 13.775 12.89 14.185 13.946 14.199C13.949 14.199 13.952 14.199 13.955 14.199C13.986 14.199 14.017 14.199 14.048 14.199C14.097 14.198 14.146 14.197 14.195 14.195C14.709 14.171 15.219 14.054 15.697 13.842C16.159 13.638 16.591 13.347 16.969 12.969L19.969 9.96901C21.609 8.32901 21.609 5.67001 19.969 4.03001C18.329 2.39001 15.67 2.39001 14.03 4.03001L11.166 6.89401C10.534 6.79101 9.89199 6.77201 9.25599 6.83801C9.46099 6.53101 9.69899 6.24001 9.96899 5.97001L12.969 2.97001H12.97Z" fill="#202022"/>
<path id="Vector_2" d="M8.5 8.5C7.573 8.752 6.697 9.242 5.969 9.97L2.969 12.97C0.743 15.196 0.743 18.805 2.969 21.031C5.195 23.257 8.804 23.257 11.03 21.031L14.03 18.031C14.301 17.76 14.539 17.469 14.744 17.162C14.108 17.228 13.466 17.209 12.834 17.106L9.97 19.97C8.33 21.61 5.671 21.61 4.031 19.97C2.391 18.33 2.391 15.671 4.031 14.031L7.031 11.031C8.671 9.391 11.331 9.39 12.971 11.031L13.001 11.061C13.556 11.627 13.918 12.312 14.088 13.032C14.562 12.904 15.033 12.629 15.445 12.311C15.18 11.455 14.709 10.649 14.031 9.971C12.958 8.898 11.564 8.342 10.158 8.304C9.601 8.289 9.042 8.354 8.501 8.501L8.5 8.5Z" fill="#202022"/>
</g>
</svg>
