<svg width="24" height="24" viewBox="0 0 24 24" fill="none" xmlns="http://www.w3.org/2000/svg">
<g id="E Strikethrough">
<path id="Vector" d="M12 3.25C10.067 3.25 8.5 4.817 8.5 6.75C8.5 8.683 10.067 10.25 12 10.25H21V11.75H3V10.25H8.429C7.545 9.348 7 8.113 7 6.75C7 3.989 9.239 1.75 12 1.75C14.761 1.75 17 3.989 17 6.75H15.5C15.5 4.817 13.933 3.25 12 3.25Z" fill="#202022"/>
<path id="Vector_2" d="M16.75 16.107C16.75 15.031 16.376 14.039 15.744 13.25H17.534C17.991 14.103 18.25 15.075 18.25 16.107C18.25 19.513 15.438 22.25 12 22.25C8.562 22.25 5.75 19.514 5.75 16.107H7.25C7.25 18.657 9.363 20.75 12 20.75C14.637 20.75 16.75 18.658 16.75 16.107Z" fill="#202022"/>
</g>
</svg>
