<svg width="24" height="24" viewBox="0 0 24 24" fill="none" xmlns="http://www.w3.org/2000/svg">
<g id="Type=Filled">
<g id="Shape">
<path d="M11.7412 10.3916C12.5964 10.4313 13.2782 11.135 13.2783 12C13.2783 12.8651 12.5964 13.5687 11.7412 13.6084V10.3916Z" fill="#202022"/>
<path fill-rule="evenodd" clip-rule="evenodd" d="M12 1.25C17.9371 1.25 22.75 6.06294 22.75 12C22.75 17.9371 17.9371 22.75 12 22.75C6.06294 22.75 1.25 17.9371 1.25 12C1.25 6.06294 6.06294 1.25 12 1.25ZM5.04102 8.8877V15.1123H9.16602V13.6123H6.54102V12.75H7.81543V11.25H6.54102V10.3877H9.16602V8.8877H5.04102ZM10.2412 8.8877V15.1123H11.666C13.3846 15.1118 14.7783 13.7187 14.7783 12C14.7782 10.2814 13.3845 8.88822 11.666 8.8877H10.2412ZM15.585 8.8877V10.3877H16.5225V13.6123H15.585V15.1123H18.96V13.6123H18.0225V10.3877H18.96V8.8877H15.585Z" fill="#202022"/>
</g>
</g>
</svg>
