<svg width="24" height="24" viewBox="0 0 24 24" fill="none" xmlns="http://www.w3.org/2000/svg">
<g id="Type=Outline">
<g id="Shape">
<path d="M9.16602 10.3877H6.54102V11.25H7.81543V12.75H6.54102V13.6123H9.16602V15.1123H5.04102V8.8877H9.16602V10.3877Z" fill="#202022"/>
<path fill-rule="evenodd" clip-rule="evenodd" d="M11.666 8.8877C13.3845 8.88822 14.7782 10.2814 14.7783 12C14.7783 13.7187 13.3846 15.1118 11.666 15.1123H10.2412V8.8877H11.666ZM11.7412 13.6084C12.5964 13.5687 13.2783 12.8651 13.2783 12C13.2782 11.135 12.5964 10.4313 11.7412 10.3916V13.6084Z" fill="#202022"/>
<path d="M18.96 10.3877H18.0225V13.6123H18.96V15.1123H15.585V13.6123H16.5225V10.3877H15.585V8.8877H18.96V10.3877Z" fill="#202022"/>
<path fill-rule="evenodd" clip-rule="evenodd" d="M12 1.25C17.9371 1.25 22.75 6.06294 22.75 12C22.75 17.9371 17.9371 22.75 12 22.75C6.06294 22.75 1.25 17.9371 1.25 12C1.25 6.06294 6.06294 1.25 12 1.25ZM12 2.75C6.89137 2.75 2.75 6.89137 2.75 12C2.75 17.1086 6.89137 21.25 12 21.25C17.1086 21.25 21.25 17.1086 21.25 12C21.25 6.89137 17.1086 2.75 12 2.75Z" fill="#202022"/>
</g>
</g>
</svg>
