<svg width="24" height="24" viewBox="0 0 24 24" fill="none" xmlns="http://www.w3.org/2000/svg">
<g id="Type=Outline">
<path id="Vector" d="M21.113 4.12298L19.877 2.88698C18.803 1.81298 17.062 1.81298 15.988 2.88698L3.31103 15.564L2.08203 21.918L8.43603 20.689L21.113 8.01198C22.187 6.93798 22.187 5.19698 21.113 4.12298ZM20.052 6.95198L18.781 8.22298L15.777 5.21898L17.048 3.94798C17.536 3.45998 18.328 3.45998 18.816 3.94798L20.052 5.18398C20.54 5.67198 20.54 6.46398 20.052 6.95198ZM17.72 9.28398L7.70003 19.304L3.97603 20.024L4.69603 16.3L14.716 6.27998L17.72 9.28398Z" fill="#202022"/>
</g>
</svg>
