<svg width="24" height="24" viewBox="0 0 24 24" fill="none" xmlns="http://www.w3.org/2000/svg">
<g id="Type=Outline">
<g id="Shape">
<path fill-rule="evenodd" clip-rule="evenodd" d="M10.5625 1.875C16.0853 1.875 20.5625 6.35215 20.5625 11.875V13.7344C22.2047 14.0798 23.4375 15.5373 23.4375 17.2822V19.6572H22.126V22.125H20.626V19.6572H19.127V22.125H17.627V19.6572H16.1875V17.2822C16.1875 15.5373 17.4203 14.0798 19.0625 13.7344V11.875C19.0625 7.18058 15.2569 3.375 10.5625 3.375C5.86808 3.375 2.0625 7.18058 2.0625 11.875C2.0625 16.5694 5.86808 20.375 10.5625 20.375V21.875C5.03965 21.875 0.5625 17.3978 0.5625 11.875C0.5625 6.35215 5.03965 1.875 10.5625 1.875ZM19.8125 15.1572C18.6389 15.1572 17.6875 16.1086 17.6875 17.2822V18.1572H21.9375V17.2822C21.9375 16.1086 20.9861 15.1572 19.8125 15.1572Z" fill="#202022"/>
<path d="M10.8359 10.458H15.7637L9.74121 18.252L10.417 13.292H5.48926L11.5127 5.49805L10.8359 10.458Z" fill="#202022"/>
</g>
</g>
</svg>
