<svg width="24" height="24" viewBox="0 0 24 24" fill="none" xmlns="http://www.w3.org/2000/svg">
<g id="Type=Outline">
<g id="Shape">
<path d="M11.9097 11.4224C13.4008 11.4224 14.6099 12.6314 14.6099 14.1226V14.8599H7.60986V14.1226C7.60986 12.6314 8.81889 11.4224 10.3101 11.4224H11.9097Z" fill="#202022"/>
<path d="M11.1099 6.35986C12.2144 6.35986 13.1099 7.25529 13.1099 8.35986C13.1099 9.46443 12.2144 10.3599 11.1099 10.3599C10.0053 10.3599 9.10986 9.46443 9.10986 8.35986C9.10986 7.25529 10.0053 6.35986 11.1099 6.35986Z" fill="#202022"/>
<path fill-rule="evenodd" clip-rule="evenodd" d="M11.1099 1.35986C16.4946 1.35986 20.8599 5.72509 20.8599 11.1099C20.8599 13.5322 19.9734 15.7456 18.5112 17.4507L22.6401 21.5796L21.5796 22.6401L17.4507 18.5112C15.7456 19.9734 13.5322 20.8599 11.1099 20.8599C5.72509 20.8599 1.35986 16.4946 1.35986 11.1099C1.35986 5.72509 5.72509 1.35986 11.1099 1.35986ZM11.1099 2.85986C6.55351 2.85986 2.85986 6.55351 2.85986 11.1099C2.85986 15.6662 6.55351 19.3599 11.1099 19.3599C15.6662 19.3599 19.3599 15.6662 19.3599 11.1099C19.3599 6.55351 15.6662 2.85986 11.1099 2.85986Z" fill="#202022"/>
</g>
</g>
</svg>
