<svg width="24" height="24" viewBox="0 0 24 24" fill="none" xmlns="http://www.w3.org/2000/svg">
<g id="Type=Filled">
<g id="Shape">
<path fill-rule="evenodd" clip-rule="evenodd" d="M11.1099 4.35986C14.8378 4.35986 17.8599 7.38194 17.8599 11.1099C17.8599 14.8378 14.8378 17.8599 11.1099 17.8599C7.38194 17.8599 4.35986 14.8378 4.35986 11.1099C4.35986 7.38194 7.38194 4.35986 11.1099 4.35986ZM10.3101 11.4224C8.81889 11.4224 7.60986 12.6314 7.60986 14.1226V14.8599H14.6099V14.1226C14.6099 12.6314 13.4008 11.4224 11.9097 11.4224H10.3101ZM11.1099 6.35986C10.0053 6.35986 9.10986 7.25529 9.10986 8.35986C9.10986 9.46443 10.0053 10.3599 11.1099 10.3599C12.2144 10.3599 13.1099 9.46443 13.1099 8.35986C13.1099 7.25529 12.2144 6.35986 11.1099 6.35986Z" fill="#202022"/>
<path fill-rule="evenodd" clip-rule="evenodd" d="M11.1099 1.35986C16.4946 1.35986 20.8599 5.72509 20.8599 11.1099C20.8599 13.5322 19.9734 15.7456 18.5112 17.4507L22.6401 21.5796L21.5796 22.6401L17.4507 18.5112C15.7456 19.9734 13.5322 20.8599 11.1099 20.8599C5.72509 20.8599 1.35986 16.4946 1.35986 11.1099C1.35986 5.72509 5.72509 1.35986 11.1099 1.35986ZM11.1099 2.85986C6.55351 2.85986 2.85986 6.55351 2.85986 11.1099C2.85986 15.6662 6.55351 19.3599 11.1099 19.3599C15.6662 19.3599 19.3599 15.6662 19.3599 11.1099C19.3599 6.55351 15.6662 2.85986 11.1099 2.85986Z" fill="#202022"/>
</g>
</g>
</svg>
