<svg width="24" height="24" viewBox="0 0 24 24" fill="none" xmlns="http://www.w3.org/2000/svg">
<g id="Employee Info Filled">
<path id="Vector" d="M13.11 8.36C13.11 9.465 12.215 10.36 11.11 10.36C10.005 10.36 9.10999 9.465 9.10999 8.36C9.10999 7.255 10.005 6.36 11.11 6.36C12.215 6.36 13.11 7.255 13.11 8.36Z" fill="#202022"/>
<path id="Vector_2" d="M10.31 11.422C8.81899 11.422 7.60999 12.631 7.60999 14.122V14.86H14.61V14.122C14.61 12.631 13.401 11.422 11.91 11.422H10.31Z" fill="#202022"/>
<path id="Vector_3" d="M1.36001 11.11C1.36001 5.725 5.72501 1.36 11.11 1.36C16.495 1.36 20.86 5.725 20.86 11.11C20.86 13.532 19.977 15.748 18.514 17.454L22.64 21.58L21.579 22.641L17.453 18.515C15.748 19.977 13.532 20.861 11.109 20.861C5.72401 20.861 1.35901 16.496 1.35901 11.111L1.36001 11.11ZM11.11 2.86C6.55401 2.86 2.86001 6.554 2.86001 11.11C2.86001 15.666 6.55401 19.36 11.11 19.36C15.666 19.36 19.36 15.666 19.36 11.11C19.36 6.554 15.666 2.86 11.11 2.86Z" fill="#202022"/>
</g>
</svg>
