<svg width="24" height="24" viewBox="0 0 24 24" fill="none" xmlns="http://www.w3.org/2000/svg">
<g id="Enter Full Screen">
<path id="Vector" d="M2.75 6.5C2.75 5.81 3.31 5.25 4 5.25H7V3.75H4C2.481 3.75 1.25 4.981 1.25 6.5V9.5H2.75V6.5Z" fill="#202022"/>
<path id="Vector_2" d="M20 18.75H17V20.25H20C21.519 20.25 22.75 19.019 22.75 17.5V14.5H21.25V17.5C21.25 18.19 20.69 18.75 20 18.75Z" fill="#202022"/>
<path id="Vector_3" d="M21.25 9.5V6.5C21.25 5.81 20.69 5.25 20 5.25H17V3.75H20C21.519 3.75 22.75 4.981 22.75 6.5V9.5H21.25Z" fill="#202022"/>
<path id="Vector_4" d="M2.75 17.5V14.5H1.25V17.5C1.25 19.019 2.481 20.25 4 20.25H7V18.75H4C3.31 18.75 2.75 18.19 2.75 17.5Z" fill="#202022"/>
</g>
</svg>
