<svg width="24" height="24" viewBox="0 0 24 24" fill="none" xmlns="http://www.w3.org/2000/svg">
<g id="Type=Outline">
<path id="Vector" d="M4.29499 10.358C3.44999 9.63297 2.99999 8.49097 3.21099 7.31397C3.52898 5.54797 5.21799 4.37297 6.98399 4.69097C7.55499 3.80597 8.53499 3.23697 9.61099 3.20397C10.178 1.81397 11.658 0.959967 13.195 1.23697C13.674 1.32297 14.11 1.51097 14.485 1.77397C15.135 1.38497 15.923 1.21997 16.728 1.36497C18.494 1.68297 19.669 3.37197 19.351 5.13797C20.42 5.82797 21.028 7.11397 20.788 8.44497C20.65 9.20997 20.255 9.86297 19.71 10.333L17.109 22.816H6.88898L4.29399 10.359L4.29499 10.358ZM10.897 4.12497L10.764 4.86297L10.026 4.72997C9.17899 4.57797 8.36399 5.06197 8.07499 5.84197L7.80399 6.57397L7.08299 6.27397C6.96899 6.22597 6.84698 6.18997 6.71798 6.16697C5.76698 5.99597 4.85698 6.62797 4.68598 7.57897C4.56199 8.26597 4.85799 8.93297 5.39199 9.31397H18.574C18.949 9.05797 19.224 8.65897 19.311 8.17797C19.463 7.33097 18.979 6.51597 18.199 6.22797L17.467 5.95697L17.767 5.23597C17.815 5.12197 17.851 4.99997 17.874 4.87097C18.045 3.91997 17.413 3.00997 16.462 2.83897C15.899 2.73797 15.351 2.91697 14.96 3.27997L14.411 3.78997L13.901 3.24097C13.652 2.97297 13.319 2.78097 12.93 2.71097C11.979 2.53997 11.069 3.17197 10.898 4.12297L10.897 4.12497ZM5.92198 10.815L8.10899 21.315H9.68399L8.80899 10.815H5.92198ZM10.315 10.815L11.19 21.315H12.81L13.685 10.815H10.315ZM15.19 10.815L14.315 21.315H15.89L18.077 10.815H15.19Z" fill="#202022"/>
</g>
</svg>
