<svg width="24" height="24" viewBox="0 0 24 24" fill="none" xmlns="http://www.w3.org/2000/svg">
<g id="Type=Filled">
<path id="Vector" d="M13.195 1.30203C11.658 1.02503 10.178 1.87903 9.611 3.26903C8.535 3.30303 7.556 3.87103 6.984 4.75603C5.218 4.43903 3.528 5.61303 3.211 7.37903C3.015 8.46603 3.385 9.52203 4.108 10.249H19.871C20.333 9.79403 20.665 9.19703 20.789 8.50903C21.029 7.17803 20.421 5.89203 19.352 5.20203C19.669 3.43603 18.495 1.74603 16.729 1.42903C15.924 1.28403 15.136 1.44903 14.486 1.83803C14.111 1.57503 13.675 1.38703 13.196 1.30103L13.195 1.30203Z" fill="#202022"/>
<path id="Vector_2" d="M19.311 11.75H15.532L14.717 22.75H17.019L19.311 11.75Z" fill="#202022"/>
<path id="Vector_3" d="M13.213 22.75L14.028 11.75H9.797L10.643 22.75H13.213Z" fill="#202022"/>
<path id="Vector_4" d="M9.138 22.75L8.292 11.75H4.508L6.8 22.75H9.138Z" fill="#202022"/>
</g>
</svg>
