<svg width="24" height="24" viewBox="0 0 24 24" fill="none" xmlns="http://www.w3.org/2000/svg">
<g id="Eor">
<g id="Shape">
<path d="M4.81592 17.998C5.93517 19.31 7.41336 20.3065 9.1001 20.832C8.82698 20.3908 8.58139 19.8905 8.3667 19.3467C8.20148 18.9281 8.05212 18.4768 7.91748 17.998H9.48096C9.569 18.2783 9.66213 18.5448 9.76123 18.7959C10.0979 19.6488 10.4805 20.2883 10.8667 20.7021C11.2518 21.1148 11.5864 21.25 11.855 21.25C12.1235 21.25 12.4581 21.1149 12.8433 20.7021C13.2295 20.2883 13.612 19.6489 13.9487 18.7959C14.0478 18.5448 14.141 18.2783 14.229 17.998H15.7935C15.6589 18.4768 15.5095 18.9281 15.3442 19.3467C15.1294 19.8909 14.8824 20.3907 14.6089 20.832C16.296 20.3065 17.7746 19.3101 18.894 17.998H20.7769C18.8461 20.8644 15.5709 22.75 11.855 22.75C8.13907 22.75 4.86389 20.8644 2.93311 17.998H4.81592Z" fill="#202022"/>
<path fill-rule="evenodd" clip-rule="evenodd" d="M11.5425 7.5C13.1993 7.5 14.5425 8.84315 14.5425 10.5V13.5C14.5425 15.1569 13.1993 16.5 11.5425 16.5C9.88563 16.5 8.54248 15.1569 8.54248 13.5V10.5C8.54248 8.84315 9.88563 7.5 11.5425 7.5ZM11.5425 9C10.7141 9 10.0425 9.67157 10.0425 10.5V13.5C10.0425 14.3284 10.7141 15 11.5425 15C12.3709 15 13.0425 14.3284 13.0425 13.5V10.5C13.0425 9.67157 12.3709 9 11.5425 9Z" fill="#202022"/>
<path d="M7.60498 9.25H3.35498V11.25H5.60498V12.75H3.35498V14.75H7.60498V16.25H1.85498V7.75H7.60498V9.25Z" fill="#202022"/>
<path fill-rule="evenodd" clip-rule="evenodd" d="M19.105 7.75C20.6238 7.75 21.855 8.98122 21.855 10.5C21.855 11.7235 21.0553 12.7583 19.9507 13.1152L22.145 16.25H20.3149L18.2153 13.25H17.355V16.25H15.855V7.75H19.105ZM17.355 11.75H19.105C19.7953 11.75 20.355 11.1904 20.355 10.5C20.355 9.80964 19.7953 9.25 19.105 9.25H17.355V11.75Z" fill="#202022"/>
<path d="M11.855 1.25C15.5709 1.25 18.8461 3.13562 20.7769 6.00195H18.895C17.7755 4.68925 16.2964 3.69255 14.6089 3.16699C14.8826 3.60853 15.1293 4.10884 15.3442 4.65332C15.5095 5.07187 15.6589 5.5232 15.7935 6.00195H14.229C14.141 5.72171 14.0478 5.45517 13.9487 5.2041C13.612 4.35112 13.2295 3.71171 12.8433 3.29785C12.4581 2.88513 12.1235 2.75 11.855 2.75C11.5864 2.75003 11.2518 2.88518 10.8667 3.29785C10.4805 3.71173 10.0979 4.35116 9.76123 5.2041C9.66213 5.45517 9.569 5.72171 9.48096 6.00195H7.91748C8.05212 5.52321 8.20148 5.07187 8.3667 4.65332C8.58151 4.10919 8.8268 3.60842 9.1001 3.16699C7.41294 3.69263 5.93426 4.68938 4.81494 6.00195H2.93311C4.86389 3.13562 8.13907 1.25 11.855 1.25Z" fill="#202022"/>
</g>
</g>
</svg>
