<svg width="24" height="24" viewBox="0 0 24 24" fill="none" xmlns="http://www.w3.org/2000/svg">
<g id="Type=Filled">
<path id="Vector" d="M3.25 8.875C3.25 12.348 5.274 15.349 8.207 16.762C9.355 17.315 10.641 17.625 12 17.625C13.441 17.625 14.801 17.277 16 16.659C18.821 15.207 20.75 12.266 20.75 8.875C20.75 4.043 16.832 0.125 12 0.125C7.168 0.125 3.25 4.043 3.25 8.875ZM7.72 4.905L8.781 3.844L12.001 7.064L15.221 3.844L16.282 4.905L13.312 7.875H15.001V9.375H12.751V10.875H15.001V12.375H12.751V14.375H11.251V12.375H9.001V10.875H11.251V9.375H9.001V7.875H10.69L7.72 4.905Z" fill="#202022"/>
<path id="Vector_2" d="M8 18.3149V23.8749L12 20.8749L16 23.8749V18.3149C14.771 18.8359 13.419 19.1249 12 19.1249C10.581 19.1249 9.229 18.8369 8 18.3149Z" fill="#202022"/>
</g>
</svg>
