<svg width="24" height="24" viewBox="0 0 24 24" fill="none" xmlns="http://www.w3.org/2000/svg">
<g id="Type=Filled">
<path id="Vector" d="M3.25 8.875C3.25 12.348 5.274 15.349 8.207 16.762C9.355 17.315 10.641 17.625 12 17.625C13.441 17.625 14.801 17.277 16 16.659C18.821 15.207 20.75 12.266 20.75 8.875C20.75 4.043 16.832 0.125 12 0.125C7.168 0.125 3.25 4.043 3.25 8.875ZM12.75 2.875V4.625H14.5V6.125H11.25C10.698 6.125 10.25 6.573 10.25 7.125C10.25 7.677 10.698 8.125 11.25 8.125H12.75C14.131 8.125 15.25 9.244 15.25 10.625C15.25 12.006 14.131 13.125 12.75 13.125V14.875H11.25V13.125H9.5V11.625H12.75C13.302 11.625 13.75 11.177 13.75 10.625C13.75 10.073 13.302 9.625 12.75 9.625H11.25C9.869 9.625 8.75 8.506 8.75 7.125C8.75 5.744 9.869 4.625 11.25 4.625V2.875H12.75Z" fill="#202022"/>
<path id="Vector_2" d="M8 18.3149V23.8749L12 20.8749L16 23.8749V18.3149C14.771 18.8359 13.419 19.1249 12 19.1249C10.581 19.1249 9.229 18.8369 8 18.3149Z" fill="#202022"/>
</g>
</svg>
