<svg width="24" height="24" viewBox="0 0 24 24" fill="none" xmlns="http://www.w3.org/2000/svg">
<g id="Type=Outline">
<path id="Vector" d="M8.25005 7.125H12.874C12.566 6.251 11.733 5.625 10.753 5.625H8.24905V4.125H15.749V5.625H13.752C14.079 6.061 14.314 6.571 14.426 7.125H15.749V8.625H14.425C14.085 10.293 12.638 11.558 10.884 11.619L13.704 13.776L12.793 14.968L8.24905 11.493V10.122H10.752C11.73 10.122 12.562 9.498 12.871 8.626H8.24805V7.126L8.25005 7.125Z" fill="#202022"/>
<path id="Vector_2" d="M12 0.125C7.168 0.125 3.25 4.043 3.25 8.875C3.25 12.266 5.179 15.207 8 16.659V23.875L12 20.875L16 23.875V16.659C18.821 15.207 20.75 12.266 20.75 8.875C20.75 4.043 16.832 0.125 12 0.125ZM4.75 8.875C4.75 4.871 7.996 1.625 12 1.625C16.004 1.625 19.25 4.871 19.25 8.875C19.25 12.879 16.004 16.125 12 16.125C7.996 16.125 4.75 12.879 4.75 8.875Z" fill="#202022"/>
</g>
</svg>
