<svg width="24" height="24" viewBox="0 0 24 24" fill="none" xmlns="http://www.w3.org/2000/svg">
<g id="Type=Filled">
<path id="Vector" d="M3.25 8.875C3.25 4.043 7.168 0.125 12 0.125C16.832 0.125 20.75 4.043 20.75 8.875C20.75 12.266 18.821 15.207 16 16.659C14.801 17.276 13.441 17.625 12 17.625C10.641 17.625 9.354 17.315 8.207 16.762C5.274 15.349 3.25 12.348 3.25 8.875ZM8 18.315V23.875L12 20.875L16 23.875V18.315C14.771 18.836 13.419 19.125 12 19.125C10.581 19.125 9.229 18.837 8 18.315ZM12.625 3.125C11.037 3.125 9.75 4.412 9.75 6V7.875H8.5V9.375H9.75V11.125C9.75 11.815 9.19 12.375 8.5 12.375V13.875H15.5V12.375H10.95C11.142 12 11.25 11.575 11.25 11.125V9.375H13.5V7.875H11.25V6C11.25 5.241 11.866 4.625 12.625 4.625C13.384 4.625 14 5.241 14 6V6.625H15.5V6C15.5 4.412 14.213 3.125 12.625 3.125Z" fill="#202022"/>
</g>
</svg>
