<svg width="24" height="24" viewBox="0 0 24 24" fill="none" xmlns="http://www.w3.org/2000/svg">
<g id="Type=Outline">
<path id="Vector" d="M4.75 8.875C4.75 4.871 7.996 1.625 12 1.625C16.004 1.625 19.25 4.871 19.25 8.875C19.25 12.879 16.004 16.125 12 16.125C7.996 16.125 4.75 12.879 4.75 8.875ZM12 0.125C7.168 0.125 3.25 4.043 3.25 8.875C3.25 12.266 5.179 15.207 8 16.659V23.875L12 20.875L16 23.875V16.659C18.821 15.207 20.75 12.266 20.75 8.875C20.75 4.043 16.832 0.125 12 0.125ZM11.25 10.875V9.375H9V7.875H10.689L7.719 4.905L8.78 3.844L12 7.064L15.22 3.844L16.281 4.905L13.311 7.875H15V9.375H12.75V10.875H15V12.375H12.75V14.375H11.25V12.375H9V10.875H11.25Z" fill="#202022"/>
</g>
</svg>
