<svg width="24" height="24" viewBox="0 0 24 24" fill="none" xmlns="http://www.w3.org/2000/svg">
<g id="Type=Outline">
<path id="Vector" d="M12.75 4.625V2.875H11.25V4.625C9.869 4.625 8.75 5.744 8.75 7.125C8.75 8.506 9.869 9.625 11.25 9.625H12.75C13.302 9.625 13.75 10.073 13.75 10.625C13.75 11.177 13.302 11.625 12.75 11.625H9.5V13.125H11.25V14.875H12.75V13.125C14.131 13.125 15.25 12.006 15.25 10.625C15.25 9.244 14.131 8.125 12.75 8.125H11.25C10.698 8.125 10.25 7.677 10.25 7.125C10.25 6.573 10.698 6.125 11.25 6.125H14.5V4.625H12.75Z" fill="#202022"/>
<path id="Vector_2" d="M12 0.125C7.168 0.125 3.25 4.043 3.25 8.875C3.25 12.266 5.179 15.207 8 16.659V23.875L12 20.875L16 23.875V16.659C18.821 15.207 20.75 12.266 20.75 8.875C20.75 4.043 16.832 0.125 12 0.125ZM4.75 8.875C4.75 4.871 7.996 1.625 12 1.625C16.004 1.625 19.25 4.871 19.25 8.875C19.25 12.879 16.004 16.125 12 16.125C7.996 16.125 4.75 12.879 4.75 8.875Z" fill="#202022"/>
</g>
</svg>
