<svg width="24" height="24" viewBox="0 0 24 24" fill="none" xmlns="http://www.w3.org/2000/svg">
<g id="Type=Outline">
<path id="Vector" d="M10 8.125H12.25V6.625H10.015C10.136 5.639 10.977 4.875 11.996 4.875C13.015 4.875 13.856 5.639 13.977 6.625H15.483C15.357 4.81 13.844 3.375 11.995 3.375C10.146 3.375 8.63405 4.809 8.50705 6.625H7.24805V8.125H8.49805V9.625H7.24805V11.125H8.50705C8.63305 12.941 10.147 14.375 11.995 14.375C13.843 14.375 15.356 12.94 15.483 11.125H13.977C13.856 12.111 13.015 12.875 11.996 12.875C10.977 12.875 10.136 12.111 10.015 11.125H12.25V9.625H10V8.125Z" fill="#202022"/>
<path id="Vector_2" d="M3.25 8.875C3.25 4.043 7.168 0.125 12 0.125C16.832 0.125 20.75 4.043 20.75 8.875C20.75 12.266 18.821 15.207 16 16.659V23.875L12 20.875L8 23.875V16.659C5.179 15.207 3.25 12.266 3.25 8.875ZM12 1.625C7.996 1.625 4.75 4.871 4.75 8.875C4.75 12.879 7.996 16.125 12 16.125C16.004 16.125 19.25 12.879 19.25 8.875C19.25 4.871 16.004 1.625 12 1.625Z" fill="#202022"/>
</g>
</svg>
