<svg width="24" height="24" viewBox="0 0 24 24" fill="none" xmlns="http://www.w3.org/2000/svg">
<g id="Type=Filled">
<path id="Vector" d="M3.25 8.875C3.25 4.043 7.168 0.125 12 0.125C16.832 0.125 20.75 4.043 20.75 8.875C20.75 12.266 18.821 15.207 16 16.659C14.801 17.276 13.441 17.625 12 17.625C10.641 17.625 9.354 17.315 8.207 16.762C5.274 15.349 3.25 12.348 3.25 8.875ZM12.043 3.375C10.195 3.375 8.682 4.809 8.555 6.625H7.296V8.125H8.546V9.625H7.296V11.125H8.555C8.681 12.941 10.194 14.375 12.043 14.375C13.892 14.375 15.404 12.94 15.531 11.125H14.025C13.904 12.111 13.063 12.875 12.044 12.875C11.025 12.875 10.184 12.111 10.063 11.125H12.298V9.625H10.048V8.125H12.298V6.625H10.063C10.184 5.639 11.025 4.875 12.044 4.875C13.063 4.875 13.904 5.639 14.025 6.625H15.531C15.405 4.81 13.892 3.375 12.043 3.375Z" fill="#202022"/>
<path id="Vector_2" d="M8 18.3149V23.8749L12 20.8749L16 23.8749V18.3149C14.771 18.8359 13.419 19.1249 12 19.1249C10.581 19.1249 9.229 18.8369 8 18.3149Z" fill="#202022"/>
</g>
</svg>
