<svg width="24" height="24" viewBox="0 0 24 24" fill="none" xmlns="http://www.w3.org/2000/svg">
<g id="Type=Filled">
<path id="Vector" d="M3.25002 9C3.25002 12.391 5.17902 15.332 8.00002 16.784C9.19902 17.401 10.559 17.75 12 17.75C13.359 17.75 14.646 17.44 15.793 16.887C18.726 15.474 20.749 12.473 20.749 9C20.749 4.168 16.831 0.25 11.999 0.25C7.16702 0.25 3.25002 4.168 3.25002 9ZM8.25002 5.625V4.125H15.75V5.625H13.753C14.08 6.061 14.315 6.571 14.427 7.125H15.75V8.625H14.426C14.086 10.293 12.639 11.558 10.885 11.619L13.705 13.776L12.794 14.968L8.25002 11.493V10.122H10.754C11.732 10.122 12.564 9.498 12.873 8.626H8.25002V7.126H12.874C12.566 6.252 11.733 5.626 10.753 5.626H8.24902L8.25002 5.625Z" fill="#202022"/>
<path id="Vector_2" d="M8 23.9999V18.4399C9.229 18.9609 10.581 19.2499 12 19.2499C13.419 19.2499 14.771 18.9619 16 18.4399V23.9999L12 20.9999L8 23.9999Z" fill="#202022"/>
</g>
</svg>
