<svg width="24" height="24" viewBox="0 0 24 24" fill="none" xmlns="http://www.w3.org/2000/svg">
<g id="Type=Outline">
<path id="Vector" d="M9.75 6C9.75 4.412 11.037 3.125 12.625 3.125C14.213 3.125 15.5 4.412 15.5 6V6.625H14V6C14 5.241 13.384 4.625 12.625 4.625C11.866 4.625 11.25 5.241 11.25 6V7.875H13.5V9.375H11.25V11.125C11.25 11.575 11.142 12 10.95 12.375H15.5V13.875H8.5V12.375C9.19 12.375 9.75 11.815 9.75 11.125V9.375H8.5V7.875H9.75V6Z" fill="#202022"/>
<path id="Vector_2" d="M12 0.125C7.168 0.125 3.25 4.043 3.25 8.875C3.25 12.266 5.179 15.207 8 16.659V23.875L12 20.875L16 23.875V16.659C18.821 15.207 20.75 12.266 20.75 8.875C20.75 4.043 16.832 0.125 12 0.125ZM4.75 8.875C4.75 4.871 7.996 1.625 12 1.625C16.004 1.625 19.25 4.871 19.25 8.875C19.25 12.879 16.004 16.125 12 16.125C7.996 16.125 4.75 12.879 4.75 8.875Z" fill="#202022"/>
</g>
</svg>
