<svg width="24" height="24" viewBox="0 0 24 24" fill="none" xmlns="http://www.w3.org/2000/svg">
<g id="Type=Outline">
<path id="Vector" d="M6 11.25H7.75V12.75H6V14.25H7.757C7.884 16.48 9.733 18.25 11.995 18.25C14.257 18.25 16.106 16.48 16.233 14.25H14.729C14.605 15.651 13.429 16.75 11.995 16.75C10.561 16.75 9.385 15.651 9.261 14.25H12.5V12.75H9.25V11.25H12.5V9.75H9.261C9.385 8.349 10.562 7.25 11.995 7.25C13.428 7.25 14.605 8.349 14.729 9.75H16.233C16.106 7.52 14.258 5.75 11.995 5.75C9.732 5.75 7.884 7.52 7.757 9.75H6V11.25Z" fill="#202022"/>
<path id="Vector_2" d="M12 1.75C6.339 1.75 1.75 6.339 1.75 12C1.75 17.661 6.339 22.25 12 22.25C17.661 22.25 22.25 17.661 22.25 12C22.25 6.339 17.661 1.75 12 1.75ZM3.25 12C3.25 7.168 7.168 3.25 12 3.25C16.832 3.25 20.75 7.168 20.75 12C20.75 16.833 16.832 20.75 12 20.75C7.168 20.75 3.25 16.832 3.25 12Z" fill="#202022"/>
</g>
</svg>
