<svg width="24" height="24" viewBox="0 0 24 24" fill="none" xmlns="http://www.w3.org/2000/svg">
<g id="Type=Filled">
<path id="Vector" d="M1.75 12C1.75 17.661 6.339 22.25 12 22.25C17.661 22.25 22.25 17.661 22.25 12C22.25 6.339 17.661 1.75 12 1.75C6.339 1.75 1.75 6.339 1.75 12ZM7.757 9.75C7.884 7.52 9.733 5.75 11.995 5.75C14.257 5.75 16.106 7.52 16.233 9.75H14.729C14.605 8.349 13.429 7.25 11.995 7.25C10.561 7.25 9.385 8.349 9.261 9.75H12.5V11.25H9.25V12.75H12.5V14.25H9.261C9.385 15.651 10.562 16.75 11.995 16.75C13.428 16.75 14.605 15.651 14.729 14.25H16.233C16.106 16.48 14.258 18.25 11.995 18.25C9.732 18.25 7.884 16.48 7.757 14.25H6V12.75H7.75V11.25H6V9.75H7.757Z" fill="#202022"/>
</g>
</svg>
