<svg width="24" height="24" viewBox="0 0 24 24" fill="none" xmlns="http://www.w3.org/2000/svg">
<g id="Euro">
<path id="Vector" d="M12 3.75C9.101 3.75 6.75 6.101 6.75 9V9.375H4.5V10.875H6.75V13.125H4.5V14.625H6.75V15C6.75 17.899 9.101 20.25 12 20.25C14.899 20.25 17.25 17.899 17.25 15V14.625H15.75V15C15.75 17.071 14.071 18.75 12 18.75C9.929 18.75 8.25 17.071 8.25 15V14.625H12.75V13.125H8.25V10.875H12.75V9.375H8.25V9C8.25 6.929 9.929 5.25 12 5.25C14.071 5.25 15.75 6.929 15.75 9V9.375H17.25V9C17.25 6.101 14.899 3.75 12 3.75Z" fill="#202022"/>
</g>
</svg>
