<svg width="24" height="24" viewBox="0 0 24 24" fill="none" xmlns="http://www.w3.org/2000/svg">
<g id="Type=Outline">
<path id="Vector" d="M12 7.62695L13.424 10.502L16.616 10.964L14.306 13.207L14.85 16.37L11.999 14.877L9.148 16.37L9.693 13.207L7.383 10.964L10.575 10.502L11.999 7.62695H12Z" fill="#202022"/>
<path id="Vector_2" d="M22.75 4.25H1.25V9.75H2C3.243 9.75 4.25 10.757 4.25 12C4.25 13.243 3.243 14.25 2 14.25H1.25V19.75H22.75V14.25H22C20.757 14.25 19.75 13.243 19.75 12C19.75 10.757 20.757 9.75 22 9.75H22.75V4.25ZM2.75 8.325V5.75H21.25V8.325C19.538 8.672 18.25 10.186 18.25 12C18.25 13.814 19.538 15.327 21.25 15.675V18.25H2.75V15.675C4.462 15.327 5.75 13.814 5.75 12C5.75 10.186 4.462 8.672 2.75 8.325Z" fill="#202022"/>
</g>
</svg>
