<svg width="24" height="24" viewBox="0 0 24 24" fill="none" xmlns="http://www.w3.org/2000/svg">
<g id="Excel">
<path id="Vector" d="M7.75 3.75C7.336 3.75 7 4.086 7 4.5V6.125H12.271C12.812 6.125 13.25 6.563 13.25 7.104V16.896C13.25 17.437 12.812 17.875 12.271 17.875H7V19.5C7 19.914 7.336 20.25 7.75 20.25H20.75C21.164 20.25 21.5 19.914 21.5 19.5V4.5C21.5 4.086 21.164 3.75 20.75 3.75H7.75Z" fill="#202022"/>
<path id="Vector_2" d="M3.31202 7.125H11.437C11.886 7.125 12.25 7.489 12.25 7.938V16.063C12.25 16.512 11.886 16.876 11.437 16.876H3.31202C2.86302 16.876 2.49902 16.512 2.49902 16.063V7.938C2.49902 7.489 2.86302 7.125 3.31202 7.125ZM6.69502 12.034L5.00002 14.661H6.22802L7.23602 12.819C7.28302 12.744 7.32102 12.665 7.34902 12.582H7.36402C7.39602 12.667 7.43502 12.749 7.48102 12.827L8.46002 14.661H9.68002L8.04702 12.019L9.64002 9.421H8.49302L7.58702 11.076C7.52602 11.195 7.46802 11.318 7.41202 11.445H7.40102C7.37202 11.367 7.31802 11.249 7.24002 11.091L6.39202 9.421H5.14202L6.69502 12.033V12.034Z" fill="#202022"/>
</g>
</svg>
