<svg width="24" height="24" viewBox="0 0 24 24" fill="none" xmlns="http://www.w3.org/2000/svg">
<g id="Exit Full Screen">
<path id="Vector" d="M8.75 7.5C8.75 8.19 8.19 8.75 7.5 8.75H4.5V10.25H7.5C9.019 10.25 10.25 9.019 10.25 7.5V4.5H8.75V7.5Z" fill="#202022"/>
<path id="Vector_2" d="M15.25 16.5C15.25 15.81 15.81 15.25 16.5 15.25H19.5V13.75H16.5C14.981 13.75 13.75 14.981 13.75 16.5V19.5H15.25V16.5Z" fill="#202022"/>
<path id="Vector_3" d="M15.25 7.5C15.25 8.19 15.81 8.75 16.5 8.75H19.5V10.25H16.5C14.981 10.25 13.75 9.019 13.75 7.5V4.5H15.25V7.5Z" fill="#202022"/>
<path id="Vector_4" d="M7.5 15.25C8.19 15.25 8.75 15.81 8.75 16.5V19.5H10.25V16.5C10.25 14.981 9.019 13.75 7.5 13.75H4.5V15.25H7.5Z" fill="#202022"/>
</g>
</svg>
