<svg width="24" height="24" viewBox="0 0 24 24" fill="none" xmlns="http://www.w3.org/2000/svg">
<g id="Type=Outline">
<path id="Vector" d="M2.20001 2.19995V21.7H21.7V2.19995H2.20001ZM15.8 3.79995H17.3L15.8 5.29995V3.79995ZM14.2 20.2H3.80001V3.79995H14.3V20.2999L14.2 20.2ZM20.2 20.2H18.7L20.2 18.7V20.2ZM20.2 16.6L16.6 20.2H15.7V19L20.2 14.5V16.6ZM20.2 12.5L15.7 17V15.3L20.2 10.8V12.5ZM20.2 8.69995L15.7 13.2V11.4L20.2 6.89995V8.69995ZM20.2 4.69995L15.7 9.19995V7.39995L19.3 3.79995H20.2V4.69995Z" fill="#202022"/>
</g>
</svg>
