<svg width="24" height="24" viewBox="0 0 24 24" fill="none" xmlns="http://www.w3.org/2000/svg">
<g id="Type=Outline">
<path id="Vector" d="M12.531 6.46997C10.943 6.46997 9.65601 7.75697 9.65601 9.34497V11.22H8.40601V12.72H9.65601V14.47C9.65601 15.16 9.09601 15.72 8.40601 15.72V17.22H15.406V15.72H10.856C11.048 15.345 11.156 14.92 11.156 14.47V12.72H13.406V11.22H11.156V9.34497C11.156 8.58597 11.772 7.96997 12.531 7.96997C13.29 7.96997 13.906 8.58597 13.906 9.34497V9.96997H15.406V9.34497C15.406 7.75697 14.119 6.46997 12.531 6.46997Z" fill="#202022"/>
<path id="Vector_2" d="M12.59 1.75706L12.001 1.00806L11.411 1.75706C10.747 2.60106 9.3 3.46906 7.367 3.92006C5.689 4.31106 4.114 4.27806 3.002 3.95006L2.182 3.70906L2.049 4.55306C0.237997 16.0711 7.059 21.7681 11.82 22.9481L12 22.9931L12.18 22.9481C16.941 21.7681 23.762 16.0711 21.951 4.55306L21.818 3.70906L20.998 3.95006C19.886 4.27706 18.311 4.31106 16.633 3.92006C14.7 3.46906 13.253 2.60106 12.589 1.75706H12.59ZM7.707 5.38006C9.451 4.97306 10.982 4.23006 12 3.31006C13.018 4.23106 14.549 4.97306 16.293 5.38006C17.812 5.73406 19.314 5.79306 20.581 5.58006C21.82 15.5851 15.951 20.3671 12 21.4451C8.049 20.3671 2.18 15.5851 3.419 5.58006C4.687 5.79306 6.189 5.73406 7.707 5.38006Z" fill="#202022"/>
</g>
</svg>
