<svg width="24" height="24" viewBox="0 0 24 24" fill="none" xmlns="http://www.w3.org/2000/svg">
<g id="Type=Filled">
<path id="Vector" d="M12 1.16199L12.59 1.91099C13.254 2.75499 14.702 3.62299 16.634 4.07399C18.312 4.46499 19.887 4.43199 20.999 4.10399L21.819 3.86299L21.952 4.70699C23.763 16.225 16.942 21.922 12.181 23.102L12.001 23.147L11.821 23.102C7.06 21.922 0.239004 16.225 2.05 4.70699L2.183 3.86299L3.003 4.10399C4.115 4.43099 5.69 4.46499 7.368 4.07399C9.301 3.62299 10.748 2.75499 11.412 1.91099L12.001 1.16199H12ZM8.25 7.68799V9.18799H10.753C11.732 9.18799 12.565 9.81399 12.874 10.688H8.25V12.188H12.873C12.564 13.06 11.732 13.684 10.754 13.684H8.251V15.055L12.795 18.53L13.706 17.338L10.886 15.181C12.639 15.12 14.087 13.855 14.426 12.187H15.75V10.687H14.427C14.315 10.133 14.08 9.62299 13.753 9.18699H15.75V7.68699H8.25V7.68799Z" fill="#202022"/>
</g>
</svg>
