<svg width="24" height="24" viewBox="0 0 24 24" fill="none" xmlns="http://www.w3.org/2000/svg">
<g id="Type=Outline">
<path id="Vector" d="M8.40601 10.5H13.03C12.722 9.626 11.889 9 10.909 9H8.40601V7.5H15.906V9H13.909C14.236 9.436 14.471 9.946 14.583 10.5H15.906V12H14.582C14.242 13.668 12.795 14.933 11.042 14.994L13.862 17.151L12.951 18.343L8.40701 14.868V13.497H10.91C11.888 13.497 12.72 12.873 13.029 12.001H8.40601V10.501V10.5Z" fill="#202022"/>
<path id="Vector_2" d="M12 1.03699L12.589 1.78599C13.253 2.62999 14.701 3.49799 16.633 3.94899C18.311 4.33999 19.886 4.30699 20.998 3.97899L21.818 3.73799L21.951 4.58199C23.762 16.1 16.941 21.797 12.18 22.977L12 23.022L11.82 22.977C7.059 21.797 0.237997 16.1 2.049 4.58199L2.182 3.73799L3.002 3.97899C4.114 4.30599 5.689 4.33999 7.367 3.94899C9.3 3.49799 10.747 2.62999 11.411 1.78599L12.001 1.03699H12ZM12 3.33999C10.982 4.26099 9.451 5.00299 7.707 5.40999C6.188 5.76399 4.686 5.82299 3.419 5.60999C2.18 15.615 8.049 20.397 12 21.475C15.951 20.397 21.82 15.615 20.581 5.60999C19.313 5.82299 17.811 5.76399 16.293 5.40999C14.549 5.00299 13.018 4.25999 12 3.33999Z" fill="#202022"/>
</g>
</svg>
