<svg width="24" height="24" viewBox="0 0 24 24" fill="none" xmlns="http://www.w3.org/2000/svg">
<g id="Type=Filled">
<path id="Vector" d="M12 0.786987L12.589 1.53599C13.253 2.37999 14.701 3.24799 16.633 3.69899C18.311 4.08999 19.886 4.05699 20.998 3.72899L21.818 3.48799L21.951 4.33199C23.762 15.85 16.941 21.547 12.18 22.727L12 22.772L11.82 22.727C7.059 21.547 0.237997 15.85 2.049 4.33199L2.182 3.48799L3.002 3.72899C4.114 4.05599 5.689 4.08999 7.367 3.69899C9.3 3.24799 10.747 2.37999 11.411 1.53599L12.001 0.786987H12ZM12.121 6.49999C10.273 6.49999 8.76 7.93399 8.633 9.74999H7.374V11.25H8.624V12.75H7.374V14.25H8.633C8.759 16.066 10.273 17.5 12.121 17.5C13.969 17.5 15.482 16.065 15.609 14.25H14.103C13.982 15.236 13.141 16 12.122 16C11.103 16 10.262 15.236 10.141 14.25H12.376V12.75H10.126V11.25H12.376V9.74999H10.141C10.262 8.76399 11.103 7.99999 12.122 7.99999C13.141 7.99999 13.982 8.76399 14.103 9.74999H15.609C15.483 7.93499 13.97 6.49999 12.121 6.49999Z" fill="#202022"/>
</g>
</svg>
