<svg width="24" height="24" viewBox="0 0 24 24" fill="none" xmlns="http://www.w3.org/2000/svg">
<g id="Type=Filled">
<path id="Vector" d="M12 1.00696L12.589 1.75596C13.253 2.59996 14.701 3.46796 16.633 3.91896C18.311 4.30996 19.886 4.27696 20.998 3.94896L21.818 3.70796L21.951 4.55196C23.762 16.07 16.941 21.767 12.18 22.947L12 22.992L11.82 22.947C7.059 21.767 0.237997 16.07 2.049 4.55196L2.182 3.70796L3.002 3.94896C4.114 4.27596 5.689 4.30996 7.367 3.91896C9.3 3.46796 10.747 2.59996 11.411 1.75596L12.001 1.00696H12ZM12.625 6.62496C11.037 6.62496 9.75 7.91196 9.75 9.49996V11.375H8.5V12.875H9.75V14.625C9.75 15.315 9.19 15.875 8.5 15.875V17.375H15.5V15.875H10.95C11.142 15.5 11.25 15.075 11.25 14.625V12.875H13.5V11.375H11.25V9.49996C11.25 8.74096 11.866 8.12496 12.625 8.12496C13.384 8.12496 14 8.74096 14 9.49996V10.125H15.5V9.49996C15.5 7.91196 14.213 6.62496 12.625 6.62496Z" fill="#202022"/>
</g>
</svg>
