<svg width="24" height="24" viewBox="0 0 24 24" fill="none" xmlns="http://www.w3.org/2000/svg">
<g id="Expensify">
<path id="Vector" d="M12 4C13.92 4 15.68 4.68 17.06 5.8L18.48 4.38C16.74 2.9 14.48 2 12 2C9.57998 2 7.33998 2.86 5.59998 4.32L7.01998 5.74C8.37998 4.66 10.12 4 12 4Z" fill="#202022"/>
<path id="Vector_2" d="M5.86 6.86C4.7 8.26 4 10.04 4 12C4 16.42 7.58 20 12 20C13.96 20 15.74 19.3 17.14 18.14L18.56 19.56C16.8 21.08 14.5 22 12 22C6.48 22 2 17.52 2 12C2 9.5 2.92 7.2 4.44 5.44L5.86 6.86Z" fill="#202022"/>
<path id="Vector_3" d="M20 12C20 10.08 19.32 8.31999 18.2 6.93999L19.62 5.51999C21.1 7.25999 22 9.51999 22 12C22 14.44 21.12 16.68 19.68 18.4L18.26 16.98C19.34 15.62 20 13.88 20 12Z" fill="#202022"/>
<path id="Vector_4" d="M15.2 7.39999H8.79999V16.6H15.2V14.72H11.14V13.02H14.6V11.08H11.14V9.29999H15.2V7.39999Z" fill="#202022"/>
</g>
</svg>
