<svg width="24" height="24" viewBox="0 0 24 24" fill="none" xmlns="http://www.w3.org/2000/svg">
<g id="Type=Outline">
<path id="Vector" d="M11.156 14.47V12.97H8.906V11.47H10.595L7.625 8.49996L8.686 7.43896L11.906 10.659L15.126 7.43896L16.187 8.49996L13.217 11.47H14.906V12.97H12.656V14.47H14.906V15.97H12.656V17.97H11.156V15.97H8.906V14.47H11.156Z" fill="#202022"/>
<path id="Vector_2" d="M12 1.00696L12.589 1.75596C13.253 2.59996 14.701 3.46796 16.633 3.91896C18.311 4.30996 19.886 4.27696 20.998 3.94896L21.818 3.70796L21.951 4.55196C23.762 16.07 16.941 21.767 12.18 22.947L12 22.992L11.82 22.947C7.059 21.767 0.237997 16.07 2.049 4.55196L2.182 3.70796L3.002 3.94896C4.114 4.27596 5.689 4.30996 7.367 3.91896C9.3 3.46796 10.747 2.59996 11.411 1.75596L12.001 1.00696H12ZM12 3.30996C10.982 4.23096 9.451 4.97396 7.707 5.37996C6.188 5.73396 4.686 5.79296 3.419 5.57996C2.18 15.585 8.049 20.367 12 21.445C15.951 20.367 21.82 15.585 20.581 5.57996C19.313 5.79296 17.811 5.73396 16.293 5.37996C14.549 4.97296 13.018 4.22996 12 3.30996Z" fill="#202022"/>
</g>
</svg>
