<svg width="24" height="24" viewBox="0 0 24 24" fill="none" xmlns="http://www.w3.org/2000/svg">
<g id="Type=Outline">
<path id="Vector" d="M9.90599 11.47H12.156V9.96997H9.92099C10.042 8.98397 10.883 8.21997 11.902 8.21997C12.921 8.21997 13.762 8.98397 13.883 9.96997H15.389C15.263 8.15497 13.75 6.71997 11.901 6.71997C10.052 6.71997 8.53999 8.15397 8.41299 9.96997H7.15399V11.47H8.40399V12.97H7.15399V14.47H8.41299C8.53899 16.286 10.053 17.72 11.901 17.72C13.749 17.72 15.263 16.286 15.389 14.47H13.883C13.762 15.456 12.921 16.22 11.902 16.22C10.883 16.22 10.042 15.456 9.92099 14.47H12.156V12.97H9.90599V11.47Z" fill="#202022"/>
<path id="Vector_2" d="M12.59 1.75706L12.001 1.00806L11.411 1.75706C10.747 2.60106 9.3 3.46906 7.367 3.92006C5.689 4.31106 4.114 4.27806 3.002 3.95006L2.182 3.70906L2.049 4.55306C0.237997 16.0711 7.059 21.7681 11.82 22.9481L12 22.9931L12.18 22.9481C16.941 21.7681 23.762 16.0711 21.951 4.55306L21.818 3.70906L20.998 3.95006C19.886 4.27706 18.311 4.31106 16.633 3.92006C14.7 3.46906 13.253 2.60106 12.589 1.75706H12.59ZM7.707 5.38006C9.451 4.97306 10.982 4.23006 12 3.31006C13.018 4.23106 14.549 4.97306 16.293 5.38006C17.812 5.73406 19.314 5.79306 20.581 5.58006C21.82 15.5851 15.951 20.3671 12 21.4451C8.049 20.3671 2.18 15.5851 3.419 5.58006C4.687 5.79306 6.189 5.73406 7.707 5.38006Z" fill="#202022"/>
</g>
</svg>
