<svg width="24" height="24" viewBox="0 0 24 24" fill="none" xmlns="http://www.w3.org/2000/svg">
<g id="Type=Filled">
<path id="Vector" d="M12 1.00696L11.41 1.75596C10.746 2.59996 9.29901 3.46796 7.366 3.91896C5.688 4.30996 4.113 4.27696 3.001 3.94896L2.181 3.70796L2.048 4.55196C0.237005 16.07 7.058 21.767 11.819 22.947L11.999 22.992L12.179 22.947C16.94 21.767 23.761 16.07 21.95 4.55196L21.817 3.70796L20.997 3.94896C19.885 4.27596 18.31 4.30996 16.632 3.91896C14.699 3.46796 13.252 2.59996 12.588 1.75596L11.999 1.00696H12ZM7.72 8.01596L8.781 6.95496L12.001 10.175L15.221 6.95496L16.282 8.01596L13.312 10.986H15.001V12.486H12.751V13.986H15.001V15.486H12.751V17.486H11.251V15.486H9.00101V13.986H11.251V12.486H9.00101V10.986H10.69L7.72 8.01596Z" fill="#202022"/>
</g>
</svg>
