<svg width="24" height="24" viewBox="0 0 24 24" fill="none" xmlns="http://www.w3.org/2000/svg">
<g id="Type=Filled">
<path id="Vector" d="M12 1.03699L11.41 1.78599C10.746 2.62999 9.29902 3.49799 7.36602 3.94899C5.68802 4.33999 4.11302 4.30699 3.00102 3.97899L2.18102 3.73799L2.04802 4.58199C0.23702 16.1 7.05802 21.797 11.819 22.977L11.999 23.022L12.179 22.977C16.94 21.797 23.761 16.1 21.95 4.58199L21.817 3.73799L20.997 3.97899C19.885 4.30599 18.31 4.33999 16.632 3.94899C14.699 3.49799 13.252 2.62999 12.588 1.78599L11.999 1.03699H12ZM12.75 6.24999V7.99999H14.5V9.49999H11.25C10.698 9.49999 10.25 9.94799 10.25 10.5C10.25 11.052 10.698 11.5 11.25 11.5H12.75C14.131 11.5 15.25 12.619 15.25 14C15.25 15.381 14.131 16.5 12.75 16.5V18.25H11.25V16.5H9.50002V15H12.75C13.302 15 13.75 14.552 13.75 14C13.75 13.448 13.302 13 12.75 13H11.25C9.86902 13 8.75002 11.881 8.75002 10.5C8.75002 9.11899 9.86902 7.99999 11.25 7.99999V6.24999H12.75Z" fill="#202022"/>
</g>
</svg>
