<svg width="24" height="24" viewBox="0 0 24 24" fill="none" xmlns="http://www.w3.org/2000/svg">
<g id="Type=Outline">
<path id="Vector" d="M12 14C13.105 14 14 13.105 14 12C14 10.895 13.105 10 12 10C10.895 10 10 10.895 10 12C10 13.104 10.895 14 12 14Z" fill="#202022"/>
<path id="Vector_2" d="M6.73596 11.938C6.73596 9.03899 9.08696 6.68799 11.986 6.68799C14.885 6.68799 17.236 9.03899 17.236 11.938C17.236 14.837 14.885 17.188 11.986 17.188C9.08696 17.188 6.73596 14.837 6.73596 11.938ZM11.986 8.18799C9.91496 8.18799 8.23596 9.86699 8.23596 11.938C8.23596 14.009 9.91496 15.688 11.986 15.688C14.057 15.688 15.736 14.009 15.736 11.938C15.736 9.86699 14.057 8.18799 11.986 8.18799Z" fill="#202022"/>
<path id="Vector_3" d="M0.156006 12L6.52001 5.63597C9.54701 2.60897 14.454 2.60897 17.48 5.63597L23.844 12L17.48 18.364C14.453 21.391 9.54601 21.391 6.52001 18.364L0.156006 12ZM2.27701 12L7.58001 17.303C10.021 19.744 13.978 19.744 16.419 17.303L21.722 12L16.419 6.69697C13.978 4.25597 10.021 4.25597 7.58001 6.69697L2.27701 12Z" fill="#202022"/>
</g>
</svg>
