<svg width="24" height="24" viewBox="0 0 24 24" fill="none" xmlns="http://www.w3.org/2000/svg">
<g id="Type=Filled">
<path id="Vector" d="M12 14C13.105 14 14 13.105 14 12C14 10.895 13.105 10 12 10C10.895 10 10 10.895 10 12C10 13.104 10.895 14 12 14Z" fill="#202022"/>
<path id="Vector_2" d="M6.52001 5.63597L0.156006 12L6.52001 18.364C9.54701 21.391 14.454 21.391 17.48 18.364L23.844 12L17.48 5.63597C14.453 2.60897 9.54601 2.60897 6.52001 5.63597ZM17 12C17 14.761 14.761 17 12 17C9.23901 17 7.00001 14.761 7.00001 12C7.00001 9.23897 9.23901 6.99997 12 6.99997C14.761 6.99997 17 9.23897 17 12Z" fill="#202022"/>
</g>
</svg>
