<svg width="24" height="24" viewBox="0 0 24 24" fill="none" xmlns="http://www.w3.org/2000/svg">
<g id="Type=Outline">
<path id="Vector" d="M3.34201 13.097L13.312 3.12697C15.4 1.03897 18.785 1.03897 20.873 3.12697C22.961 5.21497 22.961 8.59997 20.873 10.688L10.903 20.658H4.40301L2.62301 22.438L1.56201 21.377L3.34201 19.597V13.097ZM19.812 4.18797C18.31 2.68597 15.875 2.68597 14.373 4.18797L4.84301 13.718V18.097L16.563 6.37697L17.624 7.43797L11.904 13.158H16.283L19.813 9.62797C21.315 8.12597 21.315 5.69097 19.813 4.18897L19.812 4.18797ZM14.781 14.658H10.402L5.90201 19.158H10.281L14.781 14.658Z" fill="#202022"/>
</g>
</svg>
