<svg width="24" height="24" viewBox="0 0 24 24" fill="none" xmlns="http://www.w3.org/2000/svg">
<g id="Type=Outline">
<path id="Vector" d="M16.171 11.166C16.61 10.727 16.61 10.015 16.171 9.57501L15.674 9.07901C15.235 8.64001 14.523 8.64001 14.084 9.07901L13.386 9.77701L15.473 11.864L16.171 11.166Z" fill="#202022"/>
<path id="Vector_2" d="M12.325 10.838L14.412 12.925L10.088 17.25L7.5 17.751L8.001 15.163L12.325 10.838Z" fill="#202022"/>
<path id="Vector_3" d="M8.75 1.5V3H4.25V22.5H19.75V3H15.25V1.5H8.75ZM15.25 6V4.5H18.25V21H5.75V4.5H8.75V6H15.25ZM10.25 3H13.75V4.5H10.25V3Z" fill="#202022"/>
</g>
</svg>
