<svg width="24" height="24" viewBox="0 0 24 24" fill="none" xmlns="http://www.w3.org/2000/svg">
<g id="Type=Outline">
<path id="Vector" d="M10.036 1.40405C7.96501 1.40405 6.28601 3.08305 6.28601 5.15405C6.28601 7.22505 7.96501 8.90405 10.036 8.90405C12.107 8.90405 13.786 7.22505 13.786 5.15405C13.786 3.08305 12.107 1.40405 10.036 1.40405ZM7.78601 5.15405C7.78601 3.91105 8.79301 2.90405 10.036 2.90405C11.279 2.90405 12.286 3.91105 12.286 5.15405C12.286 6.39705 11.279 7.40405 10.036 7.40405C8.79301 7.40405 7.78601 6.39705 7.78601 5.15405Z" fill="#202022"/>
<path id="Vector_2" d="M13.036 10.9931C13.036 8.87305 14.755 7.15405 16.875 7.15405C18.995 7.15405 20.714 8.87305 20.714 10.9931C20.714 12.7511 19.532 14.2331 17.92 14.6881L18.912 16.2031L17.515 18.1221L18.912 20.0411L16.876 22.5961L15.596 20.6771V14.6141C14.105 14.0871 13.037 12.6651 13.037 10.9941L13.036 10.9931ZM16.872 10.6411C17.424 10.6411 17.872 10.1931 17.872 9.64105C17.872 9.08905 17.424 8.64105 16.872 8.64105C16.32 8.64105 15.872 9.08905 15.872 9.64105C15.872 10.1931 16.32 10.6411 16.872 10.6411Z" fill="#202022"/>
<path id="Vector_3" d="M14.095 17.9041V16.4041H4.78599V15.7561C4.78599 13.6351 6.52299 11.9041 8.67899 11.9041H11.614C11.53 11.4181 11.514 10.8991 11.569 10.4041H8.67999C5.70799 10.4041 3.28699 12.7941 3.28699 15.7561V17.9041H14.095Z" fill="#202022"/>
</g>
</svg>
