<svg width="24" height="24" viewBox="0 0 24 24" fill="none" xmlns="http://www.w3.org/2000/svg">
<g id="Type=Filled">
<path id="Vector" d="M6.25 5C6.25 2.929 7.929 1.25 10 1.25C12.071 1.25 13.75 2.929 13.75 5C13.75 7.071 12.071 8.75 10 8.75C7.929 8.75 6.25 7.071 6.25 5Z" fill="#202022"/>
<path id="Vector_2" d="M13 10.839C13 10.639 13.015 10.442 13.045 10.25C13.328 8.409 14.919 7 16.839 7C18.959 7 20.678 8.719 20.678 10.839C20.678 12.597 19.496 14.079 17.884 14.534L18.876 16.049L17.48 17.968L18.877 19.887L16.841 22.441L15.561 20.522V14.459C14.07 13.932 13.002 12.51 13.002 10.839H13ZM16.836 10.487C17.388 10.487 17.836 10.039 17.836 9.487C17.836 8.935 17.388 8.487 16.836 8.487C16.284 8.487 15.836 8.935 15.836 9.487C15.836 10.039 16.284 10.487 16.836 10.487Z" fill="#202022"/>
<path id="Vector_3" d="M14.059 17.75V15.397C12.525 14.46 11.5 12.77 11.5 10.839C11.5 10.64 11.511 10.444 11.532 10.25H8.643C5.671 10.25 3.25 12.64 3.25 15.602V17.75H14.059Z" fill="#202022"/>
</g>
</svg>
