<svg width="24" height="24" viewBox="0 0 24 24" fill="none" xmlns="http://www.w3.org/2000/svg">
<g id="Type=Filled" clip-path="url(#clip0_7223_344)">
<path id="Shape" d="M17.5 11.875C14.32 11.875 11.75 14.445 11.75 17.625C11.75 20.805 14.32 23.375 17.5 23.375C20.68 23.375 23.25 20.805 23.25 17.625C23.25 14.445 20.68 11.875 17.5 11.875ZM16.53 20.465L14 17.935L15.06 16.875L16.53 18.345L20 14.875L21.06 15.935L16.53 20.465ZM7.7 12.685H9.3C10.15 12.685 10.91 13.085 11.41 13.695C12.49 12.025 14.22 10.835 16.25 10.485V5.565L11.31 0.625H0.75V21.125H11.15C10.58 20.085 10.25 18.895 10.25 17.625C10.25 17.115 10.3 16.605 10.41 16.125H5V15.385C5 13.895 6.21 12.685 7.7 12.685ZM11 2.435L14.44 5.875H11V2.435ZM8.5 7.625C9.6 7.625 10.5 8.525 10.5 9.625C10.5 10.725 9.6 11.625 8.5 11.625C7.4 11.625 6.5 10.725 6.5 9.625C6.5 8.525 7.4 7.625 8.5 7.625Z" fill="#202022"/>
</g>
<defs>
<clipPath id="clip0_7223_344">
<rect width="24" height="24" fill="white"/>
</clipPath>
</defs>
</svg>
