<svg width="24" height="24" viewBox="0 0 24 24" fill="none" xmlns="http://www.w3.org/2000/svg">
<g id="Type= Outline">
<g id="Shape">
<path fill-rule="evenodd" clip-rule="evenodd" d="M12.625 0.375H6.125V1.875H1.625V21.375H12.456C12.1737 20.9117 11.9192 20.4108 11.7011 19.875H3.125V3.375H6.125V4.875H12.625V3.375H15.625V13.125H17.125V1.875H12.625V0.375ZM7.625 3.375V1.875H11.125V3.375H7.625Z" fill="#202022"/>
<path d="M8.125 7.875H10.625V10.375H13.125V12.875H10.625V15.375H8.125V12.875H5.625V10.375H8.125V7.875Z" fill="#202022"/>
<path d="M17.375 23.625C19.5631 23.0816 22.7563 19.8378 22.3376 14.625H12.4124C11.9937 19.8378 15.1869 23.0816 17.375 23.625Z" fill="#202022"/>
</g>
</g>
</svg>
