<svg width="24" height="24" viewBox="0 0 24 24" fill="none" xmlns="http://www.w3.org/2000/svg">
<g id="Type=Outline" clip-path="url(#clip0_7223_342)">
<path id="Shape" d="M2.25 19.625V2.125H10.5V6.375H14.75V10.915C15.23 10.715 15.73 10.575 16.25 10.485V5.565L11.31 0.625H0.75V21.125H11.15C10.89 20.655 10.68 20.155 10.53 19.625H2.25ZM6.5 9.625C6.5 10.725 7.4 11.625 8.5 11.625C9.6 11.625 10.5 10.725 10.5 9.625C10.5 8.525 9.6 7.625 8.5 7.625C7.4 7.625 6.5 8.525 6.5 9.625ZM17.5 11.875C14.91 11.875 12.72 13.585 12 15.945C11.98 16.005 11.96 16.065 11.95 16.125C11.82 16.605 11.75 17.105 11.75 17.625C11.75 20.805 14.32 23.375 17.5 23.375C20.68 23.375 23.25 20.805 23.25 17.625C23.25 14.445 20.68 11.875 17.5 11.875ZM16.53 20.465L14 17.935L15.06 16.875L16.53 18.345L20 14.875L21.06 15.935L16.53 20.465ZM9.3 12.685H7.7C6.21 12.685 5 13.895 5 15.385V16.125H10.41C10.59 15.245 10.94 14.425 11.41 13.695C10.92 13.075 10.16 12.685 9.3 12.685Z" fill="#202022"/>
</g>
<defs>
<clipPath id="clip0_7223_342">
<rect width="24" height="24" fill="white"/>
</clipPath>
</defs>
</svg>
