<svg width="24" height="24" viewBox="0 0 24 24" fill="none" xmlns="http://www.w3.org/2000/svg">
<g id="Type=Outline">
<path id="Vector" d="M17.196 11.125L12 2.125L6.804 11.125H17.196ZM14.598 9.625H9.402L12 5.125L14.598 9.625Z" fill="#202022"/>
<path id="Vector_2" d="M12.25 17.125C12.25 14.502 14.377 12.375 17 12.375C19.623 12.375 21.75 14.502 21.75 17.125C21.75 19.748 19.623 21.875 17 21.875C14.377 21.875 12.25 19.748 12.25 17.125ZM17 13.875C15.205 13.875 13.75 15.33 13.75 17.125C13.75 18.92 15.205 20.375 17 20.375C18.795 20.375 20.25 18.92 20.25 17.125C20.25 15.33 18.795 13.875 17 13.875Z" fill="#202022"/>
<path id="Vector_3" d="M2.25 12.875H10.75V21.375H2.25V12.875ZM3.75 14.375V19.875H9.25V14.375H3.75Z" fill="#202022"/>
</g>
</svg>
