<svg width="24" height="24" viewBox="0 0 24 24" fill="none" xmlns="http://www.w3.org/2000/svg">
<g id="Type=Outline">
<path id="Vector" d="M8.665 3.91102C6.771 4.49002 5.062 5.51802 3.788 6.89402C3.152 6.34402 2.75 5.53102 2.75 4.62402C2.75 2.96702 4.093 1.62402 5.75 1.62402C7.161 1.62402 8.344 2.59902 8.665 3.91102Z" fill="#202022"/>
<path id="Vector_2" d="M17.75 10.625C17.75 11.177 17.302 11.625 16.75 11.625C16.198 11.625 15.75 11.177 15.75 10.625C15.75 10.073 16.198 9.625 16.75 9.625C17.302 9.625 17.75 10.073 17.75 10.625Z" fill="#202022"/>
<path id="Vector_3" d="M16.75 2.875C15.143 2.875 13.724 3.673 12.865 4.892C12.662 4.881 12.457 4.875 12.25 4.875C7.576 4.875 3.507 7.834 3.044 11.858C2.452 11.76 2 11.245 2 10.625V9.625H0.5V10.625C0.5 12.074 1.62 13.261 3.042 13.367C3.266 15.356 4.382 17.1 6 18.342V22.375H10.5V20.237C11.067 20.328 11.652 20.375 12.25 20.375C12.848 20.375 13.433 20.328 14 20.237V22.375H18.5V18.342C19.392 17.657 20.13 16.822 20.652 15.875H21.75C22.716 15.875 23.5 15.092 23.5 14.125V11.125C23.5 10.159 22.717 9.375 21.75 9.375H20.652C20.13 8.428 19.392 7.592 18.5 6.908V2.875H16.75ZM13.912 6.04C14.469 5.045 15.532 4.375 16.75 4.375H17V7.678L17.32 7.902C18.304 8.59 19.059 9.465 19.512 10.441L19.714 10.875H21.751C21.889 10.875 22.001 10.987 22.001 11.125V14.125C22.001 14.263 21.889 14.375 21.751 14.375H19.714L19.512 14.809C19.059 15.785 18.304 16.659 17.32 17.348L17 17.572V20.875H15.5V18.354L14.566 18.59C13.836 18.775 13.058 18.875 12.25 18.875C11.442 18.875 10.664 18.775 9.934 18.59L9 18.354V20.875H7.5V17.572L7.18 17.348C5.506 16.177 4.5 14.475 4.5 12.625C4.5 9.303 7.827 6.375 12.25 6.375C12.567 6.375 12.879 6.39 13.185 6.42L13.673 6.467L13.912 6.04Z" fill="#202022"/>
</g>
</svg>
