<svg width="24" height="24" viewBox="0 0 24 24" fill="none" xmlns="http://www.w3.org/2000/svg">
<g id="Type=Filled">
<path id="Vector" d="M3.92299 12C4.13299 10.379 5.01399 8.92298 6.33399 7.82498L6.37899 7.78798C7.17899 7.13198 8.13699 6.60698 9.20199 6.25398C10.182 5.92898 11.253 5.74998 12.374 5.74998C12.715 5.74998 13.051 5.76698 13.381 5.79898C14.065 4.57698 15.373 3.74998 16.874 3.74998H17.874V7.41298C18.954 8.16798 19.801 9.14198 20.316 10.25H21.874C22.426 10.25 22.874 10.698 22.874 11.25V14.25C22.874 14.802 22.426 15.25 21.874 15.25H20.316C19.801 16.359 18.954 17.332 17.874 18.087V21.75H14.874V19.442C14.084 19.642 13.244 19.75 12.374 19.75C11.504 19.75 10.664 19.642 9.87399 19.442V21.75H6.87399V18.087C5.25599 16.955 4.15899 15.333 3.92199 13.5H3.87399C2.35499 13.5 1.12399 12.269 1.12399 10.75V9.74998H2.62399V10.75C2.62399 11.44 3.18399 12 3.87399 12H3.92199H3.92299ZM4.44799 7.54998C5.69199 6.19198 7.40099 5.18598 9.31699 4.66098C9.04299 3.28598 7.82999 2.25098 6.37499 2.25098C4.71799 2.25098 3.37499 3.59398 3.37499 5.25098C3.37499 6.17398 3.79199 6.99898 4.44799 7.54998ZM16.875 11.75C17.427 11.75 17.875 11.302 17.875 10.75C17.875 10.198 17.427 9.74998 16.875 9.74998C16.323 9.74998 15.875 10.198 15.875 10.75C15.875 11.302 16.323 11.75 16.875 11.75Z" fill="#202022"/>
</g>
</svg>
