<svg width="24" height="24" viewBox="0 0 24 24" fill="none" xmlns="http://www.w3.org/2000/svg">
<g id="Fingerprint">
<path id="Vector" d="M7.308 4.99999C10.085 3.07599 13.782 3.05099 16.582 4.92599C17.023 5.22099 17.442 5.56399 17.833 5.95499C19.444 7.56599 20.249 9.67599 20.249 11.789V13.127C20.249 15.141 19.924 17.142 19.288 19.052L20.711 19.526C21.399 17.463 21.749 15.302 21.749 13.127V11.789C21.749 9.29499 20.797 6.79799 18.893 4.89499C18.433 4.43499 17.938 4.02999 17.416 3.68099C14.104 1.46399 9.737 1.49299 6.453 3.76899L7.307 5.00199L7.308 4.99999Z" fill="#202022"/>
<path id="Vector_2" d="M3.74999 11.788C3.74999 9.67601 4.55499 7.56501 6.16599 5.95401L5.10499 4.89301C3.20099 6.79701 2.24899 9.293 2.24899 11.787V12.027C2.24899 14.221 4.12399 15.946 6.30999 15.764C8.25399 15.602 9.74899 13.977 9.74899 12.027V11.787C9.74899 10.544 10.756 9.537 11.999 9.537C13.242 9.537 14.249 10.544 14.249 11.787V12.208C14.249 13.905 13.726 15.561 12.75 16.95L12.294 17.599C11.587 18.606 10.634 19.417 9.52699 19.954L8.17099 20.612L8.82599 21.961L10.182 21.303C11.518 20.654 12.667 19.676 13.521 18.46L13.977 17.811C15.13 16.17 15.748 14.213 15.748 12.207V11.786C15.748 9.71501 14.069 8.03601 11.998 8.03601C9.92699 8.03601 8.24799 9.71501 8.24799 11.786V12.026C8.24799 13.196 7.35099 14.171 6.18499 14.268C4.87299 14.377 3.74799 13.342 3.74799 12.026V11.786L3.74999 11.788Z" fill="#202022"/>
<path id="Vector_3" d="M12 6.53799C14.371 6.53799 16.377 8.10999 17.028 10.271L18.464 9.83799C17.628 7.06099 15.051 5.03699 12 5.03699C8.272 5.03699 5.25 8.05899 5.25 11.787C5.25 12.067 5.267 12.343 5.3 12.615L6.789 12.433C6.763 12.222 6.75 12.006 6.75 11.788C6.75 8.88799 9.101 6.53799 12 6.53799Z" fill="#202022"/>
<path id="Vector_4" d="M18.75 12.504V11.788H17.25V12.504C17.25 13.798 17.056 15.085 16.674 16.321C16.314 17.485 15.773 18.584 15.071 19.579L14.622 20.214L15.847 21.079L16.296 20.444C17.09 19.32 17.701 18.078 18.107 16.763C18.533 15.383 18.75 13.948 18.75 12.504Z" fill="#202022"/>
<path id="Vector_5" d="M11.25 11.288V12.151C11.25 13.257 10.907 14.332 10.272 15.232L11.498 16.097C12.311 14.945 12.75 13.568 12.75 12.152V11.289L11.25 11.288Z" fill="#202022"/>
<path id="Vector_6" d="M9.37301 16.217C8.51201 16.95 7.43401 17.398 6.28801 17.48L5.44601 17.54L5.55301 19.036L6.39501 18.976C7.86201 18.871 9.24301 18.298 10.346 17.359L9.37301 16.217Z" fill="#202022"/>
</g>
</svg>
