<svg width="24" height="24" viewBox="0 0 24 24" fill="none" xmlns="http://www.w3.org/2000/svg">
<g id="Type=Outline">
<path id="Vector" d="M12.079 4.074C9.146 2.642 5.353 2.642 2.421 4.074L2 4.28V21.75H3.5V17.235C5.957 16.2 9.042 16.264 11.421 17.426C14.354 18.858 18.147 18.858 21.079 17.426L21.5 17.22V3.547L20.421 4.074C17.904 5.303 14.597 5.303 12.079 4.074ZM3.5 15.628V5.231C5.957 4.196 9.042 4.26 11.421 5.422C14.005 6.684 17.257 6.834 20 5.872V16.269C17.543 17.304 14.458 17.24 12.079 16.078C9.495 14.816 6.243 14.666 3.5 15.628Z" fill="#202022"/>
</g>
</svg>
