<svg width="24" height="24" viewBox="0 0 24 24" fill="none" xmlns="http://www.w3.org/2000/svg">
<g id="Type=Filled">
<path id="Vector" d="M9.62499 1.125V3.941C10.24 4.051 10.81 4.292 11.303 4.636L13.294 2.645L14.355 3.706L12.364 5.697C12.708 6.19 12.95 6.76 13.06 7.375H15.876V8.875H13.06C12.95 9.49 12.708 10.06 12.364 10.553L14.355 12.544L13.294 13.605L11.303 11.614C10.81 11.958 10.24 12.2 9.62499 12.31V15.126H8.12499V12.31C7.50899 12.2 6.93999 11.958 6.44599 11.614L4.45499 13.605L3.39399 12.544L5.38499 10.553C5.04099 10.06 4.79999 9.491 4.68999 8.876H1.87399V7.376H4.68999C4.79999 6.761 5.04099 6.192 5.38499 5.699L3.39299 3.707L4.45399 2.646L6.44499 4.637C6.93799 4.293 7.50799 4.051 8.12399 3.941V1.125H9.62399H9.62499Z" fill="#202022"/>
<path id="Vector_2" d="M10.124 17.722L8.541 17.165L9.182 18.716C10.19 21.156 12.593 22.875 15.4 22.875C19.114 22.875 22.125 19.863 22.125 16.148C22.125 13.776 20.897 11.691 19.046 10.495L17.638 9.58502L17.898 11.241C17.945 11.541 17.97 11.849 17.97 12.163C17.97 15.417 15.333 18.054 12.081 18.054C11.394 18.054 10.736 17.937 10.125 17.722H10.124Z" fill="#202022"/>
</g>
</svg>
