<svg width="24" height="24" viewBox="0 0 24 24" fill="none" xmlns="http://www.w3.org/2000/svg">
<g id="Type=Outline">
<path id="Vector" d="M9.625 3.941V1.125H8.125V3.941C7.509 4.051 6.94 4.293 6.447 4.637L4.456 2.646L3.395 3.707L5.386 5.698C5.042 6.191 4.801 6.76 4.691 7.375H1.875V8.875H4.691C4.8 9.49 5.042 10.059 5.386 10.552L3.395 12.544L4.456 13.605L6.447 11.614C6.94 11.958 7.51 12.2 8.126 12.31V15.126H9.626V12.31C10.241 12.2 10.811 11.958 11.304 11.614L13.295 13.605L14.356 12.544L12.365 10.553C12.709 10.06 12.951 9.49 13.06 8.875H15.876V7.375H13.06C12.95 6.76 12.708 6.19 12.364 5.697L14.355 3.706L13.294 2.645L11.303 4.636C10.81 4.292 10.24 4.05 9.625 3.941ZM6.125 8.125C6.125 6.606 7.356 5.375 8.875 5.375C10.394 5.375 11.625 6.606 11.625 8.125C11.625 9.644 10.394 10.875 8.875 10.875C7.356 10.875 6.125 9.644 6.125 8.125Z" fill="#202022"/>
<path id="Vector_2" d="M10.124 17.722L8.54102 17.165L9.18202 18.716C10.19 21.156 12.593 22.875 15.4 22.875C19.114 22.875 22.125 19.863 22.125 16.148C22.125 13.776 20.897 11.691 19.046 10.495L17.638 9.58502L17.898 11.241C17.945 11.541 17.97 11.849 17.97 12.163C17.97 15.417 15.333 18.054 12.081 18.054C11.394 18.054 10.736 17.937 10.125 17.722H10.124ZM15.4 21.375C13.802 21.375 12.37 20.657 11.411 19.525C11.632 19.545 11.855 19.555 12.08 19.555C15.936 19.555 19.101 16.601 19.439 12.833C20.18 13.736 20.625 14.89 20.625 16.148C20.625 19.035 18.285 21.375 15.4 21.375Z" fill="#202022"/>
</g>
</svg>
