<svg width="24" height="24" viewBox="0 0 24 24" fill="none" xmlns="http://www.w3.org/2000/svg">
<g id="Type=Filled">
<path id="Vector" d="M16.311 10L11.407 2.867C11.034 2.324 10.417 2 9.759 2H7.811L10.811 10H6.311L5.411 8.8C5.033 8.296 4.441 8 3.811 8H1.811L3.798 12.769C4.109 13.514 4.837 14 5.644 14H10.811L7.811 22H9.759C10.418 22 11.034 21.676 11.407 21.133L16.311 14H19.568C20.364 14 21.127 13.684 21.689 13.121L21.75 13.06C22.336 12.474 22.336 11.524 21.75 10.939L21.689 10.878C21.126 10.315 20.363 9.999 19.568 9.999H16.311V10Z" fill="#202022"/>
</g>
</svg>
