<svg width="24" height="24" viewBox="0 0 24 24" fill="none" xmlns="http://www.w3.org/2000/svg">
<g id="Type=Outline">
<path id="Vector" d="M6.91599 1.25H9.94599C10.852 1.25 11.699 1.696 12.212 2.442L16.892 9.25H19.755C20.75 9.25 21.703 9.645 22.407 10.348L22.468 10.409C23.347 11.288 23.347 12.712 22.468 13.591L22.407 13.652C21.704 14.355 20.75 14.75 19.755 14.75H16.892L12.212 21.558C11.699 22.304 10.852 22.75 9.94599 22.75H6.91599L9.91599 14.75H5.83199C4.72199 14.75 3.72099 14.082 3.29399 13.058L0.873993 7.25H3.99899C4.86499 7.25 5.67999 7.658 6.19899 8.35L6.87399 9.25H9.91699L6.91599 1.25ZM9.07999 2.75L12.08 10.75H6.12299L4.99799 9.25C4.76199 8.935 4.39099 8.75 3.99799 8.75H3.12299L4.67699 12.481C4.87099 12.947 5.32599 13.25 5.83099 13.25H12.08L9.07999 21.25H9.94599C10.358 21.25 10.743 21.047 10.976 20.708L16.103 13.25H19.755C20.352 13.25 20.924 13.013 21.346 12.591L21.407 12.53C21.7 12.237 21.7 11.762 21.407 11.469L21.346 11.408C20.924 10.986 20.352 10.749 19.755 10.749H16.103L10.976 3.291C10.743 2.952 10.358 2.749 9.94599 2.749L9.07999 2.75Z" fill="#202022"/>
</g>
</svg>
