<svg width="24" height="24" viewBox="0 0 24 24" fill="none" xmlns="http://www.w3.org/2000/svg">
<g id="Folder Open">
<path id="Vector" d="M4.25 19.5C3.764 19.5 3.351 19.33 3.011 18.989C2.671 18.648 2.5 18.236 2.5 17.75V6.30798C2.5 5.82198 2.68 5.39898 3.039 5.03998C3.398 4.68098 3.821 4.50098 4.307 4.50098H9.797L11.797 6.50098H19.691C20.138 6.50098 20.524 6.64598 20.849 6.93498C21.174 7.22398 21.361 7.57998 21.413 8.00098H11.184L9.184 6.00098H4.307C4.217 6.00098 4.144 6.02998 4.086 6.08798C4.028 6.14598 3.999 6.21898 3.999 6.30898V17.694C3.999 17.764 4.017 17.822 4.052 17.867C4.087 17.912 4.134 17.95 4.191 17.982L6.524 10.194H23.182L20.761 18.259C20.647 18.635 20.433 18.936 20.12 19.162C19.807 19.388 19.459 19.501 19.077 19.501L4.25 19.5ZM5.763 18H19.269L21.156 11.692H7.65L5.763 18Z" fill="#202022"/>
</g>
</svg>
