<svg width="24" height="24" viewBox="0 0 24 24" fill="none" xmlns="http://www.w3.org/2000/svg">
<g id="Font Color Filled">
<path id="Shape" fill-rule="evenodd" clip-rule="evenodd" d="M21.3391 12.3951C20.1491 10.3251 18.0391 9.12512 15.8191 8.99512C14.7991 8.93512 13.9691 8.48512 13.6991 7.79512C13.4891 7.27512 13.5891 6.60512 13.9491 6.00512C14.2291 5.55512 14.5091 4.98512 14.6591 4.38512C14.7991 3.78512 14.8191 3.07512 14.4491 2.41512C13.4191 0.655117 11.4991 0.555117 9.97912 0.935117H9.96912H9.95912C9.09912 1.18512 8.25912 1.54512 7.44912 2.00512C1.99912 5.15512 0.129123 12.1151 3.27912 17.5551C6.41912 22.9951 13.3791 24.8651 18.8191 21.7151H18.8391C22.0991 19.8251 23.2191 15.6451 21.3391 12.3851V12.3951ZM6.56912 15.8251C5.73912 15.8251 5.06912 15.1551 5.06912 14.3251C5.06912 13.4951 5.73912 12.8251 6.56912 12.8251C7.39912 12.8251 8.06912 13.4951 8.06912 14.3251C8.06912 15.1551 7.39912 15.8251 6.56912 15.8251ZM6.56912 11.3151C5.73912 11.3151 5.06912 10.6451 5.06912 9.81512C5.06912 8.98512 5.73912 8.31512 6.56912 8.31512C7.39912 8.31512 8.06912 8.98512 8.06912 9.81512C8.06912 10.6451 7.39912 11.3151 6.56912 11.3151ZM9.12912 7.75512C8.29912 7.75512 7.62912 7.08512 7.62912 6.25512C7.62912 5.42512 8.29912 4.75512 9.12912 4.75512C9.95912 4.75512 10.6291 5.42512 10.6291 6.25512C10.6291 7.08512 9.95912 7.75512 9.12912 7.75512ZM16.4991 18.0051C15.1191 18.0051 13.9991 16.8851 13.9991 15.5051C13.9991 14.1251 15.1191 13.0051 16.4991 13.0051C17.8791 13.0051 18.9991 14.1251 18.9991 15.5051C18.9991 16.8851 17.8791 18.0051 16.4991 18.0051Z" fill="#202022"/>
</g>
</svg>
