<svg width="24" height="24" viewBox="0 0 24 24" fill="none" xmlns="http://www.w3.org/2000/svg">
<g id="Type=Outline">
<path id="Vector" d="M18 1.93896L23.061 6.99996L9.591 20.47C8.733 21.328 7.353 21.348 6.471 20.53L5 22.001H1L4.471 18.53C3.652 17.648 3.672 16.268 4.531 15.41L18.001 1.93996L18 1.93896ZM18 4.06096L9.561 12.5L12.5 15.439L20.939 6.99996L18 4.06096ZM5.591 16.47L8.5 13.561L11.439 16.5L8.53 19.409C8.237 19.702 7.762 19.702 7.469 19.409L5.59 17.53C5.297 17.237 5.297 16.762 5.59 16.469L5.591 16.47Z" fill="#202022"/>
</g>
</svg>
