<svg width="24" height="24" viewBox="0 0 24 24" fill="none" xmlns="http://www.w3.org/2000/svg">
<g id="Forward 10 Seconds">
<path id="Vector" d="M9.879 1.57199L10.94 0.510986L14.299 3.86999L10.94 7.22899L9.879 6.16799L11.546 4.50099C9.459 4.60899 7.406 5.45899 5.813 7.05199C2.396 10.469 2.396 16.009 5.813 19.426C9.23 22.843 14.77 22.843 18.187 19.426C19.956 17.657 20.81 15.319 20.747 13H22.247C22.31 15.701 21.31 18.424 19.248 20.487C15.245 24.49 8.755 24.49 4.752 20.487C0.748998 16.484 0.748998 9.99399 4.752 5.99099C6.58 4.16299 8.928 3.16999 11.318 3.01099L9.878 1.57099L9.879 1.57199Z" fill="#202022"/>
<path id="Vector_2" d="M10.942 11.658C10.942 10.132 12.179 8.89502 13.705 8.89502C15.231 8.89502 16.468 10.132 16.468 11.658V14.342C16.468 15.868 15.231 17.105 13.705 17.105C12.179 17.105 10.942 15.868 10.942 14.342V11.658ZM13.706 10.395C13.008 10.395 12.443 10.96 12.443 11.658V14.342C12.443 15.04 13.009 15.605 13.706 15.605C14.403 15.605 14.969 15.039 14.969 14.342V11.658C14.969 10.96 14.403 10.395 13.706 10.395Z" fill="#202022"/>
<path id="Vector_3" d="M9.758 9.02899H7.219V10.529H8.258V16.937H9.758V9.02899Z" fill="#202022"/>
</g>
</svg>
