<svg width="24" height="24" viewBox="0 0 24 24" fill="none" xmlns="http://www.w3.org/2000/svg">
<g id="Type=Outline">
<path id="Vector" d="M23 4.75H1V3.25H23V4.75Z" fill="#202022"/>
<path id="Vector_2" d="M23 20.75H1V19.25H23V20.75Z" fill="#202022"/>
<path id="Vector_3" d="M11.143 7.75C9.77401 7.75 8.72601 8.904 8.72601 10.25C8.72601 11.596 9.77401 12.75 11.143 12.75H12.334C12.806 12.75 13.251 13.163 13.251 13.75C13.251 14.337 12.807 14.75 12.334 14.75H9.00101V16.25H12.334C13.703 16.25 14.751 15.096 14.751 13.75C14.751 12.404 13.703 11.25 12.334 11.25H11.143C10.671 11.25 10.226 10.837 10.226 10.25C10.226 9.663 10.67 9.25 11.143 9.25H14V7.75H11.143Z" fill="#202022"/>
<path id="Vector_4" d="M15.75 10.5C15.75 8.843 17.093 7.5 18.75 7.5C20.407 7.5 21.75 8.843 21.75 10.5V16.25H20.25V12.75H17.25V16.25H15.75V10.5ZM20.25 11.25V10.5C20.25 9.672 19.578 9 18.75 9C17.922 9 17.25 9.672 17.25 10.5V11.25H20.25Z" fill="#202022"/>
<path id="Vector_5" d="M2.25 7.75H8V9.25H3.75V11.25H6V12.75H3.75V16.25H2.25V7.75Z" fill="#202022"/>
</g>
</svg>
