<svg width="24" height="24" viewBox="0 0 24 24" fill="none" xmlns="http://www.w3.org/2000/svg">
<g id="Type=Filled">
<path id="Vector" d="M20.25 11.25V10.5C20.25 9.672 19.578 9 18.75 9C17.922 9 17.25 9.672 17.25 10.5V11.25H20.25Z" fill="#202022"/>
<path id="Vector_2" d="M24 4H0V20H24V4ZM15.75 10.5C15.75 8.843 17.093 7.5 18.75 7.5C20.407 7.5 21.75 8.843 21.75 10.5V16.25H20.25V12.75H17.25V16.25H15.75V10.5ZM8.726 10.25C8.726 8.904 9.774 7.75 11.143 7.75H14V9.25H11.143C10.671 9.25 10.226 9.663 10.226 10.25C10.226 10.837 10.67 11.25 11.143 11.25H12.333C13.702 11.25 14.75 12.404 14.75 13.75C14.75 15.096 13.702 16.25 12.333 16.25H9V14.75H12.333C12.805 14.75 13.25 14.337 13.25 13.75C13.25 13.163 12.806 12.75 12.333 12.75H11.143C9.774 12.75 8.726 11.596 8.726 10.25ZM8 7.75V9.25H3.75V11.25H6V12.75H3.75V16.25H2.25V7.75H8Z" fill="#202022"/>
</g>
</svg>
