<svg width="24" height="24" viewBox="0 0 24 24" fill="none" xmlns="http://www.w3.org/2000/svg">
<g id="Function">
<path id="Vector" d="M14.302 2.24899C12.91 2.24899 11.705 3.21599 11.403 4.57399L10.364 9.24899H8.021V10.749H10.031L8.176 19.098C8.027 19.77 7.43 20.249 6.741 20.249C5.929 20.249 5.271 19.591 5.271 18.779V18.544H3.771V18.779C3.771 20.419 5.101 21.749 6.741 21.749C8.133 21.749 9.338 20.782 9.64 19.424L11.568 10.749H14.022V9.24899H11.901L12.867 4.89999C13.016 4.22799 13.613 3.74899 14.301 3.74899C15.113 3.74899 15.771 4.40699 15.771 5.21899V5.45399H17.271V5.21899C17.271 3.57899 15.942 2.24899 14.301 2.24899H14.302Z" fill="#202022"/>
<path id="Vector_2" d="M15.108 15.146C14.948 14.265 13.926 13.967 13.335 14.559L12.273 13.499C13.75 12.019 16.216 12.849 16.584 14.879L16.673 15.368L18.256 12.975H20.038V14.475H19.062L17.059 17.502L17.394 19.351C17.554 20.232 18.576 20.53 19.167 19.938L20.229 20.998C18.752 22.478 16.286 21.648 15.918 19.618L15.862 19.31L14.319 21.641H12.537V20.141H13.513L15.475 17.176L15.107 15.145L15.108 15.146Z" fill="#202022"/>
</g>
</svg>
