<svg width="24" height="24" viewBox="0 0 24 24" fill="none" xmlns="http://www.w3.org/2000/svg">
<g id="Type=Filled">
<path id="Vector" d="M16.463 2.76998C15.327 2.21998 14.073 1.87298 12.75 1.77698V3.28198C13.801 3.37098 14.799 3.64598 15.71 4.07398L16.463 2.76998Z" fill="#202022"/>
<path id="Vector_2" d="M17.761 3.521L17.009 4.824C17.852 5.414 18.586 6.148 19.176 6.991L20.479 6.239C19.752 5.171 18.829 4.248 17.761 3.521Z" fill="#202022"/>
<path id="Vector_3" d="M6.991 19.1751C6.148 18.5851 5.414 17.8511 4.824 17.0081L3.521 17.7601C4.248 18.8281 5.171 19.7511 6.238 20.4781L6.99 19.1751H6.991Z" fill="#202022"/>
<path id="Vector_4" d="M7.53699 21.23L8.28999 19.927C9.20199 20.355 10.2 20.629 11.25 20.719V22.224C9.92699 22.128 8.67299 21.782 7.53699 21.231V21.23Z" fill="#202022"/>
<path id="Vector_5" d="M22.223 12.75C22.127 14.073 21.781 15.327 21.23 16.463L19.927 15.71C20.355 14.798 20.629 13.8 20.719 12.75H22.224H22.223Z" fill="#202022"/>
<path id="Vector_6" d="M19.176 17.009L20.479 17.762C19.752 18.83 18.829 19.753 17.762 20.479L17.009 19.176C17.852 18.586 18.586 17.852 19.176 17.009Z" fill="#202022"/>
<path id="Vector_7" d="M12.75 20.718C13.801 20.629 14.799 20.354 15.711 19.926L16.464 21.229C15.328 21.78 14.074 22.126 12.751 22.222V20.717L12.75 20.718Z" fill="#202022"/>
<path id="Vector_8" d="M11.25 3.28195C10.199 3.37095 9.20199 3.64595 8.28999 4.07395L7.53699 2.77095C8.67299 2.22095 9.92699 1.87395 11.25 1.77795V3.28195Z" fill="#202022"/>
<path id="Vector_9" d="M6.991 4.824L6.239 3.521C5.171 4.248 4.248 5.171 3.521 6.239L4.824 6.991C5.414 6.148 6.148 5.414 6.991 4.824Z" fill="#202022"/>
<path id="Vector_10" d="M1.777 11.25C1.873 9.92699 2.219 8.67299 2.77 7.53699L4.073 8.28999C3.645 9.20199 3.371 10.2 3.281 11.25H1.777Z" fill="#202022"/>
<path id="Vector_11" d="M21.23 7.53701L19.927 8.28901C20.355 9.20101 20.629 10.199 20.719 11.249H22.224C22.128 9.92601 21.781 8.67201 21.231 7.53601L21.23 7.53701Z" fill="#202022"/>
<path id="Vector_12" d="M3.28198 12.75H1.77698C1.87298 14.073 2.21898 15.327 2.76998 16.463L4.07298 15.71C3.64498 14.798 3.37098 13.8 3.28098 12.75H3.28198Z" fill="#202022"/>
</g>
</svg>
