<svg width="24" height="24" viewBox="0 0 24 24" fill="none" xmlns="http://www.w3.org/2000/svg">
<g id="Type=Filled">
<path id="Vector" d="M18.962 20.553C17.343 21.859 15.328 22.6941 13.125 22.8491V20.592C14.708 20.449 16.161 19.86 17.359 18.951L18.962 20.5541V20.553Z" fill="#202022"/>
<path id="Vector_2" d="M22.849 13.125H20.592C20.449 14.708 19.86 16.161 18.951 17.359L20.554 18.962C21.86 17.343 22.693 15.328 22.849 13.125Z" fill="#202022"/>
<path id="Vector_3" d="M22.769 10.875H20.489C20.221 9.41499 19.568 8.08999 18.64 7.00699L20.235 5.41199C21.564 6.91199 22.471 8.79499 22.769 10.874V10.875Z" fill="#202022"/>
<path id="Vector_4" d="M13.125 1.901C15.153 2.044 17.022 2.763 18.57 3.896L16.954 5.511C15.839 4.766 14.533 4.285 13.125 4.158V1.901Z" fill="#202022"/>
<path id="Vector_5" d="M7.39102 5.79996C8.39702 5.03596 9.58302 4.49796 10.875 4.26096V1.98096C8.96602 2.25396 7.22202 3.04096 5.78802 4.19696L7.39102 5.79996Z" fill="#202022"/>
<path id="Vector_6" d="M5.80002 7.39096L4.19702 5.78796C3.04102 7.22196 2.25402 8.96496 1.98102 10.875H4.26102C4.49802 9.58296 5.03602 8.39696 5.80002 7.39096Z" fill="#202022"/>
<path id="Vector_7" d="M5.51198 16.954C4.76698 15.839 4.28598 14.533 4.15898 13.125H1.90198C2.04498 15.153 2.76398 17.022 3.89698 18.57L5.51198 16.954Z" fill="#202022"/>
<path id="Vector_8" d="M10.875 22.769C8.79502 22.472 6.91302 21.565 5.41302 20.235L7.00802 18.64C8.09002 19.568 9.41603 20.22 10.876 20.489V22.769H10.875Z" fill="#202022"/>
</g>
</svg>
