<svg width="24" height="24" viewBox="0 0 24 24" fill="none" xmlns="http://www.w3.org/2000/svg">
<g id="Type=Filled">
<path id="Vector" d="M5.276 1.80499C4.755 3.73399 3.234 5.25599 1.305 5.77599V7.22399C3.234 7.74499 4.756 9.26599 5.276 11.195H6.724C7.245 9.26599 8.766 7.74399 10.695 7.22399V5.77599C8.766 5.25499 7.244 3.73399 6.724 1.80499H5.276Z" fill="#202022"/>
<path id="Vector_2" d="M14.776 5.80499C13.927 8.94899 11.449 11.427 8.305 12.276V13.724C11.449 14.573 13.927 17.051 14.776 20.195H16.224C17.073 17.051 19.551 14.573 22.695 13.724V12.276C19.551 11.427 17.073 8.94899 16.224 5.80499H14.776Z" fill="#202022"/>
<path id="Vector_3" d="M6.776 15.804C6.452 17.004 5.505 17.951 4.305 18.275V19.723C5.505 20.047 6.452 20.994 6.776 22.194H8.224C8.548 20.994 9.495 20.047 10.695 19.723V18.275C9.495 17.951 8.548 17.004 8.224 15.804H6.776Z" fill="#202022"/>
</g>
</svg>
