<svg width="24" height="24" viewBox="0 0 24 24" fill="none" xmlns="http://www.w3.org/2000/svg">
<g id="Type=Outline">
<path id="Vector" d="M1.304 5.77599C3.233 5.25499 4.755 3.73399 5.275 1.80499H6.723C7.244 3.73399 8.765 5.25599 10.694 5.77599V7.22399C8.765 7.74499 7.243 9.26599 6.723 11.195H5.275C4.754 9.26599 3.233 7.74399 1.304 7.22399V5.77599ZM3.426 6.49999C4.49 7.12099 5.379 8.00999 6 9.07399C6.621 8.00999 7.51 7.12099 8.574 6.49999C7.51 5.87899 6.621 4.98999 6 3.92599C5.379 4.98999 4.49 5.87899 3.426 6.49999Z" fill="#202022"/>
<path id="Vector_2" d="M8.304 12.276C11.448 11.427 13.926 8.94899 14.775 5.80499H16.223C17.072 8.94899 19.55 11.427 22.694 12.276V13.724C19.55 14.573 17.072 17.051 16.223 20.195H14.775C13.926 17.051 11.448 14.573 8.304 13.724V12.276ZM10.616 13C12.735 14.042 14.457 15.765 15.5 17.884C16.542 15.765 18.265 14.043 20.384 13C18.265 11.958 16.542 10.235 15.5 8.11599C14.458 10.235 12.735 11.957 10.616 13Z" fill="#202022"/>
<path id="Vector_3" d="M6.776 15.804C6.452 17.004 5.505 17.951 4.305 18.275V19.723C5.505 20.047 6.452 20.994 6.776 22.194H8.224C8.548 20.994 9.495 20.047 10.695 19.723V18.275C9.495 17.951 8.548 17.004 8.224 15.804H6.776ZM7.5 20.252C7.16 19.764 6.736 19.34 6.248 19C6.736 18.66 7.16 18.236 7.5 17.748C7.84 18.236 8.264 18.66 8.752 19C8.264 19.34 7.84 19.764 7.5 20.252Z" fill="#202022"/>
</g>
</svg>
