<svg width="24" height="24" viewBox="0 0 24 24" fill="none" xmlns="http://www.w3.org/2000/svg">
<g id="Type=Filled">
<path id="Shape" fill-rule="evenodd" clip-rule="evenodd" d="M12.375 2.25C13.8938 2.25 15.125 3.48122 15.125 5V10.3203C17.1146 10.6745 18.625 12.4126 18.625 14.5039V16.2578C18.625 16.81 19.0728 17.2577 19.625 17.2578C20.1772 17.2578 20.625 16.8101 20.625 16.2578V9.91113L19.7266 9.33496C19.3255 9.07763 19.0492 8.6695 18.9561 8.20801L18.9277 8.00684L18.8252 6.78125L16.4463 5.40723L16.8213 4.75781L17.1973 4.1084L21.25 6.4502L21.3496 6.51172C21.8321 6.83511 22.125 7.37991 22.125 7.96582V16.2578C22.125 17.6385 21.0057 18.7578 19.625 18.7578C18.2444 18.7577 17.125 17.6385 17.125 16.2578V14.5039C17.125 13.2452 16.2791 12.186 15.125 11.8594V20.25H16.875V21.75H1.875V20.25H3.625V5C3.625 3.48122 4.85622 2.25 6.375 2.25H12.375ZM6.125 9.75098H12.625V4.75H6.125V9.75098Z" fill="#202022"/>
</g>
</svg>
