<svg width="24" height="24" viewBox="0 0 24 24" fill="none" xmlns="http://www.w3.org/2000/svg">
<g id="Type=Filled">
<path id="Vector" d="M11.25 5.13696V8.86296H12.75V5.13696C18.89 5.52396 23.75 10.626 23.75 16.863V17.613H15.419C15.472 17.371 15.5 17.121 15.5 16.863C15.5 16.168 15.297 15.52 14.948 14.976L19.03 10.894L17.969 9.83296L13.887 13.915C13.342 13.566 12.695 13.363 12 13.363C10.067 13.363 8.5 14.93 8.5 16.863C8.5 17.121 8.528 17.371 8.581 17.613H0.25V16.863C0.25 13.888 1.355 11.172 3.178 9.10196L5.587 11.511L6.648 10.45L4.239 8.04096C6.134 6.37296 8.57 5.30496 11.25 5.13696Z" fill="#202022"/>
<path id="Vector_2" d="M14 16.863C14 17.968 13.105 18.863 12 18.863C10.895 18.863 10 17.968 10 16.863C10 15.759 10.895 14.863 12 14.863C13.105 14.863 14 15.759 14 16.863Z" fill="#202022"/>
</g>
</svg>
