<svg width="24" height="24" viewBox="0 0 24 24" fill="none" xmlns="http://www.w3.org/2000/svg">
<g id="Type=Outline">
<path id="Vector" d="M1.777 16.125H5V17.625H0.25V16.875C0.25 10.386 5.511 5.125 12 5.125C18.489 5.125 23.75 10.386 23.75 16.875V17.625H19V16.125H22.223C21.857 11.062 17.813 7.018 12.75 6.652V9.875H11.25V6.652C8.983 6.816 6.921 7.717 5.302 9.116L7.648 11.462L6.587 12.523L4.241 10.177C2.842 11.797 1.941 13.859 1.777 16.125Z" fill="#202022"/>
<path id="Vector_2" d="M14 16.875C14 17.98 13.105 18.875 12 18.875C10.895 18.875 10 17.98 10 16.875C10 15.77 10.895 14.875 12 14.875C12.277 14.875 12.541 14.931 12.781 15.033L17.47 10.344L18.531 11.405L13.842 16.094C13.944 16.334 14 16.598 14 16.875Z" fill="#202022"/>
</g>
</svg>
