<svg width="24" height="24" viewBox="0 0 24 24" fill="none" xmlns="http://www.w3.org/2000/svg">
<g id="Type=Outline">
<path id="Vector" d="M9.625 12.5H11.875V11H9.64C9.761 10.014 10.602 9.25 11.621 9.25C12.64 9.25 13.481 10.014 13.602 11H15.108C14.982 9.185 13.469 7.75 11.62 7.75C9.771 7.75 8.259 9.184 8.132 11H6.873V12.5H8.123V14H6.873V15.5H8.132C8.258 17.316 9.772 18.75 11.62 18.75C13.468 18.75 14.981 17.315 15.108 15.5H13.602C13.481 16.486 12.64 17.25 11.621 17.25C10.602 17.25 9.761 16.486 9.64 15.5H11.875V14H9.625V12.5Z" fill="#202022"/>
<path id="Vector_2" d="M5.625 1.75H18.891V3.25H5.625C5.211 3.25 4.875 3.586 4.875 4C4.875 4.414 5.211 4.75 5.625 4.75H18.875V7.25H20.625V9.75H18.875V12.25H20.625V14.75H18.875V17.25H20.625V19.75H18.875V22.25H3.375V4C3.375 2.757 4.382 1.75 5.625 1.75ZM4.875 6.122V20.75H17.375V6.25H5.625C5.362 6.25 5.11 6.205 4.875 6.122Z" fill="#202022"/>
</g>
</svg>
