<svg width="24" height="24" viewBox="0 0 24 24" fill="none" xmlns="http://www.w3.org/2000/svg">
<g id="Type=Filled">
<path id="Vector" d="M6.5 1.75C5.257 1.75 4.25 2.757 4.25 4V22.25H19.75V19.75H21.5V17.25H19.75V14.75H21.5V12.25H19.75V9.75H21.5V7.25H19.75V4.75H6.5C6.086 4.75 5.75 4.414 5.75 4C5.75 3.586 6.086 3.25 6.5 3.25H19.766V1.75H6.5ZM12.75 7.5V9.25H14.5V10.75H11.25C10.698 10.75 10.25 11.198 10.25 11.75C10.25 12.302 10.698 12.75 11.25 12.75H12.75C14.131 12.75 15.25 13.869 15.25 15.25C15.25 16.631 14.131 17.75 12.75 17.75V19.5H11.25V17.75H9.5V16.25H12.75C13.302 16.25 13.75 15.802 13.75 15.25C13.75 14.698 13.302 14.25 12.75 14.25H11.25C9.869 14.25 8.75 13.131 8.75 11.75C8.75 10.369 9.869 9.25 11.25 9.25V7.5H12.75Z" fill="#202022"/>
</g>
</svg>
