<svg width="24" height="24" viewBox="0 0 24 24" fill="none" xmlns="http://www.w3.org/2000/svg">
<g id="Type=Outline">
<path id="Vector" d="M11.75 8C10.162 8 8.875 9.287 8.875 10.875V12.75H7.625V14.25H8.875V16C8.875 16.69 8.315 17.25 7.625 17.25V18.75H14.625V17.25H10.075C10.267 16.875 10.375 16.45 10.375 16V14.25H12.625V12.75H10.375V10.875C10.375 10.116 10.991 9.5 11.75 9.5C12.509 9.5 13.125 10.116 13.125 10.875V11.5H14.625V10.875C14.625 9.287 13.338 8 11.75 8Z" fill="#202022"/>
<path id="Vector_2" d="M5.625 1.75H18.891V3.25H5.625C5.211 3.25 4.875 3.586 4.875 4C4.875 4.414 5.211 4.75 5.625 4.75H18.875V7.25H20.625V9.75H18.875V12.25H20.625V14.75H18.875V17.25H20.625V19.75H18.875V22.25H3.375V4C3.375 2.757 4.382 1.75 5.625 1.75ZM4.875 6.122V20.75H17.375V6.25H5.625C5.362 6.25 5.11 6.205 4.875 6.122Z" fill="#202022"/>
</g>
</svg>
