<svg width="24" height="24" viewBox="0 0 24 24" fill="none" xmlns="http://www.w3.org/2000/svg">
<g id="Type=Filled">
<path id="Vector" d="M6.5 1.75H19.766V3.25H6.5C6.086 3.25 5.75 3.586 5.75 4C5.75 4.414 6.086 4.75 6.5 4.75H19.75V7.25H21.5V9.75H19.75V12.25H21.5V14.75H19.75V17.25H21.5V19.75H19.75V22.25H4.25V4C4.25 2.757 5.257 1.75 6.5 1.75ZM12.254 7.938C10.406 7.938 8.893 9.372 8.766 11.188H7.507V12.688H8.757V14.188H7.507V15.688H8.766C8.892 17.504 10.406 18.938 12.254 18.938C14.102 18.938 15.615 17.503 15.742 15.688H14.236C14.115 16.674 13.274 17.438 12.255 17.438C11.236 17.438 10.395 16.674 10.274 15.688H12.509V14.188H10.259V12.688H12.509V11.188H10.274C10.395 10.202 11.236 9.438 12.255 9.438C13.274 9.438 14.115 10.202 14.236 11.188H15.742C15.616 9.373 14.103 7.938 12.254 7.938Z" fill="#202022"/>
</g>
</svg>
