<svg width="24" height="24" viewBox="0 0 24 24" fill="none" xmlns="http://www.w3.org/2000/svg">
<g id="Type=Filled">
<path id="Vector" d="M5.625 1.75C4.382 1.75 3.375 2.757 3.375 4V22.25H18.875V19.75H20.625V17.25H18.875V14.75H20.625V12.25H18.875V9.75H20.625V7.25H18.875V4.75H5.625C5.211 4.75 4.875 4.414 4.875 4C4.875 3.586 5.211 3.25 5.625 3.25H18.891V1.75H5.625ZM6.907 9.374L7.968 8.313L11.188 11.533L14.408 8.313L15.469 9.374L12.499 12.344H14.188V13.844H11.938V15.344H14.188V16.844H11.938V18.844H10.438V16.844H8.188V15.344H10.438V13.844H8.188V12.344H9.877L6.907 9.374Z" fill="#202022"/>
</g>
</svg>
