<svg width="24" height="24" viewBox="0 0 24 24" fill="none" xmlns="http://www.w3.org/2000/svg">
<g id="Type=Filled">
<path id="Vector" d="M5.625 1.75H18.891V3.25H5.625C5.211 3.25 4.875 3.586 4.875 4C4.875 4.414 5.211 4.75 5.625 4.75H18.875V7.25H20.625V9.75H18.875V12.25H20.625V14.75H18.875V17.25H20.625V19.75H18.875V22.25H3.375V4C3.375 2.757 4.382 1.75 5.625 1.75ZM7.469 8.191V9.691H9.972C10.951 9.691 11.784 10.317 12.093 11.191H7.469V12.691H12.092C11.783 13.563 10.951 14.187 9.973 14.187H7.47V15.558L12.014 19.033L12.925 17.841L10.105 15.684C11.858 15.623 13.306 14.358 13.645 12.69H14.969V11.19H13.646C13.534 10.636 13.299 10.126 12.972 9.69H14.969V8.19H7.469V8.191Z" fill="#202022"/>
</g>
</svg>
