<svg width="24" height="24" viewBox="0 0 24 24" fill="none" xmlns="http://www.w3.org/2000/svg">
<g id="Type=Outline">
<path id="Vector" d="M10.375 15V13.5H8.12499V12H9.81399L6.84399 9.02999L7.90499 7.96899L11.125 11.189L14.345 7.96899L15.406 9.02999L12.436 12H14.125V13.5H11.875V15H14.125V16.5H11.875V18.5H10.375V16.5H8.12499V15H10.375Z" fill="#202022"/>
<path id="Vector_2" d="M3.375 4V22.25H18.875V19.75H20.625V17.25H18.875V14.75H20.625V12.25H18.875V9.75H20.625V7.25H18.875V4.75H5.625C5.211 4.75 4.875 4.414 4.875 4C4.875 3.586 5.211 3.25 5.625 3.25H18.891V1.75H5.625C4.382 1.75 3.375 2.757 3.375 4ZM4.875 20.75V6.122C5.11 6.205 5.362 6.25 5.625 6.25H17.375V20.75H4.875Z" fill="#202022"/>
</g>
</svg>
