<svg width="24" height="24" viewBox="0 0 24 24" fill="none" xmlns="http://www.w3.org/2000/svg">
<g id="Type=Outline">
<path id="Vector" d="M10.375 9.5C8.994 9.5 7.875 10.619 7.875 12C7.875 13.381 8.994 14.5 10.375 14.5H11.875C12.427 14.5 12.875 14.948 12.875 15.5C12.875 16.052 12.427 16.5 11.875 16.5H8.625V18H10.375V19.75H11.875V18C13.256 18 14.375 16.881 14.375 15.5C14.375 14.119 13.256 13 11.875 13H10.375C9.823 13 9.375 12.552 9.375 12C9.375 11.448 9.823 11 10.375 11H13.625V9.5H11.875V7.75H10.375V9.5Z" fill="#202022"/>
<path id="Vector_2" d="M5.625 1.75H18.891V3.25H5.625C5.211 3.25 4.875 3.586 4.875 4C4.875 4.414 5.211 4.75 5.625 4.75H18.875V7.25H20.625V9.75H18.875V12.25H20.625V14.75H18.875V17.25H20.625V19.75H18.875V22.25H3.375V4C3.375 2.757 4.382 1.75 5.625 1.75ZM4.875 6.122V20.75H17.375V6.25H5.625C5.362 6.25 5.11 6.205 4.875 6.122Z" fill="#202022"/>
</g>
</svg>
