<svg width="24" height="24" viewBox="0 0 24 24" fill="none" xmlns="http://www.w3.org/2000/svg">
<g id="Type=Outline">
<path id="Vector" d="M7.371 11.254H11.995C11.687 10.38 10.854 9.75403 9.874 9.75403H7.371V8.25403H14.871V9.75403H12.874C13.201 10.19 13.436 10.7 13.548 11.254H14.871V12.754H13.547C13.207 14.422 11.76 15.687 10.006 15.748L12.826 17.905L11.915 19.097L7.371 15.622V14.251H9.874C10.852 14.251 11.684 13.627 11.993 12.755H7.37V11.255L7.371 11.254Z" fill="#202022"/>
<path id="Vector_2" d="M5.625 1.75H18.891V3.25H5.625C5.211 3.25 4.875 3.586 4.875 4C4.875 4.414 5.211 4.75 5.625 4.75H18.875V7.25H20.625V9.75H18.875V12.25H20.625V14.75H18.875V17.25H20.625V19.75H18.875V22.25H3.375V4C3.375 2.757 4.382 1.75 5.625 1.75ZM4.875 6.122V20.75H17.375V6.25H5.625C5.362 6.25 5.11 6.205 4.875 6.122Z" fill="#202022"/>
</g>
</svg>
