<svg width="24" height="24" viewBox="0 0 24 24" fill="none" xmlns="http://www.w3.org/2000/svg">
<g id="Type=Filled">
<path id="Vector" d="M5.625 1.75H18.891V3.25H5.625C5.211 3.25 4.875 3.586 4.875 4C4.875 4.414 5.211 4.75 5.625 4.75H18.875V7.25H20.625V9.75H18.875V12.25H20.625V14.75H18.875V17.25H20.625V19.75H18.875V22.25H3.375V4C3.375 2.757 4.382 1.75 5.625 1.75ZM11.719 8.094C10.131 8.094 8.844 9.381 8.844 10.969V12.844H7.594V14.344H8.844V16.094C8.844 16.784 8.284 17.344 7.594 17.344V18.844H14.594V17.344H10.044C10.236 16.969 10.344 16.544 10.344 16.094V14.344H12.594V12.844H10.344V10.969C10.344 10.21 10.96 9.594 11.719 9.594C12.478 9.594 13.094 10.21 13.094 10.969V11.594H14.594V10.969C14.594 9.381 13.307 8.094 11.719 8.094Z" fill="#202022"/>
</g>
</svg>
