<svg width="24" height="24" viewBox="0 0 24 24" fill="none" xmlns="http://www.w3.org/2000/svg">
<g id="Type=Filled">
<path id="Vector" d="M24 4H0V20H24V4ZM2.5 10.5C2.5 8.843 3.843 7.5 5.5 7.5C6.898 7.5 8.072 8.456 8.405 9.75H6.799C6.54 9.302 6.055 9 5.5 9C4.672 9 4 9.672 4 10.5V13.5C4 14.328 4.672 15 5.5 15C6.328 15 7 14.328 7 13.5H5.75V12H8.5V13.5C8.5 15.157 7.157 16.5 5.5 16.5C3.843 16.5 2.5 15.157 2.5 13.5V10.5ZM14.5 9.25H12.75V14.75H14.5V16.25H9.5V14.75H11.25V9.25H9.5V7.75H14.5V9.25ZM15.75 7.75H21.5V9.25H17.25V11.25H19.5V12.75H17.25V16.25H15.75V7.75Z" fill="#202022"/>
</g>
</svg>
