<svg width="24" height="24" viewBox="0 0 24 24" fill="none" xmlns="http://www.w3.org/2000/svg">
<g id="Type=Outline">
<path id="Vector" d="M1 4.75H23V3.25H1V4.75Z" fill="#202022"/>
<path id="Vector_2" d="M1 20.75H23V19.25H1V20.75Z" fill="#202022"/>
<path id="Vector_3" d="M9.5 9.25H11.25V14.75H9.5V16.25H14.5V14.75H12.75V9.25H14.5V7.75H9.5V9.25Z" fill="#202022"/>
<path id="Vector_4" d="M21.5 7.75H15.75V16.25H17.25V12.75H19.5V11.25H17.25V9.25H21.5V7.75Z" fill="#202022"/>
<path id="Vector_5" d="M2.5 10.5C2.5 8.843 3.843 7.5 5.5 7.5C7.157 7.5 8.5 8.843 8.5 10.5H7C7 9.672 6.328 9 5.5 9C4.672 9 4 9.672 4 10.5V13.5C4 14.328 4.672 15 5.5 15C6.328 15 7 14.328 7 13.5H5.75V12H8.5V13.5C8.5 15.157 7.157 16.5 5.5 16.5C3.843 16.5 2.5 15.157 2.5 13.5V10.5Z" fill="#202022"/>
</g>
</svg>
