<svg width="24" height="24" viewBox="0 0 24 24" fill="none" xmlns="http://www.w3.org/2000/svg">
<g id="Type=Filled">
<path id="Vector" d="M6.599 6.87398C6.442 6.58598 6.333 6.26798 6.282 5.92798C6.046 4.35798 7.127 2.89398 8.697 2.65798C10.099 2.44698 11.444 3.28998 11.867 4.64098C12.29 3.28998 13.635 2.44698 15.037 2.65798C16.607 2.89398 17.688 4.35798 17.452 5.92798C17.401 6.26798 17.292 6.58698 17.135 6.87398H22.25V11.374H1.75V6.87398H6.599ZM8.92 4.14098C8.17 4.25398 7.653 4.95398 7.766 5.70398C7.865 6.36498 8.425 6.85698 9.09 6.87298H10.985L10.438 5.09498C10.238 4.44498 9.593 4.03998 8.92 4.14098ZM12.75 6.87398H14.645C15.31 6.85698 15.869 6.36598 15.969 5.70498C16.082 4.95498 15.565 4.25498 14.814 4.14198C14.142 4.04098 13.496 4.44698 13.296 5.09698L12.749 6.87498L12.75 6.87398Z" fill="#202022"/>
<path id="Vector_2" d="M12.75 12.874H20.75V21.374H12.75V12.874Z" fill="#202022"/>
<path id="Vector_3" d="M11.25 12.874H3.25V21.374H11.25V12.874Z" fill="#202022"/>
</g>
</svg>
