<svg width="24" height="24" viewBox="0 0 24 24" fill="none" xmlns="http://www.w3.org/2000/svg">
<g id="Type=Outline">
<path id="Vector" d="M6.282 5.55197C6.046 3.98197 7.127 2.51797 8.697 2.28197C10.104 2.06997 11.453 2.91997 11.872 4.27897L12 4.69597L12.128 4.27897C12.546 2.91897 13.896 2.06997 15.303 2.28197C16.873 2.51797 17.954 3.98197 17.718 5.55197C17.667 5.89197 17.558 6.21097 17.401 6.49797H22.25V10.998H20.75V20.998H3.25V10.998H1.75V6.49797H6.599C6.442 6.20997 6.333 5.89197 6.282 5.55197ZM10.438 4.71997C10.238 4.06997 9.593 3.66397 8.92 3.76497C8.17 3.87797 7.653 4.57797 7.766 5.32797C7.865 5.98897 8.425 6.48098 9.09 6.49697H10.985L10.438 4.71997ZM14.91 6.49797C15.575 6.48097 16.134 5.98997 16.234 5.32897C16.347 4.57897 15.83 3.87897 15.08 3.76597C14.407 3.66497 13.762 4.07097 13.562 4.72097L13.015 6.49897L14.91 6.49797ZM12.75 7.99797V9.49797H20.75V7.99797H12.75ZM3.25 7.99797V9.49797H11.25V7.99797H3.25ZM19.25 10.998H12.75V19.498H19.25V10.998ZM11.25 10.998H4.75V19.498H11.25V10.998Z" fill="#202022"/>
</g>
</svg>
