<svg width="24" height="24" viewBox="0 0 24 24" fill="none" xmlns="http://www.w3.org/2000/svg">
<g id="Github">
<path id="Vector" d="M12 2.74999C6.755 2.74999 2.5 6.98999 2.5 12.217C2.5 16.399 5.239 19.941 8.969 21.219C9.435 21.277 9.61 20.987 9.61 20.754C9.61 20.521 9.61 19.941 9.61 19.128C6.987 19.709 6.404 17.85 6.404 17.85C5.996 16.747 5.355 16.456 5.355 16.456C4.481 15.875 5.413 15.875 5.413 15.875C6.346 15.933 6.87 16.862 6.87 16.862C7.744 18.314 9.085 17.907 9.609 17.675C9.667 17.036 9.959 16.63 10.192 16.397C8.094 16.165 5.879 15.352 5.879 11.693C5.879 10.648 6.229 9.83499 6.87 9.13799C6.812 8.96399 6.462 7.97599 6.987 6.69899C6.987 6.69899 7.803 6.46699 9.61 7.68599C10.368 7.45399 11.184 7.39599 12 7.39599C12.816 7.39599 13.632 7.51199 14.39 7.68599C16.197 6.46599 17.013 6.69899 17.013 6.69899C17.538 7.97699 17.188 8.96399 17.13 9.19599C17.713 9.83499 18.121 10.706 18.121 11.751C18.121 15.41 15.906 16.165 13.808 16.397C14.158 16.687 14.449 17.268 14.449 18.139C14.449 19.417 14.449 20.404 14.449 20.752C14.449 20.984 14.624 21.275 15.09 21.217C18.878 19.939 21.559 16.397 21.559 12.215C21.501 6.98799 17.246 2.74799 12.001 2.74799L12 2.74999Z" fill="#202022"/>
</g>
</svg>
