<svg width="24" height="24" viewBox="0 0 24 24" fill="none" xmlns="http://www.w3.org/2000/svg">
<g id="Type=Outline">
<path id="Vector" d="M1.75 12C1.75 17.661 6.339 22.25 12 22.25C17.661 22.25 22.25 17.661 22.25 12C22.25 6.345 17.671 1.76 12.019 1.75H11.981C6.329 1.76 1.75 6.345 1.75 12ZM9.012 11.25C9.084 9.002 9.473 7.01 10.046 5.558C10.365 4.75 10.726 4.147 11.089 3.758C11.446 3.376 11.751 3.253 11.991 3.25H12.011C12.251 3.253 12.556 3.376 12.913 3.758C13.276 4.147 13.637 4.75 13.956 5.558C14.529 7.01 14.919 9.002 14.99 11.25H9.014H9.012ZM14.988 12.75C14.916 14.998 14.527 16.99 13.954 18.442C13.635 19.25 13.274 19.853 12.911 20.242C12.549 20.629 12.241 20.75 12 20.75C11.759 20.75 11.45 20.629 11.089 20.242C10.726 19.853 10.365 19.25 10.046 18.442C9.473 16.99 9.083 14.998 9.012 12.75H14.988ZM16.489 12.75H20.719C20.417 16.308 17.986 19.259 14.704 20.324C14.944 19.924 15.159 19.476 15.35 18.993C16.004 17.337 16.417 15.151 16.489 12.75ZM20.718 11.25H16.488C16.416 8.85 16.002 6.663 15.348 5.007C15.157 4.524 14.942 4.076 14.703 3.676C17.984 4.741 20.415 7.692 20.718 11.25ZM7.511 11.25H3.282C3.584 7.692 6.015 4.741 9.296 3.676C9.056 4.076 8.841 4.524 8.651 5.007C7.997 6.663 7.583 8.849 7.511 11.25ZM7.511 12.75C7.583 15.15 7.997 17.337 8.651 18.993C8.842 19.476 9.057 19.924 9.297 20.324C6.016 19.259 3.584 16.308 3.282 12.75H7.511Z" fill="#202022"/>
</g>
</svg>
