<svg width="24" height="24" viewBox="0 0 24 24" fill="none" xmlns="http://www.w3.org/2000/svg">
<g id="Type=Filled">
<path id="Vector" d="M1.777 11.25H7.259C7.326 8.44197 7.768 5.88797 8.467 3.96497C8.721 3.26597 9.016 2.63297 9.351 2.09497C5.207 3.20097 2.097 6.83797 1.778 11.249L1.777 11.25Z" fill="#202022"/>
<path id="Vector_2" d="M1.777 12.75C2.096 17.161 5.206 20.799 9.35 21.904C9.015 21.367 8.72 20.733 8.466 20.034C7.767 18.112 7.325 15.557 7.258 12.75H1.777Z" fill="#202022"/>
<path id="Vector_3" d="M14.649 21.904C18.793 20.798 21.903 17.161 22.223 12.75H16.741C16.674 15.558 16.232 18.112 15.533 20.034C15.279 20.733 14.984 21.366 14.649 21.904Z" fill="#202022"/>
<path id="Vector_4" d="M22.223 11.2499C21.904 6.83895 18.794 3.20095 14.65 2.09595C14.985 2.63295 15.28 3.26695 15.534 3.96595C16.233 5.88795 16.675 8.44295 16.742 11.2509H22.224L22.223 11.2499Z" fill="#202022"/>
<path id="Vector_5" d="M11.993 1.75C11.995 1.75 11.998 1.75 12 1.75C12.002 1.75 12.005 1.75 12.007 1.75C12.258 1.752 12.592 1.892 12.989 2.353C13.387 2.816 13.78 3.53 14.124 4.478C14.753 6.207 15.174 8.58 15.241 11.25H8.76C8.827 8.581 9.248 6.207 9.877 4.478C10.222 3.53 10.614 2.816 11.012 2.353C11.409 1.892 11.743 1.752 11.994 1.75H11.993Z" fill="#202022"/>
<path id="Vector_6" d="M14.124 19.522C14.753 17.793 15.174 15.42 15.241 12.75H8.76C8.827 15.419 9.248 17.793 9.877 19.522C10.222 20.47 10.614 21.184 11.012 21.647C11.412 22.113 11.749 22.25 12 22.25C12.251 22.25 12.588 22.112 12.988 21.647C13.386 21.184 13.78 20.47 14.124 19.522Z" fill="#202022"/>
</g>
</svg>
