<svg width="23" height="24" viewBox="0 0 23 24" fill="none" xmlns="http://www.w3.org/2000/svg">
<g id="Type=Filled">
<path id="Vector" d="M16.719 5.06795V3.70295L19.102 1.31995V3.70295H21.485L19.102 6.08595H17.737L11.846 11.9769C11.564 11.8419 11.248 11.7659 10.915 11.7659C9.722 11.7659 8.755 12.7329 8.755 13.9259C8.755 15.1189 9.722 16.0859 10.915 16.0859C12.108 16.0859 13.075 15.1189 13.075 13.9259C13.075 13.5929 12.999 13.2769 12.865 12.9949L14.952 10.9079C15.582 11.7489 15.955 12.7939 15.955 13.9259C15.955 16.7099 13.699 18.9659 10.915 18.9659C8.131 18.9659 5.875 16.7099 5.875 13.9259C5.875 11.1419 8.131 8.88595 10.915 8.88595C11.509 8.88595 12.079 8.98895 12.609 9.17795L13.709 8.07795C12.863 7.67295 11.916 7.44595 10.915 7.44595C7.336 7.44595 4.435 10.3469 4.435 13.9259C4.435 17.5049 7.336 20.4059 10.915 20.4059C14.494 20.4059 17.395 17.5049 17.395 13.9259C17.395 12.3959 16.865 10.9899 15.978 9.88095L18.023 7.83595C19.427 9.47295 20.275 11.5999 20.275 13.9259C20.275 19.0949 16.084 23.2859 10.915 23.2859C5.746 23.2859 1.555 19.0949 1.555 13.9259C1.555 8.75695 5.746 4.56595 10.915 4.56595C12.717 4.56595 14.4 5.07495 15.829 5.95795L16.719 5.06795Z" fill="#202022"/>
</g>
</svg>
