<svg width="24" height="24" viewBox="0 0 24 24" fill="none" xmlns="http://www.w3.org/2000/svg">
<g id="Type=Outline">
<path id="Vector" d="M17.884 3.63305V5.05505L17.245 5.69505C15.54 4.23305 13.324 3.34905 10.901 3.34905C5.516 3.34905 1.151 7.71405 1.151 13.0991C1.151 18.4841 5.516 22.8491 10.901 22.8491C16.286 22.8491 20.651 18.4841 20.651 13.0991C20.651 11.2221 20.12 9.46805 19.201 7.98105L18.105 9.07705C18.771 10.2671 19.15 11.6391 19.15 13.1001C19.15 17.6561 15.456 21.3501 10.9 21.3501C6.344 21.3501 2.65 17.6561 2.65 13.1001C2.65 8.54405 6.344 4.85005 10.9 4.85005C12.908 4.85005 14.749 5.56705 16.179 6.76005L14.579 8.36005C13.563 7.57005 12.286 7.10005 10.9 7.10005C7.586 7.10005 4.9 9.78605 4.9 13.1001C4.9 16.4141 7.586 19.1001 10.9 19.1001C14.214 19.1001 16.9 16.4141 16.9 13.1001C16.9 12.2691 16.731 11.4771 16.425 10.7571L15.247 11.9351C15.346 12.3071 15.4 12.6971 15.4 13.1011C15.4 15.5861 13.385 17.6011 10.9 17.6011C8.415 17.6011 6.4 15.5861 6.4 13.1011C6.4 10.6161 8.415 8.60105 10.9 8.60105C11.872 8.60105 12.772 8.90905 13.507 9.43305L11.87 11.0701C11.576 10.9291 11.247 10.8511 10.9 10.8511C9.657 10.8511 8.65 11.8581 8.65 13.1011C8.65 14.3441 9.657 15.3511 10.9 15.3511C12.143 15.3511 13.15 14.3441 13.15 13.1011C13.15 12.7541 13.071 12.4251 12.931 12.1311L18.944 6.11805H20.365L22.847 3.63605H20.365V1.15405L17.883 3.63605L17.884 3.63305Z" fill="#202022"/>
</g>
</svg>
