<svg width="24" height="24" viewBox="0 0 24 24" fill="none" xmlns="http://www.w3.org/2000/svg">
<g id="Google">
<path id="Vector" d="M21.882 10.429L21.78 9.99299H12.295V14.007H17.962C17.373 16.801 14.644 18.271 12.413 18.271C10.79 18.271 9.079 17.59 7.948 16.492C6.786 15.364 6.046 13.703 6.046 11.992C6.046 10.281 6.806 8.60999 7.914 7.49699C9.017 6.38899 10.688 5.76199 12.35 5.76199C14.252 5.76199 15.615 6.77099 16.124 7.23199L18.977 4.39399C18.137 3.66099 15.838 1.80899 12.256 1.80899C9.491 1.80899 6.839 2.86699 4.903 4.79899C2.991 6.70099 2 9.45099 2 11.999C2 14.547 2.936 17.165 4.789 19.082C6.77 21.125 9.574 22.194 12.46 22.194C15.088 22.194 17.577 21.165 19.352 19.297C21.098 17.459 22 14.916 22 12.248C22 11.125 21.887 10.46 21.882 10.429Z" fill="#202022"/>
</g>
</svg>
