<svg width="24" height="24" viewBox="0 0 24 24" fill="none" xmlns="http://www.w3.org/2000/svg">
<g id="Type=Filled">
<g id="Shape">
<path d="M20.5615 12.5303L13.5312 19.5605L11.0312 17.0605L5.56152 22.5303L4.50098 21.4697L11.0312 14.9395L13.5312 17.4395L19.501 11.4697L20.5615 12.5303Z" fill="#202022"/>
<path d="M5.71094 11.3564C6.3502 11.6908 7.13605 11.8769 7.96387 11.877C8.79167 11.877 9.57838 11.6917 10.2178 11.3574V12.6201C10.2177 13.2326 9.20897 13.7294 7.96484 13.7295C6.72052 13.7295 5.71098 13.2327 5.71094 12.6201V11.3564Z" fill="#202022"/>
<path d="M16.2891 12.6201C16.2891 13.2327 15.2803 13.7294 14.0361 13.7295C12.7918 13.7295 11.7822 13.2327 11.7822 12.6201V11.3887C12.4245 11.7021 13.2069 11.8769 14.0303 11.877C14.8582 11.877 15.6448 11.7005 16.2891 11.3838V12.6201Z" fill="#202022"/>
<path d="M7.96387 8.05273C8.67269 8.05273 9.27957 8.23782 9.68555 8.49609C10.1004 8.7601 10.2178 9.03328 10.2178 9.21582C10.2174 9.39836 10.0998 9.67098 9.68555 9.93457C9.27957 10.1927 8.67252 10.377 7.96387 10.377C7.25514 10.3769 6.64807 10.1928 6.24219 9.93457C5.83691 9.67661 5.71626 9.40986 5.71094 9.22754V9.20312C5.71609 9.02082 5.83687 8.75418 6.24219 8.49609C6.64807 8.2378 7.25511 8.05282 7.96387 8.05273Z" fill="#202022"/>
<path d="M16.2891 9.48145C16.2177 9.61714 16.0762 9.77795 15.8125 9.93848C15.3923 10.1941 14.7639 10.377 14.0303 10.377C13.2966 10.3769 12.6682 10.1942 12.248 9.93848C11.9966 9.78535 11.8567 9.63158 11.7822 9.5V8.03223C12.4245 8.34561 13.2069 8.52044 14.0303 8.52051C14.8581 8.52051 15.6448 8.34397 16.2891 8.02734V9.48145Z" fill="#202022"/>
<path d="M11.7822 4.55273C12.4217 4.88727 13.2081 5.07321 14.0361 5.07324C14.8636 5.07317 15.6498 4.88777 16.2891 4.55371V6.125C16.2177 6.26079 16.0761 6.4216 15.8125 6.58203C15.3923 6.83757 14.7638 7.02051 14.0303 7.02051C13.2966 7.02042 12.6682 6.83774 12.248 6.58203C11.9966 6.42897 11.8567 6.2752 11.7822 6.14355V4.55273Z" fill="#202022"/>
<path d="M14.0361 1.25C14.7448 1.25008 15.3519 1.43417 15.7578 1.69238C16.1627 1.95022 16.2837 2.21712 16.2891 2.39941V2.42383C16.2837 2.60618 16.1631 2.87289 15.7578 3.13086C15.3519 3.3891 14.7448 3.57316 14.0361 3.57324C13.3276 3.5732 12.7204 3.38899 12.3145 3.13086C11.9004 2.86731 11.7826 2.59462 11.7822 2.41211C11.7822 2.22958 11.8997 1.95637 12.3145 1.69238C12.7204 1.4341 13.3273 1.25004 14.0361 1.25Z" fill="#202022"/>
</g>
</g>
</svg>
