<svg width="24" height="24" viewBox="0 0 24 24" fill="none" xmlns="http://www.w3.org/2000/svg">
<g id="Type=Outline">
<path id="Shape" d="M6.75195 13.24C7.30195 13.6 8.00195 13.79 8.75195 13.79C9.50195 13.79 10.202 13.59 10.752 13.24C10.852 13.18 10.942 13.11 11.022 13.03C11.092 13.09 11.172 13.15 11.242 13.2C11.792 13.56 12.492 13.75 13.242 13.75C13.982 13.75 14.692 13.55 15.242 13.2C15.782 12.85 16.242 12.28 16.242 11.54V8.8C16.242 8.8 16.242 8.72 16.242 8.69V5.94C16.242 5.94 16.242 5.86 16.242 5.83V3.08C16.242 3.08 16.242 3 16.242 2.97C16.242 2.94 16.242 2.89 16.242 2.86V2.84C16.192 2.17 15.752 1.64 15.242 1.32C14.702 0.94 13.992 0.75 13.252 0.75C12.512 0.75 11.802 0.94 11.252 1.3C10.752 1.63 10.312 2.15 10.252 2.82V6.81C9.80195 6.63 9.29195 6.52 8.76195 6.52C8.02195 6.52 7.31195 6.71 6.76195 7.07C6.22195 7.42 5.76195 7.99 5.76195 8.73C5.76195 8.77 5.76195 8.82 5.76195 8.86V11.72C5.82195 12.39 6.25195 12.92 6.76195 13.25L6.75195 13.24ZM12.072 2.56C12.342 2.39 12.762 2.25 13.252 2.25C13.752 2.25 14.162 2.38 14.432 2.56C14.672 2.71 14.732 2.85 14.742 2.93V2.99C14.732 3.06 14.672 3.2 14.432 3.36C14.162 3.53 13.752 3.67 13.252 3.67C12.752 3.67 12.342 3.54 12.072 3.36C11.792 3.18 11.752 3.02 11.752 2.96C11.752 2.9 11.792 2.74 12.072 2.56ZM11.752 4.87C12.202 5.06 12.722 5.16 13.252 5.16C13.782 5.16 14.292 5.06 14.742 4.87V5.84C14.732 5.91 14.672 6.05 14.432 6.21C14.162 6.38 13.752 6.52 13.252 6.52C12.752 6.52 12.342 6.39 12.072 6.21C11.792 6.03 11.752 5.87 11.752 5.81V4.86V4.87ZM11.752 7.73C12.202 7.92 12.722 8.02 13.252 8.02C13.782 8.02 14.292 7.92 14.742 7.73V8.7C14.732 8.77 14.672 8.91 14.432 9.07C14.162 9.24 13.752 9.38 13.252 9.38C12.752 9.38 12.342 9.25 12.072 9.07C11.792 8.89 11.752 8.73 11.752 8.67C11.752 8.67 11.752 8.62 11.752 8.6V7.72V7.73ZM11.752 10.6C12.202 10.79 12.722 10.89 13.252 10.89C13.782 10.89 14.292 10.79 14.742 10.6V11.54C14.742 11.61 14.702 11.77 14.422 11.95C14.152 12.12 13.742 12.26 13.242 12.26C12.742 12.26 12.332 12.13 12.062 11.95C11.792 11.77 11.742 11.61 11.742 11.54V10.6H11.752ZM7.57195 8.33C7.84195 8.16 8.25195 8.02 8.75195 8.02C9.25195 8.02 9.66195 8.15 9.93195 8.33C10.172 8.48 10.232 8.62 10.242 8.7V8.76C10.232 8.83 10.172 8.97 9.93195 9.13C9.66195 9.3 9.25195 9.44 8.75195 9.44C8.25195 9.44 7.84195 9.31 7.57195 9.13C7.29195 8.95 7.25195 8.79 7.25195 8.73C7.25195 8.67 7.29195 8.51 7.57195 8.33ZM7.25195 10.64C7.70195 10.83 8.22195 10.93 8.75195 10.93C9.28195 10.93 9.79195 10.83 10.242 10.64V11.57C10.242 11.64 10.202 11.8 9.92195 11.98C9.65195 12.15 9.24195 12.29 8.74195 12.29C8.24195 12.29 7.83195 12.16 7.56195 11.98C7.35195 11.85 7.28195 11.72 7.25195 11.64V11.57L7.24195 10.63L7.25195 10.64ZM19.502 11.47L13.532 17.44L11.032 14.94L4.50195 21.47L5.56195 22.53L11.032 17.06L13.532 19.56L20.562 12.53L19.502 11.47Z" fill="#202022"/>
</g>
</svg>
