<svg width="24" height="24" viewBox="0 0 24 24" fill="none" xmlns="http://www.w3.org/2000/svg">
<g id="Greenhouse">
<path id="Vector" d="M15.776 8.19901C15.772 8.68401 15.671 9.16401 15.478 9.60901C15.285 10.054 15.006 10.457 14.656 10.793C13.882 11.566 12.758 11.753 12.758 12.417C12.758 13.308 14.198 13.036 15.564 14.411C16.264 15.099 16.742 15.981 16.937 16.943C17.132 17.905 17.035 18.903 16.659 19.81C16.283 20.717 15.644 21.49 14.825 22.031C14.006 22.572 13.044 22.856 12.062 22.846C11.081 22.855 10.119 22.571 9.3 22.03C8.481 21.489 7.843 20.716 7.466 19.81C7.089 18.904 6.993 17.906 7.187 16.944C7.382 15.982 7.859 15.1 8.558 14.412C9.932 13.038 11.358 13.31 11.358 12.418C11.358 11.76 10.238 11.567 9.462 10.794C8.936 10.29 8.573 9.64101 8.421 8.92901C8.269 8.21701 8.333 7.47601 8.606 6.80101C8.879 6.12601 9.348 5.54801 9.953 5.14301C10.558 4.73801 11.27 4.52301 11.999 4.52601C12.386 4.52601 12.735 4.58401 13.025 4.58401C13.547 4.58401 13.825 4.35201 13.825 3.98401C13.825 3.77101 13.727 3.50401 13.727 3.21101C13.732 2.88501 13.866 2.57501 14.101 2.34801C14.217 2.23601 14.354 2.14701 14.504 2.08801C14.654 2.02901 14.814 1.99901 14.976 2.00201C15.138 2.00501 15.297 2.03901 15.445 2.10301C15.593 2.16701 15.727 2.26001 15.84 2.37601C15.953 2.49201 16.041 2.62901 16.1 2.77901C16.159 2.92901 16.189 3.08901 16.186 3.25101C16.186 3.96601 15.624 4.29401 15.199 4.45101C14.852 4.56601 14.58 4.72101 14.58 5.07001C14.58 5.72401 15.78 6.36401 15.78 8.20101H15.777L15.776 8.19901ZM15.392 17.914C15.392 15.994 13.979 14.45 12.064 14.45C10.149 14.45 8.736 15.999 8.736 17.914C8.736 19.829 10.149 21.376 12.064 21.376C13.979 21.376 15.392 19.806 15.392 17.914ZM14.25 8.15401C14.241 7.72301 14.105 7.30501 13.86 6.95101C13.615 6.59701 13.27 6.32401 12.869 6.16501C12.469 6.00601 12.03 5.96901 11.609 6.05901C11.188 6.14901 10.802 6.36001 10.501 6.66801C10.2 6.97601 9.996 7.36501 9.915 7.78801C9.834 8.21101 9.88 8.648 10.047 9.046C10.214 9.443 10.494 9.78201 10.853 10.02C11.212 10.258 11.633 10.386 12.063 10.386C12.647 10.378 13.205 10.14 13.614 9.723C14.023 9.30601 14.252 8.74501 14.25 8.16001V8.15401Z" fill="#202022"/>
</g>
</svg>
