<svg width="24" height="24" viewBox="0 0 24 24" fill="none" xmlns="http://www.w3.org/2000/svg">
<g id="Type=Outline">
<path id="Vector" d="M1.81 2.125H5.058L5.294 4.356H22.191L20.739 13.394H6.253L6.436 15.125H20.594V16.625H5.086L3.709 3.625H1.811V2.125H1.81ZM6.092 11.894H19.459L20.429 5.856H5.452L6.092 11.894Z" fill="#202022"/>
<path id="Vector_2" d="M9.81 19.875C9.81 20.98 8.915 21.875 7.81 21.875C6.705 21.875 5.81 20.98 5.81 19.875C5.81 18.77 6.705 17.875 7.81 17.875C8.915 17.875 9.81 18.77 9.81 19.875Z" fill="#202022"/>
<path id="Vector_3" d="M17.81 21.875C18.914 21.875 19.81 20.98 19.81 19.875C19.81 18.77 18.915 17.875 17.81 17.875C16.705 17.875 15.81 18.77 15.81 19.875C15.81 20.98 16.705 21.875 17.81 21.875Z" fill="#202022"/>
</g>
</svg>
