<svg width="24" height="24" viewBox="0 0 24 24" fill="none" xmlns="http://www.w3.org/2000/svg">
<g id="Type=Filled">
<path id="Vector" d="M5.05701 2.125H1.80901V3.625H3.70701L5.08401 16.625H20.592V15.125H6.43401L6.25101 13.394H20.737L22.189 4.356H5.29201L5.05701 2.125Z" fill="#202022"/>
<path id="Vector_2" d="M7.81 21.875C8.915 21.875 9.81 20.98 9.81 19.875C9.81 18.77 8.915 17.875 7.81 17.875C6.705 17.875 5.81 18.77 5.81 19.875C5.81 20.98 6.705 21.875 7.81 21.875Z" fill="#202022"/>
<path id="Vector_3" d="M19.81 19.875C19.81 20.98 18.915 21.875 17.81 21.875C16.705 21.875 15.81 20.98 15.81 19.875C15.81 18.77 16.705 17.875 17.81 17.875C18.915 17.875 19.81 18.77 19.81 19.875Z" fill="#202022"/>
</g>
</svg>
