<svg width="24" height="24" viewBox="0 0 24 24" fill="none" xmlns="http://www.w3.org/2000/svg">
<g id="Gsuite">
<path id="Vector" d="M16.099 8.28901C15.582 7.77101 15.028 7.36401 14.437 7.06801C13.846 6.77201 13.071 6.66101 12.221 6.66101C11.519 6.66101 10.855 6.77201 10.227 7.03101C9.599 7.29001 9.082 7.62301 8.602 8.06701C8.122 8.51101 7.753 9.06601 7.494 9.69601C7.235 10.326 7.088 11.066 7.088 11.843C7.088 12.62 7.236 13.324 7.494 13.99C7.753 14.619 8.122 15.175 8.602 15.619C9.082 16.063 9.636 16.433 10.227 16.692C10.855 16.951 11.52 17.062 12.221 17.062C12.96 17.062 13.624 16.951 14.215 16.729C14.769 16.507 15.249 16.211 15.655 15.878C15.913 15.619 16.172 15.323 16.394 14.953C16.616 14.583 16.763 14.176 16.911 13.732H12.147V11.03H19.903C19.94 11.215 19.977 11.437 20.014 11.696C20.051 11.955 20.051 12.214 20.051 12.473C20.051 13.546 19.903 14.509 19.571 15.397C19.239 16.285 18.758 17.063 18.131 17.766C17.429 18.506 16.58 19.098 15.583 19.506C14.586 19.914 13.441 20.135 12.185 20.135C11.04 20.135 9.969 19.95 8.935 19.506C7.938 19.099 7.051 18.507 6.276 17.766C5.537 17.026 4.91 16.175 4.466 15.175C4.097 14.176 3.875 13.065 3.875 11.881C3.875 10.697 4.097 9.58601 4.54 8.58701C4.983 7.55101 5.574 6.69901 6.35 5.95901C7.089 5.21901 7.975 4.66401 9.009 4.25601C10.006 3.81201 11.114 3.62701 12.222 3.62701C13.515 3.62701 14.696 3.84901 15.694 4.29301C16.692 4.73701 17.578 5.36601 18.279 6.14401L16.1 8.29101L16.099 8.28901Z" fill="#202022"/>
</g>
</svg>
