<svg width="24" height="24" viewBox="0 0 24 24" fill="none" xmlns="http://www.w3.org/2000/svg">
<g id="Type=Outline">
<path id="Vector" d="M7.40002 19.7C7.40002 20.4 7.70002 21 8.10002 21.5C9.10002 22.5 10.7 22.5 11.7 21.5L12.2 21L12.6 21.4C13.6 22.4 15.2 22.4 16.2 21.4C16.7 20.9 16.9 20.2 16.9 19.6C17.6 19.6 18.2 19.4 18.7 18.9C19.2 18.4 19.4 17.7 19.4 17.1C20.1 17.1 20.7 16.9 21.2 16.4C22.2 15.4 22.2 13.8 21.2 12.8L20.6 12.2C23 9.8 23.2 5.9 20.8 3.5C18.5 1.1 14.7 1.2 12.2 3.5L12 3.7V3.6C9.60002 1.2 5.70002 1.1 3.30002 3.5C0.90002 5.9 0.900021 9.8 3.40002 12.2L3.60002 12.4L3.10002 12.9C2.10002 13.9 2.10002 15.5 3.10002 16.5C3.60002 16.9 4.30002 17.2 4.90002 17.2C4.90002 17.9 5.10002 18.5 5.60002 19C6.10002 19.4 6.80002 19.7 7.40002 19.7ZM4.40002 11.2C2.60002 9.3 2.50002 6.3 4.30002 4.6C6.10002 2.8 9.00002 2.8 10.9 4.7H11L9.80002 5.9C8.80002 6.9 8.80002 8.5 9.80002 9.5C10.8 10.5 12.4 10.5 13.4 9.6L14.7 8.4L20.2 13.9C20.6 14.3 20.6 15 20.2 15.4C19.8 15.8 19.1 15.8 18.7 15.4L17.6 16.5C18 16.9 18 17.6 17.6 18C17.2 18.4 16.5 18.4 16.1 18L15 19.1C15.4 19.5 15.4 20.2 15 20.6C14.6 21 13.9 21 13.5 20.6L13.2 20C13.9 19 13.9 17.6 13 16.7C12.5 16.2 11.9 16 11.2 16C11.2 15.4 10.9 14.7 10.5 14.2C10 13.7 9.40002 13.5 8.70002 13.5C8.70002 12.9 8.40002 12.2 8.00002 11.7C7.10002 10.8 5.70002 10.7 4.70002 11.5L4.40002 11.2ZM7.00002 14.1L5.60002 15.6C5.20002 15.9 4.60002 15.9 4.20002 15.5C3.80002 15.1 3.80002 14.4 4.20002 14L5.40002 12.7C5.80002 12.3 6.50002 12.3 6.90002 12.7C7.30002 13.1 7.30002 13.7 7.00002 14.1ZM6.70002 17.9C6.30002 17.5 6.30002 16.9 6.60002 16.5L8.00002 15.2C8.40002 14.9 9.00002 14.9 9.40002 15.3C9.80002 15.7 9.80002 16.4 9.40002 16.8L8.20002 18C7.80002 18.3 7.10002 18.3 6.70002 17.9ZM13.1 4.7C15 2.8 18 2.8 19.8 4.5C21.5 6.2 21.5 9.2 19.6 11.1L15.8 7.3L16.7 6.4L15.6 5.3L14.5 6.4L12.3 8.5C11.9 8.9 11.2 8.9 10.8 8.5C10.4 8.1 10.4 7.4 10.8 7L13.1 4.7ZM10.5 17.7C10.9 17.3 11.6 17.3 12 17.7C12.4 18.1 12.4 18.8 12 19.2L10.8 20.4C10.4 20.8 9.70002 20.8 9.30002 20.4C8.90002 20 8.90002 19.3 9.30002 18.9L10.5 17.7Z" fill="#202022"/>
</g>
</svg>
