<svg width="24" height="24" viewBox="0 0 24 24" fill="none" xmlns="http://www.w3.org/2000/svg">
<g id="Type=Filled">
<g id="Shape">
<path d="M12 1.77612C10.6193 1.77612 9.5 2.89541 9.5 4.27612C9.5 5.65683 10.6193 6.77612 12 6.77612C13.3807 6.77612 14.5 5.65683 14.5 4.27612C14.5 2.89541 13.3807 1.77612 12 1.77612Z" fill="#202022"/>
<path d="M9.2847 14.2239H13.1986C13.889 14.2239 14.4486 14.7835 14.4486 15.4739C14.4486 16.1642 13.889 16.7239 13.1986 16.7239H9.94861V18.2332L13.8308 18.2332L18.4329 13.72C18.9708 13.1925 19.8501 13.2593 20.3022 13.862C20.6734 14.3569 20.6252 15.0492 20.1891 15.488L15.7369 19.9671C15.2554 20.4515 14.6007 20.7239 13.9177 20.7239H7.94861L6.44861 22.2239L3.44861 19.2239L7.05481 15.217C7.62374 14.5848 8.43424 14.2239 9.2847 14.2239Z" fill="#202022"/>
<path d="M11 7.77612C9.20507 7.77612 7.75 9.2312 7.75 11.0261V12.2761H16.25V11.0261C16.25 9.2312 14.7949 7.77612 13 7.77612H11Z" fill="#202022"/>
</g>
</g>
</svg>
