<svg width="24" height="24" viewBox="0 0 24 24" fill="none" xmlns="http://www.w3.org/2000/svg">
<g id="Type= Outline">
<g id="Shape">
<path d="M13.1852 2.7476V1H11.6852V2.7476C10.3045 2.7476 9.18522 3.86536 9.18522 5.24418C9.18522 6.623 10.3045 7.74075 11.6852 7.74075H13.1852C13.7375 7.74075 14.1852 8.18785 14.1852 8.73938C14.1852 9.29091 13.7375 9.73801 13.1852 9.73801H9.93522V11.236H11.6852V12.9836H13.1852V11.236C14.5659 11.236 15.6852 10.1182 15.6852 8.73938C15.6852 7.36056 14.5659 6.24281 13.1852 6.24281H11.6852C11.1329 6.24281 10.6852 5.7957 10.6852 5.24418C10.6852 4.69265 11.1329 4.24555 11.6852 4.24555H14.9352V2.7476H13.1852Z" fill="#202022"/>
<path d="M20.9662 13.4541C20.1209 12.6092 18.7497 12.6089 17.904 13.4534L15.097 16.2566C14.9896 15.1216 14.0394 14.23 12.875 14.2169L8.72099 14.1701C7.70088 14.1586 6.72011 14.5626 6.00483 15.289L2.40045 18.9495L3.46999 19.9997L7.07436 16.3393C7.50353 15.9034 8.09199 15.661 8.70406 15.6679L12.8581 15.7147C13.2731 15.7194 13.6071 16.0567 13.6071 16.4712C13.6071 16.889 13.2679 17.2277 12.8496 17.2277H9.43522V18.7256H14.7459L18.9647 14.5126C19.2244 14.2533 19.6455 14.2534 19.905 14.5128C20.1645 14.7721 20.1643 15.1923 19.9048 15.4515L15.5689 19.7803C15.2849 20.0638 14.8998 20.2231 14.4983 20.2231H7.12449L5.40481 21.941L6.46563 23L7.74595 21.721H14.4983C15.2976 21.721 16.0642 21.404 16.6294 20.8396L20.9653 16.5109C21.8106 15.6669 21.811 14.2985 20.9662 13.4541Z" fill="#202022"/>
</g>
</g>
</svg>
