<svg width="24" height="24" viewBox="0 0 24 24" fill="none" xmlns="http://www.w3.org/2000/svg">
<g id="Type= Filled">
<g id="Shape">
<path d="M13.1986 3V1.25H11.6986V3C10.3179 3 9.19861 4.11929 9.19861 5.5C9.19861 6.88071 10.3179 8 11.6986 8H13.1986C13.7509 8 14.1986 8.44772 14.1986 9C14.1986 9.55228 13.7509 10 13.1986 10H9.94861V11.5H11.6986V13.25H13.1986V11.5C14.5793 11.5 15.6986 10.3807 15.6986 9C15.6986 7.61929 14.5793 6.5 13.1986 6.5H11.6986C11.1463 6.5 10.6986 6.05228 10.6986 5.5C10.6986 4.94772 11.1463 4.5 11.6986 4.5H14.9486V3H13.1986Z" fill="#202022"/>
<path d="M13.1986 14.75H9.2847C8.43424 14.75 7.62374 15.111 7.05481 15.7431L3.44861 19.75L6.44861 22.75L7.94861 21.25H13.9177C14.6007 21.25 15.2554 20.9776 15.7369 20.4933L20.1891 16.0141C20.6252 15.5754 20.6734 14.883 20.3022 14.3881C19.8501 13.7854 18.9708 13.7186 18.4329 14.2461L13.8308 18.7593L9.94861 18.7593V17.25H13.1986C13.889 17.25 14.4486 16.6904 14.4486 16C14.4486 15.3096 13.889 14.75 13.1986 14.75Z" fill="#202022"/>
</g>
</g>
</svg>
