<svg width="24" height="24" viewBox="0 0 24 24" fill="none" xmlns="http://www.w3.org/2000/svg">
<g id="Type=Outline">
<g id="Shape">
<path d="M12.7499 6.09888V3.84888H11.2499V7.59888H14.9999V6.09888H12.7499Z" fill="#202022"/>
<path fill-rule="evenodd" clip-rule="evenodd" d="M5.74994 6.84888C5.74994 3.3971 8.54816 0.598877 11.9999 0.598877C15.4517 0.598877 18.2499 3.3971 18.2499 6.84888C18.2499 10.3007 15.4517 13.0989 11.9999 13.0989C8.54816 13.0989 5.74994 10.3007 5.74994 6.84888ZM11.9999 2.09888C9.37659 2.09888 7.24994 4.22552 7.24994 6.84888C7.24994 9.47223 9.37659 11.5989 11.9999 11.5989C14.6233 11.5989 16.7499 9.47223 16.7499 6.84888C16.7499 4.22552 14.6233 2.09888 11.9999 2.09888Z" fill="#202022"/>
<path d="M17.904 13.8413C18.7497 12.9956 20.1209 12.996 20.9662 13.842C21.811 14.6876 21.8106 16.0579 20.9653 16.903L16.6294 21.2377C16.0642 21.8028 15.2976 22.1203 14.4983 22.1203H7.74595L6.46563 23.401L5.40481 22.3405L7.12449 20.6203H14.4983C14.8998 20.6203 15.2849 20.4608 15.5689 20.1769L19.9048 15.8422C20.1643 15.5827 20.1645 15.1619 19.905 14.9022C19.6455 14.6424 19.2244 14.6423 18.9647 14.902L14.7459 19.1208H9.43522V17.6208H12.8496C13.2679 17.6208 13.6071 17.2816 13.6071 16.8633C13.6071 16.4482 13.2731 16.1105 12.8581 16.1058L8.70406 16.0589C8.09199 16.052 7.50353 16.2947 7.07436 16.7312L3.46999 20.3966L2.40045 19.3449L6.00483 15.6795C6.72011 14.9521 7.70088 14.5475 8.72099 14.559L12.875 14.6059C14.0394 14.619 14.9896 15.5118 15.097 16.6484L17.904 13.8413Z" fill="#202022"/>
</g>
</g>
</svg>
