<svg width="24" height="24" viewBox="0 0 24 24" fill="none" xmlns="http://www.w3.org/2000/svg">
<g id="Type=Outline">
<g id="Shape">
<path d="M17.9045 14.1226C18.7502 13.2772 20.1209 13.2777 20.9661 14.1235C21.8109 14.9691 21.8104 16.339 20.9651 17.1841L16.6292 21.519C16.0639 22.0841 15.2975 22.4019 14.4983 22.4019H7.74634L6.46606 23.6821L5.40454 22.6216L7.12427 20.9019H14.4983C14.8999 20.9019 15.2856 20.7424 15.5696 20.4585L19.9045 16.1235C20.164 15.8641 20.1646 15.4438 19.9055 15.1841C19.646 14.9244 19.2248 14.9237 18.9651 15.1831L14.7463 19.4019H9.43579V17.9019H12.8499C13.2681 17.9018 13.6075 17.5632 13.6077 17.145C13.6077 16.7301 13.2735 16.3921 12.8586 16.3872L8.70435 16.3403C8.09237 16.3334 7.50362 16.5759 7.07446 17.0122L3.46997 20.6782L2.40063 19.6265L6.00513 15.9614C6.72036 15.2341 7.70092 14.8289 8.72095 14.8403L12.8752 14.8872C14.0395 14.9004 14.9896 15.7937 15.0969 16.9302L17.9045 14.1226Z" fill="#202022"/>
<path fill-rule="evenodd" clip-rule="evenodd" d="M14.2502 0.317871C14.9988 0.317937 15.7107 0.519908 16.2571 0.884277C16.7873 1.23819 17.2307 1.80337 17.2483 2.5249H17.2502V11.6069C17.2252 12.309 16.833 12.8914 16.2502 13.271C15.7046 13.6263 14.9953 13.8217 14.2502 13.8218C13.5051 13.8218 12.7959 13.6262 12.2502 13.271C12.1638 13.2147 12.0812 13.15 12.0002 13.0825C11.9193 13.15 11.8368 13.2146 11.7502 13.271C11.2047 13.6263 10.4953 13.8217 9.75024 13.8218C9.00516 13.8218 8.2959 13.6262 7.75024 13.271C7.21153 12.9202 6.75024 12.3486 6.75024 11.6069V8.5249H6.7522C6.76983 7.80316 7.21295 7.23817 7.74341 6.88428C8.28986 6.51989 9.00164 6.31885 9.75024 6.31885C10.2848 6.31891 10.8001 6.42241 11.2502 6.61377V2.5249H11.2522C11.2698 1.80318 11.713 1.23817 12.2434 0.884277C12.7899 0.519882 13.5016 0.317872 14.2502 0.317871ZM11.2502 10.5239C10.8 10.7154 10.285 10.8207 9.75024 10.8208C9.2156 10.8208 8.70045 10.7152 8.25024 10.5239V11.6069C8.25024 11.6744 8.29302 11.8347 8.5686 12.0142C8.83725 12.189 9.25305 12.3218 9.75024 12.3218C10.2474 12.3217 10.6633 12.189 10.9319 12.0142C11.1387 11.8794 11.2148 11.7553 11.2395 11.6733L11.2502 11.6069V10.5239ZM15.7502 10.5317C15.2999 10.7185 14.7846 10.8208 14.2502 10.8208C13.716 10.8208 13.2006 10.7184 12.7502 10.5317V11.6069L12.761 11.6733C12.7858 11.7554 12.8616 11.8794 13.0686 12.0142C13.3373 12.189 13.753 12.3218 14.2502 12.3218C14.7475 12.3217 15.1633 12.189 15.4319 12.0142C15.6388 11.8794 15.7148 11.7553 15.7395 11.6733L15.7502 11.6069V10.5317ZM9.75024 7.81885C9.25652 7.81885 8.84326 7.95369 8.57544 8.13232C8.30251 8.3144 8.25028 8.48383 8.25024 8.56982C8.25044 8.65593 8.303 8.82555 8.57544 9.00732C8.84327 9.18581 9.25679 9.3208 9.75024 9.3208C10.2438 9.32071 10.6573 9.18594 10.925 9.00732C11.1974 8.82557 11.25 8.65592 11.2502 8.56982C11.2502 8.48389 11.1975 8.31426 10.925 8.13232C10.6573 7.95372 10.2438 7.81894 9.75024 7.81885ZM15.7502 7.52979C15.2999 7.71658 14.7846 7.8188 14.2502 7.81885C13.716 7.81885 13.2006 7.71648 12.7502 7.52979V8.6167L12.761 8.6792C12.7852 8.75806 12.8593 8.8811 13.0667 9.01514C13.3356 9.18871 13.7522 9.3208 14.2502 9.3208C14.7484 9.32074 15.165 9.1888 15.4338 9.01514C15.6413 8.88103 15.7154 8.75805 15.7395 8.6792L15.7502 8.6167V7.52979ZM15.7502 4.52393C15.3 4.71537 14.785 4.82075 14.2502 4.8208C13.7156 4.8208 13.2005 4.71527 12.7502 4.52393V5.61475L12.761 5.67725C12.7852 5.75611 12.8593 5.87915 13.0667 6.01318C13.3356 6.18675 13.7522 6.31885 14.2502 6.31885C14.7484 6.31878 15.165 6.18684 15.4338 6.01318C15.6413 5.87907 15.7154 5.75609 15.7395 5.67725L15.7502 5.61475V4.52393ZM14.2502 1.81885C13.7565 1.81885 13.3433 1.95368 13.0754 2.13232C12.8026 2.31439 12.7503 2.48384 12.7502 2.56982C12.7504 2.65593 12.803 2.82555 13.0754 3.00732C13.3433 3.18584 13.7567 3.3208 14.2502 3.3208C14.7438 3.32073 15.1573 3.18593 15.425 3.00732C15.6974 2.82557 15.75 2.65593 15.7502 2.56982C15.7502 2.48388 15.6976 2.31428 15.425 2.13232C15.1573 1.9537 14.7439 1.81891 14.2502 1.81885Z" fill="#202022"/>
</g>
</g>
</svg>
