<svg width="24" height="24" viewBox="0 0 24 24" fill="none" xmlns="http://www.w3.org/2000/svg">
<g id="Type=Filled">
<g id="Shape">
<path d="M18.4331 14.0513C18.9709 13.5239 19.8501 13.5904 20.3022 14.1929C20.6734 14.6878 20.625 15.3801 20.1889 15.8188L15.7368 20.2983C15.2553 20.7827 14.6004 21.0552 13.9174 21.0552H7.9487L6.4487 22.5552L3.4487 19.5552L7.05515 15.5483C7.62404 14.9163 8.43427 14.5552 9.28464 14.5552H13.1987C13.8891 14.5552 14.4487 15.1148 14.4487 15.8052C14.4487 16.4955 13.8891 17.0552 13.1987 17.0552H9.9487V18.5649L13.8305 18.564L18.4331 14.0513Z" fill="#202022"/>
<path d="M11.6987 12.0522C11.6979 12.6829 10.6909 13.1948 9.4487 13.1948C8.20652 13.1948 7.19945 12.6829 7.1987 12.0522V11.0239C7.83716 11.3531 8.62225 11.5356 9.4487 11.5356C10.2751 11.5356 11.0602 11.3531 11.6987 11.0239V12.0522Z" fill="#202022"/>
<path d="M17.6987 12.0522C17.698 12.6829 16.6909 13.1948 15.4487 13.1948C14.2065 13.1948 13.1994 12.6829 13.1987 12.0522V11.0288C13.8372 11.3579 14.6223 11.5405 15.4487 11.5405C16.2751 11.5405 17.0602 11.3579 17.6987 11.0288V12.0522Z" fill="#202022"/>
<path d="M17.6987 8.91357C17.6985 9.07956 17.5884 9.34378 17.1723 9.604C16.7664 9.85779 16.1589 10.0396 15.4487 10.0396C14.7385 10.0396 14.131 9.85779 13.7251 9.604C13.309 9.34378 13.1989 9.07956 13.1987 8.91357V7.85791C13.8371 8.187 14.6223 8.36963 15.4487 8.36963C16.2751 8.36963 17.0603 8.187 17.6987 7.85791V8.91357Z" fill="#202022"/>
<path d="M9.4487 7.78369C10.159 7.78369 10.7664 7.96537 11.1723 8.21924C11.5883 8.47944 11.6985 8.74274 11.6987 8.90869C11.6985 9.07467 11.5884 9.3389 11.1723 9.59912C10.7664 9.8529 10.1589 10.0347 9.4487 10.0347C8.73851 10.0347 8.13103 9.8529 7.72507 9.59912C7.30897 9.3389 7.19892 9.07467 7.1987 8.90869C7.19889 8.74274 7.3091 8.47944 7.72507 8.21924C8.13103 7.96537 8.73836 7.78369 9.4487 7.78369Z" fill="#202022"/>
<path d="M17.6987 5.74365L17.6928 5.81006C17.6657 5.97513 17.5359 6.20575 17.1723 6.43311C16.7664 6.68683 16.1588 6.86865 15.4487 6.86865C14.7386 6.86865 14.131 6.68683 13.7251 6.43311C13.3615 6.20575 13.2317 5.97513 13.2046 5.81006L13.1987 5.74365V4.68604C13.8372 5.0152 14.6222 5.19775 15.4487 5.19775C16.2752 5.19775 17.0602 5.0152 17.6987 4.68604V5.74365Z" fill="#202022"/>
<path d="M15.4487 1.44482C16.159 1.44482 16.7664 1.62751 17.1723 1.88135C17.5272 2.10334 17.6576 2.32859 17.6889 2.49268C17.6931 2.51997 17.6975 2.54788 17.6977 2.57568C17.6957 2.74188 17.5849 3.00322 17.1723 3.26123C16.7664 3.51503 16.1589 3.69678 15.4487 3.69678C14.7385 3.69678 14.131 3.51503 13.7251 3.26123C13.3125 3.00321 13.2008 2.74188 13.1987 2.57568C13.1989 2.54792 13.2034 2.51993 13.2075 2.49268C13.2387 2.32857 13.3701 2.10342 13.7251 1.88135C14.131 1.62751 14.7384 1.44482 15.4487 1.44482Z" fill="#202022"/>
</g>
</g>
</svg>
