<svg width="24" height="24" viewBox="0 0 24 24" fill="none" xmlns="http://www.w3.org/2000/svg">
<g id="Type=Filled">
<g id="Shape">
<path fill-rule="evenodd" clip-rule="evenodd" d="M11.9999 0.932251C8.5481 0.932251 5.74988 3.73047 5.74988 7.18225C5.74988 10.634 8.5481 13.4323 11.9999 13.4323C15.4517 13.4323 18.2499 10.634 18.2499 7.18225C18.2499 3.73047 15.4517 0.932251 11.9999 0.932251ZM12.7499 4.18225V6.43225H14.9999V7.93225H11.2499V4.18225H12.7499Z" fill="#202022"/>
<path d="M13.1986 15.0678H9.2847C8.43424 15.0678 7.62374 15.4287 7.05481 16.0609L3.44861 20.0678L6.44861 23.0678L7.94861 21.5678H13.9177C14.6007 21.5678 15.2554 21.2954 15.7369 20.811L20.1891 16.3319C20.6252 15.8931 20.6734 15.2008 20.3022 14.7058C19.8501 14.1031 18.9708 14.0363 18.4329 14.5638L13.8308 19.077L9.94861 19.0771V17.5678H13.1986C13.889 17.5678 14.4486 17.0081 14.4486 16.3178C14.4486 15.6274 13.889 15.0678 13.1986 15.0678Z" fill="#202022"/>
</g>
</g>
</svg>
