<svg width="24" height="24" viewBox="0 0 24 24" fill="none" xmlns="http://www.w3.org/2000/svg">
<g id="Type=Filled">
<path id="Vector" d="M5.64701 19C6.13901 19.492 6.78201 19.739 7.42601 19.742C7.42901 20.386 7.67601 21.03 8.16801 21.521C9.15701 22.51 10.761 22.51 11.75 21.521L12.2 21.071L12.562 21.433C13.556 22.427 15.173 22.465 16.174 21.464C16.669 20.969 16.91 20.323 16.907 19.676C17.554 19.679 18.199 19.439 18.695 18.944C19.191 18.449 19.431 17.803 19.427 17.156C20.074 17.159 20.72 16.919 21.215 16.424C22.216 15.423 22.178 13.806 21.184 12.812L20.591 12.219C23.022 9.76402 23.165 5.85202 20.781 3.46902C18.447 1.13502 14.647 1.22302 12.186 3.51002L12.183 3.50702L12.031 3.65902L11.964 3.59202C9.54501 1.17302 5.64301 1.10702 3.25101 3.49902C0.859007 5.89102 0.925007 9.79302 3.34401 12.212L3.58201 12.45L3.13201 12.9C2.14301 13.889 2.14301 15.493 3.13201 16.482C3.62301 16.973 4.26501 17.22 4.90801 17.224C4.91201 17.867 5.15901 18.509 5.65001 18.999L5.64701 19ZM9.22901 19L10.483 17.746C10.887 17.347 11.537 17.348 11.939 17.75C12.342 18.153 12.342 18.807 11.939 19.211L10.689 20.461C10.286 20.864 9.63201 20.864 9.22901 20.461C8.82701 20.059 8.82601 19.409 9.22501 19.005L9.22901 19ZM9.41801 16.69L8.16401 17.944C7.76001 18.343 7.11001 18.342 6.70801 17.94C6.32601 17.558 6.30601 16.952 6.64701 16.546C6.66901 16.526 6.69001 16.505 6.71201 16.483L7.96201 15.233C7.98301 15.212 8.00401 15.19 8.02501 15.168C8.43101 14.827 9.03701 14.847 9.41901 15.229C9.82101 15.631 9.82201 16.281 9.42301 16.685L9.41901 16.689L9.41801 16.69ZM6.96201 14.106C6.94001 14.127 6.91801 14.147 6.89701 14.169L5.64701 15.419C5.62601 15.44 5.60501 15.462 5.58401 15.484C5.17801 15.825 4.57201 15.805 4.19001 15.423C3.78701 15.02 3.78701 14.366 4.19001 13.962L5.44001 12.712C5.84301 12.309 6.49701 12.309 6.90001 12.712C7.28201 13.094 7.30301 13.7 6.96201 14.106ZM13.071 4.73902C14.994 2.82002 17.97 2.78002 19.719 4.53002C21.463 6.27402 21.43 9.23502 19.529 11.159L15.715 7.34502L16.655 6.40502L15.594 5.34402L14.477 6.46102L12.285 8.52202C11.868 8.91402 11.214 8.90402 10.809 8.49902C10.395 8.08502 10.395 7.41402 10.809 7.00002L13.07 4.73902H13.071Z" fill="#202022"/>
</g>
</svg>
