<svg width="24" height="24" viewBox="0 0 24 24" fill="none" xmlns="http://www.w3.org/2000/svg">
<g id="Type=Outline">
<g id="Shape">
<path fill-rule="evenodd" clip-rule="evenodd" d="M9.24994 4.19263C9.24994 2.67384 10.4812 1.44263 11.9999 1.44263C13.5187 1.44263 14.7499 2.67384 14.7499 4.19263C14.7499 5.71141 13.5187 6.94263 11.9999 6.94263C10.4812 6.94263 9.24994 5.71141 9.24994 4.19263ZM11.9999 2.94263C11.3096 2.94263 10.7499 3.50227 10.7499 4.19263C10.7499 4.88298 11.3096 5.44263 11.9999 5.44263C12.6903 5.44263 13.2499 4.88298 13.2499 4.19263C13.2499 3.50227 12.6903 2.94263 11.9999 2.94263Z" fill="#202022"/>
<path d="M17.904 12.9976C18.7497 12.1519 20.1209 12.1522 20.9662 12.9983C21.811 13.8439 21.8106 15.2141 20.9653 16.0592L16.6294 20.394C16.0642 20.9591 15.2976 21.2766 14.4983 21.2766H7.74595L6.46563 22.5573L5.40481 21.4968L7.12449 19.7766H14.4983C14.8998 19.7766 15.2849 19.6171 15.5689 19.3332L19.9048 14.9984C20.1643 14.7389 20.1645 14.3181 19.905 14.0585C19.6455 13.7986 19.2244 13.7985 18.9647 14.0582L14.7459 18.277H9.43522V16.777H12.8496C13.2679 16.777 13.6071 16.4379 13.6071 16.0195C13.6071 15.6045 13.2731 15.2667 12.8581 15.262L8.70406 15.2151C8.09199 15.2082 7.50353 15.451 7.07436 15.8874L3.46999 19.5529L2.40045 18.5012L6.00483 14.8357C6.72011 14.1083 7.70088 13.7037 8.72099 13.7152L12.875 13.7621C14.0394 13.7753 14.9896 14.6681 15.097 15.8046L17.904 12.9976Z" fill="#202022"/>
<path d="M10.9999 7.94263C9.20501 7.94263 7.74994 9.3977 7.74994 11.1926V12.1926H9.24994V11.1926C9.24994 10.2261 10.0334 9.44263 10.9999 9.44263H12.9999C13.9664 9.44263 14.7499 10.2261 14.7499 11.1926V12.1926H16.2499V11.1926C16.2499 9.3977 14.7949 7.94263 12.9999 7.94263H10.9999Z" fill="#202022"/>
</g>
</g>
</svg>
