<svg width="24" height="24" viewBox="0 0 24 24" fill="none" xmlns="http://www.w3.org/2000/svg">
<g id="Type= Filled">
<g id="Shape">
<path d="M10.5 2H13.5V5H16.5V8H13.5V11H10.5V8H7.5V5H10.5V2Z" fill="#202022"/>
<path d="M12.75 13.5H8.83609C7.98563 13.5 7.17513 13.861 6.6062 14.4931L3 18.5L6 21.5L7.5 20H13.4691C14.1521 20 14.8068 19.7276 15.2883 19.2433L19.7405 14.7641C20.1766 14.3254 20.2248 13.633 19.8536 13.1381C19.4015 12.5354 18.5222 12.4686 17.9843 12.9961L13.3822 17.5093L9.5 17.5093V16H12.75C13.4404 16 14 15.4404 14 14.75C14 14.0596 13.4404 13.5 12.75 13.5Z" fill="#202022"/>
</g>
</g>
</svg>
