<svg width="24" height="24" viewBox="0 0 24 24" fill="none" xmlns="http://www.w3.org/2000/svg">
<g id="Type= Outline">
<g id="Shape">
<path d="M10.5348 2H13.5348V4.99548H16.5348V7.99096H13.5348V10.9864H10.5348V7.99096H7.53476V4.99548H10.5348V2Z" fill="#202022"/>
<path d="M20.5657 12.4554C19.7205 11.6106 18.3492 11.6103 17.5036 12.4547L14.6965 15.2575C14.5892 14.1227 13.6389 13.2312 12.4746 13.2181L8.32053 13.1713C7.30043 13.1598 6.31966 13.5638 5.60437 14.2901L2 17.95L3.06953 19.0001L6.67391 15.3402C7.10308 14.9044 7.69154 14.662 8.30361 14.6689L12.4577 14.7157C12.8727 14.7204 13.2066 15.0577 13.2066 15.4721C13.2066 15.8898 12.8675 16.2285 12.4491 16.2285H9.03477V17.7262H14.3454L18.5642 13.5138C18.8239 13.2545 19.245 13.2545 19.5046 13.514C19.764 13.7733 19.7639 14.1934 19.5043 14.4525L15.1685 18.7807C14.8845 19.0642 14.4994 19.2235 14.0978 19.2235H6.72404L5.00435 20.9411L6.06518 22L7.3455 20.7212H14.0978C14.8971 20.7212 15.6637 20.4042 16.229 19.8399L20.5648 15.5117C21.4101 14.6679 21.4105 13.2997 20.5657 12.4554Z" fill="#202022"/>
</g>
</g>
</svg>
