<svg width="24" height="24" viewBox="0 0 24 24" fill="none" xmlns="http://www.w3.org/2000/svg">
<g id="Type=Outline">
<g id="Shape">
<path fill-rule="evenodd" clip-rule="evenodd" d="M6.87494 2.31763H15.8749V8.31763H6.87494V2.31763ZM8.37494 3.81713V6.81713H14.3749V3.81713H8.37494Z" fill="#202022"/>
<path d="M17.904 12.1226C18.7497 11.2769 20.1209 11.2772 20.9662 12.1233C21.811 12.9689 21.8106 14.3391 20.9653 15.1842L16.6294 19.519C16.0642 20.0841 15.2976 20.4016 14.4983 20.4016H7.74595L6.46563 21.6823L5.40481 20.6218L7.12449 18.9016H14.4983C14.8998 18.9016 15.2849 18.7421 15.5689 18.4582L19.9048 14.1234C20.1643 13.8639 20.1645 13.4431 19.905 13.1835C19.6455 12.9236 19.2244 12.9235 18.9647 13.1832L14.7459 17.402H9.43522V15.902H12.8496C13.2679 15.902 13.6071 15.5629 13.6071 15.1445C13.6071 14.7295 13.2731 14.3917 12.8581 14.387L8.70406 14.3401C8.09199 14.3332 7.50353 14.576 7.07436 15.0124L3.46999 18.6779L2.40045 17.6262L6.00483 13.9607C6.72011 13.2333 7.70088 12.8287 8.72099 12.8402L12.875 12.8871C14.0394 12.9003 14.9896 13.7931 15.097 14.9296L17.904 12.1226Z" fill="#202022"/>
<path d="M15.7618 11.3069C16.5833 11.3069 17.2499 10.6348 17.2499 9.80688H5.49994C5.49994 10.6358 6.16662 11.3069 6.98807 11.3069H15.7618Z" fill="#202022"/>
</g>
</g>
</svg>
