<svg width="24" height="24" viewBox="0 0 24 24" fill="none" xmlns="http://www.w3.org/2000/svg">
<g id="Type=Outline">
<g id="Shape">
<path fill-rule="evenodd" clip-rule="evenodd" d="M5.68616 3.94263C5.68616 2.97613 6.46966 2.19263 7.43616 2.19263H16.4362C17.4027 2.19263 18.1862 2.97613 18.1862 3.94263V9.44263C18.1862 10.4091 17.4027 11.1926 16.4362 11.1926H7.43616C6.46966 11.1926 5.68616 10.4091 5.68616 9.44263V3.94263ZM7.43616 3.69263C7.29809 3.69263 7.18616 3.80456 7.18616 3.94263V5.19263H16.6862V3.94263C16.6862 3.80456 16.5742 3.69263 16.4362 3.69263H7.43616ZM16.6862 6.69263H7.18616V9.44263C7.18616 9.5807 7.29809 9.69263 7.43616 9.69263H16.4362C16.5742 9.69263 16.6862 9.5807 16.6862 9.44263V6.69263Z" fill="#202022"/>
<path d="M17.904 12.2476C18.7497 11.4019 20.1209 11.4022 20.9662 12.2483C21.811 13.0939 21.8106 14.4641 20.9653 15.3092L16.6294 19.644C16.0642 20.2091 15.2976 20.5266 14.4983 20.5266H7.74595L6.46563 21.8073L5.40481 20.7468L7.12449 19.0266H14.4983C14.8998 19.0266 15.2849 18.8671 15.5689 18.5832L19.9048 14.2484C20.1643 13.9889 20.1645 13.5681 19.905 13.3085C19.6455 13.0486 19.2244 13.0485 18.9647 13.3082L14.7459 17.527H9.43522V16.027H12.8496C13.2679 16.027 13.6071 15.6879 13.6071 15.2695C13.6071 14.8545 13.2731 14.5167 12.8581 14.512L8.70406 14.4651C8.09199 14.4582 7.50353 14.701 7.07436 15.1374L3.46999 18.8029L2.40045 17.7512L6.00483 14.0857C6.72011 13.3583 7.70088 12.9537 8.72099 12.9652L12.875 13.0121C14.0394 13.0253 14.9896 13.9181 15.097 15.0546L17.904 12.2476Z" fill="#202022"/>
</g>
</g>
</svg>
