<svg width="24" height="24" viewBox="0 0 24 24" fill="none" xmlns="http://www.w3.org/2000/svg">
<g id="Type=Filled">
<g id="Shape">
<path d="M7.93616 2.52588C6.96966 2.52588 6.18616 3.30938 6.18616 4.27588V5.52588H18.6862V4.27588C18.6862 3.30938 17.9027 2.52588 16.9362 2.52588H7.93616Z" fill="#202022"/>
<path d="M6.18616 9.77588V7.02588H18.6862V9.77588C18.6862 10.7424 17.9027 11.5259 16.9362 11.5259H7.93616C6.96966 11.5259 6.18616 10.7424 6.18616 9.77588Z" fill="#202022"/>
<path d="M13.1986 13.4741H9.2847C8.43424 13.4741 7.62374 13.8351 7.05481 14.4672L3.44861 18.4741L6.44861 21.4741L7.94861 19.9741H13.9177C14.6007 19.9741 15.2554 19.7018 15.7369 19.2174L20.1891 14.7383C20.6252 14.2995 20.6734 13.6071 20.3022 13.1122C19.8501 12.5095 18.9708 12.4427 18.4329 12.9702L13.8308 17.4834L9.94861 17.4834V15.9741H13.1986C13.889 15.9741 14.4486 15.4145 14.4486 14.7241C14.4486 14.0338 13.889 13.4741 13.1986 13.4741Z" fill="#202022"/>
</g>
</g>
</svg>
