<svg width="24" height="24" viewBox="0 0 24 24" fill="none" xmlns="http://www.w3.org/2000/svg">
<g id="Type=Filled">
<g id="Shape">
<path d="M6.875 2.65112H15.875V8.65112H6.875V2.65112Z" fill="#202022"/>
<path d="M9.2847 13.3489H13.1986C13.889 13.3489 14.4486 13.9085 14.4486 14.5989C14.4486 15.2892 13.889 15.8489 13.1986 15.8489H9.94861V17.3582L13.8308 17.3582L18.4329 12.845C18.9708 12.3175 19.8501 12.3843 20.3022 12.987C20.6734 13.4819 20.6252 14.1742 20.1891 14.613L15.7369 19.0921C15.2554 19.5765 14.6007 19.8489 13.9177 19.8489H7.94861L6.44861 21.3489L3.44861 18.3489L7.05481 14.342C7.62374 13.7098 8.43424 13.3489 9.2847 13.3489Z" fill="#202022"/>
<path d="M15.7619 11.6404C16.5833 11.6404 17.25 10.9683 17.25 10.1404H5.5C5.5 10.9693 6.16668 11.6404 6.98813 11.6404H15.7619Z" fill="#202022"/>
</g>
</g>
</svg>
