<svg width="24" height="24" viewBox="0 0 24 24" fill="none" xmlns="http://www.w3.org/2000/svg">
<g id="Type=Filled">
<path id="Vector" d="M4.291 9.75C4.691 6.132 7.952 3.25 12 3.25C16.048 3.25 19.309 6.132 19.709 9.75H17.5C16.534 9.75 15.75 10.533 15.75 11.5V14.5C15.75 15.466 16.533 16.25 17.5 16.25H21.25V9.75H21.217C20.814 5.234 16.803 1.75 12 1.75C7.197 1.75 3.186 5.234 2.783 9.75H2.75V16.5C2.75 19.676 5.324 22.25 8.5 22.25H12.5V20.75H8.5C6.153 20.75 4.25 18.847 4.25 16.5V16.25H6.5C7.466 16.25 8.25 15.467 8.25 14.5V11.5C8.25 10.534 7.467 9.75 6.5 9.75H4.291Z" fill="#202022"/>
</g>
</svg>
