<svg width="24" height="24" viewBox="0 0 24 24" fill="none" xmlns="http://www.w3.org/2000/svg">
<g id="Heading 5">
<g id="Shape">
<path d="M14.0938 3.99902H21.7623V5.49902H15.5938V10.3567H18.1788C20.9796 10.3567 23.25 12.6272 23.25 15.4279C23.25 18.2346 20.9468 20.499 18.1521 20.499C15.3277 20.499 13 18.2105 13 15.374V15.1918H14.5V15.374C14.5 17.37 16.144 18.999 18.1521 18.999C20.1304 18.999 21.75 17.3942 21.75 15.4279C21.75 13.4556 20.1511 11.8567 18.1788 11.8567H14.0938V3.99902Z" fill="#202022"/>
<path d="M2.5 12.75V20H1V4H2.5V11.25L9.5 11.25V4H11V20H9.5V12.75L2.5 12.75Z" fill="#202022"/>
</g>
</g>
</svg>
