<svg width="24" height="24" viewBox="0 0 24 24" fill="none" xmlns="http://www.w3.org/2000/svg">
<g id="Heading 6">
<g id="Shape">
<path d="M2.5 12.75V20H1V4H2.5V11.25L9.5 11.25V4H11V20H9.5V12.75L2.5 12.75Z" fill="#202022"/>
<path fill-rule="evenodd" clip-rule="evenodd" d="M13.8354 12.717L19.0991 4H20.8513L16.8566 10.6155C17.2242 10.5294 17.6075 10.4839 18.0014 10.4839C20.7636 10.4839 23.0028 12.7231 23.0028 15.4853C23.0028 18.2475 20.7636 20.4867 18.0014 20.4867C15.2392 20.4867 13 18.2475 13 15.4853C13 14.4616 13.3076 13.5097 13.8354 12.717ZM15.0694 13.5706C14.7094 14.1208 14.5 14.7786 14.5 15.4853C14.5 17.4191 16.0676 18.9867 18.0014 18.9867C19.9352 18.9867 21.5028 17.4191 21.5028 15.4853C21.5028 13.5515 19.9352 11.9839 18.0014 11.9839C16.7936 11.9839 15.7287 12.5954 15.0993 13.5257L15.0715 13.5718L15.0694 13.5706Z" fill="#202022"/>
</g>
</g>
</svg>
