<svg width="24" height="24" viewBox="0 0 24 24" fill="none" xmlns="http://www.w3.org/2000/svg">
<g id="Type=Outline">
<path id="Vector" d="M4.291 9.75H6.5C7.466 9.75 8.25 10.533 8.25 11.5V14.5C8.25 15.466 7.467 16.25 6.5 16.25H4.25V16.5C4.25 18.847 6.153 20.75 8.5 20.75H12.5V22.25H8.5C5.324 22.25 2.75 19.676 2.75 16.5V9.75H2.783C3.186 5.234 7.197 1.75 12 1.75C16.803 1.75 20.814 5.234 21.217 9.75H21.25V16.25H17.5C16.534 16.25 15.75 15.467 15.75 14.5V11.5C15.75 10.534 16.533 9.75 17.5 9.75H19.709C19.309 6.132 16.048 3.25 12 3.25C7.952 3.25 4.691 6.132 4.291 9.75ZM17.25 11.5V14.5C17.25 14.638 17.362 14.75 17.5 14.75H19.75V11.25H17.5C17.362 11.25 17.25 11.362 17.25 11.5ZM4.25 11.25V14.75H6.5C6.638 14.75 6.75 14.638 6.75 14.5V11.5C6.75 11.362 6.638 11.25 6.5 11.25H4.25Z" fill="#202022"/>
</g>
</svg>
