<svg width="24" height="24" viewBox="0 0 24 24" fill="none" xmlns="http://www.w3.org/2000/svg">
<g id="Heading 3">
<g id="Shape">
<path d="M17.375 10.7476C18.9628 10.7476 20.25 9.46038 20.25 7.87256C20.25 6.28474 18.9628 4.99756 17.375 4.99756C15.7872 4.99756 14.5 6.28474 14.5 7.87256H13C13 5.45631 14.9588 3.49756 17.375 3.49756C19.7913 3.49756 21.75 5.45631 21.75 7.87256C21.75 9.21989 21.141 10.425 20.1832 11.2275C21.818 12.0145 22.9463 13.6868 22.9463 15.6226C22.9463 18.3149 20.7637 20.4976 18.0713 20.4976C15.3789 20.4976 13.1963 18.3149 13.1963 15.6226H14.6963C14.6963 17.4865 16.2073 18.9976 18.0713 18.9976C19.9352 18.9976 21.4463 17.4865 21.4463 15.6226C21.4463 13.7586 19.9352 12.2476 18.0713 12.2476H16.1667V10.7476H17.375Z" fill="#202022"/>
<path d="M2.5 20V12.75L9.5 12.75V20H11V4H9.5V11.25L2.5 11.25V4H1V20H2.5Z" fill="#202022"/>
</g>
</g>
</svg>
