<svg width="24" height="24" viewBox="0 0 24 24" fill="none" xmlns="http://www.w3.org/2000/svg">
<g id="Heal Filled">
<path id="Shape" d="M21.37 10.0588C22.83 8.59875 22.83 6.21875 21.37 4.75875L19.25 2.63875C17.79 1.17875 15.41 1.17875 13.95 2.63875L13.07 3.51875L20.49 10.9388L21.37 10.0588ZM2.63 13.9488C1.17 15.4088 1.17 17.7888 2.63 19.2488L4.75 21.3688C6.21 22.8288 8.59 22.8288 10.05 21.3688L10.93 20.4888L3.51 13.0688L2.63 13.9488ZM10.05 2.63875C8.59 1.16875 6.21 1.16875 4.75 2.63875L2.63 4.75875C1.17 6.21875 1.17 8.59875 2.63 10.0588L13.94 21.3688C15.4 22.8288 17.78 22.8288 19.24 21.3688L21.36 19.2488C22.82 17.7888 22.82 15.4088 21.36 13.9488L10.05 2.63875ZM10.62 12.7088C10.23 13.0988 9.6 13.0988 9.21 12.7088C8.82 12.3188 8.82 11.6888 9.21 11.2988C9.6 10.9088 10.23 10.9088 10.62 11.2988C11.01 11.6888 11.01 12.3188 10.62 12.7088ZM12.74 14.8388C12.35 15.2288 11.72 15.2288 11.33 14.8388C10.94 14.4488 10.94 13.8188 11.33 13.4288C11.72 13.0388 12.35 13.0388 12.74 13.4288C13.13 13.8188 13.13 14.4488 12.74 14.8388ZM12.74 10.5888C12.35 10.9788 11.72 10.9788 11.33 10.5888C10.94 10.1988 10.94 9.56876 11.33 9.17875C11.72 8.78875 12.35 8.78875 12.74 9.17875C13.13 9.56876 13.13 10.1988 12.74 10.5888ZM14.87 12.7088C14.48 13.0988 13.85 13.0988 13.46 12.7088C13.07 12.3188 13.07 11.6888 13.46 11.2988C13.85 10.9088 14.48 10.9088 14.87 11.2988C15.26 11.6888 15.26 12.3188 14.87 12.7088Z" fill="#202022"/>
</g>
</svg>
