<svg width="24" height="24" viewBox="0 0 24 24" fill="none" xmlns="http://www.w3.org/2000/svg">
<g id="Healing Outline">
<path id="Vector" d="M10.626 11.333C11.016 11.723 11.016 12.357 10.626 12.747C10.236 13.137 9.602 13.137 9.212 12.747C8.821 12.357 8.821 11.723 9.212 11.333C9.603 10.943 10.236 10.943 10.626 11.333Z" fill="#202022"/>
<path id="Vector_2" d="M12.747 10.626C13.137 10.236 13.137 9.602 12.747 9.212C12.357 8.822 11.723 8.821 11.333 9.212C10.943 9.603 10.943 10.236 11.333 10.626C11.723 11.016 12.357 11.016 12.747 10.626Z" fill="#202022"/>
<path id="Vector_3" d="M12.747 13.454C13.137 13.845 13.137 14.478 12.747 14.868C12.357 15.258 11.723 15.258 11.333 14.868C10.943 14.477 10.943 13.844 11.333 13.454C11.723 13.064 12.357 13.064 12.747 13.454Z" fill="#202022"/>
<path id="Vector_4" d="M14.868 12.747C15.258 12.357 15.258 11.723 14.868 11.333C14.478 10.943 13.844 10.943 13.454 11.333C13.064 11.723 13.064 12.357 13.454 12.747C13.844 13.137 14.478 13.137 14.868 12.747Z" fill="#202022"/>
<path id="Vector_5" d="M19.425 12L21.37 10.055C22.834 8.59101 22.834 6.216 21.37 4.752L19.249 2.631C17.785 1.167 15.41 1.167 13.946 2.631L12.001 4.576L10.056 2.631C8.592 1.167 6.217 1.167 4.753 2.631L2.632 4.752C1.168 6.216 1.168 8.59101 2.632 10.055L4.577 12L2.633 13.944C1.169 15.408 1.169 17.783 2.633 19.247L4.754 21.368C6.218 22.832 8.593 22.832 10.057 21.368L12.001 19.424L13.945 21.368C15.409 22.832 17.784 22.832 19.248 21.368L21.369 19.247C22.833 17.783 22.833 15.408 21.369 13.944L19.425 12ZM18.364 10.939L13.061 5.636L15.006 3.691C15.885 2.812 17.309 2.812 18.188 3.691L20.309 5.812C21.188 6.691 21.188 8.11501 20.309 8.99401L18.364 10.939ZM10.939 18.364L8.995 20.308C8.116 21.187 6.692 21.187 5.813 20.308L3.692 18.187C2.813 17.308 2.813 15.884 3.692 15.005L5.636 13.061L10.939 18.364ZM3.691 8.995C2.812 8.116 2.812 6.69201 3.691 5.813L5.812 3.692C6.691 2.813 8.115 2.813 8.994 3.692L20.308 15.006C21.187 15.885 21.187 17.309 20.308 18.188L18.187 20.309C17.308 21.188 15.884 21.188 15.005 20.309L3.691 8.995Z" fill="#202022"/>
</g>
</svg>
