<svg width="24" height="24" viewBox="0 0 24 24" fill="none" xmlns="http://www.w3.org/2000/svg">
<g id="Type=Outline">
<path id="Vector" d="M20.156 4.87516C18.2378 2.95696 15.1215 2.95228 13.2052 4.86862L12.0006 6.07323L10.796 4.86862C8.87964 2.95228 5.76337 2.95696 3.84517 4.87516C1.92696 6.79337 1.92228 9.90964 3.83862 11.826L12.0006 19.9879L20.1625 11.826C22.0789 9.90964 22.0742 6.79337 20.156 4.87516ZM12.2129 3.87538C14.6792 1.40911 18.683 1.41846 21.1474 3.88192C23.6118 6.34538 23.6211 10.3501 21.1539 12.8164L11.9996 21.9707L2.84538 12.8164C0.379113 10.3501 0.388465 6.34632 2.85193 3.88192C5.31539 1.41753 9.32014 1.40818 11.7864 3.87538L11.9987 4.08768L12.211 3.87538H12.2129Z" fill="#202022"/>
</g>
</svg>
