<svg width="24" height="24" viewBox="0 0 24 24" fill="none" xmlns="http://www.w3.org/2000/svg">
<g id="Type=Outline">
<g id="Shape">
<path fill-rule="evenodd" clip-rule="evenodd" d="M10.4699 2.65688C11.8299 1.49688 14.0199 1.57688 15.2999 2.85688C16.6899 4.25688 16.6899 6.52688 15.2999 7.91688L10.4699 12.7669L5.63991 7.91688C4.24991 6.51688 4.24991 4.24688 5.63991 2.85688C6.91991 1.57688 9.10991 1.49688 10.4699 2.65688ZM10.4699 10.6369L14.2399 6.85688H14.2199C15.0299 6.04688 15.0299 4.72688 14.2199 3.91688C13.4399 3.13688 12.0799 3.13688 11.2999 3.91688L10.4599 4.76688L9.61991 3.91688C9.22991 3.52688 8.70991 3.30688 8.15991 3.30688C7.60991 3.30688 7.08991 3.52688 6.69991 3.91688C5.88991 4.72688 5.88991 6.04688 6.69991 6.85688L10.4699 10.6369Z" fill="#202022"/>
<path d="M20.0603 12.1639L12.9675 19.1891L10.47 16.6917L5.00036 22.1613L3.9397 21.1007L10.47 14.5703L12.9726 17.0729L19.0047 11.0981L20.0603 12.1639Z" fill="#202022"/>
</g>
</g>
</svg>
