<svg width="24" height="24" viewBox="0 0 24 24" fill="none" xmlns="http://www.w3.org/2000/svg">
<g id="Type=Outline">
<path id="Vector" d="M12 1.75C6.339 1.75 1.75 6.339 1.75 12C1.75 17.661 6.339 22.25 12 22.25C17.661 22.25 22.25 17.661 22.25 12C22.25 6.339 17.661 1.75 12 1.75ZM3.25 12C3.25 9.854 4.023 7.888 5.305 6.366L8.153 9.214C7.585 9.997 7.25 10.96 7.25 12.001C7.25 13.042 7.585 14.005 8.153 14.788L5.305 17.636C4.023 16.114 3.25 14.148 3.25 12.002V12ZM6.366 18.695L9.214 15.847C9.997 16.415 10.96 16.75 12.001 16.75C13.042 16.75 14.005 16.415 14.788 15.847L17.636 18.695C16.114 19.977 14.148 20.75 12.002 20.75C9.856 20.75 7.89 19.977 6.368 18.695H6.366ZM18.695 17.634L15.847 14.786C16.415 14.003 16.75 13.04 16.75 11.999C16.75 10.958 16.415 9.995 15.847 9.212L18.695 6.364C19.977 7.886 20.75 9.852 20.75 11.998C20.75 14.144 19.977 16.11 18.695 17.632V17.634ZM14.787 8.153C14.004 7.585 13.041 7.25 12 7.25C10.959 7.25 9.996 7.585 9.213 8.153L6.365 5.305C7.887 4.023 9.853 3.25 11.999 3.25C14.145 3.25 16.111 4.023 17.633 5.305L14.785 8.153H14.787ZM8.75 12C8.75 10.205 10.205 8.75 12 8.75C13.795 8.75 15.25 10.205 15.25 12C15.25 13.795 13.795 15.25 12 15.25C10.205 15.25 8.75 13.795 8.75 12Z" fill="#202022"/>
</g>
</svg>
