<svg width="24" height="24" viewBox="0 0 24 24" fill="none" xmlns="http://www.w3.org/2000/svg">
<g id="Type=Filled">
<path id="Vector" d="M17.922 19.429C16.298 20.725 14.24 21.5 12 21.5C9.64601 21.5 7.49301 20.644 5.83301 19.227L9.75101 15.309C10.392 15.745 11.166 16 11.999 16C12.813 16 13.571 15.757 14.202 15.339L17.92 19.429H17.922Z" fill="#202022"/>
<path id="Vector_2" d="M19.017 18.404C20.559 16.715 21.5 14.467 21.5 12C21.5 9.64698 20.644 7.49298 19.227 5.83398L15.309 9.75198C15.745 10.393 16 11.167 16 12C16 12.853 15.733 13.643 15.279 14.292L19.017 18.404Z" fill="#202022"/>
<path id="Vector_3" d="M18.166 4.773L14.248 8.691C13.607 8.255 12.833 8 12 8C11.167 8 10.392 8.255 9.75201 8.691L5.83401 4.773C7.49301 3.356 9.64702 2.5 12.001 2.5C14.355 2.5 16.507 3.356 18.166 4.773Z" fill="#202022"/>
<path id="Vector_4" d="M4.773 5.83398C3.356 7.49298 2.5 9.64698 2.5 12C2.5 14.353 3.356 16.506 4.773 18.166L8.691 14.248C8.255 13.607 8 12.833 8 12C8 11.167 8.255 10.392 8.691 9.75198L4.773 5.83398Z" fill="#202022"/>
</g>
</svg>
