<svg width="24" height="24" viewBox="0 0 24 24" fill="none" xmlns="http://www.w3.org/2000/svg">
<g id="Type=Outline">
<path id="Vector" d="M12.75 12V18H11.25V12H12.75Z" fill="#202022"/>
<path id="Vector_2" d="M12 8.5C11.448 8.5 11 8.948 11 9.5C11 10.052 11.448 10.5 12 10.5C12.552 10.5 13 10.052 13 9.5C13 8.948 12.552 8.5 12 8.5Z" fill="#202022"/>
<path id="Vector_3" d="M6.5 1.75H19.766V3.25H6.5C6.086 3.25 5.75 3.586 5.75 4C5.75 4.414 6.086 4.75 6.5 4.75H19.75V22.25H4.25V4C4.25 2.757 5.257 1.75 6.5 1.75ZM5.75 6.122V20.75H18.25V6.25H6.5C6.237 6.25 5.985 6.205 5.75 6.122Z" fill="#202022"/>
</g>
</svg>
