<svg width="24" height="24" viewBox="0 0 24 24" fill="none" xmlns="http://www.w3.org/2000/svg">
<g id="Type=Outline">
<path id="Vector" d="M1.97 3.02999L3.031 1.96899L6.61 5.54799C9.643 2.60899 14.484 2.63899 17.481 5.63599L23.845 12L18.453 17.392L22.031 20.97L20.97 22.031L1.97 3.02999ZM17.392 16.331L21.723 12L16.42 6.69699C14.009 4.28599 10.117 4.25699 7.67 6.60999L8.814 7.75399C9.695 7.08499 10.794 6.68799 11.986 6.68799C14.885 6.68799 17.236 9.03899 17.236 11.938C17.236 13.13 16.839 14.229 16.17 15.11L17.392 16.332V16.331ZM15.095 14.035C15.5 13.436 15.736 12.715 15.736 11.938C15.736 9.86699 14.057 8.18799 11.986 8.18799C11.209 8.18799 10.488 8.42399 9.889 8.82899L15.095 14.035Z" fill="#202022"/>
<path id="Vector_2" d="M12.471 15.657L13.712 16.898C13.172 17.086 12.591 17.188 11.986 17.188C9.08699 17.188 6.73599 14.837 6.73599 11.938C6.73599 11.334 6.83799 10.753 7.02599 10.212L8.26699 11.453C8.24699 11.612 8.23599 11.774 8.23599 11.938C8.23599 14.009 9.91499 15.688 11.986 15.688C12.15 15.688 12.312 15.677 12.471 15.657Z" fill="#202022"/>
<path id="Vector_3" d="M2.277 12L5.545 8.73202L4.484 7.67102L0.154999 12L6.519 18.364C9.151 20.996 13.204 21.339 16.207 19.394L15.116 18.303C12.727 19.679 9.622 19.346 7.579 17.303L2.277 12Z" fill="#202022"/>
</g>
</svg>
