<svg width="24" height="24" viewBox="0 0 24 24" fill="none" xmlns="http://www.w3.org/2000/svg">
<g id="Type=Filled">
<path id="Vector" d="M20.97 22.03L1.97 3.02999L3.031 1.96899L6.61 5.54799C9.643 2.60899 14.484 2.63899 17.481 5.63599L23.845 12L18.453 17.392L22.031 20.97L20.97 22.03ZM16.026 14.965C16.638 14.135 17 13.11 17 12C17 9.23899 14.761 6.99999 12 6.99999C10.89 6.99999 9.864 7.36199 9.035 7.97399L16.027 14.966L16.026 14.965Z" fill="#202022"/>
<path id="Vector_2" d="M13.565 16.75L16.209 19.394C13.206 21.339 9.15301 20.996 6.52101 18.364L0.157013 12L4.48601 7.67102L7.25001 10.435C7.08801 10.927 7.00001 11.453 7.00001 12C7.00001 14.761 9.23901 17 12 17C12.546 17 13.072 16.912 13.565 16.75Z" fill="#202022"/>
</g>
</svg>
