<svg width="24" height="24" viewBox="0 0 24 24" fill="none" xmlns="http://www.w3.org/2000/svg">
<g id="Type=Filled">
<path id="Shape" d="M20 2.75C20.9665 2.75 21.75 3.5335 21.75 4.5V8.5C21.75 9.4665 20.9665 10.25 20 10.25H17C16.0335 10.25 15.25 9.4665 15.25 8.5V7.25H13C12.8619 7.25 12.75 7.36193 12.75 7.5V16.5C12.75 16.6381 12.8619 16.75 13 16.75H15.25V15.5C15.25 14.5335 16.0335 13.75 17 13.75H20C20.9665 13.75 21.75 14.5335 21.75 15.5V19.5C21.75 20.4665 20.9665 21.25 20 21.25H17C16.0335 21.25 15.25 20.4665 15.25 19.5V18.25H13C12.0335 18.25 11.25 17.4665 11.25 16.5V12.75H8.75V14C8.75 14.9665 7.9665 15.75 7 15.75H4C3.0335 15.75 2.25 14.9665 2.25 14V10C2.25 9.0335 3.0335 8.25 4 8.25H7C7.9665 8.25 8.75 9.0335 8.75 10V11.25H11.25V7.5C11.25 6.5335 12.0335 5.75 13 5.75H15.25V4.5C15.25 3.5335 16.0335 2.75 17 2.75H20Z" fill="#202022"/>
</g>
</svg>
