<svg width="24" height="24" viewBox="0 0 24 24" fill="none" xmlns="http://www.w3.org/2000/svg">
<g id="History">
<path id="Vector" d="M12.125 3.125C7.293 3.125 3.375 7.043 3.375 11.875C3.375 14.128 4.226 16.181 5.625 17.733V15.375H7.125V20.125H2.375V18.625H4.411C2.832 16.822 1.875 14.46 1.875 11.875C1.875 6.214 6.464 1.625 12.125 1.625C17.786 1.625 22.375 6.214 22.375 11.875C22.375 17.536 17.786 22.125 12.125 22.125C10.729 22.125 9.397 21.846 8.182 21.339L8.759 19.955C9.794 20.387 10.93 20.625 12.124 20.625C16.957 20.625 20.874 16.707 20.874 11.875C20.874 7.043 16.956 3.125 12.124 3.125H12.125Z" fill="#202022"/>
<path id="Vector_2" d="M12.75 5.5H11.25V12.75H18.5V11.25H12.75V5.5Z" fill="#202022"/>
</g>
</svg>
