<svg width="24" height="24" viewBox="0 0 24 24" fill="none" xmlns="http://www.w3.org/2000/svg">
<g id="Type=Outline">
<path id="Vector" d="M3.25 10.326C2.629 10.995 2.25 11.891 2.25 12.876V20.876H3.75V17.626H20.25V20.876H21.75V12.876C21.75 11.892 21.371 10.995 20.75 10.326V4.875C20.75 3.909 19.967 3.125 19 3.125H5C4.034 3.125 3.25 3.908 3.25 4.875V10.326ZM4.75 4.875C4.75 4.737 4.862 4.625 5 4.625H19C19.138 4.625 19.25 4.737 19.25 4.875V9.338C18.859 9.2 18.438 9.125 18 9.125H17.75V7.875C17.75 7.323 17.302 6.875 16.75 6.875H13.75C13.198 6.875 12.75 7.323 12.75 7.875V9.125H11.25V7.875C11.25 7.323 10.802 6.875 10.25 6.875H7.25C6.698 6.875 6.25 7.323 6.25 7.875V9.125H6C5.562 9.125 5.141 9.2 4.75 9.338V4.875ZM20.25 12.875V16.125H3.75V12.875C3.75 11.632 4.757 10.625 6 10.625H18C19.243 10.625 20.25 11.632 20.25 12.875Z" fill="#202022"/>
</g>
</svg>
