<svg width="24" height="24" viewBox="0 0 24 24" fill="none" xmlns="http://www.w3.org/2000/svg">
<g id="Type=Filled">
<path id="Shape" d="M17 10.845C13.82 10.845 11.25 13.415 11.25 16.595C11.25 19.775 13.82 22.345 17 22.345C20.18 22.345 22.75 19.775 22.75 16.595C22.75 13.415 20.18 10.845 17 10.845ZM16 19.405L13.47 16.875L14.53 15.815L16 17.285L19.47 13.815L20.53 14.875L16 19.405ZM11.51 11.855C10.99 11.255 10.4 10.725 9.76 10.285C12.02 8.74503 13.56 6.14503 13.78 3.16503H15.25V1.65503H1.25V3.15503H2.72C2.94 6.13503 4.48 8.74503 6.74 10.285C4.48 11.825 2.94 14.425 2.72 17.405H1.25V18.905H10.13C9.89 18.175 9.75 17.405 9.75 16.595C9.75 14.785 10.42 13.125 11.51 11.855ZM4.65 5.15503C4.43 4.52503 4.28 3.85503 4.22 3.15503H12.28C12.22 3.85503 12.07 4.52503 11.85 5.15503H4.64H4.65Z" fill="#202022"/>
</g>
</svg>
