<svg width="24" height="24" viewBox="0 0 24 24" fill="none" xmlns="http://www.w3.org/2000/svg">
<g id="Type=Outline">
<path id="Shape" d="M17 10.845C13.82 10.845 11.25 13.415 11.25 16.595C11.25 19.775 13.82 22.345 17 22.345C20.18 22.345 22.75 19.775 22.75 16.595C22.75 13.415 20.18 10.845 17 10.845ZM16 19.405L13.47 16.875L14.53 15.815L16 17.285L19.47 13.815L20.53 14.875L16 19.405ZM8.25 11.115C9.17 11.605 9.97 12.295 10.63 13.135C10.88 12.675 11.18 12.245 11.52 11.855C11 11.255 10.41 10.725 9.77 10.285C12.03 8.74503 13.57 6.14503 13.79 3.16503H15.26V1.65503H1.25V3.15503H2.72C2.94 6.13503 4.48 8.74503 6.74 10.285C4.48 11.825 2.94 14.425 2.72 17.405H1.25V18.905H10.13C9.97 18.425 9.86 17.925 9.8 17.405H4.22C4.46 14.625 6.05 12.285 8.25 11.115ZM4.65 5.15503C4.43 4.52503 4.28 3.85503 4.22 3.15503H12.28C12.22 3.85503 12.07 4.52503 11.85 5.15503H4.65ZM5.35 6.65503H11.15C10.43 7.84503 9.43 8.81503 8.25 9.44503C7.07 8.81503 6.06 7.85503 5.35 6.65503Z" fill="#202022"/>
</g>
</svg>
