<svg width="24" height="24" viewBox="0 0 24 24" fill="none" xmlns="http://www.w3.org/2000/svg">
<g id="Type=Filled">
<path id="Vector" d="M8.75 5.75C8.75 3.955 10.205 2.5 12 2.5C13.795 2.5 15.25 3.955 15.25 5.75C15.25 7.545 13.795 9 12 9C10.205 9 8.75 7.545 8.75 5.75Z" fill="#202022"/>
<path id="Vector_2" d="M17.75 15.25V21.5H6.25V15.25C6.25 12.627 8.377 10.5 11 10.5H13C15.623 10.5 17.75 12.627 17.75 15.25Z" fill="#202022"/>
<path id="Vector_3" d="M5.386 12.5H3.5C1.705 12.5 0.25 13.955 0.25 15.75V19.5H4.75V15.25C4.75 14.263 4.979 13.33 5.386 12.5Z" fill="#202022"/>
<path id="Vector_4" d="M23.75 19.5V15.75C23.75 13.955 22.295 12.5 20.5 12.5H18.614C19.021 13.33 19.25 14.263 19.25 15.25V19.5H23.75Z" fill="#202022"/>
<path id="Vector_5" d="M19.5 6C17.981 6 16.75 7.231 16.75 8.75C16.75 10.269 17.981 11.5 19.5 11.5C21.019 11.5 22.25 10.269 22.25 8.75C22.25 7.231 21.019 6 19.5 6Z" fill="#202022"/>
<path id="Vector_6" d="M4.5 6C2.981 6 1.75 7.231 1.75 8.75C1.75 10.269 2.981 11.5 4.5 11.5C6.019 11.5 7.25 10.269 7.25 8.75C7.25 7.231 6.019 6 4.5 6Z" fill="#202022"/>
</g>
</svg>
