<svg width="24" height="24" viewBox="0 0 24 24" fill="none" xmlns="http://www.w3.org/2000/svg">
<g id="Type=Outline">
<path id="Vector" d="M12 3.125C10.205 3.125 8.75 4.58 8.75 6.375C8.75 8.17 10.205 9.625 12 9.625C13.795 9.625 15.25 8.17 15.25 6.375C15.25 4.58 13.795 3.125 12 3.125ZM10.25 6.375C10.25 5.409 11.033 4.625 12 4.625C12.967 4.625 13.75 5.408 13.75 6.375C13.75 7.341 12.967 8.125 12 8.125C11.033 8.125 10.25 7.342 10.25 6.375Z" fill="#202022"/>
<path id="Vector_2" d="M1.75 9.375C1.75 7.856 2.981 6.625 4.5 6.625C6.019 6.625 7.25 7.856 7.25 9.375C7.25 10.894 6.019 12.125 4.5 12.125C2.981 12.125 1.75 10.894 1.75 9.375ZM4.5 8.125C3.81 8.125 3.25 8.685 3.25 9.375C3.25 10.065 3.81 10.625 4.5 10.625C5.19 10.625 5.75 10.065 5.75 9.375C5.75 8.685 5.19 8.125 4.5 8.125Z" fill="#202022"/>
<path id="Vector_3" d="M16.75 9.375C16.75 7.856 17.981 6.625 19.5 6.625C21.019 6.625 22.25 7.856 22.25 9.375C22.25 10.894 21.019 12.125 19.5 12.125C17.981 12.125 16.75 10.894 16.75 9.375ZM19.5 8.125C18.81 8.125 18.25 8.685 18.25 9.375C18.25 10.065 18.81 10.625 19.5 10.625C20.19 10.625 20.75 10.065 20.75 9.375C20.75 8.685 20.19 8.125 19.5 8.125Z" fill="#202022"/>
<path id="Vector_4" d="M0.25 16.375C0.25 14.58 1.705 13.125 3.5 13.125H5.5C6.007 13.125 6.488 13.242 6.916 13.449C7.744 12.057 9.264 11.125 11 11.125H13C14.737 11.125 16.256 12.057 17.084 13.449C17.512 13.242 17.993 13.125 18.5 13.125H20.5C22.295 13.125 23.75 14.58 23.75 16.375V18.875H22.25V16.375C22.25 15.409 21.467 14.625 20.5 14.625H18.5C18.187 14.625 17.893 14.707 17.639 14.851C17.711 15.181 17.75 15.524 17.75 15.875V20.875H16.25V15.875C16.25 14.08 14.795 12.625 13 12.625H11C9.205 12.625 7.75 14.08 7.75 15.875V20.875H6.25V15.875C6.25 15.523 6.288 15.181 6.361 14.851C6.107 14.707 5.813 14.625 5.5 14.625H3.5C2.534 14.625 1.75 15.408 1.75 16.375V18.875H0.25V16.375Z" fill="#202022"/>
</g>
</svg>
