<svg width="24" height="24" viewBox="0 0 24 24" fill="none" xmlns="http://www.w3.org/2000/svg">
<g id="Type=Outline">
<path id="Vector" d="M23 4.75H1V3.25H23V4.75Z" fill="#202022"/>
<path id="Vector_2" d="M23 20.75H1V19.25H23V20.75Z" fill="#202022"/>
<path id="Vector_3" d="M11.393 7.75C10.024 7.75 8.976 8.904 8.976 10.25C8.976 11.596 10.024 12.75 11.393 12.75H12.584C13.056 12.75 13.501 13.163 13.501 13.75C13.501 14.337 13.057 14.75 12.584 14.75H9.251V16.25H12.584C13.953 16.25 15.001 15.096 15.001 13.75C15.001 12.404 13.953 11.25 12.584 11.25H11.393C10.921 11.25 10.476 10.837 10.476 10.25C10.476 9.663 10.92 9.25 11.393 9.25H14.25V7.75H11.393Z" fill="#202022"/>
<path id="Vector_4" d="M16 10.5C16 8.843 17.343 7.5 19 7.5C20.657 7.5 22 8.843 22 10.5V16.25H20.5V12.75H17.5V16.25H16V10.5ZM20.5 11.25V10.5C20.5 9.672 19.828 9 19 9C18.172 9 17.5 9.672 17.5 10.5V11.25H20.5Z" fill="#202022"/>
<path id="Vector_5" d="M3.5 12.75V16.25H2V7.75H3.5V11.25H6.5V7.75H8V16.25H6.5V12.75H3.5Z" fill="#202022"/>
</g>
</svg>
