<svg width="24" height="24" viewBox="0 0 24 24" fill="none" xmlns="http://www.w3.org/2000/svg">
<g id="Type=Filled">
<path id="Vector" d="M20.5 11.25V10.5C20.5 9.672 19.828 9 19 9C18.172 9 17.5 9.672 17.5 10.5V11.25H20.5Z" fill="#202022"/>
<path id="Vector_2" d="M24 4H0V20H24V4ZM16 10.5C16 8.843 17.343 7.5 19 7.5C20.657 7.5 22 8.843 22 10.5V16.25H20.5V12.75H17.5V16.25H16V10.5ZM8.976 10.25C8.976 8.904 10.024 7.75 11.393 7.75H14.25V9.25H11.393C10.921 9.25 10.476 9.663 10.476 10.25C10.476 10.837 10.92 11.25 11.393 11.25H12.583C13.952 11.25 15 12.404 15 13.75C15 15.096 13.952 16.25 12.583 16.25H9.25V14.75H12.583C13.055 14.75 13.5 14.337 13.5 13.75C13.5 13.163 13.056 12.75 12.583 12.75H11.393C10.024 12.75 8.976 11.596 8.976 10.25ZM3.5 16.25H2V7.75H3.5V11.25H6.5V7.75H8V16.25H6.5V12.75H3.5V16.25Z" fill="#202022"/>
</g>
</svg>
