<svg width="24" height="24" viewBox="0 0 24 24" fill="none" xmlns="http://www.w3.org/2000/svg">
<g id="I9 Filled">
<path id="Vector" d="M16.125 10.5C16.125 9.672 16.797 9 17.625 9C18.453 9 19.125 9.672 19.125 10.5C19.125 11.328 18.453 12 17.625 12C16.797 12 16.125 11.328 16.125 10.5Z" fill="#202022"/>
<path id="Vector_2" d="M24 4V20H0V4H24ZM17.625 7.5C15.968 7.5 14.625 8.843 14.625 10.5C14.625 12.114 15.899 13.43 17.497 13.497L15.745 16.25H17.523L20.133 12.149C20.445 11.676 20.625 11.109 20.625 10.5C20.625 8.843 19.282 7.5 17.625 7.5ZM13.586 11.258H9.586V12.758H13.586V11.258ZM4 14.758V16.258H9V14.758H7.25V9.258H9V7.758H4V9.258H5.75V14.758H4Z" fill="#202022"/>
</g>
</svg>
