<svg width="24" height="24" viewBox="0 0 24 24" fill="none" xmlns="http://www.w3.org/2000/svg">
<g id="I 9 Outline">
<path id="Vector" d="M1 4.75H23V3.25H1V4.75Z" fill="#202022"/>
<path id="Vector_2" d="M1 20.75H23V19.25H1V20.75Z" fill="#202022"/>
<path id="Vector_3" d="M9.58606 11.258H13.5861V12.758H9.58606V11.258Z" fill="#202022"/>
<path id="Vector_4" d="M17.625 7.5C15.968 7.5 14.625 8.843 14.625 10.5C14.625 12.114 15.899 13.43 17.497 13.497L15.745 16.25H17.523L20.133 12.149C20.445 11.676 20.625 11.109 20.625 10.5C20.625 8.843 19.282 7.5 17.625 7.5ZM16.125 10.5C16.125 9.672 16.797 9 17.625 9C18.453 9 19.125 9.672 19.125 10.5C19.125 11.328 18.453 12 17.625 12C16.797 12 16.125 11.328 16.125 10.5Z" fill="#202022"/>
<path id="Vector_5" d="M4 14.758H5.75V9.258H4V7.758H9V9.258H7.25V14.758H9V16.258H4V14.758Z" fill="#202022"/>
</g>
</svg>
