<svg width="24" height="24" viewBox="0 0 24 24" fill="none" xmlns="http://www.w3.org/2000/svg">
<g id="Type=Outline">
<path id="Vector" d="M15 5.75C13.481 5.75 12.25 6.981 12.25 8.5C12.25 10.019 13.481 11.25 15 11.25C16.519 11.25 17.75 10.019 17.75 8.5C17.75 6.981 16.519 5.75 15 5.75ZM13.75 8.5C13.75 7.81 14.31 7.25 15 7.25C15.69 7.25 16.25 7.81 16.25 8.5C16.25 9.19 15.69 9.75 15 9.75C14.31 9.75 13.75 9.19 13.75 8.5Z" fill="#202022"/>
<path id="Vector_2" d="M21.25 2.75H2.75V21.25H21.25V2.75ZM4.25 19.75V15.411L7.5 12.161L11.439 16.1L7.79 19.749L4.25 19.75ZM9.911 19.75L14.5 15.161L19.089 19.75H9.911ZM7.5 10.04L4.25 13.29V4.25H19.75V18.29L14.5 13.04L12.5 15.04L7.5 10.04Z" fill="#202022"/>
</g>
</svg>
