<svg width="24" height="24" viewBox="0 0 24 24" fill="none" xmlns="http://www.w3.org/2000/svg">
<g id="Type=Outline">
<path id="Vector" d="M11.25 3.28195C10.199 3.37095 9.20199 3.64595 8.28999 4.07395L7.53699 2.77095C8.67299 2.22095 9.92699 1.87395 11.25 1.77795V3.28195Z" fill="#202022"/>
<path id="Vector_2" d="M1.777 11.25C1.873 9.92699 2.219 8.67299 2.77 7.53699L4.073 8.28999C3.645 9.20199 3.371 10.2 3.281 11.25H1.777Z" fill="#202022"/>
<path id="Vector_3" d="M4.824 6.991L3.521 6.239C4.248 5.171 5.171 4.248 6.239 3.521L6.991 4.824C6.148 5.414 5.414 6.148 4.824 6.991Z" fill="#202022"/>
<path id="Vector_4" d="M22.25 12C22.25 17.409 18.061 21.839 12.75 22.223V20.718C17.231 20.337 20.75 16.579 20.75 12C20.75 7.42098 17.231 3.66198 12.75 3.28198V1.77698C18.061 2.16098 22.25 6.59098 22.25 12Z" fill="#202022"/>
<path id="Vector_5" d="M8.28899 19.927C9.20099 20.355 10.199 20.629 11.25 20.719V22.224C9.92699 22.128 8.67299 21.782 7.53699 21.231L8.28899 19.927Z" fill="#202022"/>
<path id="Vector_6" d="M6.991 19.1751C6.148 18.5851 5.414 17.8511 4.824 17.0081L3.521 17.7611C4.248 18.8291 5.171 19.7521 6.238 20.4791L6.99 19.1761L6.991 19.1751Z" fill="#202022"/>
<path id="Vector_7" d="M4.073 15.71C3.645 14.798 3.371 13.8 3.281 12.75H1.776C1.872 14.073 2.218 15.326 2.769 16.463L4.073 15.71Z" fill="#202022"/>
</g>
</svg>
