<svg width="24" height="24" viewBox="0 0 24 24" fill="none" xmlns="http://www.w3.org/2000/svg">
<g id="Type=Filled">
<path id="Vector" d="M11.25 3.28195C10.199 3.37095 9.20196 3.64595 8.28996 4.07395L7.53796 2.77095C8.67396 2.22095 9.92796 1.87395 11.251 1.77795V3.28295L11.25 3.28195Z" fill="#202022"/>
<path id="Vector_2" d="M4.82497 6.991C5.41497 6.148 6.14897 5.414 6.99197 4.824L6.23997 3.521C5.17197 4.248 4.24897 5.171 3.52197 6.239L4.82497 6.991Z" fill="#202022"/>
<path id="Vector_3" d="M4.073 8.28999C3.645 9.20199 3.371 10.2 3.281 11.25H1.776C1.872 9.92699 2.218 8.67299 2.769 7.53699L4.073 8.28999Z" fill="#202022"/>
<path id="Vector_4" d="M4.073 15.71C3.645 14.798 3.371 13.8 3.281 12.75H1.776C1.872 14.073 2.218 15.327 2.769 16.463L4.073 15.71Z" fill="#202022"/>
<path id="Vector_5" d="M6.991 19.1751C6.148 18.5851 5.414 17.8511 4.824 17.0081L3.521 17.7601C4.248 18.8281 5.171 19.7511 6.238 20.4781L6.99 19.1751H6.991Z" fill="#202022"/>
<path id="Vector_6" d="M12.75 22.223C18.061 21.839 22.25 17.409 22.25 12C22.25 6.59098 18.061 2.16098 12.75 1.77698V22.223Z" fill="#202022"/>
<path id="Vector_7" d="M11.25 20.718C10.199 20.629 9.20101 20.354 8.28901 19.926L7.53601 21.229C8.67201 21.78 9.92601 22.126 11.249 22.222V20.717L11.25 20.718Z" fill="#202022"/>
</g>
</svg>
