<svg width="24" height="24" viewBox="0 0 24 24" fill="none" xmlns="http://www.w3.org/2000/svg">
<g id="Type=Filled">
<path id="Vector" d="M5.38403 3.82196L6.98703 5.42496C8.08903 4.58796 9.40903 4.02196 10.846 3.82596V1.55896C8.79003 1.77796 6.91103 2.58996 5.38403 3.82196Z" fill="#202022"/>
<path id="Vector_2" d="M13.095 22.441C18.365 21.88 22.47 17.419 22.47 12.001C22.47 6.58304 18.365 2.12204 13.095 1.56104V22.441Z" fill="#202022"/>
<path id="Vector_3" d="M7.01902 18.6C8.11502 19.423 9.42202 19.98 10.846 20.175V22.442C8.80402 22.224 6.93702 21.422 5.41602 20.204L7.02002 18.601L7.01902 18.6Z" fill="#202022"/>
<path id="Vector_4" d="M5.42005 17.016C4.57005 15.907 3.99405 14.576 3.79605 13.125H1.52905C1.75005 15.195 2.57205 17.086 3.81705 18.618L5.42005 17.016Z" fill="#202022"/>
<path id="Vector_5" d="M3.79605 10.875C3.99205 9.43796 4.55805 8.11796 5.39505 7.01596L3.79205 5.41296C2.56105 6.93996 1.74805 8.81896 1.52905 10.875H3.79605Z" fill="#202022"/>
</g>
</svg>
