<svg width="24" height="24" viewBox="0 0 24 24" fill="none" xmlns="http://www.w3.org/2000/svg">
<g id="Type=Outline">
<path id="Vector" d="M7.01596 5.42496L5.41296 3.82196C6.93996 2.59096 8.81896 1.77796 10.875 1.55896V3.82596C9.43796 4.02196 8.11896 4.58796 7.01596 5.42496Z" fill="#202022"/>
<path id="Vector_2" d="M13.125 20.174C17.149 19.625 20.25 16.175 20.25 12C20.25 7.82496 17.149 4.37496 13.125 3.82596V1.55896C18.395 2.11996 22.5 6.58096 22.5 11.999C22.5 17.417 18.395 21.878 13.125 22.439V20.174Z" fill="#202022"/>
<path id="Vector_3" d="M7.04795 18.6C8.14395 19.423 9.45195 19.98 10.8749 20.175V22.442C8.83295 22.224 6.96595 21.422 5.44495 20.204L7.04895 18.601L7.04795 18.6Z" fill="#202022"/>
<path id="Vector_4" d="M3.82606 13.125C4.02406 14.576 4.59906 15.907 5.45006 17.016L3.84806 18.618C2.60206 17.086 1.78006 15.195 1.56006 13.125H3.82606Z" fill="#202022"/>
<path id="Vector_5" d="M3.82596 10.875C4.02196 9.43796 4.58796 8.11796 5.42496 7.01596L3.82196 5.41296C2.59096 6.93996 1.77796 8.81896 1.55896 10.875H3.82596Z" fill="#202022"/>
</g>
</svg>
