<svg width="24" height="24" viewBox="0 0 24 24" fill="none" xmlns="http://www.w3.org/2000/svg">
<g id="Type=Outline">
<path id="Vector" d="M12.75 10.5V16.5H11.25V10.5H12.75Z" fill="#202022"/>
<path id="Vector_2" d="M12 7C11.448 7 11 7.448 11 8C11 8.552 11.448 9 12 9C12.552 9 13 8.552 13 8C13 7.448 12.552 7 12 7Z" fill="#202022"/>
<path id="Vector_3" d="M1.75 12C1.75 6.339 6.339 1.75 12 1.75C17.661 1.75 22.25 6.339 22.25 12C22.25 17.661 17.661 22.25 12 22.25C6.339 22.25 1.75 17.661 1.75 12ZM12 3.25C7.168 3.25 3.25 7.168 3.25 12C3.25 16.832 7.168 20.75 12 20.75C16.833 20.75 20.75 16.832 20.75 12C20.75 7.168 16.832 3.25 12 3.25Z" fill="#202022"/>
</g>
</svg>
