<svg width="24" height="24" viewBox="0 0 24 24" fill="none" xmlns="http://www.w3.org/2000/svg">
<g id="Info Additional">
<path id="Vector" d="M21.256 17.453H19.396V15.593H16.996V17.453H15.136V19.853H16.996V21.713H19.396V19.853H21.256V17.453Z" fill="#202022"/>
<path id="Vector_2" d="M9.37496 2.272C7.87996 2.272 6.41796 2.715 5.17496 3.546C3.93196 4.377 2.96296 5.557 2.39096 6.939C1.81896 8.32 1.66896 9.841 1.96096 11.307C2.25296 12.773 2.97296 14.12 4.02996 15.178C5.08696 16.235 6.43396 16.955 7.90096 17.247C9.36796 17.539 10.888 17.389 12.269 16.817C13.65 16.245 14.831 15.276 15.662 14.033C16.493 12.79 16.936 11.328 16.936 9.833C16.936 7.828 16.14 5.905 14.722 4.487C13.304 3.069 11.381 2.273 9.37596 2.273L9.37496 2.272ZM10.574 15.035H8.17396V8.512H10.574V15.035ZM9.37496 6.832C9.13796 6.832 8.90596 6.762 8.70796 6.63C8.50996 6.498 8.35696 6.311 8.26596 6.091C8.17496 5.872 8.15096 5.63 8.19796 5.398C8.24496 5.166 8.35896 4.951 8.52596 4.784C8.69396 4.616 8.90796 4.502 9.13996 4.456C9.37196 4.41 9.61396 4.433 9.83296 4.524C10.052 4.615 10.24 4.769 10.372 4.966C10.504 5.163 10.574 5.395 10.574 5.633C10.574 5.951 10.448 6.256 10.223 6.482C9.99796 6.708 9.69296 6.833 9.37396 6.833L9.37496 6.832Z" fill="#202022"/>
</g>
</svg>
