<svg width="24" height="24" viewBox="0 0 24 24" fill="none" xmlns="http://www.w3.org/2000/svg">
<g id="Type=Filled">
<path id="Vector" d="M12 1.00696L12.59 1.75596C13.254 2.59996 14.701 3.46796 16.634 3.91896C18.312 4.30996 19.887 4.27696 20.999 3.94896L21.819 3.70796L21.952 4.55196C23.764 16.07 16.942 21.767 12.181 22.947L12.001 22.992L11.821 22.947C7.06 21.767 0.239 16.07 2.05 4.55196L2.183 3.70796L3.003 3.94896C4.115 4.27596 5.69 4.30996 7.368 3.91896C9.301 3.46796 10.748 2.59996 11.412 1.75596L12.002 1.00696H12ZM10.823 15.438L16.687 9.57396L15.626 8.51296L10.823 13.316L8.687 11.18L7.626 12.241L10.823 15.438Z" fill="#202022"/>
</g>
</svg>
