<svg width="24" height="24" viewBox="0 0 24 24" fill="none" xmlns="http://www.w3.org/2000/svg">
<g id="Instagram">
<path id="Vector" d="M12.012 2.08301C9.29596 2.08301 8.95496 2.09501 7.88896 2.14301C6.82396 2.19201 6.09796 2.36001 5.46196 2.60801C4.80396 2.86301 4.24596 3.20501 3.69096 3.76101C3.13596 4.31701 2.79296 4.87501 2.53696 5.53201C2.28896 6.16801 2.11996 6.89501 2.07196 7.95901C2.02396 9.02601 2.01196 9.36701 2.01196 12.083C2.01196 14.799 2.02396 15.139 2.07196 16.205C2.12096 17.27 2.28896 17.996 2.53696 18.632C2.79296 19.29 3.13396 19.848 3.68996 20.404C4.24596 20.96 4.80396 21.303 5.46096 21.558C6.09696 21.805 6.82396 21.974 7.88896 22.023C8.95596 22.071 9.29596 22.083 12.012 22.083C14.728 22.083 15.068 22.071 16.134 22.023C17.199 21.974 17.926 21.806 18.562 21.558C19.219 21.303 19.777 20.96 20.332 20.404C20.887 19.848 21.23 19.29 21.486 18.633C21.732 17.997 21.901 17.27 21.951 16.206C21.999 15.139 22.011 14.799 22.011 12.084C22.011 9.36901 21.999 9.02701 21.951 7.96101C21.901 6.89601 21.732 6.17001 21.486 5.53401C21.23 4.87601 20.888 4.31801 20.332 3.76301C19.776 3.20801 19.219 2.86501 18.561 2.61001C17.923 2.36301 17.196 2.19401 16.132 2.14501C15.065 2.09601 14.726 2.08501 12.009 2.08501H12.012V2.08301ZM11.115 3.88501C11.381 3.88501 11.678 3.88501 12.012 3.88501C14.682 3.88501 14.998 3.89501 16.053 3.94201C17.028 3.98701 17.557 4.14901 17.91 4.28601C18.377 4.46701 18.709 4.68401 19.059 5.03401C19.409 5.38401 19.626 5.71701 19.807 6.18401C19.944 6.53601 20.107 7.06501 20.151 8.04001C20.199 9.09401 20.209 9.41101 20.209 12.08C20.209 14.749 20.199 15.065 20.151 16.12C20.106 17.095 19.944 17.624 19.807 17.976C19.626 18.443 19.409 18.775 19.059 19.125C18.709 19.475 18.377 19.692 17.91 19.873C17.558 20.011 17.028 20.173 16.053 20.218C14.999 20.266 14.682 20.276 12.012 20.276C9.34196 20.276 9.02496 20.266 7.97096 20.218C6.99596 20.173 6.46696 20.01 6.11396 19.873C5.64696 19.692 5.31396 19.475 4.96396 19.125C4.61396 18.775 4.39696 18.443 4.21596 17.976C4.07896 17.624 3.91596 17.095 3.87196 16.12C3.82396 15.066 3.81496 14.749 3.81496 12.079C3.81496 9.40901 3.82496 9.09401 3.87196 8.03901C3.91696 7.06401 4.07996 6.53501 4.21596 6.18201C4.39696 5.71501 4.61396 5.38201 4.96396 5.03201C5.31396 4.68201 5.64696 4.46501 6.11396 4.28401C6.46696 4.14601 6.99596 3.98401 7.97096 3.93901C8.89396 3.89701 9.25096 3.88501 11.115 3.88301V3.88501ZM17.35 5.54501C17.113 5.54501 16.881 5.61501 16.683 5.74701C16.485 5.87901 16.332 6.06601 16.241 6.28601C16.15 6.50601 16.126 6.74701 16.173 6.97901C16.219 7.21201 16.334 7.42601 16.501 7.59301C16.668 7.76001 16.883 7.87501 17.116 7.92101C17.349 7.96701 17.59 7.94301 17.809 7.85301C18.028 7.76301 18.216 7.60801 18.347 7.41101C18.479 7.21401 18.549 6.98201 18.549 6.74401C18.549 6.08101 18.012 5.54401 17.349 5.54401L17.35 5.54501ZM12.012 6.94701C9.17596 6.94701 6.87696 9.24601 6.87696 12.083C6.87696 14.92 9.17596 17.217 12.012 17.217C14.848 17.217 17.147 14.919 17.147 12.083C17.147 9.24701 14.848 6.94701 12.012 6.94701ZM12.012 8.75001C13.853 8.75001 15.345 10.242 15.345 12.083C15.345 13.924 13.853 15.416 12.012 15.416C10.171 15.416 8.67896 13.924 8.67896 12.083C8.67896 10.242 10.171 8.75001 12.012 8.75001Z" fill="#202022"/>
</g>
</svg>
