<svg width="24" height="24" viewBox="0 0 24 24" fill="none" xmlns="http://www.w3.org/2000/svg">
<g id="Type=Outline">
<path id="Vector" d="M2.547 5.047C2.547 3.528 3.778 2.297 5.297 2.297C6.816 2.297 8.047 3.528 8.047 5.047C8.047 6.566 6.816 7.797 5.297 7.797C3.778 7.797 2.547 6.566 2.547 5.047ZM5.297 3.797C4.607 3.797 4.047 4.357 4.047 5.047C4.047 5.737 4.607 6.297 5.297 6.297C5.987 6.297 6.547 5.737 6.547 5.047C6.547 4.357 5.987 3.797 5.297 3.797Z" fill="#202022"/>
<path id="Vector_2" d="M17.737 19.047L16.142 17.452L17.203 16.391L18.798 17.986L20.393 16.391L21.454 17.452L19.859 19.047L21.454 20.642L20.393 21.703L18.798 20.108L17.203 21.703L16.142 20.642L17.737 19.047Z" fill="#202022"/>
<path id="Vector_3" d="M9.297 5.797H15.297C16.816 5.797 18.047 7.028 18.047 8.547C18.047 10.066 16.816 11.297 15.297 11.297H8.797C6.45 11.297 4.547 13.2 4.547 15.547C4.547 17.894 6.45 19.797 8.797 19.797H15.297V18.297H8.797C7.278 18.297 6.047 17.066 6.047 15.547C6.047 14.028 7.278 12.797 8.797 12.797H15.297C17.644 12.797 19.547 10.894 19.547 8.547C19.547 6.2 17.644 4.297 15.297 4.297H9.297V5.797Z" fill="#202022"/>
</g>
</svg>
