<svg width="24" height="24" viewBox="0 0 24 24" fill="none" xmlns="http://www.w3.org/2000/svg">
<g id="Type=Filled">
<path id="Vector" d="M13 2.25C14.519 2.25 15.75 3.481 15.75 5V13C15.75 14.519 14.519 15.75 13 15.75H9.75V17.25H13C15.347 17.25 17.25 15.347 17.25 13V8.25H19C20.519 8.25 21.75 9.481 21.75 11V19C21.75 20.519 20.519 21.75 19 21.75H11C9.481 21.75 8.25 20.519 8.25 19V11C8.25 9.481 9.481 8.25 11 8.25H14.25V6.75H11C8.653 6.75 6.75 8.653 6.75 11V15.75H5C3.481 15.75 2.25 14.519 2.25 13V5C2.25 3.481 3.481 2.25 5 2.25H13Z" fill="#202022"/>
</g>
</svg>
