<svg width="24" height="24" viewBox="0 0 24 24" fill="none" xmlns="http://www.w3.org/2000/svg">
<g id="Type=Filled">
<path id="Vector" d="M2.46799 5C2.46799 3.481 3.69899 2.25 5.21799 2.25C6.73699 2.25 7.96799 3.481 7.96799 5C7.96799 6.519 6.73699 7.75 5.21799 7.75C3.69899 7.75 2.46799 6.519 2.46799 5Z" fill="#202022"/>
<path id="Vector_2" d="M16.062 17.405L17.657 19L16.062 20.595L17.123 21.656L18.718 20.061L20.313 21.656L21.374 20.595L19.779 19L21.374 17.405L20.313 16.344L18.718 17.939L17.123 16.344L16.062 17.405Z" fill="#202022"/>
<path id="Vector_3" d="M9.21799 5.75H15.218C16.737 5.75 17.968 6.981 17.968 8.5C17.968 10.019 16.737 11.25 15.218 11.25H8.71799C6.37099 11.25 4.46799 13.153 4.46799 15.5C4.46799 17.847 6.37099 19.75 8.71799 19.75H15.218V18.25H8.71799C7.19899 18.25 5.96799 17.019 5.96799 15.5C5.96799 13.981 7.19899 12.75 8.71799 12.75H15.218C17.565 12.75 19.468 10.847 19.468 8.5C19.468 6.153 17.565 4.25 15.218 4.25H9.21799V5.75Z" fill="#202022"/>
</g>
</svg>
