<svg width="24" height="24" viewBox="0 0 24 24" fill="none" xmlns="http://www.w3.org/2000/svg">
<g id="Type=Outline">
<path id="Vector" d="M2.25 5V13C2.25 14.519 3.481 15.75 5 15.75H8.25V19C8.25 20.519 9.481 21.75 11 21.75H19C20.519 21.75 21.75 20.519 21.75 19V11C21.75 9.481 20.519 8.25 19 8.25H15.75V5C15.75 3.481 14.519 2.25 13 2.25H5C3.481 2.25 2.25 3.481 2.25 5ZM14.25 5V13C14.25 13.69 13.69 14.25 13 14.25H11.25V15.75H13C14.519 15.75 15.75 14.519 15.75 13V9.75H19C19.69 9.75 20.25 10.31 20.25 11V19C20.25 19.69 19.69 20.25 19 20.25H11C10.31 20.25 9.75 19.69 9.75 19V11C9.75 10.31 10.31 9.75 11 9.75H12.75V8.25H11C9.481 8.25 8.25 9.481 8.25 11V14.25H5C4.31 14.25 3.75 13.69 3.75 13V5C3.75 4.31 4.31 3.75 5 3.75H13C13.69 3.75 14.25 4.31 14.25 5Z" fill="#202022"/>
</g>
</svg>
