<svg width="24" height="24" viewBox="0 0 24 24" fill="none" xmlns="http://www.w3.org/2000/svg">
<g id="Type=Filled">
<path id="Vector" d="M14.811 1.75L19.75 6.689V22.25H4.25V1.75H14.811ZM17.939 7L14.5 3.561V7H17.939ZM11.996 8.75C10.148 8.75 8.635 10.184 8.508 12H7.249V13.5H8.499V15H7.249V16.5H8.508C8.634 18.316 10.148 19.75 11.996 19.75C13.844 19.75 15.357 18.315 15.484 16.5H13.978C13.857 17.486 13.016 18.25 11.997 18.25C10.978 18.25 10.137 17.486 10.016 16.5H12.251V15H10.001V13.5H12.251V12H10.016C10.137 11.014 10.978 10.25 11.997 10.25C13.016 10.25 13.857 11.014 13.978 12H15.484C15.358 10.185 13.845 8.75 11.996 8.75Z" fill="#202022"/>
</g>
</svg>
