<svg width="24" height="24" viewBox="0 0 24 24" fill="none" xmlns="http://www.w3.org/2000/svg">
<g id="Type=Filled">
<path id="Shape" fill-rule="evenodd" clip-rule="evenodd" d="M19.5 7V22.5H4V2H14.5L19.5 7ZM11 8.25V10C9.61929 10 8.5 11.1193 8.5 12.5C8.5 13.8807 9.61929 15 11 15H12.5C13.0523 15 13.5 15.4477 13.5 16C13.5 16.5523 13.0523 17 12.5 17H9.25V18.5H11V20.25H12.5V18.5C13.8807 18.5 15 17.3807 15 16C15 14.6193 13.8807 13.5 12.5 13.5H11C10.4477 13.5 10 13.0523 10 12.5C10 11.9477 10.4477 11.5 11 11.5H14.25V10H12.5V8.25H11ZM14.25 7.25H17.75L14.25 3.75V7.25Z" fill="#202022"/>
</g>
</svg>
