<svg width="24" height="24" viewBox="0 0 24 24" fill="none" xmlns="http://www.w3.org/2000/svg">
<g id="Type=Filled">
<path id="Vector" d="M14.811 1.75L19.75 6.689V22.25H4.25V1.75H14.811ZM17.939 7L14.5 3.561V7H17.939ZM8.5 9.254V10.754H11.003C11.982 10.754 12.815 11.38 13.124 12.254H8.5V13.754H13.123C12.814 14.626 11.982 15.25 11.004 15.25H8.501V16.621L13.045 20.096L13.956 18.904L11.136 16.747C12.889 16.686 14.337 15.421 14.677 13.753H16.001V12.253H14.678C14.566 11.699 14.331 11.189 14.004 10.753H16.001V9.253H8.501L8.5 9.254Z" fill="#202022"/>
</g>
</svg>
