<svg width="24" height="24" viewBox="0 0 24 24" fill="none" xmlns="http://www.w3.org/2000/svg">
<g id="Type=Outline">
<path id="Vector" d="M12.625 8.25C11.037 8.25 9.75 9.537 9.75 11.125V13H8.5V14.5H9.75V16.25C9.75 16.94 9.19 17.5 8.5 17.5V19H15.5V17.5H10.95C11.142 17.125 11.25 16.7 11.25 16.25V14.5H13.5V13H11.25V11.125C11.25 10.366 11.866 9.75 12.625 9.75C13.384 9.75 14 10.366 14 11.125V11.75H15.5V11.125C15.5 9.537 14.213 8.25 12.625 8.25Z" fill="#202022"/>
<path id="Vector_2" d="M14.811 1.75H4.25V22.25H19.75V6.689L14.811 1.75ZM5.75 20.75V3.25H14V7.504H18.25V20.75H5.75Z" fill="#202022"/>
</g>
</svg>
