<svg width="24" height="24" viewBox="0 0 24 24" fill="none" xmlns="http://www.w3.org/2000/svg">
<g id="Type=Outline">
<path id="Vector" d="M9.99999 13H12.25V11.5H10.015C10.136 10.514 10.977 9.75 11.996 9.75C13.015 9.75 13.856 10.514 13.977 11.5H15.483C15.357 9.685 13.844 8.25 11.995 8.25C10.146 8.25 8.63399 9.684 8.50699 11.5H7.24799V13H8.49799V14.5H7.24799V16H8.50699C8.63299 17.816 10.147 19.25 11.995 19.25C13.843 19.25 15.356 17.815 15.483 16H13.977C13.856 16.986 13.015 17.75 11.996 17.75C10.977 17.75 10.136 16.986 10.015 16H12.25V14.5H9.99999V13Z" fill="#202022"/>
<path id="Vector_2" d="M14.811 1.75H4.25V22.25H19.75V6.689L14.811 1.75ZM5.75 20.75V3.25H14V7.504H18.25V20.75H5.75Z" fill="#202022"/>
</g>
</svg>
