<svg width="24" height="24" viewBox="0 0 24 24" fill="none" xmlns="http://www.w3.org/2000/svg">
<g id="Type=Filled">
<path id="Vector" d="M14.811 1.75L19.75 6.689V22.25H4.25V1.75H14.811ZM17.939 7L14.5 3.561V7H17.939ZM12.625 8.75C11.037 8.75 9.75 10.037 9.75 11.625V13.5H8.5V15H9.75V16.75C9.75 17.44 9.19 18 8.5 18V19.5H15.5V18H10.95C11.142 17.625 11.25 17.2 11.25 16.75V15H13.5V13.5H11.25V11.625C11.25 10.866 11.866 10.25 12.625 10.25C13.384 10.25 14 10.866 14 11.625V12.25H15.5V11.625C15.5 10.037 14.213 8.75 12.625 8.75Z" fill="#202022"/>
</g>
</svg>
