<svg width="24" height="24" viewBox="0 0 24 24" fill="none" xmlns="http://www.w3.org/2000/svg">
<g id="Type=Outline">
<path id="Vector" d="M8.25403 11.754H12.878C12.57 10.88 11.737 10.254 10.757 10.254H8.25403V8.75403H15.754V10.254H13.757C14.084 10.69 14.319 11.2 14.431 11.754H15.754V13.254H14.43C14.09 14.922 12.643 16.187 10.889 16.248L13.709 18.405L12.798 19.597L8.25403 16.122V14.751H10.758C11.736 14.751 12.568 14.127 12.877 13.255H8.25403V11.755V11.754Z" fill="#202022"/>
<path id="Vector_2" d="M4.25 1.75H14.811L19.75 6.689V22.25H4.25V1.75ZM5.75 3.25V20.75H18.25V7.504H14V3.25H5.75Z" fill="#202022"/>
</g>
</svg>
