<svg width="24" height="24" viewBox="0 0 24 24" fill="none" xmlns="http://www.w3.org/2000/svg">
<g id="Type=Outline">
<path id="Vector" d="M11.25 8.75C9.869 8.75 8.75 9.869 8.75 11.25C8.75 12.631 9.869 13.75 11.25 13.75H12.75C13.302 13.75 13.75 14.198 13.75 14.75C13.75 15.302 13.302 15.75 12.75 15.75H9.5V17.25H11.25V19H12.75V17.25C14.131 17.25 15.25 16.131 15.25 14.75C15.25 13.369 14.131 12.25 12.75 12.25H11.25C10.698 12.25 10.25 11.802 10.25 11.25C10.25 10.698 10.698 10.25 11.25 10.25H14.5V8.75H12.75V7H11.25V8.75Z" fill="#202022"/>
<path id="Vector_2" d="M14.811 1.75H4.25V22.25H19.75V6.689L14.811 1.75ZM5.75 20.75V3.25H14V7.504H18.25V20.75H5.75Z" fill="#202022"/>
</g>
</svg>
