<svg width="24" height="24" viewBox="0 0 24 24" fill="none" xmlns="http://www.w3.org/2000/svg">
<g id="Ios">
<path id="Vector" d="M12 22C17.524 22 22 17.524 22 12C22 6.476 17.524 2 12 2C6.476 2 2 6.476 2 12C2 17.524 6.476 22 12 22ZM13.611 12.971L14.715 12.809C14.829 13.818 15.372 14.275 16.296 14.275C17.115 14.275 17.677 13.904 17.677 13.284C17.677 12.818 17.325 12.608 16.582 12.446L15.716 12.265C14.564 12.017 13.84 11.589 13.84 10.608C13.84 9.627 14.735 8.884 16.163 8.884C17.592 8.884 18.43 9.55 18.554 10.713L17.449 10.875C17.392 10.142 16.954 9.723 16.135 9.723C15.383 9.723 14.906 10.085 14.906 10.552C14.906 11.066 15.258 11.2 15.982 11.352L16.848 11.533C18.143 11.799 18.753 12.247 18.753 13.209C18.753 14.447 17.572 15.104 16.287 15.104C14.937 15.104 13.787 14.544 13.612 12.97L13.611 12.971ZM7.114 12C7.114 10.286 8.238 8.895 10.057 8.895C11.876 8.895 13 10.295 13 12C13 13.705 11.857 15.114 10.057 15.114C8.257 15.114 7.114 13.705 7.114 12ZM11.905 12C11.905 10.724 11.219 9.762 10.067 9.762C8.915 9.762 8.219 10.724 8.219 12C8.219 13.276 8.885 14.238 10.067 14.238C11.249 14.238 11.905 13.276 11.905 12ZM5.248 10.134V9H6.296V10.134H5.248ZM5.248 15.009V10.695H6.296V15.009H5.248Z" fill="#202022"/>
</g>
</svg>
