<svg width="24" height="24" viewBox="0 0 24 24" fill="none" xmlns="http://www.w3.org/2000/svg">
<g id="Iphone Outline">
<path id="Vector" d="M12 20C12.552 20 13 19.552 13 19C13 18.448 12.552 18 12 18C11.448 18 11 18.448 11 19C11 19.552 11.448 20 12 20Z" fill="#202022"/>
<path id="Vector_2" d="M17 22.75C17.966 22.75 18.75 21.967 18.75 21V3C18.75 2.034 17.967 1.25 17 1.25H7C6.034 1.25 5.25 2.033 5.25 3V21C5.25 21.966 6.033 22.75 7 22.75H17ZM17.25 21C17.25 21.138 17.138 21.25 17 21.25H7C6.862 21.25 6.75 21.138 6.75 21V3C6.75 2.862 6.862 2.75 7 2.75H17C17.138 2.75 17.25 2.862 17.25 3V21Z" fill="#202022"/>
</g>
</svg>
