<svg width="24" height="24" viewBox="0 0 24 24" fill="none" xmlns="http://www.w3.org/2000/svg">
<g id="Type=Filled">
<path id="Vector" d="M10.568 9.74999C10.568 8.95899 11.209 8.31799 12 8.31799C12.791 8.31799 13.432 8.95899 13.432 9.74999C13.432 10.541 12.791 11.182 12 11.182C11.209 11.182 10.568 10.541 10.568 9.74999Z" fill="#202022"/>
<path id="Vector_2" d="M2.75 3.75H21.25V15.75H2.75V3.75ZM9.465 11.224L8.641 12.048L9.702 13.109L10.526 12.285C10.75 12.416 10.993 12.517 11.25 12.585V13.75H12.75V12.585C13.007 12.517 13.25 12.416 13.474 12.285L14.299 13.11L15.36 12.049L14.535 11.224C14.666 11 14.767 10.757 14.835 10.5H16V9H14.835C14.767 8.743 14.666 8.5 14.535 8.276L15.36 7.451L14.299 6.39L13.474 7.215C13.25 7.084 13.007 6.983 12.75 6.915V5.75H11.25V6.915C10.993 6.983 10.75 7.085 10.526 7.215L9.702 6.391L8.641 7.452L9.465 8.276C9.334 8.5 9.233 8.743 9.165 9H8V10.5H9.165C9.233 10.757 9.335 11 9.465 11.224Z" fill="#202022"/>
<path id="Vector_3" d="M0.75 17.25H23.25V18C23.25 18.703 22.868 19.283 22.364 19.661C21.86 20.039 21.199 20.25 20.5 20.25H3.5C2.801 20.25 2.14 20.038 1.636 19.661C1.132 19.284 0.75 18.704 0.75 18V17.25Z" fill="#202022"/>
</g>
</svg>
