<svg width="24" height="24" viewBox="0 0 24 24" fill="none" xmlns="http://www.w3.org/2000/svg">
<g id="Type=Outline">
<path id="Vector" d="M9.465 9.026C9.334 9.25 9.233 9.493 9.165 9.75H8V11.25H9.165C9.233 11.507 9.335 11.75 9.465 11.974L8.641 12.798L9.702 13.859L10.526 13.035C10.75 13.166 10.993 13.267 11.25 13.335V14.5H12.75V13.335C13.007 13.267 13.25 13.165 13.474 13.035L14.299 13.86L15.36 12.799L14.535 11.974C14.666 11.75 14.767 11.507 14.835 11.25H16V9.75H14.835C14.767 9.493 14.665 9.25 14.535 9.026L15.36 8.202L14.299 7.141L13.474 7.965C13.25 7.834 13.007 7.733 12.75 7.665V6.5H11.25V7.665C10.993 7.733 10.75 7.835 10.526 7.965L9.702 7.141L8.641 8.202L9.465 9.026ZM10.568 10.5C10.568 9.709 11.209 9.068 12 9.068C12.791 9.068 13.432 9.709 13.432 10.5C13.432 11.291 12.791 11.932 12 11.932C11.209 11.932 10.568 11.291 10.568 10.5Z" fill="#202022"/>
<path id="Vector_2" d="M0.75 16V17.75C0.75 19.269 1.981 20.5 3.5 20.5H20.5C22.019 20.5 23.25 19.269 23.25 17.75V16H21.25V3.5H2.75V16H0.75ZM19.75 16H4.25V5H19.75V16ZM2.25 17.5H21.75V17.75C21.75 18.44 21.19 19 20.5 19H3.5C2.81 19 2.25 18.44 2.25 17.75V17.5Z" fill="#202022"/>
</g>
</svg>
