<svg width="24" height="24" viewBox="0 0 24 24" fill="none" xmlns="http://www.w3.org/2000/svg">
<g id="Jira">
<path id="Vector" d="M8.74 11.185C8.59 10.984 8.289 10.934 8.088 11.11C8.038 11.16 7.988 11.21 7.938 11.286L3.926 19.323C3.801 19.549 3.901 19.851 4.152 19.976C4.227 20.001 4.302 20.026 4.378 20.026H9.97C10.146 20.026 10.321 19.925 10.396 19.75C11.575 17.239 10.847 13.446 8.741 11.186L8.74 11.185Z" fill="#202022"/>
<path id="Vector_2" d="M11.674 3.87599C9.643 7.01499 9.417 10.984 11.047 14.324L13.73 19.724C13.805 19.875 13.981 20 14.156 20H19.748C20.024 20 20.224 19.774 20.224 19.523C20.224 19.448 20.199 19.372 20.174 19.297C20.174 19.297 12.651 4.25299 12.476 3.87599C12.376 3.64999 12.1 3.54899 11.874 3.67499C11.799 3.72499 11.725 3.80099 11.674 3.87599Z" fill="#202022"/>
</g>
</svg>
