<svg width="24" height="24" viewBox="0 0 24 24" fill="none" xmlns="http://www.w3.org/2000/svg">
<g id="Kanban">
<path id="Vector" d="M6.336 10.373C6.888 10.373 7.336 9.92499 7.336 9.37299C7.336 8.82099 6.888 8.37299 6.336 8.37299C5.784 8.37299 5.336 8.82099 5.336 9.37299C5.336 9.92499 5.784 10.373 6.336 10.373Z" fill="#202022"/>
<path id="Vector_2" d="M7.336 12.873C7.336 13.425 6.888 13.873 6.336 13.873C5.784 13.873 5.336 13.425 5.336 12.873C5.336 12.321 5.784 11.873 6.336 11.873C6.888 11.873 7.336 12.321 7.336 12.873Z" fill="#202022"/>
<path id="Vector_3" d="M6.336 17.373C6.888 17.373 7.336 16.925 7.336 16.373C7.336 15.821 6.888 15.373 6.336 15.373C5.784 15.373 5.336 15.821 5.336 16.373C5.336 16.925 5.784 17.373 6.336 17.373Z" fill="#202022"/>
<path id="Vector_4" d="M12.998 9.37299C12.998 9.92499 12.55 10.373 11.998 10.373C11.446 10.373 10.998 9.92499 10.998 9.37299C10.998 8.82099 11.446 8.37299 11.998 8.37299C12.55 8.37299 12.998 8.82099 12.998 9.37299Z" fill="#202022"/>
<path id="Vector_5" d="M11.998 13.873C12.55 13.873 12.998 13.425 12.998 12.873C12.998 12.321 12.55 11.873 11.998 11.873C11.446 11.873 10.998 12.321 10.998 12.873C10.998 13.425 11.446 13.873 11.998 13.873Z" fill="#202022"/>
<path id="Vector_6" d="M17.66 10.373C18.212 10.373 18.66 9.92499 18.66 9.37299C18.66 8.82099 18.212 8.37299 17.66 8.37299C17.108 8.37299 16.66 8.82099 16.66 9.37299C16.66 9.92499 17.108 10.373 17.66 10.373Z" fill="#202022"/>
<path id="Vector_7" d="M18.66 12.873C18.66 13.425 18.212 13.873 17.66 13.873C17.108 13.873 16.66 13.425 16.66 12.873C16.66 12.321 17.108 11.873 17.66 11.873C18.212 11.873 18.66 12.321 18.66 12.873Z" fill="#202022"/>
<path id="Vector_8" d="M18.66 16.373C18.66 16.925 18.212 17.373 17.66 17.373C17.108 17.373 16.66 16.925 16.66 16.373C16.66 15.821 17.108 15.373 17.66 15.373C18.212 15.373 18.66 15.821 18.66 16.373Z" fill="#202022"/>
<path id="Vector_9" d="M2.75 2.75V21.25H21.25V2.75H2.75ZM4.25 19.75V7.219H8.417V19.75H4.25ZM9.917 19.75V7.219H14.084V19.75H9.917ZM15.583 19.75V7.219H19.75V19.75H15.583Z" fill="#202022"/>
</g>
</svg>
