<svg width="24" height="24" viewBox="0 0 24 24" fill="none" xmlns="http://www.w3.org/2000/svg">
<g id="Key">
<path id="Vector" d="M0.250047 12C0.250047 8.824 2.82405 6.25 6.00005 6.25C8.92105 6.25 11.334 8.429 11.701 11.25H23.749V17H22.249V12.75H19.749V17H18.249V12.75H11.7C11.333 15.571 8.92005 17.75 5.99805 17.75C2.82205 17.75 0.248047 15.176 0.248047 12H0.250047ZM6.00005 7.75C3.65305 7.75 1.75005 9.653 1.75005 12C1.75005 14.347 3.65305 16.25 6.00005 16.25C8.34705 16.25 10.25 14.347 10.25 12C10.25 9.653 8.34705 7.75 6.00005 7.75Z" fill="#202022"/>
</g>
</svg>
