<svg width="24" height="24" viewBox="0 0 24 24" fill="none" xmlns="http://www.w3.org/2000/svg">
<g id="Type=Outline">
<path id="Vector" d="M12 2.75C9.377 2.75 7.25 4.879 7.25 7.506C7.25 9.587 8.585 11.357 10.445 12.002L11.118 12.235L8.498 21.25H15.5L12.88 12.235L13.553 12.002C15.413 11.357 16.748 9.587 16.748 7.506C16.748 4.878 14.621 2.75 11.998 2.75H12ZM5.75 7.506C5.75 4.052 8.547 1.25 12 1.25C15.453 1.25 18.25 4.052 18.25 7.506C18.25 9.991 16.803 12.136 14.708 13.146L17.499 22.75H6.501L9.292 13.146C7.197 12.136 5.75 9.991 5.75 7.506Z" fill="#202022"/>
</g>
</svg>
