<svg width="24" height="24" viewBox="0 0 24 24" fill="none" xmlns="http://www.w3.org/2000/svg">
<g id="Type=Outline">
<path id="Shape" d="M20.5 3.25C21.4665 3.25 22.25 4.0335 22.25 5V19C22.25 19.9665 21.4665 20.75 20.5 20.75H3.5C2.5335 20.75 1.75 19.9665 1.75 19V5C1.75 4.0335 2.5335 3.25 3.5 3.25H20.5ZM3.5 4.75C3.36193 4.75 3.25 4.86193 3.25 5V19C3.25 19.1381 3.36193 19.25 3.5 19.25H20.5C20.6381 19.25 20.75 19.1381 20.75 19V5C20.75 4.86193 20.6381 4.75 20.5 4.75H3.5ZM6.84375 17.75H4.75V16.25H6.84375V17.75ZM10.5469 17.75H8.45312V16.25H10.5469V17.75ZM14.25 17.75H12.1562V16.25H14.25V17.75ZM6.84375 14.75H4.75V13.25H6.84375V14.75ZM10.5469 14.75H8.45312V13.25H10.5469V14.75ZM14.25 14.75H12.1562V13.25H14.25V14.75ZM19.25 14.75H15.8594V9.25H19.25V14.75ZM14.25 11.75H4.75V6.25H14.25V11.75ZM6.25 10.25H12.75V7.75H6.25V10.25Z" fill="#202022"/>
</g>
</svg>
