<svg width="24" height="24" viewBox="0 0 24 24" fill="none" xmlns="http://www.w3.org/2000/svg">
<g id="Type=Filled">
<path id="Shape" fill-rule="evenodd" clip-rule="evenodd" d="M20.5 3.25H3.5C2.53 3.25 1.75 4.03 1.75 5V19C1.75 19.97 2.53 20.75 3.5 20.75H20.5C21.47 20.75 22.25 19.97 22.25 19V5C22.25 4.03 21.47 3.25 20.5 3.25ZM6.84 17.75H4.75V16.25H6.84V17.75ZM6.84 14.75H4.75V13.25H6.84V14.75ZM10.55 17.75H8.46V16.25H10.55V17.75ZM10.55 14.75H8.46V13.25H10.55V14.75ZM14.25 17.75H12.16V16.25H14.25V17.75ZM14.25 14.75H12.16V13.25H14.25V14.75ZM14.25 11.75H4.75V6.25H14.25V11.75ZM19.25 14.75H15.86V9.25H19.25V14.75Z" fill="#202022"/>
</g>
</svg>
