<svg width="24" height="24" viewBox="0 0 24 24" fill="none" xmlns="http://www.w3.org/2000/svg">
<g id="Lastpass">
<path id="Vector" d="M18.3 3H5.70101C4.20901 3 3.00101 4.208 3.00101 5.7V18.299C3.00101 19.789 4.20901 20.999 5.70101 20.999H18.3C19.79 20.999 21 19.791 21 18.299V5.7C21 4.21 19.792 3 18.3 3ZM6.79701 13.546C5.94201 13.546 5.25001 12.854 5.25001 11.999C5.25001 11.144 5.94201 10.452 6.79701 10.452C7.65201 10.452 8.34401 11.144 8.34401 11.999C8.34401 12.854 7.65201 13.546 6.79701 13.546ZM10.98 13.546C10.125 13.546 9.43301 12.854 9.43301 11.999C9.43301 11.144 10.125 10.452 10.98 10.452C11.835 10.452 12.527 11.144 12.527 11.999C12.527 12.854 11.835 13.546 10.98 13.546ZM15.198 13.546C14.345 13.546 13.651 12.854 13.651 11.999C13.651 11.144 14.343 10.452 15.198 10.452C16.053 10.452 16.745 11.144 16.745 11.999C16.745 12.854 16.053 13.546 15.198 13.546ZM18.75 15.015C18.75 15.214 18.592 15.375 18.399 15.375C18.206 15.375 18.048 15.213 18.048 15.015V8.985C18.048 8.786 18.206 8.625 18.399 8.625C18.592 8.625 18.75 8.787 18.75 8.985V15.015Z" fill="#202022"/>
</g>
</svg>
