<svg width="24" height="24" viewBox="0 0 24 24" fill="none" xmlns="http://www.w3.org/2000/svg">
<g id="Lattice">
<path id="Vector" d="M7.881 13.824L9.456 15.363L8.142 16.701C7.716 17.135 7.025 17.135 6.599 16.701L3.32 13.362C2.894 12.928 2.894 12.225 3.32 11.791C3.746 11.357 4.437 11.357 4.863 11.791L7.371 14.344L7.881 13.824ZM8.29 13.407L9.685 11.986L11.228 13.557L9.943 14.865L8.289 13.406L8.29 13.407Z" fill="#202022"/>
<path id="Vector_2" d="M14.603 14.836L12.959 13.367L16.823 9.43301C17.249 8.99901 17.94 8.99901 18.366 9.43301C18.792 9.86701 18.792 10.57 18.366 11.004L14.603 14.836ZM14.092 15.357L12.772 16.701C12.346 17.135 11.655 17.135 11.229 16.701L5.635 11.005C5.209 10.571 5.209 9.86701 5.635 9.43401C6.061 9.00101 6.752 9.00001 7.178 9.43401L12.001 14.345L12.543 13.793L14.092 15.359V15.357Z" fill="#202022"/>
<path id="Vector_3" d="M12.232 13.007L13.768 11.428L16.63 14.343L19.137 11.79C19.563 11.356 20.254 11.356 20.68 11.79C21.106 12.224 21.106 12.927 20.68 13.361L17.401 16.7C16.975 17.134 16.284 17.134 15.858 16.7L12.231 13.007H12.232ZM11.596 12.359L7.95 8.64601C7.524 8.21201 7.524 7.50901 7.95 7.07501C8.376 6.64101 9.067 6.64101 9.493 7.07501L13.143 10.792L11.596 12.359Z" fill="#202022"/>
<path id="Vector_4" d="M16.051 7.07599C15.625 6.64199 14.934 6.64199 14.508 7.07599L9.686 11.986L11.229 13.557L16.051 8.64699C16.477 8.21299 16.477 7.50999 16.051 7.07599Z" fill="#202022"/>
</g>
</svg>
