<svg width="24" height="24" viewBox="0 0 24 24" fill="none" xmlns="http://www.w3.org/2000/svg">
<g id="Type=Filled">
<path id="Vector" d="M6 13.75C5.586 13.75 5.25 14.086 5.25 14.5V16.5C5.25 16.914 5.586 17.25 6 17.25C6.414 17.25 6.75 16.914 6.75 16.5V14.5C6.75 14.086 6.414 13.75 6 13.75Z" fill="#202022"/>
<path id="Vector_2" d="M12 13.75C11.586 13.75 11.25 14.086 11.25 14.5V16.5C11.25 16.914 11.586 17.25 12 17.25C12.414 17.25 12.75 16.914 12.75 16.5V14.5C12.75 14.086 12.414 13.75 12 13.75Z" fill="#202022"/>
<path id="Vector_3" d="M18 13.75C17.586 13.75 17.25 14.086 17.25 14.5V16.5C17.25 16.914 17.586 17.25 18 17.25C18.414 17.25 18.75 16.914 18.75 16.5V14.5C18.75 14.086 18.414 13.75 18 13.75Z" fill="#202022"/>
<path id="Vector_4" d="M9.75 4C9.75 4.347 9.829 4.676 9.969 4.97L6.189 8.75H0.75V22.25H23.25V8.75H17.811L14.031 4.97C14.172 4.676 14.25 4.347 14.25 4C14.25 2.757 13.243 1.75 12 1.75C10.757 1.75 9.75 2.757 9.75 4ZM12 6.25C12.347 6.25 12.677 6.171 12.97 6.031L15.689 8.75H8.31L11.029 6.031C11.323 6.172 11.652 6.25 11.999 6.25H12ZM3.75 14.5C3.75 13.257 4.757 12.25 6 12.25C7.243 12.25 8.25 13.257 8.25 14.5V16.5C8.25 17.743 7.243 18.75 6 18.75C4.757 18.75 3.75 17.743 3.75 16.5V14.5ZM9.75 14.5C9.75 13.257 10.757 12.25 12 12.25C13.243 12.25 14.25 13.257 14.25 14.5V16.5C14.25 17.743 13.243 18.75 12 18.75C10.757 18.75 9.75 17.743 9.75 16.5V14.5ZM15.75 14.5C15.75 13.257 16.757 12.25 18 12.25C19.243 12.25 20.25 13.257 20.25 14.5V16.5C20.25 17.743 19.243 18.75 18 18.75C16.757 18.75 15.75 17.743 15.75 16.5V14.5Z" fill="#202022"/>
</g>
</svg>
