<svg width="24" height="24" viewBox="0 0 24 24" fill="none" xmlns="http://www.w3.org/2000/svg">
<g id="Type=Outline">
<path id="Vector" d="M6.133 11.516L10.376 15.759C11.059 16.442 12.167 16.442 12.851 15.759L13.558 15.052C14.242 14.368 14.242 13.261 13.558 12.577L13.381 12.4L14.442 11.339L20.983 17.88L22.044 16.819L15.503 10.278L16.564 9.21704L16.741 9.39404C17.424 10.077 18.532 10.077 19.216 9.39404L19.923 8.68704C20.606 8.00404 20.606 6.89604 19.923 6.21204L15.68 1.96904C14.997 1.28604 13.889 1.28604 13.205 1.96904L12.498 2.67604C11.815 3.35904 11.815 4.46704 12.498 5.15104L12.675 5.32804L9.493 8.51004L9.316 8.33304C8.633 7.65004 7.525 7.65004 6.841 8.33304L6.134 9.04004C5.451 9.72304 5.451 10.831 6.134 11.515L6.133 11.516ZM10.553 9.57104L13.735 6.38904L15.503 8.15704L12.321 11.339L10.553 9.57104ZM8.255 9.39404L12.498 13.637C12.596 13.735 12.596 13.893 12.498 13.991L11.791 14.698C11.693 14.796 11.535 14.796 11.437 14.698L7.194 10.455C7.096 10.357 7.096 10.199 7.194 10.101L7.901 9.39404C7.999 9.29604 8.157 9.29604 8.255 9.39404ZM13.558 4.09104C13.46 3.99304 13.46 3.83504 13.558 3.73704L14.265 3.03004C14.363 2.93204 14.521 2.93204 14.619 3.03004L18.862 7.27304C18.96 7.37104 18.96 7.52904 18.862 7.62704L18.155 8.33404C18.057 8.43204 17.899 8.43204 17.801 8.33404L13.558 4.09104Z" fill="#202022"/>
<path id="Vector_2" d="M13.207 19.793C13.207 18.827 12.424 18.043 11.457 18.043H5.457C4.491 18.043 3.707 18.826 3.707 19.793V21.043H1.957V22.543H14.957V21.043H13.207V19.793ZM11.707 21.043H5.207V19.793C5.207 19.655 5.319 19.543 5.457 19.543H11.457C11.595 19.543 11.707 19.655 11.707 19.793V21.043Z" fill="#202022"/>
</g>
</svg>
