<svg width="24" height="24" viewBox="0 0 24 24" fill="none" xmlns="http://www.w3.org/2000/svg">
<g id="Type=Filled">
<path id="Vector" d="M13.205 3.695C12.717 3.207 12.717 2.415 13.205 1.927L13.912 1.22C14.4 0.732004 15.192 0.732004 15.68 1.22L20.63 6.17C21.118 6.658 21.118 7.45 20.63 7.938L19.923 8.645C19.435 9.133 18.643 9.133 18.155 8.645L13.205 3.695Z" fill="#202022"/>
<path id="Vector_2" d="M5.426 11.473C4.938 10.985 4.938 10.193 5.426 9.70496L6.133 8.99796C6.621 8.50996 7.413 8.50996 7.901 8.99796L12.851 13.948C13.339 14.436 13.339 15.228 12.851 15.716L12.144 16.423C11.656 16.911 10.864 16.911 10.376 16.423L5.426 11.473Z" fill="#202022"/>
<path id="Vector_3" d="M12.853 20.396C12.853 19.43 12.07 18.646 11.103 18.646H5.103C4.137 18.646 3.353 19.429 3.353 20.396V21.646H1.603V23.146H14.603V21.646H12.853V20.396Z" fill="#202022"/>
<path id="Vector_4" d="M9.492 8.46703L12.674 5.28503L16.563 9.17403L15.502 10.235L22.396 17.129L21.335 18.19L14.441 11.296L13.38 12.357L9.491 8.46803L9.492 8.46703Z" fill="#202022"/>
</g>
</svg>
