<svg width="24" height="24" viewBox="0 0 24 24" fill="none" xmlns="http://www.w3.org/2000/svg">
<g id="Type=Outline">
<path id="Vector" d="M3.875 6.875V1.875H2.375V6.875C2.375 9.498 4.502 11.625 7.125 11.625H13.375V19.375C13.375 20.894 14.606 22.125 16.125 22.125H19.625C20.868 22.125 21.875 21.118 21.875 19.875C21.875 18.632 20.868 17.625 19.625 17.625H18.875V8.875C18.875 6.804 17.196 5.125 15.125 5.125H10.375V1.875H8.875V6.625H15.125C16.368 6.625 17.375 7.632 17.375 8.875V19.125H19.625C20.039 19.125 20.375 19.461 20.375 19.875C20.375 20.289 20.039 20.625 19.625 20.625H16.125C15.435 20.625 14.875 20.065 14.875 19.375V10.125H7.125C5.33 10.125 3.875 8.67 3.875 6.875Z" fill="#202022"/>
<path id="Vector_2" d="M2.125 14.625H11.875V13.125H2.125V14.625Z" fill="#202022"/>
</g>
</svg>
