<svg width="24" height="24" viewBox="0 0 24 24" fill="none" xmlns="http://www.w3.org/2000/svg">
<g id="Type=Filled">
<path id="Vector" d="M12 1.00702L12.59 1.75602C13.254 2.60002 14.701 3.46802 16.634 3.91902C18.312 4.31002 19.887 4.27702 20.999 3.94902L21.819 3.70802L21.952 4.55202C23.764 16.07 16.942 21.767 12.181 22.947L12.001 22.992L11.821 22.947C7.06003 21.767 0.239034 16.07 2.05003 4.55202L2.18303 3.70802L3.00303 3.94902C4.11503 4.27602 5.69003 4.31002 7.36803 3.91902C9.30103 3.46802 10.748 2.60002 11.412 1.75602L12.002 1.00702H12ZM7.36603 8.49702C6.18503 9.69202 6.18503 11.632 7.36603 12.828L11.98 17.5L16.594 12.828C17.775 11.633 17.775 9.69302 16.594 8.49702C15.413 7.30102 13.497 7.30102 12.316 8.49702L11.98 8.83702L11.644 8.49702C10.463 7.30102 8.54803 7.30102 7.36603 8.49702Z" fill="#202022"/>
</g>
</svg>
