<svg width="24" height="24" viewBox="0 0 24 24" fill="none" xmlns="http://www.w3.org/2000/svg">
<g id="Type=Outline">
<path id="Vector" d="M12 18.465L16.726 13.718C18.091 12.347 18.091 10.124 16.726 8.75401C15.432 7.45401 13.375 7.38501 12 8.54601C10.625 7.38401 8.56799 7.45401 7.27399 8.75401C5.90899 10.125 5.90899 12.348 7.27399 13.718L12 18.465ZM11.163 9.81201L12 10.652L12.837 9.81201C13.617 9.02801 14.882 9.02701 15.663 9.81201C16.445 10.597 16.446 11.874 15.663 12.659L11.999 16.339L8.33599 12.659C7.55399 11.874 7.55399 10.597 8.33599 9.81201C9.11699 9.02801 10.381 9.02801 11.162 9.81201H11.163Z" fill="#202022"/>
<path id="Vector_2" d="M12.5901 1.757L12.0001 1.008L11.4111 1.757C10.7471 2.601 9.30006 3.469 7.36706 3.92C5.68906 4.311 4.11406 4.278 3.00206 3.95L2.18206 3.709L2.04906 4.553C0.238058 16.071 7.05906 21.768 11.8201 22.948L12.0001 22.993L12.1801 22.948C16.9411 21.768 23.7621 16.071 21.9511 4.553L21.8181 3.709L20.9981 3.95C19.8861 4.277 18.3111 4.311 16.6331 3.92C14.7001 3.469 13.2531 2.601 12.5891 1.757H12.5901ZM7.70706 5.38C9.45106 4.973 10.9821 4.23 12.0001 3.31C13.0181 4.231 14.5491 4.974 16.2931 5.38C17.8121 5.734 19.3141 5.793 20.5811 5.58C21.8201 15.585 15.9511 20.367 12.0001 21.445C8.04906 20.367 2.18006 15.585 3.41906 5.58C4.68606 5.793 6.18906 5.734 7.70706 5.38Z" fill="#202022"/>
</g>
</svg>
