<svg width="24" height="24" viewBox="0 0 24 24" fill="none" xmlns="http://www.w3.org/2000/svg">
<g id="Linkedin">
<g id="Linkedin_2">
<path id="Vector" d="M19.0313 19.0312H16.0773V14.3609C16.0773 13.2462 16.0551 11.8138 14.5399 11.8138C13.0014 11.8138 12.7666 13.027 12.7666 14.2793V19.0311H9.81251V9.42662H12.647V10.7381H12.6869C13.0823 9.98333 14.047 9.18723 15.4859 9.18723C18.4786 9.18723 19.0313 11.1763 19.0313 13.7637V19.0312L19.0313 19.0312ZM6.37556 8.25001C5.42323 8.25001 4.65631 7.4802 4.65631 6.53073C4.65631 5.58226 5.42332 4.81252 6.37556 4.81252C7.3223 4.81252 8.09384 5.58226 8.09384 6.53073C8.09384 7.4803 7.32239 8.25001 6.37556 8.25001ZM4.9688 19.0312V9.5H7.93763V19.0312H4.9688ZM20.5189 2H3.47445C2.66109 2 1.99995 2.64664 1.99995 3.44112V20.5578C1.99995 21.3555 2.66107 22 3.47445 22H20.5189C21.3334 22 22.0001 21.3555 22.0001 20.5578V3.44112C22.0001 2.64664 21.3334 2 20.5189 2Z" fill="#202022"/>
</g>
</g>
</svg>
