<svg width="24" height="24" viewBox="0 0 24 24" fill="none" xmlns="http://www.w3.org/2000/svg">
<g id="Link Outlet">
<path id="Vector" d="M1.25 12C1.25 9.101 3.6 6.75 6.5 6.75H10V8.25H6.5C4.429 8.25 2.75 9.929 2.75 12C2.75 14.071 4.429 15.75 6.5 15.75H10V17.25H6.5C3.601 17.25 1.25 14.899 1.25 12Z" fill="#202022"/>
<path id="Vector_2" d="M16 12.75H8V11.25H16V12.75Z" fill="#202022"/>
<path id="Vector_3" d="M17.5 6.75C20.399 6.75 22.75 9.101 22.75 12C22.75 14.899 20.399 17.25 17.5 17.25H14V15.75H17.5C19.571 15.75 21.25 14.071 21.25 12C21.25 9.929 19.571 8.25 17.5 8.25H14V6.75H17.5Z" fill="#202022"/>
</g>
</svg>
