<svg width="24" height="24" viewBox="0 0 24 24" fill="none" xmlns="http://www.w3.org/2000/svg">
<g id="Type=Filled">
<path id="Vector" d="M4.5 6.5C5.328 6.5 6 5.828 6 5C6 4.172 5.328 3.5 4.5 3.5C3.672 3.5 3 4.172 3 5C3 5.828 3.672 6.5 4.5 6.5Z" fill="#202022"/>
<path id="Vector_2" d="M8 5.75H21V4.25H8V5.75Z" fill="#202022"/>
<path id="Vector_3" d="M8 12.75H21V11.25H8V12.75Z" fill="#202022"/>
<path id="Vector_4" d="M21 19.75H8V18.25H21V19.75Z" fill="#202022"/>
<path id="Vector_5" d="M6 12C6 12.828 5.328 13.5 4.5 13.5C3.672 13.5 3 12.828 3 12C3 11.172 3.672 10.5 4.5 10.5C5.328 10.5 6 11.172 6 12Z" fill="#202022"/>
<path id="Vector_6" d="M4.5 20.5C5.328 20.5 6 19.828 6 19C6 18.172 5.328 17.5 4.5 17.5C3.672 17.5 3 18.172 3 19C3 19.828 3.672 20.5 4.5 20.5Z" fill="#202022"/>
</g>
</svg>
