<svg width="24" height="24" viewBox="0 0 24 24" fill="none" xmlns="http://www.w3.org/2000/svg">
<g id="Type=Outline">
<path id="Vector" d="M4.5 5.25C4.5 4.836 4.836 4.5 5.25 4.5C5.664 4.5 6 4.836 6 5.25C6 5.664 5.664 6 5.25 6C4.836 6 4.5 5.664 4.5 5.25ZM5.25 3C4.007 3 3 4.007 3 5.25C3 6.493 4.007 7.5 5.25 7.5C6.493 7.5 7.5 6.493 7.5 5.25C7.5 4.007 6.493 3 5.25 3ZM9 6H21V4.5H9V6ZM5.25 11.25C4.836 11.25 4.5 11.586 4.5 12C4.5 12.414 4.836 12.75 5.25 12.75C5.664 12.75 6 12.414 6 12C6 11.586 5.664 11.25 5.25 11.25ZM3 12C3 10.757 4.007 9.75 5.25 9.75C6.493 9.75 7.5 10.757 7.5 12C7.5 13.243 6.493 14.25 5.25 14.25C4.007 14.25 3 13.243 3 12ZM9 12.75H21V11.25H9V12.75ZM5.25 18C4.836 18 4.5 18.336 4.5 18.75C4.5 19.164 4.836 19.5 5.25 19.5C5.664 19.5 6 19.164 6 18.75C6 18.336 5.664 18 5.25 18ZM3 18.75C3 17.507 4.007 16.5 5.25 16.5C6.493 16.5 7.5 17.507 7.5 18.75C7.5 19.993 6.493 21 5.25 21C4.007 21 3 19.993 3 18.75ZM9 19.5H21V18H9V19.5Z" fill="#202022"/>
</g>
</svg>
