<svg width="24" height="24" viewBox="0 0 24 24" fill="none" xmlns="http://www.w3.org/2000/svg">
<g id="List Mini">
<path id="Vector" d="M5.25 6.75C6.493 6.75 7.5 5.743 7.5 4.5C7.5 3.257 6.493 2.25 5.25 2.25C4.007 2.25 3 3.257 3 4.5C3 5.743 4.007 6.75 5.25 6.75Z" fill="#202022"/>
<path id="Vector_2" d="M10.5 6H21V3H10.5V6Z" fill="#202022"/>
<path id="Vector_3" d="M10.5 13.5H21V10.5H10.5V13.5Z" fill="#202022"/>
<path id="Vector_4" d="M21 21H10.5V18H21V21Z" fill="#202022"/>
<path id="Vector_5" d="M7.5 12C7.5 13.243 6.493 14.25 5.25 14.25C4.007 14.25 3 13.243 3 12C3 10.757 4.007 9.75 5.25 9.75C6.493 9.75 7.5 10.757 7.5 12Z" fill="#202022"/>
<path id="Vector_6" d="M5.25 21.75C6.493 21.75 7.5 20.743 7.5 19.5C7.5 18.257 6.493 17.25 5.25 17.25C4.007 17.25 3 18.257 3 19.5C3 20.743 4.007 21.75 5.25 21.75Z" fill="#202022"/>
</g>
</svg>
