<svg width="24" height="24" viewBox="0 0 24 24" fill="none" xmlns="http://www.w3.org/2000/svg">
<g id="Type=Outline" clip-path="url(#clip0_6030_659)">
<g id="Shape">
<path fill-rule="evenodd" clip-rule="evenodd" d="M7.62519 9.38434C9.51728 9.38459 11.0508 10.919 11.051 12.8111C11.0508 14.7032 9.51727 16.2366 7.62519 16.2369C5.73289 16.2369 4.19858 14.7034 4.19843 12.8111C4.19857 10.9188 5.73288 9.38434 7.62519 9.38434ZM7.62519 10.8843C6.56131 10.8843 5.69857 11.7473 5.69843 12.8111C5.69858 13.8749 6.56132 14.7369 7.62519 14.7369C8.68884 14.7366 9.55081 13.8748 9.55097 12.8111C9.55082 11.7474 8.68885 10.8846 7.62519 10.8843Z" fill="#202022"/>
<path fill-rule="evenodd" clip-rule="evenodd" d="M2.49823 7.68415C5.32954 4.85294 9.92087 4.85288 12.7521 7.68415C15.583 10.5154 15.5832 15.1069 12.7521 17.9381L7.62519 23.064L2.49823 17.9381C-0.33307 15.1068 -0.333069 10.5154 2.49823 7.68415ZM11.6906 8.74567C9.44513 6.50019 5.80528 6.50025 3.55976 8.74567C1.31424 10.9912 1.31424 14.631 3.55976 16.8765L7.62519 20.942L11.6906 16.8765C13.9359 14.6311 13.9357 10.9912 11.6906 8.74567Z" fill="#202022"/>
<path d="M11.2482 3.05915C14.0795 0.228222 18.6709 0.228114 21.5021 3.05915C24.3329 5.89038 24.333 10.4819 21.5021 13.3131L16.5402 18.274L15.4797 17.2134L20.4406 12.2515C22.6857 10.0061 22.6856 6.36611 20.4406 4.12067C18.1952 1.87542 14.5552 1.87553 12.3098 4.12067C12.0339 4.39654 11.7913 4.69363 11.5832 5.00641C11.1255 4.77421 10.6522 4.58362 10.1682 4.43708C10.465 3.94653 10.8247 3.48271 11.2482 3.05915Z" fill="#202022"/>
<path d="M16.3752 4.75934C18.2671 4.75972 19.8007 6.29418 19.801 8.1861C19.8008 10.0781 18.2672 11.6115 16.3752 11.6119C16.3473 11.6119 16.319 11.6106 16.2912 11.6099C16.2189 11.0849 16.0985 10.5656 15.9308 10.0582C16.0735 10.0919 16.2222 10.1119 16.3752 10.1119C17.4387 10.1115 18.3008 9.2497 18.301 8.1861C18.3007 7.12261 17.4387 6.25972 16.3752 6.25934C15.5539 6.25945 14.8535 6.7746 14.5764 7.4986C14.3436 7.19479 14.0907 6.90061 13.8127 6.62262C13.7099 6.51986 13.6047 6.42038 13.4982 6.3238C14.109 5.38248 15.1697 4.75943 16.3752 4.75934Z" fill="#202022"/>
</g>
</g>
<defs>
<clipPath id="clip0_6030_659">
<rect width="24" height="24" fill="white"/>
</clipPath>
</defs>
</svg>
