<svg width="24" height="24" viewBox="0 0 24 24" fill="none" xmlns="http://www.w3.org/2000/svg">
<g id="Type=Filled" clip-path="url(#clip0_6030_661)">
<g id="Shape">
<path fill-rule="evenodd" clip-rule="evenodd" d="M2.49838 7.6578C5.32969 4.82655 9.921 4.82652 12.7523 7.6578C15.583 10.4891 15.5834 15.0806 12.7523 17.9117L7.62533 23.0377L2.49838 17.9117C-0.332898 15.0804 -0.332851 10.4891 2.49838 7.6578ZM7.62436 10.0338C6.10574 10.0341 4.87443 11.2651 4.87436 12.7838L4.88803 13.065C5.02902 14.4513 6.20055 15.5335 7.62436 15.5338L7.90561 15.5191C9.29213 15.3782 10.3742 14.2075 10.3744 12.7838C10.3743 11.3598 9.29203 10.1884 7.90561 10.0475L7.62436 10.0338Z" fill="#202022"/>
<path d="M11.2484 3.08554C14.0796 0.254777 18.6711 0.254604 21.5023 3.08554C24.3325 5.91676 24.3328 10.5084 21.5023 13.3394L16.3753 18.4654L15.1556 17.2457C16.2921 15.33 16.6335 13.0735 16.182 10.9527C16.3409 10.9637 16.4976 10.9551 16.6566 10.9469C18.0424 10.8054 19.125 9.63467 19.1253 8.21151C19.1251 6.78809 18.0423 5.61669 16.6566 5.47519L16.3753 5.46151C15.3708 5.46154 14.4939 6.00207 14.014 6.80624C12.9731 5.69528 11.6526 4.8648 10.1956 4.41855C10.4872 3.94463 10.8378 3.49615 11.2484 3.08554Z" fill="#202022"/>
</g>
</g>
<defs>
<clipPath id="clip0_6030_661">
<rect width="24" height="24" fill="white"/>
</clipPath>
</defs>
</svg>
