<svg width="24" height="24" viewBox="0 0 24 24" fill="none" xmlns="http://www.w3.org/2000/svg">
<g id="Type=Outline">
<path id="Vector" d="M12 5.83398C9.653 5.83398 7.75 7.73698 7.75 10.084C7.75 12.431 9.653 14.334 12 14.334C14.347 14.334 16.25 12.431 16.25 10.084C16.25 7.73698 14.347 5.83398 12 5.83398ZM9.25 10.084C9.25 8.56498 10.481 7.33398 12 7.33398C13.519 7.33398 14.75 8.56498 14.75 10.084C14.75 11.603 13.519 12.834 12 12.834C10.481 12.834 9.25 11.603 9.25 10.084Z" fill="#202022"/>
<path id="Vector_2" d="M18.541 3.54402C14.929 -0.0679779 9.07198 -0.0679779 5.45998 3.54402C1.84798 7.15602 1.84798 13.013 5.45998 16.625L12.001 23.166L18.542 16.625C22.154 13.013 22.153 7.15602 18.541 3.54402ZM6.51998 4.60402C9.54698 1.57702 14.454 1.57702 17.48 4.60402C20.506 7.63102 20.507 12.538 17.48 15.564L12 21.044L6.51998 15.564C3.49298 12.537 3.49298 7.63002 6.51998 4.60402Z" fill="#202022"/>
</g>
</svg>
