<svg width="24" height="24" viewBox="0 0 24 24" fill="none" xmlns="http://www.w3.org/2000/svg">
<g id="Macos">
<path id="Vector" d="M9.21398 12C8.07098 12 7.42798 12.929 7.42798 14.214C7.42798 15.428 8.07098 16.428 9.21398 16.428C10.357 16.428 11 15.499 11 14.214C11 13 10.357 12 9.21398 12Z" fill="#202022"/>
<path id="Vector_2" d="M13.357 8.35699C13 8.42799 12.714 8.49999 12.5 8.57099C12.286 8.64199 12.143 8.78499 12.143 8.99999C12.143 9.28599 12.357 9.42899 12.643 9.42899C13 9.42899 13.357 9.21499 13.357 8.78599V8.35699Z" fill="#202022"/>
<path id="Vector_3" d="M2 12C2 6.5 6.5 2 12 2C17.5 2 22 6.5 22 12C22 17.5 17.5 22 12 22C6.5 22 2 17.5 2 12ZM16.143 6.714C15.286 6.714 14.643 7.357 14.643 8.357C14.643 9.357 15.214 9.928 16.143 10C16.929 10 17.357 9.5 17.571 8.929L16.785 8.715C16.714 9.144 16.428 9.358 16.071 9.358C15.571 9.358 15.285 9.001 15.285 8.358C15.285 7.715 15.642 7.358 16.071 7.358C16.5 7.358 16.714 7.644 16.785 8.001L17.571 7.787C17.428 7.216 16.928 6.716 16.143 6.716V6.714ZM7 6.786H6.286V9.857H7.143V8.143C7.143 7.643 7.429 7.357 7.786 7.357C8.215 7.357 8.286 7.643 8.286 8.143V9.857H9V8.071C9 7.571 9.286 7.285 9.643 7.285C10.072 7.285 10.143 7.642 10.143 8.071V9.857H10.857V7.928C10.857 7.142 10.428 6.714 9.786 6.714C9.286 6.714 8.929 7.071 8.786 7.285C8.643 6.928 8.357 6.714 7.929 6.714C7.501 6.714 7.143 7 7 7.214V6.786ZM6.357 14.214C6.357 15.928 7.428 17.285 9.214 17.285C10.928 17.285 12.071 15.928 12.071 14.214C12.071 12.5 11 11.143 9.214 11.143C7.428 11.143 6.357 12.571 6.357 14.214ZM12.429 8C11.786 8.143 11.358 8.429 11.358 9C11.358 9.571 11.93 9.929 12.429 9.929C12.858 9.929 13.215 9.786 13.357 9.572V9.858H14.071V7.715C14.071 7.001 13.571 6.644 12.785 6.644C11.999 6.644 11.499 7.073 11.428 7.715L12.142 7.786C12.142 7.429 12.428 7.215 12.785 7.215C13.071 7.215 13.285 7.358 13.285 7.572C13.285 7.786 13.142 7.858 12.856 7.929L12.427 8H12.429ZM12.643 15.214C12.857 16.714 13.929 17.285 15.286 17.285C16.572 17.285 17.715 16.642 17.715 15.356C17.715 14.428 17.144 13.999 15.858 13.713L15.001 13.499C14.287 13.356 13.93 13.213 13.93 12.713C13.93 12.284 14.43 11.927 15.144 11.927C15.93 11.927 16.358 12.356 16.43 13.07L17.501 12.927C17.358 11.784 16.572 11.141 15.144 11.141C13.716 11.141 12.858 11.927 12.858 12.855C12.858 13.855 13.572 14.284 14.715 14.498L15.572 14.712C16.286 14.855 16.643 14.998 16.643 15.498C16.643 16.141 16.071 16.498 15.286 16.498C14.357 16.498 13.857 16.069 13.715 15.069L12.644 15.212L12.643 15.214Z" fill="#202022"/>
</g>
</svg>
