<svg width="24" height="24" viewBox="0 0 24 24" fill="none" xmlns="http://www.w3.org/2000/svg">
<g id="Type=Outline">
<path id="Shape" d="M18.5101 17.4501C19.9701 15.7401 20.8601 13.5301 20.8601 11.1101C20.8601 5.73011 16.4901 1.36011 11.1101 1.36011C5.73011 1.36011 1.36011 5.73011 1.36011 11.1101C1.36011 16.4901 5.73011 20.8601 11.1101 20.8601C13.5301 20.8601 15.7501 19.9701 17.4501 18.5101L21.5801 22.6401L22.6401 21.5801L18.5101 17.4501ZM11.1101 19.3601C6.55011 19.3601 2.86011 15.6701 2.86011 11.1101C2.86011 6.55011 6.55011 2.86011 11.1101 2.86011C15.6701 2.86011 19.3601 6.55011 19.3601 11.1101C19.3601 15.6701 15.6701 19.3601 11.1101 19.3601ZM13.0001 8.73011L11.1101 4.92011L9.22011 8.73011L4.99011 9.34011L8.05011 12.3101L7.33011 16.5001L11.1101 14.5201L14.8901 16.5001L14.1701 12.3101L17.2301 9.34011L13.0001 8.73011ZM12.8901 13.7701L11.1101 12.8401L9.32011 13.7701L9.66011 11.7901L8.22011 10.3901L10.2101 10.1001L11.1001 8.30011L11.9901 10.1001L13.9801 10.3901L12.8201 11.5101L12.5401 11.7901L12.8801 13.7701H12.8901Z" fill="#202022"/>
</g>
</svg>
