<svg width="24" height="24" viewBox="0 0 24 24" fill="none" xmlns="http://www.w3.org/2000/svg">
<g id="Type=Filled">
<path id="Shape" d="M11.5 4.75C7.77 4.75 4.75 7.77 4.75 11.5C4.75 15.23 7.77 18.25 11.5 18.25C15.23 18.25 18.25 15.23 18.25 11.5C18.25 7.77 15.23 4.75 11.5 4.75ZM14.44 15.63L11.5 14.09L8.56 15.63L9.12 12.37L6.74 10.06L10.02 9.59L11.49 6.63L12.96 9.59L16.24 10.06L13.86 12.37L14.42 15.63H14.44ZM18.9 17.84C20.36 16.13 21.25 13.92 21.25 11.5C21.25 6.12 16.88 1.75 11.5 1.75C6.12 1.75 1.75 6.12 1.75 11.5C1.75 16.88 6.12 21.25 11.5 21.25C13.92 21.25 16.14 20.36 17.84 18.9L21.97 23.03L23.03 21.97L18.9 17.84ZM11.5 19.75C6.94 19.75 3.25 16.06 3.25 11.5C3.25 6.94 6.94 3.25 11.5 3.25C16.06 3.25 19.75 6.94 19.75 11.5C19.75 16.06 16.06 19.75 11.5 19.75Z" fill="#202022"/>
</g>
</svg>
