<svg width="24" height="24" viewBox="0 0 24 24" fill="none" xmlns="http://www.w3.org/2000/svg">
<g id="Type=Outline">
<path id="Shape" fill-rule="evenodd" clip-rule="evenodd" d="M19 2.5C20.3807 2.5 21.5 3.61929 21.5 5C21.5 6.11933 20.7642 7.06613 19.75 7.38477V12.75H12.75V16.6143C13.7643 16.9328 14.5 17.8806 14.5 19C14.5 20.3807 13.3807 21.5 12 21.5C10.6193 21.4999 9.5 20.3807 9.5 19C9.5 17.8806 10.2357 16.9328 11.25 16.6143V12.75H5.75V16.6143C6.76431 16.9328 7.5 17.8806 7.5 19C7.5 20.3807 6.38071 21.5 5 21.5C3.61933 21.4999 2.5 20.3807 2.5 19C2.5 17.8806 3.23571 16.9328 4.25 16.6143V7.38477C3.23586 7.0661 2.5 6.1193 2.5 5C2.5 3.61932 3.61933 2.50005 5 2.5C6.38071 2.5 7.5 3.61929 7.5 5C7.5 6.11933 6.76416 7.06613 5.75 7.38477V11.25H11.25V7.38477C10.2359 7.0661 9.5 6.1193 9.5 5C9.5 3.61932 10.6193 2.50005 12 2.5C13.3807 2.5 14.5 3.61929 14.5 5C14.5 6.11933 13.7642 7.06613 12.75 7.38477V11.25H18.25V7.38477C17.2359 7.0661 16.5 6.1193 16.5 5C16.5 3.61932 17.6193 2.50005 19 2.5ZM5 18C4.44776 18.0001 4 18.4477 4 19C4 19.5523 4.44776 19.9999 5 20C5.55228 20 6 19.5523 6 19C6 18.4477 5.55228 18 5 18ZM12 18C11.4478 18.0001 11 18.4477 11 19C11 19.5523 11.4478 19.9999 12 20C12.5523 20 13 19.5523 13 19C13 18.4477 12.5523 18 12 18ZM5 4C4.44776 4.00005 4 4.44775 4 5C4 5.55225 4.44776 5.99995 5 6C5.55228 6 6 5.55228 6 5C6 4.44772 5.55228 4 5 4ZM12 4C11.4478 4.00005 11 4.44775 11 5C11 5.55225 11.4478 5.99995 12 6C12.5523 6 13 5.55228 13 5C13 4.44772 12.5523 4 12 4ZM19 4C18.4478 4.00005 18 4.44775 18 5C18 5.55225 18.4478 5.99995 19 6C19.5523 6 20 5.55228 20 5C20 4.44772 19.5523 4 19 4Z" fill="#202022"/>
</g>
</svg>
