<svg width="24" height="24" viewBox="0 0 24 24" fill="none" xmlns="http://www.w3.org/2000/svg">
<g id="Type=Filled">
<path id="Vector" d="M16.718 2.37502C15.781 3.70802 14.25 4.69002 12.36 5.18402V15.565C14.25 16.059 15.78 17.042 16.718 18.374H18.36V2.37402L16.718 2.37502Z" fill="#202022"/>
<path id="Vector_2" d="M9.453 5.54301C9.935 5.54301 10.405 5.51601 10.86 5.46301V15.286C10.405 15.233 9.935 15.206 9.453 15.206H8.8L11.138 21.625H7.131L4.909 15.143C2.613 14.769 0.86 12.776 0.86 10.374C0.86 7.70601 3.023 5.54201 5.692 5.54201H9.454L9.453 5.54301Z" fill="#202022"/>
<path id="Vector_3" d="M19.61 11.125H23.11V9.625H19.61V11.125Z" fill="#202022"/>
<path id="Vector_4" d="M22.08 16.905L19.58 14.405L20.641 13.344L23.141 15.844L22.08 16.905Z" fill="#202022"/>
<path id="Vector_5" d="M20.64 7.40499L23.14 4.90499L22.079 3.84399L19.579 6.34399L20.64 7.40499Z" fill="#202022"/>
</g>
</svg>
