<svg width="24" height="24" viewBox="0 0 24 24" fill="none" xmlns="http://www.w3.org/2000/svg">
<g id="Type=Outline">
<path id="Vector" d="M18.36 2.375V18.375H16.718C15.403 16.505 12.92 15.325 9.916 15.215L12.251 21.625H7.044L4.816 15.127C2.566 14.715 0.860001 12.744 0.860001 10.375C0.860001 7.707 3.023 5.543 5.692 5.543H9.454C12.665 5.543 15.337 4.339 16.719 2.375H18.36ZM8.316 15.207H6.429L8.115 20.126H10.108L8.316 15.207ZM10.86 6.972C10.399 7.02 9.929 7.044 9.453 7.044H5.691C3.851 7.044 2.359 8.536 2.359 10.376C2.359 12.216 3.851 13.708 5.691 13.708H9.453C9.929 13.708 10.399 13.732 10.86 13.78V6.972ZM12.36 6.726V14.023C14.105 14.419 15.664 15.18 16.86 16.278V4.471C15.664 5.57 14.105 6.331 12.36 6.726Z" fill="#202022"/>
<path id="Vector_2" d="M23.14 4.90499L20.64 7.40499L19.579 6.34399L22.079 3.84399L23.14 4.90499Z" fill="#202022"/>
<path id="Vector_3" d="M23.11 11.125H19.61V9.625H23.11V11.125Z" fill="#202022"/>
<path id="Vector_4" d="M19.579 14.405L22.079 16.905L23.14 15.844L20.64 13.344L19.579 14.405Z" fill="#202022"/>
</g>
</svg>
