<svg width="24" height="24" viewBox="0 0 24 24" fill="none" xmlns="http://www.w3.org/2000/svg">
<g id="Type=Outline">
<path id="Vector" d="M3.329 8.45996C2.255 7.38596 2.255 5.64496 3.329 4.57096L4.445 3.45496L12.445 11.455L13.884 10.016L13.823 9.95496C12.752 8.88396 12.749 7.14896 13.815 6.07396L16.287 3.58196L17.352 4.63796L14.88 7.12996C14.395 7.61896 14.397 8.40696 14.884 8.89396L14.945 8.95496L18.415 5.48496L19.476 6.54596L16.006 10.016L16.061 10.071C16.549 10.559 17.341 10.559 17.829 10.071L20.415 7.48496L21.476 8.54596L18.89 11.132C17.816 12.206 16.075 12.206 15.001 11.132L14.946 11.077L13.507 12.516L20.477 19.486L19.416 20.547L14.446 15.577L12.446 17.577L10.446 15.577L5.476 20.547L4.415 19.486L9.385 14.516L3.329 8.45996ZM4.39 5.63096C3.902 6.11896 3.902 6.91096 4.39 7.39896L12.445 15.454L13.384 14.515L4.445 5.57596L4.39 5.63096Z" fill="#202022"/>
</g>
</svg>
