<svg width="24" height="24" viewBox="0 0 24 24" fill="none" xmlns="http://www.w3.org/2000/svg">
<g id="Type=Filled" clip-path="url(#clip0_4556_1229)">
<path id="Vector" d="M3.23099 14.785C5.62799 9.35698 9.93299 5.33298 15.025 3.15798L14.071 0.815979L13.378 1.09398C8.04799 3.23598 3.53699 7.39898 1.11399 13.075L0.817993 13.768L3.23099 14.785Z" fill="#202022"/>
<path id="Vector_2" d="M23.182 23.184L4.61499 15.367C6.84999 10.323 10.851 6.57797 15.592 4.54797L23.182 23.184ZM13.304 10.79C14.132 10.79 14.804 10.118 14.804 9.28997C14.804 8.46197 14.132 7.78997 13.304 7.78997C12.476 7.78997 11.804 8.46197 11.804 9.28997C11.804 10.118 12.476 10.79 13.304 10.79ZM12.804 14.29C12.804 13.462 12.132 12.79 11.304 12.79C10.476 12.79 9.80399 13.462 9.80399 14.29C9.80399 15.118 10.476 15.79 11.304 15.79C12.132 15.79 12.804 15.118 12.804 14.29ZM17.304 18.79C18.132 18.79 18.804 18.118 18.804 17.29C18.804 16.462 18.132 15.79 17.304 15.79C16.476 15.79 15.804 16.462 15.804 17.29C15.804 18.118 16.476 18.79 17.304 18.79Z" fill="#202022"/>
</g>
<defs>
<clipPath id="clip0_4556_1229">
<rect width="24" height="24" fill="white"/>
</clipPath>
</defs>
</svg>
