<svg width="24" height="24" viewBox="0 0 24 24" fill="none" xmlns="http://www.w3.org/2000/svg">
<g id="Type=Filled">
<path id="Vector" d="M3.579 7.95996C2.505 6.88596 2.505 5.14496 3.579 4.07096L4.195 3.45496L12.195 11.455L13.634 10.016L13.573 9.95496C12.502 8.88396 12.499 7.14896 13.565 6.07396L16.037 3.58196L17.102 4.63796L14.63 7.12996C14.145 7.61896 14.147 8.40696 14.634 8.89396L14.695 8.95496L18.165 5.48496L19.226 6.54596L15.756 10.016L15.812 10.071C16.3 10.559 17.092 10.559 17.58 10.071L20.166 7.48496L21.227 8.54596L18.641 11.132C17.567 12.206 15.826 12.206 14.752 11.132L14.696 11.076L13.257 12.515L20.227 19.485L19.166 20.546L14.196 15.576L12.696 17.076L10.696 15.076L5.226 20.546L4.165 19.485L9.635 14.015L3.58 7.95896L3.579 7.95996Z" fill="#202022"/>
</g>
</svg>
