<svg width="24" height="24" viewBox="0 0 24 24" fill="none" xmlns="http://www.w3.org/2000/svg">
<g id="Type=Outline" clip-path="url(#clip0_4556_1232)">
<path id="Vector" d="M11.304 10.54C10.061 10.54 9.05402 11.547 9.05402 12.79C9.05402 14.033 10.061 15.04 11.304 15.04C12.547 15.04 13.554 14.033 13.554 12.79C13.554 11.547 12.547 10.54 11.304 10.54ZM10.554 12.79C10.554 12.376 10.89 12.04 11.304 12.04C11.718 12.04 12.054 12.376 12.054 12.79C12.054 13.204 11.718 13.54 11.304 13.54C10.89 13.54 10.554 13.204 10.554 12.79Z" fill="#202022"/>
<path id="Vector_2" d="M23.182 23.184L14.072 0.815979L13.379 1.09398C8.04897 3.23598 3.53797 7.39898 1.11497 13.075L0.81897 13.768L23.182 23.184ZM4.73397 13.79L2.80197 12.977C5.01097 8.27398 8.78897 4.75498 13.25 2.77698L14.039 4.71298C10.036 6.40798 6.64497 9.54998 4.73397 13.79ZM6.11697 14.372C7.86497 10.514 10.954 7.65298 14.605 6.10198L16.283 10.221C15.559 10.406 14.943 10.947 14.697 11.711C14.315 12.894 14.965 14.162 16.147 14.543C16.778 14.747 17.433 14.657 17.965 14.349L20.428 20.396L17.633 19.219C18.036 18.615 18.14 17.828 17.842 17.107C17.367 15.959 16.051 15.413 14.902 15.889C14.189 16.184 13.709 16.803 13.561 17.505L6.11897 14.372H6.11697ZM17.381 12.919C17.189 13.121 16.89 13.207 16.607 13.116C16.213 12.989 15.996 12.566 16.124 12.172C16.229 11.845 16.538 11.64 16.866 11.653L17.381 12.919ZM16.454 17.682C16.595 18.024 16.466 18.411 16.163 18.602L15.027 18.124C14.954 17.777 15.135 17.417 15.474 17.276C15.857 17.118 16.295 17.299 16.454 17.682Z" fill="#202022"/>
</g>
<defs>
<clipPath id="clip0_4556_1232">
<rect width="24" height="24" fill="white"/>
</clipPath>
</defs>
</svg>
