<svg width="24" height="24" viewBox="0 0 24 24" fill="none" xmlns="http://www.w3.org/2000/svg">
<g id="Merge Cells">
<path id="Vector" d="M2.25 2.25V9H3.75V3.75H9V2.25H2.25Z" fill="#202022"/>
<path id="Vector_2" d="M2.25 21.75V15H3.75V20.25H9V21.75H2.25Z" fill="#202022"/>
<path id="Vector_3" d="M21.75 2.25H15V3.75H20.25V9H21.75V2.25Z" fill="#202022"/>
<path id="Vector_4" d="M21.75 21.75V15H20.25V20.25H15V21.75H21.75Z" fill="#202022"/>
<path id="Vector_5" d="M15.811 11.25H23V12.75H15.811L18.031 14.97L16.97 16.031L12.94 12.001L16.97 7.97101L18.031 9.03201L15.811 11.252V11.25Z" fill="#202022"/>
<path id="Vector_6" d="M8.189 11.25H1V12.75H8.189L5.969 14.97L7.03 16.031L11.06 12.001L7.03 7.97101L5.969 9.03201L8.189 11.252V11.25Z" fill="#202022"/>
</g>
</svg>
