<svg width="24" height="24" viewBox="0 0 24 24" fill="none" xmlns="http://www.w3.org/2000/svg">
<g id="Type=Outline">
<path id="Vector" d="M7 9.96997C7.552 9.96997 8 9.52197 8 8.96997C8 8.41797 7.552 7.96997 7 7.96997C6.448 7.96997 6 8.41797 6 8.96997C6 9.52197 6.448 9.96997 7 9.96997Z" fill="#202022"/>
<path id="Vector_2" d="M13 8.96997C13 9.52197 12.552 9.96997 12 9.96997C11.448 9.96997 11 9.52197 11 8.96997C11 8.41797 11.448 7.96997 12 7.96997C12.552 7.96997 13 8.41797 13 8.96997Z" fill="#202022"/>
<path id="Vector_3" d="M17 9.96997C17.552 9.96997 18 9.52197 18 8.96997C18 8.41797 17.552 7.96997 17 7.96997C16.448 7.96997 16 8.41797 16 8.96997C16 9.52197 16.448 9.96997 17 9.96997Z" fill="#202022"/>
<path id="Vector_4" d="M22.75 1.21997H1.25V16.72H8.75V22.781L14.811 16.72H22.75V1.21997ZM2.75 15.22V2.71997H21.25V15.22H14.189L10.25 19.159V15.22H2.75Z" fill="#202022"/>
</g>
</svg>
