<svg width="24" height="24" viewBox="0 0 24 24" fill="none" xmlns="http://www.w3.org/2000/svg">
<g id="Type=Filled">
<path id="Vector" d="M1.25 1.25V16.75H8.75V22.811L14.811 16.75H22.75V1.25H1.25ZM8 9C8 9.552 7.552 10 7 10C6.448 10 6 9.552 6 9C6 8.448 6.448 8 7 8C7.552 8 8 8.448 8 9ZM13 9C13 9.552 12.552 10 12 10C11.448 10 11 9.552 11 9C11 8.448 11.448 8 12 8C12.552 8 13 8.448 13 9ZM18 9C18 9.552 17.552 10 17 10C16.448 10 16 9.552 16 9C16 8.448 16.448 8 17 8C17.552 8 18 8.448 18 9Z" fill="#202022"/>
</g>
</svg>
