<svg width="24" height="24" viewBox="0 0 24 24" fill="none" xmlns="http://www.w3.org/2000/svg">
<g id="Metric Chart">
<path id="Vector" d="M6.62501 9C6.62501 6.924 8.32301 5.25 10.389 5.25C13.471 5.25 15.313 8.748 13.491 11.266L9.34301 17H14.375V18.5H6.40701L12.276 10.387C13.365 8.881 12.274 6.75 10.39 6.75C9.14301 6.75 8.12601 7.762 8.12601 9H6.62501Z" fill="#202022"/>
<path id="Vector_2" d="M21.625 15C21.625 13.757 20.618 12.75 19.375 12.75H18.375V11.25H19.375C20.618 11.25 21.625 10.243 21.625 9C21.625 7.757 20.618 6.75 19.375 6.75C18.132 6.75 17.125 7.757 17.125 9H15.625C15.625 6.929 17.304 5.25 19.375 5.25C21.446 5.25 23.125 6.929 23.125 9C23.125 10.227 22.536 11.316 21.625 12C22.536 12.684 23.125 13.773 23.125 15C23.125 17.071 21.446 18.75 19.375 18.75C17.304 18.75 15.625 17.071 15.625 15H17.125C17.125 16.243 18.132 17.25 19.375 17.25C20.618 17.25 21.625 16.243 21.625 15Z" fill="#202022"/>
<path id="Vector_3" d="M4.625 5.5V18.5H3.125V8.5C2.498 8.971 1.719 9.25 0.875 9.25V7.75C2.118 7.75 3.125 6.743 3.125 5.5H4.625Z" fill="#202022"/>
</g>
</svg>
