<svg width="24" height="24" viewBox="0 0 24 24" fill="none" xmlns="http://www.w3.org/2000/svg">
<g id="More Horizontal">
<path id="Vector" d="M1.75 12C1.75 13.243 2.757 14.25 4 14.25C5.243 14.25 6.25 13.243 6.25 12C6.25 10.757 5.243 9.75 4 9.75C2.757 9.75 1.75 10.757 1.75 12Z" fill="#202022"/>
<path id="Vector_2" d="M17.75 12C17.75 13.243 18.757 14.25 20 14.25C21.243 14.25 22.25 13.243 22.25 12C22.25 10.757 21.243 9.75 20 9.75C18.757 9.75 17.75 10.757 17.75 12Z" fill="#202022"/>
<path id="Vector_3" d="M9.75 12C9.75 13.243 10.757 14.25 12 14.25C13.243 14.25 14.25 13.243 14.25 12C14.25 10.757 13.243 9.75 12 9.75C10.757 9.75 9.75 10.757 9.75 12Z" fill="#202022"/>
</g>
</svg>
