<svg width="24" height="24" viewBox="0 0 24 24" fill="none" xmlns="http://www.w3.org/2000/svg">
<g id="More Vertical">
<path id="Vector" d="M12 1.75C10.757 1.75 9.75 2.757 9.75 4C9.75 5.243 10.757 6.25 12 6.25C13.243 6.25 14.25 5.243 14.25 4C14.25 2.757 13.243 1.75 12 1.75Z" fill="#202022"/>
<path id="Vector_2" d="M12 17.75C10.757 17.75 9.75 18.757 9.75 20C9.75 21.243 10.757 22.25 12 22.25C13.243 22.25 14.25 21.243 14.25 20C14.25 18.757 13.243 17.75 12 17.75Z" fill="#202022"/>
<path id="Vector_3" d="M12 9.75C10.757 9.75 9.75 10.757 9.75 12C9.75 13.243 10.757 14.25 12 14.25C13.243 14.25 14.25 13.243 14.25 12C14.25 10.757 13.243 9.75 12 9.75Z" fill="#202022"/>
</g>
</svg>
