<svg width="24" height="24" viewBox="0 0 24 24" fill="none" xmlns="http://www.w3.org/2000/svg">
<g id="More Filled">
<path id="Vector" d="M12 1.875C6.413 1.875 1.875 6.413 1.875 12C1.875 17.587 6.413 22.125 12 22.125C17.587 22.125 22.125 17.587 22.125 12C22.125 6.413 17.587 1.875 12 1.875ZM7.988 13.237C7.663 13.562 7.213 13.75 6.75 13.75C6.4 13.75 6.063 13.65 5.775 13.45C5.487 13.262 5.262 12.988 5.137 12.663C5.012 12.338 4.975 11.988 5.037 11.65C5.1 11.313 5.274 11 5.512 10.75C5.762 10.5 6.075 10.337 6.412 10.275C6.749 10.213 7.099 10.238 7.425 10.375C7.751 10.512 8.013 10.725 8.212 11.012C8.4 11.3 8.512 11.637 8.512 11.987C8.5 12.462 8.313 12.912 7.988 13.237ZM13.237 13.237C12.912 13.562 12.462 13.75 11.999 13.75C11.649 13.75 11.312 13.65 11.024 13.45C10.736 13.262 10.511 12.988 10.387 12.663C10.263 12.338 10.225 11.988 10.287 11.65C10.35 11.313 10.524 11 10.762 10.75C11.012 10.5 11.325 10.337 11.662 10.275C11.999 10.213 12.349 10.238 12.675 10.375C13.001 10.512 13.263 10.725 13.462 11.012C13.65 11.3 13.762 11.637 13.762 11.987C13.75 12.462 13.562 12.912 13.237 13.237ZM18.963 12.337C18.9 12.675 18.726 12.987 18.488 13.237C18.238 13.487 17.925 13.649 17.588 13.712C17.251 13.775 16.901 13.75 16.576 13.612C16.251 13.487 15.988 13.262 15.788 12.974C15.6 12.686 15.488 12.349 15.488 11.999C15.488 11.537 15.676 11.087 16.001 10.762C16.326 10.437 16.776 10.249 17.239 10.249C17.589 10.249 17.926 10.349 18.214 10.549C18.502 10.737 18.727 11.011 18.852 11.336C19.002 11.648 19.04 11.999 18.964 12.336L18.963 12.337Z" fill="#202022"/>
</g>
</svg>
