<svg width="24" height="24" viewBox="0 0 24 24" fill="none" xmlns="http://www.w3.org/2000/svg">
<g id="Mozilla Firefox">
<path id="Vector" d="M21.284 8.23C21.169 7.944 21.042 7.663 20.903 7.391C20.903 7.391 20.901 7.388 20.9 7.386C20.888 7.361 20.874 7.336 20.861 7.311C20.861 7.308 20.858 7.305 20.856 7.302C20.844 7.27901 20.831 7.254 20.817 7.231C20.815 7.228 20.814 7.223 20.811 7.22C20.799 7.197 20.786 7.173 20.772 7.15C20.77 7.14701 20.767 7.142 20.766 7.139C20.754 7.116 20.74 7.092 20.727 7.069C20.727 7.066 20.724 7.064 20.722 7.061C20.665 6.96 20.607 6.859 20.547 6.76C20.547 6.75701 20.544 6.755 20.542 6.752C20.531 6.733 20.52 6.716 20.509 6.698C20.503 6.689 20.498 6.679 20.492 6.672C20.483 6.656 20.472 6.64101 20.463 6.624C20.457 6.613 20.449 6.60201 20.441 6.591C20.432 6.577 20.422 6.561 20.413 6.548C20.405 6.536 20.398 6.52301 20.39 6.511C20.381 6.497 20.371 6.483 20.364 6.469C20.356 6.457 20.347 6.443 20.339 6.43C20.33 6.416 20.322 6.404 20.313 6.39C20.304 6.376 20.294 6.364 20.287 6.35C20.278 6.338 20.27 6.32501 20.261 6.313C20.252 6.29901 20.242 6.285 20.233 6.271C20.225 6.259 20.216 6.24601 20.208 6.235C20.199 6.221 20.188 6.207 20.178 6.192C20.17 6.181 20.163 6.169 20.153 6.158C20.142 6.142 20.131 6.128 20.12 6.113C20.112 6.102 20.105 6.091 20.097 6.082C20.085 6.065 20.072 6.048 20.06 6.032C20.054 6.02301 20.048 6.015 20.041 6.006C20.022 5.981 20.004 5.955 19.985 5.93C19.695 5.549 19.38 5.19 19.042 4.858C18.805 4.614 18.554 4.387 18.29 4.176C18.129 4.036 17.961 3.906 17.789 3.781C17.48 3.551 17.146 3.344 16.78 3.164C16.69 3.117 16.6 3.071 16.509 3.027C15.793 2.679 15.045 2.405 14.273 2.234C14.171 2.211 14.067 2.191 13.963 2.172C13.448 2.074 12.924 2.018 12.394 2.007C12.313 2.005 12.233 2.005 12.154 2.005C11.461 2.005 10.779 2.075 10.131 2.21C8.711 2.51 7.461 3.124 6.671 3.893C6.671 3.893 6.674 3.893 6.674 3.891L6.671 3.894C6.673 3.894 6.674 3.891 6.677 3.889C6.679 3.889 6.68 3.887 6.682 3.886L6.679 3.889C6.682 3.887 6.685 3.884 6.69 3.881C7.281 3.527 8.096 3.238 8.679 3.092C8.716 3.083 8.753 3.073 8.789 3.066C8.806 3.061 8.825 3.058 8.842 3.054C8.854 3.051 8.868 3.048 8.881 3.045C8.957 3.028 9.034 3.012 9.114 2.997C9.122 2.995 9.131 2.994 9.139 2.992C9.164 2.987 9.189 2.983 9.215 2.978C11.8 2.506 14.555 3.279 16.474 5.119C16.886 5.515 17.257 5.95701 17.556 6.445C18.779 8.434 18.665 10.936 17.709 12.411C17.001 13.507 15.483 14.535 14.066 14.525C14.094 14.525 14.123 14.528 14.151 14.528C14.105 14.528 14.058 14.525 14.012 14.522C14.012 14.522 14.009 14.522 14.007 14.522C13.333 14.482 12.748 14.323 12.255 14.082C10.007 12.982 9.658 10.147 11.26 8.783C10.733 8.67 9.744 8.892 9.055 9.922C8.436 10.847 8.472 12.273 8.853 13.286C8.62 12.798 8.451 12.302 8.362 11.704C7.88 8.44501 10.005 5.654 12.019 4.869C12.067 4.85 12.115 4.832 12.163 4.816C11.731 4.438 11.042 4.218 10.24 4.179C9.056 4.123 7.623 4.468 6.403 5.295C6.336 5.34 6.271 5.385 6.208 5.433C6.174 5.458 6.141 5.483 6.109 5.508C6.103 5.513 6.095 5.519 6.089 5.524C6.056 5.54901 6.025 5.574 5.993 5.599C5.987 5.604 5.982 5.608 5.976 5.611C5.947 5.636 5.916 5.659 5.886 5.684C5.883 5.687 5.878 5.69 5.875 5.693C5.844 5.719 5.811 5.746 5.78 5.774C5.774 5.77901 5.768 5.785 5.763 5.79C5.732 5.818 5.699 5.846 5.668 5.874L5.665 5.877C5.634 5.905 5.603 5.934 5.574 5.962C5.571 5.965 5.566 5.97 5.563 5.973C5.532 6.003 5.501 6.032 5.472 6.062C5.469 6.065 5.466 6.06801 5.463 6.071C5.401 6.133 5.339 6.197 5.28 6.261C5.278 6.264 5.275 6.26601 5.274 6.269C4.552 7.049 4.015 8.002 3.69 9.08C3.738 8.474 3.916 7.655 4.254 6.765C4.268 6.726 4.282 6.69 4.297 6.653C4.297 6.65 4.299 6.647 4.3 6.645C4.314 6.609 4.328 6.574 4.343 6.538C4.345 6.533 4.346 6.52901 4.349 6.524C4.363 6.49001 4.377 6.456 4.392 6.421C4.395 6.415 4.397 6.41 4.4 6.404C4.414 6.37 4.429 6.337 4.443 6.303C4.446 6.297 4.449 6.291 4.451 6.284C4.465 6.251 4.48 6.217 4.496 6.185C4.499 6.179 4.502 6.171 4.505 6.165C4.521 6.132 4.534 6.098 4.55 6.066C4.553 6.06 4.556 6.052 4.559 6.046C4.574 6.012 4.59 5.979 4.606 5.945C4.609 5.939 4.612 5.933 4.615 5.925C4.632 5.89101 4.648 5.857 4.665 5.822C4.668 5.816 4.671 5.811 4.674 5.805C4.689 5.772 4.707 5.74 4.724 5.707C4.726 5.704 4.727 5.701 4.729 5.698C4.498 5.818 4.247 6.02301 3.997 6.282C3.498 6.801 3.009 7.539 2.719 8.238C2.237 9.397 1.995 10.735 2 12.073C2 12.475 2.025 12.88 2.071 13.277C2.074 13.297 2.076 13.317 2.077 13.338C2.088 13.439 2.1 13.542 2.113 13.643C2.113 13.651 2.115 13.657 2.116 13.665C2.921 18.4 7.034 22.004 11.986 22.004C17.516 22.004 22 17.51 22 11.967C22 10.648 21.746 9.387 21.284 8.233V8.235V8.23Z" fill="#202022"/>
</g>
</svg>
