<svg width="24" height="24" viewBox="0 0 24 24" fill="none" xmlns="http://www.w3.org/2000/svg">
<g id="Type=Filled">
<path id="Vector" d="M1.95199 1.95199C3.22099 0.682994 5.27899 0.682994 6.54799 1.95199C7.81699 3.22099 7.81699 5.27899 6.54799 6.54799L4.24999 8.84599L1.95199 6.54799C0.682994 5.27899 0.682994 3.22099 1.95199 1.95199ZM4.24999 5.70299C5.07799 5.70299 5.74999 5.03099 5.74999 4.20299C5.74999 3.37499 5.07799 2.70299 4.24999 2.70299C3.42199 2.70299 2.74999 3.37499 2.74999 4.20299C2.74999 5.03099 3.42199 5.70299 4.24999 5.70299Z" fill="#202022"/>
<path id="Vector_2" d="M6.46799 8.75H15.78C17.048 8.75 17.51 10.42 16.423 11.072L14.883 11.996C14.391 11.534 13.729 11.25 13 11.25C11.481 11.25 10.25 12.481 10.25 14C10.25 14.249 10.283 14.489 10.345 14.718L8.80599 15.641C6.41399 17.076 7.43199 20.749 10.221 20.749H16.266V19.249H10.221C8.95299 19.249 8.49099 17.579 9.57799 16.927L11.118 16.003C11.61 16.465 12.272 16.749 13.001 16.749C14.52 16.749 15.751 15.518 15.751 13.999C15.751 13.75 15.718 13.51 15.656 13.281L17.195 12.358C19.587 10.923 18.569 7.25 15.78 7.25H7.93399C7.83299 7.374 7.72499 7.493 7.60999 7.609L6.46799 8.75Z" fill="#202022"/>
<path id="Vector_3" d="M16.97 21.97L18.94 20L16.97 18.03L18.031 16.969L20.001 18.939L21.971 16.969L23.032 18.03L21.062 20L23.032 21.97L21.971 23.031L20.001 21.061L18.031 23.031L16.97 21.97Z" fill="#202022"/>
</g>
</svg>
