<svg width="24" height="24" viewBox="0 0 24 24" fill="none" xmlns="http://www.w3.org/2000/svg">
<g id="Type=Outline" clip-path="url(#clip0_4556_2413)">
<path id="Vector" d="M1.93701 6.53298L4.23501 8.83098L6.53301 6.53298C7.80201 5.26398 7.80201 3.20598 6.53301 1.93698C5.26401 0.667979 3.20601 0.667979 1.93701 1.93698C0.66801 3.20598 0.66801 5.26398 1.93701 6.53298ZM5.73501 4.18798C5.73501 5.01598 5.06301 5.68798 4.23501 5.68798C3.40701 5.68798 2.73501 5.01598 2.73501 4.18798C2.73501 3.35998 3.40701 2.68798 4.23501 2.68798C5.06301 2.68798 5.73501 3.35998 5.73501 4.18798Z" fill="#202022"/>
<path id="Vector_2" d="M6.452 8.73498C6.943 8.24398 7.477 7.77399 7.918 7.23499H15.764C18.553 7.23499 19.571 10.908 17.179 12.343L15.64 13.266C15.702 13.495 15.735 13.736 15.735 13.984C15.735 15.503 14.504 16.734 12.985 16.734C12.256 16.734 11.594 16.451 11.102 15.988L9.562 16.912C8.475 17.564 8.937 19.234 10.205 19.234H16.25V20.734H10.205C7.416 20.734 6.399 17.061 8.79 15.626L10.329 14.703C10.267 14.474 10.234 14.233 10.234 13.985C10.234 12.466 11.465 11.235 12.984 11.235C13.713 11.235 14.375 11.518 14.867 11.981L16.407 11.057C17.494 10.405 17.032 8.73498 15.764 8.73498H6.452ZM12.985 12.735C12.295 12.735 11.735 13.295 11.735 13.985C11.735 14.675 12.295 15.235 12.985 15.235C13.675 15.235 14.235 14.675 14.235 13.985C14.235 13.295 13.675 12.735 12.985 12.735Z" fill="#202022"/>
<path id="Vector_3" d="M16.955 21.954L18.925 19.984L16.955 18.014L18.016 16.953L19.986 18.923L21.956 16.953L23.017 18.014L21.047 19.984L23.017 21.954L21.956 23.015L19.986 21.045L18.016 23.015L16.955 21.954Z" fill="#202022"/>
</g>
<defs>
<clipPath id="clip0_4556_2413">
<rect width="24" height="24" fill="white"/>
</clipPath>
</defs>
</svg>
