<svg width="24" height="24" viewBox="0 0 24 24" fill="none" xmlns="http://www.w3.org/2000/svg">
<g id="Type=Outline">
<path id="Vector" d="M14 9.5C14 10.605 13.105 11.5 12 11.5C10.895 11.5 10 10.605 10 9.5C10 8.395 10.895 7.5 12 7.5C13.105 7.5 14 8.395 14 9.5Z" fill="#202022"/>
<path id="Vector_2" d="M11.2 12.563C9.709 12.563 8.5 13.772 8.5 15.263V16.001H15.5V15.263C15.5 13.772 14.291 12.563 12.8 12.563H11.2Z" fill="#202022"/>
<path id="Vector_3" d="M9.71195 1.25002V2.44502C9.71195 2.99902 9.28795 3.56602 8.60695 3.85002C7.93995 4.12802 7.26095 4.02502 6.86295 3.62702L6.01795 2.78202L2.78195 6.01802L3.62795 6.86402C4.02595 7.26202 4.12895 7.94102 3.85095 8.60802C3.56695 9.28902 2.99995 9.71302 2.44695 9.71302H1.25195V14.29H2.44695C3.00095 14.29 3.56795 14.714 3.85195 15.395C4.12995 16.062 4.02695 16.741 3.62895 17.139L2.78295 17.985L6.01895 21.221L6.86495 20.375C7.26295 19.977 7.94195 19.874 8.60895 20.152C9.28995 20.436 9.71395 21.003 9.71395 21.556V22.751H14.291V21.556C14.291 21.003 14.715 20.436 15.396 20.152C16.063 19.874 16.741 19.977 17.14 20.375L17.986 21.221L21.222 17.985L20.376 17.139C19.977 16.74 19.875 16.061 20.153 15.394C20.437 14.713 21.004 14.289 21.558 14.289H22.753V9.71202H21.558C21.005 9.71202 20.438 9.28802 20.154 8.60702C19.876 7.94002 19.979 7.26202 20.377 6.86302L21.223 6.01702L17.987 2.78102L17.142 3.62602C16.743 4.02502 16.064 4.12702 15.398 3.84902C14.717 3.56502 14.293 2.99802 14.293 2.44402V1.24902H9.71595L9.71195 1.25002ZM9.18295 5.23402C10.161 4.82702 11.06 3.93202 11.194 2.75002H12.805C12.939 3.93202 13.838 4.82602 14.816 5.23402C15.806 5.64702 17.05 5.62802 17.971 4.89102L19.11 6.03002C18.372 6.95102 18.354 8.19402 18.766 9.18402C19.173 10.162 20.068 11.061 21.25 11.195V12.806C20.068 12.94 19.174 13.839 18.766 14.817C18.353 15.807 18.372 17.051 19.11 17.972L17.971 19.111C17.05 18.373 15.806 18.354 14.816 18.767C13.838 19.174 12.939 20.069 12.805 21.251H11.194C11.06 20.069 10.161 19.175 9.18295 18.767C8.19295 18.354 6.94895 18.373 6.02795 19.111L4.88995 17.972C5.62795 17.051 5.64695 15.807 5.23395 14.817C4.82695 13.839 3.93195 12.94 2.74995 12.806V11.195C3.93195 11.061 4.82595 10.162 5.23395 9.18402C5.64695 8.19402 5.62795 6.95002 4.88995 6.03002L6.02895 4.89102C6.94995 5.62902 8.19395 5.64702 9.18395 5.23402H9.18295Z" fill="#202022"/>
</g>
</svg>
