<svg width="24" height="24" viewBox="0 0 24 24" fill="none" xmlns="http://www.w3.org/2000/svg">
<g id="Type=Filled">
<path id="Vector" d="M9.71202 1.25H14.289V2.445C14.289 2.999 14.713 3.566 15.394 3.85C16.061 4.128 16.74 4.025 17.139 3.627L17.984 2.782L21.22 6.018L20.374 6.864C19.976 7.262 19.873 7.941 20.151 8.608C20.435 9.289 21.002 9.713 21.555 9.713H22.75V14.29H21.555C21.001 14.29 20.434 14.714 20.15 15.395C19.872 16.062 19.975 16.741 20.373 17.139L21.219 17.985L17.983 21.221L17.137 20.375C16.739 19.977 16.06 19.874 15.393 20.152C14.712 20.436 14.288 21.003 14.288 21.556V22.751H9.71102V21.556C9.71102 21.003 9.28702 20.436 8.60602 20.152C7.93902 19.874 7.26102 19.977 6.86202 20.375L6.01602 21.221L2.78002 17.985L3.62602 17.139C4.02502 16.74 4.12702 16.061 3.84902 15.395C3.56502 14.714 2.99802 14.29 2.44402 14.29H1.24902V9.713H2.44402C2.99702 9.713 3.56402 9.289 3.84802 8.608C4.12602 7.941 4.02302 7.263 3.62502 6.864L2.77902 6.018L6.01502 2.782L6.86002 3.627C7.25902 4.026 7.93802 4.128 8.60402 3.85C9.28502 3.566 9.70902 2.999 9.70902 2.445V1.25H9.71202ZM14 9.5C14 8.395 13.105 7.5 12 7.5C10.895 7.5 10 8.395 10 9.5C10 10.605 10.895 11.5 12 11.5C13.105 11.5 14 10.605 14 9.5ZM11.2 12.563C9.70902 12.563 8.50002 13.772 8.50002 15.263V16.001H15.5V15.263C15.5 13.772 14.291 12.563 12.8 12.563H11.2Z" fill="#202022"/>
</g>
</svg>
