<svg width="24" height="24" viewBox="0 0 24 24" fill="none" xmlns="http://www.w3.org/2000/svg">
<g id="Type=Outline">
<g id="Shape">
<path d="M13.002 17.25H9.00195V15.75H13.002V17.25Z" fill="#202022"/>
<path fill-rule="evenodd" clip-rule="evenodd" d="M19.002 17.25H14.252V9.75H19.002V17.25ZM15.752 15.75H17.502V11.25H15.752V15.75Z" fill="#202022"/>
<path d="M13.002 14.25H9.00195V12.75H13.002V14.25Z" fill="#202022"/>
<path d="M13.002 11.25H9.00195V9.75H13.002V11.25Z" fill="#202022"/>
<path d="M19.002 8.25H9.00195V6.75H19.002V8.25Z" fill="#202022"/>
<path fill-rule="evenodd" clip-rule="evenodd" d="M22.252 18.25C22.252 19.7688 21.0207 21 19.502 21H4.50195V20.998C3.01709 20.9829 1.81534 19.7804 1.80762 18.292L1.74805 6.75H5.75195V3H22.252V18.25ZM7.25195 18.2783C7.25195 18.2829 7.251 18.2874 7.25098 18.292C7.25011 18.3488 7.24651 18.405 7.24219 18.4609C7.21744 18.8332 7.11847 19.1836 6.95898 19.5H19.502C20.1923 19.5 20.752 18.9404 20.752 18.25V4.5H7.25195V18.2783ZM3.30762 18.2842C3.31107 18.9515 3.84933 19.4907 4.51465 19.499C5.19915 19.4922 5.75195 18.9361 5.75195 18.25V8.25H3.25586L3.30762 18.2842Z" fill="#202022"/>
</g>
</g>
</svg>
