<svg width="24" height="24" viewBox="0 0 24 24" fill="none" xmlns="http://www.w3.org/2000/svg">
<g id="Type=Filled">
<g id="Shape">
<path fill-rule="evenodd" clip-rule="evenodd" d="M22.375 18.25C22.375 19.7688 21.1438 21 19.625 21H4.72363C5.36933 20.5285 5.81326 19.7973 5.89844 18.959L5.91309 18.6631V3H22.375V18.25ZM9.125 17.25H13.125V15.75H9.125V17.25ZM14.6289 9.75V17.25H19.125V9.75H14.6289ZM9.125 14.25H13.125V12.75H9.125V14.25ZM9.125 11.25H13.125V9.75H9.125V11.25ZM9.125 8.25H19.125V6.75H9.125V8.25Z" fill="#202022"/>
<path d="M4.41309 18.6631C4.413 19.4328 3.78922 20.0564 3.01953 20.0566C2.24964 20.0566 1.62508 19.433 1.625 18.6631V6.75H4.41309V18.6631Z" fill="#202022"/>
</g>
</g>
</svg>
