<svg width="24" height="24" viewBox="0 0 24 24" fill="none" xmlns="http://www.w3.org/2000/svg">
<g id="Next Speaker">
<path id="Vector" d="M10.939 0.510986L9.878 1.57199L11.318 3.01199C8.927 3.16999 6.58 4.16399 4.752 5.99199C0.748998 9.99499 0.748998 16.485 4.752 20.488C8.755 24.491 15.245 24.491 19.248 20.488C21.31 18.426 22.31 15.702 22.247 13.001H20.747C20.81 15.321 19.956 17.658 18.187 19.427C14.77 22.844 9.23 22.844 5.813 19.427C2.396 16.01 2.396 10.47 5.813 7.05299C7.406 5.45999 9.46 4.60899 11.546 4.50199L9.879 6.16899L10.94 7.22999L14.299 3.87099L10.94 0.511986L10.939 0.510986Z" fill="#202022"/>
<path id="Vector_2" d="M14 10.75C14 11.855 13.105 12.75 12 12.75C10.895 12.75 10 11.855 10 10.75C10 9.645 10.895 8.75 12 8.75C13.105 8.75 14 9.645 14 10.75Z" fill="#202022"/>
<path id="Vector_3" d="M11.2 13.812C9.709 13.812 8.5 15.021 8.5 16.512V17.25H15.5V16.512C15.5 15.021 14.291 13.812 12.8 13.812H11.2Z" fill="#202022"/>
</g>
</svg>
