<svg width="24" height="24" viewBox="0 0 24 24" fill="none" xmlns="http://www.w3.org/2000/svg">
<g id="No Wifi">
<g id="Vector">
<path d="M5.76562 4.8125C11.7747 2.39174 18.9102 3.61661 23.7803 8.48633L22.7197 9.54688C18.4499 5.27735 12.2663 4.08741 6.92969 5.97656L9.74902 8.7959C13.4378 8.0756 17.4071 9.14473 20.2646 12.002L19.2041 13.0625C16.9793 10.838 13.9814 9.85874 11.0752 10.1221L21.0303 20.0771L19.9697 21.1377L0.969727 2.1377L2.03027 1.07715L5.76562 4.8125Z" fill="#202022"/>
<path d="M12.0635 17.7295C12.8917 17.7295 13.5631 18.4014 13.5635 19.2295C13.5635 20.0579 12.8919 20.7295 12.0635 20.7295C11.2352 20.7294 10.5635 20.0578 10.5635 19.2295C10.5638 18.4014 11.2354 17.7296 12.0635 17.7295Z" fill="#202022"/>
<path d="M11.7656 15.0586C10.5095 15.115 9.26997 15.6199 8.31152 16.5781L7.25098 15.5176C8.1634 14.6053 9.27319 14.0126 10.4424 13.7354L11.7656 15.0586Z" fill="#202022"/>
<path d="M7.72559 11.0186C6.66466 11.5078 5.67026 12.1882 4.7959 13.0625L3.73535 12.002C4.60199 11.1354 5.57116 10.4339 6.60352 9.89648L7.72559 11.0186Z" fill="#202022"/>
<path d="M4.05957 7.35254C3.07154 7.96098 2.13657 8.69064 1.28027 9.54688L0.219727 8.48633C1.07305 7.63306 1.99746 6.89403 2.97168 6.26465L4.05957 7.35254Z" fill="#202022"/>
</g>
</g>
</svg>
