<svg width="24" height="24" viewBox="0 0 24 24" fill="none" xmlns="http://www.w3.org/2000/svg">
<g id="Type=Outline">
<path id="Vector" d="M13.75 11.9909L18.476 7.24395C19.841 5.87295 19.841 3.64995 18.476 2.27995C17.182 0.979949 15.125 0.910949 13.75 2.07195C12.375 0.909949 10.318 0.979949 9.02399 2.27995C7.65899 3.65095 7.65899 5.87395 9.02399 7.24395L13.75 11.9909ZM12.913 3.33895L13.75 4.17895L14.587 3.33895C15.367 2.55495 16.632 2.55395 17.413 3.33895C18.195 4.12395 18.196 5.40095 17.413 6.18595L13.749 9.86595L10.086 6.18595C9.30399 5.40095 9.30399 4.12395 10.086 3.33895C10.867 2.55495 12.131 2.55495 12.912 3.33895H12.913Z" fill="#202022"/>
<path id="Vector_2" d="M17.904 13.33C18.75 12.484 20.121 12.485 20.966 13.331C21.811 14.177 21.81 15.547 20.965 16.392L16.629 20.727C16.064 21.292 15.297 21.61 14.498 21.61H7.746L6.466 22.891L5.405 21.83L7.125 20.11H14.499C14.901 20.11 15.286 19.951 15.57 19.667L19.906 15.332C20.166 15.072 20.166 14.652 19.906 14.392C19.646 14.132 19.225 14.132 18.966 14.392L14.747 18.611H9.436V17.111H12.85C13.268 17.111 13.608 16.772 13.608 16.353C13.608 15.938 13.274 15.6 12.859 15.596L8.705 15.549C8.093 15.542 7.504 15.785 7.075 16.221L3.471 19.886L2.401 18.834L6.005 15.168C6.72 14.441 7.701 14.036 8.721 14.048L12.875 14.095C14.039 14.108 14.99 15.001 15.097 16.138L17.904 13.331V13.33Z" fill="#202022"/>
</g>
</svg>
