<svg width="24" height="24" viewBox="0 0 24 24" fill="none" xmlns="http://www.w3.org/2000/svg">
<g id="Type=Filled">
<path id="Vector" d="M7.88599 2.897C6.70499 4.092 6.70499 6.032 7.88599 7.228L12.5 11.9L17.114 7.228C18.295 6.033 18.295 4.093 17.114 2.897C15.933 1.701 14.017 1.701 12.836 2.897L12.5 3.237L12.164 2.897C10.983 1.701 9.06799 1.701 7.88599 2.897Z" fill="#202022"/>
<path id="Vector_2" d="M9.28497 13.625H13.199C13.889 13.625 14.449 14.185 14.449 14.875C14.449 15.565 13.889 16.125 13.199 16.125H9.94898V17.634H13.831L18.433 13.121C18.971 12.593 19.85 12.66 20.302 13.263C20.673 13.758 20.625 14.45 20.189 14.889L15.737 19.368C15.255 19.852 14.601 20.125 13.918 20.125H7.94897L6.44897 21.625L3.44897 18.625L7.05497 14.618C7.62397 13.986 8.43397 13.625 9.28497 13.625Z" fill="#202022"/>
</g>
</svg>
