<svg width="24" height="24" viewBox="0 0 24 24" fill="none" xmlns="http://www.w3.org/2000/svg">
<g id="Notice">
<path id="Vector" d="M12.75 11.25H11.25V16.25H12.75V11.25ZM12 19.75C12.55 19.75 13 19.3 13 18.75C13 18.2 12.55 17.75 12 17.75C11.45 17.75 11 18.2 11 18.75C11 19.3 11.45 19.75 12 19.75ZM17.81 8.25L14.03 4.47C14.17 4.18 14.25 3.85 14.25 3.5C14.25 2.26 13.24 1.25 12 1.25C10.76 1.25 9.75 2.26 9.75 3.5C9.75 3.85 9.83 4.18 9.97 4.47L6.19 8.25H2.25V22.75H21.75V8.25H17.81ZM12 2.75C12.41 2.75 12.75 3.09 12.75 3.5C12.75 3.91 12.41 4.25 12 4.25C11.59 4.25 11.25 3.91 11.25 3.5C11.25 3.09 11.59 2.75 12 2.75ZM11.03 5.53C11.32 5.67 11.65 5.75 12 5.75C12.35 5.75 12.68 5.67 12.97 5.53L15.69 8.25H8.31L11.03 5.53ZM20.25 21.25H3.75V9.75H20.25V21.25Z" fill="#202022"/>
</g>
</svg>
