<svg width="24" height="24" viewBox="0 0 24 24" fill="none" xmlns="http://www.w3.org/2000/svg">
<g id="Type=Outline">
<path id="Vector" d="M23 19H14.906C14.573 20.294 13.398 21.25 12 21.25C10.602 21.25 9.428 20.294 9.095 19H1V17.5C3.347 17.5 5.25 15.597 5.25 13.25V7.75C5.25 4.022 8.272 1 12 1C15.728 1 18.75 4.022 18.75 7.75V13.25C18.75 15.597 20.653 17.5 23 17.5V19ZM12 2.5C9.101 2.5 6.75 4.851 6.75 7.75V13.25C6.75 14.934 6.026 16.448 4.873 17.5H19.127C17.974 16.448 17.25 14.934 17.25 13.25V7.75C17.25 4.851 14.899 2.5 12 2.5Z" fill="#202022"/>
</g>
</svg>
