<svg width="24" height="24" viewBox="0 0 24 24" fill="none" xmlns="http://www.w3.org/2000/svg">
<g id="Type=Filled">
<path id="Vector" d="M2.625 2.25V21.75H8.875V19.75H4.875V18.25H8.875V16.25H4.875V14.75H8.875V12.75H4.875V11.25H8.875V9.25H4.875V7.75H14.125V2.25H2.625ZM9.875 5.75H4.875V4.25H9.875V5.75Z" fill="#202022"/>
<path id="Vector_2" d="M10.375 9.25V21.75H21.375V9.25H10.375ZM14.875 12.75H12.375V11.25H14.875V12.75ZM14.875 16.25H12.375V14.75H14.875V16.25ZM14.875 19.75H12.375V18.25H14.875V19.75ZM19.375 12.75H16.875V11.25H19.375V12.75ZM19.375 16.25H16.875V14.75H19.375V16.25ZM19.375 19.75H16.875V18.25H19.375V19.75Z" fill="#202022"/>
</g>
</svg>
