<svg width="24" height="24" viewBox="0 0 24 24" fill="none" xmlns="http://www.w3.org/2000/svg">
<g id="Type=Outline">
<path id="Vector" d="M5.5 6.75H10.5V5.25H5.5V6.75Z" fill="#202022"/>
<path id="Vector_2" d="M14 12.75H11.5V11.25H14V12.75Z" fill="#202022"/>
<path id="Vector_3" d="M11.5 15.75H14V14.25H11.5V15.75Z" fill="#202022"/>
<path id="Vector_4" d="M14 18.75H11.5V17.25H14V18.75Z" fill="#202022"/>
<path id="Vector_5" d="M16 12.75H18.5V11.25H16V12.75Z" fill="#202022"/>
<path id="Vector_6" d="M18.5 15.75H16V14.25H18.5V15.75Z" fill="#202022"/>
<path id="Vector_7" d="M16 18.75H18.5V17.25H16V18.75Z" fill="#202022"/>
<path id="Vector_8" d="M13.75 2.25H2.25V21.75H21.75V8.25H13.75V2.25ZM8.25 12.75V14.25H5.5V15.75H8.25V17.25H5.5V18.75H8.25V20.25H3.75V3.75H12.25V8.25H5.5V9.75H8.25V11.25H5.5V12.75H8.25ZM9.75 9.75H20.25V20.25H9.75V9.75Z" fill="#202022"/>
</g>
</svg>
