<svg width="24" height="24" viewBox="0 0 24 24" fill="none" xmlns="http://www.w3.org/2000/svg">
<g id="Type=Outline">
<path id="Vector" d="M5.5 11.5C6.052 11.5 6.5 11.052 6.5 10.5C6.5 9.948 6.052 9.5 5.5 9.5C4.948 9.5 4.5 9.948 4.5 10.5C4.5 11.052 4.948 11.5 5.5 11.5Z" fill="#202022"/>
<path id="Vector_2" d="M6.25 1.75V6.75H1.75V18.25H6.25V22.25H17.75V18.25H22.25V6.75H17.75V1.75H6.25ZM20.75 16.75H17.75V12.75H6.25V16.75H3.25V8.25H20.75V16.75ZM7.75 6.75V3.25H16.25V6.75H7.75ZM7.75 14.25H16.25V20.75H7.75V14.25Z" fill="#202022"/>
</g>
</svg>
