<svg width="24" height="24" viewBox="0 0 24 24" fill="none" xmlns="http://www.w3.org/2000/svg">
<g id="Type=Outline">
<path id="Vector" d="M20.97 22.03L1.97 3.02999L3.031 1.96899L5.962 4.89999C7.315 3.74999 9.057 3.05699 10.963 3.05699C14.29 3.05699 17.119 5.17099 18.246 8.13499C18.279 8.13399 18.313 8.13399 18.347 8.13399C21.331 8.13399 23.751 10.553 23.751 13.538C23.751 16.017 22.081 18.107 19.805 18.743L22.031 20.969L20.97 22.03ZM18.5 17.439C20.585 17.358 22.25 15.643 22.25 13.538C22.25 11.382 20.502 9.63399 18.346 9.63399C18.168 9.63399 17.992 9.64599 17.821 9.66899L17.184 9.75499L17.002 9.13799C16.218 6.47899 13.803 4.55699 10.963 4.55699C9.478 4.55699 8.108 5.08299 7.027 5.96499L18.5 17.439Z" fill="#202022"/>
<path id="Vector_2" d="M4.66201 10.715C4.69701 9.88701 4.88501 9.10001 5.19801 8.38301L4.07501 7.26001C3.61801 8.12901 3.31501 9.09501 3.20401 10.118C1.47901 10.767 0.251007 12.432 0.251007 14.385C0.251007 16.902 2.29201 18.943 4.80901 18.943H15.758L14.258 17.443H4.80901C3.12001 17.443 1.75101 16.074 1.75101 14.385C1.75101 12.945 2.74701 11.736 4.08901 11.412L4.63901 11.28L4.66201 10.715Z" fill="#202022"/>
</g>
</svg>
