<svg width="24" height="24" viewBox="0 0 24 24" fill="none" xmlns="http://www.w3.org/2000/svg">
<g id="Type=Filled">
<path id="Vector" d="M20.97 22.03L1.97 3.02999L3.031 1.96899L5.962 4.89999C7.315 3.74999 9.057 3.05699 10.963 3.05699C14.29 3.05699 17.119 5.17099 18.246 8.13499C21.228 8.07999 23.751 10.554 23.751 13.538C23.751 16.017 22.081 18.107 19.805 18.743L22.031 20.969L20.97 22.03Z" fill="#202022"/>
<path id="Vector_2" d="M4.074 7.26001C3.617 8.12901 3.314 9.09501 3.203 10.118C1.478 10.767 0.25 12.432 0.25 14.385C0.25 16.902 2.291 18.943 4.808 18.943H15.757L4.075 7.26101L4.074 7.26001Z" fill="#202022"/>
</g>
</svg>
