<svg width="24" height="24" viewBox="0 0 24 24" fill="none" xmlns="http://www.w3.org/2000/svg">
<g id="Type=Outline">
<path id="Vector" d="M8 1.625C5.929 1.625 4.25 3.304 4.25 5.375C4.25 7.189 5.538 8.703 7.25 9.05V12.558L11.069 9.125H12.96L16.75 12.57V9.05C18.462 8.703 19.75 7.189 19.75 5.375C19.75 3.304 18.071 1.625 16 1.625H8ZM5.75 5.375C5.75 4.132 6.757 3.125 8 3.125H16C17.243 3.125 18.25 4.132 18.25 5.375C18.25 6.618 17.243 7.625 16 7.625H15.25V9.18L13.54 7.625H10.494L8.75 9.192V7.625H8C6.757 7.625 5.75 6.618 5.75 5.375Z" fill="#202022"/>
<path id="Vector_2" d="M7.5 17.875C8.605 17.875 9.5 16.98 9.5 15.875C9.5 14.77 8.605 13.875 7.5 13.875C6.395 13.875 5.5 14.77 5.5 15.875C5.5 16.98 6.395 17.875 7.5 17.875Z" fill="#202022"/>
<path id="Vector_3" d="M4 21.638C4 20.147 5.209 18.938 6.7 18.938H8.3C9.791 18.938 11 20.147 11 21.638V22.376H4V21.638Z" fill="#202022"/>
<path id="Vector_4" d="M16.5 17.875C17.605 17.875 18.5 16.98 18.5 15.875C18.5 14.77 17.605 13.875 16.5 13.875C15.395 13.875 14.5 14.77 14.5 15.875C14.5 16.98 15.395 17.875 16.5 17.875Z" fill="#202022"/>
<path id="Vector_5" d="M13 21.638C13 20.147 14.209 18.938 15.7 18.938H17.3C18.791 18.938 20 20.147 20 21.638V22.376H13V21.638Z" fill="#202022"/>
</g>
</svg>
