<svg width="23" height="24" viewBox="0 0 23 24" fill="none" xmlns="http://www.w3.org/2000/svg">
<g id="Type=Filled">
<path id="Vector" d="M7.68 2.34399C5.692 2.34399 4.08 3.95599 4.08 5.94399C4.08 7.68599 5.317 9.13799 6.96 9.47199V12.839L10.626 9.54399H12.442L16.08 12.852V9.47199C17.723 9.13799 18.96 7.68599 18.96 5.94399C18.96 3.95599 17.348 2.34399 15.36 2.34399H7.68Z" fill="#202022"/>
<path id="Vector_2" d="M9.12 16.024C9.12 17.084 8.26 17.944 7.2 17.944C6.14 17.944 5.28 17.084 5.28 16.024C5.28 14.964 6.14 14.104 7.2 14.104C8.26 14.104 9.12 14.964 9.12 16.024Z" fill="#202022"/>
<path id="Vector_3" d="M6.432 18.964C5 18.964 3.84 20.124 3.84 21.556V22.264H10.56V21.556C10.56 20.124 9.4 18.964 7.968 18.964H6.432Z" fill="#202022"/>
<path id="Vector_4" d="M17.76 16.024C17.76 17.084 16.9 17.944 15.84 17.944C14.78 17.944 13.92 17.084 13.92 16.024C13.92 14.964 14.78 14.104 15.84 14.104C16.9 14.104 17.76 14.964 17.76 16.024Z" fill="#202022"/>
<path id="Vector_5" d="M15.072 18.964C13.64 18.964 12.48 20.124 12.48 21.556V22.264H19.2V21.556C19.2 20.124 18.04 18.964 16.608 18.964H15.072Z" fill="#202022"/>
</g>
</svg>
