<svg width="24" height="24" viewBox="0 0 24 24" fill="none" xmlns="http://www.w3.org/2000/svg">
<g id="Type=Outline">
<path id="Vector" d="M3.20299 11.118C3.63399 7.15798 6.93199 4.05798 10.962 4.05798C14.289 4.05798 17.118 6.17198 18.245 9.13598C18.278 9.13498 18.312 9.13498 18.346 9.13498C21.33 9.13498 23.75 11.554 23.75 14.539C23.75 17.524 21.331 19.943 18.346 19.943H4.80699C2.28999 19.943 0.248993 17.902 0.248993 15.385C0.248993 13.432 1.47699 11.767 3.20199 11.118H3.20299ZM10.962 5.55798C7.58499 5.55798 4.80799 8.27698 4.66199 11.715L4.63799 12.28L4.08799 12.412C2.74599 12.735 1.74999 13.945 1.74999 15.385C1.74999 17.074 3.11899 18.443 4.80799 18.443H18.347C20.503 18.443 22.251 16.695 22.251 14.539C22.251 12.383 20.503 10.635 18.347 10.635C18.169 10.635 17.993 10.647 17.822 10.67L17.185 10.756L17.003 10.139C16.219 7.47998 13.804 5.55798 10.964 5.55798H10.962Z" fill="#202022"/>
</g>
</svg>
