<svg width="24" height="24" viewBox="0 0 24 24" fill="none" xmlns="http://www.w3.org/2000/svg">
<g id="Open Api">
<path id="Vector" d="M2.25 7C2.25 4.377 4.377 2.25 7 2.25H10V3.75H7C5.205 3.75 3.75 5.205 3.75 7V17C3.75 18.795 5.205 20.25 7 20.25H10V21.75H7C4.377 21.75 2.25 19.623 2.25 17V7Z" fill="#202022"/>
<path id="Vector_2" d="M21.75 17C21.75 19.623 19.623 21.75 17 21.75H14V20.25H17C18.795 20.25 20.25 18.795 20.25 17V7C20.25 5.205 18.795 3.75 17 3.75H14V2.25H17C19.623 2.25 21.75 4.377 21.75 7V17Z" fill="#202022"/>
<path id="Vector_3" d="M12 13C12.552 13 13 12.552 13 12C13 11.448 12.552 11 12 11C11.448 11 11 11.448 11 12C11 12.552 11.448 13 12 13Z" fill="#202022"/>
<path id="Vector_4" d="M9 12C9 12.552 8.552 13 8 13C7.448 13 7 12.552 7 12C7 11.448 7.448 11 8 11C8.552 11 9 11.448 9 12Z" fill="#202022"/>
<path id="Vector_5" d="M16 13C16.552 13 17 12.552 17 12C17 11.448 16.552 11 16 11C15.448 11 15 11.448 15 12C15 12.552 15.448 13 16 13Z" fill="#202022"/>
</g>
</svg>
