<svg width="24" height="24" viewBox="0 0 24 24" fill="none" xmlns="http://www.w3.org/2000/svg">
<g id="Opera">
<path id="Vector" d="M18.665 4.546C16.1 3.296 13.709 4.172 12.918 4.718C15.438 5.271 17.34 8.316 17.34 12.002C17.34 15.688 15.436 18.733 12.918 19.286C13.709 19.832 16.101 20.707 18.665 19.456C20.711 17.626 22 14.964 22 12.003C22 9.042 20.713 6.379 18.665 4.55V4.548V4.546ZM8.70802 17.635C7.60202 16.33 6.88702 14.401 6.83702 12.235V11.765C6.88702 9.6 7.60302 7.671 8.70802 6.366C10.143 4.503 12.275 3.322 14.656 3.322C16.12 3.322 17.492 3.77 18.664 4.546C16.903 2.97 14.582 2.011 12.036 2H11.998C6.47602 2 1.99902 6.477 1.99902 11.999C1.99902 17.521 6.22002 21.739 11.523 21.988C11.681 21.995 11.839 22 11.999 22C14.558 22 16.895 21.037 18.663 19.456C17.491 20.234 16.121 20.68 14.656 20.68C12.275 20.68 10.141 19.499 8.70802 17.637V17.635Z" fill="#202022"/>
</g>
</svg>
