<svg width="24" height="24" viewBox="0 0 24 24" fill="none" xmlns="http://www.w3.org/2000/svg">
<g id="Opsgenie">
<path id="Vector" d="M12.096 11.964C14.571 11.964 16.578 9.957 16.578 7.482C16.578 5.007 14.571 3 12.096 3C9.62101 3 7.61401 5.007 7.61401 7.482C7.61401 9.957 9.62101 11.964 12.096 11.964Z" fill="#202022"/>
<path id="Vector_2" d="M7.97302 17.859C6.66202 16.543 5.52602 15.06 4.59802 13.43C4.47202 13.179 4.55602 12.886 4.80702 12.76H4.84902L8.24202 11.085C8.49302 10.959 8.78702 11.043 8.91202 11.294C9.77402 12.744 10.846 14.036 12.082 15.144C13.313 14.037 14.375 12.745 15.237 11.294C15.363 11.043 15.656 10.959 15.907 11.085L19.3 12.76H19.342C19.593 12.886 19.677 13.179 19.551 13.43C18.623 15.06 17.487 16.543 16.176 17.859C16.184 17.863 16.192 17.867 16.2 17.87C15.069 19.001 13.854 20.006 12.514 20.844C12.365 20.929 12.217 20.971 12.074 20.97C11.931 20.971 11.783 20.929 11.634 20.844C10.294 20.006 9.07902 19.001 7.94802 17.87C7.95602 17.866 7.96502 17.862 7.97302 17.859Z" fill="#202022"/>
</g>
</svg>
