<svg width="24" height="24" viewBox="0 0 24 24" fill="none" xmlns="http://www.w3.org/2000/svg">
<g id="Options">
<path id="Vector" d="M12.693 15.461C11.932 15.461 11.308 16.084 11.308 16.846V17.538H2.30801V18.923H11.308V19.615C11.308 20.376 11.931 21 12.693 21C13.455 21 14.078 20.377 14.078 19.615V16.846C14.078 16.084 13.455 15.461 12.693 15.461Z" fill="#202022"/>
<path id="Vector_2" d="M5.76901 13.385C5.76901 14.147 6.39201 14.77 7.15401 14.77C7.91601 14.77 8.53901 14.147 8.53901 13.385V10.616C8.53901 9.85499 7.91601 9.23099 7.15401 9.23099C6.39201 9.23099 5.76901 9.85399 5.76901 10.616V11.308H2.30801V12.693H5.76901V13.385Z" fill="#202022"/>
<path id="Vector_3" d="M14.769 7.154C14.769 7.915 15.392 8.539 16.154 8.539C16.916 8.539 17.539 7.916 17.539 7.154V4.385C17.539 3.624 16.916 3 16.154 3C15.392 3 14.769 3.623 14.769 4.385V5.077H2.30801V6.462H14.769V7.154Z" fill="#202022"/>
<path id="Vector_4" d="M15.462 17.538H21.693V18.923H15.462V17.538Z" fill="#202022"/>
<path id="Vector_5" d="M9.923 11.307H21.692V12.692H9.923V11.307Z" fill="#202022"/>
<path id="Vector_6" d="M18.923 5.077H21.692V6.462H18.923V5.077Z" fill="#202022"/>
</g>
</svg>
