<svg width="24" height="24" viewBox="0 0 24 24" fill="none" xmlns="http://www.w3.org/2000/svg">
<g id="Type=Outline">
<path id="Vector" d="M12 6.25C8.824 6.25 6.25 8.824 6.25 12C6.25 15.176 8.824 17.75 12 17.75C15.176 17.75 17.75 15.176 17.75 12C17.75 8.824 15.176 6.25 12 6.25ZM7.75 12C7.75 9.653 9.653 7.75 12 7.75C14.347 7.75 16.25 9.653 16.25 12C16.25 14.347 14.347 16.25 12 16.25C9.653 16.25 7.75 14.347 7.75 12Z" fill="#202022"/>
<path id="Vector_2" d="M12 1.75C6.339 1.75 1.75 6.339 1.75 12C1.75 17.661 6.339 22.25 12 22.25C17.661 22.25 22.25 17.661 22.25 12C22.25 6.339 17.661 1.75 12 1.75ZM3.25 12C3.25 7.168 7.168 3.25 12 3.25C16.832 3.25 20.75 7.168 20.75 12C20.75 16.833 16.832 20.75 12 20.75C7.168 20.75 3.25 16.832 3.25 12Z" fill="#202022"/>
</g>
</svg>
