<svg width="24" height="24" viewBox="0 0 24 24" fill="none" xmlns="http://www.w3.org/2000/svg">
<g id="Type=Outline">
<path id="Vector" d="M10.081 2.08301L9.523 3.66601C9.175 4.65201 8.986 5.71301 8.986 6.82001C8.986 12.064 13.244 16.318 18.499 16.318C19.006 16.318 19.504 16.279 19.988 16.202L21.645 15.942L20.733 17.35C18.956 20.096 15.861 21.916 12.34 21.916C6.826 21.916 2.353 17.452 2.353 11.943C2.353 7.78101 4.905 4.21801 8.528 2.72301L10.079 2.08301H10.081ZM7.657 4.87701C5.364 6.39501 3.854 8.99401 3.854 11.944C3.854 16.622 7.653 20.417 12.341 20.417C14.744 20.417 16.913 19.421 18.458 17.818C12.396 17.796 7.486 12.882 7.486 6.82101C7.486 6.15801 7.545 5.50801 7.657 4.87701Z" fill="#202022"/>
</g>
</svg>
