<svg width="24" height="24" viewBox="0 0 24 24" fill="none" xmlns="http://www.w3.org/2000/svg">
<g id="Type=Filled">
<path id="Vector" d="M19.125 1.875V3.625H20.875V5.125H17.625C17.073 5.125 16.625 5.573 16.625 6.125C16.625 6.677 17.073 7.125 17.625 7.125H19.125C20.506 7.125 21.625 8.244 21.625 9.625C21.625 11.006 20.506 12.125 19.125 12.125V13.875H17.625V12.125H15.875V10.625H19.125C19.677 10.625 20.125 10.177 20.125 9.625C20.125 9.073 19.677 8.625 19.125 8.625H17.625C16.244 8.625 15.125 7.506 15.125 6.125C15.125 4.744 16.244 3.625 17.625 3.625V1.875H19.125Z" fill="#202022"/>
<path id="Vector_2" d="M5.69697 3.12806L7.30397 9.12506H13.375V10.6251H7.70597L8.51697 13.6511H13.841C15.241 13.6511 16.376 14.7861 16.376 16.1861V17.8761H9.12598V20.6261H14.376V22.1261H7.62597V17.8761H6.15097L2.43397 4.00306C2.19197 3.10206 2.72697 2.17506 3.62897 1.93406C4.53097 1.69306 5.45697 2.22706 5.69797 3.12906L5.69697 3.12806Z" fill="#202022"/>
</g>
</svg>
