<svg width="24" height="24" viewBox="0 0 24 24" fill="none" xmlns="http://www.w3.org/2000/svg">
<g id="Type=Outline">
<path id="Vector" d="M3.30899 1.58405C4.60999 1.23505 5.94799 2.00805 6.29699 3.30905L7.95599 9.50005H13.25V11H8.35699L8.96699 13.276H13.715C15.529 13.276 17 14.746 17 16.56V19H8.99999V21H14.25V22.5H7.49999V19H5.44999L1.58399 4.57205C1.23499 3.27105 2.00799 1.93305 3.30899 1.58405ZM4.84799 3.69705C4.71399 3.19605 4.19799 2.89805 3.69699 3.03305C3.19599 3.16805 2.89799 3.68305 3.03299 4.18405L6.60099 17.501H15.5V16.561C15.5 15.576 14.701 14.777 13.715 14.777H7.81599L4.84699 3.69805L4.84799 3.69705Z" fill="#202022"/>
<path id="Vector_2" d="M20 2.25V4H21.75V5.5H18.5C17.948 5.5 17.5 5.948 17.5 6.5C17.5 7.052 17.948 7.5 18.5 7.5H20C21.381 7.5 22.5 8.619 22.5 10C22.5 11.381 21.381 12.5 20 12.5V14.25H18.5V12.5H16.75V11H20C20.552 11 21 10.552 21 10C21 9.448 20.552 9 20 9H18.5C17.119 9 16 7.881 16 6.5C16 5.119 17.119 4 18.5 4V2.25H20Z" fill="#202022"/>
</g>
</svg>
