<svg width="24" height="24" viewBox="0 0 24 24" fill="none" xmlns="http://www.w3.org/2000/svg">
<g id="Type=Filled">
<g id="Shape">
<path d="M21.75 4.25C22.7165 4.25 23.5 5.0335 23.5 6V10C23.5 10.9665 22.7165 11.75 21.75 11.75H10.75C10.6119 11.75 10.5 11.8619 10.5 12V14.25H12V22.75H7.5V14.25H9V12C9 11.0335 9.7835 10.25 10.75 10.25H21.75C21.8881 10.25 22 10.1381 22 10V6C22 5.86193 21.8881 5.75 21.75 5.75H20.5V4.25H21.75Z" fill="#202022"/>
<path d="M16.25 1.25C17.7688 1.25 19 2.48122 19 4V6C19 7.51878 17.7688 8.75 16.25 8.75H3.25C1.73124 8.74997 0.5 7.51876 0.5 6V4C0.5 2.48124 1.73125 1.25003 3.25 1.25H16.25Z" fill="#202022"/>
</g>
</g>
</svg>
