<svg width="24" height="24" viewBox="0 0 24 24" fill="none" xmlns="http://www.w3.org/2000/svg">
<g id="Type=Outline">
<path id="Shape" fill-rule="evenodd" clip-rule="evenodd" d="M21.5 4.25H20.25V4C20.25 2.48 19.02 1.25 17.5 1.25H3.5C1.98 1.25 0.75 2.48 0.75 4V6C0.75 7.52 1.98 8.75 3.5 8.75H17.5C19.02 8.75 20.25 7.52 20.25 6V5.75H21.5C21.64 5.75 21.75 5.86 21.75 6V10C21.75 10.14 21.64 10.25 21.5 10.25H11C10.03 10.25 9.25 11.03 9.25 12V14.25H7.75V22.75H12.25V14.25H10.75V12C10.75 11.86 10.86 11.75 11 11.75H21.5C22.47 11.75 23.25 10.97 23.25 10V6C23.25 5.03 22.47 4.25 21.5 4.25ZM18.75 6C18.75 6.69 18.19 7.25 17.5 7.25H3.5C2.81 7.25 2.25 6.69 2.25 6V4C2.25 3.31 2.81 2.75 3.5 2.75H17.5C18.19 2.75 18.75 3.31 18.75 4V6ZM10.75 21.25H9.25V15.75H10.75V21.25Z" fill="#202022"/>
</g>
</svg>
