<svg width="24" height="24" viewBox="0 0 24 24" fill="none" xmlns="http://www.w3.org/2000/svg">
<g id="Type=Filled">
<g id="Subtract">
<path d="M14.13 20.125C13.14 19.225 12.46 17.985 12.29 16.555V16.565C11.92 13.415 14.17 10.555 17.32 10.175C17.3289 10.1738 17.3377 10.1726 17.3465 10.1715C17.4866 10.1527 17.6189 10.135 17.76 10.135V11.635C17.6782 11.635 17.6047 11.6433 17.5245 11.6523C17.5164 11.6532 17.5082 11.6541 17.5 11.655C15.17 11.925 13.5 14.045 13.78 16.375C13.91 17.485 14.46 18.445 15.25 19.115V16.875H16.75V21.625H12V20.125H14.13Z" fill="#202022"/>
<path d="M19.25 10.125H24V11.625H21.87C22.86 12.525 23.54 13.765 23.71 15.195C24.08 18.345 21.83 21.205 18.68 21.585C18.6333 21.5883 18.5867 21.5928 18.54 21.5972C18.4467 21.6061 18.3533 21.615 18.26 21.615V20.115C18.3 20.115 18.34 20.11 18.38 20.105C18.42 20.1 18.46 20.095 18.5 20.095C20.83 19.825 22.5 17.705 22.22 15.375C22.09 14.265 21.54 13.305 20.75 12.635V14.875H19.25V10.125Z" fill="#202022"/>
<path fill-rule="evenodd" clip-rule="evenodd" d="M18.19 2.375C19.63 2.375 20.77 3.555 20.77 4.985L20.7739 8.625C20.7739 8.625 18.0805 8.6276 18 8.625C17.9195 8.6224 18.0812 8.625 18 8.625C14.69 8.625 11.9 10.845 11.03 13.875H2.58C1.14 13.875 0 12.695 0 11.265V4.985C0 3.555 1.14 2.375 2.58 2.375H18.19ZM3.5 8.125C3.5 8.675 3.95 9.125 4.5 9.125C5.05 9.125 5.5 8.675 5.5 8.125C5.5 7.575 5.05 7.125 4.5 7.125C3.95 7.125 3.5 7.575 3.5 8.125ZM7.5 8.125C7.5 8.675 7.95 9.125 8.5 9.125C9.05 9.125 9.5 8.675 9.5 8.125C9.5 7.575 9.05 7.125 8.5 7.125C7.95 7.125 7.5 7.575 7.5 8.125ZM11.5 8.125C11.5 8.675 11.95 9.125 12.5 9.125C13.05 9.125 13.5 8.675 13.5 8.125C13.5 7.575 13.05 7.125 12.5 7.125C11.95 7.125 11.5 7.575 11.5 8.125Z" fill="#202022"/>
</g>
</g>
</svg>
