<svg width="24" height="24" viewBox="0 0 24 24" fill="none" xmlns="http://www.w3.org/2000/svg">
<g id="Password">
<path id="Vector" d="M13.022 6.388H10.982C10.655 6.388 10.39 6.653 10.39 6.98V9.879C10.39 9.96 10.411 10.021 10.471 10.083L10.982 10.594C11.105 10.696 11.105 10.878 10.982 11.001L10.471 11.512C10.431 11.574 10.39 11.635 10.39 11.716V17.023C10.39 17.35 10.655 17.615 10.982 17.615H13.022C13.349 17.615 13.614 17.35 13.614 17.023V14.126C13.614 14.045 13.593 13.984 13.533 13.922L13.022 13.411C12.899 13.309 12.899 13.127 13.022 13.004L13.533 12.493C13.573 12.431 13.614 12.37 13.614 12.289V6.983C13.614 6.656 13.349 6.391 13.022 6.391V6.388ZM12 2C6.49 2 2 6.469 2 12C2 17.531 6.469 22 12 22C17.531 22 22 17.531 22 12C22 6.469 17.51 2 12 2ZM11.981 19.612C7.777 19.612 4.369 16.204 4.369 12C4.369 7.796 7.777 4.388 11.981 4.388C16.185 4.388 19.593 7.796 19.593 12C19.593 16.204 16.185 19.612 11.981 19.612Z" fill="#202022"/>
</g>
</svg>
