<svg width="24" height="24" viewBox="0 0 24 24" fill="none" xmlns="http://www.w3.org/2000/svg">
<g id="Type=Outline">
<g id="Shape">
<path d="M0 5.48546C0 4.05589 1.14258 2.875 2.57892 2.875H18.1867C19.623 2.875 20.7656 4.05589 20.7656 5.48547V8.125H19.2656V5.48547C19.2656 4.86003 18.7705 4.375 18.1867 4.375H2.57892C1.99509 4.375 1.5 4.86003 1.5 5.48546V11.7645C1.5 12.39 1.99509 12.875 2.57892 12.875H11.1926C11.0168 13.3534 10.8901 13.8554 10.8184 14.375H2.57892C1.14258 14.375 0 13.1941 0 11.7645V5.48546Z" fill="#202022"/>
<path d="M24 9.62451V11.1245H21.8723C22.8582 12.0221 23.5393 13.2658 23.7096 14.6946C24.0855 17.8479 21.8339 20.7089 18.6806 21.0847C18.5365 21.1019 18.3929 21.1136 18.25 21.12V19.618C18.334 19.6129 18.4184 19.6054 18.5031 19.5953C20.8338 19.3175 22.498 17.2028 22.2201 14.8721C22.0879 13.763 21.5404 12.805 20.75 12.1347V14.3745H19.25V9.62451L24 9.62451Z" fill="#202022"/>
<path d="M12 19.625V21.125H16.75V16.375H15.25V18.6156C14.4596 17.9453 13.9121 16.9872 13.7799 15.8782C13.5021 13.5475 15.1663 11.4329 17.497 11.155C17.5817 11.1449 17.666 11.1374 17.75 11.1324V9.63037C17.6072 9.63672 17.4636 9.64841 17.3194 9.66559C14.1661 10.0415 11.9146 12.9025 12.2904 16.0558C12.4607 17.4842 13.1414 18.7275 14.1268 19.625H12Z" fill="#202022"/>
<path d="M6.46069 8.625C6.46069 9.17728 6.01298 9.625 5.46069 9.625C4.90841 9.625 4.46069 9.17728 4.46069 8.625C4.46069 8.07272 4.90841 7.625 5.46069 7.625C6.01298 7.625 6.46069 8.07272 6.46069 8.625Z" fill="#202022"/>
<path d="M9.46069 9.625C10.013 9.625 10.4607 9.17728 10.4607 8.625C10.4607 8.07272 10.013 7.625 9.46069 7.625C8.90841 7.625 8.46069 8.07272 8.46069 8.625C8.46069 9.17728 8.90841 9.625 9.46069 9.625Z" fill="#202022"/>
<path d="M14.4607 8.625C14.4607 9.17728 14.013 9.625 13.4607 9.625C12.9084 9.625 12.4607 9.17728 12.4607 8.625C12.4607 8.07272 12.9084 7.625 13.4607 7.625C14.013 7.625 14.4607 8.07272 14.4607 8.625Z" fill="#202022"/>
</g>
</g>
</svg>
