<svg width="24" height="24" viewBox="0 0 24 24" fill="none" xmlns="http://www.w3.org/2000/svg">
<g id="Type=Outline">
<path id="Vector" d="M10.5 16.966L18.046 9.42096L16.455 7.82996L10.501 13.785L8.29596 11.58L6.70496 13.171L10.5 16.966Z" fill="#202022"/>
<path id="Vector_2" d="M12.375 1.875C6.576 1.875 1.875 6.576 1.875 12.375C1.875 18.174 6.576 22.875 12.375 22.875C18.174 22.875 22.875 18.174 22.875 12.375C22.875 6.576 18.174 1.875 12.375 1.875ZM4.125 12.375C4.125 7.819 7.819 4.125 12.375 4.125C16.931 4.125 20.625 7.819 20.625 12.375C20.625 16.931 16.931 20.625 12.375 20.625C7.819 20.625 4.125 16.931 4.125 12.375Z" fill="#202022"/>
</g>
</svg>
