<svg width="24" height="24" viewBox="0 0 24 24" fill="none" xmlns="http://www.w3.org/2000/svg">
<g id="Type=Outlined">
<path id="Vector" d="M3.25 9V18H15.5V19.5H1.75V3.5H6.25V0.75H7.75V3.5H16.25V0.75H17.75V3.5H22.25V11.25H20.75V9H3.25Z" fill="#202022"/>
<path id="Vector_2" d="M18.249 13C16.868 13 15.749 14.119 15.749 15.5C15.749 16.881 16.868 18 18.249 18H19.749C20.301 18 20.749 18.448 20.749 19C20.749 19.552 20.301 20 19.749 20H16.499V21.5H18.249V23.25H19.749V21.5C21.13 21.5 22.249 20.381 22.249 19C22.249 17.619 21.13 16.5 19.749 16.5H18.249C17.697 16.5 17.249 16.052 17.249 15.5C17.249 14.948 17.697 14.5 18.249 14.5H21.499V13H19.749V11.25H18.249V13Z" fill="#202022"/>
</g>
</svg>
