<svg width="24" height="24" viewBox="0 0 24 24" fill="none" xmlns="http://www.w3.org/2000/svg">
<g id="Type=Outline">
<path id="Vector" d="M16.25 3.75H7.75V1H6.25V3.75H1.75V19.75H12.25V18.25H3.25V9.25H20.75V11.036C21.322 11.326 21.831 11.722 22.25 12.2V3.75H17.75V1H16.25V3.75Z" fill="#202022"/>
<path id="Vector_2" d="M15 16.75H13.75V15.25H15.009C15.135 13.434 16.649 12 18.497 12C20.345 12 21.858 13.435 21.985 15.25H20.479C20.358 14.264 19.517 13.5 18.498 13.5C17.479 13.5 16.638 14.264 16.517 15.25H18.752V16.75H16.502V18.25H18.752V19.75H16.517C16.638 20.736 17.479 21.5 18.498 21.5C19.517 21.5 20.358 20.736 20.479 19.75H21.985C21.859 21.565 20.346 23 18.497 23C16.648 23 15.136 21.566 15.009 19.75H13.75V18.25H15V16.75Z" fill="#202022"/>
</g>
</svg>
