<svg width="24" height="24" viewBox="0 0 24 24" fill="none" xmlns="http://www.w3.org/2000/svg">
<g id="Type=Filled">
<path id="Vector" d="M16.25 4H7.75V1.25H6.25V4H1.75V20H13.5V18.5H3.25V9.5H20.75V10.812C21.319 11.04 21.828 11.383 22.25 11.814V4H17.75V1.25H16.25V4Z" fill="#202022"/>
<path id="Vector_2" d="M16.25 14.875C16.25 13.287 17.537 12 19.125 12C19.728 12 20.288 12.186 20.751 12.503C20.821 12.551 20.889 12.602 20.954 12.656C21.375 13.003 21.695 13.468 21.865 14C21.867 14.007 21.869 14.013 21.871 14.02C21.955 14.29 22 14.577 22 14.875V15.5H20.5V14.875C20.5 14.116 19.884 13.5 19.125 13.5C18.366 13.5 17.75 14.116 17.75 14.875V16.75H20V18.25H17.75V20C17.75 20.45 17.642 20.875 17.45 21.25H22V22.75H15V21.25C15.69 21.25 16.25 20.69 16.25 20V18.25H15V16.75H16.25V14.875Z" fill="#202022"/>
</g>
</svg>
