<svg width="24" height="24" viewBox="0 0 24 24" fill="none" xmlns="http://www.w3.org/2000/svg">
<g id="Type=Filled">
<path id="Vector" d="M7.75 3.70398H16.25V0.953979H17.75V3.70398H22.25V10.688H20.75V9.20398H3.25V18.204H13.304V19.704H1.75V3.70398H6.25V0.953979H7.75V3.70398Z" fill="#202022"/>
<path id="Vector_2" d="M14.75 15.204H19.374C19.066 14.33 18.233 13.704 17.253 13.704H14.749V12.204H22.249V13.704H20.252C20.579 14.14 20.814 14.65 20.926 15.204H22.249V16.704H20.925C20.585 18.372 19.138 19.637 17.384 19.698L20.204 21.855L19.293 23.046L14.749 19.571V18.2H17.253C18.231 18.2 19.063 17.576 19.372 16.704H14.749V15.204H14.75Z" fill="#202022"/>
</g>
</svg>
