<svg width="24" height="24" viewBox="0 0 24 24" fill="none" xmlns="http://www.w3.org/2000/svg">
<g id="Type=Filled">
<path id="Vector" d="M20.25 1.25V19.75H6.75V1.25H20.25ZM13.996 5C12.148 5 10.635 6.434 10.508 8.25H9.249V9.75H10.499V11.25H9.249V12.75H10.508C10.634 14.566 12.148 16 13.996 16C15.844 16 17.357 14.565 17.484 12.75H15.978C15.857 13.736 15.016 14.5 13.997 14.5C12.978 14.5 12.137 13.736 12.016 12.75H14.251V11.25H12.001V9.75H14.251V8.25H12.016C12.137 7.264 12.978 6.5 13.997 6.5C15.016 6.5 15.857 7.264 15.978 8.25H17.484C17.358 6.435 15.845 5 13.996 5Z" fill="#202022"/>
<path id="Vector_2" d="M5.25 21.25V5H3.75V22.75H16.5V21.25H5.25Z" fill="#202022"/>
</g>
</svg>
