<svg width="24" height="24" viewBox="0 0 24 24" fill="none" xmlns="http://www.w3.org/2000/svg">
<g id="Payroll And Time Dollar Filled">
<path id="Vector" d="M12 1.125C6.615 1.125 2.25 5.49 2.25 10.875C2.25 16.26 6.615 20.625 12 20.625C12.73 20.625 13.441 20.545 14.125 20.393V17.458C13.653 16.801 13.375 15.996 13.375 15.126C13.375 13.447 14.409 12.01 15.875 11.417V9.376H20.375V11.126H21.747C21.749 11.043 21.75 10.96 21.75 10.876C21.75 5.491 17.385 1.126 12 1.126V1.125ZM11.25 10.125V4.875H12.75V11.625H6V10.125H11.25Z" fill="#202022"/>
<path id="Vector_2" d="M20.03 16.407C19.685 16.227 19.292 16.125 18.875 16.125H17.375C16.823 16.125 16.375 15.677 16.375 15.125C16.375 14.573 16.823 14.125 17.375 14.125H20.625V12.625H18.875V10.875H17.375V12.625C15.994 12.625 14.875 13.744 14.875 15.125C14.875 16.506 15.994 17.625 17.375 17.625H18.875C18.926 17.625 18.976 17.629 19.025 17.636C19.506 17.708 19.875 18.124 19.875 18.625C19.875 19.177 19.427 19.625 18.875 19.625H15.625V21.125H17.375V22.875H18.875V21.125C20.256 21.125 21.375 20.006 21.375 18.625C21.375 17.661 20.829 16.824 20.03 16.407Z" fill="#202022"/>
</g>
</svg>
