<svg width="24" height="24" viewBox="0 0 24 24" fill="none" xmlns="http://www.w3.org/2000/svg">
<g id="Type=Outline">
<path id="Vector" d="M11.75 3.57898C7.19402 3.57898 3.50002 7.27298 3.50002 11.829C3.50002 16.385 7.19402 20.079 11.75 20.079C12.569 20.079 13.36 19.96 14.106 19.738L15.502 20.831C14.347 21.313 13.079 21.579 11.749 21.579C6.36402 21.579 1.99902 17.214 1.99902 11.829C1.99902 6.44398 6.36402 2.07898 11.749 2.07898C16.382 2.07898 20.26 5.30998 21.253 9.64198H19.706C18.747 6.14698 15.548 3.57898 11.749 3.57898H11.75Z" fill="#202022"/>
<path id="Vector_2" d="M11 5.82898V11.079H5.75V12.579H12.5V5.82898H11Z" fill="#202022"/>
<path id="Vector_3" d="M14.5 14.079H19.124C18.816 13.205 17.983 12.579 17.003 12.579H14.5V11.079H22V12.579H20.003C20.33 13.015 20.565 13.525 20.677 14.079H22V15.579H20.676C20.336 17.247 18.889 18.512 17.136 18.573L19.956 20.73L19.045 21.921L14.501 18.446V17.075H17.004C17.982 17.075 18.814 16.451 19.123 15.579H14.5V14.079Z" fill="#202022"/>
</g>
</svg>
