<svg width="24" height="24" viewBox="0 0 24 24" fill="none" xmlns="http://www.w3.org/2000/svg">
<g id="Type=Filled">
<path id="Vector" d="M1.37903 11.095C1.37903 5.70997 5.74403 1.34497 11.129 1.34497C16.251 1.34497 20.45 5.29397 20.848 10.314H13.629V20.522C12.831 20.733 11.993 20.846 11.129 20.846C5.74403 20.846 1.37903 16.48 1.37903 11.095ZM10.379 5.09497V10.345H5.12903V11.845H11.879V5.09497H10.379Z" fill="#202022"/>
<path id="Vector_2" d="M15.121 13.313H17.625C18.604 13.313 19.437 13.939 19.746 14.813H15.122V16.313H19.745C19.436 17.185 18.604 17.809 17.626 17.809H15.122V19.18L19.666 22.655L20.577 21.464L17.757 19.307C19.51 19.246 20.958 17.981 21.297 16.313H22.621V14.813H21.298C21.186 14.259 20.951 13.749 20.624 13.313H22.621V11.813H15.121V13.313Z" fill="#202022"/>
</g>
</svg>
