<svg width="24" height="24" viewBox="0 0 24 24" fill="none" xmlns="http://www.w3.org/2000/svg">
<g id="Payroll Time Dollar Outline">
<path id="Vector" d="M11.5 3.375C6.944 3.375 3.25 7.069 3.25 11.625C3.25 16.181 6.944 19.875 11.5 19.875C12.751 19.875 13.938 19.596 15 19.098V20.728C13.914 21.146 12.733 21.375 11.5 21.375C6.115 21.375 1.75 17.01 1.75 11.625C1.75 6.24 6.115 1.875 11.5 1.875C15.838 1.875 19.514 4.708 20.78 8.625H19.188C17.988 5.552 14.998 3.375 11.5 3.375Z" fill="#202022"/>
<path id="Vector_2" d="M18.25 16.875C18.126 16.875 18.005 16.866 17.886 16.849C16.678 16.673 15.75 15.632 15.75 14.375C15.75 12.994 16.869 11.875 18.25 11.875V10.125H19.75V11.875H21.5V13.375H18.25C17.698 13.375 17.25 13.823 17.25 14.375C17.25 14.927 17.698 15.375 18.25 15.375H19.75C19.996 15.375 20.234 15.411 20.459 15.477C21.494 15.783 22.25 16.741 22.25 17.875C22.25 19.256 21.131 20.375 19.75 20.375V22.125H18.25V20.375H16.5V18.875H19.75C20.302 18.875 20.75 18.427 20.75 17.875C20.75 17.323 20.302 16.875 19.75 16.875H18.25Z" fill="#202022"/>
<path id="Vector_3" d="M10.75 10.875V5.625H12.25V12.375H5.5V10.875H10.75Z" fill="#202022"/>
</g>
</svg>
