<svg width="24" height="24" viewBox="0 0 24 24" fill="none" xmlns="http://www.w3.org/2000/svg">
<g id="Type=Outline">
<path id="Vector" d="M11.625 3.625C7.069 3.625 3.375 7.319 3.375 11.875C3.375 16.431 7.069 20.125 11.625 20.125C12.315 20.125 12.985 20.04 13.625 19.881V21.42C12.979 21.555 12.31 21.625 11.625 21.625C6.24 21.625 1.875 17.26 1.875 11.875C1.875 6.49 6.24 2.125 11.625 2.125C16.399 2.125 20.372 5.557 21.212 10.088C20.711 9.836 20.156 9.678 19.568 9.636C18.592 6.167 15.406 3.625 11.625 3.625Z" fill="#202022"/>
<path id="Vector_2" d="M10.875 11.125V5.875H12.375V12.625H5.625V11.125H10.875Z" fill="#202022"/>
<path id="Vector_3" d="M16.375 14C16.375 12.412 17.662 11.125 19.25 11.125C20.838 11.125 22.125 12.412 22.125 14V14.625H20.625V14C20.625 13.241 20.009 12.625 19.25 12.625C18.491 12.625 17.875 13.241 17.875 14V15.875H20.125V17.375H17.875V19.125C17.875 19.575 17.767 20 17.575 20.375H22.125V21.875H15.125V20.375C15.815 20.375 16.375 19.815 16.375 19.125V17.375H15.125V15.875H16.375V14Z" fill="#202022"/>
</g>
</svg>
