<svg width="24" height="24" viewBox="0 0 24 24" fill="none" xmlns="http://www.w3.org/2000/svg">
<g id="Type=Outline">
<path id="Vector" d="M9.75405 8.25H14.3781C14.0701 7.376 13.2371 6.75 12.2571 6.75H9.75305V5.25H17.2531V6.75H15.2561C15.5831 7.186 15.8181 7.696 15.9301 8.25H17.2531V9.75H15.9291C15.5891 11.418 14.1421 12.683 12.3881 12.744L15.2081 14.901L14.2971 16.093L9.75305 12.618V11.247H12.2571C13.2351 11.247 14.0671 10.623 14.3761 9.751H9.75305V8.251L9.75405 8.25Z" fill="#202022"/>
<path id="Vector_2" d="M20.25 1.25H6.75V19.75H20.25V1.25ZM8.25 18.25V2.75H18.75V18.25H8.25Z" fill="#202022"/>
<path id="Vector_3" d="M5.25 5V21.25H16.5V22.75H3.75V5H5.25Z" fill="#202022"/>
</g>
</svg>
