<svg width="24" height="24" viewBox="0 0 24 24" fill="none" xmlns="http://www.w3.org/2000/svg">
<g id="Type=Outline">
<path id="Vector" d="M12.75 6.25C11.369 6.25 10.25 7.369 10.25 8.75C10.25 10.131 11.369 11.25 12.75 11.25H14.25C14.802 11.25 15.25 11.698 15.25 12.25C15.25 12.802 14.802 13.25 14.25 13.25H11V14.75H12.75V16.5H14.25V14.75C15.631 14.75 16.75 13.631 16.75 12.25C16.75 10.869 15.631 9.75 14.25 9.75H12.75C12.198 9.75 11.75 9.302 11.75 8.75C11.75 8.198 12.198 7.75 12.75 7.75H16V6.25H14.25V4.5H12.75V6.25Z" fill="#202022"/>
<path id="Vector_2" d="M6.75 1.25H20.25V19.75H6.75V1.25ZM8.25 2.75V18.25H18.75V2.75H8.25Z" fill="#202022"/>
<path id="Vector_3" d="M5.25 21.25V5H3.75V22.75H16.5V21.25H5.25Z" fill="#202022"/>
</g>
</svg>
