<svg width="24" height="24" viewBox="0 0 24 24" fill="none" xmlns="http://www.w3.org/2000/svg">
<g id="Type=Outline">
<path id="Vector" d="M3.5 11.875C3.5 7.319 7.194 3.625 11.75 3.625C15.483 3.625 18.638 6.105 19.655 9.507C20.279 9.654 20.859 9.917 21.369 10.273C20.605 5.65 16.589 2.125 11.75 2.125C6.365 2.125 2 6.49 2 11.875C2 17.26 6.365 21.625 11.75 21.625C12.674 21.625 13.569 21.496 14.416 21.256C14.123 20.841 13.891 20.38 13.735 19.885C13.099 20.042 12.434 20.125 11.75 20.125C7.194 20.125 3.5 16.431 3.5 11.875Z" fill="#202022"/>
<path id="Vector_2" d="M15.153 19.393C15.302 19.885 15.557 20.331 15.891 20.705C16.533 21.423 17.466 21.875 18.506 21.875C20.358 21.875 21.874 20.44 22 18.625H20.491C20.37 19.611 19.527 20.375 18.506 20.375C18.029 20.375 17.59 20.208 17.246 19.929C16.855 19.612 16.586 19.15 16.521 18.625H18.76V17.125H16.506V15.625H18.76V14.125H16.521C16.643 13.139 17.485 12.375 18.506 12.375C19.062 12.375 19.566 12.602 19.928 12.968C20.058 13.1 20.17 13.249 20.26 13.412C20.371 13.615 20.449 13.839 20.484 14.077C20.486 14.093 20.489 14.109 20.49 14.125H21.999C21.958 13.539 21.773 12.992 21.478 12.521C21.118 11.945 20.594 11.481 19.972 11.195C19.526 10.99 19.029 10.875 18.506 10.875C16.654 10.875 15.138 12.309 15.012 14.125H13.751V15.625H15.003V17.125H13.751V18.625H15.012C15.03 18.89 15.078 19.147 15.153 19.393Z" fill="#202022"/>
<path id="Vector_3" d="M11 11.125V5.875H12.5V12.625H5.75V11.125H11Z" fill="#202022"/>
</g>
</svg>
