<svg width="24" height="24" viewBox="0 0 24 24" fill="none" xmlns="http://www.w3.org/2000/svg">
<g id="Type=Filled">
<path id="Vector" d="M1.508 11.125C1.508 16.51 5.873 20.875 11.258 20.875C11.768 20.875 12.269 20.836 12.758 20.76V13.375H14.322C15.03 11.476 16.859 10.125 19.004 10.125C19.71 10.125 20.381 10.271 20.99 10.535C20.685 5.425 16.444 1.375 11.258 1.375C5.873 1.375 1.508 5.74 1.508 11.125ZM10.508 10.375V5.125H12.008V11.875H5.258V10.375H10.508ZM15.508 16.375H14.258V14.875H15.516C15.642 13.059 17.155 11.625 19.004 11.625C20.853 11.625 22.365 13.06 22.492 14.875H20.986C20.865 13.889 20.024 13.125 19.005 13.125C17.986 13.125 17.145 13.889 17.024 14.875H19.259V16.375H17.009V17.875H19.259V19.375H17.024C17.145 20.361 17.986 21.125 19.005 21.125C20.024 21.125 20.865 20.361 20.986 19.375H22.492C22.366 21.19 20.853 22.625 19.004 22.625C17.155 22.625 15.643 21.191 15.516 19.375H14.257V17.875H15.507V16.375H15.508Z" fill="#202022"/>
</g>
</svg>
