<svg width="24" height="24" viewBox="0 0 24 24" fill="none" xmlns="http://www.w3.org/2000/svg">
<g id="Type=Outline">
<path id="Vector" d="M2.86002 11.875C2.86002 7.319 6.55402 3.625 11.11 3.625C15.525 3.625 19.131 7.094 19.35 11.455L20.712 10.169C19.905 5.598 15.913 2.125 11.111 2.125C5.72602 2.125 1.36102 6.49 1.36102 11.875C1.36102 17.26 5.72602 21.625 11.111 21.625C12.066 21.625 12.989 21.488 13.861 21.232V19.656C13.001 19.96 12.075 20.126 11.111 20.126C6.55502 20.126 2.86102 16.432 2.86102 11.876L2.86002 11.875Z" fill="#202022"/>
<path id="Vector_2" d="M10.36 11.125V5.875H11.86V12.625H5.10999V11.125H10.36Z" fill="#202022"/>
<path id="Vector_3" d="M14.08 12.405L15.141 11.344L18.361 14.564L21.581 11.344L22.642 12.405L19.672 15.375H21.361V16.875H19.111V18.375H21.361V19.875H19.111V21.875H17.611V19.875H15.361V18.375H17.611V16.875H15.361V15.375H17.05L14.08 12.405Z" fill="#202022"/>
</g>
</svg>
