<svg width="24" height="24" viewBox="0 0 24 24" fill="none" xmlns="http://www.w3.org/2000/svg">
<g id="Type=Filled">
<path id="Vector" d="M1.5 12C1.5 6.201 6.201 1.5 12 1.5C17.799 1.5 22.5 6.201 22.5 12C22.5 17.799 17.799 22.5 12 22.5C6.201 22.5 1.5 17.799 1.5 12ZM12.75 7.5V6H11.25V7.527C9.978 7.709 9 8.803 9 10.125C9 11.575 10.175 12.75 11.625 12.75H12.375C12.996 12.75 13.5 13.254 13.5 13.875C13.5 14.496 12.996 15 12.375 15H9.75V16.5H11.25V18H12.75V16.473C14.022 16.291 15 15.197 15 13.875C15 12.425 13.825 11.25 12.375 11.25H11.625C11.004 11.25 10.5 10.746 10.5 10.125C10.5 9.504 11.004 9 11.625 9H14.25V7.5H12.75Z" fill="#202022"/>
</g>
</svg>
