<svg width="24" height="24" viewBox="0 0 24 24" fill="none" xmlns="http://www.w3.org/2000/svg">
<g id="Type=Filled">
<path id="Vector" d="M1.875 11.75C1.875 6.365 6.24 2 11.625 2C16.495 2 20.531 5.571 21.258 10.237C20.657 9.926 19.974 9.75 19.25 9.75C16.834 9.75 14.875 11.709 14.875 14.125V14.5H13.625V21.295C12.979 21.43 12.31 21.5 11.625 21.5C6.24 21.5 1.875 17.135 1.875 11.75ZM10.875 5.75V11H5.625V12.5H12.375V5.75H10.875Z" fill="#202022"/>
<path id="Vector_2" d="M19.25 11.25C20.087 11.25 20.84 11.607 21.365 12.178C21.837 12.69 22.124 13.374 22.124 14.125V14.75H20.624V14.125C20.624 13.366 20.008 12.75 19.249 12.75C18.49 12.75 17.874 13.366 17.874 14.125V16H20.124V17.5H17.874V19.25C17.874 19.7 17.766 20.125 17.574 20.5H22.124V22H15.124V20.5C15.814 20.5 16.374 19.94 16.374 19.25V17.5H15.124V16H16.374V14.125C16.374 12.537 17.662 11.25 19.25 11.25Z" fill="#202022"/>
</g>
</svg>
