<svg width="24" height="24" viewBox="0 0 24 24" fill="none" xmlns="http://www.w3.org/2000/svg">
<g id="Type=Filled">
<path id="Vector" d="M10.845 1.61001C5.45997 1.61001 1.09497 5.97501 1.09497 11.36C1.09497 16.745 5.45997 21.11 10.845 21.11C11.996 21.11 13.1 20.911 14.125 20.544V14.822L12.223 12.92L15.405 9.73801L18.625 12.958L20.588 10.995C20.396 5.77901 16.107 1.60901 10.845 1.60901V1.61001ZM10.095 10.61V5.36001H11.595V12.11H4.84497V10.61H10.095Z" fill="#202022"/>
<path id="Vector_2" d="M18.625 15.08L15.405 11.86L14.344 12.921L17.314 15.891H15.625V17.391H17.875V18.891H15.625V20.391H17.875V22.391H19.375V20.391H21.625V18.891H19.375V17.391H21.625V15.891H19.936L22.906 12.921L21.845 11.86L18.625 15.08Z" fill="#202022"/>
</g>
</svg>
