<svg width="24" height="24" viewBox="0 0 24 24" fill="none" xmlns="http://www.w3.org/2000/svg">
<g id="Type=Filled">
<path id="Vector" d="M18 1.11096V17.555H6V1.11096H18ZM13.559 6.11096H15.337V4.77796H8.663V6.11096H8.67V6.11396H10.895C11.765 6.11396 12.506 6.67096 12.78 7.44696H8.67V8.77996H12.779C12.504 9.55496 11.764 10.11 10.895 10.11H8.67V11.328L12.709 14.417L13.519 13.358L11.012 11.441C12.571 11.387 13.857 10.262 14.159 8.77996H15.336V7.44696H14.16C14.06 6.95296 13.85 6.49896 13.558 6.10996L13.559 6.11096Z" fill="#202022"/>
<path id="Vector_2" d="M4.66698 18.8889V4.44495H3.33398V20.2229H14.667V18.8899L4.66698 18.8889Z" fill="#202022"/>
</g>
</svg>
