<svg width="24" height="24" viewBox="0 0 24 24" fill="none" xmlns="http://www.w3.org/2000/svg">
<g id="Type=Filled">
<path id="Vector" d="M20.25 1.25H6.75V19.75H20.25V1.25ZM14.25 4.5V6.25H16V7.75H12.75C12.198 7.75 11.75 8.198 11.75 8.75C11.75 9.302 12.198 9.75 12.75 9.75H14.25C15.631 9.75 16.75 10.869 16.75 12.25C16.75 13.631 15.631 14.75 14.25 14.75V16.5H12.75V14.75H11V13.25H14.25C14.802 13.25 15.25 12.802 15.25 12.25C15.25 11.698 14.802 11.25 14.25 11.25H12.75C11.369 11.25 10.25 10.131 10.25 8.75C10.25 7.369 11.369 6.25 12.75 6.25V4.5H14.25Z" fill="#202022"/>
<path id="Vector_2" d="M5.25 21.25V5H3.75V22.75H16.5V21.25H5.25Z" fill="#202022"/>
</g>
</svg>
