<svg width="24" height="24" viewBox="0 0 24 24" fill="none" xmlns="http://www.w3.org/2000/svg">
<g id="Type=Filled">
<path id="Vector" d="M20.25 1.25V19.75H6.75V1.25H20.25ZM5.25 21.25V5H3.75V22.75H16.5V21.25H5.25ZM14.125 5.125C12.537 5.125 11.25 6.412 11.25 8V9.875H10V11.375H11.25V13.125C11.25 13.815 10.69 14.375 10 14.375V15.875H17V14.375H12.45C12.642 14 12.75 13.575 12.75 13.125V11.375H15V9.875H12.75V8C12.75 7.241 13.366 6.625 14.125 6.625C14.884 6.625 15.5 7.241 15.5 8V8.625H17V8C17 6.412 15.713 5.125 14.125 5.125Z" fill="#202022"/>
</g>
</svg>
