<svg width="24" height="24" viewBox="0 0 24 24" fill="none" xmlns="http://www.w3.org/2000/svg">
<g id="Type=Outline">
<path id="Vector" d="M14.125 5C12.537 5 11.25 6.287 11.25 7.875V9.75H10V11.25H11.25V13C11.25 13.69 10.69 14.25 10 14.25V15.75H17V14.25H12.45C12.642 13.875 12.75 13.45 12.75 13V11.25H15V9.75H12.75V7.875C12.75 7.116 13.366 6.5 14.125 6.5C14.884 6.5 15.5 7.116 15.5 7.875V8.5H17V7.875C17 6.287 15.713 5 14.125 5Z" fill="#202022"/>
<path id="Vector_2" d="M6.75 1.25H20.25V19.75H6.75V1.25ZM8.25 2.75V18.25H18.75V2.75H8.25Z" fill="#202022"/>
<path id="Vector_3" d="M5.25 21.25V5H3.75V22.75H16.5V21.25H5.25Z" fill="#202022"/>
</g>
</svg>
