<svg width="24" height="24" viewBox="0 0 24 24" fill="none" xmlns="http://www.w3.org/2000/svg">
<g id="Type=Outline">
<path id="Vector" d="M12 9.75H14.25V8.25H12.015C12.136 7.264 12.977 6.5 13.996 6.5C15.015 6.5 15.856 7.264 15.977 8.25H17.483C17.357 6.435 15.844 5 13.995 5C12.146 5 10.634 6.434 10.507 8.25H9.24799V9.75H10.498V11.25H9.24799V12.75H10.507C10.633 14.566 12.147 16 13.995 16C15.843 16 17.356 14.565 17.483 12.75H15.977C15.856 13.736 15.015 14.5 13.996 14.5C12.977 14.5 12.136 13.736 12.015 12.75H14.25V11.25H12V9.75Z" fill="#202022"/>
<path id="Vector_2" d="M6.75 1.25H20.25V19.75H6.75V1.25ZM8.25 2.75V18.25H18.75V2.75H8.25Z" fill="#202022"/>
<path id="Vector_3" d="M5.25 21.25V5H3.75V22.75H16.5V21.25H5.25Z" fill="#202022"/>
</g>
</svg>
