<svg width="24" height="24" viewBox="0 0 24 24" fill="none" xmlns="http://www.w3.org/2000/svg">
<g id="Paystub Dollar">
<path id="Vector" d="M12.75 4.875V2.625H11.25V4.875H10.75C9.093 4.875 7.75 6.218 7.75 7.875C7.75 9.532 9.093 10.875 10.75 10.875H13.25C14.078 10.875 14.75 11.547 14.75 12.375C14.75 13.203 14.078 13.875 13.25 13.875H8.5V15.375H11.25V17.625H12.75V15.375H13.25C14.907 15.375 16.25 14.032 16.25 12.375C16.25 10.718 14.907 9.375 13.25 9.375H10.75C9.922 9.375 9.25 8.703 9.25 7.875C9.25 7.047 9.922 6.375 10.75 6.375H15.5V4.875H12.75Z" fill="#202022"/>
<path id="Vector_2" d="M4.75 16.625H3.25V21.375H20.75V16.625H19.25V19.875H4.75V16.625Z" fill="#202022"/>
</g>
</svg>
