<svg width="24" height="24" viewBox="0 0 24 24" fill="none" xmlns="http://www.w3.org/2000/svg">
<g id="Paystub Pound">
<path id="Vector" d="M12.726 3.25C10.708 3.25 9.073 4.886 9.073 6.903V9.25H7.5V10.75H9.073V13.677C9.073 14.546 8.369 15.25 7.5 15.25V16.75H16.5V15.25H10.14C10.415 14.79 10.572 14.252 10.572 13.677V10.75H13.499V9.25H10.572V6.903C10.572 5.714 11.536 4.75 12.725 4.75C13.914 4.75 14.878 5.714 14.878 6.903V7H16.378V6.903C16.378 4.885 14.743 3.25 12.726 3.25Z" fill="#202022"/>
<path id="Vector_2" d="M4.75 16H3.25V20.75H20.75V16H19.25V19.25H4.75V16Z" fill="#202022"/>
</g>
</svg>
