<svg width="24" height="24" viewBox="0 0 24 24" fill="none" xmlns="http://www.w3.org/2000/svg">
<g id="Paystub Euro">
<path id="Vector" d="M7.25 7.744C7.25 5.124 9.374 3 11.994 3C14.617 3 16.742 5.128 16.738 7.75H15.238C15.241 5.956 13.788 4.5 11.994 4.5C10.202 4.5 8.75 5.953 8.75 7.744V7.866H12.5V9.366H8.75V11.328H12.5V12.828H8.8C9.07 14.347 10.397 15.5 11.994 15.5C13.551 15.5 14.85 14.404 15.165 12.942H16.689C16.357 15.236 14.382 17 11.994 17C9.568 17 7.567 15.178 7.284 12.828H5V11.328H7.25V9.366H5V7.866H7.25V7.744Z" fill="#202022"/>
<path id="Vector_2" d="M4.75 16.25H3.25V21H20.75V16.25H19.25V19.5H4.75V16.25Z" fill="#202022"/>
</g>
</svg>
