<svg width="24" height="24" viewBox="0 0 24 24" fill="none" xmlns="http://www.w3.org/2000/svg">
<g id="Type=Filled">
<path id="Vector" d="M3.5 11.75H5.25C5.94 11.75 6.5 11.19 6.5 10.5C6.5 9.81 5.94 9.25 5.25 9.25H3.5V11.75Z" fill="#202022"/>
<path id="Vector_2" d="M10.5 14.75V9.25H10.75C12.269 9.25 13.5 10.481 13.5 12C13.5 13.519 12.269 14.75 10.75 14.75H10.5Z" fill="#202022"/>
<path id="Vector_3" d="M0 4V20H24V4H0ZM2 7.75H5.25C6.769 7.75 8 8.981 8 10.5C8 12.019 6.769 13.25 5.25 13.25H3.5V16.25H2V7.75ZM16.25 7.75H22V9.25H17.75V11.25H20V12.75H17.75V16.25H16.25V7.75ZM10.75 7.75C13.097 7.75 15 9.653 15 12C15 14.347 13.097 16.25 10.75 16.25H9V7.75H10.75Z" fill="#202022"/>
</g>
</svg>
