<svg width="24" height="24" viewBox="0 0 24 24" fill="none" xmlns="http://www.w3.org/2000/svg">
<g id="Type=Filled">
<path id="Vector" d="M12.016 12.872C12.868 13.456 13.522 14.49 13.711 15.75H10.322C10.511 14.49 11.165 13.456 12.017 12.872H12.016Z" fill="#202022"/>
<path id="Vector_2" d="M10.321 8.25C10.51 9.51 11.164 10.544 12.016 11.128C12.868 10.544 13.522 9.51 13.711 8.25H10.321Z" fill="#202022"/>
<path id="Vector_3" d="M1.75 12C1.75 17.661 6.339 22.25 12 22.25C17.661 22.25 22.25 17.661 22.25 12C22.25 6.339 17.661 1.75 12 1.75C6.339 1.75 1.75 6.339 1.75 12ZM8.809 8.25H7.5V6.75H16.531V8.25H15.223C15.049 9.755 14.36 11.099 13.334 12C14.36 12.901 15.049 14.245 15.223 15.75H16.531V17.25H7.5V15.75H8.809C8.982 14.245 9.672 12.901 10.698 12C9.672 11.099 8.983 9.755 8.809 8.25Z" fill="#202022"/>
</g>
</svg>
