<svg width="24" height="24" viewBox="0 0 24 24" fill="none" xmlns="http://www.w3.org/2000/svg">
<g id="Type=Outline" clip-path="url(#clip0_4556_2597)">
<path id="Vector" d="M4.709 4.12401C4.709 1.89201 6.518 0.0830078 8.75 0.0830078C10.982 0.0830078 12.791 1.89201 12.791 4.12401C12.791 5.16401 12.397 6.11401 11.751 6.83001C11.253 7.38201 10.963 7.85801 10.963 8.31201V9.57001H13.563C14.729 9.57001 15.751 10.184 16.324 11.106C15.784 11.199 15.265 11.351 14.773 11.557C14.459 11.256 14.032 11.071 13.563 11.071H3.938C2.972 11.071 2.188 11.854 2.188 12.821V12.902H12.669C12.179 13.351 11.75 13.866 11.398 14.433H3.65V15.777C3.65 15.915 3.762 16.027 3.9 16.027H10.66C10.505 16.507 10.399 17.009 10.348 17.527H3.9C2.934 17.527 2.15 16.744 2.15 15.777V14.402H0.686996V12.821C0.686996 11.026 2.142 9.57101 3.937 9.57101H6.537V8.31301C6.537 7.85901 6.247 7.38301 5.749 6.83101C5.103 6.11501 4.709 5.16401 4.709 4.12401ZM8.75 1.58401C7.347 1.58401 6.209 2.72101 6.209 4.12501C6.209 4.78001 6.456 5.37501 6.863 5.82601C7.382 6.40101 8.038 7.24901 8.038 8.31301V9.57101H9.463V8.31301C9.463 7.24901 10.119 6.40101 10.638 5.82601C11.045 5.37501 11.292 4.78001 11.292 4.12501C11.292 2.72201 10.155 1.58401 8.751 1.58401H8.75Z" fill="#202022"/>
<path id="Vector_2" d="M13.263 14.432C14.157 13.425 15.4 12.735 16.802 12.55C17.051 12.517 17.305 12.5 17.563 12.5C20.739 12.5 23.313 15.074 23.313 18.25C23.313 21.426 20.739 24 17.563 24C14.387 24 11.813 21.426 11.813 18.25C11.813 18.005 11.828 17.763 11.858 17.526C11.924 17.001 12.061 16.497 12.259 16.026C12.505 15.439 12.847 14.9 13.263 14.432ZM18.312 17.5V14.219H16.812V19H21.484V17.5H18.312Z" fill="#202022"/>
</g>
<defs>
<clipPath id="clip0_4556_2597">
<rect width="24" height="24" fill="white"/>
</clipPath>
</defs>
</svg>
