<svg width="24" height="24" viewBox="0 0 24 24" fill="none" xmlns="http://www.w3.org/2000/svg">
<g id="Type=Filled" clip-path="url(#clip0_4556_2593)">
<path id="Vector" d="M11.194 5.91102C10.685 6.47502 10.213 7.13602 10.213 7.89502V9.15302H13.563C14.729 9.15302 15.751 9.76702 16.324 10.689C14.258 11.045 12.491 12.275 11.418 13.984H0.688004V12.403C0.688004 10.608 2.143 9.15302 3.938 9.15302H7.288V7.89502C7.288 7.13602 6.815 6.47402 6.307 5.91102C5.781 5.32802 5.46 4.55502 5.46 3.70702C5.46 1.89002 6.933 0.416016 8.751 0.416016C10.569 0.416016 12.042 1.88902 12.042 3.70702C12.042 4.55502 11.721 5.32702 11.194 5.91102Z" fill="#202022"/>
<path id="Vector_2" d="M13.291 13.984C14.183 12.995 15.414 12.317 16.802 12.133C17.051 12.1 17.305 12.083 17.563 12.083C20.739 12.083 23.313 14.657 23.313 17.833C23.313 21.009 20.739 23.583 17.563 23.583C14.492 23.583 11.984 21.176 11.821 18.145C11.815 18.041 11.813 17.937 11.813 17.833C11.813 17.029 11.978 16.263 12.277 15.567C12.528 14.983 12.872 14.449 13.292 13.983L13.291 13.984ZM18.312 17.083V13.802H16.812V18.583H21.484V17.083H18.312Z" fill="#202022"/>
<path id="Vector_3" d="M10.674 15.568C10.44 16.281 10.313 17.042 10.313 17.834C10.313 17.939 10.315 18.043 10.32 18.146H3.901C2.935 18.146 2.151 17.363 2.151 16.396V15.568H10.674Z" fill="#202022"/>
</g>
<defs>
<clipPath id="clip0_4556_2593">
<rect width="24" height="24" fill="white"/>
</clipPath>
</defs>
</svg>
