<svg width="24" height="24" viewBox="0 0 24 24" fill="none" xmlns="http://www.w3.org/2000/svg">
<g id="Type=Outline">
<path id="Vector" d="M5.775 3.75C6.004 7.227 7.814 10.257 10.467 12C7.814 13.743 6.004 16.773 5.775 20.25H4V21.75H20V20.25H18.225C17.996 16.773 16.186 13.743 13.533 12C16.186 10.257 17.996 7.227 18.225 3.75H20V2.25H4V3.75H5.775ZM12 12.837C14.6 14.195 16.472 16.965 16.722 20.25H7.279C7.528 16.965 9.401 14.195 12.001 12.837H12ZM8.496 7.75H15.503C14.661 9.22 13.442 10.409 11.999 11.163C10.556 10.409 9.337 9.22 8.495 7.75H8.496ZM7.807 6.25C7.527 5.465 7.345 4.626 7.279 3.75H16.722C16.656 4.626 16.474 5.465 16.194 6.25H7.807Z" fill="#202022"/>
</g>
</svg>
