<svg width="24" height="24" viewBox="0 0 24 24" fill="none" xmlns="http://www.w3.org/2000/svg">
<g id="Type=Outline">
<path id="Vector" d="M16.531 8.25V6.75H7.5V8.25H8.809C8.982 9.755 9.672 11.099 10.698 12C9.672 12.901 8.983 14.245 8.809 15.75H7.5V17.25H16.531V15.75H15.223C15.049 14.245 14.36 12.901 13.334 12C14.36 11.099 15.049 9.755 15.223 8.25H16.531ZM10.321 15.75C10.51 14.49 11.164 13.456 12.016 12.872C12.868 13.456 13.522 14.49 13.711 15.75H10.321ZM12.016 11.128C11.164 10.544 10.51 9.51 10.321 8.25H13.71C13.521 9.51 12.868 10.544 12.016 11.128Z" fill="#202022"/>
<path id="Vector_2" d="M1.75 12C1.75 6.339 6.339 1.75 12 1.75C17.661 1.75 22.25 6.339 22.25 12C22.25 17.661 17.661 22.25 12 22.25C6.339 22.25 1.75 17.661 1.75 12ZM12 3.25C7.168 3.25 3.25 7.168 3.25 12C3.25 16.832 7.168 20.75 12 20.75C16.833 20.75 20.75 16.832 20.75 12C20.75 7.168 16.832 3.25 12 3.25Z" fill="#202022"/>
</g>
</svg>
