<svg width="24" height="24" viewBox="0 0 24 24" fill="none" xmlns="http://www.w3.org/2000/svg">
<g id="Type=Filled">
<path id="Vector" d="M17.5 10.5C17.5 9.672 18.172 9 19 9C19.828 9 20.5 9.672 20.5 10.5V13.5C20.5 14.328 19.828 15 19 15C18.172 15 17.5 14.328 17.5 13.5V10.5Z" fill="#202022"/>
<path id="Vector_2" d="M5.25 11.75H3.5V9.25H5.25C5.94 9.25 6.5 9.81 6.5 10.5C6.5 11.19 5.94 11.75 5.25 11.75Z" fill="#202022"/>
<path id="Vector_3" d="M24 4V20H0V4H24ZM19 7.5C17.343 7.5 16 8.843 16 10.5V13.5C16 15.157 17.343 16.5 19 16.5C20.657 16.5 22 15.157 22 13.5V10.5C22 8.843 20.657 7.5 19 7.5ZM5.25 7.75H2V16.25H3.5V13.25H5.25C6.769 13.25 8 12.019 8 10.5C8 8.981 6.769 7.75 5.25 7.75ZM9.25 7.75V16.25H15V14.75H10.75V12.756L13.002 12.75L12.998 11.25L10.75 11.256V9.25H15V7.75H9.25Z" fill="#202022"/>
</g>
</svg>
