<svg width="24" height="24" viewBox="0 0 24 24" fill="none" xmlns="http://www.w3.org/2000/svg">
<g id="Percent Mini">
<path id="Vector" d="M3.75 6C3.75 3.929 5.429 2.25 7.5 2.25C9.571 2.25 11.25 3.929 11.25 6C11.25 8.071 9.571 9.75 7.5 9.75C5.429 9.75 3.75 8.071 3.75 6Z" fill="#202022"/>
<path id="Vector_2" d="M12.75 18C12.75 15.929 14.429 14.25 16.5 14.25C18.571 14.25 20.25 15.929 20.25 18C20.25 20.071 18.571 21.75 16.5 21.75C14.429 21.75 12.75 20.071 12.75 18Z" fill="#202022"/>
<path id="Vector_3" d="M19.189 2.689L2.68903 19.189L4.81003 21.31L21.31 4.81L19.189 2.689Z" fill="#202022"/>
</g>
</svg>
