<svg width="24" height="24" viewBox="0 0 24 24" fill="none" xmlns="http://www.w3.org/2000/svg">
<g id="Type=Filled">
<path id="Vector" d="M3.5 6.25C3.5 4.317 5.067 2.75 7 2.75C8.933 2.75 10.5 4.317 10.5 6.25C10.5 8.183 8.933 9.75 7 9.75C5.067 9.75 3.5 8.183 3.5 6.25Z" fill="#202022"/>
<path id="Vector_2" d="M13.5 17.75C13.5 15.817 15.067 14.25 17 14.25C18.933 14.25 20.5 15.817 20.5 17.75C20.5 19.683 18.933 21.25 17 21.25C15.067 21.25 13.5 19.683 13.5 17.75Z" fill="#202022"/>
<path id="Vector_3" d="M19.97 2.96997L2.99902 19.941L4.06002 21.002L21.031 4.03097L19.97 2.96997Z" fill="#202022"/>
</g>
</svg>
