<svg width="24" height="24" viewBox="0 0 24 24" fill="none" xmlns="http://www.w3.org/2000/svg">
<g id="Philippine Peso">
<path id="Vector" d="M11.625 4.5H6.75V7.125H4.5V8.625H6.75V10.875H4.5V12.375H6.75V20.25H8.25V15H11.625C13.568 15 15.265 13.944 16.173 12.375H19.125V10.875H16.754C16.833 10.513 16.875 10.136 16.875 9.75C16.875 9.364 16.833 8.987 16.754 8.625H19.125V7.125H16.173C15.265 5.556 13.568 4.5 11.625 4.5ZM8.25 6H11.625C12.674 6 13.622 6.431 14.303 7.125H8.25V6ZM8.25 12.375H14.303C13.623 13.069 12.674 13.5 11.625 13.5H8.25V12.375ZM15.203 10.875H8.25V8.625H15.203C15.315 8.98 15.375 9.358 15.375 9.75C15.375 10.142 15.315 10.52 15.203 10.875Z" fill="#202022"/>
</g>
</svg>
