<svg width="24" height="24" viewBox="0 0 24 24" fill="none" xmlns="http://www.w3.org/2000/svg">
<g id="Type=Outlined">
<path id="Vector" d="M12.083 13.547C12.911 13.547 13.583 12.875 13.583 12.047C13.583 11.219 12.911 10.547 12.083 10.547C11.255 10.547 10.583 11.219 10.583 12.047C10.583 12.875 11.255 13.547 12.083 13.547Z" fill="#202022"/>
<path id="Vector_2" d="M7.50598 1.203L6.21098 7.298H1.33398V22.798H16.834V19.032L19.445 19.587L22.668 4.426L7.50598 1.203ZM7.74398 7.297L8.66098 2.981L20.888 5.58L18.289 17.807L16.833 17.498V7.297H7.74398ZM2.83298 21.297V19.86L7.63898 15.105L13.831 21.297H2.83298ZM7.64498 12.99L2.83298 17.751V8.798H15.333V20.678L7.64498 12.99Z" fill="#202022"/>
</g>
</svg>
