<svg width="24" height="24" viewBox="0 0 24 24" fill="none" xmlns="http://www.w3.org/2000/svg">
<g id="Type=Outline">
<g id="Shape">
<path fill-rule="evenodd" clip-rule="evenodd" d="M12.7305 1.24126L12.0257 0.984741L11.7326 2.12195C8.8896 1.40244 5.90736 2.93914 4.88273 5.75427C3.78982 8.75703 5.33805 12.0772 8.34082 13.1701C11.3436 14.2631 14.6638 12.7148 15.7567 9.71206C16.2432 8.37538 16.2063 6.97579 15.7508 5.73777L16.7874 5.3508L16.4711 4.67133C15.7555 3.13375 14.4511 1.8675 12.7305 1.24126ZM6.29227 6.2673C7.05028 4.18468 9.25467 3.04662 11.3582 3.57461L10.2736 7.78244L14.3455 6.26238C14.6804 7.17764 14.7066 8.21151 14.3472 9.19903C13.5376 11.4233 11.0781 12.5702 8.85385 11.7606C6.62955 10.951 5.4827 8.49159 6.29227 6.2673Z" fill="#202022"/>
<path d="M12.9675 20.043L20.0603 13.0177L19.0047 11.952L12.9726 17.9268L10.47 15.4242L3.9397 21.9546L5.00036 23.0152L10.47 17.5455L12.9675 20.043Z" fill="#202022"/>
</g>
</g>
</svg>
