<svg width="24" height="24" viewBox="0 0 24 24" fill="none" xmlns="http://www.w3.org/2000/svg">
<g id="Type=Filled">
<g id="Shape">
<path d="M16.7647 3.93812C16.1345 2.62019 15.0154 1.53503 13.5456 0.97876L12.3589 5.58288L16.7647 3.93812Z" fill="#202022"/>
<path d="M4.88277 5.76032C5.90375 2.95521 8.86845 1.41944 11.7023 2.12041L10.1883 7.99429L15.805 5.89753C16.2085 7.09697 16.2232 8.43646 15.7567 9.71811C14.6638 12.7209 11.3436 14.2691 8.34086 13.1762C5.33809 12.0833 3.78986 8.76308 4.88277 5.76032Z" fill="#202022"/>
<path d="M12.9675 20.0489L20.0603 13.0237L19.0047 11.9579L12.9726 17.9327L10.47 15.4301L3.9397 21.9605L5.00036 23.0211L10.47 17.5514L12.9675 20.0489Z" fill="#202022"/>
</g>
</g>
</svg>
