<svg width="24" height="24" viewBox="0 0 24 24" fill="none" xmlns="http://www.w3.org/2000/svg">
<g id="Plaid">
<path id="Vector" d="M10.057 2.5L4.15802 4.045L2.53202 9.977L4.56502 12.064L2.49902 14.117L4.02902 20.075L9.90202 21.716L11.968 19.663L14.001 21.75L19.9 20.205L21.525 14.273L19.492 12.186L21.558 10.133L20.028 4.175L14.154 2.534L12.088 4.587L10.055 2.5H10.057ZM6.43702 5.186L9.54402 4.372L10.903 5.767L8.92102 7.736L6.43702 5.186ZM13.259 5.785L14.64 4.413L17.734 5.278L15.209 7.787L13.259 5.785ZM4.39402 9.49L5.25002 6.366L7.73402 8.916L5.75302 10.885L4.39502 9.491L4.39402 9.49ZM16.376 8.986L18.901 6.476L19.706 9.615L18.326 10.987L16.376 8.986ZM10.09 8.934L12.072 6.965L14.021 8.967L12.04 10.936L10.09 8.934ZM6.92102 12.083L8.90202 10.114L10.852 12.116L8.87002 14.085L6.92002 12.084L6.92102 12.083ZM13.207 12.135L15.188 10.166L17.138 12.168L15.156 14.137L13.207 12.135ZM4.35302 14.635L5.73402 13.262L7.68302 15.264L5.15902 17.772L4.35302 14.634V14.635ZM10.039 15.283L12.021 13.314L13.971 15.315L11.99 17.284L10.04 15.282L10.039 15.283ZM16.325 15.335L18.307 13.366L19.666 14.761L18.81 17.885L16.325 15.335ZM6.32702 18.972L8.85202 16.462L10.802 18.463L9.42102 19.836L6.32702 18.972ZM13.156 18.483L15.137 16.514L17.621 19.064L14.514 19.878L13.156 18.483Z" fill="#202022"/>
</g>
</svg>
