<svg width="24" height="24" viewBox="0 0 24 24" fill="none" xmlns="http://www.w3.org/2000/svg">
<g id="Platform">
<path id="Vector" d="M17.35 10.138V5.321L12.017 2.25L6.687 5.321V10.121L2.5 12.531V18.679L7.833 21.75L12 19.35L16.17 21.75L21.5 18.679V12.538L17.35 10.138ZM9.002 6.652L12.017 4.916L15.035 6.652V10.114L11.993 11.857L8.989 10.128L9.003 6.653L9.002 6.652ZM4.815 17.331V13.856L7.833 12.12L10.837 13.849V17.331L7.833 19.063L4.815 17.331ZM19.185 17.331L16.17 19.067L13.162 17.334V13.862L16.18 12.126L19.185 13.855V17.331Z" fill="#202022"/>
</g>
</svg>
