<svg width="24" height="24" viewBox="0 0 24 24" fill="none" xmlns="http://www.w3.org/2000/svg">
<g id="Type=Filled">
<path id="Vector" d="M1.75 12C1.75 6.339 6.339 1.75 12 1.75C17.661 1.75 22.25 6.339 22.25 12C22.25 17.661 17.661 22.25 12 22.25C6.339 22.25 1.75 17.661 1.75 12ZM12.5 5.5C10.705 5.5 9.25 6.955 9.25 8.75V11H8V12.5H9.25V14.75C9.25 15.44 8.69 16 8 16V17.5H15.75V16H10.45C10.642 15.625 10.75 15.2 10.75 14.75V12.5H13.5V11H10.75V8.75C10.75 7.784 11.533 7 12.5 7C13.467 7 14.25 7.783 14.25 8.75V9.25H15.75V8.75C15.75 6.955 14.295 5.5 12.5 5.5Z" fill="#202022"/>
</g>
</svg>
