<svg width="24" height="24" viewBox="0 0 24 24" fill="none" xmlns="http://www.w3.org/2000/svg">
<g id="Type=Outline">
<path id="Vector" d="M12.5 5.75C10.705 5.75 9.25 7.205 9.25 9V11.25H8V12.75H9.25V15C9.25 15.69 8.69 16.25 8 16.25V17.75H15.75V16.25H10.45C10.642 15.875 10.75 15.45 10.75 15V12.75H13.5V11.25H10.75V9C10.75 8.034 11.533 7.25 12.5 7.25C13.467 7.25 14.25 8.033 14.25 9V9.5H15.75V9C15.75 7.205 14.295 5.75 12.5 5.75Z" fill="#202022"/>
<path id="Vector_2" d="M12 1.75C6.339 1.75 1.75 6.339 1.75 12C1.75 17.661 6.339 22.25 12 22.25C17.661 22.25 22.25 17.661 22.25 12C22.25 6.339 17.661 1.75 12 1.75ZM3.25 12C3.25 7.168 7.168 3.25 12 3.25C16.832 3.25 20.75 7.168 20.75 12C20.75 16.833 16.832 20.75 12 20.75C7.168 20.75 3.25 16.832 3.25 12Z" fill="#202022"/>
</g>
</svg>
