<svg width="25" height="24" viewBox="0 0 25 24" fill="none" xmlns="http://www.w3.org/2000/svg">
<g id="Power Button">
<path id="Vector" d="M11.25 12.625H12.75V1.625H11.25V12.625Z" fill="#202022"/>
<path id="Vector_2" d="M20.25 12.625C20.25 8.84899 17.713 5.66499 14.25 4.68599V3.13599C18.55 4.15199 21.75 8.01499 21.75 12.625C21.75 18.01 17.385 22.375 12 22.375C6.615 22.375 2.25 18.01 2.25 12.625C2.25 8.01499 5.45 4.15199 9.75 3.13599V4.68599C6.287 5.66499 3.75 8.84899 3.75 12.625C3.75 17.181 7.444 20.875 12 20.875C16.556 20.875 20.25 17.181 20.25 12.625Z" fill="#202022"/>
</g>
</svg>
