<svg width="24" height="24" viewBox="0 0 24 24" fill="none" xmlns="http://www.w3.org/2000/svg">
<g id="Type=Outline">
<path id="Vector" d="M4.875 8C4.875 5.515 6.89 3.5 9.375 3.5C11.86 3.5 13.875 5.515 13.875 8C13.875 10.485 11.86 12.5 9.375 12.5C6.89 12.5 4.875 10.485 4.875 8ZM9.375 5C7.718 5 6.375 6.343 6.375 8C6.375 9.657 7.718 11 9.375 11C11.032 11 12.375 9.657 12.375 8C12.375 6.343 11.032 5 9.375 5Z" fill="#202022"/>
<path id="Vector_2" d="M1.625 19.5C1.625 16.324 4.199 13.75 7.375 13.75H11.375C14.551 13.75 17.125 16.324 17.125 19.5V20.5H15.625V19.5C15.625 17.153 13.722 15.25 11.375 15.25H7.375C5.028 15.25 3.125 17.153 3.125 19.5V20.5H1.625V19.5Z" fill="#202022"/>
<path id="Vector_3" d="M15.375 12.75H22.375V11.25H15.375V12.75Z" fill="#202022"/>
</g>
</svg>
