<svg width="24" height="24" viewBox="0 0 24 24" fill="none" xmlns="http://www.w3.org/2000/svg">
<g id="Type=Outline">
<path id="Vector" d="M18.125 7.5V10.25H19.625V7.5H22.375V6H19.625V3.25H18.125V6H15.375V7.5H18.125Z" fill="#202022"/>
<path id="Vector_2" d="M9.375 3.75C6.89 3.75 4.875 5.765 4.875 8.25C4.875 10.735 6.89 12.75 9.375 12.75C11.86 12.75 13.875 10.735 13.875 8.25C13.875 5.765 11.86 3.75 9.375 3.75ZM6.375 8.25C6.375 6.593 7.718 5.25 9.375 5.25C11.032 5.25 12.375 6.593 12.375 8.25C12.375 9.907 11.032 11.25 9.375 11.25C7.718 11.25 6.375 9.907 6.375 8.25Z" fill="#202022"/>
<path id="Vector_3" d="M7.375 14C4.199 14 1.625 16.574 1.625 19.75V20.75H3.125V19.75C3.125 17.403 5.028 15.5 7.375 15.5H11.375C13.722 15.5 15.625 17.403 15.625 19.75V20.75H17.125V19.75C17.125 16.574 14.551 14 11.375 14H7.375Z" fill="#202022"/>
<path id="Vector_4" d="M15.375 13.5H22.375V12H15.375V13.5Z" fill="#202022"/>
</g>
</svg>
