<svg width="24" height="24" viewBox="0 0 24 24" fill="none" xmlns="http://www.w3.org/2000/svg">
<g id="Type=Filled">
<path id="Vector" d="M18.125 9.75V7H15.375V5.5H18.125V2.75H19.625V5.5H22.375V7H19.625V9.75H18.125Z" fill="#202022"/>
<path id="Vector_2" d="M15.375 13H22.375V11.5H15.375V13Z" fill="#202022"/>
<path id="Vector_3" d="M9.375 3.5C6.89 3.5 4.875 5.515 4.875 8C4.875 10.485 6.89 12.5 9.375 12.5C11.86 12.5 13.875 10.485 13.875 8C13.875 5.515 11.86 3.5 9.375 3.5Z" fill="#202022"/>
<path id="Vector_4" d="M7.375 13.75C4.199 13.75 1.625 16.324 1.625 19.5V21.25H17.125V19.5C17.125 16.324 14.551 13.75 11.375 13.75H7.375Z" fill="#202022"/>
</g>
</svg>
