<svg width="24" height="24" viewBox="0 0 24 24" fill="none" xmlns="http://www.w3.org/2000/svg">
<g id="Type=Outline">
<path id="Vector" d="M8.5 14.917C9.328 14.917 10 14.245 10 13.417C10 12.589 9.328 11.917 8.5 11.917C7.672 11.917 7 12.589 7 13.417C7 14.245 7.672 14.917 8.5 14.917Z" fill="#202022"/>
<path id="Vector_2" d="M17 13.417C17 14.245 16.328 14.917 15.5 14.917C14.672 14.917 14 14.245 14 13.417C14 12.589 14.672 11.917 15.5 11.917C16.328 11.917 17 12.589 17 13.417Z" fill="#202022"/>
<path id="Vector_3" d="M16.75 4.16699H7.25V10.167H16.75V4.16699ZM8.75 8.66699V5.66699H15.25V8.66699H8.75Z" fill="#202022"/>
<path id="Vector_4" d="M4.25 3.91699C4.25 2.39799 5.481 1.16699 7 1.16699H17C18.519 1.16699 19.75 2.39799 19.75 3.91699V14.917C19.75 16.436 18.519 17.667 17 17.667H16.402L19.291 22.001L18.043 22.833L16.599 20.667H7.401L5.957 22.833L4.709 22.001L7.598 17.667H7C5.481 17.667 4.25 16.436 4.25 14.917V3.91699ZM14.599 17.667H9.401L8.401 19.167H15.599L14.599 17.667ZM7 2.66699C6.31 2.66699 5.75 3.22699 5.75 3.91699V14.917C5.75 15.607 6.31 16.167 7 16.167H17C17.69 16.167 18.25 15.607 18.25 14.917V3.91699C18.25 3.22699 17.69 2.66699 17 2.66699H7Z" fill="#202022"/>
</g>
</svg>
