<svg width="24" height="24" viewBox="0 0 24 24" fill="none" xmlns="http://www.w3.org/2000/svg">
<g id="Type=Filled">
<path id="Vector" d="M7 1.16699H17C18.519 1.16699 19.75 2.39799 19.75 3.91699V14.917C19.75 16.436 18.519 17.667 17 17.667H16.402L19.291 22.001L18.043 22.833L16.599 20.667H7.401L5.957 22.833L4.709 22.001L7.598 17.667H7C5.481 17.667 4.25 16.436 4.25 14.917V3.91699C4.25 2.39799 5.481 1.16699 7 1.16699ZM15.599 19.167L14.599 17.667H9.401L8.401 19.167H15.599ZM17 3.91699H7V9.41699H17V3.91699ZM10 13.417C10 12.589 9.328 11.917 8.5 11.917C7.672 11.917 7 12.589 7 13.417C7 14.245 7.672 14.917 8.5 14.917C9.328 14.917 10 14.245 10 13.417ZM15.5 14.917C16.328 14.917 17 14.245 17 13.417C17 12.589 16.328 11.917 15.5 11.917C14.672 11.917 14 12.589 14 13.417C14 14.245 14.672 14.917 15.5 14.917Z" fill="#202022"/>
</g>
</svg>
