<svg width="24" height="24" viewBox="0 0 24 24" fill="none" xmlns="http://www.w3.org/2000/svg">
<g id="Pulley">
<path id="Vector" d="M13.596 10.27C13.596 9.51001 12.959 8.89301 12.173 8.89301H10.664V11.822H12.173C12.959 11.822 13.596 11.206 13.596 10.445V10.27Z" fill="#202022"/>
<path id="Vector_2" d="M2.625 1.5H21.375C21.996 1.5 22.5 2.004 22.5 2.625V21.375C22.5 21.996 21.996 22.5 21.375 22.5H2.625C2.004 22.5 1.5 21.996 1.5 21.375V2.625C1.5 2.004 2.004 1.5 2.625 1.5ZM12.964 7.125H8.25V16.575H10.664V13.591H12.963C14.709 13.591 16.124 12.23 16.124 10.551V10.164C16.124 8.485 14.71 7.125 12.964 7.125Z" fill="#202022"/>
</g>
</svg>
