<svg width="24" height="24" viewBox="0 0 24 24" fill="none" xmlns="http://www.w3.org/2000/svg">
<g id="Type=Outline">
<path id="Vector" d="M12.81 4.38996H16.5C18.019 4.38996 19.25 5.62096 19.25 7.13996V16.494C20.404 16.82 21.25 17.882 21.25 19.14C21.25 20.659 20.019 21.89 18.5 21.89C16.981 21.89 15.75 20.659 15.75 19.14C15.75 17.881 16.596 16.82 17.75 16.494V7.13996C17.75 6.44996 17.19 5.88996 16.5 5.88996H12.811L14.031 7.10996L12.97 8.17096L9.94 5.14096L12.97 2.11096L14.031 3.17196L12.811 4.39196L12.81 4.38996ZM18.5 17.89C17.81 17.89 17.25 18.45 17.25 19.14C17.25 19.83 17.81 20.39 18.5 20.39C19.19 20.39 19.75 19.83 19.75 19.14C19.75 18.45 19.19 17.89 18.5 17.89Z" fill="#202022"/>
<path id="Vector_2" d="M4.75 16.494V7.78699C3.596 7.46099 2.75 6.39899 2.75 5.14099C2.75 3.62199 3.981 2.39099 5.5 2.39099C7.019 2.39099 8.25 3.62199 8.25 5.14099C8.25 6.39999 7.404 7.46099 6.25 7.78699V16.494C7.404 16.82 8.25 17.882 8.25 19.14C8.25 20.659 7.019 21.89 5.5 21.89C3.981 21.89 2.75 20.659 2.75 19.14C2.75 17.881 3.596 16.82 4.75 16.494ZM4.25 19.14C4.25 19.83 4.81 20.39 5.5 20.39C6.19 20.39 6.75 19.83 6.75 19.14C6.75 18.45 6.19 17.89 5.5 17.89C4.81 17.89 4.25 18.45 4.25 19.14ZM5.5 3.88999C4.81 3.88999 4.25 4.44999 4.25 5.13999C4.25 5.82999 4.81 6.38999 5.5 6.38999C6.19 6.38999 6.75 5.82999 6.75 5.13999C6.75 4.44999 6.19 3.88999 5.5 3.88999Z" fill="#202022"/>
</g>
</svg>
