<svg width="24" height="24" viewBox="0 0 24 24" fill="none" xmlns="http://www.w3.org/2000/svg">
<g id="Type=Filled">
<path id="Vector" d="M14.03 3.16996L12.811 4.38996H16.501C18.02 4.38996 19.251 5.62096 19.251 7.13996V16.493C20.405 16.82 21.251 17.881 21.251 19.139C21.251 20.658 20.02 21.889 18.501 21.889C16.982 21.889 15.751 20.658 15.751 19.139C15.751 17.88 16.597 16.819 17.751 16.493V7.13996C17.751 6.44996 17.191 5.88996 16.501 5.88996H12.812L14.032 7.10996L12.971 8.17096L9.941 5.14096L12.97 2.11096L14.031 3.17196L14.03 3.16996Z" fill="#202022"/>
<path id="Vector_2" d="M4.75 16.494C3.596 16.821 2.75 17.882 2.75 19.14C2.75 20.659 3.981 21.89 5.5 21.89C7.019 21.89 8.25 20.659 8.25 19.14C8.25 17.881 7.404 16.82 6.25 16.494V7.78699C7.404 7.46099 8.25 6.39899 8.25 5.14099C8.25 3.62199 7.019 2.39099 5.5 2.39099C3.981 2.39099 2.75 3.62199 2.75 5.14099C2.75 6.39999 3.596 7.46099 4.75 7.78699V16.494Z" fill="#202022"/>
</g>
</svg>
