<svg width="24" height="24" viewBox="0 0 24 24" fill="none" xmlns="http://www.w3.org/2000/svg">
<g id="Type=Outline">
<path id="Vector" d="M5 2.25C3.481 2.25 2.25 3.481 2.25 5V8H3.75V5C3.75 4.31 4.31 3.75 5 3.75H8V2.25H5Z" fill="#202022"/>
<path id="Vector_2" d="M16 3.75H19C19.69 3.75 20.25 4.31 20.25 5V8H21.75V5C21.75 3.481 20.519 2.25 19 2.25H16V3.75Z" fill="#202022"/>
<path id="Vector_3" d="M3.75 16V19C3.75 19.69 4.31 20.25 5 20.25H8V21.75H5C3.481 21.75 2.25 20.519 2.25 19V16H3.75Z" fill="#202022"/>
<path id="Vector_4" d="M20.25 16V19C20.25 19.69 19.69 20.25 19 20.25H16V21.75H19C20.519 21.75 21.75 20.519 21.75 19V16H20.25Z" fill="#202022"/>
<path id="Vector_5" d="M5.25 7C5.25 6.034 6.033 5.25 7 5.25H9.5C10.466 5.25 11.25 6.033 11.25 7V9.5C11.25 10.466 10.467 11.25 9.5 11.25H7C6.034 11.25 5.25 10.467 5.25 9.5V7ZM7 6.75C6.862 6.75 6.75 6.862 6.75 7V9.5C6.75 9.638 6.862 9.75 7 9.75H9.5C9.638 9.75 9.75 9.638 9.75 9.5V7C9.75 6.862 9.638 6.75 9.5 6.75H7Z" fill="#202022"/>
<path id="Vector_6" d="M7 12.75C6.034 12.75 5.25 13.533 5.25 14.5V17C5.25 17.966 6.033 18.75 7 18.75H9.5C10.466 18.75 11.25 17.967 11.25 17V14.5C11.25 13.534 10.467 12.75 9.5 12.75H7ZM6.75 14.5C6.75 14.362 6.862 14.25 7 14.25H9.5C9.638 14.25 9.75 14.362 9.75 14.5V17C9.75 17.138 9.638 17.25 9.5 17.25H7C6.862 17.25 6.75 17.138 6.75 17V14.5Z" fill="#202022"/>
<path id="Vector_7" d="M12.75 7C12.75 6.034 13.533 5.25 14.5 5.25H17C17.966 5.25 18.75 6.033 18.75 7V9.5C18.75 10.466 17.967 11.25 17 11.25H14.5C13.534 11.25 12.75 10.467 12.75 9.5V7ZM14.5 6.75C14.362 6.75 14.25 6.862 14.25 7V9.5C14.25 9.638 14.362 9.75 14.5 9.75H17C17.138 9.75 17.25 9.638 17.25 9.5V7C17.25 6.862 17.138 6.75 17 6.75H14.5Z" fill="#202022"/>
<path id="Vector_8" d="M15 16.531H16.5V18.031H18V16.531H16.5V15.031H18V13.531H16.5V15.031H15V13.531H13.5V15.031H15V16.531Z" fill="#202022"/>
<path id="Vector_9" d="M15 16.531H13.5V18.031H15V16.531Z" fill="#202022"/>
</g>
</svg>
