<svg width="24" height="24" viewBox="0 0 24 24" fill="none" xmlns="http://www.w3.org/2000/svg">
<g id="Type=Filled">
<path id="Vector" d="M12 1.75C17.661 1.75 22.25 6.339 22.25 12C22.25 17.661 17.661 22.25 12 22.25C6.339 22.25 1.75 17.661 1.75 12C1.75 6.339 6.339 1.75 12 1.75ZM13 15.875C13 15.323 12.552 14.875 12 14.875C11.448 14.875 11 15.323 11 15.875C11 16.427 11.448 16.875 12 16.875C12.552 16.875 13 16.427 13 15.875ZM10.75 9.875C10.75 9.164 11.303 8.625 12 8.625C12.673 8.625 13.25 9.189 13.25 9.925C13.25 10.297 13.101 10.598 12.871 10.805C12.838 10.835 12.803 10.867 12.766 10.899C12.493 11.144 12.149 11.452 11.872 11.795C11.552 12.192 11.249 12.72 11.249 13.375H12.749C12.749 13.202 12.826 13.001 13.039 12.737C13.234 12.495 13.482 12.273 13.766 12.017L13.876 11.918C14.418 11.429 14.75 10.725 14.75 9.924C14.75 8.395 13.536 7.124 12 7.124C10.488 7.124 9.25 8.321 9.25 9.874H10.75V9.875Z" fill="#202022"/>
</g>
</svg>
