<svg width="24" height="24" viewBox="0 0 24 24" fill="none" xmlns="http://www.w3.org/2000/svg">
<g id="Type=Outline">
<path id="Vector" d="M13 15.5C13 16.052 12.552 16.5 12 16.5C11.448 16.5 11 16.052 11 15.5C11 14.948 11.448 14.5 12 14.5C12.552 14.5 13 14.948 13 15.5Z" fill="#202022"/>
<path id="Vector_2" d="M10.75 9.50002C10.75 8.78902 11.303 8.25002 12 8.25002C12.673 8.25002 13.25 8.81402 13.25 9.55002C13.25 9.92202 13.101 10.223 12.871 10.43C12.838 10.46 12.803 10.492 12.766 10.524C12.493 10.769 12.149 11.077 11.872 11.42C11.552 11.817 11.249 12.345 11.249 13H12.749C12.749 12.827 12.826 12.626 13.039 12.362C13.234 12.12 13.482 11.898 13.766 11.642L13.876 11.543C14.418 11.054 14.75 10.35 14.75 9.54902C14.75 8.02002 13.536 6.74902 12 6.74902C10.488 6.74902 9.25 7.94602 9.25 9.49902H10.75V9.50002Z" fill="#202022"/>
<path id="Vector_3" d="M1.75 12C1.75 6.339 6.339 1.75 12 1.75C17.661 1.75 22.25 6.339 22.25 12C22.25 17.661 17.661 22.25 12 22.25C6.339 22.25 1.75 17.661 1.75 12ZM12 3.25C7.168 3.25 3.25 7.168 3.25 12C3.25 16.832 7.168 20.75 12 20.75C16.833 20.75 20.75 16.832 20.75 12C20.75 7.168 16.832 3.25 12 3.25Z" fill="#202022"/>
</g>
</svg>
