<svg width="24" height="24" viewBox="0 0 24 24" fill="none" xmlns="http://www.w3.org/2000/svg">
<g id="Type=Filled" clip-path="url(#clip0_4556_2714)">
<path id="Vector" d="M0.390991 9.64099C0.390991 14.75 4.53199 18.891 9.64099 18.891C9.98999 18.891 10.335 18.872 10.675 18.834C10.632 18.515 10.61 18.19 10.61 17.86C10.61 13.856 13.856 10.61 17.86 10.61C18.19 10.61 18.515 10.632 18.834 10.675C18.872 10.336 18.891 9.99099 18.891 9.64099C18.891 4.53199 14.75 0.390991 9.64099 0.390991C4.53199 0.390991 0.390991 4.53199 0.390991 9.64099ZM8.88999 8.88999V3.97299H10.39V10.39H3.97399V8.88999H8.88999Z" fill="#202022"/>
<path id="Vector_2" d="M17.859 12.109C14.683 12.109 12.109 14.683 12.109 17.859C12.109 18.091 12.123 18.321 12.15 18.546C12.489 21.398 14.916 23.609 17.859 23.609C21.035 23.609 23.609 21.035 23.609 17.859C23.609 14.916 21.398 12.489 18.546 12.15C18.321 12.123 18.092 12.109 17.859 12.109ZM21.39 16.14L16.86 20.67L14.33 18.14L15.391 17.079L16.861 18.549L20.331 15.079L21.392 16.14H21.39Z" fill="#202022"/>
</g>
<defs>
<clipPath id="clip0_4556_2714">
<rect width="24" height="24" fill="white"/>
</clipPath>
</defs>
</svg>
