<svg width="24" height="24" viewBox="0 0 24 24" fill="none" xmlns="http://www.w3.org/2000/svg">
<g id="Type=Outline">
<path id="Vector" d="M10.625 2.875C6.069 2.875 2.375 6.569 2.375 11.125C2.375 15.662 6.038 19.344 10.568 19.375C10.76 19.898 11.011 20.393 11.312 20.851C11.085 20.867 10.856 20.875 10.625 20.875C5.24 20.875 0.875 16.51 0.875 11.125C0.875 5.74 5.24 1.375 10.625 1.375C15.717 1.375 19.897 5.278 20.337 10.255C19.839 10.032 19.312 9.863 18.762 9.757C18.111 5.851 14.715 2.875 10.625 2.875Z" fill="#202022"/>
<path id="Vector_2" d="M12.984 20.588C12.641 20.182 12.353 19.729 12.131 19.238C11.806 18.517 11.625 17.717 11.625 16.875C11.625 13.699 14.199 11.125 17.375 11.125C17.893 11.125 18.395 11.194 18.872 11.322C19.394 11.463 19.888 11.675 20.34 11.948C22.009 12.954 23.124 14.785 23.124 16.875C23.124 20.051 20.55 22.625 17.374 22.625C15.613 22.625 14.038 21.834 12.983 20.588H12.984ZM16.375 19.686L20.905 15.156L19.844 14.095L16.374 17.565L14.904 16.095L13.843 17.156L16.373 19.686H16.375Z" fill="#202022"/>
<path id="Vector_3" d="M9.875 5.125V10.375H4.625V11.875H11.375V5.125H9.875Z" fill="#202022"/>
</g>
</svg>
