<svg width="24" height="24" viewBox="0 0 24 24" fill="none" xmlns="http://www.w3.org/2000/svg">
<g id="Type=Outline">
<path id="Vector" d="M8 7.25V8.75H16V7.25H8Z" fill="#202022"/>
<path id="Vector_2" d="M8 11.25V12.75H16V11.25H8Z" fill="#202022"/>
<path id="Vector_3" d="M16 15.25V16.75H8V15.25H16Z" fill="#202022"/>
<path id="Vector_4" d="M6.8 2.93802L4.75 1.27802V22.721L6.8 21.061L8.533 22.464L10.266 21.061L11.999 22.464L13.732 21.061L15.465 22.464L17.198 21.061L19.248 22.721V1.27802L17.198 2.93802L15.465 1.53502L13.732 2.93802L11.999 1.53502L10.266 2.93802L8.533 1.53502L6.8 2.93802ZM6.8 4.86802L8.533 3.46501L10.266 4.86802L11.999 3.46501L13.732 4.86802L15.465 3.46501L17.198 4.86802L17.748 4.42302V19.577L17.198 19.132L15.465 20.535L13.732 19.132L11.999 20.535L10.266 19.132L8.533 20.535L6.8 19.132L6.25 19.577V4.42302L6.8 4.86802Z" fill="#202022"/>
</g>
</svg>
