<svg width="24" height="24" viewBox="0 0 24 24" fill="none" xmlns="http://www.w3.org/2000/svg">
<g id="Type=Filled">
<path id="Vector" d="M4.3 2.93798L2.25 1.27798V22.721L4.3 21.061L6.033 22.464L7.766 21.061L9.499 22.464L10.592 21.579C9.55 20.413 8.879 18.907 8.766 17.249H5.499V15.749H8.817C8.968 14.651 9.366 13.632 9.951 12.749H5.499V11.249H11.275C12.544 10.158 14.194 9.49898 15.999 9.49898C16.252 9.49898 16.503 9.51198 16.749 9.53698V1.27698L14.699 2.93698L12.966 1.53398L11.233 2.93698L9.5 1.53398L7.767 2.93698L6.034 1.53398L4.301 2.93698L4.3 2.93798ZM5.5 8.24998V6.74998H13.5V8.24998H5.5Z" fill="#202022"/>
<path id="Vector_2" d="M16 11C12.824 11 10.25 13.574 10.25 16.75C10.25 19.926 12.824 22.5 16 22.5C19.176 22.5 21.75 19.926 21.75 16.75C21.75 13.574 19.176 11 16 11ZM17.591 19.402L16 17.811L14.409 19.402L13.348 18.341L14.939 16.75L13.348 15.159L14.409 14.098L16 15.689L17.591 14.098L18.652 15.159L17.061 16.75L18.652 18.341L17.591 19.402Z" fill="#202022"/>
</g>
</svg>
