<svg width="24" height="24" viewBox="0 0 24 24" fill="none" xmlns="http://www.w3.org/2000/svg">
<g id="Type=Filled">
<path id="Vector" d="M2.24999 1.27905L4.29999 2.93905L6.03299 1.53605L7.76599 2.93905L9.49899 1.53605L11.232 2.93905L12.965 1.53605L14.698 2.93905L16.748 1.27905V9.53905C16.502 9.51405 16.251 9.50105 15.998 9.50105C14.194 9.50105 12.543 10.1601 11.274 11.2511H5.49799V12.7511H9.94999C9.36499 13.6341 8.96699 14.6531 8.81599 15.7511H5.49799V17.2511H8.76499C8.87799 18.9101 9.54899 20.4151 10.591 21.5811L9.49799 22.4661L7.76499 21.0631L6.03199 22.4661L4.29899 21.0631L2.24899 22.7231V1.28005L2.24999 1.27905ZM5.49999 6.75005V8.25005H13.5V6.75005H5.49999Z" fill="#202022"/>
<path id="Vector_2" d="M16 11C19.176 11 21.75 13.574 21.75 16.75C21.75 19.926 19.176 22.5 16 22.5C12.824 22.5 10.25 19.926 10.25 16.75C10.25 13.574 12.824 11 16 11ZM15.25 13V17H16.75V13H15.25ZM16 20.5C16.552 20.5 17 20.052 17 19.5C17 18.948 16.552 18.5 16 18.5C15.448 18.5 15 18.948 15 19.5C15 20.052 15.448 20.5 16 20.5Z" fill="#202022"/>
</g>
</svg>
