<svg width="24" height="24" viewBox="0 0 24 24" fill="none" xmlns="http://www.w3.org/2000/svg">
<g id="Type=Outline">
<path id="Vector" d="M2.25 1.27895L4.3 2.93895L6.033 1.53595L7.766 2.93895L9.499 1.53595L11.232 2.93895L12.965 1.53595L14.698 2.93895L16.748 1.27895V9.53895C16.502 9.51395 16.251 9.50095 15.998 9.50095C15.745 9.50095 15.494 9.51395 15.248 9.53895V4.42395L14.698 4.86895L12.965 3.46595L11.232 4.86895L9.499 3.46595L7.766 4.86895L6.033 3.46595L4.3 4.86895L3.75 4.42395V19.578L4.3 19.133L6.033 20.536L7.767 19.132L10.207 21.111C10.236 21.149 10.265 21.187 10.295 21.225L9.371 22.364L7.766 21.062L6.033 22.465L4.3 21.062L2.25 22.721V1.27795V1.27895Z" fill="#202022"/>
<path id="Vector_2" d="M13.581 21.968C12.654 21.538 11.861 20.867 11.282 20.037C10.632 19.105 10.25 17.972 10.25 16.75C10.25 16.231 10.319 15.728 10.448 15.25C10.705 14.296 11.202 13.439 11.87 12.75C12.338 12.267 12.889 11.866 13.501 11.571C14.043 11.309 14.631 11.13 15.251 11.049C15.497 11.017 15.747 11.001 16.001 11.001C16.255 11.001 16.505 11.018 16.751 11.049C19.572 11.416 21.751 13.829 21.751 16.75C21.751 19.671 19.572 22.084 16.751 22.451C16.653 22.464 16.555 22.474 16.456 22.482C16.306 22.494 16.154 22.5 16.001 22.5C15.137 22.5 14.316 22.309 13.581 21.968ZM15 19.561L19.53 15.031L18.469 13.97L14.999 17.44L13.529 15.97L12.468 17.031L14.998 19.561H15Z" fill="#202022"/>
<path id="Vector_3" d="M11.276 11.25H5.5V12.75H9.952C10.323 12.191 10.769 11.686 11.276 11.25Z" fill="#202022"/>
<path id="Vector_4" d="M8.905 15.25C8.803 15.734 8.75 16.236 8.75 16.75H5.5V15.25H8.905Z" fill="#202022"/>
<path id="Vector_5" d="M5.5 8.75V7.25H13.5V8.75H5.5Z" fill="#202022"/>
</g>
</svg>
