<svg width="24" height="24" viewBox="0 0 24 24" fill="none" xmlns="http://www.w3.org/2000/svg">
<g id="Type=Outline">
<path id="Vector" d="M12 1.25C9.277 1.25 6.923 2.827 5.8 5.115C3.251 5.334 1.25 7.472 1.25 10.077C1.25 12.438 2.892 14.414 5.096 14.928V22.75H18.904V14.928C21.108 14.414 22.75 12.438 22.75 10.077C22.75 7.471 20.749 5.333 18.2 5.115C17.076 2.827 14.723 1.25 12 1.25ZM6.989 6.128C7.791 4.146 9.734 2.75 12 2.75C14.266 2.75 16.209 4.146 17.012 6.128L17.205 6.604L17.718 6.597C17.735 6.597 17.752 6.597 17.77 6.597C19.692 6.597 21.251 8.155 21.251 10.078C21.251 11.893 19.861 13.385 18.088 13.545L17.405 13.607V17.252H6.597V13.607L5.914 13.545C4.141 13.385 2.751 11.894 2.751 10.078C2.751 8.156 4.309 6.597 6.232 6.597C6.249 6.597 6.266 6.597 6.284 6.597L6.797 6.604L6.989 6.128ZM6.596 18.75H17.404V21.25H6.596V18.75Z" fill="#202022"/>
</g>
</svg>
