<svg width="24" height="24" viewBox="0 0 24 24" fill="none" xmlns="http://www.w3.org/2000/svg">
<g id="Type=Outline">
<path id="Vector" d="M2.25 1.27895L4.3 2.93895L6.033 1.53595L7.766 2.93895L9.499 1.53595L11.232 2.93895L12.965 1.53595L14.698 2.93895L16.748 1.27895V9.53895C16.502 9.51395 16.251 9.50095 15.998 9.50095C15.745 9.50095 15.494 9.51395 15.248 9.53895V4.42395L14.698 4.86895L12.965 3.46595L11.232 4.86895L9.499 3.46595L7.766 4.86895L6.033 3.46595L4.3 4.86895L3.75 4.42395V19.578L4.3 19.133L6.033 20.536L7.767 19.132L10.207 21.111C10.236 21.149 10.265 21.187 10.295 21.225L9.371 22.364L7.766 21.062L6.033 22.465L4.3 21.062L2.25 22.721V1.27795V1.27895Z" fill="#202022"/>
<path id="Vector_2" d="M13.581 21.968C14.316 22.31 15.136 22.5 16 22.5C16.153 22.5 16.305 22.494 16.455 22.482C16.554 22.474 16.653 22.464 16.75 22.451C19.571 22.084 21.75 19.671 21.75 16.75C21.75 13.829 19.571 11.416 16.75 11.048C16.504 11.016 16.254 11 16 11C15.746 11 15.496 11.017 15.25 11.048C14.63 11.129 14.041 11.308 13.5 11.57C12.888 11.866 12.337 12.267 11.869 12.749C11.201 13.439 10.705 14.295 10.447 15.249C10.318 15.727 10.249 16.23 10.249 16.749C10.249 17.971 10.63 19.104 11.281 20.036C11.86 20.866 12.653 21.536 13.58 21.967L13.581 21.968ZM15.25 17V13H16.75V17H15.25ZM17 19.5C17 20.052 16.552 20.5 16 20.5C15.448 20.5 15 20.052 15 19.5C15 18.948 15.448 18.5 16 18.5C16.552 18.5 17 18.948 17 19.5Z" fill="#202022"/>
<path id="Vector_3" d="M11.276 11.25H5.5V12.75H9.952C10.323 12.191 10.769 11.686 11.276 11.25Z" fill="#202022"/>
<path id="Vector_4" d="M8.905 15.25C8.803 15.734 8.75 16.236 8.75 16.75H5.5V15.25H8.905Z" fill="#202022"/>
<path id="Vector_5" d="M5.5 8.75V7.25H13.5V8.75H5.5Z" fill="#202022"/>
</g>
</svg>
