<svg width="24" height="24" viewBox="0 0 24 24" fill="none" xmlns="http://www.w3.org/2000/svg">
<g id="Type=Outline">
<path id="Vector" d="M3.43399 1.58405C4.73499 1.23505 6.07299 2.00805 6.42199 3.30905L8.08099 9.50005H13.375V11H8.48199L9.09199 13.276H13.84C15.654 13.276 17.125 14.746 17.125 16.56V19H9.12499V21H14.375V22.5H7.62499V19H5.57499L1.70899 4.57205C1.35999 3.27105 2.13299 1.93305 3.43399 1.58405ZM4.97299 3.69705C4.83899 3.19605 4.32299 2.89805 3.82199 3.03305C3.32099 3.16805 3.02299 3.68305 3.15799 4.18405L6.72599 17.501H15.625V16.561C15.625 15.576 14.826 14.777 13.84 14.777H7.94099L4.97199 3.69805L4.97299 3.69705Z" fill="#202022"/>
<path id="Vector_2" d="M16.845 1.71997L17.906 2.78097L15.186 5.50097H22.375V7.00097H15.186L17.906 9.72097L16.845 10.782L12.315 6.25197L16.845 1.72197V1.71997Z" fill="#202022"/>
</g>
</svg>
