<svg width="24" height="24" viewBox="0 0 24 24" fill="none" xmlns="http://www.w3.org/2000/svg">
<g id="Type=Outline">
<path id="Vector" d="M3.04801 2.82395C4.22601 2.15995 5.73901 2.54695 6.43001 3.71495L9.85001 9.49995H14.549V10.9999H10.736L12.077 13.2679H17.948C19.781 13.2679 21.298 14.7239 21.298 16.5569V18.9999H13.298V20.9999H19.048V22.4999H11.798V18.9999H9.72001L2.13501 6.17095C1.43801 4.99195 1.85901 3.49295 3.04701 2.82395H3.04801ZM5.13901 4.47795C4.87201 4.02695 4.26601 3.85895 3.78501 4.12995C3.31401 4.39495 3.16701 4.96695 3.42801 5.40695L10.577 17.4989H19.8V16.5559C19.8 15.5849 18.989 14.7669 17.95 14.7669H11.223L5.13901 4.47795Z" fill="#202022"/>
<path id="Vector_2" d="M17.951 8H15.201V6.5H17.951V3.75H19.451V6.5H22.201V8H19.451V10.75H17.951V8Z" fill="#202022"/>
</g>
</svg>
