<svg width="24" height="24" viewBox="0 0 24 24" fill="none" xmlns="http://www.w3.org/2000/svg">
<g id="Recruiting Outline">
<path id="Vector" d="M14.66 6.02501L12 0.656006L9.33997 6.02501L3.38397 6.88701L7.69397 11.072L6.67697 16.977L12 14.189L17.323 16.977L16.306 11.072L20.616 6.88701L14.66 6.02501ZM10.334 7.39601L12 4.03401L13.666 7.39601L17.384 7.93401L14.694 10.546L15.33 14.239L12 12.495L8.66997 14.239L9.30597 10.546L6.61597 7.93401L10.334 7.39601Z" fill="#202022"/>
<path id="Vector_2" d="M11.25 16.345V23.345H12.75V16.345H11.25Z" fill="#202022"/>
<path id="Vector_3" d="M8.25 17.845V21.845H9.75V17.845H8.25Z" fill="#202022"/>
<path id="Vector_4" d="M14.25 21.845V17.845H15.75V21.845H14.25Z" fill="#202022"/>
</g>
</svg>
