<svg width="24" height="24" viewBox="0 0 24 24" fill="none" xmlns="http://www.w3.org/2000/svg">
<g id="Redo Crossed Outline">
<path id="Vector" d="M4.23895 5.304L5.30295 6.368L5.30495 6.366L20.9699 22.031L22.0309 20.97L19.7599 18.699C21.3119 16.902 22.2509 14.561 22.2509 12.001C22.2509 10.605 21.9719 9.273 21.4649 8.058L20.0809 8.635C20.5129 9.67 20.7509 10.806 20.7509 12C20.7509 14.146 19.9779 16.112 18.6959 17.634L6.36695 5.305C7.88895 4.023 9.85495 3.25 12.0009 3.25C14.2539 3.25 16.3069 4.101 17.8589 5.5H15.5009V7H20.2509V2.25H18.7509V4.286C16.9479 2.707 14.5859 1.75 12.0009 1.75C9.44095 1.75 7.09895 2.689 5.30295 4.241L3.03195 1.97L1.97095 3.031L4.24195 5.302L4.23895 5.304Z" fill="#202022"/>
<path id="Vector_2" d="M4.42702 7.613C3.67802 8.903 3.24902 10.401 3.24902 12C3.24902 16.833 7.16702 20.75 11.999 20.75C13.598 20.75 15.096 20.321 16.386 19.573L17.478 20.665C15.893 21.669 14.014 22.251 11.999 22.251C6.33802 22.251 1.74902 17.662 1.74902 12.001C1.74902 9.986 2.33002 8.107 3.33502 6.522L4.42702 7.613Z" fill="#202022"/>
</g>
</svg>
