<svg width="24" height="24" viewBox="0 0 24 24" fill="none" xmlns="http://www.w3.org/2000/svg">
<g id="Redo">
<path id="Vector" d="M12 3.25001C7.168 3.25001 3.25 7.16801 3.25 12C3.25 16.832 7.168 20.75 12 20.75C16.833 20.75 20.75 16.832 20.75 12C20.75 10.806 20.511 9.67001 20.08 8.63501L21.464 8.05801C21.971 9.27301 22.25 10.605 22.25 12.001C22.25 17.662 17.661 22.251 12 22.251C6.339 22.251 1.75 17.662 1.75 12.001C1.75 6.34001 6.339 1.75101 12 1.75101C14.585 1.75101 16.947 2.70901 18.75 4.28701V2.25101H20.25V7.00101H15.5V5.50101H17.858C16.307 4.10201 14.253 3.25001 12 3.25001Z" fill="#202022"/>
</g>
</svg>
