<svg width="24" height="24" viewBox="0 0 24 24" fill="none" xmlns="http://www.w3.org/2000/svg">
<g id="Type=Outline">
<g id="Shape">
<path fill-rule="evenodd" clip-rule="evenodd" d="M17.5 1.8125C15.9812 1.8125 14.75 3.04372 14.75 4.5625C14.75 6.08128 15.9812 7.3125 17.5 7.3125C19.0188 7.3125 20.25 6.08128 20.25 4.5625C20.25 3.04372 19.0188 1.8125 17.5 1.8125ZM16.25 4.5625C16.25 3.87214 16.8096 3.3125 17.5 3.3125C18.1904 3.3125 18.75 3.87214 18.75 4.5625C18.75 5.25286 18.1904 5.8125 17.5 5.8125C16.8096 5.8125 16.25 5.25286 16.25 4.5625Z" fill="#202022"/>
<path d="M16.5 8.3125C14.7051 8.3125 13.25 9.76757 13.25 11.5625V12.5625H14.75V11.5625C14.75 10.596 15.5335 9.8125 16.5 9.8125H18.5C19.4665 9.8125 20.25 10.596 20.25 11.5625V12.5625H21.75V11.5625C21.75 9.76757 20.2949 8.3125 18.5 8.3125H16.5Z" fill="#202022"/>
<path d="M16.75 17.1232L15.0304 18.8428L13.9697 17.7821L17.5001 14.2518L21.0304 17.7821L19.9697 18.8428L18.25 17.123V22.1875H2.25V18.0078C2.25 16.2129 3.70507 14.7578 5.5 14.7578H7.5C9.29493 14.7578 10.75 16.2129 10.75 18.0078V19.1562H9.25V18.0078C9.25 17.0413 8.4665 16.2578 7.5 16.2578H5.5C4.5335 16.2578 3.75 17.0413 3.75 18.0078V20.6875H16.75V17.1232Z" fill="#202022"/>
<path fill-rule="evenodd" clip-rule="evenodd" d="M6.5 8.25781C4.98122 8.25781 3.75 9.48903 3.75 11.0078C3.75 12.5266 4.98122 13.7578 6.5 13.7578C8.01878 13.7578 9.25 12.5266 9.25 11.0078C9.25 9.48903 8.01878 8.25781 6.5 8.25781ZM5.25 11.0078C5.25 10.3175 5.80964 9.75781 6.5 9.75781C7.19036 9.75781 7.75 10.3175 7.75 11.0078C7.75 11.6982 7.19036 12.2578 6.5 12.2578C5.80964 12.2578 5.25 11.6982 5.25 11.0078Z" fill="#202022"/>
</g>
</g>
</svg>
