<svg width="24" height="24" viewBox="0 0 24 24" fill="none" xmlns="http://www.w3.org/2000/svg">
<g id="Type=Filled">
<g id="Shape">
<path d="M17.5 1.9375C16.1193 1.9375 15 3.05679 15 4.4375C15 5.81821 16.1193 6.9375 17.5 6.9375C18.8807 6.9375 20 5.81821 20 4.4375C20 3.05679 18.8807 1.9375 17.5 1.9375Z" fill="#202022"/>
<path d="M16.5 7.9375C14.7051 7.9375 13.25 9.39257 13.25 11.1875V12.4375H21.75V11.1875C21.75 9.39257 20.2949 7.9375 18.5 7.9375H16.5Z" fill="#202022"/>
<path d="M6.5 8.5874C5.11929 8.5874 4 9.70669 4 11.0874C4 12.4681 5.11929 13.5874 6.5 13.5874C7.88071 13.5874 9 12.4681 9 11.0874C9 9.70669 7.88071 8.5874 6.5 8.5874Z" fill="#202022"/>
<path d="M5.5 14.5874C3.70507 14.5874 2.25 16.0425 2.25 17.8374V22.0625H18.25V16.998L19.9697 18.7178L21.0304 17.6571L17.5001 14.1268L13.9697 17.6571L15.0304 18.7178L16.75 16.9982V20.5625H3.75V19.0874H10.75V17.8374C10.75 16.0425 9.29493 14.5874 7.5 14.5874H5.5Z" fill="#202022"/>
</g>
</g>
</svg>
