<svg width="24" height="24" viewBox="0 0 24 24" fill="none" xmlns="http://www.w3.org/2000/svg">
<g id="Refresh Crossed">
<path id="Vector" d="M5.31699 6.37799L5.31499 6.37999L4.24899 5.31399L4.25099 5.31199L1.96899 3.02999L3.02999 1.96899L5.29299 4.23199C7.10599 2.60999 9.49999 1.62399 12.124 1.62399C13.513 1.62399 14.839 1.90099 16.049 2.40199L15.474 3.78799C14.443 3.35999 13.312 3.12399 12.124 3.12399C9.91399 3.12399 7.89499 3.94299 6.35499 5.29499L18.703 17.643C20.054 16.103 20.874 14.084 20.874 11.874C20.874 9.62099 20.023 7.56799 18.624 6.01599V8.37399H17.124V3.62399H21.874V5.12399H19.838C21.417 6.92699 22.374 9.28899 22.374 11.874C22.374 14.498 21.388 16.892 19.766 18.705L22.03 20.969L20.969 22.03L18.687 19.748L18.685 19.75L17.619 18.684L17.621 18.682L5.31599 6.37699L5.31699 6.37799Z" fill="#202022"/>
<path id="Vector_2" d="M3.365 6.55001L4.462 7.64701C3.769 8.90001 3.375 10.341 3.375 11.874C3.375 14.127 4.226 16.18 5.625 17.732V15.374H7.125V20.124H2.375V18.624H4.411C2.832 16.821 1.875 14.459 1.875 11.874C1.875 9.92401 2.42 8.10101 3.365 6.54901V6.55001Z" fill="#202022"/>
<path id="Vector_3" d="M16.352 19.538L17.449 20.635C15.897 21.58 14.074 22.125 12.124 22.125C10.728 22.125 9.39603 21.846 8.18103 21.339L8.75803 19.955C9.79303 20.387 10.929 20.625 12.123 20.625C13.656 20.625 15.097 20.231 16.35 19.538H16.352Z" fill="#202022"/>
</g>
</svg>
