<svg width="24" height="24" viewBox="0 0 24 24" fill="none" xmlns="http://www.w3.org/2000/svg">
<g id="Type=Outline">
<g id="Shape">
<path d="M3.25 12C3.25 7.16751 7.16751 3.25 12 3.25C12.9669 3.25 13.8957 3.40654 14.7633 3.69508L15.2367 2.27173C14.2183 1.93306 13.1298 1.75 12 1.75C6.33908 1.75 1.75 6.33908 1.75 12C1.75 14.7067 2.79969 17.1685 4.51254 19H2.5V20.5H7.25V15.75H5.75V18.1238C4.20272 16.545 3.25 14.3838 3.25 12Z" fill="#202022"/>
<path d="M18.25 5.87623C19.7973 7.45509 20.75 9.61607 20.75 12C20.75 16.8325 16.8325 20.75 12 20.75C11.0331 20.75 10.1043 20.5935 9.23667 20.3049L8.76333 21.7283C9.78169 22.0669 10.8702 22.25 12 22.25C17.6609 22.25 22.25 17.6609 22.25 12C22.25 9.29337 21.2003 6.8315 19.4875 5L21.5 5V3.5L16.75 3.5V8.25H18.25V5.87623Z" fill="#202022"/>
</g>
</g>
</svg>
