<svg width="24" height="24" viewBox="0 0 24 24" fill="none" xmlns="http://www.w3.org/2000/svg">
<g id="Type=Filled">
<g id="Shape">
<path d="M21.5 5H19.4873C21.2001 6.8315 22.25 9.29337 22.25 12C22.25 17.6609 17.6609 22.25 12 22.25C10.8704 22.25 9.78192 22.0671 8.76367 21.7285L9.23633 20.3047C10.104 20.5932 11.0331 20.75 12 20.75C16.8325 20.75 20.75 16.8325 20.75 12C20.75 9.61607 19.7973 7.45483 18.25 5.87598V8.25H16.75V3.5H21.5V5Z" fill="#202022"/>
<path d="M12 1.75C13.1296 1.75 14.2181 1.9329 15.2363 2.27148L14.7637 3.69531C13.896 3.40677 12.9669 3.25 12 3.25C7.16751 3.25 3.25 7.16751 3.25 12C3.25 14.3838 4.20272 16.5452 5.75 18.124V15.75H7.25V20.5H2.5V19H4.5127C2.79985 17.1685 1.75 14.7067 1.75 12C1.75 6.33908 6.33908 1.75 12 1.75Z" fill="#202022"/>
<path d="M12 4.75C13.1687 4.75 14.2723 5.02737 15.25 5.51855V9.75H18.8926C18.9125 9.8111 18.9309 9.87278 18.9492 9.93457C19.0106 10.1413 19.0635 10.3515 19.1064 10.5654C19.127 10.6676 19.1458 10.7704 19.1621 10.874C19.2193 11.241 19.25 11.617 19.25 12C19.25 16.0041 16.0041 19.25 12 19.25C10.8312 19.25 9.72775 18.9718 8.75 18.4805V14.25H5.10742C5.08559 14.1831 5.06486 14.1156 5.04492 14.0479C4.98573 13.8465 4.93434 13.6418 4.89258 13.4336C4.87199 13.3315 4.85316 13.2286 4.83691 13.125C4.7798 12.7584 4.75 12.3827 4.75 12C4.75 7.99594 7.99594 4.75 12 4.75Z" fill="#202022"/>
</g>
</g>
</svg>
