<svg width="24" height="24" viewBox="0 0 24 24" fill="none" xmlns="http://www.w3.org/2000/svg">
<g id="Type=Outline">
<path id="Vector" d="M14.289 1.25H9.71201V2.445C9.71201 2.999 9.28801 3.566 8.60701 3.85C7.94001 4.128 7.26101 4.025 6.86301 3.627L6.01801 2.782L2.78201 6.018L3.62801 6.864C4.02601 7.262 4.12901 7.941 3.85101 8.608C3.56701 9.289 3.00001 9.713 2.44701 9.713H1.25201V14.29H2.44701C3.00101 14.29 3.56801 14.714 3.85201 15.395C4.13001 16.062 4.02701 16.741 3.62901 17.139L2.78301 17.985L6.01901 21.221L6.86501 20.375C7.26301 19.977 7.94201 19.874 8.60901 20.152C9.29001 20.436 9.71401 21.003 9.71401 21.556V22.751H14.291V21.556C14.291 21.206 14.46 20.851 14.757 20.566L13.698 19.507C13.23 19.963 12.888 20.557 12.809 21.252H11.198C11.064 20.07 10.165 19.176 9.18701 18.768C8.19701 18.355 6.95301 18.374 6.03201 19.112L4.89401 17.973C5.63201 17.052 5.65101 15.808 5.23801 14.818C4.83101 13.84 3.93601 12.941 2.75401 12.807V11.196C3.93601 11.062 4.83001 10.163 5.23801 9.185C5.65101 8.195 5.63201 6.951 4.89401 6.031L6.03301 4.892C6.95401 5.63 8.19801 5.648 9.18801 5.235C10.166 4.828 11.065 3.933 11.199 2.751H12.81C12.944 3.933 13.843 4.827 14.821 5.235C15.811 5.648 17.055 5.629 17.976 4.892L19.115 6.031C18.377 6.952 18.359 8.196 18.771 9.186C19.178 10.164 20.073 11.063 21.255 11.197V12.808C20.561 12.887 19.966 13.229 19.51 13.697L20.569 14.756C20.855 14.46 21.21 14.29 21.56 14.29H22.755V9.713H21.56C21.007 9.713 20.44 9.289 20.156 8.608C19.878 7.941 19.981 7.263 20.379 6.864L21.225 6.018L17.989 2.782L17.144 3.627C16.745 4.026 16.066 4.128 15.399 3.85C14.718 3.566 14.294 2.999 14.294 2.445V1.25H14.289Z" fill="#202022"/>
<path id="Vector_2" d="M15.989 8.33494C14.275 6.62094 11.698 6.29794 9.65798 7.36194L8.75198 7.83494L12.09 11.1729L11.173 12.0899L7.83498 8.75194L7.36198 9.65794C6.29698 11.6979 6.61998 14.2739 8.33498 15.9889C9.77898 17.4329 11.834 17.8899 13.664 17.3619L18.999 22.6969L22.697 18.9989L17.362 13.6639C17.889 11.8339 17.432 9.77794 15.989 8.33494ZM14.212 11.1729L11.369 8.32994C12.615 8.07294 13.962 8.42894 14.928 9.39494C16.062 10.5289 16.355 12.1859 15.804 13.5909L15.625 14.0479L20.576 18.9989L18.999 20.5759L14.048 15.6249L13.591 15.8039C12.186 16.3549 10.528 16.0609 9.39498 14.9279C8.42898 13.9619 8.07298 12.6149 8.32998 11.3689L11.173 14.2119L14.212 11.1729Z" fill="#202022"/>
</g>
</svg>
