<svg width="24" height="24" viewBox="0 0 24 24" fill="none" xmlns="http://www.w3.org/2000/svg">
<g id="Type=Filled">
<path id="Vector" d="M14.289 1.25002H9.71201V2.44502C9.71201 2.99902 9.28801 3.56602 8.60701 3.85002C7.94001 4.12802 7.26101 4.02502 6.86301 3.62702L6.01801 2.78202L2.78201 6.01802L3.62801 6.86402C4.02601 7.26202 4.12901 7.94102 3.85101 8.60802C3.56701 9.28902 3.00001 9.71302 2.44701 9.71302H1.25201V14.29H2.44701C3.00101 14.29 3.56801 14.714 3.85201 15.395C4.13001 16.062 4.02701 16.741 3.62901 17.139L2.78301 17.985L6.01901 21.221L6.86501 20.375C7.26301 19.977 7.94201 19.874 8.60901 20.152C9.29001 20.436 9.71401 21.003 9.71401 21.556V22.751H14.291V21.556C14.291 21.003 14.715 20.436 15.396 20.152C15.528 20.097 15.66 20.057 15.79 20.031L18.55 22.791L22.793 18.548L20.033 15.788C20.059 15.658 20.099 15.526 20.154 15.394C20.438 14.713 21.005 14.289 21.559 14.289H22.754V9.71202H21.559C21.006 9.71202 20.439 9.28802 20.155 8.60702C19.877 7.94002 19.98 7.26202 20.378 6.86302L21.224 6.01702L17.988 2.78102L17.143 3.62602C16.744 4.02502 16.065 4.12702 15.399 3.84902C14.718 3.56502 14.294 2.99802 14.294 2.44402V1.24902L14.289 1.25002ZM18.547 20.669L14.123 16.245C12.45 17.044 10.386 16.75 9.00101 15.365C7.61601 13.98 7.32301 11.916 8.12101 10.243L11.201 13.323L13.322 11.202L10.242 8.12202C11.915 7.32302 13.979 7.61602 15.364 9.00202C16.749 10.388 17.043 12.451 16.244 14.124L20.667 18.548L18.546 20.669H18.547Z" fill="#202022"/>
</g>
</svg>
