<svg width="24" height="24" viewBox="0 0 24 24" fill="none" xmlns="http://www.w3.org/2000/svg">
<g id="Type=Outline">
<path id="Vector" d="M9.42897 13.279L13.459 9.24899L12.398 8.18799L9.42797 11.158L8.45797 10.188L7.39697 11.249L9.42697 13.279H9.42897Z" fill="#202022"/>
<path id="Vector_2" d="M8.22702 19.396L9.46502 18.158L10.703 19.396L11.764 18.3349L10.526 17.097L11.763 15.86L10.702 14.799L9.46502 16.0359L8.22802 14.799L7.16702 15.86L8.40402 17.097L7.16602 18.3349L8.22702 19.396Z" fill="#202022"/>
<path id="Vector_3" d="M13 12.969H16.5V11.469H13V12.969Z" fill="#202022"/>
<path id="Vector_4" d="M16.5 18.75H13V17.25H16.5V18.75Z" fill="#202022"/>
<path id="Vector_5" d="M14.811 1.75H4.25V22.25H19.75V6.689L14.811 1.75ZM5.75 20.75V3.25H14V7.504H18.25V20.75H5.75Z" fill="#202022"/>
</g>
</svg>
