<svg width="24" height="24" viewBox="0 0 24 24" fill="none" xmlns="http://www.w3.org/2000/svg">
<g id="Type=Outline">
<path id="Shape" d="M13.41 14.12L12 15.53L10.59 14.12L9.53 15.18L10.94 16.59L9.53 18L10.59 19.06L12 17.65L13.41 19.06L14.47 18L13.06 16.59L14.47 15.18L13.41 14.12ZM11 10.66L10.03 9.69L8.97 10.75L11 12.78L15.03 8.75L13.97 7.69L11 10.66ZM15.25 3V1.5H8.75V3H4.25V22.5H19.75V3H15.25ZM10.25 3H13.75V4.5H10.25V3ZM18.25 21H5.75V4.5H8.75V6H15.25V4.5H18.25V21Z" fill="#202022"/>
</g>
</svg>
