<svg width="24" height="24" viewBox="0 0 24 24" fill="none" xmlns="http://www.w3.org/2000/svg">
<g id="Type=Filled">
<path id="Vector" d="M4.25 1.75H14.811L19.75 6.689V22.25H4.25V1.75ZM14.5 3.561V7H17.939L14.5 3.561ZM9.429 13.561L13.459 9.531L12.398 8.47L9.428 11.44L8.458 10.47L7.397 11.531L9.427 13.561H9.429ZM8.227 19.396L9.465 18.158L10.703 19.396L11.764 18.335L10.526 17.097L11.763 15.86L10.702 14.799L9.465 16.036L8.228 14.799L7.167 15.86L8.404 17.097L7.166 18.335L8.227 19.396ZM17 13.25V11.75H13.5V13.25H17ZM17 18.75V17.25H13.5V18.75H17Z" fill="#202022"/>
</g>
</svg>
