<svg width="24" height="24" viewBox="0 0 24 24" fill="none" xmlns="http://www.w3.org/2000/svg">
<g id="Type=Outline">
<path id="Vector" d="M18.655 6.84497C19.483 6.84497 20.155 6.17297 20.155 5.34497C20.155 4.51697 19.483 3.84497 18.655 3.84497C17.827 3.84497 17.155 4.51697 17.155 5.34497C17.155 6.17297 17.827 6.84497 18.655 6.84497Z" fill="#202022"/>
<path id="Vector_2" d="M10.785 12.155L11.846 11.094L10.255 9.50301L11.316 8.44201L12.51 9.63601V5.43701H14.01V9.99001H18.563V11.49H14.364L15.558 12.684L14.497 13.745L12.906 12.154L11.845 13.215L13.436 14.806L12.375 15.867L10.784 14.276L9.37 15.69L8.309 14.629L9.723 13.215L8.132 11.624L9.193 10.563L10.784 12.154L10.785 12.155Z" fill="#202022"/>
<path id="Vector_3" d="M22.905 1.09497H12.808L1.09399 12.809L11.191 22.906L22.905 11.192V1.09497ZM3.21599 12.808L13.43 2.59397H21.406V10.57L11.192 20.784L3.21599 12.808Z" fill="#202022"/>
</g>
</svg>
