<svg width="24" height="24" viewBox="0 0 24 24" fill="none" xmlns="http://www.w3.org/2000/svg">
<g id="Type=Filled">
<path id="Vector" d="M12.809 1.09497L1.09497 12.809L11.192 22.906L22.906 11.192V1.09497H12.809ZM20.155 5.34497C20.155 6.17297 19.483 6.84497 18.655 6.84497C17.827 6.84497 17.155 6.17297 17.155 5.34497C17.155 4.51697 17.827 3.84497 18.655 3.84497C19.483 3.84497 20.155 4.51697 20.155 5.34497ZM11.432 7.97097C12.408 6.99497 13.991 6.99497 14.967 7.97097L16.204 6.73397L17.265 7.79497L16.028 9.03197L17.266 10.27L16.205 11.331L13.907 9.03297C13.516 8.64197 12.883 8.64197 12.493 9.03297C12.103 9.42397 12.102 10.057 12.493 10.447L13.554 11.508C14.53 12.484 14.53 14.067 13.554 15.044C12.578 16.021 10.995 16.02 10.018 15.044L8.77997 16.282L7.71897 15.221L8.95697 13.983L7.71997 12.746L8.78097 11.685L11.079 13.983C11.47 14.373 12.103 14.373 12.493 13.983C12.883 13.593 12.883 12.959 12.493 12.569L11.432 11.508C10.456 10.532 10.456 8.94797 11.432 7.97097Z" fill="#202022"/>
</g>
</svg>
