<svg width="24" height="24" viewBox="0 0 24 24" fill="none" xmlns="http://www.w3.org/2000/svg">
<g id="Type=Filled">
<path id="Vector" d="M12.809 1.09497H22.906V11.192L11.192 22.906L1.095 12.809L12.809 1.09497ZM18.655 6.84497C19.483 6.84497 20.155 6.17297 20.155 5.34497C20.155 4.51697 19.483 3.84497 18.655 3.84497C17.827 3.84497 17.155 4.51697 17.155 5.34497C17.155 6.17297 17.827 6.84497 18.655 6.84497ZM11.314 7.43597L10.253 8.49697L13.522 11.766C12.687 12.164 11.657 12.017 10.966 11.325L9.196 9.55497L8.227 10.524L8.983 16.195L10.47 15.997L10.001 12.478C11.284 13.675 13.202 13.804 14.621 12.865L15.557 13.801L16.618 12.74L15.682 11.804C15.994 11.333 16.189 10.806 16.266 10.267L17.678 11.679L18.739 10.618L13.436 5.31497L12.375 6.37597L14.145 8.14597C14.837 8.83797 14.984 9.86997 14.584 10.706L11.314 7.43597Z" fill="#202022"/>
</g>
</svg>
