<svg width="24" height="24" viewBox="0 0 24 24" fill="none" xmlns="http://www.w3.org/2000/svg">
<g id="Type=Filled">
<path id="Vector" d="M12.809 1.09497L1.095 12.809L11.192 22.906L22.906 11.192V1.09497H12.809ZM20.155 5.34497C20.155 6.17297 19.483 6.84497 18.655 6.84497C17.827 6.84497 17.155 6.17297 17.155 5.34497C17.155 4.51697 17.827 3.84497 18.655 3.84497C19.483 3.84497 20.155 4.51697 20.155 5.34497ZM12.602 8.21597C13.725 7.09297 15.545 7.09297 16.668 8.21597C17.791 9.33897 17.791 11.159 16.668 12.282L16.226 12.724L15.165 11.663L15.607 11.221C16.144 10.684 16.144 9.81297 15.607 9.27597C15.07 8.73897 14.199 8.73897 13.662 9.27597L12.336 10.602L13.927 12.193L12.866 13.254L11.275 11.663L10.038 12.9C9.72 13.218 9.343 13.442 8.942 13.572L12.159 16.789L11.098 17.85L6.148 12.9L7.209 11.839C7.697 12.327 8.489 12.327 8.977 11.839L10.214 10.602L9.33 9.71797L10.391 8.65697L11.275 9.54097L12.601 8.21497L12.602 8.21597Z" fill="#202022"/>
</g>
</svg>
