<svg width="24" height="24" viewBox="0 0 24 24" fill="none" xmlns="http://www.w3.org/2000/svg">
<g id="Type=Outline">
<path id="Vector" d="M20.155 5.34497C20.155 6.17297 19.483 6.84497 18.655 6.84497C17.827 6.84497 17.155 6.17297 17.155 5.34497C17.155 4.51697 17.827 3.84497 18.655 3.84497C19.483 3.84497 20.155 4.51697 20.155 5.34497Z" fill="#202022"/>
<path id="Vector_2" d="M16.779 8.05404C15.656 6.93104 13.836 6.93104 12.713 8.05404L11.387 9.38004L10.503 8.49604L9.44201 9.55704L10.326 10.441L9.08901 11.678C8.60101 12.166 7.80901 12.166 7.32101 11.678L6.26001 12.739L11.21 17.689L12.271 16.628L9.05401 13.411C9.45501 13.281 9.83201 13.057 10.15 12.739L11.387 11.502L12.978 13.093L14.039 12.032L12.448 10.441L13.774 9.11504C14.311 8.57804 15.182 8.57804 15.719 9.11504C16.256 9.65204 16.256 10.523 15.719 11.059L15.277 11.501L16.338 12.562L16.78 12.12C17.903 10.997 17.903 9.17704 16.78 8.05404H16.779Z" fill="#202022"/>
<path id="Vector_3" d="M12.809 1.09497H22.906V11.192L11.192 22.906L1.095 12.809L12.809 1.09497ZM13.43 2.59497L3.216 12.809L11.191 20.785L21.405 10.571V2.59497H13.429H13.43Z" fill="#202022"/>
</g>
</svg>
