<svg width="24" height="24" viewBox="0 0 24 24" fill="none" xmlns="http://www.w3.org/2000/svg">
<g id="Type=Outline">
<path id="Vector" d="M12.809 1.09497H22.906V11.192L11.192 22.906L1.09497 12.809L12.809 1.09497ZM13.43 2.59497L3.21597 12.809L11.191 20.785L21.405 10.571V2.59497H13.429H13.43Z" fill="#202022"/>
<path id="Vector_2" d="M20.155 5.34497C20.155 6.17297 19.483 6.84497 18.655 6.84497C17.827 6.84497 17.155 6.17297 17.155 5.34497C17.155 4.51697 17.827 3.84497 18.655 3.84497C19.483 3.84497 20.155 4.51697 20.155 5.34497Z" fill="#202022"/>
<path id="Vector_3" d="M15.966 9.14505L17.203 7.90805L16.142 6.84705L14.905 8.08405C13.929 7.10805 12.346 7.10805 11.37 8.08405C10.394 9.06005 10.394 10.643 11.37 11.62L12.431 12.681C12.821 13.071 12.821 13.705 12.431 14.095C12.041 14.485 11.407 14.485 11.017 14.095L8.71898 11.797L7.65798 12.858L8.89498 14.095L7.65698 15.333L8.71798 16.394L9.95598 15.156C10.932 16.132 12.515 16.132 13.492 15.156C14.469 14.18 14.468 12.597 13.492 11.62L12.431 10.559C12.04 10.169 12.04 9.53505 12.431 9.14505C12.822 8.75505 13.455 8.75405 13.845 9.14505L16.143 11.443L17.204 10.382L15.966 9.14405V9.14505Z" fill="#202022"/>
</g>
</svg>
