<svg width="24" height="24" viewBox="0 0 24 24" fill="none" xmlns="http://www.w3.org/2000/svg">
<g id="Type=Outline">
<path id="Vector" d="M12.809 1.09497H22.906V11.192L11.192 22.906L1.095 12.809L12.809 1.09497ZM13.43 2.59497L3.216 12.809L11.191 20.785L21.405 10.571V2.59497H13.429H13.43ZM20.155 5.34497C20.155 6.17297 19.483 6.84497 18.655 6.84497C17.827 6.84497 17.155 6.17297 17.155 5.34497C17.155 4.51697 17.827 3.84497 18.655 3.84497C19.483 3.84497 20.155 4.51697 20.155 5.34497ZM12.021 9.86797L13.612 11.459L14.673 10.398L13.093 8.81797C13.876 8.20597 15.011 8.26097 15.731 8.98097C16.451 9.70097 16.506 10.836 15.894 11.619L16.959 12.684C18.153 11.311 18.098 9.22697 16.791 7.91997C15.484 6.61297 13.4 6.55697 12.027 7.75197L11.137 6.86197L10.076 7.92297L10.96 8.80697L9.899 9.86797L9.015 8.98397L7.954 10.045L8.844 10.935C7.649 12.309 7.705 14.392 9.012 15.699C10.319 17.006 12.403 17.061 13.776 15.867L12.711 14.802C11.928 15.413 10.794 15.359 10.073 14.638C9.352 13.917 9.298 12.783 9.909 12L11.489 13.58L12.55 12.519L10.959 10.928L12.02 9.86697L12.021 9.86797Z" fill="#202022"/>
</g>
</svg>
