<svg width="24" height="24" viewBox="0 0 24 24" fill="none" xmlns="http://www.w3.org/2000/svg">
<g id="Type=Filled">
<path id="Vector" d="M12.809 1.09497L1.09497 12.809L11.192 22.906L22.906 11.192V1.09497H12.809ZM20.155 5.34497C20.155 6.17297 19.483 6.84497 18.655 6.84497C17.827 6.84497 17.155 6.17297 17.155 5.34497C17.155 4.51697 17.827 3.84497 18.655 3.84497C19.483 3.84497 20.155 4.51697 20.155 5.34497ZM10.564 9.19297L9.67997 8.30897L10.741 7.24797L11.631 8.13797C13.005 6.94297 15.088 6.99897 16.395 8.30597C17.702 9.61297 17.758 11.697 16.563 13.07L15.498 12.005C16.109 11.222 16.055 10.087 15.335 9.36697C14.615 8.64697 13.48 8.59197 12.697 9.20397L14.277 10.784L13.216 11.845L11.625 10.254L10.564 11.315L12.155 12.906L11.094 13.967L9.51397 12.387C8.90197 13.17 8.95697 14.305 9.67697 15.025C10.397 15.745 11.532 15.8 12.315 15.188L13.38 16.253C12.007 17.447 9.92297 17.392 8.61597 16.085C7.30897 14.778 7.25297 12.694 8.44797 11.321L7.55797 10.431L8.61897 9.36997L9.50297 10.254L10.564 9.19297Z" fill="#202022"/>
</g>
</svg>
