<svg width="24" height="24" viewBox="0 0 24 24" fill="none" xmlns="http://www.w3.org/2000/svg">
<g id="Type=Filled">
<path id="Vector" d="M12.809 1.09497H22.906V11.192L11.192 22.906L1.095 12.809L12.809 1.09497ZM18.655 6.84497C19.483 6.84497 20.155 6.17297 20.155 5.34497C20.155 4.51697 19.483 3.84497 18.655 3.84497C17.827 3.84497 17.155 4.51697 17.155 5.34497C17.155 6.17297 17.827 6.84497 18.655 6.84497ZM11.625 11.314L10.564 12.375L8.973 10.784L7.912 11.845L9.503 13.436L8.089 14.85L9.15 15.911L10.564 14.497L12.155 16.088L13.216 15.027L11.625 13.436L12.686 12.375L14.277 13.966L15.338 12.905L14.144 11.711H18.343V10.211H13.79V5.65797H12.29V9.85697L11.096 8.66297L10.035 9.72397L11.626 11.315L11.625 11.314Z" fill="#202022"/>
</g>
</svg>
