<svg width="24" height="24" viewBox="0 0 24 24" fill="none" xmlns="http://www.w3.org/2000/svg">
<g id="Type=Outline">
<path id="Vector" d="M18.655 6.84497C19.483 6.84497 20.155 6.17297 20.155 5.34497C20.155 4.51697 19.483 3.84497 18.655 3.84497C17.827 3.84497 17.155 4.51697 17.155 5.34497C17.155 6.17297 17.827 6.84497 18.655 6.84497Z" fill="#202022"/>
<path id="Vector_2" d="M11.314 7.43594L14.584 10.7059C14.984 9.86994 14.838 8.83794 14.145 8.14594L12.375 6.37594L13.436 5.31494L18.739 10.6179L17.678 11.6789L16.266 10.2669C16.189 10.8069 15.995 11.3329 15.682 11.8039L16.618 12.7399L15.557 13.8009L14.621 12.8649C13.201 13.8039 11.283 13.6749 10.001 12.4779L10.47 15.9969L8.98299 16.1949L8.22699 10.5239L9.19599 9.55494L10.966 11.3249C11.657 12.0169 12.687 12.1629 13.522 11.7659L10.253 8.49694L11.314 7.43594Z" fill="#202022"/>
<path id="Vector_3" d="M22.905 1.09497H12.808L1.09399 12.809L11.191 22.906L22.905 11.192V1.09497ZM3.21599 12.808L13.43 2.59397H21.406V10.57L11.192 20.784L3.21599 12.808Z" fill="#202022"/>
</g>
</svg>
