<svg width="24" height="24" viewBox="0 0 24 24" fill="none" xmlns="http://www.w3.org/2000/svg">
<g id="Type=Filled">
<path id="Shape" d="M17.16 7.64339C14.75 4.80339 10.49 4.45339 7.65 6.86339C6.75 7.62339 6.1 8.57339 5.71 9.60339L7.76 12.0234L5.49 13.9434C5.87 14.8134 6.25 15.6534 6.87 16.3834C9.28 19.2234 13.54 19.5734 16.38 17.1634C17.28 16.4034 17.93 15.4534 18.32 14.4234L16.27 12.0034L18.53 10.0834C18.16 9.21339 17.78 8.37339 17.16 7.64339ZM12.01 7.50339C13.11 7.50339 14.01 8.40339 14.01 9.50339C14.01 10.6034 13.11 11.5034 12.01 11.5034C10.91 11.5034 10.01 10.6034 10.01 9.50339C10.01 8.40339 10.91 7.50339 12.01 7.50339ZM15.51 16.0034H8.51V15.2634C8.51 13.7734 9.72 12.5634 11.21 12.5634H12.81C14.3 12.5634 15.51 13.7734 15.51 15.2634V16.0034ZM4.67 10.6934L3.78 11.4434C3.93 9.29339 4.91 7.21339 6.68 5.71339C10.16 2.76339 15.36 3.19339 18.31 6.67339C18.86 7.32339 19.29 8.03339 19.61 8.77339L20.99 8.18339C20.61 7.30339 20.1 6.46339 19.45 5.69339C15.96 1.59339 9.81 1.08339 5.7 4.56339C3.6 6.34339 2.45 8.81339 2.28 11.3534L1.5 10.4234L0.360001 11.3934L2.79 14.2534L5.65 11.8234L4.68 10.6834L4.67 10.6934ZM21.24 9.75339L18.38 12.1734L19.35 13.3134L20.24 12.5634C20.09 14.7134 19.11 16.7934 17.34 18.2934C13.86 21.2434 8.66 20.8134 5.71 17.3334C5.17 16.7034 4.75 16.0134 4.43 15.2834L3.05 15.8834C3.42 16.7434 3.92 17.5534 4.56 18.3034C8.04 22.4134 14.19 22.9134 18.3 19.4334C20.4 17.6534 21.55 15.1834 21.72 12.6434L22.5 13.5734L23.64 12.6034L21.21 9.74339L21.24 9.75339Z" fill="#202022"/>
</g>
</svg>
