<svg width="24" height="24" viewBox="0 0 24 24" fill="none" xmlns="http://www.w3.org/2000/svg">
<g id="Type=Outline">
<g id="Shape">
<path d="M18.2928 6.66494C15.3464 3.18949 10.1404 2.76065 6.66495 5.7071C4.89528 7.20741 3.91516 9.29309 3.76897 11.4398L4.65849 10.6857L5.62849 11.8298L2.7681 14.2548L0.343095 11.3944L1.48725 10.4244L2.2717 11.3497C2.44172 8.81104 3.59967 6.3393 5.69494 4.56294C9.80229 1.08078 15.9548 1.58758 19.437 5.69493C20.087 6.46165 20.5987 7.30082 20.9737 8.18143L19.5936 8.76915C19.277 8.02551 18.8444 7.3155 18.2928 6.66494Z" fill="#202022"/>
<path d="M17.335 18.2928C19.1047 16.7924 20.0847 14.7069 20.231 12.5602L19.3415 13.3142L18.3715 12.1701L21.2319 9.74508L23.6569 12.6055L22.5127 13.5755L21.7283 12.6501C21.5583 15.1888 20.4002 17.6607 18.305 19.437C14.1976 22.9191 8.04513 22.4123 4.56296 18.305C3.92982 17.5582 3.4279 16.7426 3.05569 15.887L4.43119 15.2886C4.74552 16.0112 5.16988 16.7013 5.70711 17.335C8.65356 20.8104 13.8595 21.2393 17.335 18.2928Z" fill="#202022"/>
<path d="M14 9.49996C14 10.6045 13.1046 11.5 12 11.5C10.8954 11.5 10 10.6045 10 9.49996C10 8.39539 10.8954 7.49996 12 7.49996C13.1046 7.49996 14 8.39539 14 9.49996Z" fill="#202022"/>
<path d="M11.2 12.5625C9.70883 12.5625 8.5 13.7713 8.5 15.2625V16H15.5V15.2625C15.5 13.7713 14.2912 12.5625 12.8 12.5625H11.2Z" fill="#202022"/>
</g>
</g>
</svg>
