<svg width="24" height="24" viewBox="0 0 24 24" fill="none" xmlns="http://www.w3.org/2000/svg">
<g id="Rewind 10 Seconds">
<path id="Vector" d="M14.121 1.57199L13.06 0.510986L9.701 3.86999L13.06 7.22899L14.121 6.16799L12.454 4.50099C14.541 4.60899 16.594 5.45899 18.187 7.05199C21.604 10.469 21.604 16.009 18.187 19.426C14.77 22.843 9.23 22.843 5.813 19.426C4.044 17.657 3.19 15.319 3.253 13H1.753C1.69 15.701 2.69 18.424 4.752 20.487C8.755 24.49 15.245 24.49 19.248 20.487C23.251 16.484 23.251 9.99399 19.248 5.99099C17.42 4.16299 15.072 3.16999 12.682 3.01099L14.122 1.57099L14.121 1.57199Z" fill="#202022"/>
<path id="Vector_2" d="M11.098 11.658C11.098 10.132 12.335 8.89502 13.861 8.89502C15.387 8.89502 16.624 10.132 16.624 11.658V14.342C16.624 15.868 15.387 17.105 13.861 17.105C12.335 17.105 11.098 15.868 11.098 14.342V11.658ZM13.862 10.395C13.164 10.395 12.599 10.961 12.599 11.658V14.342C12.599 15.04 13.165 15.605 13.862 15.605C14.559 15.605 15.125 15.039 15.125 14.342V11.658C15.125 10.96 14.559 10.395 13.862 10.395Z" fill="#202022"/>
<path id="Vector_3" d="M7.375 9.02899H9.914V16.937H8.414V10.529H7.375V9.02899Z" fill="#202022"/>
</g>
</svg>
