<svg width="24" height="24" viewBox="0 0 24 24" fill="none" xmlns="http://www.w3.org/2000/svg">
<g id="Type=Filled">
<path id="Vector" d="M14.038 2.16299C16.088 0.112988 19.412 0.112988 21.463 2.16299C23.514 4.21299 23.513 7.53699 21.463 9.58799L17.751 13.3L14.039 9.58799C11.989 7.53799 11.988 4.21399 14.038 2.16299ZM17.75 7.62499C18.716 7.62499 19.5 6.84199 19.5 5.87499C19.5 4.90799 18.717 4.12499 17.75 4.12499C16.784 4.12499 16 4.90799 16 5.87499C16 6.84199 16.783 7.62499 17.75 7.62499Z" fill="#202022"/>
<path id="Vector_2" d="M2.957 12.143L2.1 14.706C1.42 15.388 1 16.334 1 17.375V22.375C1 22.927 1.448 23.375 2 23.375H3C3.552 23.375 4 22.927 4 22.375V21.125H13.5V22.375C13.5 22.927 13.948 23.375 14.5 23.375H15.5C16.052 23.375 16.5 22.927 16.5 22.375V19.642C16.5 19.636 16.5 19.63 16.5 19.625V17.375C16.5 16.335 16.08 15.388 15.4 14.706L14.543 12.143C14.04 10.638 12.629 9.625 11.041 9.625H6.457C4.87 9.625 3.458 10.638 2.955 12.143H2.957ZM13.478 13.687C13.259 13.646 13.034 13.625 12.803 13.625H4.698C4.467 13.625 4.241 13.646 4.023 13.687L4.38 12.618C4.678 11.727 5.514 11.124 6.459 11.124H11.043C11.987 11.124 12.824 11.727 13.122 12.618L13.479 13.687H13.478ZM4.732 18.375C4.18 18.375 3.732 17.927 3.732 17.375C3.732 16.823 4.18 16.375 4.732 16.375C5.284 16.375 5.732 16.823 5.732 17.375C5.732 17.927 5.284 18.375 4.732 18.375ZM12.75 18.375C12.198 18.375 11.75 17.927 11.75 17.375C11.75 16.823 12.198 16.375 12.75 16.375C13.302 16.375 13.75 16.823 13.75 17.375C13.75 17.927 13.302 18.375 12.75 18.375ZM10.241 16.875V17.875H7.241V16.875H10.241Z" fill="#202022"/>
</g>
</svg>
