<svg width="24" height="24" viewBox="0 0 24 24" fill="none" xmlns="http://www.w3.org/2000/svg">
<g id="Type=Outline">
<path id="Vector" d="M17.75 7.625C18.716 7.625 19.5 6.842 19.5 5.875C19.5 4.908 18.717 4.125 17.75 4.125C16.784 4.125 16 4.908 16 5.875C16 6.842 16.783 7.625 17.75 7.625Z" fill="#202022"/>
<path id="Vector_2" d="M14.038 2.16299C16.088 0.112988 19.412 0.112988 21.463 2.16299C23.514 4.21299 23.513 7.53699 21.463 9.58799L17.751 13.3L14.039 9.58799C11.989 7.53799 11.988 4.21399 14.038 2.16299ZM20.402 3.22299C18.938 1.75899 16.563 1.75899 15.099 3.22299C13.635 4.68699 13.635 7.06199 15.099 8.52599L17.751 11.178L20.403 8.52599C21.867 7.06199 21.866 4.68699 20.402 3.22299Z" fill="#202022"/>
<path id="Vector_3" d="M4.73199 18.375C5.28399 18.375 5.73199 17.927 5.73199 17.375C5.73199 16.823 5.28399 16.375 4.73199 16.375C4.17999 16.375 3.73199 16.823 3.73199 17.375C3.73199 17.927 4.17999 18.375 4.73199 18.375Z" fill="#202022"/>
<path id="Vector_4" d="M13.75 17.375C13.75 17.927 13.302 18.375 12.75 18.375C12.198 18.375 11.75 17.927 11.75 17.375C11.75 16.823 12.198 16.375 12.75 16.375C13.302 16.375 13.75 16.823 13.75 17.375Z" fill="#202022"/>
<path id="Vector_5" d="M10.241 16.875H7.24103V17.875H10.241V16.875Z" fill="#202022"/>
<path id="Vector_6" d="M2.95698 12.143C3.45998 10.638 4.87098 9.625 6.45898 9.625H11.043C12.63 9.625 14.042 10.638 14.544 12.143L15.401 14.706C16.081 15.388 16.501 16.335 16.501 17.375V22.375C16.501 22.927 16.053 23.375 15.501 23.375H14.501C13.949 23.375 13.501 22.927 13.501 22.375V21.125H4.00098V22.375C4.00098 22.927 3.55298 23.375 3.00098 23.375H2.00098C1.44898 23.375 1.00098 22.927 1.00098 22.375V17.375C1.00098 16.335 1.42098 15.388 2.10098 14.706L2.95698 12.143ZM13.121 12.618C12.823 11.727 11.987 11.124 11.042 11.124H6.45798C5.51398 11.124 4.67698 11.727 4.37898 12.618L4.02198 13.687C4.24098 13.646 4.46598 13.625 4.69698 13.625H12.802C13.033 13.625 13.259 13.646 13.477 13.687L13.12 12.618H13.121ZM4.69698 15.125C3.49598 15.125 2.49998 16.12 2.49998 17.375V19.625H15V17.375C15 16.12 14.004 15.125 12.803 15.125H4.69698Z" fill="#202022"/>
</g>
</svg>
