<svg width="116" height="16" viewBox="0 0 116 16" fill="none" xmlns="http://www.w3.org/2000/svg">
<path d="M3.14605 4.43636C3.14605 2.67636 2.22371 1.22182 0.5 0H4.50687C5.91306 1.04727 6.77491 2.64727 6.77491 4.43636C6.77491 6.22545 5.91306 7.82545 4.50687 8.87273C5.80722 9.39636 6.54811 10.6764 6.54811 12.5091V16H2.91924V12.5091C2.91924 10.7636 2.05739 9.54182 0.5 8.87273C2.22371 7.65091 3.14605 6.19636 3.14605 4.43636ZM11.0086 4.43636C11.0086 2.67636 10.0863 1.22182 8.36254 0H12.3694C13.7756 1.04727 14.6375 2.64727 14.6375 4.43636C14.6375 6.22545 13.7756 7.82545 12.3694 8.87273C13.6698 9.39636 14.4107 10.6764 14.4107 12.5091V16H10.7818V12.5091C10.7818 10.7636 9.91993 9.54182 8.36254 8.87273C10.0863 7.65091 11.0086 6.19636 11.0086 4.43636ZM18.8711 4.43636C18.8711 2.67636 17.9488 1.22182 16.2251 0H20.232C21.6381 1.04727 22.5 2.64727 22.5 4.43636C22.5 6.22545 21.6381 7.82545 20.232 8.87273C21.5323 9.39636 22.2732 10.6764 22.2732 12.5091V16H18.6443V12.5091C18.6443 10.7636 17.7825 9.54182 16.2251 8.87273C17.9488 7.65091 18.8711 6.19636 18.8711 4.43636Z" fill="white"/>
<path d="M33.0678 13.0923H30.3578V2.90906H37.0137C40.2151 2.90906 41.7935 4.07269 41.7935 5.97815C41.7935 7.27269 41.0192 8.24724 39.5748 8.74179C41.0638 8.95997 41.7339 9.73088 41.7339 11.1127V13.0909H38.9941V11.2291C38.9941 10.0654 38.3985 9.59997 36.835 9.59997H33.0678V13.0909V13.0923ZM36.8648 4.39269H33.0678V8.11633H36.835C38.2049 8.11633 39.0537 7.37451 39.0537 6.21088C39.0537 5.04724 38.2645 4.39269 36.8648 4.39269Z" fill="white"/>
<path d="M46.4988 2.90909H43.7887V13.0924H46.4988V2.90909Z" fill="white"/>
<path d="M54.8075 9.77454H51.5019V13.0909H48.7919V2.90909H54.8671C58.0685 2.90909 59.751 4.21818 59.751 6.31272C59.751 8.40727 58.0387 9.77454 54.8075 9.77454ZM54.7479 4.39272H51.5019V8.29091H54.7182C56.1178 8.29091 56.9815 7.59272 56.9815 6.32727C56.9815 5.06182 56.1178 4.39272 54.7479 4.39272Z" fill="white"/>
<path d="M67.3749 9.77454H64.0692V13.0909H61.3592V2.90909H67.4344C70.6358 2.90909 72.3184 4.21818 72.3184 6.31272C72.3184 8.40727 70.606 9.77454 67.3749 9.77454ZM67.3153 4.39272H64.0692V8.29091H67.2855C68.6852 8.29091 69.5488 7.59272 69.5488 6.32727C69.5488 5.06182 68.6852 4.39272 67.3153 4.39272Z" fill="white"/>
<path d="M76.6366 2.90909V11.5782H83.3967V13.0924H73.9265V2.90909H76.6366Z" fill="white"/>
<path d="M87.8027 2.90909H85.0927V13.0924H87.8027V2.90909Z" fill="white"/>
<path d="M91.8827 6.31273V13.0924H90.0958V2.90909H92.1224L99.5079 9.68727V2.90909H101.295V13.0924H99.2697L91.8827 6.31273Z" fill="white"/>
<path d="M110.14 4.10182C107.564 4.10182 105.881 5.70182 105.881 8.08728C105.881 10.4727 107.489 11.8982 109.991 11.8982H110.169C111.018 11.8982 111.971 11.7236 112.85 11.4473V8.69819H108.472V7.24364H115.5V12.0291C114.041 12.7709 111.837 13.3527 110.05 13.3527H109.812C105.702 13.3527 103.052 11.2291 103.052 8.14546C103.052 5.06182 105.777 2.64728 109.961 2.64728H110.199C111.941 2.64728 113.937 3.18546 115.411 4.0291L114.636 5.26546C113.311 4.55273 111.733 4.10182 110.318 4.10182H110.14Z" fill="white"/>
</svg>
