<svg width="24" height="24" viewBox="0 0 24 24" fill="none" xmlns="http://www.w3.org/2000/svg">
<g id="Rippling">
<path id="Vector" d="M3.6528 7.71467C3.6528 5.84467 2.72625 4.29767 1.00552 3H5.00953C6.41589 4.11067 7.27626 5.81067 7.27626 7.71467C7.27626 9.61867 6.41589 11.313 5.00953 12.4293C6.31111 12.9847 7.05014 14.3447 7.05014 16.294V20H3.42116V16.294C3.42116 14.441 2.56079 13.1433 1 12.4293C2.72073 11.1317 3.64728 9.58467 3.64728 7.71467H3.6528ZM11.5119 7.71467C11.5119 5.84467 10.5909 4.29767 8.86463 3H12.8686C14.275 4.11067 15.1354 5.81067 15.1354 7.71467C15.1354 9.61867 14.275 11.313 12.8686 12.4293C14.1702 12.9847 14.9092 14.3447 14.9092 16.294V20H11.2803V16.294C11.2803 14.441 10.4199 13.1433 8.85911 12.4293C10.5798 11.1317 11.5064 9.58467 11.5064 7.71467H11.5119ZM19.3765 7.71467C19.3765 5.84467 18.4555 4.29767 16.7293 3H20.7333C22.1396 4.11067 23 5.81067 23 7.71467C23 9.61867 22.1396 11.313 20.7333 12.4293C22.0348 12.9847 22.7739 14.3447 22.7739 16.294V20H19.1449V16.294C19.1449 14.441 18.2845 13.1433 16.7237 12.4293C18.4445 11.1317 19.371 9.58467 19.371 7.71467H19.3765Z" fill="#202022"/>
</g>
</svg>
