<svg width="24" height="24" viewBox="0 0 24 24" fill="none" xmlns="http://www.w3.org/2000/svg">
<g id="Type=Outline">
<path id="Vector" d="M11.25 14.5V8.5H12.75V14.5H11.25Z" fill="#202022"/>
<path id="Vector_2" d="M12 18C12.552 18 13 17.552 13 17C13 16.448 12.552 16 12 16C11.448 16 11 16.448 11 17C11 17.552 11.448 18 12 18Z" fill="#202022"/>
<path id="Vector_3" d="M6.5 1.75H19.766V3.25H6.5C6.086 3.25 5.75 3.586 5.75 4C5.75 4.414 6.086 4.75 6.5 4.75H19.75V22.25H4.25V4C4.25 2.757 5.257 1.75 6.5 1.75ZM5.75 6.122V20.75H18.25V6.25H6.5C6.237 6.25 5.985 6.205 5.75 6.122Z" fill="#202022"/>
</g>
</svg>
