<svg width="24" height="24" viewBox="0 0 24 24" fill="none" xmlns="http://www.w3.org/2000/svg">
<g id="Type=Outline">
<path id="Vector" d="M1 4.75H23V3.25H1V4.75Z" fill="#202022"/>
<path id="Vector_2" d="M1 20.75H23V19.25H1V20.75Z" fill="#202022"/>
<path id="Vector_3" d="M9.75 10.5C9.75 8.843 11.093 7.5 12.75 7.5C14.407 7.5 15.75 8.843 15.75 10.5V13.5C15.75 15.157 14.407 16.5 12.75 16.5C11.093 16.5 9.75 15.157 9.75 13.5V10.5ZM12.75 9C11.922 9 11.25 9.672 11.25 10.5V13.5C11.25 14.328 11.922 15 12.75 15C13.578 15 14.25 14.328 14.25 13.5V10.5C14.25 9.672 13.578 9 12.75 9Z" fill="#202022"/>
<path id="Vector_4" d="M18.25 9.25H16.5V7.75H21.5V9.25H19.75V14.75H21.5V16.25H16.5V14.75H18.25V9.25Z" fill="#202022"/>
<path id="Vector_5" d="M2.56201 7.75H5.81201C7.33101 7.75 8.56201 8.981 8.56201 10.5C8.56201 11.723 7.76301 12.76 6.65901 13.117L8.85201 16.25H7.02101L4.92101 13.25H4.06201V16.25H2.56201V7.75ZM4.06201 11.75H5.81201C6.50201 11.75 7.06201 11.19 7.06201 10.5C7.06201 9.81 6.50201 9.25 5.81201 9.25H4.06201V11.75Z" fill="#202022"/>
</g>
</svg>
