<svg width="24" height="24" viewBox="0 0 24 24" fill="none" xmlns="http://www.w3.org/2000/svg">
<g id="Type=Filled">
<path id="Vector" d="M12.75 9C11.922 9 11.25 9.672 11.25 10.5V13.5C11.25 14.328 11.922 15 12.75 15C13.578 15 14.25 14.328 14.25 13.5V10.5C14.25 9.672 13.578 9 12.75 9Z" fill="#202022"/>
<path id="Vector_2" d="M5.81299 11.75H4.06299V9.25H5.81299C6.50299 9.25 7.06299 9.81 7.06299 10.5C7.06299 11.19 6.50299 11.75 5.81299 11.75Z" fill="#202022"/>
<path id="Vector_3" d="M24 4H0V20H24V4ZM9.75 10.5C9.75 8.843 11.093 7.5 12.75 7.5C14.407 7.5 15.75 8.843 15.75 10.5V13.5C15.75 15.157 14.407 16.5 12.75 16.5C11.093 16.5 9.75 15.157 9.75 13.5V10.5ZM19.75 9.25V14.75H21.5V16.25H16.5V14.75H18.25V9.25H16.5V7.75H21.5V9.25H19.75ZM5.813 7.75C7.332 7.75 8.563 8.981 8.563 10.5C8.563 11.723 7.765 12.76 6.66 13.117L8.853 16.25H7.022L4.922 13.25H4.062V16.25H2.562V7.75H5.812H5.813Z" fill="#202022"/>
</g>
</svg>
