<svg width="24" height="24" viewBox="0 0 24 24" fill="none" xmlns="http://www.w3.org/2000/svg">
<g id="Type=Outline">
<g id="Shape">
<path d="M14.7382 9.74117C14.7382 10.9408 13.9684 11.9605 12.8963 12.3321L14.2359 17H9.7554L11.1038 12.3321C10.0317 11.9605 9.26196 10.9408 9.26196 9.74117C9.26196 8.22726 10.4879 7 12.0001 7C13.5123 7 14.7382 8.22726 14.7382 9.74117Z" fill="#202022"/>
<path fill-rule="evenodd" clip-rule="evenodd" d="M12 1.75C6.33908 1.75 1.75 6.33908 1.75 12C1.75 17.6609 6.33908 22.25 12 22.25C17.6609 22.25 22.25 17.6609 22.25 12C22.25 6.33908 17.6609 1.75 12 1.75ZM3.25 12C3.25 7.16751 7.16751 3.25 12 3.25C16.8325 3.25 20.75 7.16751 20.75 12C20.75 16.8325 16.8325 20.75 12 20.75C7.16751 20.75 3.25 16.8325 3.25 12Z" fill="#202022"/>
</g>
</g>
</svg>
