<svg width="24" height="24" viewBox="0 0 24 24" fill="none" xmlns="http://www.w3.org/2000/svg">
<g id="Type=Outline">
<path id="Vector" d="M13.383 11.25H8V9.75H13.383C13.074 8.876 12.241 8.25 11.261 8.25H8V6.75H16.5V8.25H14.261C14.588 8.686 14.823 9.196 14.936 9.75H16.5V11.25H14.936C14.588 12.962 13.075 14.25 11.261 14.25H10.23L14.258 17.947L13.244 19.052L8.001 14.239V12.749H11.262C12.242 12.749 13.075 12.123 13.384 11.249L13.383 11.25Z" fill="#202022"/>
<path id="Vector_2" d="M12 1.75C6.339 1.75 1.75 6.339 1.75 12C1.75 17.661 6.339 22.25 12 22.25C17.661 22.25 22.25 17.661 22.25 12C22.25 6.339 17.661 1.75 12 1.75ZM3.25 12C3.25 7.168 7.168 3.25 12 3.25C16.832 3.25 20.75 7.168 20.75 12C20.75 16.833 16.832 20.75 12 20.75C7.168 20.75 3.25 16.832 3.25 12Z" fill="#202022"/>
</g>
</svg>
