<svg width="24" height="24" viewBox="0 0 24 24" fill="none" xmlns="http://www.w3.org/2000/svg">
<g id="Type=Filled">
<path id="Vector" d="M1.75 12C1.75 17.661 6.339 22.25 12 22.25C17.661 22.25 22.25 17.661 22.25 12C22.25 6.339 17.661 1.75 12 1.75C6.339 1.75 1.75 6.339 1.75 12ZM11.011 7.75H7.75V6.25H16.25V7.75H14.011C14.338 8.186 14.573 8.696 14.686 9.25H16.25V10.75H14.686C14.338 12.462 12.825 13.75 11.011 13.75H9.98L14.008 17.448L12.994 18.553L7.751 13.74V12.25H11.012C11.992 12.25 12.825 11.624 13.134 10.75H7.751V9.25H13.134C12.825 8.376 11.992 7.75 11.012 7.75H11.011Z" fill="#202022"/>
</g>
</svg>
