<svg width="24" height="24" viewBox="0 0 24 24" fill="none" xmlns="http://www.w3.org/2000/svg">
<g id="Type=Outline">
<path id="Vector" d="M18.689 4.25H14.5V2.75H21.25V9.5H19.75V5.311L4.06002 21.001L2.99902 19.94L18.689 4.25Z" fill="#202022"/>
<path id="Vector_2" d="M3.5 6.25C3.5 4.317 5.067 2.75 7 2.75C8.933 2.75 10.5 4.317 10.5 6.25C10.5 8.183 8.933 9.75 7 9.75C5.067 9.75 3.5 8.183 3.5 6.25ZM7 4.25C5.895 4.25 5 5.145 5 6.25C5 7.355 5.895 8.25 7 8.25C8.105 8.25 9 7.355 9 6.25C9 5.145 8.105 4.25 7 4.25Z" fill="#202022"/>
<path id="Vector_3" d="M17 14.25C15.067 14.25 13.5 15.817 13.5 17.75C13.5 19.683 15.067 21.25 17 21.25C18.933 21.25 20.5 19.683 20.5 17.75C20.5 15.817 18.933 14.25 17 14.25ZM15 17.75C15 16.645 15.895 15.75 17 15.75C18.105 15.75 19 16.645 19 17.75C19 18.855 18.105 19.75 17 19.75C15.895 19.75 15 18.855 15 17.75Z" fill="#202022"/>
</g>
</svg>
