<svg width="24" height="24" viewBox="0 0 24 24" fill="none" xmlns="http://www.w3.org/2000/svg">
<g id="Salesforce">
<path id="Vector" d="M14.853 11.617C14.853 11.804 14.819 11.954 14.747 12.06C14.679 12.162 14.576 12.213 14.432 12.213C14.288 12.213 14.185 12.162 14.117 12.06C14.049 11.953 14.015 11.804 14.015 11.617C14.015 11.43 14.049 11.28 14.117 11.178C14.185 11.076 14.287 11.025 14.432 11.025C14.577 11.025 14.679 11.076 14.747 11.178C14.819 11.28 14.853 11.429 14.853 11.617Z" fill="#202022"/>
<path id="Vector_2" d="M18.419 11.438C18.436 11.331 18.462 11.246 18.509 11.178C18.577 11.076 18.68 11.016 18.824 11.016C18.968 11.016 19.063 11.071 19.131 11.178C19.178 11.246 19.195 11.336 19.203 11.438H18.419Z" fill="#202022"/>
<path id="Vector_3" d="M9.688 11.179C9.641 11.247 9.616 11.332 9.599 11.439H10.383C10.374 11.337 10.357 11.247 10.311 11.179C10.243 11.072 10.149 11.017 10.004 11.017C9.859 11.017 9.757 11.077 9.689 11.179H9.688Z" fill="#202022"/>
<path id="Vector_4" d="M7.21699 12.159C7.17399 12.125 7.16599 12.116 7.15299 12.095C7.13199 12.061 7.11899 12.014 7.11899 11.95C7.11899 11.852 7.15299 11.784 7.21699 11.737C7.21699 11.737 7.31099 11.656 7.53699 11.656C7.69499 11.656 7.83499 11.682 7.83499 11.682V12.185C7.83499 12.185 7.69399 12.215 7.53699 12.223C7.31999 12.236 7.21699 12.159 7.21699 12.159Z" fill="#202022"/>
<path id="Vector_5" d="M12.816 5.78799C14.069 5.78799 15.164 6.48699 15.748 7.52699C16.255 7.30099 16.813 7.17299 17.405 7.17299C19.668 7.17299 21.5 9.02199 21.5 11.306C21.5 13.59 19.668 15.439 17.405 15.439C17.128 15.439 16.86 15.409 16.6 15.358C16.089 16.274 15.109 16.892 13.988 16.892C13.519 16.892 13.072 16.785 12.68 16.589C12.16 17.812 10.946 18.673 9.535 18.673C8.065 18.673 6.808 17.744 6.331 16.436C6.122 16.479 5.901 16.504 5.679 16.504C3.919 16.504 2.5 15.072 2.5 13.3C2.5 12.115 3.139 11.08 4.085 10.526C3.889 10.079 3.782 9.57999 3.782 9.05999C3.782 7.02299 5.435 5.37399 7.472 5.37399C8.669 5.37399 9.73 5.94099 10.408 6.82299C11.022 6.18399 11.874 5.78799 12.816 5.78799ZM13.744 10.034C13.735 10.032 13.725 10.03 13.715 10.028C13.672 10.019 13.621 10.015 13.566 10.015C13.366 10.015 13.208 10.07 13.102 10.181C12.991 10.292 12.919 10.458 12.88 10.68L12.867 10.757H12.616C12.616 10.757 12.586 10.757 12.578 10.791L12.535 11.021C12.531 11.042 12.544 11.055 12.569 11.055H12.812L12.565 12.431C12.544 12.542 12.522 12.631 12.501 12.704C12.475 12.772 12.454 12.823 12.424 12.862L12.423 12.863C12.394 12.896 12.368 12.926 12.322 12.938C12.284 12.951 12.241 12.955 12.194 12.955C12.168 12.955 12.13 12.951 12.105 12.946C12.091 12.944 12.081 12.94 12.071 12.937C12.063 12.934 12.055 12.931 12.045 12.929C12.045 12.929 12.015 12.916 12.007 12.946C12.003 12.959 11.985 13.009 11.967 13.059C11.949 13.109 11.931 13.159 11.927 13.172C11.918 13.193 11.931 13.21 11.944 13.214C11.969 13.223 11.987 13.228 12.014 13.235C12.023 13.238 12.034 13.24 12.046 13.244C12.106 13.257 12.161 13.261 12.208 13.261C12.31 13.261 12.4 13.248 12.476 13.219C12.552 13.19 12.621 13.142 12.681 13.078C12.745 13.006 12.788 12.933 12.826 12.831C12.864 12.729 12.898 12.605 12.924 12.46L13.171 11.058H13.533C13.533 11.058 13.563 11.058 13.571 11.024L13.613 10.794C13.617 10.773 13.604 10.76 13.579 10.76H13.225C13.225 10.751 13.242 10.628 13.285 10.513C13.301 10.464 13.333 10.427 13.358 10.397L13.361 10.393C13.387 10.367 13.421 10.346 13.455 10.333C13.489 10.32 13.527 10.316 13.574 10.316C13.608 10.316 13.638 10.32 13.663 10.325C13.673 10.328 13.681 10.33 13.688 10.331C13.704 10.335 13.712 10.337 13.718 10.337C13.752 10.35 13.761 10.337 13.765 10.32L13.85 10.09C13.85 10.072 13.835 10.06 13.828 10.054C13.826 10.053 13.825 10.052 13.825 10.051C13.799 10.041 13.773 10.036 13.744 10.031V10.034ZM5.259 12.314C5.26 12.315 5.261 12.315 5.261 12.316C5.282 12.332 5.305 12.344 5.327 12.357C5.341 12.365 5.354 12.372 5.367 12.38C5.559 12.482 5.742 12.512 5.934 12.512C6.322 12.512 6.565 12.303 6.565 11.971V11.962C6.565 11.655 6.292 11.54 6.037 11.459L6.003 11.45L5.985 11.444C5.801 11.383 5.645 11.331 5.645 11.207V11.198C5.645 11.087 5.743 11.011 5.892 11.011C6.058 11.011 6.258 11.066 6.386 11.139C6.386 11.139 6.424 11.165 6.437 11.126C6.44 11.119 6.449 11.094 6.46 11.063C6.482 11.004 6.512 10.923 6.517 10.912C6.526 10.891 6.513 10.878 6.5 10.869C6.355 10.78 6.151 10.72 5.942 10.72H5.904C5.546 10.72 5.299 10.937 5.299 11.244V11.253C5.299 11.577 5.572 11.683 5.832 11.756L5.875 11.769L5.893 11.775C6.073 11.832 6.224 11.88 6.224 12.008V12.017C6.224 12.136 6.117 12.226 5.951 12.226C5.887 12.226 5.674 12.226 5.448 12.081C5.439 12.075 5.431 12.07 5.423 12.065C5.409 12.057 5.397 12.049 5.384 12.038C5.371 12.029 5.346 12.021 5.333 12.055L5.252 12.272C5.241 12.298 5.253 12.308 5.258 12.313L5.259 12.314ZM10.965 12.314C10.966 12.315 10.967 12.315 10.967 12.316C10.988 12.332 11.011 12.344 11.033 12.357C11.047 12.365 11.06 12.372 11.073 12.38C11.265 12.482 11.448 12.512 11.64 12.512C12.028 12.512 12.271 12.303 12.271 11.971V11.962C12.271 11.655 11.998 11.54 11.743 11.459L11.709 11.45L11.691 11.444C11.507 11.383 11.351 11.331 11.351 11.207V11.198C11.351 11.087 11.449 11.011 11.598 11.011C11.764 11.011 11.964 11.066 12.092 11.139C12.092 11.139 12.13 11.165 12.143 11.126C12.145 11.121 12.15 11.106 12.158 11.087L12.167 11.062C12.189 11.003 12.219 10.924 12.224 10.912C12.233 10.891 12.22 10.878 12.207 10.869C12.062 10.78 11.858 10.72 11.649 10.72H11.611C11.253 10.72 11.006 10.937 11.006 11.244V11.253C11.006 11.577 11.283 11.683 11.539 11.756L11.582 11.769L11.6 11.775C11.78 11.832 11.931 11.88 11.931 12.008V12.017C11.931 12.136 11.824 12.226 11.658 12.226C11.594 12.226 11.381 12.226 11.155 12.081C11.146 12.075 11.138 12.07 11.13 12.065C11.116 12.057 11.104 12.049 11.091 12.038C11.082 12.034 11.053 12.021 11.04 12.055L10.959 12.272C10.948 12.298 10.96 12.308 10.965 12.313V12.314ZM15.177 11.268C15.147 11.161 15.096 11.063 15.028 10.987C14.96 10.906 14.879 10.842 14.777 10.795C14.679 10.748 14.56 10.727 14.427 10.727C14.294 10.727 14.176 10.753 14.078 10.795C13.98 10.842 13.895 10.906 13.827 10.987C13.759 11.068 13.712 11.162 13.678 11.268C13.648 11.375 13.631 11.494 13.631 11.617C13.631 11.74 13.648 11.86 13.678 11.966C13.708 12.073 13.759 12.171 13.827 12.247C13.895 12.328 13.976 12.392 14.078 12.434C14.176 12.481 14.295 12.502 14.427 12.502C14.559 12.502 14.674 12.481 14.777 12.434C14.875 12.387 14.96 12.323 15.028 12.247C15.096 12.166 15.143 12.072 15.177 11.966C15.207 11.859 15.224 11.74 15.224 11.617C15.228 11.493 15.211 11.374 15.177 11.268ZM17.806 12.142C17.759 12.159 17.708 12.176 17.653 12.185C17.598 12.194 17.538 12.198 17.474 12.198C17.316 12.198 17.193 12.151 17.103 12.057C17.013 11.963 16.962 11.814 16.962 11.614C16.962 11.431 17.009 11.29 17.085 11.184C17.166 11.077 17.285 11.026 17.447 11.026C17.579 11.026 17.686 11.043 17.792 11.077C17.792 11.077 17.818 11.09 17.83 11.056C17.834 11.044 17.839 11.033 17.842 11.022L17.853 10.993C17.872 10.942 17.889 10.896 17.911 10.834C17.919 10.81 17.9 10.801 17.891 10.796L17.889 10.795C17.846 10.778 17.748 10.752 17.672 10.74C17.604 10.731 17.519 10.723 17.429 10.723C17.293 10.723 17.169 10.749 17.067 10.791C16.965 10.838 16.875 10.902 16.803 10.983C16.735 11.064 16.679 11.158 16.645 11.264C16.611 11.37 16.594 11.49 16.594 11.613C16.594 11.881 16.666 12.099 16.811 12.261C16.956 12.423 17.173 12.504 17.454 12.504C17.62 12.504 17.791 12.47 17.914 12.423C17.914 12.423 17.939 12.41 17.927 12.385L17.846 12.163C17.837 12.133 17.803 12.142 17.803 12.142H17.806ZM19.514 11.208C19.488 11.101 19.416 10.999 19.373 10.952C19.301 10.875 19.232 10.824 19.164 10.794C19.074 10.756 18.968 10.73 18.849 10.73C18.713 10.73 18.585 10.751 18.487 10.802C18.385 10.849 18.299 10.913 18.231 10.994C18.163 11.075 18.116 11.169 18.082 11.279C18.048 11.386 18.035 11.505 18.035 11.628C18.035 11.756 18.052 11.875 18.086 11.982C18.12 12.089 18.171 12.182 18.244 12.263C18.316 12.34 18.41 12.404 18.521 12.446C18.632 12.488 18.768 12.51 18.922 12.51C19.241 12.51 19.408 12.438 19.476 12.399C19.489 12.39 19.502 12.382 19.485 12.348L19.413 12.148C19.4 12.118 19.37 12.131 19.37 12.131C19.363 12.134 19.356 12.136 19.349 12.139C19.27 12.169 19.157 12.212 18.919 12.212C18.749 12.212 18.621 12.161 18.544 12.084C18.463 12.003 18.42 11.884 18.416 11.718H19.515C19.515 11.718 19.545 11.718 19.549 11.688C19.549 11.685 19.55 11.679 19.551 11.67C19.557 11.61 19.578 11.421 19.515 11.207L19.514 11.208ZM10.553 10.953C10.481 10.876 10.412 10.825 10.344 10.795C10.255 10.757 10.148 10.731 10.029 10.731C9.893 10.731 9.765 10.752 9.667 10.803C9.565 10.85 9.48 10.914 9.411 10.995C9.342 11.076 9.296 11.17 9.262 11.28C9.228 11.387 9.215 11.506 9.215 11.629C9.215 11.757 9.232 11.876 9.266 11.983C9.3 12.09 9.351 12.183 9.424 12.264C9.496 12.341 9.59 12.405 9.701 12.447C9.812 12.489 9.948 12.511 10.102 12.511C10.422 12.511 10.588 12.439 10.656 12.4C10.669 12.391 10.682 12.383 10.665 12.349L10.593 12.149C10.58 12.119 10.55 12.132 10.55 12.132C10.543 12.135 10.536 12.137 10.529 12.14C10.45 12.17 10.337 12.213 10.099 12.213C9.929 12.213 9.801 12.162 9.724 12.085C9.643 12.004 9.6 11.885 9.596 11.719H10.695C10.695 11.719 10.725 11.719 10.729 11.689C10.729 11.686 10.73 11.68 10.731 11.671C10.738 11.611 10.758 11.422 10.695 11.208C10.669 11.101 10.597 10.999 10.554 10.952L10.553 10.953ZM7.656 11.383C7.613 11.379 7.554 11.379 7.486 11.379C7.392 11.379 7.299 11.392 7.213 11.413C7.127 11.434 7.051 11.473 6.983 11.52C6.915 11.567 6.864 11.631 6.825 11.703C6.786 11.775 6.765 11.861 6.765 11.959C6.765 12.057 6.782 12.142 6.816 12.21C6.85 12.278 6.897 12.338 6.961 12.38C7.021 12.423 7.097 12.457 7.187 12.478C7.272 12.499 7.37 12.508 7.477 12.508C7.592 12.508 7.703 12.499 7.814 12.478C7.915 12.462 8.038 12.434 8.084 12.424L8.091 12.422C8.129 12.413 8.168 12.401 8.168 12.401C8.194 12.392 8.194 12.367 8.194 12.367V11.361C8.194 11.139 8.134 10.978 8.019 10.875C7.904 10.772 7.734 10.722 7.512 10.722C7.431 10.722 7.295 10.735 7.218 10.748C7.218 10.748 6.979 10.795 6.877 10.872C6.877 10.872 6.856 10.885 6.868 10.915L6.945 11.124C6.954 11.15 6.983 11.141 6.983 11.141L7 11.132C7.213 11.017 7.482 11.021 7.482 11.021C7.601 11.021 7.691 11.047 7.755 11.093C7.815 11.14 7.844 11.208 7.844 11.357V11.404C7.746 11.391 7.656 11.383 7.656 11.383ZM16.523 10.778C16.506 10.769 16.412 10.752 16.34 10.748C16.199 10.739 16.123 10.761 16.055 10.795C15.987 10.825 15.91 10.876 15.867 10.931V10.795C15.867 10.778 15.854 10.761 15.837 10.761H15.556C15.539 10.761 15.526 10.774 15.526 10.795V12.44C15.526 12.457 15.539 12.474 15.56 12.474H15.85C15.867 12.474 15.884 12.461 15.884 12.44V11.618C15.884 11.507 15.897 11.396 15.922 11.328C15.947 11.26 15.977 11.204 16.02 11.166C16.058 11.128 16.105 11.098 16.156 11.085C16.207 11.068 16.263 11.064 16.305 11.064C16.365 11.064 16.424 11.081 16.424 11.081C16.445 11.085 16.458 11.068 16.467 11.051C16.473 11.015 16.502 10.928 16.522 10.87C16.53 10.846 16.537 10.826 16.539 10.817C16.548 10.791 16.53 10.779 16.522 10.779L16.523 10.778ZM8.875 12.47C8.892 12.47 8.905 12.453 8.905 12.436V10.084C8.905 10.063 8.892 10.05 8.875 10.05H8.581C8.564 10.05 8.551 10.067 8.551 10.084V12.436C8.551 12.453 8.564 12.47 8.581 12.47H8.875Z" fill="#202022"/>
</g>
</svg>
