<svg width="24" height="24" viewBox="0 0 24 24" fill="none" xmlns="http://www.w3.org/2000/svg">
<g id="Type=Outline">
<path id="Shape" fill-rule="evenodd" clip-rule="evenodd" d="M11.75 2L1 7.91V15.3L11.75 21.21L22.5 15.3V7.91L11.75 2ZM12.5 4.12L20.65 8.6L18.33 9.87L12.5 6.91V4.11V4.12ZM11 4.12V6.92L5.17 9.88L2.86 8.61L11 4.12ZM11 19.09L2.5 14.41V10.12L11 14.8V19.09ZM6.76 10.75L11.75 8.22L16.74 10.75L11.75 13.5L6.76 10.75ZM21 14.41L12.5 19.08V14.79L21 10.11V14.4V14.41Z" fill="#202022"/>
</g>
</svg>
