<svg width="24" height="24" viewBox="0 0 24 24" fill="none" xmlns="http://www.w3.org/2000/svg">
<g id="Scale Filled">
<path id="Vector" d="M3.23002 8.39098L2.83302 6.94398L9.75802 5.04398C9.85602 3.89198 10.822 2.98698 12 2.98698C12.754 2.98698 13.421 3.35798 13.83 3.92698L20.802 2.01398L21.199 3.46098L19.519 3.92198L21.541 9.98798H22.75V10.738C22.75 13.085 20.847 14.988 18.5 14.988C16.153 14.988 14.25 13.085 14.25 10.738V9.98798H15.459L17.276 4.53798L14.246 5.36898C14.193 6.29098 13.584 7.06498 12.75 7.35998V20.488H18V21.988H6.00002V20.488H11.25V7.35998C10.792 7.19798 10.403 6.89198 10.135 6.49698L6.38602 7.52598L8.54002 13.988H9.74902V14.738C9.74902 17.085 7.84602 18.988 5.49902 18.988C3.15202 18.988 1.24902 17.085 1.24902 14.738V13.988H2.45802L4.43402 8.06098L3.22902 8.39198L3.23002 8.39098ZM19.959 9.98698L18.5 5.60898L17.041 9.98698H19.959ZM5.50002 9.60798L4.04102 13.986H6.96002L5.50002 9.60798Z" fill="#202022"/>
</g>
</svg>
