<svg width="24" height="24" viewBox="0 0 24 24" fill="none" xmlns="http://www.w3.org/2000/svg">
<g id="Scale Outlined">
<path id="Vector" d="M14.246 5.36798C14.193 6.28998 13.584 7.06398 12.75 7.35898V20.487H18V21.987H6.00002V20.487H11.25V7.35898C10.792 7.19698 10.402 6.89098 10.135 6.49598L6.38602 7.52498L8.54002 13.987H9.74902V14.737C9.74902 17.084 7.84602 18.987 5.49902 18.987C3.15202 18.987 1.24902 17.084 1.24902 14.737V13.987H2.45802L4.43402 8.05998L3.22902 8.39098L2.83202 6.94398L9.75702 5.04398C9.85502 3.89198 10.821 2.98698 11.999 2.98698C12.753 2.98698 13.42 3.35798 13.829 3.92698L20.801 2.01398L21.198 3.46098L19.518 3.92198L21.54 9.98798H22.749V10.738C22.749 13.085 20.846 14.988 18.499 14.988C16.152 14.988 14.249 13.085 14.249 10.738V9.98798H15.458L17.275 4.53798L14.245 5.36898L14.246 5.36798ZM19.959 9.98698L18.5 5.60898L17.041 9.98698H19.959ZM6.95902 13.987L5.50002 9.60898L4.04102 13.987H6.95902ZM5.50002 17.487C6.75902 17.487 7.82002 16.641 8.14602 15.487H2.85302C3.17902 16.641 4.24202 17.487 5.50002 17.487ZM18.5 13.487C19.759 13.487 20.82 12.641 21.146 11.487H15.853C16.18 12.641 17.242 13.487 18.5 13.487ZM11.25 5.23698C11.25 5.65098 11.586 5.98698 12 5.98698C12.414 5.98698 12.75 5.65098 12.75 5.23698C12.75 4.82298 12.414 4.48698 12 4.48698C11.586 4.48698 11.25 4.82298 11.25 5.23698Z" fill="#202022"/>
</g>
</svg>
