<svg width="24" height="24" viewBox="0 0 24 24" fill="none" xmlns="http://www.w3.org/2000/svg">
<g id="Scale">
<path id="Vector" d="M4 14.25C2.757 14.25 1.75 13.243 1.75 12C1.75 10.757 2.757 9.75 4 9.75C4.98 9.75 5.813 10.376 6.122 11.25H9.878C10.187 10.376 11.02 9.75 12 9.75C12.98 9.75 13.813 10.376 14.122 11.25H17.878C18.187 10.376 19.02 9.75 20 9.75C21.243 9.75 22.25 10.757 22.25 12C22.25 13.243 21.243 14.25 20 14.25C19.02 14.25 18.187 13.624 17.878 12.75H14.122C13.813 13.624 12.98 14.25 12 14.25C11.02 14.25 10.187 13.624 9.878 12.75H6.122C5.813 13.624 4.98 14.25 4 14.25Z" fill="#202022"/>
</g>
</svg>
