<svg width="24" height="24" viewBox="0 0 24 24" fill="none" xmlns="http://www.w3.org/2000/svg">
<g id="Scale Outline">
<path id="Vector" d="M1.75 12C1.75 13.243 2.757 14.25 4 14.25C4.98 14.25 5.813 13.624 6.122 12.75H9.878C10.187 13.624 11.02 14.25 12 14.25C12.98 14.25 13.813 13.624 14.122 12.75H17.878C18.187 13.624 19.02 14.25 20 14.25C21.243 14.25 22.25 13.243 22.25 12C22.25 10.757 21.243 9.75 20 9.75C19.02 9.75 18.187 10.376 17.878 11.25H14.122C13.813 10.376 12.98 9.75 12 9.75C11.02 9.75 10.187 10.376 9.878 11.25H6.122C5.813 10.376 4.98 9.75 4 9.75C2.757 9.75 1.75 10.757 1.75 12ZM4 12.75C3.586 12.75 3.25 12.414 3.25 12C3.25 11.586 3.586 11.25 4 11.25C4.414 11.25 4.75 11.586 4.75 12C4.75 12.414 4.414 12.75 4 12.75ZM19.25 12C19.25 11.586 19.586 11.25 20 11.25C20.414 11.25 20.75 11.586 20.75 12C20.75 12.414 20.414 12.75 20 12.75C19.586 12.75 19.25 12.414 19.25 12ZM12 12.75C11.586 12.75 11.25 12.414 11.25 12C11.25 11.586 11.586 11.25 12 11.25C12.414 11.25 12.75 11.586 12.75 12C12.75 12.414 12.414 12.75 12 12.75Z" fill="#202022"/>
</g>
</svg>
