<svg width="24" height="24" viewBox="0 0 24 24" fill="none" xmlns="http://www.w3.org/2000/svg">
<g id="Scatter Chart">
<path id="Vector" d="M4.125 2.625H2.625V21.375H21.375V19.875H4.125V2.625Z" fill="#202022"/>
<path id="Vector_2" d="M7.375 17.625C7.927 17.625 8.375 17.177 8.375 16.625C8.375 16.073 7.927 15.625 7.375 15.625C6.823 15.625 6.375 16.073 6.375 16.625C6.375 17.177 6.823 17.625 7.375 17.625Z" fill="#202022"/>
<path id="Vector_3" d="M11.375 8.625C11.375 9.177 10.927 9.625 10.375 9.625C9.823 9.625 9.375 9.177 9.375 8.625C9.375 8.073 9.823 7.625 10.375 7.625C10.927 7.625 11.375 8.073 11.375 8.625Z" fill="#202022"/>
<path id="Vector_4" d="M13.375 12.625C13.927 12.625 14.375 12.177 14.375 11.625C14.375 11.073 13.927 10.625 13.375 10.625C12.823 10.625 12.375 11.073 12.375 11.625C12.375 12.177 12.823 12.625 13.375 12.625Z" fill="#202022"/>
<path id="Vector_5" d="M20.375 14.625C20.375 15.177 19.927 15.625 19.375 15.625C18.823 15.625 18.375 15.177 18.375 14.625C18.375 14.073 18.823 13.625 19.375 13.625C19.927 13.625 20.375 14.073 20.375 14.625Z" fill="#202022"/>
<path id="Vector_6" d="M16.375 6.625C16.927 6.625 17.375 6.177 17.375 5.625C17.375 5.073 16.927 4.625 16.375 4.625C15.823 4.625 15.375 5.073 15.375 5.625C15.375 6.177 15.823 6.625 16.375 6.625Z" fill="#202022"/>
</g>
</svg>
