<svg width="24" height="24" viewBox="0 0 24 24" fill="none" xmlns="http://www.w3.org/2000/svg">
<g id="Type=Filled">
<path id="Vector" d="M10.875 6C8.183 6 6 8.183 6 10.875C6 13.567 8.183 15.75 10.875 15.75C13.567 15.75 15.75 13.567 15.75 10.875C15.75 8.183 13.567 6 10.875 6Z" fill="#202022"/>
<path id="Vector_2" d="M3 10.875C3 6.526 6.526 3 10.875 3C15.224 3 18.75 6.526 18.75 10.875C18.75 12.78 18.074 14.526 16.949 15.888L20.781 19.72L19.72 20.781L15.888 16.949C14.526 18.074 12.78 18.75 10.875 18.75C6.526 18.75 3 15.224 3 10.875ZM10.875 4.5C7.354 4.5 4.5 7.354 4.5 10.875C4.5 14.396 7.354 17.25 10.875 17.25C14.396 17.25 17.25 14.396 17.25 10.875C17.25 7.354 14.396 4.5 10.875 4.5Z" fill="#202022"/>
</g>
</svg>
