<svg width="24" height="24" viewBox="0 0 24 24" fill="none" xmlns="http://www.w3.org/2000/svg">
<g id="Type=Outline">
<path id="Vector" d="M11.11 1.36001C5.72499 1.36001 1.35999 5.72501 1.35999 11.11C1.35999 16.495 5.72499 20.86 11.11 20.86C13.532 20.86 15.748 19.977 17.454 18.514L21.58 22.64L22.641 21.579L18.515 17.453C19.977 15.748 20.861 13.532 20.861 11.109C20.861 5.72401 16.496 1.35901 11.111 1.35901L11.11 1.36001ZM2.85999 11.11C2.85999 6.55401 6.55399 2.86001 11.11 2.86001C15.666 2.86001 19.36 6.55401 19.36 11.11C19.36 15.666 15.666 19.36 11.11 19.36C6.55399 19.36 2.85999 15.666 2.85999 11.11Z" fill="#202022"/>
</g>
</svg>
