<svg width="24" height="24" viewBox="0 0 24 24" fill="none" xmlns="http://www.w3.org/2000/svg">
<g id="Type=Outline">
<g id="Shape">
<path fill-rule="evenodd" clip-rule="evenodd" d="M6.92171 3.3087C6.57298 2.00723 5.23523 1.23489 3.93376 1.58361C2.6323 1.93234 1.85995 3.27009 2.20867 4.57156L6.07478 19.0001H8.12512V22.5001H14.8751V21.0001H9.62512V19.0001H19.6251V16.5604C19.6251 14.7465 18.1546 13.2759 16.3407 13.2759H9.59242L8.98262 11.0001H13.8751V9.50012H8.58069L6.92171 3.3087ZM4.32199 3.0325C4.82326 2.89819 5.33851 3.19566 5.47282 3.69693L8.44143 14.7759H16.3407C17.3262 14.7759 18.1251 15.5749 18.1251 16.5604V17.5001H7.22577L3.65756 4.18333C3.52325 3.68206 3.82072 3.16682 4.32199 3.0325Z" fill="#202022"/>
<path d="M17.1251 2.25012L17.1251 5.50014L13.8751 5.50014V7.00014L17.1251 7.00014L17.1251 10.2501H18.6251L18.6251 7.00014L21.8751 7.00014V5.50014L18.6251 5.50014L18.6251 2.25012H17.1251Z" fill="#202022"/>
</g>
</g>
</svg>
