<svg width="24" height="24" viewBox="0 0 24 24" fill="none" xmlns="http://www.w3.org/2000/svg">
<g id="Type=Filled">
<g id="Shape">
<path d="M16.75 1.875L16.75 5.12502L13.5 5.12502V6.62502L16.75 6.62502L16.75 9.87497H18.25L18.25 6.62502L21.5 6.62501V5.12501L18.25 5.12502L18.25 1.875H16.75Z" fill="#202022"/>
<path d="M2.55802 4.00238C2.3165 3.10101 2.85141 2.17451 3.75278 1.93299C4.65415 1.69147 5.58065 2.22638 5.82217 3.12775L7.42913 9.125H13.5V10.625H7.83105L8.64183 13.6509H15.9656C17.3653 13.6509 18.5 14.7856 18.5 16.1854V17.875H9.25003V20.625H14.5V22.125H7.75003V17.875H6.27518L2.55802 4.00238Z" fill="#202022"/>
</g>
</g>
</svg>
