<svg width="24" height="24" viewBox="0 0 24 24" fill="none" xmlns="http://www.w3.org/2000/svg">
<g id="Type=Outline">
<g id="Shape">
<path fill-rule="evenodd" clip-rule="evenodd" d="M6.15651 3.3087C5.80778 2.00723 4.47003 1.23489 3.16857 1.58361C1.8671 1.93234 1.09475 3.27009 1.44348 4.57156L5.30958 19.0001H7.35992V22.5001H14.1099V21.0001H8.85992V19.0001H18.8599V16.5604C18.8599 14.7465 17.3894 13.2759 15.5755 13.2759H8.82723L8.21742 11.0001H13.1099V9.50012H7.8155L6.15651 3.3087ZM3.55679 3.0325C4.05806 2.89819 4.57331 3.19566 4.70762 3.69693L7.67624 14.7759H15.5755C16.561 14.7759 17.3599 15.5749 17.3599 16.5604V17.5001H6.46057L2.89236 4.18333C2.75805 3.68206 3.05553 3.16682 3.55679 3.0325Z" fill="#202022"/>
<path d="M16.6099 9.81084L22.6402 3.78051L21.5796 2.71985L16.6099 7.68952L14.6403 5.71985L13.5796 6.78051L16.6099 9.81084Z" fill="#202022"/>
</g>
</g>
</svg>
