<svg width="24" height="24" viewBox="0 0 24 24" fill="none" xmlns="http://www.w3.org/2000/svg">
<g id="Type=Outline">
<g id="Shape">
<path fill-rule="evenodd" clip-rule="evenodd" d="M3.12566 1.58361C4.42713 1.23489 5.76488 2.00723 6.1136 3.3087L7.77259 9.50012H13.067V11.0001H8.17451L8.78432 13.2759H15.5325C17.3465 13.2759 18.817 14.7465 18.817 16.5604V19.0001H8.81702V21.0001H14.067V22.5001H7.31702V19.0001H5.26667L1.40057 4.57156C1.05184 3.27009 1.82419 1.93234 3.12566 1.58361ZM4.66471 3.69693C4.5304 3.19566 4.01516 2.89819 3.51389 3.0325C3.01262 3.16682 2.71514 3.68206 2.84946 4.18333L6.41767 17.5001H17.317V16.5604C17.317 15.5749 16.5181 14.7759 15.5325 14.7759H7.63333L4.66471 3.69693Z" fill="#202022"/>
<path d="M19.4913 4.43533L18.067 1.56067L16.6428 4.43533L13.4509 4.89734L15.7608 7.14023L15.2162 10.3028L18.067 8.8099L20.9178 10.3028L20.3733 7.14023L22.6832 4.89734L19.4913 4.43533Z" fill="#202022"/>
</g>
</g>
</svg>
