<svg width="24" height="24" viewBox="0 0 24 24" fill="none" xmlns="http://www.w3.org/2000/svg">
<g id="Type=Filled">
<g id="Shape">
<path d="M19.1162 4.40493L17.6919 1.53027L16.2677 4.40493L13.0758 4.86695L15.3857 7.10984L14.8411 10.2724L17.6919 8.77951L20.5427 10.2724L19.9982 7.10984L22.3081 4.86695L19.1162 4.40493Z" fill="#202022"/>
<path d="M2.94468 2.27772C2.04331 2.51924 1.5084 3.44574 1.74992 4.34711L5.46708 18.2197H6.94193V22.4697H13.6919V20.9697H8.44193V18.2197H17.6919V16.5301C17.6919 15.1303 16.5572 13.9956 15.1575 13.9956H7.83373L7.02295 10.9697H12.6919V9.46973H6.62102L5.01406 3.47248C4.77254 2.57111 3.84605 2.0362 2.94468 2.27772Z" fill="#202022"/>
</g>
</g>
</svg>
