<svg width="24" height="24" viewBox="0 0 24 24" fill="none" xmlns="http://www.w3.org/2000/svg">
<g id="Type=Outline">
<path id="Shape" fill-rule="evenodd" clip-rule="evenodd" d="M5.05873 1.58361C6.3602 1.23489 7.69795 2.00723 8.04668 3.3087L9.70566 9.50012H15.0001V11.0001H10.1076L10.7174 13.2759H17.4656C19.2796 13.2759 20.7501 14.7465 20.7501 16.5604V19.0001H10.7501V21.0001H16.0001V22.5001H9.2501V19.0001H7.19975L3.33364 4.57156C2.98492 3.27009 3.75726 1.93234 5.05873 1.58361ZM6.59779 3.69693C6.46347 3.19566 5.94823 2.89819 5.44696 3.0325C4.94569 3.16682 4.64822 3.68206 4.78253 4.18333L8.35074 17.5001H19.2501V16.5604C19.2501 15.5749 18.4512 14.7759 17.4656 14.7759H9.5664L6.59779 3.69693Z" fill="#202022"/>
</g>
</svg>
