<svg width="24" height="24" viewBox="0 0 24 24" fill="none" xmlns="http://www.w3.org/2000/svg">
<g id="Type=Outline">
<g id="Shape">
<path fill-rule="evenodd" clip-rule="evenodd" d="M5.92165 3.3087C5.57292 2.00723 4.23517 1.23489 2.9337 1.58361C1.63223 1.93234 0.859885 3.27009 1.20861 4.57156L5.07472 19.0001H7.12506V22.5001H13.8751V21.0001H8.62506V19.0001H18.6251V16.5604C18.6251 14.7465 17.1546 13.2759 15.3406 13.2759H8.59236L7.98256 11.0001H12.8751V9.50012H7.58063L5.92165 3.3087ZM3.32193 3.0325C3.8232 2.89819 4.33844 3.19566 4.47276 3.69693L7.44137 14.7759H15.3406C16.3261 14.7759 17.1251 15.5749 17.1251 16.5604V17.5001H6.22571L2.6575 4.18333C2.52319 3.68206 2.82066 3.16682 3.32193 3.0325Z" fill="#202022"/>
<path d="M13.8751 4.50012L15.2251 9.75012H21.5251L22.8751 4.50012L20.1751 6.00012L18.3751 3.25012L16.5751 6.00012L13.8751 4.50012Z" fill="#202022"/>
</g>
</g>
</svg>
