<svg width="24" height="24" viewBox="0 0 24 24" fill="none" xmlns="http://www.w3.org/2000/svg">
<g id="Type=Outline">
<g id="Shape">
<path fill-rule="evenodd" clip-rule="evenodd" d="M16.625 11.125C19.8006 11.125 22.375 13.6994 22.375 16.875C22.375 20.0506 19.8006 22.625 16.625 22.625C13.4494 22.625 10.875 20.0506 10.875 16.875C10.875 13.6994 13.4494 11.125 16.625 11.125ZM15.625 17.5645L14.1553 16.0947L13.0947 17.1553L15.625 19.6855L20.1553 15.1553L19.0947 14.0947L15.625 17.5645Z" fill="#202022"/>
<path fill-rule="evenodd" clip-rule="evenodd" d="M17.375 1.375C18.8938 1.375 20.125 2.60622 20.125 4.125V6.125C20.125 6.91423 19.7903 7.62349 19.2578 8.125C19.7903 8.62651 20.125 9.33577 20.125 10.125V10.5244C19.6483 10.2611 19.1382 10.0518 18.6035 9.90039C18.4976 9.31735 17.9886 8.875 17.375 8.875H4.375C3.68464 8.875 3.125 9.43464 3.125 10.125V12.125C3.125 12.8154 3.68464 13.375 4.375 13.375H10.2754C10.0155 13.8454 9.8082 14.3481 9.65723 14.875H4.375C3.68464 14.875 3.125 15.4346 3.125 16.125V18.125C3.125 18.8154 3.68464 19.375 4.375 19.375H9.81738C10.013 19.9074 10.2706 20.4096 10.5791 20.875H4.375C2.85622 20.875 1.625 19.6438 1.625 18.125V16.125C1.625 15.336 1.95899 14.6265 2.49121 14.125C1.95899 13.6235 1.625 12.914 1.625 12.125V10.125C1.625 9.33602 1.95899 8.62649 2.49121 8.125C1.95899 7.62351 1.625 6.91398 1.625 6.125V4.125C1.625 2.60622 2.85622 1.375 4.375 1.375H17.375ZM4.375 2.875C3.68464 2.875 3.125 3.43464 3.125 4.125V6.125C3.125 6.81536 3.68464 7.375 4.375 7.375H17.375C18.0654 7.375 18.625 6.81536 18.625 6.125V4.125C18.625 3.43464 18.0654 2.875 17.375 2.875H4.375Z" fill="#202022"/>
</g>
</g>
</svg>
