<svg width="24" height="24" viewBox="0 0 24 24" fill="none" xmlns="http://www.w3.org/2000/svg">
<g id="Type=Filled">
<g id="Shape">
<path fill-rule="evenodd" clip-rule="evenodd" d="M17.1875 11.5625C20.3631 11.5625 22.9375 14.1369 22.9375 17.3125C22.9375 20.4881 20.3631 23.0625 17.1875 23.0625C14.0119 23.0625 11.4375 20.4881 11.4375 17.3125C11.4375 14.1369 14.0119 11.5625 17.1875 11.5625ZM16.1875 18.002L14.7178 16.5322L13.6572 17.5928L16.1875 20.123L20.7178 15.5928L19.6572 14.5322L16.1875 18.002Z" fill="#202022"/>
<path d="M10.3369 14.9375C10.0789 15.6817 9.9375 16.4805 9.9375 17.3125C9.9375 18.2385 10.1123 19.1234 10.4287 19.9375H2.5625C1.73407 19.9375 1.0625 19.2659 1.0625 18.4375V16.4375C1.0625 15.6091 1.73407 14.9375 2.5625 14.9375H10.3369Z" fill="#202022"/>
<path d="M16.5625 7.9375C17.3909 7.9375 18.0625 8.60907 18.0625 9.4375V10.1162C17.7756 10.0817 17.4837 10.0625 17.1875 10.0625C14.8271 10.0625 12.7311 11.1912 11.4072 12.9375H2.5625C1.73407 12.9375 1.0625 12.2659 1.0625 11.4375V9.4375C1.0625 8.60907 1.73407 7.9375 2.5625 7.9375H16.5625Z" fill="#202022"/>
<path d="M16.5625 0.9375C17.3909 0.9375 18.0625 1.60907 18.0625 2.4375V4.4375C18.0625 5.26593 17.3909 5.9375 16.5625 5.9375H2.5625C1.73407 5.9375 1.0625 5.26593 1.0625 4.4375V2.4375C1.0625 1.60907 1.73407 0.9375 2.5625 0.9375H16.5625Z" fill="#202022"/>
</g>
</g>
</svg>
