<svg width="24" height="24" viewBox="0 0 24 24" fill="none" xmlns="http://www.w3.org/2000/svg">
<g id="Type=Outline">
<path id="Vector" d="M3 4.75C3 3.231 4.231 2 5.75 2H18.75C20.269 2 21.5 3.231 21.5 4.75V6.75C21.5 7.538 21.169 8.249 20.638 8.75C21.169 9.251 21.5 9.962 21.5 10.75V12.75C21.5 13.538 21.169 14.249 20.638 14.75C21.169 15.251 21.5 15.962 21.5 16.75V18.75C21.5 20.269 20.269 21.5 18.75 21.5H5.75C4.231 21.5 3 20.269 3 18.75V16.75C3 15.962 3.331 15.251 3.863 14.75C3.332 14.249 3 13.538 3 12.75V10.75C3 9.962 3.331 9.251 3.863 8.75C3.332 8.249 3 7.538 3 6.75V4.75ZM5.75 14H18.75C19.44 14 20 13.44 20 12.75V10.75C20 10.06 19.44 9.5 18.75 9.5H5.75C5.06 9.5 4.5 10.06 4.5 10.75V12.75C4.5 13.44 5.06 14 5.75 14ZM18.75 15.5H5.75C5.06 15.5 4.5 16.06 4.5 16.75V18.75C4.5 19.44 5.06 20 5.75 20H18.75C19.44 20 20 19.44 20 18.75V16.75C20 16.06 19.44 15.5 18.75 15.5ZM18.75 8C19.44 8 20 7.44 20 6.75V4.75C20 4.06 19.44 3.5 18.75 3.5H5.75C5.06 3.5 4.5 4.06 4.5 4.75V6.75C4.5 7.44 5.06 8 5.75 8H18.75Z" fill="#202022"/>
</g>
</svg>
