<svg width="24" height="24" viewBox="0 0 24 24" fill="none" xmlns="http://www.w3.org/2000/svg">
<g id="Type=Filled">
<path id="Vector" d="M3.5 4C3.5 3.172 4.172 2.5 5 2.5H19C19.828 2.5 20.5 3.172 20.5 4V6C20.5 6.828 19.828 7.5 19 7.5H5C4.172 7.5 3.5 6.828 3.5 6V4Z" fill="#202022"/>
<path id="Vector_2" d="M3.5 11C3.5 10.172 4.172 9.5 5 9.5H19C19.828 9.5 20.5 10.172 20.5 11V13C20.5 13.828 19.828 14.5 19 14.5H5C4.172 14.5 3.5 13.828 3.5 13V11Z" fill="#202022"/>
<path id="Vector_3" d="M5 16.5C4.172 16.5 3.5 17.172 3.5 18V20C3.5 20.828 4.172 21.5 5 21.5H19C19.828 21.5 20.5 20.828 20.5 20V18C20.5 17.172 19.828 16.5 19 16.5H5Z" fill="#202022"/>
</g>
</svg>
