<svg width="24" height="24" viewBox="0 0 24 24" fill="none" xmlns="http://www.w3.org/2000/svg">
<g id="Type=Outline">
<path id="Vector" d="M12 7.75C9.653 7.75 7.75 9.653 7.75 12C7.75 14.347 9.653 16.25 12 16.25C14.347 16.25 16.25 14.347 16.25 12C16.25 9.653 14.347 7.75 12 7.75ZM9.25 12C9.25 10.481 10.481 9.25 12 9.25C13.519 9.25 14.75 10.481 14.75 12C14.75 13.519 13.519 14.75 12 14.75C10.481 14.75 9.25 13.519 9.25 12Z" fill="#202022"/>
<path id="Vector_2" d="M9.71201 1.25002V2.44502C9.71201 2.99902 9.28801 3.56602 8.60701 3.85002C7.94001 4.12802 7.26101 4.02502 6.86301 3.62702L6.01801 2.78202L2.78201 6.01802L3.62801 6.86402C4.02601 7.26202 4.12901 7.94102 3.85101 8.60802C3.56701 9.28902 3.00001 9.71302 2.44701 9.71302H1.25201V14.29H2.44701C3.00101 14.29 3.56801 14.714 3.85201 15.395C4.13001 16.062 4.02701 16.741 3.62901 17.139L2.78301 17.985L6.01901 21.221L6.86501 20.375C7.26301 19.977 7.94201 19.874 8.60901 20.152C9.29001 20.436 9.71401 21.003 9.71401 21.556V22.751H14.291V21.556C14.291 21.003 14.715 20.436 15.396 20.152C16.063 19.874 16.741 19.977 17.14 20.375L17.986 21.221L21.222 17.985L20.376 17.139C19.977 16.74 19.875 16.061 20.153 15.394C20.437 14.713 21.004 14.289 21.558 14.289H22.753V9.71202H21.558C21.005 9.71202 20.438 9.28802 20.154 8.60702C19.876 7.94002 19.979 7.26202 20.377 6.86302L21.223 6.01702L17.987 2.78102L17.142 3.62602C16.743 4.02502 16.064 4.12702 15.398 3.84902C14.717 3.56502 14.293 2.99802 14.293 2.44402V1.24902H9.71601L9.71201 1.25002ZM9.18301 5.23402C10.161 4.82702 11.06 3.93202 11.194 2.75002H12.805C12.939 3.93202 13.838 4.82602 14.816 5.23402C15.806 5.64702 17.05 5.62802 17.971 4.89102L19.11 6.03002C18.372 6.95102 18.354 8.19402 18.766 9.18402C19.173 10.162 20.068 11.061 21.25 11.195V12.806C20.068 12.94 19.174 13.839 18.766 14.817C18.353 15.807 18.372 17.051 19.11 17.972L17.971 19.111C17.05 18.373 15.806 18.354 14.816 18.767C13.838 19.174 12.939 20.069 12.805 21.251H11.194C11.06 20.069 10.161 19.175 9.18301 18.767C8.19301 18.354 6.94901 18.373 6.02801 19.111L4.89001 17.972C5.62801 17.051 5.64701 15.807 5.23401 14.817C4.82701 13.839 3.93201 12.94 2.75001 12.806V11.195C3.93201 11.061 4.82601 10.162 5.23401 9.18402C5.64701 8.19402 5.62801 6.95002 4.89001 6.03002L6.02901 4.89102C6.95001 5.62902 8.19401 5.64702 9.18401 5.23402H9.18301Z" fill="#202022"/>
</g>
</svg>
