<svg width="24" height="24" viewBox="0 0 24 24" fill="none" xmlns="http://www.w3.org/2000/svg">
<g id="Type=Outline">
<path id="Vector" d="M14 10.656C14 11.761 13.105 12.656 12 12.656C10.895 12.656 10 11.761 10 10.656C10 9.55101 10.895 8.65601 12 8.65601C13.105 8.65601 14 9.55101 14 10.656Z" fill="#202022"/>
<path id="Vector_2" d="M11.2 13.719C9.709 13.719 8.5 14.928 8.5 16.419V17.157H15.5V16.419C15.5 14.928 14.291 13.719 12.8 13.719H11.2Z" fill="#202022"/>
<path id="Vector_3" d="M8.311 3.75H1.75V20.25H22.25V5.75H10.311L8.311 3.75ZM3.25 18.75V5.25H7.689L9.689 7.25H20.75V18.75H3.25Z" fill="#202022"/>
</g>
</svg>
