<svg width="24" height="24" viewBox="0 0 24 24" fill="none" xmlns="http://www.w3.org/2000/svg">
<g id="Type=Filled">
<path id="Vector" d="M19.5 2.25C17.705 2.25 16.25 3.705 16.25 5.5C16.25 5.694 16.267 5.885 16.3 6.069L7.104 10.054C6.511 9.262 5.566 8.75 4.5 8.75C2.705 8.75 1.25 10.205 1.25 12C1.25 13.795 2.705 15.25 4.5 15.25C5.565 15.25 6.511 14.737 7.104 13.946L16.3 17.931C16.267 18.116 16.25 18.306 16.25 18.5C16.25 20.295 17.705 21.75 19.5 21.75C21.295 21.75 22.75 20.295 22.75 18.5C22.75 16.705 21.295 15.25 19.5 15.25C18.435 15.25 17.489 15.763 16.896 16.554L7.7 12.569C7.733 12.384 7.75 12.194 7.75 12C7.75 11.806 7.733 11.616 7.7 11.431L16.896 7.446C17.489 8.238 18.434 8.75 19.5 8.75C21.295 8.75 22.75 7.295 22.75 5.5C22.75 3.705 21.295 2.25 19.5 2.25Z" fill="#202022"/>
</g>
</svg>
