<svg width="24" height="24" viewBox="0 0 24 24" fill="none" xmlns="http://www.w3.org/2000/svg">
<g id="Type=Outline">
<path id="Vector" d="M15.375 5.25C15.375 5.49 15.403 5.723 15.456 5.947L7.841 9.978C7.292 9.377 6.503 9 5.625 9C3.968 9 2.625 10.343 2.625 12C2.625 13.657 3.968 15 5.625 15C6.503 15 7.293 14.623 7.841 14.022L15.456 18.054C15.403 18.278 15.375 18.511 15.375 18.751C15.375 20.408 16.718 21.751 18.375 21.751C20.032 21.751 21.375 20.408 21.375 18.751C21.375 17.094 20.032 15.751 18.375 15.751C17.497 15.751 16.707 16.128 16.159 16.729L8.544 12.697C8.597 12.473 8.625 12.24 8.625 12C8.625 11.76 8.597 11.527 8.544 11.303L16.159 7.272C16.708 7.873 17.497 8.25 18.375 8.25C20.032 8.25 21.375 6.907 21.375 5.25C21.375 3.593 20.032 2.25 18.375 2.25C16.718 2.25 15.375 3.593 15.375 5.25ZM18.375 3.75C19.203 3.75 19.875 4.422 19.875 5.25C19.875 6.078 19.203 6.75 18.375 6.75C17.547 6.75 16.875 6.078 16.875 5.25C16.875 4.422 17.547 3.75 18.375 3.75ZM4.125 12C4.125 11.172 4.797 10.5 5.625 10.5C6.453 10.5 7.125 11.172 7.125 12C7.125 12.828 6.453 13.5 5.625 13.5C4.797 13.5 4.125 12.828 4.125 12ZM16.875 18.75C16.875 17.922 17.547 17.25 18.375 17.25C19.203 17.25 19.875 17.922 19.875 18.75C19.875 19.578 19.203 20.25 18.375 20.25C17.547 20.25 16.875 19.578 16.875 18.75Z" fill="#202022"/>
</g>
</svg>
