<svg width="24" height="24" viewBox="0 0 24 24" fill="none" xmlns="http://www.w3.org/2000/svg">
<g id="Type=Filled">
<g id="Shape">
<path fill-rule="evenodd" clip-rule="evenodd" d="M12 9.04492C13.6318 9.04509 14.955 10.3682 14.9551 12C14.9549 13.6317 13.6318 14.9549 12 14.9551C10.3681 14.9551 9.04512 13.6318 9.04493 12C9.04505 10.3681 10.3681 9.04492 12 9.04492ZM12 10.8174C11.3473 10.8174 10.8175 11.3473 10.8174 12C10.8176 12.6527 11.3473 13.1816 12 13.1816C12.6526 13.1815 13.1815 12.6526 13.1816 12C13.1816 11.3474 12.6526 10.8176 12 10.8174Z" fill="#202022"/>
<path fill-rule="evenodd" clip-rule="evenodd" d="M12.5899 1.75C13.2537 2.59428 14.7013 3.46295 16.6338 3.91406C18.3116 4.3057 19.8875 4.27174 20.999 3.94434L21.8184 3.70312L21.9512 4.54785C23.7625 16.0737 16.9419 21.7749 12.1807 22.9561L12 23L11.8193 22.9561C7.05807 21.7749 0.23751 16.0737 2.04884 4.54785L2.18165 3.70312L3.00098 3.94434C4.11255 4.27174 5.68844 4.3057 7.36622 3.91406C9.29869 3.46294 10.7463 2.59428 11.4102 1.75L12 1L12.5899 1.75ZM15.2383 8.23926C13.4496 6.45067 10.5504 6.45069 8.76173 8.23926L5.00001 12L8.76173 15.7607C10.5504 17.5492 13.4496 17.5493 15.2383 15.7607L19 12L15.2383 8.23926Z" fill="#202022"/>
</g>
</g>
</svg>
