<svg width="24" height="24" viewBox="0 0 24 24" fill="none" xmlns="http://www.w3.org/2000/svg">
<g id="Type=Filled">
<g id="Shape">
<path d="M8.83787 11.2881C9.39 11.2881 9.83764 11.736 9.83787 12.2881C9.83787 12.8404 9.39014 13.2881 8.83787 13.2881C8.28558 13.2881 7.83787 12.8404 7.83787 12.2881C7.8381 11.736 8.28572 11.2881 8.83787 11.2881Z" fill="#202022"/>
<path d="M15.1523 11.2881C15.7045 11.2881 16.1521 11.736 16.1523 12.2881C16.1523 12.8404 15.7046 13.2881 15.1523 13.2881C14.6 13.2881 14.1523 12.8404 14.1523 12.2881C14.1526 11.736 14.6002 11.2881 15.1523 11.2881Z" fill="#202022"/>
<path d="M13.0361 11.5732V13.0732H10.9551V11.5732H13.0361Z" fill="#202022"/>
<path d="M13.4717 8C14.0281 8.00008 14.5203 8.35521 14.6953 8.87891L14.9013 9.49707C14.8718 9.49613 14.9902 9.50098 14.9013 9.49707L9.08591 9.49805C9.05105 9.49805 9.12045 9.49677 9.08591 9.49805L9.29392 8.87891C9.46898 8.35515 9.96206 8 10.5185 8H13.4717Z" fill="#202022"/>
<path fill-rule="evenodd" clip-rule="evenodd" d="M12.5898 1.75C13.2537 2.59428 14.7013 3.46295 16.6338 3.91406C18.3115 4.3057 19.8874 4.27174 20.999 3.94434L21.8183 3.70312L21.9511 4.54785C23.7625 16.0737 16.9419 21.7749 12.1806 22.9561L12 23L11.8193 22.9561C7.05804 21.7749 0.237479 16.0737 2.0488 4.54785L2.18162 3.70312L3.00095 3.94434C4.11252 4.27174 5.68841 4.3057 7.36619 3.91406C9.29866 3.46294 10.7463 2.59428 11.4101 1.75L12 1L12.5898 1.75ZM10.5185 6.5C9.31899 6.5 8.25132 7.26561 7.87107 8.40332L7.23728 10.3008C6.7174 10.8168 6.39646 11.5352 6.39646 12.3242V13.416C6.39648 13.4528 6.39823 13.4893 6.40134 13.5254L6.39353 13.5234V15.2979C6.39378 15.8499 6.8414 16.2979 7.39353 16.2979H7.47459C8.02652 16.2976 8.47434 15.8498 8.47459 15.2979V14.6855H15.5254V15.2979C15.5256 15.8498 15.9734 16.2976 16.5254 16.2979H16.6064C17.1585 16.2978 17.6062 15.8499 17.6064 15.2979V13.5234L17.6006 13.5244C17.6036 13.4886 17.6064 13.4525 17.6064 13.416V12.3242C17.6064 11.5263 17.2764 10.8013 16.7461 10.2842L16.1181 8.40332C15.7379 7.26567 14.6711 6.50008 13.4717 6.5H10.5185Z" fill="#202022"/>
</g>
</g>
</svg>
