<svg width="24" height="24" viewBox="0 0 24 24" fill="none" xmlns="http://www.w3.org/2000/svg">
<g id="Type=Filled">
<path id="Shape" fill-rule="evenodd" clip-rule="evenodd" d="M12.5898 1.75C13.2537 2.59428 14.7013 3.46295 16.6338 3.91406C18.3116 4.3057 19.8875 4.27174 20.999 3.94434L21.8184 3.70312L21.9512 4.54785C23.7625 16.0737 16.9419 21.7749 12.1807 22.9561L12 23L11.8193 22.9561C7.05807 21.7749 0.237502 16.0737 2.04883 4.54785L2.18164 3.70312L3.00098 3.94434C4.11254 4.27174 5.68843 4.3057 7.36621 3.91406C9.29869 3.46294 10.7463 2.59428 11.4102 1.75L12 1L12.5898 1.75ZM6.24902 7.75V13.5C6.24904 13.914 6.58601 14.2497 7 14.25H8.99512V17.0039H11.9951V17H16.248V16C16.248 14.2051 14.793 12.75 12.998 12.75H7.75V7.75H6.24902ZM11.998 7.5C10.7556 7.50025 9.74805 8.50751 9.74805 9.75C9.74805 10.9925 10.7556 11.9997 11.998 12C13.2407 12 14.248 10.9926 14.248 9.75C14.248 8.50736 13.2407 7.5 11.998 7.5Z" fill="#202022"/>
</g>
</svg>
