<svg width="24" height="24" viewBox="0 0 24 24" fill="none" xmlns="http://www.w3.org/2000/svg">
<g id="Type=Outline">
<g id="Shape">
<path d="M7.75196 12.75H13C14.7949 12.75 16.25 14.2051 16.25 16V17H11.9971V17.0039H8.99708V14.25H7.00196C6.58776 14.25 6.251 13.9142 6.25098 13.5V7.75H7.75196V12.75Z" fill="#202022"/>
<path d="M12 7.5C13.2426 7.50001 14.25 8.50737 14.25 9.75C14.25 10.9926 13.2426 12 12 12C10.7574 12 9.75001 10.9926 9.75001 9.75C9.75001 8.50736 10.7574 7.5 12 7.5Z" fill="#202022"/>
<path fill-rule="evenodd" clip-rule="evenodd" d="M12.5899 1.75C13.2537 2.59428 14.7013 3.46295 16.6338 3.91406C18.3116 4.3057 19.8875 4.27174 20.999 3.94434L21.8184 3.70312L21.9512 4.54785C23.7625 16.0737 16.9419 21.7749 12.1807 22.9561L12 23L11.8193 22.9561C7.05807 21.7749 0.23751 16.0737 2.04884 4.54785L2.18165 3.70312L3.00098 3.94434C4.11255 4.27174 5.68844 4.3057 7.36622 3.91406C9.29869 3.46294 10.7463 2.59428 11.4102 1.75L12 1L12.5899 1.75ZM12 3.30273C10.9824 4.22423 9.45115 4.96883 7.70704 5.37598C6.18838 5.73047 4.6864 5.78823 3.41895 5.5752C2.17944 15.5869 8.0488 20.3705 12 21.4492C15.9512 20.3704 21.8197 15.587 20.5801 5.5752C19.3128 5.78804 17.8113 5.73038 16.293 5.37598C14.5489 4.96884 13.0177 4.22422 12 3.30273Z" fill="#202022"/>
</g>
</g>
</svg>
