<svg width="24" height="24" viewBox="0 0 24 24" fill="none" xmlns="http://www.w3.org/2000/svg">
<g id="Type=Outline">
<g id="Shape">
<path d="M12 10.8174C12.6526 10.8176 13.1816 11.3474 13.1816 12C13.1815 12.6526 12.6526 13.1815 12 13.1816C11.3473 13.1816 10.8176 12.6527 10.8174 12C10.8175 11.3473 11.3473 10.8174 12 10.8174Z" fill="#202022"/>
<path fill-rule="evenodd" clip-rule="evenodd" d="M8.76173 8.23926C10.5504 6.45069 13.4496 6.45067 15.2383 8.23926L19 12L15.2383 15.7607C13.4496 17.5493 10.5504 17.5492 8.76173 15.7607L5.00001 12L8.76173 8.23926ZM12 9.04492C10.3681 9.04492 9.04505 10.3681 9.04493 12C9.04513 13.6318 10.3681 14.9551 12 14.9551C13.6318 14.9549 14.9549 13.6317 14.9551 12C14.955 10.3682 13.6318 9.04509 12 9.04492Z" fill="#202022"/>
<path fill-rule="evenodd" clip-rule="evenodd" d="M12.5899 1.75C13.2537 2.59428 14.7013 3.46295 16.6338 3.91406C18.3116 4.3057 19.8875 4.27174 20.999 3.94434L21.8184 3.70312L21.9512 4.54785C23.7625 16.0737 16.9419 21.7749 12.1807 22.9561L12 23L11.8193 22.9561C7.05807 21.7749 0.23751 16.0737 2.04884 4.54785L2.18165 3.70312L3.00098 3.94434C4.11255 4.27174 5.68844 4.3057 7.36622 3.91406C9.29869 3.46294 10.7463 2.59428 11.4102 1.75L12 1L12.5899 1.75ZM12 3.30273C10.9824 4.22423 9.45115 4.96883 7.70704 5.37598C6.18838 5.73047 4.6864 5.78823 3.41895 5.5752C2.17944 15.5869 8.0488 20.3705 12 21.4492C15.9512 20.3704 21.8197 15.587 20.5801 5.5752C19.3128 5.78804 17.8113 5.73038 16.293 5.37598C14.5489 4.96884 13.0177 4.22422 12 3.30273Z" fill="#202022"/>
</g>
</g>
</svg>
