<svg width="24" height="24" viewBox="0 0 24 24" fill="none" xmlns="http://www.w3.org/2000/svg">
<g id="Type=Filled">
<g id="Shape">
<path d="M12.75 11.25H16.25V12.75H11.25V7.75H12.75V11.25Z" fill="#202022"/>
<path fill-rule="evenodd" clip-rule="evenodd" d="M12.5899 1.75C13.2537 2.59427 14.7013 3.46296 16.6338 3.91406C18.3116 4.30569 19.8875 4.27174 20.999 3.94434L21.8184 3.70312L21.9512 4.54785C23.7625 16.0737 16.9419 21.7749 12.1807 22.9561L12 23L11.8193 22.9561C7.05807 21.7749 0.23751 16.0737 2.04884 4.54785L2.18165 3.70312L3.00098 3.94434C4.11255 4.27173 5.68846 4.30569 7.36622 3.91406C9.29867 3.46294 10.7463 2.59428 11.4102 1.75L12 1L12.5899 1.75ZM12 6C8.6863 6 6.00001 8.68629 6.00001 12C6.00001 15.3137 8.6863 18 12 18C15.3137 18 18 15.3137 18 12C18 8.68631 15.3137 6.00004 12 6Z" fill="#202022"/>
</g>
</g>
</svg>
