<svg width="24" height="24" viewBox="0 0 24 24" fill="none" xmlns="http://www.w3.org/2000/svg">
<g id="Type=Filled">
<g id="Shape">
<path d="M12.7451 9V10.2451H14V11.7451H12.7451V13H11.2451V11.7451H9.99998V10.2451H11.2451V9H12.7451Z" fill="#202022"/>
<path fill-rule="evenodd" clip-rule="evenodd" d="M12.5898 1.75C13.2537 2.59428 14.7013 3.46295 16.6338 3.91406C18.3115 4.3057 19.8874 4.27174 20.999 3.94434L21.8183 3.70312L21.9511 4.54785C23.7625 16.0737 16.9419 21.7749 12.1806 22.9561L12 23L11.8193 22.9561C7.05804 21.7749 0.237479 16.0737 2.0488 4.54785L2.18162 3.70312L3.00095 3.94434C4.11252 4.27174 5.68841 4.3057 7.36619 3.91406C9.29866 3.46294 10.7463 2.59428 11.4101 1.75L12 1L12.5898 1.75ZM7.49998 7.5V17H10.75V15H13.25V17H16.5V7.5H7.49998Z" fill="#202022"/>
</g>
</g>
</svg>
