<svg width="24" height="24" viewBox="0 0 24 24" fill="none" xmlns="http://www.w3.org/2000/svg">
<g id="Type=Filled">
<g id="Shape">
<path fill-rule="evenodd" clip-rule="evenodd" d="M12.7864 8.77441C14.0726 8.77443 15.1155 9.81728 15.1155 11.1035C15.1152 12.3895 14.0724 13.4326 12.7864 13.4326H11.5628V15.6426H10.0628V8.77441H12.7864ZM11.5628 11.9326H12.7864C13.244 11.9326 13.6152 11.561 13.6155 11.1035C13.6155 10.6457 13.2442 10.2744 12.7864 10.2744H11.5628V11.9326Z" fill="#202022"/>
<path fill-rule="evenodd" clip-rule="evenodd" d="M12.6526 1.70801C13.3165 2.55228 14.7641 3.42096 16.6966 3.87207C18.3743 4.26369 19.9502 4.22975 21.0618 3.90234L21.8811 3.66113L22.014 4.50586C23.8253 16.0317 17.0047 21.7329 12.2434 22.9141L12.0628 22.958L11.8821 22.9141C7.12085 21.7329 0.300284 16.0317 2.11161 4.50586L2.24442 3.66113L3.06376 3.90234C4.17532 4.22974 5.75124 4.2637 7.42899 3.87207C9.36145 3.42095 10.8091 2.55228 11.4729 1.70801L12.0628 0.958008L12.6526 1.70801ZM12.0628 6.20801C8.74907 6.20801 6.06278 8.8943 6.06278 12.208C6.06278 15.5217 8.74907 18.208 12.0628 18.208C15.3765 18.208 18.0628 15.5217 18.0628 12.208C18.0628 8.89432 15.3765 6.20805 12.0628 6.20801Z" fill="#202022"/>
</g>
</g>
</svg>
