<svg width="24" height="24" viewBox="0 0 24 24" fill="none" xmlns="http://www.w3.org/2000/svg">
<g id="Type=Filled">
<path id="Shape" fill-rule="evenodd" clip-rule="evenodd" d="M12.6526 1.70801C13.3165 2.55229 14.7641 3.42096 16.6966 3.87207C18.3744 4.2637 19.9502 4.22975 21.0618 3.90234L21.8811 3.66113L22.014 4.50586C23.8253 16.0317 17.0047 21.7329 12.2434 22.9141L12.0628 22.958L11.8821 22.9141C7.12085 21.7329 0.300284 16.0317 2.11161 4.50586L2.24442 3.66113L3.06376 3.90234C4.17532 4.22975 5.75122 4.2637 7.42899 3.87207C9.36147 3.42095 10.8091 2.55229 11.4729 1.70801L12.0628 0.958008L12.6526 1.70801ZM10.5628 10.458H7.56278V13.458H10.5628V16.458H13.5628V13.458H16.5628V10.458H13.5628V7.45801H10.5628V10.458Z" fill="#202022"/>
</g>
</svg>
