<svg width="24" height="24" viewBox="0 0 24 24" fill="none" xmlns="http://www.w3.org/2000/svg">
<g id="Type=Outline">
<g id="Shape">
<path d="M15.0879 8.7998C16.0227 8.2877 17.2157 8.43145 18.0058 9.23145C18.9688 10.2063 18.9688 11.7889 18.0058 12.7637L14.2422 16.5742L13.0527 15.3701L14.5869 13.8174L14.7265 13.6689C15.9464 12.303 16.0659 10.2935 15.0879 8.7998Z" fill="#202022"/>
<path d="M11.999 8.50977C12.0012 8.50955 12.0036 8.50899 12.0058 8.50879C12.5584 8.56092 13.0975 8.80215 13.5205 9.23047L13.6894 9.4209C14.4791 10.4013 14.4228 11.8489 13.5205 12.7627L9.75584 16.5732L5.99314 12.7627C5.96171 12.7309 5.93268 12.6962 5.9033 12.6631C5.03321 11.6829 5.06161 10.1742 5.99314 9.23145C6.95662 8.25603 8.5182 8.25596 9.48142 9.23145L9.75584 9.50879L10.0312 9.23047C10.0813 9.17975 10.1333 9.13138 10.1865 9.08594C10.7048 8.64343 11.3613 8.45128 11.999 8.50977Z" fill="#202022"/>
<path fill-rule="evenodd" clip-rule="evenodd" d="M12.5898 1.75C13.2537 2.59428 14.7013 3.46295 16.6338 3.91406C18.3115 4.3057 19.8874 4.27174 20.999 3.94434L21.8183 3.70312L21.9511 4.54785C23.7625 16.0737 16.9419 21.7749 12.1806 22.9561L12 23L11.8193 22.9561C7.05804 21.7749 0.237479 16.0737 2.0488 4.54785L2.18162 3.70312L3.00095 3.94434C4.11252 4.27174 5.68841 4.3057 7.36619 3.91406C9.29866 3.46294 10.7463 2.59428 11.4101 1.75L12 1L12.5898 1.75ZM12 3.30273C10.9823 4.22423 9.45112 4.96883 7.70701 5.37598C6.18835 5.73047 4.68637 5.78823 3.41892 5.5752C2.17941 15.5869 8.04877 20.3705 12 21.4492C15.9512 20.3704 21.8196 15.587 20.5801 5.5752C19.3128 5.78804 17.8112 5.73038 16.2929 5.37598C14.5488 4.96884 13.0176 4.22422 12 3.30273Z" fill="#202022"/>
</g>
</g>
</svg>
