<svg width="24" height="24" viewBox="0 0 24 24" fill="none" xmlns="http://www.w3.org/2000/svg">
<g id="Type=Filled">
<path id="Shape" d="M12.5894 1.70801C13.2532 2.5523 14.7009 3.4209 16.6334 3.87207C18.311 4.26367 19.8871 4.22966 20.9986 3.90234L21.818 3.66113L21.9508 4.50586C23.7621 16.0317 16.9415 21.7329 12.1803 22.9141L11.9996 22.958L11.8189 22.9141C8.72661 22.1468 4.76636 19.4728 2.86582 14.5352H8.27304L9.36679 11.1797L11.9977 19.9258L14.401 13.2539L14.8717 14.5352H17.9996V13.0352H15.9186L14.3893 8.8623L12.1256 15.1445L9.42441 6.16406L7.18418 13.0352H2.37461C1.72211 10.6531 1.52756 7.82029 2.04843 4.50586L2.18125 3.66113L3.00058 3.90234C4.11207 4.22974 5.68816 4.26362 7.36582 3.87207C9.29815 3.42099 10.7459 2.55223 11.4098 1.70801L11.9996 0.958008L12.5894 1.70801Z" fill="#202022"/>
</g>
</svg>
