<svg width="24" height="24" viewBox="0 0 24 24" fill="none" xmlns="http://www.w3.org/2000/svg">
<g id="Type=Filled">
<path id="Shape" fill-rule="evenodd" clip-rule="evenodd" d="M12.6526 1.70801C13.3165 2.55229 14.7641 3.42096 16.6966 3.87207C18.3744 4.2637 19.9502 4.22975 21.0618 3.90234L21.8811 3.66113L22.014 4.50586C23.8253 16.0317 17.0047 21.7329 12.2434 22.9141L12.0628 22.958L11.8821 22.9141C7.12085 21.7329 0.300284 16.0317 2.11161 4.50586L2.24442 3.66113L3.06376 3.90234C4.17532 4.22975 5.75122 4.2637 7.42899 3.87207C9.36147 3.42095 10.8091 2.55229 11.4729 1.70801L12.0628 0.958008L12.6526 1.70801ZM12.0667 7.8584C10.9189 6.69951 9.00183 6.6541 7.79423 7.75195C6.58661 8.84995 6.53108 10.6799 7.6829 11.8389C7.69073 11.8464 7.6985 11.8577 7.70634 11.8652C8.2125 12.3609 8.4954 13.0248 8.4954 13.7148V13.7529C8.49542 16.0744 9.11705 17.9575 9.88212 17.958C10.4002 17.958 10.855 17.0964 11.0901 15.8154C11.2017 15.2054 11.5247 14.1914 12.0667 14.1914C12.6524 14.1916 12.9277 15.2055 13.0433 15.8154C13.2823 17.0923 13.7323 17.9577 14.2503 17.958C15.0155 17.958 15.638 16.0747 15.638 13.7529V13.7148C15.638 13.0248 15.9209 12.3609 16.427 11.8652C16.9927 11.301 17.2997 10.5421 17.2718 9.76074C17.2157 8.1635 15.8165 6.91343 14.1507 6.9668C13.3618 6.99354 12.6126 7.30962 12.0667 7.8584Z" fill="#202022"/>
</g>
</svg>
