<svg width="24" height="24" viewBox="0 0 24 24" fill="none" xmlns="http://www.w3.org/2000/svg">
<g id="Type=Outline">
<g id="Shape">
<path fill-rule="evenodd" clip-rule="evenodd" d="M16.5 17H13.25V15H10.75V17H7.49998V7.5H16.5V17ZM11.2451 10.2451H9.99998V11.7451H11.2451V13H12.7451V11.7451H14V10.2451H12.7451V9H11.2451V10.2451Z" fill="#202022"/>
<path fill-rule="evenodd" clip-rule="evenodd" d="M12.5898 1.75C13.2537 2.59428 14.7013 3.46295 16.6338 3.91406C18.3115 4.3057 19.8874 4.27174 20.999 3.94434L21.8183 3.70312L21.9511 4.54785C23.7625 16.0737 16.9419 21.7749 12.1806 22.9561L12 23L11.8193 22.9561C7.05804 21.7749 0.237479 16.0737 2.0488 4.54785L2.18162 3.70312L3.00095 3.94434C4.11252 4.27174 5.68841 4.3057 7.36619 3.91406C9.29866 3.46294 10.7463 2.59428 11.4101 1.75L12 1L12.5898 1.75ZM12 3.30273C10.9823 4.22423 9.45112 4.96883 7.70701 5.37598C6.18835 5.73047 4.68637 5.78823 3.41892 5.5752C2.17941 15.5869 8.04877 20.3705 12 21.4492C15.9512 20.3704 21.8196 15.587 20.5801 5.5752C19.3128 5.78804 17.8112 5.73038 16.2929 5.37598C14.5488 4.96884 13.0176 4.22422 12 3.30273Z" fill="#202022"/>
</g>
</g>
</svg>
