<svg width="24" height="24" viewBox="0 0 24 24" fill="none" xmlns="http://www.w3.org/2000/svg">
<g id="Type=Filled">
<path id="Vector" d="M12.902 1.757L12.312 1.008L11.722 1.757C11.058 2.601 9.61099 3.469 7.67799 3.92C6.83099 4.118 6.01099 4.207 5.26299 4.205L2.49899 1.441L1.43799 2.502L21.438 22.502L22.499 21.441L19.354 18.296C21.713 15.266 23.239 10.753 22.264 4.554L22.131 3.71L21.311 3.951C20.199 4.278 18.624 4.312 16.946 3.921C15.013 3.47 13.566 2.602 12.902 1.758V1.757Z" fill="#202022"/>
<path id="Vector_2" d="M17.265 20.453L2.23797 5.42603C0.896966 16.36 7.49197 21.798 12.131 22.948L12.311 22.993L12.491 22.948C13.989 22.577 15.691 21.758 17.264 20.452L17.265 20.453Z" fill="#202022"/>
</g>
</svg>
