<svg width="24" height="24" viewBox="0 0 24 24" fill="none" xmlns="http://www.w3.org/2000/svg">
<g id="Type=Outline">
<g id="Shape">
<path d="M13.5628 7.5V10.5H16.5628V13.5H13.5628V16.5H10.5628V13.5H7.56278V10.5H10.5628V7.5H13.5628Z" fill="#202022"/>
<path fill-rule="evenodd" clip-rule="evenodd" d="M12.6526 1.75C13.3165 2.59428 14.7641 3.46295 16.6966 3.91406C18.3744 4.3057 19.9502 4.27174 21.0618 3.94434L21.8811 3.70312L22.014 4.54785C23.8253 16.0737 17.0047 21.7749 12.2434 22.9561L12.0628 23L11.8821 22.9561C7.12085 21.7749 0.300284 16.0737 2.11161 4.54785L2.24442 3.70312L3.06376 3.94434C4.17532 4.27174 5.75122 4.3057 7.42899 3.91406C9.36147 3.46294 10.8091 2.59428 11.4729 1.75L12.0628 1L12.6526 1.75ZM12.0628 3.30273C11.0451 4.22423 9.51393 4.96883 7.76981 5.37598C6.25115 5.73047 4.74917 5.78823 3.48173 5.5752C2.24221 15.5869 8.11158 20.3705 12.0628 21.4492C16.014 20.3704 21.8824 15.587 20.6429 5.5752C19.3756 5.78804 17.874 5.73038 16.3558 5.37598C14.6116 4.96884 13.0804 4.22422 12.0628 3.30273Z" fill="#202022"/>
</g>
</g>
</svg>
