<svg width="24" height="24" viewBox="0 0 24 24" fill="none" xmlns="http://www.w3.org/2000/svg">
<g id="Type=Outline">
<g id="Shape">
<path fill-rule="evenodd" clip-rule="evenodd" d="M14.4707 6C15.4259 6 16.201 6.75745 16.2012 7.69141V12.3633C16.2012 13.2974 15.426 14.0547 14.4707 14.0547H14.3594L15.2598 15.376H15.2656V15.3838L16.5 17.1953L15.2666 17.999L14.4658 16.8262H9.53419L8.73341 18L7.50001 17.1953L9.64063 14.0547H9.5293C8.574 14.0547 7.79884 13.2974 7.79884 12.3633V7.69141C7.79903 6.75745 8.57412 6 9.5293 6H14.4707ZM10.5225 15.376H13.4775L12.5772 14.0547H11.4229L10.5225 15.376ZM10.3916 10.8301C9.84596 10.8302 9.40351 11.2624 9.40333 11.7959C9.40333 12.3296 9.84584 12.7626 10.3916 12.7627C10.9375 12.7627 11.3799 12.3297 11.3799 11.7959C11.3797 11.2623 10.9374 10.8301 10.3916 10.8301ZM13.6084 10.8301C13.0626 10.8301 12.6203 11.2623 12.6201 11.7959C12.6201 12.3297 13.0625 12.7627 13.6084 12.7627C14.1541 12.7625 14.5967 12.3296 14.5967 11.7959C14.5965 11.2624 14.154 10.8302 13.6084 10.8301ZM9.5293 9.32227H14.4707V7.87305H9.5293V9.32227Z" fill="#202022"/>
<path fill-rule="evenodd" clip-rule="evenodd" d="M12.5899 1.75C13.2537 2.59428 14.7013 3.46295 16.6338 3.91406C18.3116 4.3057 19.8875 4.27174 20.999 3.94434L21.8184 3.70312L21.9512 4.54785C23.7625 16.0737 16.9419 21.7749 12.1807 22.9561L12 23L11.8193 22.9561C7.05807 21.7749 0.237509 16.0737 2.04884 4.54785L2.18165 3.70312L3.00098 3.94434C4.11255 4.27174 5.68844 4.3057 7.36622 3.91406C9.29869 3.46294 10.7463 2.59428 11.4102 1.75L12 1L12.5899 1.75ZM12 3.30273C10.9824 4.22423 9.45115 4.96883 7.70704 5.37598C6.18838 5.73047 4.6864 5.78823 3.41895 5.5752C2.17944 15.5869 8.0488 20.3705 12 21.4492C15.9512 20.3704 21.8197 15.587 20.5801 5.5752C19.3128 5.78804 17.8113 5.73038 16.293 5.37598C14.5489 4.96884 13.0177 4.22422 12 3.30273Z" fill="#202022"/>
</g>
</g>
</svg>
