<svg width="24" height="24" viewBox="0 0 24 24" fill="none" xmlns="http://www.w3.org/2000/svg">
<g id="Type=Filled">
<g id="Shape">
<path d="M10.6907 8.85645C11.57 8.50941 12.5541 8.51204 13.4348 8.85742L12.0627 10.8389L10.6907 8.85645Z" fill="#202022"/>
<path fill-rule="evenodd" clip-rule="evenodd" d="M12.6526 1.70801C13.3164 2.55229 14.764 3.42096 16.6965 3.87207C18.3743 4.2637 19.9502 4.22975 21.0617 3.90234L21.8811 3.66113L22.0139 4.50586C23.8252 16.0317 17.0047 21.7329 12.2434 22.9141L12.0627 22.958L11.8821 22.9141C7.12079 21.7329 0.300223 16.0317 2.11155 4.50586L2.24436 3.66113L3.0637 3.90234C4.17526 4.22975 5.75116 4.2637 7.42893 3.87207C9.36141 3.42095 10.8091 2.55229 11.4729 1.70801L12.0627 0.958008L12.6526 1.70801ZM14.5266 7.29395C13.0721 6.18165 11.0506 6.17668 9.59983 7.29395C8.58562 8.01643 8.34091 9.43358 9.05296 10.4619L10.6887 12.8242L8.06272 16.6172L9.90745 17.9229L12.0627 14.8086L14.219 17.9229L16.0627 16.6162L13.4367 12.8242L15.0735 10.4619C15.7853 9.43363 15.5397 8.01738 14.5256 7.29492L14.5266 7.29395Z" fill="#202022"/>
</g>
</g>
</svg>
