<svg width="24" height="24" viewBox="0 0 24 24" fill="none" xmlns="http://www.w3.org/2000/svg">
<g id="Type=Filled">
<path id="Shape" fill-rule="evenodd" clip-rule="evenodd" d="M12.5898 1.75C13.2536 2.59429 14.7013 3.46292 16.6338 3.91406C18.3115 4.30569 19.8874 4.2717 20.999 3.94434L21.8183 3.70312L21.9511 4.54785C23.7625 16.0737 16.9419 21.7749 12.1806 22.9561L12 23L11.8193 22.9561C7.05804 21.7748 0.237495 16.0736 2.0488 4.54785L2.18161 3.70312L3.00095 3.94434C4.11247 4.27174 5.68845 4.30566 7.36618 3.91406C9.29859 3.46297 10.7463 2.59425 11.4101 1.75L12 1L12.5898 1.75ZM18.0058 9.23145C17.2157 8.43151 16.0227 8.2876 15.0879 8.7998C16.066 10.2936 15.9465 12.303 14.7265 13.6689L14.5869 13.8174L13.0527 15.3701L14.2422 16.5742L18.0058 12.7637C18.9689 11.7889 18.9688 10.2063 18.0058 9.23145ZM11.999 8.50977C11.3613 8.45132 10.7048 8.64339 10.1865 9.08594C10.1333 9.13142 10.0814 9.1797 10.0312 9.23047L9.75583 9.50879L9.48142 9.23145C8.51815 8.25604 6.95656 8.25595 5.99313 9.23145C5.06164 10.1741 5.03331 11.6829 5.90329 12.6631C5.93264 12.6961 5.96175 12.7309 5.99313 12.7627L9.75583 16.5732L13.5205 12.7627C14.4229 11.8489 14.4791 10.4014 13.6894 9.4209L13.5205 9.23047C13.0975 8.80222 12.5583 8.56091 12.0058 8.50879C12.0036 8.509 12.0013 8.50956 11.999 8.50977Z" fill="#202022"/>
</g>
</svg>
