<svg width="24" height="24" viewBox="0 0 24 24" fill="none" xmlns="http://www.w3.org/2000/svg">
<g id="Type=Filled">
<g id="Shape">
<path d="M16 10.583V14.333H8.00004V10.583H16Z" fill="#202022"/>
<path fill-rule="evenodd" clip-rule="evenodd" d="M12.5899 1.70801C13.2537 2.55229 14.7014 3.42096 16.6338 3.87207C18.3116 4.2637 19.8875 4.22975 20.9991 3.90234L21.8184 3.66113L21.9512 4.50586C23.7625 16.0317 16.942 21.7329 12.1807 22.9141L12 22.958L11.8194 22.9141C7.0581 21.7329 0.23754 16.0317 2.04887 4.50586L2.18168 3.66113L3.00101 3.90234C4.11258 4.22975 5.68847 4.2637 7.36625 3.87207C9.29872 3.42095 10.7464 2.55229 11.4102 1.70801L12 0.958008L12.5899 1.70801ZM8.75004 6.45801V8.08301H6.50004V15.833H17.5V8.08301H15.25V6.45801H13.75V8.08301H10.25V6.45801H8.75004Z" fill="#202022"/>
</g>
</g>
</svg>
