<svg width="24" height="24" viewBox="0 0 24 24" fill="none" xmlns="http://www.w3.org/2000/svg">
<g id="Type=Outline">
<path id="Vector" d="M11.844 1.03699L12.433 1.78599C13.097 2.62999 14.544 3.49799 16.477 3.94899C18.155 4.33999 19.73 4.30699 20.842 3.97899L21.662 3.73799L21.795 4.58199C23.607 16.1 16.785 21.797 12.024 22.977L11.844 23.022L11.664 22.977C6.90299 21.797 0.0819908 16.1 1.89299 4.58199L2.02599 3.73799L2.84599 3.97899C3.95799 4.30599 5.53299 4.33999 7.21099 3.94899C9.14399 3.49799 10.591 2.62999 11.255 1.78599L11.844 1.03699ZM11.844 3.33999C10.826 4.26099 9.29499 5.00299 7.55099 5.40999C6.03199 5.76399 4.52999 5.82299 3.26299 5.60999C2.02399 15.615 7.89299 20.397 11.844 21.475C15.795 20.397 21.664 15.615 20.425 5.60999C19.157 5.82299 17.655 5.76399 16.137 5.40999C14.393 5.00299 12.862 4.25999 11.844 3.33999Z" fill="#202022"/>
</g>
</svg>
