<svg width="24" height="24" viewBox="0 0 24 24" fill="none" xmlns="http://www.w3.org/2000/svg">
<g id="Type=Outline">
<g id="Shape">
<path fill-rule="evenodd" clip-rule="evenodd" d="M12 6C15.3137 6.00001 18 8.6863 18 12C18 15.3137 15.3137 18 12 18C8.68633 18 6.00004 15.3137 6.00004 12C6.00004 8.68629 8.68633 6 12 6ZM11.25 12.75H16.25V11.25H12.75V7.75H11.25V12.75Z" fill="#202022"/>
<path fill-rule="evenodd" clip-rule="evenodd" d="M12.5899 1.75C13.2537 2.59428 14.7014 3.46295 16.6338 3.91406C18.3116 4.3057 19.8875 4.27174 20.9991 3.94434L21.8184 3.70312L21.9512 4.54785C23.7625 16.0737 16.942 21.7749 12.1807 22.9561L12 23L11.8194 22.9561C7.0581 21.7749 0.23754 16.0737 2.04887 4.54785L2.18168 3.70312L3.00101 3.94434C4.11258 4.27174 5.68847 4.3057 7.36625 3.91406C9.29872 3.46294 10.7464 2.59428 11.4102 1.75L12 1L12.5899 1.75ZM12 3.30273C10.9824 4.22423 9.45118 4.96883 7.70707 5.37598C6.18841 5.73047 4.68643 5.78823 3.41898 5.5752C2.17947 15.5869 8.04883 20.3705 12 21.4492C15.9513 20.3704 21.8197 15.587 20.5801 5.5752C19.3129 5.78804 17.8113 5.73038 16.293 5.37598C14.5489 4.96884 13.0177 4.22422 12 3.30273Z" fill="#202022"/>
</g>
</g>
</svg>
