<svg width="24" height="24" viewBox="0 0 24 24" fill="none" xmlns="http://www.w3.org/2000/svg">
<g id="Type=Outline">
<path id="Vector" d="M12.312 1.00698L12.902 1.75598C13.566 2.59998 15.013 3.46798 16.946 3.91898C18.624 4.30998 20.199 4.27698 21.311 3.94898L22.131 3.70798L22.264 4.55198C23.239 10.751 21.714 15.264 19.354 18.294L22.499 21.439L21.438 22.5L1.43799 2.49998L2.49899 1.43898L5.26299 4.20298C6.01099 4.20498 6.83199 4.11598 7.67799 3.91798C9.61099 3.46698 11.058 2.59898 11.722 1.75498L12.312 1.00698ZM6.67699 5.61798L18.284 17.225C20.24 14.632 21.543 10.823 20.893 5.57998C19.625 5.79298 18.123 5.73398 16.605 5.37998C14.861 4.97298 13.33 4.22998 12.312 3.30998C11.294 4.23098 9.76299 4.97298 8.01899 5.37998C7.56799 5.48498 7.11899 5.56398 6.67699 5.61798Z" fill="#202022"/>
<path id="Vector_2" d="M16.1999 19.388L17.2649 20.453C15.6919 21.759 13.9899 22.577 12.4919 22.949L12.3119 22.994L12.1319 22.949C7.49294 21.799 0.897942 16.361 2.23894 5.427L3.61294 6.801C2.97594 15.977 8.52594 20.413 12.3129 21.446C13.5159 21.118 14.8959 20.446 16.1999 19.388Z" fill="#202022"/>
</g>
</svg>
