<svg width="24" height="24" viewBox="0 0 24 24" fill="none" xmlns="http://www.w3.org/2000/svg">
<g id="Type=Outline">
<path id="Shape" fill-rule="evenodd" clip-rule="evenodd" d="M12.5899 1.75C13.2537 2.59428 14.7014 3.46295 16.6338 3.91406C18.3116 4.3057 19.8875 4.27174 20.9991 3.94434L21.8184 3.70312L21.9512 4.54785C23.7625 16.0737 16.942 21.7749 12.1807 22.9561L12 23L11.8194 22.9561C7.0581 21.7749 0.23754 16.0737 2.04887 4.54785L2.18168 3.70312L3.00101 3.94434C4.11258 4.27174 5.68847 4.3057 7.36625 3.91406C9.29872 3.46294 10.7464 2.59428 11.4102 1.75L12 1L12.5899 1.75ZM12 3.30273C10.9824 4.22423 9.45118 4.96883 7.70707 5.37598C6.18841 5.73047 4.68643 5.78823 3.41898 5.5752C3.05768 8.4935 3.30072 10.9676 3.92387 13.0352H7.18461L9.42484 6.16406L12.126 15.1445L14.3897 8.8623L15.919 13.0352H18V14.5352H14.8721L14.4014 13.2539L11.9981 19.9258L9.36723 11.1797L8.27348 14.5352H4.47074C6.21672 18.5895 9.49371 20.7649 12 21.4492C15.9513 20.3704 21.8197 15.587 20.5801 5.5752C19.3129 5.78804 17.8113 5.73038 16.293 5.37598C14.5489 4.96884 13.0177 4.22422 12 3.30273Z" fill="#202022"/>
</g>
</svg>
