<svg width="24" height="24" viewBox="0 0 24 24" fill="none" xmlns="http://www.w3.org/2000/svg">
<g id="Type=Filled">
<g id="Shape">
<path d="M12.5772 14.2373L13.4775 15.5889H10.5225L11.4229 14.2373H12.5772Z" fill="#202022"/>
<path d="M10.3916 10.9395C10.9375 10.9395 11.3798 11.3819 11.3799 11.9277C11.3798 12.4736 10.9374 12.916 10.3916 12.916C9.84589 12.9159 9.40341 12.4735 9.40333 11.9277C9.40339 11.382 9.84588 10.9396 10.3916 10.9395Z" fill="#202022"/>
<path d="M13.6084 10.9395C14.1541 10.9396 14.5966 11.382 14.5967 11.9277C14.5966 12.4734 14.1541 12.9158 13.6084 12.916C13.0626 12.916 12.6202 12.4736 12.6201 11.9277C12.6202 11.3819 13.0626 10.9395 13.6084 10.9395Z" fill="#202022"/>
<path d="M14.4707 7.91504V9.39746H9.5293V7.91504H14.4707Z" fill="#202022"/>
<path fill-rule="evenodd" clip-rule="evenodd" d="M12.5899 1.75C13.2537 2.59428 14.7013 3.46295 16.6338 3.91406C18.3116 4.3057 19.8875 4.27174 20.999 3.94434L21.8184 3.70312L21.9512 4.54785C23.7625 16.0737 16.9419 21.7749 12.1807 22.9561L12 23L11.8193 22.9561C7.05807 21.7749 0.23751 16.0737 2.04884 4.54785L2.18165 3.70312L3.00098 3.94434C4.11255 4.27174 5.68844 4.3057 7.36622 3.91406C9.29869 3.46294 10.7463 2.59428 11.4102 1.75L12 1L12.5899 1.75ZM9.5293 6C8.5742 6 7.79916 6.77446 7.79884 7.72949V12.5078C7.7989 13.4631 8.57404 14.2373 9.5293 14.2373H9.64063L7.50001 17.4492L8.73341 18.2725L9.53419 17.0713H14.4658L15.2666 18.2715L16.5 17.4492L15.2656 15.5967V15.5889H15.2598L14.3594 14.2373H14.4707C15.426 14.2373 16.2011 13.4631 16.2012 12.5078V7.72949C16.2009 6.77446 15.4258 6 14.4707 6H9.5293Z" fill="#202022"/>
</g>
</g>
</svg>
