<svg width="24" height="24" viewBox="0 0 24 24" fill="none" xmlns="http://www.w3.org/2000/svg">
<g id="Type=Outline">
<g id="Shape">
<path fill-rule="evenodd" clip-rule="evenodd" d="M9.59983 7.32715C11.0506 6.22229 13.0721 6.22721 14.5266 7.32715L14.5256 7.32812C15.5395 8.04261 15.7853 9.44317 15.0735 10.46L13.4367 12.7959L16.0627 16.5459L14.219 17.8379L12.0627 14.7578L9.90745 17.8379L8.06272 16.5469L10.6887 12.7959L9.05296 10.46C8.34096 9.44313 8.58581 8.04166 9.59983 7.32715ZM13.4348 8.87305C12.554 8.53146 11.57 8.52884 10.6907 8.87207L12.0627 10.832L13.4348 8.87305Z" fill="#202022"/>
<path fill-rule="evenodd" clip-rule="evenodd" d="M12.6526 1.75C13.3164 2.59428 14.764 3.46295 16.6965 3.91406C18.3743 4.3057 19.9502 4.27174 21.0617 3.94434L21.8811 3.70312L22.0139 4.54785C23.8252 16.0737 17.0047 21.7749 12.2434 22.9561L12.0627 23L11.8821 22.9561C7.12079 21.7749 0.300223 16.0737 2.11155 4.54785L2.24436 3.70312L3.0637 3.94434C4.17526 4.27174 5.75116 4.3057 7.42893 3.91406C9.36141 3.46294 10.8091 2.59428 11.4729 1.75L12.0627 1L12.6526 1.75ZM12.0627 3.30273C11.0451 4.22423 9.51387 4.96883 7.76975 5.37598C6.25109 5.73047 4.74911 5.78823 3.48167 5.5752C2.24215 15.5869 8.11152 20.3705 12.0627 21.4492C16.0139 20.3704 21.8824 15.587 20.6428 5.5752C19.3756 5.78804 17.874 5.73038 16.3557 5.37598C14.6116 4.96884 13.0804 4.22422 12.0627 3.30273Z" fill="#202022"/>
</g>
</g>
</svg>
