<svg width="24" height="24" viewBox="0 0 24 24" fill="none" xmlns="http://www.w3.org/2000/svg">
<g id="Type=Outline">
<g id="Shape">
<path d="M7.79423 7.79395C9.00183 6.69609 10.9189 6.7415 12.0667 7.90039C12.6126 7.35161 13.3618 7.03554 14.1507 7.00879C15.8165 6.95542 17.2157 8.20549 17.2718 9.80273C17.2997 10.5841 16.9927 11.343 16.427 11.9072C15.9209 12.4029 15.638 13.0668 15.638 13.7568V13.7949C15.638 16.1167 15.0155 18 14.2503 18C13.7323 17.9997 13.2823 17.1343 13.0433 15.8574C12.9277 15.2475 12.6524 14.2336 12.0667 14.2334C11.5247 14.2334 11.2017 15.2474 11.0901 15.8574C10.855 17.1384 10.4002 18 9.88212 18C9.11705 17.9995 8.49542 16.1164 8.4954 13.7949V13.7568C8.4954 13.0668 8.2125 12.4029 7.70634 11.9072C7.6985 11.8997 7.69073 11.8884 7.6829 11.8809C6.53108 10.7219 6.58661 8.89194 7.79423 7.79395Z" fill="#202022"/>
<path fill-rule="evenodd" clip-rule="evenodd" d="M12.6526 1.75C13.3165 2.59428 14.7641 3.46295 16.6966 3.91406C18.3744 4.3057 19.9502 4.27174 21.0618 3.94434L21.8811 3.70312L22.014 4.54785C23.8253 16.0737 17.0047 21.7749 12.2434 22.9561L12.0628 23L11.8821 22.9561C7.12085 21.7749 0.300284 16.0737 2.11161 4.54785L2.24442 3.70312L3.06376 3.94434C4.17532 4.27174 5.75122 4.3057 7.42899 3.91406C9.36147 3.46294 10.8091 2.59428 11.4729 1.75L12.0628 1L12.6526 1.75ZM12.0628 3.30273C11.0451 4.22423 9.51393 4.96883 7.76981 5.37598C6.25115 5.73047 4.74917 5.78823 3.48173 5.5752C2.24221 15.5869 8.11158 20.3705 12.0628 21.4492C16.014 20.3704 21.8824 15.587 20.6429 5.5752C19.3756 5.78804 17.874 5.73038 16.3558 5.37598C14.6116 4.96884 13.0804 4.22422 12.0628 3.30273Z" fill="#202022"/>
</g>
</g>
</svg>
