<svg width="24" height="24" viewBox="0 0 24 24" fill="none" xmlns="http://www.w3.org/2000/svg">
<g id="Type=Outline">
<path id="Vector" d="M3.48995 7.90499C2.41595 6.83099 2.41595 5.08999 3.48995 4.01599L4.72595 2.77999C5.79995 1.70599 7.54095 1.70599 8.61495 2.77999L21.2919 15.457L22.5209 21.811L16.1669 20.582L3.48995 7.90499ZM4.54995 5.07699C4.06195 5.56499 4.06195 6.35699 4.54995 6.84499L5.82095 8.11599L8.82495 5.11199L7.55395 3.84099C7.06595 3.35299 6.27395 3.35299 5.78595 3.84099L4.54995 5.07699ZM9.88595 6.17199L6.88195 9.17599L16.9019 19.196L20.6259 19.916L19.9059 16.192L9.88595 6.17199Z" fill="#202022"/>
<path id="Vector_2" d="M7.00898 17.58L2.48298 21.654L1.47998 20.539L6.42298 16.09C7.22698 15.366 8.50898 15.937 8.50898 17.019V20.212L10.423 18.49C11.227 17.766 12.509 18.337 12.509 19.419V20.346H13.981V21.846H12.259C11.569 21.846 11.009 21.286 11.009 20.596V19.98L9.09498 21.702C8.29098 22.426 7.00898 21.855 7.00898 20.773V17.58Z" fill="#202022"/>
</g>
</svg>
