<svg width="24" height="24" viewBox="0 0 24 24" fill="none" xmlns="http://www.w3.org/2000/svg">
<g id="Type=Filled">
<path id="Vector" d="M3.76605 6.89599C2.98505 6.11499 2.98505 4.84899 3.76605 4.06799L5.18005 2.65399C5.96105 1.87299 7.22705 1.87299 8.00805 2.65399L9.42005 4.06599L5.17705 8.30899L3.76505 6.89699L3.76605 6.89599Z" fill="#202022"/>
<path id="Vector_2" d="M6.23804 9.36898L10.481 5.12598L21.133 15.778L22.151 21.038L16.891 20.021L6.23804 9.36898Z" fill="#202022"/>
<path id="Vector_3" d="M2.85298 21.56L7.37898 17.487V20.68C7.37898 21.762 8.66098 22.333 9.46498 21.609L11.379 19.887V20.503C11.379 21.193 11.939 21.753 12.629 21.753H14.351V20.253H12.879V19.326C12.879 18.244 11.597 17.673 10.793 18.397L8.87898 20.119V16.926C8.87898 15.844 7.59698 15.273 6.79298 15.997L1.84998 20.446L2.85298 21.561V21.56Z" fill="#202022"/>
</g>
</svg>
