<svg width="24" height="24" viewBox="0 0 24 24" fill="none" xmlns="http://www.w3.org/2000/svg">
<g id="Type=Filled">
<path id="Vector" d="M2.25 5.5C2.25 3.705 3.705 2.25 5.5 2.25C7.295 2.25 8.75 3.705 8.75 5.5C8.75 7.295 7.295 8.75 5.5 8.75C3.705 8.75 2.25 7.295 2.25 5.5Z" fill="#202022"/>
<path id="Vector_2" d="M15.25 5.5C15.25 3.705 16.705 2.25 18.5 2.25C20.295 2.25 21.75 3.705 21.75 5.5C21.75 7.037 20.683 8.325 19.249 8.663C19.162 14.47 14.471 19.162 8.66401 19.248C8.32601 20.682 7.03801 21.749 5.50101 21.749C3.70601 21.749 2.25101 20.294 2.25101 18.499C2.25101 16.704 3.70601 15.249 5.50101 15.249C7.03701 15.249 8.32501 16.315 8.66401 17.748C13.644 17.662 17.664 13.642 17.75 8.662C16.317 8.323 15.251 7.036 15.251 5.499L15.25 5.5Z" fill="#202022"/>
<path id="Vector_3" d="M6.25 9.875V11.375H4.75V9.875H6.25Z" fill="#202022"/>
<path id="Vector_4" d="M6.25 14.125V12.625H4.75V14.125H6.25Z" fill="#202022"/>
</g>
</svg>
