<svg width="24" height="24" viewBox="0 0 24 24" fill="none" xmlns="http://www.w3.org/2000/svg">
<g id="Type=Outline">
<path id="Vector" d="M5.5 2.25C3.705 2.25 2.25 3.705 2.25 5.5C2.25 7.295 3.705 8.75 5.5 8.75C7.295 8.75 8.75 7.295 8.75 5.5C8.75 3.705 7.295 2.25 5.5 2.25ZM3.75 5.5C3.75 4.534 4.533 3.75 5.5 3.75C6.467 3.75 7.25 4.533 7.25 5.5C7.25 6.466 6.467 7.25 5.5 7.25C4.533 7.25 3.75 6.467 3.75 5.5Z" fill="#202022"/>
<path id="Vector_2" d="M18.5 2.25002C20.295 2.25002 21.75 3.70502 21.75 5.50002C21.75 7.03702 20.683 8.32502 19.249 8.66302C19.162 14.47 14.471 19.162 8.66401 19.248C8.32601 20.682 7.03801 21.749 5.50101 21.749C3.70601 21.749 2.25101 20.294 2.25101 18.499C2.25101 16.704 3.70601 15.249 5.50101 15.249C7.03701 15.249 8.32501 16.315 8.66401 17.748C13.644 17.662 17.664 13.642 17.75 8.66202C16.317 8.32302 15.251 7.03602 15.251 5.49902C15.251 3.70402 16.706 2.24902 18.501 2.24902L18.5 2.25002ZM16.75 5.50002C16.75 6.46602 17.533 7.25002 18.5 7.25002C19.467 7.25002 20.25 6.46702 20.25 5.50002C20.25 4.53402 19.467 3.75002 18.5 3.75002C17.533 3.75002 16.75 4.53302 16.75 5.50002ZM5.50001 16.75C4.53401 16.75 3.75001 17.533 3.75001 18.5C3.75001 19.467 4.53301 20.25 5.50001 20.25C6.46601 20.25 7.25001 19.467 7.25001 18.5C7.25001 17.533 6.46701 16.75 5.50001 16.75Z" fill="#202022"/>
<path id="Vector_3" d="M6.25 9.875V11.375H4.75V9.875H6.25Z" fill="#202022"/>
<path id="Vector_4" d="M6.25 14.125V12.625H4.75V14.125H6.25Z" fill="#202022"/>
</g>
</svg>
