<svg width="24" height="24" viewBox="0 0 24 24" fill="none" xmlns="http://www.w3.org/2000/svg">
<g id="Slack">
<path id="Vector" d="M9.6 3C8.606 3 7.8 3.806 7.8 4.8C7.8 5.036 7.846 5.27 7.936 5.488C8.026 5.706 8.159 5.905 8.326 6.072C8.493 6.239 8.692 6.372 8.91 6.462C9.128 6.552 9.363 6.599 9.599 6.6H11.399V4.8C11.399 4.323 11.21 3.866 10.872 3.528C10.534 3.19 10.076 3.001 9.598 3H9.6ZM9.6 7.8H4.8C3.806 7.8 3 8.606 3 9.6C3 10.594 3.806 11.4 4.8 11.4H9.6C10.594 11.4 11.4 10.594 11.4 9.6C11.4 8.606 10.594 7.8 9.6 7.8Z" fill="#202022"/>
<path id="Vector_2" d="M21 9.6C21 8.606 20.194 7.8 19.2 7.8C18.206 7.8 17.4 8.606 17.4 9.6V11.4H19.2C19.678 11.4 20.136 11.21 20.474 10.872C20.812 10.534 21 10.077 21 9.6ZM16.2 9.6V4.8C16.2 4.323 16.011 3.866 15.673 3.528C15.335 3.19 14.877 3.001 14.399 3C13.405 3 12.599 3.806 12.599 4.8V9.6C12.599 10.595 13.405 11.401 14.399 11.401C14.877 11.401 15.335 11.211 15.673 10.873C16.011 10.535 16.2 10.077 16.2 9.6Z" fill="#202022"/>
<path id="Vector_3" d="M14.4 21C14.878 21 15.336 20.81 15.674 20.472C16.012 20.134 16.201 19.677 16.201 19.2C16.201 18.723 16.012 18.266 15.674 17.928C15.336 17.59 14.878 17.401 14.4 17.4H12.6V19.2C12.6 20.194 13.406 21 14.4 21ZM14.4 16.2H19.2C20.194 16.2 21 15.394 21 14.4C21 13.923 20.811 13.466 20.473 13.128C20.135 12.79 19.677 12.601 19.199 12.6H14.399C13.405 12.6 12.599 13.406 12.599 14.4C12.599 14.636 12.645 14.87 12.735 15.088C12.825 15.306 12.958 15.505 13.125 15.672C13.292 15.839 13.491 15.972 13.709 16.062C13.927 16.152 14.162 16.2 14.398 16.2H14.4Z" fill="#202022"/>
<path id="Vector_4" d="M3 14.4C3 14.636 3.046 14.87 3.136 15.088C3.226 15.306 3.359 15.505 3.526 15.672C3.693 15.839 3.892 15.972 4.11 16.062C4.328 16.152 4.563 16.199 4.799 16.2C5.277 16.2 5.735 16.01 6.073 15.672C6.411 15.334 6.6 14.877 6.6 14.4V12.6H4.8C3.806 12.6 3 13.406 3 14.4ZM7.8 14.4V19.2C7.8 20.194 8.606 21 9.6 21C10.078 21 10.536 20.81 10.874 20.472C11.212 20.134 11.401 19.677 11.401 19.2V14.4C11.401 14.164 11.355 13.93 11.264 13.712C11.173 13.494 11.041 13.295 10.874 13.128C10.707 12.961 10.508 12.828 10.29 12.738C10.072 12.648 9.837 12.601 9.601 12.6C8.607 12.6 7.8 13.406 7.8 14.4Z" fill="#202022"/>
</g>
</svg>
