<svg width="24" height="24" viewBox="0 0 24 24" fill="none" xmlns="http://www.w3.org/2000/svg">
<g id="Slide Control Arrows">
<g id="Shape">
<path d="M7.6958 13.8154L5.01123 16.5H12.9985V15.75C12.9985 14.9216 13.6701 14.25 14.4985 14.25C15.327 14.25 15.9985 14.9216 15.9985 15.75V18.75C15.9985 19.5784 15.327 20.25 14.4985 20.25C13.6701 20.25 12.9985 19.5784 12.9985 18.75V18H5.01123L7.6958 20.6846L6.56494 21.8154L1.99854 17.25L6.56494 12.6846L7.6958 13.8154Z" fill="#202022"/>
<path d="M22.0015 18H17.5015V16.5H22.0015V18Z" fill="#202022"/>
<path d="M22.0015 6.75L17.4351 11.3154L16.3042 10.1846L18.9888 7.5H12.4985V6H18.9888L16.3042 3.31543L17.4351 2.18457L22.0015 6.75Z" fill="#202022"/>
<path d="M9.49854 3.75C10.327 3.75 10.9985 4.42157 10.9985 5.25V8.25C10.9985 9.07843 10.327 9.75 9.49854 9.75C8.67011 9.75 7.99854 9.07843 7.99854 8.25V7.5H1.99854V6H7.99854V5.25C7.99854 4.42157 8.67011 3.75 9.49854 3.75Z" fill="#202022"/>
</g>
</g>
</svg>
