<svg width="24" height="24" viewBox="0 0 24 24" fill="none" xmlns="http://www.w3.org/2000/svg">
<g id="Type=Outline">
<path id="Vector" d="M15.75 22.457V1.54199L7.76 7.24899H1.25V16.749H7.76L15.75 22.456V22.457ZM7.25 15.25H2.75V8.74999H7.25V15.25ZM8.75 15.614V8.38599L14.25 4.45699V19.542L8.75 15.613V15.614Z" fill="#202022"/>
<path id="Vector_2" d="M19.419 16.369C21.86 13.928 21.86 9.97099 19.419 7.52999L20.48 6.46899C23.507 9.49599 23.507 14.403 20.48 17.429L19.419 16.369Z" fill="#202022"/>
<path id="Vector_3" d="M17.298 9.65194C18.567 10.9209 18.567 12.9789 17.298 14.2479L18.359 15.3089C20.214 13.4539 20.214 10.4459 18.359 8.59094L17.298 9.65194Z" fill="#202022"/>
</g>
</svg>
