<svg width="24" height="24" viewBox="0 0 24 24" fill="none" xmlns="http://www.w3.org/2000/svg">
<g id="Type=Outline">
<g id="Shape">
<path fill-rule="evenodd" clip-rule="evenodd" d="M6.5 9.25C7.69576 9.25 8.81562 9.49082 9.66406 9.91504C10.4676 10.3168 11.25 11.0107 11.25 12V19C11.25 19.9893 10.4676 20.6832 9.66406 21.085C8.81562 21.5092 7.69576 21.75 6.5 21.75C5.30424 21.75 4.18438 21.5092 3.33594 21.085C2.53242 20.6832 1.75 19.9893 1.75 19V12C1.75 11.0107 2.53242 10.3168 3.33594 9.91504C4.18438 9.49082 5.30424 9.25 6.5 9.25ZM9.66406 17.585C8.81562 18.0092 7.69576 18.25 6.5 18.25C5.30424 18.25 4.18438 18.0092 3.33594 17.585C3.30674 17.5704 3.2791 17.5525 3.25 17.5371V19C3.25 19.1152 3.36289 19.4211 4.00684 19.7432C4.6061 20.0428 5.48662 20.25 6.5 20.25C7.51338 20.25 8.3939 20.0428 8.99316 19.7432C9.63711 19.4211 9.75 19.1152 9.75 19V17.5371C9.7209 17.5525 9.69326 17.5704 9.66406 17.585ZM9.66406 14.085C8.81562 14.5092 7.69576 14.75 6.5 14.75C5.30424 14.75 4.18438 14.5092 3.33594 14.085C3.30674 14.0704 3.2791 14.0525 3.25 14.0371V15.5C3.25 15.6152 3.36289 15.9211 4.00684 16.2432C4.6061 16.5428 5.48662 16.75 6.5 16.75C7.51338 16.75 8.3939 16.5428 8.99316 16.2432C9.63711 15.9211 9.75 15.6152 9.75 15.5V14.0371C9.7209 14.0525 9.69326 14.0704 9.66406 14.085ZM6.5 10.75C5.48662 10.75 4.6061 10.9572 4.00684 11.2568C3.36289 11.5789 3.25 11.8848 3.25 12C3.25 12.1152 3.36289 12.4211 4.00684 12.7432C4.6061 13.0428 5.48662 13.25 6.5 13.25C7.51338 13.25 8.3939 13.0428 8.99316 12.7432C9.63711 12.4211 9.75 12.1152 9.75 12C9.75 11.8848 9.63711 11.5789 8.99316 11.2568C8.3939 10.9572 7.51338 10.75 6.5 10.75Z" fill="#202022"/>
<path fill-rule="evenodd" clip-rule="evenodd" d="M17.5 2.25C18.6958 2.25 19.8156 2.49082 20.6641 2.91504C21.4676 3.31685 22.25 4.01068 22.25 5V19C22.25 19.9893 21.4676 20.6832 20.6641 21.085C19.8156 21.5092 18.6958 21.75 17.5 21.75C16.3042 21.75 15.1844 21.5092 14.3359 21.085C13.5324 20.6832 12.75 19.9893 12.75 19V5C12.75 4.01068 13.5324 3.31685 14.3359 2.91504C15.1844 2.49082 16.3042 2.25 17.5 2.25ZM20.6641 17.585C19.8156 18.0092 18.6958 18.25 17.5 18.25C16.3042 18.25 15.1844 18.0092 14.3359 17.585C14.3067 17.5704 14.2791 17.5525 14.25 17.5371V19C14.25 19.1152 14.3629 19.4211 15.0068 19.7432C15.6061 20.0428 16.4866 20.25 17.5 20.25C18.5134 20.25 19.3939 20.0428 19.9932 19.7432C20.6371 19.4211 20.75 19.1152 20.75 19V17.5371C20.7209 17.5525 20.6933 17.5704 20.6641 17.585ZM20.6641 14.085C19.8156 14.5092 18.6958 14.75 17.5 14.75C16.3042 14.75 15.1844 14.5092 14.3359 14.085C14.3067 14.0704 14.2791 14.0525 14.25 14.0371V15.5C14.25 15.6152 14.3629 15.9211 15.0068 16.2432C15.6061 16.5428 16.4866 16.75 17.5 16.75C18.5134 16.75 19.3939 16.5428 19.9932 16.2432C20.6371 15.9211 20.75 15.6152 20.75 15.5V14.0371C20.7209 14.0525 20.6933 14.0704 20.6641 14.085ZM20.6641 10.585C19.8156 11.0092 18.6958 11.25 17.5 11.25C16.3042 11.25 15.1844 11.0092 14.3359 10.585C14.3067 10.5704 14.2791 10.5525 14.25 10.5371V12C14.25 12.1152 14.3629 12.4211 15.0068 12.7432C15.6061 13.0428 16.4866 13.25 17.5 13.25C18.5134 13.25 19.3939 13.0428 19.9932 12.7432C20.6371 12.4211 20.75 12.1152 20.75 12V10.5371C20.7209 10.5525 20.6933 10.5704 20.6641 10.585ZM20.6641 7.08496C19.8156 7.50918 18.6958 7.75 17.5 7.75C16.3042 7.75 15.1844 7.50918 14.3359 7.08496C14.3067 7.07036 14.2791 7.05248 14.25 7.03711V8.5C14.25 8.61515 14.3629 8.92114 15.0068 9.24316C15.6061 9.5428 16.4866 9.75 17.5 9.75C18.5134 9.75 19.3939 9.5428 19.9932 9.24316C20.6371 8.92114 20.75 8.61515 20.75 8.5V7.03711C20.7209 7.05248 20.6933 7.07036 20.6641 7.08496ZM17.5 3.75C16.4866 3.75 15.6061 3.9572 15.0068 4.25684C14.3629 4.57886 14.25 4.88485 14.25 5C14.25 5.11515 14.3629 5.42114 15.0068 5.74316C15.6061 6.0428 16.4866 6.25 17.5 6.25C18.5134 6.25 19.3939 6.0428 19.9932 5.74316C20.6371 5.42114 20.75 5.11515 20.75 5C20.75 4.88485 20.6371 4.57886 19.9932 4.25684C19.3939 3.9572 18.5134 3.75 17.5 3.75Z" fill="#202022"/>
</g>
</g>
</svg>
