<svg width="24" height="24" viewBox="0 0 24 24" fill="none" xmlns="http://www.w3.org/2000/svg">
<g id="Type=Filled">
<g id="Shape">
<path d="M21.6213 3.88978C21.6213 4.93348 19.7793 5.77957 17.507 5.77957C15.2348 5.77957 13.3928 4.93348 13.3928 3.88978C13.3928 2.84608 15.2348 2 17.507 2C19.7793 2 21.6213 2.84608 21.6213 3.88978Z" fill="#202022"/>
<path d="M21.0413 6.58688C20.0596 7.03782 18.8085 7.27707 17.507 7.27707C16.2056 7.27707 14.9545 7.03782 13.9728 6.58688C13.7523 6.48561 13.5069 6.35406 13.2641 6.18935V8.51939C13.3627 8.71943 13.6291 9.00607 14.2545 9.29331C15.0483 9.65793 16.1975 9.90328 17.5071 9.90328C18.8167 9.90328 19.966 9.65793 20.7598 9.29331C21.3849 9.00614 21.6513 8.71958 21.75 8.51955V6.18932C21.5072 6.35405 21.2618 6.48561 21.0413 6.58688Z" fill="#202022"/>
<path d="M21.75 10.4695C21.6299 10.5363 21.5075 10.5978 21.3848 10.6541C20.3538 11.1277 18.9821 11.4008 17.5071 11.4008C16.0321 11.4008 14.6604 11.1277 13.6294 10.6541C13.5067 10.5978 13.3843 10.5362 13.2641 10.4695V12.6614C13.3627 12.8615 13.6291 13.1481 14.2545 13.4353C15.0483 13.7999 16.1975 14.0453 17.5071 14.0453C18.8167 14.0453 19.966 13.7999 20.7598 13.4353C21.3849 13.1482 21.6513 12.8616 21.75 12.6616V10.4695Z" fill="#202022"/>
<path d="M21.3848 14.7961C21.5075 14.7398 21.6299 14.6783 21.75 14.6115V16.8031C21.6513 17.0031 21.3849 17.2897 20.7598 17.5769C19.966 17.9415 18.8167 18.1868 17.5071 18.1868C16.1975 18.1868 15.0483 17.9415 14.2545 17.5769C13.6291 17.2896 13.3627 17.003 13.2641 16.8029V14.6115C13.3843 14.6783 13.5067 14.7398 13.6294 14.7961C14.6604 15.2697 16.0321 15.5428 17.5071 15.5428C18.9821 15.5428 20.3538 15.2697 21.3848 14.7961Z" fill="#202022"/>
<path d="M21.75 18.7531C21.6299 18.8198 21.5075 18.8813 21.3848 18.9377C20.3538 19.4113 18.9821 19.6843 17.5071 19.6843C16.0321 19.6843 14.6604 19.4113 13.6294 18.9377C13.5067 18.8813 13.3843 18.8198 13.2641 18.753V19.9562C13.2641 20.8694 14.0377 21.4563 14.7238 21.7715C15.4747 22.1164 16.4595 22.3099 17.5071 22.3099C18.5547 22.3099 19.5394 22.1164 20.2904 21.7715C20.9764 21.4563 21.75 20.8694 21.75 19.9562V18.7531Z" fill="#202022"/>
<path d="M11.3571 12.0768C11.3571 13.1205 9.51512 13.9666 7.24291 13.9666C4.97069 13.9666 3.12869 13.1205 3.12869 12.0768C3.12869 11.0331 4.97069 10.187 7.24291 10.187C9.51512 10.187 11.3571 11.0331 11.3571 12.0768Z" fill="#202022"/>
<path d="M10.7772 14.7739C9.79542 15.2249 8.5444 15.4641 7.24291 15.4641C5.94142 15.4641 4.69039 15.2249 3.70865 14.7739C3.4882 14.6727 3.24275 14.5411 3 14.3764V16.8029C3.09859 17.003 3.36497 17.2896 3.99032 17.5769C4.78412 17.9415 5.93337 18.1868 7.24297 18.1868C8.55257 18.1868 9.70181 17.9415 10.4956 17.5769C11.1208 17.2897 11.3872 17.0031 11.4859 16.8031V14.3764C11.2431 14.5411 10.9976 14.6726 10.7772 14.7739Z" fill="#202022"/>
<path d="M11.4859 18.7531C11.3657 18.8198 11.2434 18.8813 11.1207 18.9377C10.0897 19.4113 8.71795 19.6843 7.24297 19.6843C5.76799 19.6843 4.39627 19.4113 3.36525 18.9377C3.24256 18.8813 3.12017 18.8198 3 18.753V19.9562C3 20.8694 3.77356 21.4563 4.45964 21.7715C5.21057 22.1164 6.19535 22.3099 7.24293 22.3099C8.29051 22.3099 9.27529 22.1164 10.0262 21.7715C10.7123 21.4563 11.4859 20.8694 11.4859 19.9562V18.7531Z" fill="#202022"/>
</g>
</g>
</svg>
