<svg width="24" height="24" viewBox="0 0 24 24" fill="none" xmlns="http://www.w3.org/2000/svg">
<g id="Type=Outline">
<path id="Vector" d="M16 2C13.38 2 11.25 4.12 11.25 6.74V8.27C10.4 7.47 9.26 6.99 8 6.99H5.25V9.73C5.25 12.35 7.38 14.47 10 14.47H11.25V18.07C9.12 18.38 7.42 19.96 7 22H17C16.58 19.96 14.88 18.37 12.75 18.07V9.48H14C16.62 9.48 18.75 7.36 18.75 4.74V2H16ZM11.25 12.97H10C8.21 12.97 6.75 11.52 6.75 9.73V8.48H8C9.79 8.48 11.25 9.93 11.25 11.72V12.97ZM17.25 4.74C17.25 6.53 15.79 7.98 14 7.98H12.75V6.73C12.75 4.94 14.21 3.49 16 3.49H17.25V4.74Z" fill="#202022"/>
</g>
</svg>
