<svg width="24" height="24" viewBox="0 0 24 24" fill="none" xmlns="http://www.w3.org/2000/svg">
<g id="Type=Outline">
<g id="Shape">
<path fill-rule="evenodd" clip-rule="evenodd" d="M12.435 5.60629L10.4699 1.64014L8.5049 5.60629L4.10376 6.24333L7.28869 9.33583L6.53759 13.6981L10.4699 11.6388L14.4023 13.6981L13.6512 9.33583L16.8361 6.24333L12.435 5.60629ZM9.4993 6.97798L10.4699 5.0189L11.4406 6.97798L13.6038 7.2911L12.0387 8.81075L12.4089 10.9609L10.4699 9.94551L8.53095 10.9609L8.90117 8.81075L7.3361 7.2911L9.4993 6.97798Z" fill="#202022"/>
<path d="M12.9675 19.3879L20.0603 12.3626L19.0047 11.2969L12.9726 17.2716L10.47 14.7691L3.9397 21.2994L5.00036 22.3601L10.47 16.8904L12.9675 19.3879Z" fill="#202022"/>
</g>
</g>
</svg>
