<svg width="24" height="24" viewBox="0 0 24 24" fill="none" xmlns="http://www.w3.org/2000/svg">
<g id="Type=Filled">
<path id="Vector" d="M7.25 4.25H0.992004L2.942 10.75H13.058L15.008 4.25H8.75V2H7.25V4.25Z" fill="#202022"/>
<path id="Vector_2" d="M10 12.25H6V20.25H2V21.75H15.621L14.112 20.25H10V12.25Z" fill="#202022"/>
<path id="Vector_3" d="M18 22L21.535 18.485C23.488 16.544 23.488 13.397 21.535 11.456C19.582 9.51499 16.417 9.51499 14.464 11.456C12.511 13.397 12.511 16.544 14.464 18.485L18 22ZM20 15C20 16.105 19.105 17 18 17C16.895 17 16 16.105 16 15C16 13.895 16.895 13 18 13C19.105 13 20 13.895 20 15Z" fill="#202022"/>
</g>
</svg>
