<svg width="24" height="24" viewBox="0 0 24 24" fill="none" xmlns="http://www.w3.org/2000/svg">
<g id="Type=Outline">
<path id="Vector" d="M8.754 4.25H15.012L13.062 10.75H10.754V20.25H14.116L15.625 21.75H2.004V20.25H5.254V10.75H2.946L0.996002 4.25H7.254V2H8.754V4.25ZM9.254 10.75H6.754V20.25H9.254V10.75ZM11.946 9.25L12.996 5.75H3.012L4.062 9.25H11.946Z" fill="#202022"/>
<path id="Vector_2" d="M18.004 22L21.539 18.485C23.492 16.544 23.492 13.397 21.539 11.456C19.586 9.51499 16.421 9.51499 14.468 11.456C12.515 13.397 12.515 16.544 14.468 18.485L18.004 22ZM20.004 15C20.004 16.105 19.109 17 18.004 17C16.899 17 16.004 16.105 16.004 15C16.004 13.895 16.899 13 18.004 13C19.109 13 20.004 13.895 20.004 15Z" fill="#202022"/>
</g>
</svg>
