<svg width="24" height="24" viewBox="0 0 24 24" fill="none" xmlns="http://www.w3.org/2000/svg">
<g id="Type=Outline">
<path id="Vector" d="M11.25 4.5V1H12.75V4.5H11.25Z" fill="#202022"/>
<path id="Vector_2" d="M11.25 23V19.5H12.75V23H11.25Z" fill="#202022"/>
<path id="Vector_3" d="M1 12.75H4.5V11.25H1V12.75Z" fill="#202022"/>
<path id="Vector_4" d="M23 12.75H19.5V11.25H23V12.75Z" fill="#202022"/>
<path id="Vector_5" d="M3.47 4.52999L5.945 7.00499L7.006 5.94399L4.531 3.46899L3.47 4.52999Z" fill="#202022"/>
<path id="Vector_6" d="M19.444 20.505L16.969 18.03L18.03 16.969L20.505 19.444L19.444 20.505Z" fill="#202022"/>
<path id="Vector_7" d="M4.52999 20.53L7.00499 18.055L5.94399 16.994L3.46899 19.469L4.52999 20.53Z" fill="#202022"/>
<path id="Vector_8" d="M20.505 4.55502L18.03 7.03002L16.969 5.96902L19.444 3.49402L20.505 4.55502Z" fill="#202022"/>
<path id="Vector_9" d="M12 6.25C8.824 6.25 6.25 8.824 6.25 12C6.25 15.176 8.824 17.75 12 17.75C15.176 17.75 17.75 15.176 17.75 12C17.75 8.824 15.176 6.25 12 6.25ZM7.75 12C7.75 9.653 9.653 7.75 12 7.75C14.347 7.75 16.25 9.653 16.25 12C16.25 14.347 14.347 16.25 12 16.25C9.653 16.25 7.75 14.347 7.75 12Z" fill="#202022"/>
</g>
</svg>
