<svg width="24" height="24" viewBox="0 0 24 24" fill="none" xmlns="http://www.w3.org/2000/svg">
<g id="Type=Filled">
<path id="Vector" d="M11.25 1V4.5H12.75V1H11.25Z" fill="#202022"/>
<path id="Vector_2" d="M11.25 19.5V23H12.75V19.5H11.25Z" fill="#202022"/>
<path id="Vector_3" d="M4.5 12.75H1V11.25H4.5V12.75Z" fill="#202022"/>
<path id="Vector_4" d="M19.5 12.75H23V11.25H19.5V12.75Z" fill="#202022"/>
<path id="Vector_5" d="M5.945 7.00499L3.47 4.52999L4.531 3.46899L7.006 5.94399L5.945 7.00499Z" fill="#202022"/>
<path id="Vector_6" d="M16.97 18.03L19.445 20.505L20.506 19.444L18.031 16.969L16.97 18.03Z" fill="#202022"/>
<path id="Vector_7" d="M7.00499 18.056L4.52999 20.531L3.46899 19.47L5.94399 16.995L7.00499 18.056Z" fill="#202022"/>
<path id="Vector_8" d="M18.03 7.03002L20.505 4.55502L19.444 3.49402L16.969 5.96902L18.03 7.03002Z" fill="#202022"/>
<path id="Vector_9" d="M12 6.25C8.824 6.25 6.25 8.824 6.25 12C6.25 15.176 8.824 17.75 12 17.75C15.176 17.75 17.75 15.176 17.75 12C17.75 8.824 15.176 6.25 12 6.25Z" fill="#202022"/>
</g>
</svg>
