<svg width="24" height="24" viewBox="0 0 24 24" fill="none" xmlns="http://www.w3.org/2000/svg">
<g id="Type=Outline">
<path id="Vector" d="M7.5 15.25V16.75H16.5V15.25H7.5Z" fill="#202022"/>
<path id="Vector_2" d="M8.93899 9.99999L7.46899 8.52999L8.52999 7.46899L11.06 9.99899L8.52999 12.529L7.46899 11.468L8.93899 9.99799V9.99999Z" fill="#202022"/>
<path id="Vector_3" d="M16.53 11.47L15.06 9.99999L16.53 8.52999L15.469 7.46899L12.939 9.99899L15.469 12.529L16.53 11.468V11.47Z" fill="#202022"/>
<path id="Vector_4" d="M12 1.75C6.339 1.75 1.75 6.339 1.75 12C1.75 17.661 6.339 22.25 12 22.25C17.661 22.25 22.25 17.661 22.25 12C22.25 6.339 17.661 1.75 12 1.75ZM3.25 12C3.25 7.168 7.168 3.25 12 3.25C16.832 3.25 20.75 7.168 20.75 12C20.75 16.833 16.832 20.75 12 20.75C7.168 20.75 3.25 16.832 3.25 12Z" fill="#202022"/>
</g>
</svg>
