<svg width="24" height="24" viewBox="0 0 24 24" fill="none" xmlns="http://www.w3.org/2000/svg">
<g id="Type=Filled">
<path id="Vector" d="M1.75 12C1.75 17.661 6.339 22.25 12 22.25C17.661 22.25 22.25 17.661 22.25 12C22.25 6.339 17.661 1.75 12 1.75C6.339 1.75 1.75 6.339 1.75 12ZM10.5 10C10.5 10.828 9.828 11.5 9 11.5C8.172 11.5 7.5 10.828 7.5 10C7.5 9.172 8.172 8.5 9 8.5C9.828 8.5 10.5 9.172 10.5 10ZM16.5 10C16.5 10.828 15.828 11.5 15 11.5C14.172 11.5 13.5 10.828 13.5 10C13.5 9.172 14.172 8.5 15 8.5C15.828 8.5 16.5 9.172 16.5 10ZM7.682 13.937C8.433 15.573 10.085 16.707 12 16.707C13.915 16.707 15.567 15.573 16.318 13.937L17.681 14.563C16.694 16.712 14.522 18.208 11.999 18.208C9.476 18.208 7.304 16.713 6.317 14.563L7.68 13.937H7.682Z" fill="#202022"/>
</g>
</svg>
