<svg width="24" height="24" viewBox="0 0 24 24" fill="none" xmlns="http://www.w3.org/2000/svg">
<g id="Type=Outline">
<path id="Vector" d="M9 11.5C9.828 11.5 10.5 10.828 10.5 10C10.5 9.172 9.828 8.5 9 8.5C8.172 8.5 7.5 9.172 7.5 10C7.5 10.828 8.172 11.5 9 11.5Z" fill="#202022"/>
<path id="Vector_2" d="M16.5 10C16.5 10.828 15.828 11.5 15 11.5C14.172 11.5 13.5 10.828 13.5 10C13.5 9.172 14.172 8.5 15 8.5C15.828 8.5 16.5 9.172 16.5 10Z" fill="#202022"/>
<path id="Vector_3" d="M12 16.707C10.085 16.707 8.43297 15.573 7.68197 13.937L6.31897 14.563C7.30597 16.712 9.47797 18.208 12.001 18.208C14.524 18.208 16.696 16.713 17.683 14.563L16.32 13.937C15.569 15.573 13.917 16.707 12.002 16.707H12Z" fill="#202022"/>
<path id="Vector_4" d="M12 1.75C6.339 1.75 1.75 6.339 1.75 12C1.75 17.661 6.339 22.25 12 22.25C17.661 22.25 22.25 17.661 22.25 12C22.25 6.339 17.661 1.75 12 1.75ZM3.25 12C3.25 7.168 7.168 3.25 12 3.25C16.832 3.25 20.75 7.168 20.75 12C20.75 16.833 16.832 20.75 12 20.75C7.168 20.75 3.25 16.832 3.25 12Z" fill="#202022"/>
</g>
</svg>
