<svg width="24" height="24" viewBox="0 0 24 24" fill="none" xmlns="http://www.w3.org/2000/svg">
<g id="Type=Filled">
<path id="Vector" d="M1.75 12C1.75 17.661 6.339 22.25 12 22.25C17.661 22.25 22.25 17.661 22.25 12C22.25 6.339 17.661 1.75 12 1.75C6.339 1.75 1.75 6.339 1.75 12ZM8.939 10L7.469 8.53L8.53 7.469L11.06 9.999L8.53 12.529L7.469 11.468L8.939 9.998V10ZM16.5 15.25V16.75H7.5V15.25H16.5ZM15.061 10L16.531 11.47L15.47 12.531L12.94 10.001L15.47 7.471L16.531 8.532L15.061 10.002V10Z" fill="#202022"/>
</g>
</svg>
