<svg width="24" height="24" viewBox="0 0 24 24" fill="none" xmlns="http://www.w3.org/2000/svg">
<g id="Type=Outline">
<path id="Vector" d="M10.5 10C10.5 10.828 9.828 11.5 9 11.5C8.172 11.5 7.5 10.828 7.5 10C7.5 9.172 8.172 8.5 9 8.5C9.828 8.5 10.5 9.172 10.5 10Z" fill="#202022"/>
<path id="Vector_2" d="M15 11.5C15.828 11.5 16.5 10.828 16.5 10C16.5 9.172 15.828 8.5 15 8.5C14.172 8.5 13.5 9.172 13.5 10C13.5 10.828 14.172 11.5 15 11.5Z" fill="#202022"/>
<path id="Vector_3" d="M18.169 13.5H5.82999L6.31799 14.563C7.30499 16.712 9.47699 18.208 12 18.208C14.523 18.208 16.695 16.713 17.682 14.563L18.169 13.5Z" fill="#202022"/>
<path id="Vector_4" d="M1.75 12C1.75 6.339 6.339 1.75 12 1.75C17.661 1.75 22.25 6.339 22.25 12C22.25 17.661 17.661 22.25 12 22.25C6.339 22.25 1.75 17.661 1.75 12ZM12 3.25C7.168 3.25 3.25 7.168 3.25 12C3.25 16.832 7.168 20.75 12 20.75C16.833 20.75 20.75 16.832 20.75 12C20.75 7.168 16.832 3.25 12 3.25Z" fill="#202022"/>
</g>
</svg>
