<svg width="24" height="24" viewBox="0 0 24 24" fill="none" xmlns="http://www.w3.org/2000/svg">
<g id="Table">
<path id="Vector" d="M2.75 2.75V21.25H21.25V2.75H2.75ZM8.42 19.75H4.25V16.58H8.42V19.75ZM8.42 15.08H4.25V11.91H8.42V15.08ZM8.42 10.42H4.25V7.11H8.42V10.42ZM14.08 19.75H9.91V16.58H14.08V19.75ZM14.08 15.08H9.91V11.91H14.08V15.08ZM14.08 10.42H9.91V7.11H14.08V10.42ZM19.75 19.75H15.58V16.58H19.75V19.75ZM19.75 15.08H15.58V11.91H19.75V15.08ZM19.75 10.42H15.58V7.11H19.75V10.42Z" fill="#202022"/>
</g>
</svg>
