<svg width="24" height="24" viewBox="0 0 24 24" fill="none" xmlns="http://www.w3.org/2000/svg">
<g id="Type=Filled">
<path id="Vector" d="M18.691 19.248C22.694 15.245 22.694 8.75504 18.691 4.75204L19.752 3.69104C24.341 8.28004 24.341 15.719 19.752 20.308L18.691 19.248Z" fill="#202022"/>
<path id="Vector_2" d="M13.579 10.181L12 6.99402L10.421 10.181L6.88397 10.693L9.44397 13.179L8.83997 16.684L12 15.029L15.16 16.684L14.556 13.179L17.116 10.693L13.579 10.181Z" fill="#202022"/>
<path id="Vector_3" d="M5.30799 4.75202C1.30499 8.75502 1.30499 15.245 5.30799 19.248L4.24699 20.309C-0.342013 15.72 -0.342013 8.28102 4.24699 3.69202L5.30799 4.75202Z" fill="#202022"/>
<path id="Vector_4" d="M7.43002 17.127C4.59902 14.296 4.59902 9.70499 7.43002 6.87399L6.36902 5.81299C2.95202 9.22999 2.95202 14.77 6.36902 18.187L7.43002 17.126V17.127Z" fill="#202022"/>
<path id="Vector_5" d="M16.57 6.87299C19.401 9.70399 19.401 14.295 16.57 17.126L17.631 18.187C21.048 14.77 21.048 9.22999 17.631 5.81299L16.57 6.87299Z" fill="#202022"/>
</g>
</svg>
