<svg width="24" height="24" viewBox="0 0 24 24" fill="none" xmlns="http://www.w3.org/2000/svg">
<g id="Type=Outline">
<path id="Vector" d="M18.692 19.248C22.695 15.245 22.695 8.75504 18.692 4.75204L19.753 3.69104C24.342 8.28004 24.342 15.719 19.753 20.308L18.692 19.248Z" fill="#202022"/>
<path id="Vector_2" d="M12 6.68201L13.733 10.18L17.616 10.742L14.806 13.47L15.469 17.318L12 15.501L8.53097 17.318L9.19397 13.47L6.38397 10.742L10.267 10.18L12 6.68201ZM12 10.06L11.261 11.551L9.61597 11.789L10.806 12.944L10.524 14.58L11.999 13.807L13.475 14.58L13.193 12.944L14.383 11.789L12.738 11.551L11.999 10.06H12Z" fill="#202022"/>
<path id="Vector_3" d="M5.30902 4.75202C1.30602 8.75502 1.30602 15.245 5.30902 19.248L4.24802 20.309C-0.340976 15.72 -0.340976 8.28102 4.24802 3.69202L5.30902 4.75202Z" fill="#202022"/>
<path id="Vector_4" d="M7.43002 17.127C4.59902 14.296 4.59902 9.70499 7.43002 6.87399L6.36902 5.81299C2.95202 9.22999 2.95202 14.77 6.36902 18.187L7.43002 17.126V17.127Z" fill="#202022"/>
<path id="Vector_5" d="M16.57 6.87299C19.401 9.70399 19.401 14.295 16.57 17.126L17.631 18.187C21.048 14.77 21.048 9.22999 17.631 5.81299L16.57 6.87299Z" fill="#202022"/>
</g>
</svg>
