<svg width="24" height="24" viewBox="0 0 24 24" fill="none" xmlns="http://www.w3.org/2000/svg">
<g id="Type=Outline">
<path id="Vector" d="M14.045 10.954C14.045 12.059 13.15 12.954 12.045 12.954C10.94 12.954 10.045 12.059 10.045 10.954C10.045 9.84898 10.94 8.95398 12.045 8.95398C13.15 8.95398 14.045 9.84898 14.045 10.954Z" fill="#202022"/>
<path id="Vector_2" d="M11.245 14.017C9.75401 14.017 8.54501 15.226 8.54501 16.717V17.455H15.545V16.717C15.545 15.226 14.336 14.017 12.845 14.017H11.245Z" fill="#202022"/>
<path id="Vector_3" d="M16.144 7.812L12.044 1L7.94401 7.812L0.199005 9.606L5.41101 15.61L4.72401 23.531L12.045 20.43L19.366 23.531L18.679 15.61L23.891 9.606L16.146 7.812H16.144ZM8.903 9.13L12.045 3.909L15.187 9.13L21.123 10.505L17.128 15.107L17.655 21.178L12.044 18.801L6.43301 21.178L6.96001 15.107L2.96601 10.505L8.903 9.13Z" fill="#202022"/>
</g>
</svg>
