<svg width="24" height="24" viewBox="0 0 24 24" fill="none" xmlns="http://www.w3.org/2000/svg">
<g id="Target Pointer" clip-path="url(#clip0_4877_1689)">
<path id="Vector" d="M1.75 12C1.75 6.339 6.339 1.75 12 1.75C17.661 1.75 22.25 6.339 22.25 12C22.25 12.738 22.172 13.457 22.024 14.151L20.606 13.59C20.701 13.074 20.75 12.543 20.75 12C20.75 7.168 16.832 3.25 12 3.25C7.168 3.25 3.25 7.168 3.25 12C3.25 16.833 7.168 20.75 12 20.75C12.543 20.75 13.074 20.701 13.59 20.606L14.151 22.024C13.457 22.172 12.738 22.25 12 22.25C6.339 22.25 1.75 17.661 1.75 12Z" fill="#202022"/>
<path id="Vector_2" d="M15.888 22.338L18.583 19.644L22.97 24.031L24.031 22.97L19.644 18.583L22.339 15.888L11.666 11.665L15.889 22.338H15.888Z" fill="#202022"/>
<path id="Vector_3" d="M17.75 12C17.75 12.152 17.744 12.303 17.732 12.453L16.247 11.866C16.176 9.58101 14.301 7.75101 11.999 7.75101C9.65205 7.75101 7.74905 9.65401 7.74905 12.001C7.74905 14.303 9.57905 16.178 11.864 16.249L12.451 17.734C12.302 17.746 12.151 17.752 11.998 17.752C8.82205 17.752 6.24805 15.178 6.24805 12.002C6.24805 8.82601 8.82205 6.25201 11.998 6.25201C15.174 6.25201 17.748 8.82601 17.748 12.002L17.75 12Z" fill="#202022"/>
</g>
<defs>
<clipPath id="clip0_4877_1689">
<rect width="24" height="24" fill="white"/>
</clipPath>
</defs>
</svg>
