<svg width="24" height="24" viewBox="0 0 24 24" fill="none" xmlns="http://www.w3.org/2000/svg">
<g id="Tax Logo">
<path id="Vector" d="M10.826 1.50299C10.876 1.50399 10.918 1.50499 10.95 1.50499C10.76 2.22099 9.95599 3.59299 9.11199 4.08999C8.80199 4.26899 8.28799 4.42599 7.81299 4.57099C7.58599 4.63999 7.36699 4.70699 7.18399 4.77199C6.52699 4.99599 5.51799 5.39699 4.75299 6.09099C4.21699 6.57999 3.96999 7.27099 4.03299 8.21999C4.50099 7.61099 5.49899 6.85299 6.30999 6.54599C6.20999 6.94499 6.16299 7.30899 6.11699 7.66299C6.06199 8.08699 6.00899 8.49699 5.86999 8.93499C5.78299 9.21299 5.38599 9.70399 4.98699 10.198C4.65199 10.612 4.31599 11.027 4.16099 11.32C3.91499 11.782 3.78599 12.548 3.87999 13.222C3.87799 13.22 4.19099 12.739 4.40299 12.457C4.86199 11.88 5.70299 11.183 5.86999 11.044C5.88999 11.028 5.89999 11.019 5.89999 11.019C5.90399 11.451 5.74799 13.334 5.55899 14.132C5.41499 14.761 4.47899 15.932 4.16499 16.325L4.13099 16.367C4.12999 16.366 4.14699 16.421 4.17599 16.512C4.26399 16.793 4.46199 17.425 4.59299 17.878C4.72199 18.313 4.78499 18.646 4.80599 18.752C4.81099 18.776 4.81299 18.789 4.81299 18.788C4.46899 18.638 2.84999 17.842 2.34699 17.232C1.84599 16.622 1.76199 15.947 1.67099 15.224C1.65899 15.125 1.64599 15.025 1.63199 14.924C1.59999 14.661 1.45799 13.014 1.51099 12.684C1.51099 12.685 1.52699 12.699 1.55799 12.725C1.74099 12.883 2.41799 13.467 2.78699 13.977C3.23799 14.598 3.56999 15.183 3.59699 15.23L3.59899 15.233C3.58599 15.127 3.57099 15.027 3.55699 14.934C3.53499 14.789 3.51599 14.66 3.50799 14.55C3.47799 14.236 3.57199 13.973 3.63799 13.792C3.67799 13.682 3.70699 13.602 3.69099 13.558C3.69099 13.558 3.68999 13.556 3.68899 13.552C3.68099 13.526 3.64399 13.405 3.53799 13.139C3.41599 12.844 3.05499 12.447 2.68899 12.045C2.33399 11.654 1.97399 11.258 1.82299 10.946C1.68599 10.689 1.38499 10.108 1.57199 7.15499C1.57199 7.15499 2.49899 8.30799 2.97699 9.04399C3.24099 9.46299 3.52299 10.094 3.58599 10.234C3.59399 10.252 3.59899 10.262 3.59899 10.262C3.52299 9.43799 3.72899 8.93599 3.79899 8.76599C3.81599 8.72399 3.82499 8.70299 3.81999 8.70099L3.81899 8.69499C3.80999 8.63899 3.74999 8.28099 3.62899 8.02599C3.45199 7.65699 3.17699 7.35499 2.90199 7.05299C2.49899 6.60999 2.09699 6.16899 2.01299 5.52399C1.89199 4.68199 2.19599 4.00599 3.81099 3.24899C4.05599 4.27399 3.99999 5.18699 3.94699 6.03699C3.93199 6.28599 3.91699 6.52999 3.90999 6.76999C4.38399 6.28699 4.53399 5.34999 4.66499 4.52899C4.74899 4.00499 4.82499 3.52899 4.97299 3.24799C5.10599 2.98099 5.28299 2.69799 5.86999 2.41099C5.94899 2.37299 6.02299 2.33699 6.09399 2.30199C6.51699 2.09599 6.82099 1.94699 7.27499 1.88299C7.26399 1.95799 6.97599 3.18199 6.74299 3.77499C6.52799 4.32999 6.25199 4.62499 6.12699 4.75899C6.08899 4.79999 6.06499 4.82599 6.05999 4.83999C6.68199 4.64999 7.15099 4.30799 7.55699 3.58399C7.59299 3.52199 7.62999 3.45799 7.66899 3.39199C7.77699 3.20599 7.89799 2.99999 8.02799 2.75699L8.06299 2.68699C8.21399 2.38399 8.38799 2.03699 8.71099 1.88299C9.57399 1.47299 10.445 1.49099 10.826 1.49799V1.50299ZM9.45499 8.04899H7.27399V14.378L7.53099 14.525L6.62499 17.108C6.52599 17.389 6.54699 17.652 6.64499 17.873C6.08799 18.115 5.69899 18.67 5.69899 19.314H6.74899C6.74899 19.025 6.98399 18.79 7.27399 18.79H7.79899C8.08899 18.79 8.32399 19.025 8.32399 19.314H9.37399C9.37399 18.729 9.05399 18.218 8.57799 17.948L10.23 16.064L11.474 16.773L12.368 16.263L13.845 17.947C13.37 18.218 13.049 18.728 13.049 19.313H14.099C14.099 19.024 14.334 18.789 14.624 18.789H15.149C15.439 18.789 15.674 19.024 15.674 19.313H16.724C16.724 18.668 16.335 18.114 15.778 17.872C15.876 17.652 15.896 17.389 15.798 17.107L14.98 14.773L15.674 14.377V8.04799H13.459L13.196 6.99999H15.288L13.87 4.64199H9.37299V5.68999H9.84699L9.45299 8.04799L9.45499 8.04899ZM10.52 8.04899L10.914 5.69099H13.278L13.436 5.95299H11.476V7.00099H12.116L12.378 8.04899H10.52ZM8.32499 13.771V9.09799H14.625V13.771L11.475 15.567L8.32499 13.771ZM22.5 10.931V22.5L16.2 17.47V11.979H17.25V16.967L18.825 18.224V9.88299H19.875V19.062L21.45 20.32V10.931C21.45 8.90499 19.805 7.26299 17.775 7.26299V9.35899C17.775 9.93799 17.305 10.407 16.725 10.407H15.675V9.35899H16.725V6.21499H17.775C20.385 6.21499 22.5 8.32599 22.5 10.931ZM10.425 9.88299V13.551H9.37499V9.88299H10.425ZM12.525 9.88299V13.551H13.575V9.88299H12.525ZM12 9.88299V14.598H10.95V9.88299H12ZM14.808 17.454L13.343 15.783L14.076 15.365L14.809 17.454H14.808ZM8.34899 15.366L9.08199 15.784L7.61699 17.455L8.34999 15.366H8.34899Z" fill="#202022"/>
</g>
</svg>
