<svg width="24" height="24" viewBox="0 0 24 24" fill="none" xmlns="http://www.w3.org/2000/svg">
<g id="Type=Outline">
<path id="Vector" d="M11.25 3.657V1.375H12.75V3.657C16.984 4.016 20.359 7.391 20.718 11.625H22.5V13.125H20.75V21.125H22.5V22.625H1.5V21.125H3.25V13.125H1.5V11.625H3.282C3.641 7.391 7.016 4.016 11.25 3.657ZM19.212 11.625C18.837 7.973 15.751 5.125 12 5.125C8.249 5.125 5.164 7.973 4.788 11.625H19.212ZM19.25 21.125V13.125H16.75V21.125H19.25ZM12.75 13.125V21.125H15.25V13.125H12.75ZM11.25 21.125V13.125H8.75V21.125H11.25ZM4.75 13.125V21.125H7.25V13.125H4.75Z" fill="#202022"/>
</g>
</svg>
