<svg width="24" height="24" viewBox="0 0 24 24" fill="none" xmlns="http://www.w3.org/2000/svg">
<g id="Type=Filled">
<path id="Vector" d="M4.20001 1.80005H14.8L19.7 6.70005V22.3H4.20001V1.80005ZM14.5 3.60005V7.00005H17.9L14.5 3.60005ZM14.5 10.5L8.50001 16.5L9.60001 17.6L15.6 11.6L14.5 10.5ZM10 12.5C10.6 12.5 11 12.1 11 11.5C11 10.9 10.6 10.5 10 10.5C9.40001 10.5 9.00001 10.9 9.00001 11.5C9.00001 12.1 9.40001 12.5 10 12.5ZM15 16.5C15 15.9 14.6 15.5 14 15.5C13.4 15.5 13 15.9 13 16.5C13 17.1 13.4 17.5 14 17.5C14.6 17.5 15 17.1 15 16.5Z" fill="#202022"/>
</g>
</svg>
