<svg width="24" height="24" viewBox="0 0 24 24" fill="none" xmlns="http://www.w3.org/2000/svg">
<g id="Type=Outlined">
<path id="Vector" d="M14.47 10.47L8.46997 16.47L9.53097 17.531L15.531 11.531L14.47 10.47Z" fill="#202022"/>
<path id="Vector_2" d="M11 11.5C11 12.052 10.552 12.5 10 12.5C9.448 12.5 9 12.052 9 11.5C9 10.948 9.448 10.5 10 10.5C10.552 10.5 11 10.948 11 11.5Z" fill="#202022"/>
<path id="Vector_3" d="M14 17.5C14.552 17.5 15 17.052 15 16.5C15 15.948 14.552 15.5 14 15.5C13.448 15.5 13 15.948 13 16.5C13 17.052 13.448 17.5 14 17.5Z" fill="#202022"/>
<path id="Vector_4" d="M14.811 1.75H4.25V22.25H19.75V6.689L14.811 1.75ZM5.75 20.75V3.25H14V7.504H18.25V20.75H5.75Z" fill="#202022"/>
</g>
</svg>
