<svg width="24" height="24" viewBox="0 0 24 24" fill="none" xmlns="http://www.w3.org/2000/svg">
<g id="Type=Filled">
<path id="Vector" d="M9.75 9.75V14.25H14.25V9.75H9.75Z" fill="#202022"/>
<path id="Vector_2" d="M12.75 3.75V1H11.25V3.75H7.75V1H6.25V3.963C5.184 4.34 4.34 5.184 3.963 6.25H1V7.75H3.75V11.25H1V12.75H3.75V16.25H1V17.75H3.963C4.34 18.815 5.184 19.66 6.25 20.037V23H7.75V20.25H11.25V23H12.75V20.25H16.25V23H17.75V20.037C18.815 19.66 19.66 18.816 20.037 17.75H23V16.25H20.25V12.75H23V11.25H20.25V7.75H23V6.25H20.037C19.66 5.184 18.816 4.34 17.75 3.963V1H16.25V3.75H12.75ZM8.25 8.25H15.75V15.75H8.25V8.25Z" fill="#202022"/>
</g>
</svg>
