<svg width="24" height="24" viewBox="0 0 24 24" fill="none" xmlns="http://www.w3.org/2000/svg">
<g id="Type=Outline">
<path id="Vector" d="M15.75 8.25H8.25V15.75H15.75V8.25ZM9.75 14.25V9.75H14.25V14.25H9.75Z" fill="#202022"/>
<path id="Vector_2" d="M12.75 3.75V1H11.25V3.75H7.75V1H6.25V3.963C5.184 4.34 4.34 5.184 3.963 6.25H1V7.75H3.75V11.25H1V12.75H3.75V16.25H1V17.75H3.963C4.34 18.815 5.184 19.66 6.25 20.037V23H7.75V20.25H11.25V23H12.75V20.25H16.25V23H17.75V20.037C18.815 19.66 19.66 18.816 20.037 17.75H23V16.25H20.25V12.75H23V11.25H20.25V7.75H23V6.25H20.037C19.66 5.184 18.816 4.34 17.75 3.963V1H16.25V3.75H12.75ZM5.25 7.5C5.25 6.257 6.257 5.25 7.5 5.25H16.5C17.743 5.25 18.75 6.257 18.75 7.5V16.5C18.75 17.743 17.743 18.75 16.5 18.75H7.5C6.257 18.75 5.25 17.743 5.25 16.5V7.5Z" fill="#202022"/>
</g>
</svg>
