<svg width="24" height="24" viewBox="0 0 24 24" fill="none" xmlns="http://www.w3.org/2000/svg">
<g id="Text Direction Arrow Left">
<g id="Shape">
<path d="M7.59082 14.6553L5.37109 16.875H21.5605V18.375H5.37109L7.59082 20.5947L6.53027 21.6553L2.5 17.625L6.53027 13.5947L7.59082 14.6553Z" fill="#202022"/>
<path fill-rule="evenodd" clip-rule="evenodd" d="M17.5 3.84473H14.75V15.0947H13.25V3.84473H10.75V15.0947H9.25V9.84473H9C6.92893 9.84473 5.25 8.16579 5.25 6.09473C5.25 4.02366 6.92893 2.34473 9 2.34473H17.5V3.84473ZM9 3.84473C7.75736 3.84473 6.75 4.85209 6.75 6.09473C6.75 7.33737 7.75736 8.34473 9 8.34473H9.25V3.84473H9Z" fill="#202022"/>
</g>
</g>
</svg>
