<svg width="24" height="24" viewBox="0 0 24 24" fill="none" xmlns="http://www.w3.org/2000/svg">
<g id="Text Direction Arrow Right">
<g id="Shape">
<path d="M21.5303 17.625L17.5 21.6553L16.4395 20.5947L18.6592 18.375H2.46973V16.875H18.6592L16.4395 14.6553L17.5 13.5947L21.5303 17.625Z" fill="#202022"/>
<path fill-rule="evenodd" clip-rule="evenodd" d="M17.4697 3.84473H14.7197V15.0947H13.2197V3.84473H10.7197V15.0947H9.21973V9.84473H8.96973C6.89866 9.84473 5.21973 8.16579 5.21973 6.09473C5.21973 4.02366 6.89866 2.34473 8.96973 2.34473H17.4697V3.84473ZM8.96973 3.84473C7.72709 3.84473 6.71973 4.85209 6.71973 6.09473C6.71973 7.33737 7.72709 8.34473 8.96973 8.34473H9.21973V3.84473H8.96973Z" fill="#202022"/>
</g>
</g>
</svg>
