<svg width="24" height="24" viewBox="0 0 24 24" fill="none" xmlns="http://www.w3.org/2000/svg">
<g id="Thai Baht">
<path id="Vector" d="M10.5 4.5H6.75V19.5H10.5V21.75H12V19.5H13.125C15.404 19.5 17.25 17.654 17.25 15.375C17.25 13.804 16.371 12.437 15.078 11.741C15.949 10.985 16.5 9.869 16.5 8.625C16.5 6.346 14.654 4.5 12.375 4.5H12V2.25H10.5V4.5ZM10.5 12.75V18H8.25V12.75H10.5ZM8.25 11.25V6H10.5V11.25H8.25ZM13.125 18H12V12.75H13.125C14.575 12.75 15.75 13.925 15.75 15.375C15.75 16.825 14.575 18 13.125 18ZM15 8.625C15 10.075 13.825 11.25 12.375 11.25H12V6H12.375C13.825 6 15 7.175 15 8.625Z" fill="#202022"/>
</g>
</svg>
