<svg width="24" height="24" viewBox="0 0 24 24" fill="none" xmlns="http://www.w3.org/2000/svg">
<g id="Third Party Data">
<path id="Vector" d="M14 3.54199C14 4.64699 13.105 5.54199 12 5.54199C10.895 5.54199 10 4.64699 10 3.54199C10 2.43699 10.895 1.54199 12 1.54199C13.105 1.54199 14 2.43699 14 3.54199Z" fill="#202022"/>
<path id="Vector_2" d="M11.2 6.604C9.709 6.604 8.5 7.813 8.5 9.304V10.042H15.5V9.304C15.5 7.813 14.291 6.604 12.8 6.604H11.2Z" fill="#202022"/>
<path id="Vector_3" d="M11.25 11.542V15.109L8.16 16.893L8.91 18.192L11.999 16.408L15.088 18.192L15.838 16.893L12.749 15.109V11.542H11.249H11.25Z" fill="#202022"/>
<path id="Vector_4" d="M2.25 19.542C2.25 18.023 3.481 16.792 5 16.792C6.519 16.792 7.75 18.023 7.75 19.542C7.75 21.061 6.519 22.292 5 22.292C3.481 22.292 2.25 21.061 2.25 19.542ZM5 18.292C4.31 18.292 3.75 18.852 3.75 19.542C3.75 20.232 4.31 20.792 5 20.792C5.69 20.792 6.25 20.232 6.25 19.542C6.25 18.852 5.69 18.292 5 18.292Z" fill="#202022"/>
<path id="Vector_5" d="M19.083 16.792C17.518 16.792 16.25 18.061 16.25 19.625C16.25 21.189 17.519 22.458 19.083 22.458C20.648 22.458 21.916 21.189 21.916 19.625C21.916 18.061 20.647 16.792 19.083 16.792ZM17.75 19.625C17.75 18.889 18.347 18.292 19.083 18.292C19.819 18.292 20.416 18.889 20.416 19.625C20.416 20.361 19.819 20.958 19.083 20.958C18.347 20.958 17.75 20.361 17.75 19.625Z" fill="#202022"/>
</g>
</svg>
