<svg width="24" height="24" viewBox="0 0 24 24" fill="none" xmlns="http://www.w3.org/2000/svg">
<g id="Type=Outline">
<path id="Vector" d="M19.888 2H17.888C17.218 2 16.648 2.37 16.348 2.92C15.688 2.35 14.828 2 13.888 2H7.07801C5.73801 2 4.58801 2.97 4.36801 4.3L3.03801 12.3C2.75801 13.98 4.04801 15.5 5.74801 15.5H10.998C11.168 15.5 11.288 15.67 11.238 15.83L10.018 19.48C9.43801 21.21 10.728 23 12.558 23C13.668 23 14.668 22.31 15.058 21.27L17.268 15.39C17.458 15.46 17.668 15.5 17.888 15.5H19.888C20.858 15.5 21.638 14.72 21.638 13.75V3.75C21.638 2.78 20.858 2 19.888 2ZM16.138 13.53C16.138 13.92 16.068 14.31 15.928 14.67L13.648 20.74C13.478 21.2 13.038 21.5 12.548 21.5C11.748 21.5 11.178 20.72 11.438 19.96L12.658 16.31C13.038 15.18 12.188 14.01 10.998 14.01H5.74801C4.97801 14.01 4.38801 13.32 4.51801 12.55L5.84801 4.54C5.94801 3.94 6.46801 3.5 7.07801 3.5H13.888C15.128 3.5 16.138 4.51 16.138 5.75V13.53ZM20.138 13.75C20.138 13.89 20.028 14 19.888 14H17.888C17.748 14 17.638 13.89 17.638 13.75V3.75C17.638 3.61 17.748 3.5 17.888 3.5H19.888C20.028 3.5 20.138 3.61 20.138 3.75V13.75Z" fill="#202022"/>
</g>
</svg>
