<svg width="24" height="24" viewBox="0 0 24 24" fill="none" xmlns="http://www.w3.org/2000/svg">
<g id="Type=Filled">
<path id="Vector" d="M13.14 2H6.33403C5.35603 2 4.52203 2.707 4.36103 3.671L3.02803 11.671C2.82503 12.89 3.76503 14 5.00103 14H10.253C10.936 14 11.418 14.669 11.202 15.316L9.98403 18.969C9.56903 20.214 10.496 21.5 11.808 21.5C12.609 21.5 13.327 21.003 13.608 20.252L15.885 14.179C16.053 13.73 16.14 13.254 16.14 12.775V5C16.14 3.343 14.797 2 13.14 2Z" fill="#202022"/>
<path id="Vector_2" d="M21.64 13C21.64 13.552 21.192 14 20.64 14H18.64C18.088 14 17.64 13.552 17.64 13V3C17.64 2.448 18.088 2 18.64 2H20.64C21.192 2 21.64 2.448 21.64 3V13Z" fill="#202022"/>
</g>
</svg>
