<svg width="24" height="24" viewBox="0 0 24 24" fill="none" xmlns="http://www.w3.org/2000/svg">
<g id="Type=Outline">
<path id="Vector" d="M21.998 9.82095L14.179 2.00195L13.649 2.53195C12.31 3.87095 11.88 5.77395 12.357 7.47495L10.036 9.79595C7.55701 8.71295 4.56201 9.18495 2.53201 11.215L2.00201 11.745L6.59801 16.341L2.88601 20.053L3.94701 21.114L7.65901 17.402L12.255 21.998L12.785 21.468C14.815 19.439 15.286 16.443 14.204 13.964L16.525 11.643C18.225 12.12 20.128 11.691 21.468 10.351L21.998 9.82095ZM13.914 7.40395C13.502 6.35295 13.61 5.14695 14.236 4.17895L19.821 9.76495C18.853 10.391 17.647 10.499 16.596 10.087L16.139 9.90795L12.37 13.677L12.636 14.169C13.603 15.955 13.463 18.181 12.218 19.84L4.16101 11.783C5.81901 10.538 8.04601 10.398 9.83201 11.365L10.324 11.631L14.093 7.86195L13.914 7.40495V7.40395Z" fill="#202022"/>
</g>
</svg>
