<svg width="24" height="24" viewBox="0 0 24 24" fill="none" xmlns="http://www.w3.org/2000/svg">
<g id="Type=Filled">
<path id="Vector" d="M11.5 21.5H18.306C19.284 21.5 20.118 20.793 20.279 19.829L21.612 11.829C21.815 10.61 20.875 9.5 19.639 9.5H14.387C13.705 9.5 13.223 8.831 13.438 8.184L14.656 4.531C15.071 3.286 14.144 2 12.832 2C12.031 2 11.313 2.497 11.032 3.248L8.75402 9.321C8.58602 9.77 8.49902 10.246 8.49902 10.725V18.5C8.49902 20.157 9.84202 21.5 11.499 21.5H11.5Z" fill="#202022"/>
<path id="Vector_2" d="M3 10.5C3 9.948 3.448 9.5 4 9.5H6C6.552 9.5 7 9.948 7 10.5V20.5C7 21.052 6.552 21.5 6 21.5H4C3.448 21.5 3 21.052 3 20.5V10.5Z" fill="#202022"/>
</g>
</svg>
