<svg width="24" height="24" viewBox="0 0 24 24" fill="none" xmlns="http://www.w3.org/2000/svg">
<g id="Type=Outline">
<path id="Vector" d="M18.571 9H13.321C13.151 9 13.031 8.83 13.081 8.67L14.301 5.02C14.881 3.29 13.591 1.5 11.761 1.5C10.651 1.5 9.65103 2.19 9.26103 3.23L7.05103 9.11C6.86103 9.04 6.65103 9 6.43103 9H4.43103C3.46103 9 2.68103 9.78 2.68103 10.75V20.75C2.68103 21.72 3.46103 22.5 4.43103 22.5H6.43103C7.10103 22.5 7.67103 22.13 7.97103 21.58C8.63103 22.15 9.49103 22.5 10.431 22.5H17.241C18.581 22.5 19.731 21.53 19.951 20.2L21.281 12.2C21.561 10.52 20.271 9 18.571 9ZM6.68103 20.75C6.68103 20.89 6.57103 21 6.43103 21H4.43103C4.29103 21 4.18103 20.89 4.18103 20.75V10.75C4.18103 10.61 4.29103 10.5 4.43103 10.5H6.43103C6.57103 10.5 6.68103 10.61 6.68103 10.75V20.75ZM19.801 11.96L18.471 19.96C18.371 20.56 17.851 21 17.241 21H10.431C9.19103 21 8.18103 19.99 8.18103 18.75V10.98C8.18103 10.59 8.25103 10.2 8.39103 9.84L10.671 3.77C10.841 3.31 11.281 3.01 11.771 3.01C12.571 3.01 13.141 3.79 12.881 4.55L11.661 8.2C11.281 9.33 12.131 10.5 13.321 10.5H18.571C19.341 10.5 19.931 11.19 19.801 11.96Z" fill="#202022"/>
</g>
</svg>
