<svg width="24" height="24" viewBox="0 0 24 24" fill="none" xmlns="http://www.w3.org/2000/svg">
<g id="Type=Outline">
<g id="Shape">
<path d="M11.095 4.23474V6.48474H13.345V7.98474H9.59497V4.23474H11.095Z" fill="#202022"/>
<path fill-rule="evenodd" clip-rule="evenodd" d="M4.09497 7.23474C4.09497 3.78296 6.89319 0.984741 10.345 0.984741C13.7968 0.984741 16.595 3.78296 16.595 7.23474C16.595 10.6865 13.7968 13.4847 10.345 13.4847C6.89319 13.4847 4.09497 10.6865 4.09497 7.23474ZM10.345 2.48474C7.72162 2.48474 5.59497 4.61139 5.59497 7.23474C5.59497 9.85809 7.72162 11.9847 10.345 11.9847C12.9683 11.9847 15.095 9.85809 15.095 7.23474C15.095 4.61139 12.9683 2.48474 10.345 2.48474Z" fill="#202022"/>
<path d="M12.9675 20.043L20.0603 13.0177L19.0047 11.952L12.9726 17.9268L10.47 15.4242L3.9397 21.9546L5.00036 23.0152L10.47 17.5455L12.9675 20.043Z" fill="#202022"/>
</g>
</g>
</svg>
