<svg width="24" height="24" viewBox="0 0 24 24" fill="none" xmlns="http://www.w3.org/2000/svg">
<g id="Type=Outline">
<path id="Vector" d="M16.5 9C14.843 9 13.5 10.343 13.5 12C13.5 13.657 14.843 15 16.5 15C18.157 15 19.5 13.657 19.5 12C19.5 10.343 18.157 9 16.5 9Z" fill="#202022"/>
<path id="Vector_2" d="M1.5 12C1.5 8.686 4.186 6 7.5 6H16.5C19.814 6 22.5 8.686 22.5 12C22.5 15.314 19.814 18 16.5 18H7.5C4.186 18 1.5 15.314 1.5 12ZM7.5 7.5C5.015 7.5 3 9.515 3 12C3 14.485 5.015 16.5 7.5 16.5H16.5C18.985 16.5 21 14.485 21 12C21 9.515 18.985 7.5 16.5 7.5H7.5Z" fill="#202022"/>
</g>
</svg>
