<svg width="24" height="24" viewBox="0 0 24 24" fill="none" xmlns="http://www.w3.org/2000/svg">
<g id="Toilet">
<path id="Vector" d="M6.35001 0.5C4.83101 0.5 3.60001 1.731 3.60001 3.25C3.60001 4.769 4.83101 6 6.35001 6C7.86901 6 9.10001 4.769 9.10001 3.25C9.10001 1.731 7.86901 0.5 6.35001 0.5ZM5.10001 3.25C5.10001 2.56 5.66001 2 6.35001 2C7.04001 2 7.60001 2.56 7.60001 3.25C7.60001 3.94 7.04001 4.5 6.35001 4.5C5.66001 4.5 5.10001 3.94 5.10001 3.25Z" fill="#202022"/>
<path id="Vector_2" d="M4.85001 7C3.05501 7 1.60001 8.455 1.60001 10.25V16H3.60001V23.5H9.10001V16H11.1V10.25C11.1 8.455 9.64501 7 7.85001 7H4.85001ZM3.10001 10.25C3.10001 9.284 3.88301 8.5 4.85001 8.5H7.85001C8.81601 8.5 9.60001 9.283 9.60001 10.25V14.5H7.60001V22H5.10001V14.5H3.10001V10.25Z" fill="#202022"/>
<path id="Vector_3" d="M14.725 3.25C14.725 1.731 15.956 0.5 17.475 0.5C18.994 0.5 20.225 1.731 20.225 3.25C20.225 4.769 18.994 6 17.475 6C15.956 6 14.725 4.769 14.725 3.25ZM17.475 2C16.785 2 16.225 2.56 16.225 3.25C16.225 3.94 16.785 4.5 17.475 4.5C18.165 4.5 18.725 3.94 18.725 3.25C18.725 2.56 18.165 2 17.475 2Z" fill="#202022"/>
<path id="Vector_4" d="M17.475 7C15.955 7 14.642 8.065 14.329 9.553L12.551 18H15.225V23.5H19.725V18H22.399L20.621 9.553C20.308 8.065 18.995 7 17.475 7ZM15.797 9.862C15.964 9.068 16.664 8.5 17.475 8.5C18.286 8.5 18.986 9.068 19.153 9.862L20.551 16.5H18.225V22H16.725V16.5H14.399L15.797 9.862Z" fill="#202022"/>
</g>
</svg>
