<svg width="24" height="24" viewBox="0 0 24 24" fill="none" xmlns="http://www.w3.org/2000/svg">
<g id="Type=Outline">
<path id="Vector" d="M6.25 6C6.25 4.481 7.481 3.25 9 3.25H15C16.519 3.25 17.75 4.481 17.75 6V7.25H22.75V20.75H1.25V7.25H6.25V6ZM16.25 6C16.25 5.31 15.69 4.75 15 4.75H9C8.31 4.75 7.75 5.31 7.75 6V7.25H16.25V6ZM2.75 13.75V19.25H21.25V13.75H15.25V15.25H8.75V13.75H2.75ZM8.75 12.25V10.75H15.25V12.25H21.25V8.75H2.75V12.25H8.75ZM10.25 13.75H13.75V12.25H10.25V13.75Z" fill="#202022"/>
</g>
</svg>
