<svg width="24" height="24" viewBox="0 0 24 24" fill="none" xmlns="http://www.w3.org/2000/svg">
<g id="Type=Filled">
<g id="Shape">
<path d="M20.0164 7.06501C22.1366 7.42881 23.75 9.27599 23.75 11.5C23.75 13.9853 21.7353 16 19.25 16C16.7647 16 14.75 13.9853 14.75 11.5C14.75 9.35262 16.2541 7.55655 18.2663 7.10785C16.8156 5.07523 14.4376 3.75 11.7501 3.75C9.45451 3.75 7.38474 4.71688 5.92584 6.26562H3.99211C5.71285 3.83596 8.54626 2.25 11.7501 2.25C15.2932 2.25 18.3833 4.18964 20.0164 7.06501Z" fill="#202022"/>
<path d="M19.2677 17.5L19.2501 17.5C18.6608 17.5 18.0913 17.415 17.5532 17.2567C16.0955 18.7924 14.0346 19.75 11.7501 19.75C8.58698 19.75 5.85262 17.9142 4.55433 15.25H7.75V7.75H0.25V15.25H2.91561C4.30919 18.7646 7.7394 21.25 11.7501 21.25C14.8358 21.25 17.5779 19.7788 19.3132 17.4997L19.2677 17.5Z" fill="#202022"/>
</g>
</g>
</svg>
