<svg width="24" height="24" viewBox="0 0 24 24" fill="none" xmlns="http://www.w3.org/2000/svg">
<g id="Translate">
<g id="Shape">
<path d="M9.52374 2.5V4.25H14.7737V5.75H12.9967C12.8172 8.23591 11.7498 10.5846 9.97564 12.3588L9.83439 12.5L12.4172 15.0828L11.8794 16.6664L8.77373 13.5607L4.80407 17.5303L3.74341 16.4697L7.71307 12.5L7.57182 12.3588C6.28293 11.0699 5.36704 9.47771 4.89362 7.75H6.45888C6.88919 9.07552 7.62866 10.2943 8.63248 11.2981L8.77373 11.4393L8.91498 11.2981C10.4076 9.80543 11.3158 7.83751 11.4921 5.75H2.77374V4.25H8.02374V2.5H9.52374Z" fill="#202022"/>
<path fill-rule="evenodd" clip-rule="evenodd" d="M17.4055 10.25H15.642L11.8213 21.5H13.4054L14.4634 18.3848H18.5841L19.6421 21.5H21.2262L17.4055 10.25ZM16.5238 12.3182L18.0747 16.8848H14.9729L16.5238 12.3182Z" fill="#202022"/>
</g>
</g>
</svg>
