<svg width="24" height="24" viewBox="0 0 24 24" fill="none" xmlns="http://www.w3.org/2000/svg">
<g id="Type=Outline">
<path id="Shape" d="M19 17.5C18.41 17.5 17.84 17.41 17.3 17.26C15.84 18.8 13.78 19.75 11.5 19.75C8.34 19.75 5.6 17.91 4.3 15.25H7.5V7.75H0V15.25H2.67C4.06 18.76 7.49 21.25 11.5 21.25C14.59 21.25 17.33 19.78 19.06 17.5H19.01H18.99H19ZM1.5 13.75V9.25H6V13.75H1.5ZM19.77 7.07C18.13 4.19 15.04 2.25 11.5 2.25C8.3 2.25 5.46 3.84 3.74 6.27H5.67C7.13 4.72 9.2 3.75 11.49 3.75C14.18 3.75 16.56 5.08 18.01 7.11C16 7.56 14.49 9.35 14.49 11.5C14.49 13.99 16.5 16 18.99 16C21.48 16 23.49 13.99 23.49 11.5C23.49 9.28 21.88 7.43 19.76 7.07H19.77ZM19 14.5C17.34 14.5 16 13.16 16 11.5C16 9.84 17.34 8.5 19 8.5C20.66 8.5 22 9.84 22 11.5C22 13.16 20.66 14.5 19 14.5Z" fill="#202022"/>
</g>
</svg>
