<svg width="24" height="24" viewBox="0 0 24 24" fill="none" xmlns="http://www.w3.org/2000/svg">
<g id="Type=Outline">
<path id="Vector" d="M10.409 1.55403C11.288 0.675025 12.712 0.675025 13.591 1.55403L13.652 1.61503C14.355 2.31803 14.75 3.27203 14.75 4.26703V7.13003L21.558 11.811C22.304 12.324 22.75 13.171 22.75 14.077V17.107L14.75 14.107V17.15L15.65 17.825C16.343 18.344 16.75 19.159 16.75 20.025V23.107L12 21.326L7.25 23.107V20.025C7.25 19.159 7.658 18.344 8.35 17.825L9.25 17.15V14.107L1.25 17.107V14.077C1.25 13.171 1.696 12.324 2.442 11.811L9.25 7.13003V4.26703C9.25 3.27203 9.645 2.31903 10.348 1.61503L10.409 1.55403ZM12.53 2.61403C12.237 2.32103 11.762 2.32103 11.469 2.61403L11.408 2.67503C10.986 3.09703 10.749 3.66902 10.749 4.26603V7.91803L3.291 13.045C2.952 13.278 2.749 13.663 2.749 14.075V14.941L10.749 11.941V17.898L9.249 19.023C8.934 19.259 8.749 19.63 8.749 20.023V20.941L11.999 19.722L15.249 20.941V20.023C15.249 19.63 15.064 19.259 14.749 19.023L13.249 17.898V11.941L21.249 14.941V14.075C21.249 13.663 21.046 13.278 20.707 13.045L13.249 7.91803V4.26603C13.249 3.66902 13.012 3.09703 12.59 2.67503L12.53 2.61403Z" fill="#202022"/>
</g>
</svg>
