<svg width="24" height="24" viewBox="0 0 24 24" fill="none" xmlns="http://www.w3.org/2000/svg">
<g id="Type=Filled">
<path id="Vector" d="M12 20.689L8 22.189V20.189C8 19.559 8.296 18.967 8.8 18.589L10 17.689V13.189L2 16.189V14.241C2 13.582 2.324 12.966 2.867 12.593L10 7.68899V4.43199C10 3.63599 10.316 2.87299 10.879 2.31099L10.94 2.24999C11.526 1.66399 12.476 1.66399 13.061 2.24999L13.122 2.31099C13.685 2.87399 14.001 3.63699 14.001 4.43199V7.68899L21.134 12.593C21.677 12.966 22.001 13.583 22.001 14.241V16.189L14.001 13.189V17.689L15.201 18.589C15.705 18.967 16.001 19.56 16.001 20.189V22.189L12.001 20.689H12Z" fill="#202022"/>
</g>
</svg>
