<svg width="24" height="24" viewBox="0 0 24 24" fill="none" xmlns="http://www.w3.org/2000/svg">
<g id="Trip" clip-path="url(#clip0_4881_228)">
<path id="Vector" d="M1.93698 1.93701C3.20598 0.66801 5.26398 0.66801 6.53298 1.93701C7.80198 3.20601 7.80198 5.26401 6.53298 6.53301L4.23498 8.83101L1.93698 6.53301C0.667979 5.26401 0.667979 3.20601 1.93698 1.93701ZM4.23498 5.68801C5.06298 5.68801 5.73498 5.01601 5.73498 4.18801C5.73498 3.36001 5.06298 2.68801 4.23498 2.68801C3.40698 2.68801 2.73498 3.36001 2.73498 4.18801C2.73498 5.01601 3.40698 5.68801 4.23498 5.68801Z" fill="#202022"/>
<path id="Vector_2" d="M6.45203 8.73498H15.764C17.032 8.73498 17.494 10.405 16.407 11.057L8.79003 15.627C6.39803 17.062 7.41603 20.735 10.205 20.735H16.25V19.235H10.205C8.93703 19.235 8.47503 17.565 9.56203 16.913L17.179 12.343C19.571 10.908 18.553 7.23499 15.764 7.23499H7.91803C7.81703 7.35899 7.70903 7.47799 7.59403 7.59399L6.45203 8.73498Z" fill="#202022"/>
<path id="Vector_3" d="M16.955 21.954L18.925 19.984L16.955 18.014L18.016 16.953L19.986 18.923L21.956 16.953L23.017 18.014L21.047 19.984L23.017 21.954L21.956 23.015L19.986 21.045L18.016 23.015L16.955 21.954Z" fill="#202022"/>
</g>
<defs>
<clipPath id="clip0_4881_228">
<rect width="24" height="24" fill="white"/>
</clipPath>
</defs>
</svg>
