<svg width="24" height="24" viewBox="0 0 24 24" fill="none" xmlns="http://www.w3.org/2000/svg">
<g id="Tvos">
<path id="Vector" d="M12.714 13.571C13.424 13.571 14 12.867 14 12C14 11.133 13.424 10.428 12.714 10.428C12.004 10.428 11.428 11.132 11.428 12C11.428 12.868 12.004 13.571 12.714 13.571Z" fill="#202022"/>
<path id="Vector_2" d="M2 12C2 6.5 6.5 2 12 2C17.5 2 22 6.5 22 12C22 17.5 17.5 22 12 22C6.5 22 2 17.5 2 12ZM6.643 14.143C6.857 14.143 7 14.143 7.143 14.071V13.571H6.857C6.643 13.571 6.5 13.428 6.5 13.214V11.643H7.143V11.071H6.5V10.143H5.786V11.071H5.286V11.643H5.715V13.286C5.715 13.429 5.715 13.572 5.786 13.715C5.929 14.001 6.215 14.144 6.643 14.144V14.143ZM7.357 11.071L8.5 14.071H9.214L10.357 11.071H9.571L8.857 13.214L8.143 11.071H7.357ZM10.643 12C10.643 13.143 11.5 14.143 12.714 14.143C13.928 14.143 14.785 13.143 14.785 12C14.785 10.857 13.999 9.857 12.714 9.857C11.429 9.857 10.643 10.857 10.643 12ZM15.214 12.714C15.357 13.857 16.143 14.214 17.071 14.214C17.928 14.214 18.785 13.714 18.785 12.928C18.785 12.285 18.356 11.999 17.428 11.785L16.856 11.642C16.285 11.499 16.07 11.428 16.07 11.07C16.07 10.712 16.427 10.499 16.927 10.499C17.498 10.499 17.784 10.785 17.855 11.285L18.641 11.142C18.569 10.356 17.998 9.856 16.998 9.856C15.998 9.856 15.355 10.427 15.355 11.07C15.355 11.713 15.855 12.07 16.641 12.213L17.212 12.356C17.783 12.428 17.998 12.57 17.998 12.928C17.998 13.357 17.641 13.642 17.069 13.642C16.426 13.642 16.069 13.356 15.998 12.642L15.212 12.713L15.214 12.714Z" fill="#202022"/>
</g>
</svg>
