<svg width="24" height="24" viewBox="0 0 24 24" fill="none" xmlns="http://www.w3.org/2000/svg">
<g id="Two Factor Devices Outline">
<path id="Vector" d="M23 4.75H1V3.25H23V4.75Z" fill="#202022"/>
<path id="Vector_2" d="M23 20.75H1V19.25H23V20.75Z" fill="#202022"/>
<path id="Vector_3" d="M4.938 7.5C3.453 7.5 2.25 8.704 2.25 10.188V10.5H3.75V10.188C3.75 9.532 4.282 9 4.938 9C5.88 9 6.447 10.043 5.936 10.834L2.434 16.25H7.5V14.75H5.191L7.197 11.648C8.354 9.859 7.068 7.5 4.938 7.5Z" fill="#202022"/>
<path id="Vector_4" d="M15.75 10.5C15.75 8.843 17.093 7.5 18.75 7.5C20.407 7.5 21.75 8.843 21.75 10.5V16.25H20.25V12.75H17.25V16.25H15.75V10.5ZM20.25 11.25V10.5C20.25 9.672 19.578 9 18.75 9C17.922 9 17.25 9.672 17.25 10.5V11.25H20.25Z" fill="#202022"/>
<path id="Vector_5" d="M9 7.75H14.75V9.25H10.5V11.25H13V12.75H10.5V16.25H9V7.75Z" fill="#202022"/>
</g>
</svg>
