<svg width="24" height="24" viewBox="0 0 24 24" fill="none" xmlns="http://www.w3.org/2000/svg">
<g id="Two Factor Device Filled">
<path id="Vector" d="M20.25 11.25V10.5C20.25 9.672 19.578 9 18.75 9C17.922 9 17.25 9.672 17.25 10.5V11.25H20.25Z" fill="#202022"/>
<path id="Vector_2" d="M24 4H0V20H24V4ZM2.25 10.188C2.25 8.703 3.454 7.5 4.938 7.5C7.068 7.5 8.352 9.859 7.196 11.648L5.19 14.75H7.499V16.25H2.433L5.935 10.834C6.446 10.043 5.879 9 4.937 9C4.281 9 3.749 9.532 3.749 10.188V10.5H2.249L2.25 10.188ZM15.75 10.5C15.75 8.843 17.093 7.5 18.75 7.5C20.407 7.5 21.75 8.843 21.75 10.5V16.25H20.25V12.75H17.25V16.25H15.75V10.5ZM14.75 7.75V9.25H10.5V11.25H13V12.75H10.5V16.25H9V7.75H14.75Z" fill="#202022"/>
</g>
</svg>
