<svg width="24" height="24" viewBox="0 0 24 24" fill="none" xmlns="http://www.w3.org/2000/svg">
<g id="Type=Outline">
<path id="Vector" d="M9.75 12V8H8.25V12C8.25 14.071 9.929 15.75 12 15.75C14.071 15.75 15.75 14.071 15.75 12V8H14.25V12C14.25 13.243 13.243 14.25 12 14.25C10.757 14.25 9.75 13.243 9.75 12Z" fill="#202022"/>
<path id="Vector_2" d="M18.25 1.5H5.75V2.25C5.75 3.769 4.519 5 3 5H2.25V11.763C2.25 14.811 3.836 17.64 6.437 19.229L12 22.628L17.563 19.229C20.164 17.64 21.75 14.811 21.75 11.763V5H21C19.481 5 18.25 3.769 18.25 2.25V1.5ZM3.75 6.434C5.496 6.123 6.873 4.746 7.184 3H16.816C17.127 4.746 18.504 6.123 20.25 6.434V11.763C20.25 14.289 18.936 16.632 16.78 17.949L12 20.87L7.22 17.949C5.065 16.632 3.75 14.288 3.75 11.763V6.434Z" fill="#202022"/>
</g>
</svg>
