<svg width="24" height="24" viewBox="0 0 24 24" fill="none" xmlns="http://www.w3.org/2000/svg">
<g id="Type=Fill">
<path id="Vector" d="M5.75 1.5H18.25V2.25C18.25 3.769 19.481 5 21 5H21.75V11.763C21.75 14.811 20.164 17.64 17.563 19.229L12 22.628L6.437 19.229C3.836 17.64 2.25 14.811 2.25 11.763V5H3C4.519 5 5.75 3.769 5.75 2.25V1.5ZM9.75 12V8H8.25V12C8.25 14.071 9.929 15.75 12 15.75C14.071 15.75 15.75 14.071 15.75 12V8H14.25V12C14.25 13.243 13.243 14.25 12 14.25C10.757 14.25 9.75 13.243 9.75 12Z" fill="#202022"/>
</g>
</svg>
