<svg width="24" height="24" viewBox="0 0 24 24" fill="none" xmlns="http://www.w3.org/2000/svg">
<g id="Undo">
<path id="Vector" d="M12 3.25001C16.833 3.25001 20.75 7.16801 20.75 12C20.75 16.832 16.832 20.75 12 20.75C7.168 20.75 3.25 16.832 3.25 12C3.25 10.806 3.489 9.67001 3.92 8.63501L2.536 8.05801C2.029 9.27301 1.75 10.605 1.75 12.001C1.75 17.662 6.339 22.251 12 22.251C17.661 22.251 22.25 17.662 22.25 12.001C22.25 6.34001 17.661 1.75101 12 1.75101C9.415 1.75101 7.053 2.70901 5.25 4.28701V2.25101H3.75V7.00101H8.5V5.50101H6.142C7.693 4.10201 9.747 3.25001 12 3.25001Z" fill="#202022"/>
</g>
</svg>
