<svg width="24" height="24" viewBox="0 0 24 24" fill="none" xmlns="http://www.w3.org/2000/svg">
<g id="Type=Filled">
<path id="Vector" d="M10.5 15.561L16.53 9.53097L15.469 8.46997L10.499 13.44L8.52902 11.47L7.46802 12.531L10.498 15.561H10.5Z" fill="#202022"/>
<path id="Vector_2" d="M9.24996 3.00002C9.24996 3.23202 9.27896 3.45802 9.33296 3.67402L6.09096 5.54602C5.59496 5.05802 4.91396 4.75702 4.16296 4.75702C2.64396 4.75702 1.41296 5.98802 1.41296 7.50702C1.41296 8.78102 2.27996 9.85302 3.45596 10.165V13.817C2.27996 14.129 1.41296 15.201 1.41296 16.475C1.41296 17.994 2.64396 19.225 4.16296 19.225C4.90796 19.225 5.58396 18.929 6.07896 18.447L9.33296 20.326C9.27896 20.542 9.24996 20.767 9.24996 21C9.24996 22.519 10.481 23.75 12 23.75C13.519 23.75 14.75 22.519 14.75 21C14.75 20.768 14.721 20.542 14.667 20.326L17.896 18.462C18.393 18.952 19.075 19.255 19.828 19.255C21.347 19.255 22.578 18.024 22.578 16.505C22.578 15.234 21.716 14.164 20.544 13.849V10.192C21.716 9.87702 22.578 8.80702 22.578 7.53602C22.578 6.01702 21.347 4.78602 19.828 4.78602C19.088 4.78602 18.417 5.07802 17.922 5.55302L14.666 3.67302C14.72 3.45702 14.749 3.23202 14.749 2.99902C14.749 1.48002 13.518 0.249023 11.999 0.249023C10.48 0.249023 9.24896 1.48002 9.24896 2.99902L9.24996 3.00002ZM19.044 13.868C17.907 14.205 17.078 15.258 17.078 16.505C17.078 16.73 17.105 16.948 17.156 17.157L13.916 19.027C13.421 18.546 12.745 18.249 12 18.249C11.255 18.249 10.579 18.545 10.084 19.027L6.82996 17.148C6.88396 16.932 6.91296 16.707 6.91296 16.474C6.91296 15.231 6.08796 14.18 4.95596 13.84V10.139C6.08796 9.79902 6.91296 8.74802 6.91296 7.50502C6.91296 7.27802 6.88596 7.05802 6.83396 6.84702L10.084 4.97102C10.579 5.45202 11.255 5.74902 12 5.74902C12.745 5.74902 13.421 5.45302 13.916 4.97102L17.165 6.84702C17.108 7.06702 17.078 7.29702 17.078 7.53502C17.078 8.78102 17.907 9.83402 19.044 10.172V13.868Z" fill="#202022"/>
</g>
</svg>
