<svg width="24" height="24" viewBox="0 0 24 24" fill="none" xmlns="http://www.w3.org/2000/svg">
<g id="Type=Outlined">
<path id="Vector" d="M16.53 9.52999L10.5 15.56L7.46997 12.53L8.53097 11.469L10.501 13.439L15.471 8.46899L16.532 9.52999H16.53Z" fill="#202022"/>
<path id="Vector_2" d="M12 0.25C13.519 0.25 14.75 1.481 14.75 3C14.75 3.232 14.721 3.458 14.667 3.674L17.923 5.554C18.417 5.079 19.089 4.787 19.828 4.787C21.347 4.787 22.578 6.018 22.578 7.537C22.578 8.808 21.716 9.878 20.544 10.193V13.85C21.716 14.165 22.578 15.235 22.578 16.506C22.578 18.025 21.347 19.256 19.828 19.256C19.075 19.256 18.393 18.953 17.896 18.463L14.667 20.327C14.721 20.543 14.75 20.768 14.75 21.001C14.75 22.52 13.519 23.751 12 23.751C10.481 23.751 9.24996 22.52 9.24996 21.001C9.24996 20.769 9.27896 20.543 9.33296 20.327L6.07896 18.448C5.58396 18.929 4.90796 19.226 4.16296 19.226C2.64396 19.226 1.41296 17.995 1.41296 16.476C1.41296 15.202 2.27996 14.13 3.45596 13.818V10.166C2.27996 9.854 1.41296 8.782 1.41296 7.508C1.41296 5.989 2.64396 4.758 4.16296 4.758C4.91396 4.758 5.59496 5.059 6.09096 5.547L9.33296 3.675C9.27896 3.459 9.24996 3.234 9.24996 3.001C9.24996 1.482 10.481 0.25 12 0.25ZM10.75 3C10.75 3.69 11.31 4.25 12 4.25C12.69 4.25 13.25 3.69 13.25 3C13.25 2.31 12.69 1.75 12 1.75C11.31 1.75 10.75 2.31 10.75 3ZM19.044 13.868V10.172C17.907 9.835 17.078 8.782 17.078 7.535C17.078 7.297 17.108 7.067 17.165 6.847L13.916 4.971C13.421 5.452 12.745 5.749 12 5.749C11.255 5.749 10.579 5.453 10.084 4.971L6.83396 6.847C6.88596 7.058 6.91296 7.278 6.91296 7.505C6.91296 8.748 6.08796 9.799 4.95596 10.139V13.84C6.08796 14.18 6.91296 15.231 6.91296 16.474C6.91296 16.706 6.88396 16.932 6.82996 17.148L10.084 19.027C10.579 18.546 11.255 18.249 12 18.249C12.745 18.249 13.421 18.545 13.916 19.027L17.156 17.157C17.105 16.948 17.078 16.729 17.078 16.505C17.078 15.259 17.907 14.206 19.044 13.868ZM10.75 21C10.75 21.69 11.31 22.25 12 22.25C12.69 22.25 13.25 21.69 13.25 21C13.25 20.31 12.69 19.75 12 19.75C11.31 19.75 10.75 20.31 10.75 21ZM2.91296 7.507C2.91296 8.197 3.47296 8.757 4.16296 8.757C4.85296 8.757 5.41296 8.197 5.41296 7.507C5.41296 6.817 4.85296 6.257 4.16296 6.257C3.47296 6.257 2.91296 6.817 2.91296 7.507ZM4.16296 15.225C3.47296 15.225 2.91296 15.785 2.91296 16.475C2.91296 17.165 3.47296 17.725 4.16296 17.725C4.85296 17.725 5.41296 17.165 5.41296 16.475C5.41296 15.785 4.85296 15.225 4.16296 15.225ZM18.578 7.536C18.578 8.226 19.138 8.786 19.828 8.786C20.518 8.786 21.078 8.226 21.078 7.536C21.078 6.846 20.518 6.286 19.828 6.286C19.138 6.286 18.578 6.846 18.578 7.536ZM18.578 16.505C18.578 17.195 19.138 17.755 19.828 17.755C20.518 17.755 21.078 17.195 21.078 16.505C21.078 15.815 20.518 15.255 19.828 15.255C19.138 15.255 18.578 15.815 18.578 16.505Z" fill="#202022"/>
</g>
</svg>
