<svg width="24" height="24" viewBox="0 0 24 24" fill="none" xmlns="http://www.w3.org/2000/svg">
<g id="Type=Filled">
<path id="Vector" d="M13.25 2.625H10.75V6.625H13.25V2.625Z" fill="#202022"/>
<path id="Vector_2" d="M9.25 4.875H1.25V21.375H22.75V4.875H14.75V8.125H9.25V4.875ZM8 13.625C6.895 13.625 6 12.73 6 11.625C6 10.52 6.895 9.625 8 9.625C9.105 9.625 10 10.52 10 11.625C10 12.73 9.105 13.625 8 13.625ZM4.5 17.388C4.5 15.897 5.709 14.688 7.2 14.688H8.8C10.291 14.688 11.5 15.897 11.5 17.388V18.126H4.5V17.388ZM19.5 12.375H13.5V10.875H19.5V12.375ZM13.5 16.375V14.875H19.5V16.375H13.5Z" fill="#202022"/>
</g>
</svg>
