<svg width="24" height="24" viewBox="0 0 24 24" fill="none" xmlns="http://www.w3.org/2000/svg">
<g id="Type=Outlined">
<path id="Vector" d="M13.5 16.375H19.5V14.875H13.5V16.375Z" fill="#202022"/>
<path id="Vector_2" d="M19.5 12.375H13.5V10.875H19.5V12.375Z" fill="#202022"/>
<path id="Vector_3" d="M10 11.625C10 12.73 9.105 13.625 8 13.625C6.895 13.625 6 12.73 6 11.625C6 10.52 6.895 9.625 8 9.625C9.105 9.625 10 10.52 10 11.625Z" fill="#202022"/>
<path id="Vector_4" d="M7.2 14.688C5.709 14.688 4.5 15.897 4.5 17.388V18.126H11.5V17.388C11.5 15.897 10.291 14.688 8.8 14.688H7.2Z" fill="#202022"/>
<path id="Vector_5" d="M10 2.625H14V4.875H22.75V21.375H1.25V4.875H10V2.625ZM10 8.625V6.375H2.75V19.875H21.25V6.375H14V8.625H10Z" fill="#202022"/>
</g>
</svg>
