<svg width="24" height="24" viewBox="0 0 24 24" fill="none" xmlns="http://www.w3.org/2000/svg">
<g id="Type=Filled">
<path id="Vector" d="M14.25 6C14.25 4.136 15.761 2.625 17.625 2.625C19.489 2.625 21 4.136 21 6C21 7.864 19.489 9.375 17.625 9.375C15.761 9.375 14.25 7.864 14.25 6Z" fill="#202022"/>
<path id="Vector_2" d="M15.368 11.119C13.712 8.25101 9.986 7.39901 6.887 8.88001L6.266 7.85901L4.985 8.63901L5.606 9.66001C2.976 11.646 1.976 15.154 3.577 17.927L3.952 18.576L9.19 15.552L11.82 19.875H1.5V21.375H22.5V19.875H13.575L10.489 14.802L15.743 11.769L15.368 11.119Z" fill="#202022"/>
</g>
</svg>
