<svg width="24" height="24" viewBox="0 0 24 24" fill="none" xmlns="http://www.w3.org/2000/svg">
<g id="Type=Outline">
<path id="Vector" d="M17.625 2.625C15.761 2.625 14.25 4.136 14.25 6C14.25 7.864 15.761 9.375 17.625 9.375C19.489 9.375 21 7.864 21 6C21 4.136 19.489 2.625 17.625 2.625Z" fill="#202022"/>
<path id="Vector_2" d="M6.887 8.88101C9.986 7.40001 13.712 8.25201 15.368 11.12L15.743 11.769L10.489 14.802L13.575 19.875H22.5V21.375H1.5V19.875H11.82L9.19 15.552L3.952 18.576L3.577 17.927C1.975 15.153 2.976 11.645 5.606 9.66001L4.985 8.63901L6.266 7.85901L6.887 8.88101ZM4.56 16.493L13.635 11.254C12.192 9.55801 9.464 9.09901 7.122 10.451C4.78 11.803 3.812 14.395 4.56 16.493Z" fill="#202022"/>
</g>
</svg>
