<svg width="24" height="24" viewBox="0 0 24 24" fill="none" xmlns="http://www.w3.org/2000/svg">
<g id="Update Address">
<path id="Vector" d="M20.75 11.75C20.75 16.583 16.832 20.5 12 20.5C9.747 20.5 7.694 19.649 6.142 18.25H8.5V16.75H3.75V21.5H5.25V19.464C7.053 21.042 9.415 22 12 22C17.661 22 22.25 17.411 22.25 11.75C22.25 6.089 17.661 1.5 12 1.5C6.339 1.5 1.75 6.089 1.75 11.75C1.75 13.146 2.029 14.478 2.536 15.692L3.92 15.115C3.488 14.08 3.25 12.944 3.25 11.75C3.25 6.917 7.168 3 12 3C16.832 3 20.75 6.918 20.75 11.75Z" fill="#202022"/>
<path id="Vector_2" d="M8.46402 13.965L12 17.5L15.535 13.965C17.488 12.012 17.488 8.84699 15.535 6.89399C13.582 4.94099 10.417 4.94099 8.46402 6.89399C6.51102 8.84699 6.51102 12.012 8.46402 13.965ZM14 10.429C14 11.534 13.105 12.429 12 12.429C10.895 12.429 10 11.534 10 10.429C10 9.32399 10.895 8.42899 12 8.42899C13.105 8.42899 14 9.32399 14 10.429Z" fill="#202022"/>
</g>
</svg>
