<svg width="24" height="24" viewBox="0 0 24 24" fill="none" xmlns="http://www.w3.org/2000/svg">
<g id="Type=Outline">
<path id="Vector" d="M11 1.25C8.101 1.25 5.75 3.6 5.75 6.5C5.75 9.4 8.101 11.75 11 11.75C13.9 11.75 16.25 9.399 16.25 6.5C16.25 3.601 13.899 1.25 11 1.25ZM7.25 6.5C7.25 4.429 8.929 2.75 11 2.75C13.071 2.75 14.75 4.429 14.75 6.5C14.75 8.571 13.071 10.25 11 10.25C8.929 10.25 7.25 8.571 7.25 6.5Z" fill="#202022"/>
<path id="Vector_2" d="M19.402 12.5H14.5V22.5H22.5V15.694L19.402 12.5ZM15.989 21V14H18.593V16.496L21.012 16.5V21H15.989Z" fill="#202022"/>
<path id="Vector_3" d="M13 13.25H9C5.272 13.25 2.25 16.272 2.25 20V21.75H13V20.25H3.75V20C3.75 17.101 6.1 14.75 9 14.75H13V13.25Z" fill="#202022"/>
</g>
</svg>
