<svg width="24" height="24" viewBox="0 0 24 24" fill="none" xmlns="http://www.w3.org/2000/svg">
<g id="Type=Outline">
<path id="Vector" d="M9.25 4C9.25 2.481 10.481 1.25 12 1.25C13.519 1.25 14.75 2.481 14.75 4C14.75 5.519 13.519 6.75 12 6.75C10.481 6.75 9.25 5.519 9.25 4ZM12 2.75C11.31 2.75 10.75 3.31 10.75 4C10.75 4.69 11.31 5.25 12 5.25C12.69 5.25 13.25 4.69 13.25 4C13.25 3.31 12.69 2.75 12 2.75Z" fill="#202022"/>
<path id="Vector_2" d="M14 18.25H12.75V16H19V18.25H17.75V22.25H21.75V18.25H20.5V14.5H12.75V12H11.25V14.5H3.5V18.25H2.25V22.25H6.25V18.25H5V16H11.25V18.25H10V22.25H14V18.25Z" fill="#202022"/>
<path id="Vector_3" d="M11 7.75C9.205 7.75 7.75 9.205 7.75 11V12H9.25V11C9.25 10.034 10.033 9.25 11 9.25H13C13.966 9.25 14.75 10.033 14.75 11V12H16.25V11C16.25 9.205 14.795 7.75 13 7.75H11Z" fill="#202022"/>
</g>
</svg>
