<svg width="24" height="24" viewBox="0 0 24 24" fill="none" xmlns="http://www.w3.org/2000/svg">
<g id="Type=Filled">
<path id="Vector" d="M10.898 1.25C7.99901 1.25 5.64801 3.6 5.64801 6.5C5.64801 9.4 7.99901 11.75 10.898 11.75C13.797 11.75 16.148 9.399 16.148 6.5C16.148 3.601 13.797 1.25 10.898 1.25Z" fill="#202022"/>
<path id="Vector_2" d="M8.89801 13.25C5.17001 13.25 2.14801 16.272 2.14801 20V21.75H11.011L11 19.989H12.25V13.25H8.89801Z" fill="#202022"/>
<path id="Vector_3" d="M13.75 14H21.75V20.042H13.75V14ZM15.25 15.51V18.531H20.25V15.51H15.25Z" fill="#202022"/>
<path id="Vector_4" d="M23 21.489C23 22.323 22.328 23 21.5 23H14C13.172 23 12.5 22.324 12.5 21.489H23Z" fill="#202022"/>
</g>
</svg>
