<svg width="24" height="24" viewBox="0 0 24 24" fill="none" xmlns="http://www.w3.org/2000/svg">
<g id="Type=Outline">
<path id="Vector" d="M9.125 8.81494C9.125 10.3349 10.355 11.5649 11.875 11.5649C13.395 11.5649 14.625 10.3349 14.625 8.81494C14.625 7.29494 13.395 6.06494 11.875 6.06494C10.355 6.06494 9.125 7.29494 9.125 8.81494ZM13.125 8.81494C13.125 9.50494 12.565 10.0649 11.875 10.0649C11.185 10.0649 10.625 9.50494 10.625 8.81494C10.625 8.12494 11.185 7.56494 11.875 7.56494C12.565 7.56494 13.125 8.12494 13.125 8.81494ZM3.125 11.8149C3.125 6.98494 7.045 3.06494 11.875 3.06494C16.705 3.06494 20.625 6.98494 20.625 11.8149C20.625 12.9149 20.425 13.9649 20.055 14.9349H21.625V14.9849C21.945 13.9849 22.125 12.9249 22.125 11.8149C22.125 6.15494 17.535 1.56494 11.875 1.56494C6.215 1.56494 1.625 6.15494 1.625 11.8149C1.625 17.4749 6.215 22.0649 11.875 22.0649C12.915 22.0649 13.925 21.9049 14.875 21.6149V20.0349C13.935 20.3749 12.925 20.5649 11.875 20.5649C7.045 20.5649 3.125 16.6449 3.125 11.8149ZM12.875 12.5649H10.875C9.085 12.5649 7.625 14.0249 7.625 15.8149V16.8149H9.125V15.8149C9.125 14.8449 9.905 14.0649 10.875 14.0649H12.875C13.845 14.0649 14.625 14.8449 14.625 15.8149V16.8149H16.125V15.8149C16.125 14.0249 14.665 12.5649 12.875 12.5649ZM20.125 18.6849V16.4349H18.625V18.6849H16.375V20.1849H18.625V22.4349H20.125V20.1849H22.375V18.6849H20.125Z" fill="#202022"/>
</g>
</svg>
