<svg width="24" height="24" viewBox="0 0 24 24" fill="none" xmlns="http://www.w3.org/2000/svg">
<g id="Type=Outline">
<path id="Vector" d="M5.75 6.5C5.75 3.601 8.1 1.25 11 1.25C13.9 1.25 16.25 3.601 16.25 6.5C16.25 9.399 13.899 11.75 11 11.75C8.101 11.75 5.75 9.399 5.75 6.5ZM11 2.75C8.929 2.75 7.25 4.429 7.25 6.5C7.25 8.571 8.929 10.25 11 10.25C13.071 10.25 14.75 8.571 14.75 6.5C14.75 4.429 13.071 2.75 11 2.75Z" fill="#202022"/>
<path id="Vector_2" d="M15.869 13.889C14.998 13.479 14.026 13.25 13 13.25H9C5.272 13.25 2.25 16.272 2.25 20V21.75H12.992V20.25H3.75V20C3.75 17.101 6.101 14.75 9 14.75H13C13.602 14.75 14.181 14.851 14.72 15.038L15.87 13.888L15.869 13.889Z" fill="#202022"/>
<path id="Vector_3" d="M15.965 20.474L15.142 21.298L16.203 22.359L17.027 21.535C17.251 21.666 17.494 21.767 17.751 21.835V23H19.251V21.835C19.508 21.767 19.751 21.665 19.975 21.535L20.799 22.36L21.86 21.299L21.035 20.474C21.166 20.25 21.267 20.007 21.335 19.75H22.5V18.25H21.335C21.267 17.993 21.165 17.75 21.035 17.526L21.86 16.701L20.799 15.64L19.974 16.465C19.75 16.334 19.507 16.233 19.25 16.165V15H17.75V16.165C17.493 16.233 17.25 16.335 17.026 16.465L16.202 15.641L15.141 16.702L15.965 17.526C15.834 17.75 15.733 17.993 15.665 18.25H14.5V19.75H15.665C15.733 20.007 15.834 20.25 15.965 20.474ZM17.068 19C17.068 18.209 17.709 17.568 18.5 17.568C19.291 17.568 19.932 18.209 19.932 19C19.932 19.791 19.291 20.432 18.5 20.432C17.709 20.432 17.068 19.791 17.068 19Z" fill="#202022"/>
</g>
</svg>
