<svg width="24" height="24" viewBox="0 0 24 24" fill="none" xmlns="http://www.w3.org/2000/svg">
<g id="Type=Filled">
<g id="Shape">
<path d="M15.625 15.3218C18.8006 15.3218 21.375 17.8961 21.375 21.0718V21.9644H7.875V21.0718C7.875 17.8961 10.4494 15.3218 13.625 15.3218H15.625Z" fill="#202022"/>
<path d="M9.18848 10.8218C9.23969 11.3473 9.36531 11.8506 9.55469 12.3218H8.375C6.02779 12.3218 4.125 14.2246 4.125 16.5718V16.7144H2.625V16.5718C2.625 13.3961 5.19936 10.8218 8.375 10.8218H9.18848Z" fill="#202022"/>
<path d="M14.625 6.32178C16.8144 6.32182 18.5889 8.09625 18.5889 10.2856C18.5888 12.475 16.8144 14.2495 14.625 14.2495C12.4356 14.2495 10.6612 12.475 10.6611 10.2856C10.6611 8.09623 12.4356 6.32178 14.625 6.32178Z" fill="#202022"/>
<path d="M9.375 2.03564C11.2211 2.03584 12.7727 3.29798 13.2139 5.00635C12.7122 5.1401 12.2385 5.34205 11.8047 5.604C11.6149 4.43165 10.6008 3.53585 9.375 3.53564C8.01434 3.53587 6.91136 4.63886 6.91113 5.99951C6.91113 7.36036 8.0142 8.46413 9.375 8.46436C9.40841 8.46435 9.44152 8.45982 9.47461 8.4585C9.30658 8.93223 9.20171 9.43585 9.1709 9.95947C7.07653 9.85301 5.41113 8.12034 5.41113 5.99951C5.41136 3.81043 7.18592 2.03587 9.375 2.03564Z" fill="#202022"/>
</g>
</g>
</svg>
