<svg width="24" height="24" viewBox="0 0 24 24" fill="none" xmlns="http://www.w3.org/2000/svg">
<g id="Type=Outline">
<g id="Shape">
<path d="M16 15.75C19.1756 15.75 21.75 18.3244 21.75 21.5H20.25C20.25 19.1528 18.3472 17.25 16 17.25H14C11.6528 17.25 9.75 19.1528 9.75 21.5H8.25C8.25 18.3244 10.8244 15.75 14 15.75H16Z" fill="#202022"/>
<path d="M9.55273 11.5C9.62473 12.0275 9.76988 12.5312 9.98047 13H8C5.65279 13 3.75 14.9028 3.75 17.25H2.25C2.25 14.0744 4.82436 11.5 8 11.5H9.55273Z" fill="#202022"/>
<path fill-rule="evenodd" clip-rule="evenodd" d="M15 6.75C17.2091 6.75 19 8.54086 19 10.75C19 12.9591 17.2091 14.75 15 14.75C12.7909 14.75 11 12.9591 11 10.75C11 8.54086 12.7909 6.75 15 6.75ZM15 8.25C13.6193 8.25 12.5 9.36929 12.5 10.75C12.5 12.1307 13.6193 13.25 15 13.25C16.3807 13.25 17.5 12.1307 17.5 10.75C17.5 9.36929 16.3807 8.25 15 8.25Z" fill="#202022"/>
<path d="M9 2.5C10.9214 2.5 12.5256 3.85482 12.9111 5.66113C12.3968 5.87248 11.9213 6.15893 11.499 6.50781C11.499 6.50521 11.5 6.50261 11.5 6.5C11.5 5.11929 10.3807 4 9 4C7.61929 4 6.5 5.11929 6.5 6.5C6.5 7.88071 7.61929 9 9 9C9.29356 9 9.57426 8.94647 9.83594 8.85352C9.6497 9.36049 9.53448 9.90235 9.50586 10.4668C9.34012 10.4877 9.17141 10.5 9 10.5C6.79086 10.5 5 8.70914 5 6.5C5 4.29086 6.79086 2.5 9 2.5Z" fill="#202022"/>
</g>
</g>
</svg>
