<svg width="24" height="24" viewBox="0 0 24 24" fill="none" xmlns="http://www.w3.org/2000/svg">
<g id="Type=Filled">
<path id="Vector" d="M16.5 20.5H23.5V18.75C23.5 16.127 21.373 14 18.75 14H15.75C15.427 14 15.112 14.032 14.807 14.094C15.864 15.354 16.5 16.978 16.5 18.75V20.5Z" fill="#202022"/>
<path id="Vector_2" d="M9.25 13C9.501 13 9.748 13.016 9.99 13.047C11.278 13.212 12.432 13.804 13.307 14.675C14.353 15.716 15 17.157 15 18.749V20.499H0.5V18.749C0.5 15.824 2.684 13.409 5.51 13.046C5.752 13.015 5.999 12.999 6.25 12.999H9.25V13Z" fill="#202022"/>
<path id="Vector_3" d="M12 7.75002C12 9.38502 11.077 10.804 9.723 11.515C9.571 11.595 9.413 11.666 9.25 11.728C8.784 11.904 8.278 12 7.75 12C7.222 12 6.716 11.904 6.25 11.728C6.087 11.667 5.929 11.596 5.777 11.515C5.269 11.248 4.822 10.882 4.462 10.442C3.861 9.70902 3.5 8.77102 3.5 7.74902C3.5 5.40202 5.403 3.49902 7.75 3.49902C10.097 3.49902 12 5.40302 12 7.75002Z" fill="#202022"/>
<path id="Vector_4" d="M17.25 5.5C15.179 5.5 13.5 7.179 13.5 9.25C13.5 11.321 15.179 13 17.25 13C19.321 13 21 11.321 21 9.25C21 7.179 19.321 5.5 17.25 5.5Z" fill="#202022"/>
</g>
</svg>
