<svg width="24" height="24" viewBox="0 0 24 24" fill="none" xmlns="http://www.w3.org/2000/svg">
<g id="Type=Outline">
<g id="Shape">
<path fill-rule="evenodd" clip-rule="evenodd" d="M6.40625 1.5H12.9062V3H17.4062V9.24038L15.9062 10.7404V4.5H12.9062V6H6.40625V4.5H3.40625V21H15.9062V19.1662L17.4062 17.6662V22.5H1.90625V3H6.40625V1.5ZM7.90625 3V4.5H11.4062V3H7.90625Z" fill="#202022"/>
<path d="M17.9185 10.8502L20.0056 12.9372L17.4062 15.5367V15.5449L15.9062 17.0449V17.0368L14.6814 18.2617L12.0939 18.7623L12.5944 16.1747L17.9185 10.8502Z" fill="#202022"/>
<path d="M21.7645 11.1781C22.2037 10.7389 22.2037 10.0268 21.7645 9.58759L21.268 9.09109C20.8288 8.65188 20.1167 8.65188 19.6774 9.09109L18.9792 9.78944L21.0662 11.8765L21.7645 11.1781Z" fill="#202022"/>
<path d="M9.65631 10.6429C10.5242 10.6429 11.2277 9.93936 11.2277 9.07149C11.2277 8.20361 10.5242 7.50006 9.65631 7.50006C8.78843 7.50006 8.08488 8.20361 8.08488 9.07149C8.08488 9.93936 8.78843 10.6429 9.65631 10.6429Z" fill="#202022"/>
<path d="M6.90631 13.5992C6.90631 12.4275 7.8561 11.4777 9.02773 11.4777H10.2849C11.4565 11.4777 12.4063 12.4275 12.4063 13.5992V14.1786H6.90631V13.5992Z" fill="#202022"/>
<path d="M5.90631 18.7501H10.4063V17.2501H5.90631V18.7501Z" fill="#202022"/>
</g>
</g>
</svg>
