<svg width="24" height="24" viewBox="0 0 24 24" fill="none" xmlns="http://www.w3.org/2000/svg">
<g id="Type=Filled" clip-path="url(#clip0_4556_3267)">
<path id="Vector" d="M17.875 15.625H20.335C20.995 14.265 21.375 12.735 21.375 11.125C21.375 5.465 16.785 0.875 11.125 0.875C5.465 0.875 0.875 5.465 0.875 11.125C0.875 16.785 5.465 21.375 11.125 21.375C12.735 21.375 14.265 21.005 15.625 20.335V17.875H17.875V15.625ZM11.125 5.045C12.505 5.045 13.625 6.165 13.625 7.545C13.625 8.925 12.505 10.045 11.125 10.045C9.745 10.045 8.625 8.925 8.625 7.545C8.625 6.165 9.745 5.045 11.125 5.045ZM15.125 15.625H7.125V14.545C7.125 12.885 8.465 11.545 10.125 11.545H12.125C13.785 11.545 15.125 12.885 15.125 14.545V15.625ZM20.875 19.375V17.125H19.375V19.375H17.125V20.875H19.375V23.125H20.875V20.875H23.125V19.375H20.875Z" fill="#202022"/>
</g>
<defs>
<clipPath id="clip0_4556_3267">
<rect width="24" height="24" fill="white"/>
</clipPath>
</defs>
</svg>
