<svg width="24" height="24" viewBox="0 0 24 24" fill="none" xmlns="http://www.w3.org/2000/svg">
<g id="Type=Outline">
<path id="Vector" d="M8 4.625C6.255 4.625 4.812 6.076 4.812 7.901C4.812 9.726 6.255 11.177 8 11.177C9.745 11.177 11.188 9.726 11.188 7.901C11.188 6.076 9.745 4.625 8 4.625ZM3.312 7.901C3.312 5.279 5.395 3.125 7.999 3.125C10.603 3.125 12.686 5.279 12.686 7.901C12.686 10.523 10.603 12.677 7.999 12.677C5.395 12.677 3.312 10.523 3.312 7.901ZM0.25 19.98C0.25 16.617 2.921 13.862 6.25 13.862H9.75C11.556 13.862 13.168 14.673 14.266 15.952C14.804 15.741 15.389 15.625 16 15.625H19C21.623 15.625 23.75 17.752 23.75 20.375V20.875H22.25V20.375C22.25 18.58 20.795 17.125 19 17.125H16C15.694 17.125 15.399 17.167 15.119 17.246C15.524 18.07 15.751 18.999 15.751 19.981V20.876H14.251V19.981C14.251 17.414 12.221 15.363 9.751 15.363H6.251C3.781 15.363 1.751 17.415 1.751 19.981V20.876H0.251V19.981L0.25 19.98ZM15.25 10.875C15.25 9.632 16.257 8.625 17.5 8.625C18.743 8.625 19.75 9.632 19.75 10.875C19.75 12.118 18.743 13.125 17.5 13.125C16.257 13.125 15.25 12.118 15.25 10.875ZM17.5 7.125C15.429 7.125 13.75 8.804 13.75 10.875C13.75 12.946 15.429 14.625 17.5 14.625C19.571 14.625 21.25 12.946 21.25 10.875C21.25 8.804 19.571 7.125 17.5 7.125Z" fill="#202022"/>
</g>
</svg>
