<svg width="24" height="24" viewBox="0 0 24 24" fill="none" xmlns="http://www.w3.org/2000/svg">
<g id="Type=Outline">
<g id="vector">
<path d="M14 9.75C14 10.8546 13.1046 11.75 12 11.75C10.8954 11.75 10 10.8546 10 9.75C10 8.64543 10.8954 7.75 12 7.75C13.1046 7.75 14 8.64543 14 9.75Z" fill="#202022"/>
<path d="M11.2 12.8125C9.70883 12.8125 8.5 14.0213 8.5 15.5125V16.25H15.5V15.5125C15.5 14.0213 14.2912 12.8125 12.8 12.8125H11.2Z" fill="#202022"/>
<path fill-rule="evenodd" clip-rule="evenodd" d="M22.75 4.25H1.25V9.75H2C3.24264 9.75 4.25 10.7574 4.25 12C4.25 13.2426 3.24264 14.25 2 14.25H1.25V19.75H22.75V14.25H22C20.7574 14.25 19.75 13.2426 19.75 12C19.75 10.7574 20.7574 9.75 22 9.75H22.75V4.25ZM2.75 8.32501V5.75H21.25V8.32501C19.5383 8.67247 18.25 10.1858 18.25 12C18.25 13.8142 19.5383 15.3275 21.25 15.675V18.25H2.75V15.675C4.46168 15.3275 5.75 13.8142 5.75 12C5.75 10.1858 4.46168 8.67247 2.75 8.32501Z" fill="#202022"/>
</g>
</g>
</svg>
