<svg width="24" height="24" viewBox="0 0 24 24" fill="none" xmlns="http://www.w3.org/2000/svg">
<g id="Type=Outline">
<path id="Vector" d="M12 2.125C9.101 2.125 6.75 4.476 6.75 7.375C6.75 10.274 9.101 12.625 12 12.625C14.899 12.625 17.25 10.274 17.25 7.375C17.25 4.476 14.899 2.125 12 2.125ZM8.25 7.375C8.25 5.304 9.929 3.625 12 3.625C14.071 3.625 15.75 5.304 15.75 7.375C15.75 9.446 14.071 11.125 12 11.125C9.929 11.125 8.25 9.446 8.25 7.375Z" fill="#202022"/>
<path id="Vector_2" d="M10 14.125C6.272 14.125 3.25 17.147 3.25 20.875V21.875H4.75V20.875C4.75 17.976 7.101 15.625 10 15.625H14C16.899 15.625 19.25 17.976 19.25 20.875V21.875H20.75V20.875C20.75 17.147 17.728 14.125 14 14.125H10Z" fill="#202022"/>
</g>
</svg>
