<svg width="24" height="24" viewBox="0 0 24 24" fill="none" xmlns="http://www.w3.org/2000/svg">
<g id="Type=Filled">
<path id="Vector" fill-rule="evenodd" clip-rule="evenodd" d="M22 9.75H22.75V4.25H1.25V9.75H2C3.24 9.75 4.25 10.76 4.25 12C4.25 13.24 3.24 14.25 2 14.25H1.25V19.75H22.75V14.25H22C20.76 14.25 19.75 13.24 19.75 12C19.75 10.76 20.76 9.75 22 9.75ZM12 7.75C13.1 7.75 14 8.65 14 9.75C14 10.85 13.1 11.75 12 11.75C10.9 11.75 10 10.85 10 9.75C10 8.65 10.9 7.75 12 7.75ZM15.5 16.25H8.5V15.51C8.5 14.02 9.71 12.81 11.2 12.81H12.8C14.29 12.81 15.5 14.02 15.5 15.51V16.25Z" fill="#202022"/>
</g>
</svg>
