<svg width="24" height="24" viewBox="0 0 24 24" fill="none" xmlns="http://www.w3.org/2000/svg">
<g id="Type=Outline">
<path id="Vector" d="M5.75 6.5C5.75 3.601 8.1 1.25 11 1.25C13.9 1.25 16.25 3.601 16.25 6.5C16.25 9.399 13.899 11.75 11 11.75C8.101 11.75 5.75 9.399 5.75 6.5ZM11 2.75C8.929 2.75 7.25 4.429 7.25 6.5C7.25 8.571 8.929 10.25 11 10.25C13.071 10.25 14.75 8.571 14.75 6.5C14.75 4.429 13.071 2.75 11 2.75Z" fill="#202022"/>
<path id="Vector_2" d="M21.75 14H13.75V20.042H21.75V14ZM15.25 18.531V15.51H20.25V18.531H15.25Z" fill="#202022"/>
<path id="Vector_3" d="M21.5 23C22.328 23 23 22.324 23 21.489H12.5C12.5 22.323 13.172 23 14 23H21.5Z" fill="#202022"/>
<path id="Vector_4" d="M9 13.25H12.25V14.75H9C6.101 14.75 3.75 17.101 3.75 20V20.25H11L11.011 21.75H2.25V20C2.25 16.272 5.272 13.25 9 13.25Z" fill="#202022"/>
</g>
</svg>
