<svg width="24" height="24" viewBox="0 0 24 24" fill="none" xmlns="http://www.w3.org/2000/svg">
<g id="Type=Filled">
<path id="Vector" d="M12 5.625C13.243 5.625 14.25 4.618 14.25 3.375C14.25 2.132 13.243 1.125 12 1.125C10.757 1.125 9.75 2.132 9.75 3.375C9.75 4.618 10.757 5.625 12 5.625Z" fill="#202022"/>
<path id="Vector_2" d="M12.75 18.25H14V22.25H10V18.25H11.25V16.25H5V18.25H6.25V22.25H2.25V18.25H3.5V14.75H11.25V12.5H12.75V14.75H20.5V18.25H21.75V22.25H17.75V18.25H19V16.25H12.75V18.25Z" fill="#202022"/>
<path id="Vector_3" d="M11 6.75C9.205 6.75 7.75 8.205 7.75 10V10.75H16.25V10C16.25 8.205 14.795 6.75 13 6.75H11Z" fill="#202022"/>
</g>
</svg>
