<svg width="24" height="24" viewBox="0 0 24 24" fill="none" xmlns="http://www.w3.org/2000/svg">
<g id="Type=Filled">
<path id="Shape" d="M21.7637 9.59L21.2637 9.09C20.8237 8.65 20.1137 8.65 19.6737 9.09L18.9737 9.79L21.0637 11.88L21.7637 11.18C22.2037 10.74 22.2037 10.03 21.7637 9.59ZM10.1937 20.66L11.2037 15.44L17.4037 9.24V3H12.9037V1.5H6.40375V3H1.90375V22.5H17.4037V17.66L15.4137 19.65L10.1937 20.66ZM7.90375 3H11.4037V4.5H7.90375V3ZM11.2237 7.57C11.2237 8.44 10.5237 9.14 9.65375 9.14C8.78375 9.14 8.08375 8.44 8.08375 7.57C8.08375 6.7 8.78375 6 9.65375 6C10.5237 6 11.2237 6.7 11.2237 7.57ZM6.90375 12.1C6.90375 10.93 7.85375 9.98 9.02375 9.98H10.2837C11.4537 9.98 12.4037 10.93 12.4037 12.1V12.68H6.90375V12.1ZM8.90375 19.75H5.90375V18.25H8.90375V19.75ZM12.5937 16.17L12.0937 18.76L14.6837 18.26L20.0037 12.94L17.9137 10.85L12.5937 16.17Z" fill="#202022"/>
</g>
</svg>
