<svg width="24" height="24" viewBox="0 0 24 24" fill="none" xmlns="http://www.w3.org/2000/svg">
<g id="Type=Outline">
<g id="Shape">
<path fill-rule="evenodd" clip-rule="evenodd" d="M7.71997 4.60974C7.71997 3.09096 8.95119 1.85974 10.47 1.85974C11.9888 1.85974 13.22 3.09096 13.22 4.60974C13.22 6.12852 11.9888 7.35974 10.47 7.35974C8.95119 7.35974 7.71997 6.12852 7.71997 4.60974ZM10.47 3.35974C9.77961 3.35974 9.21997 3.91939 9.21997 4.60974C9.21997 5.3001 9.77961 5.85974 10.47 5.85974C11.1603 5.85974 11.72 5.3001 11.72 4.60974C11.72 3.91939 11.1603 3.35974 10.47 3.35974Z" fill="#202022"/>
<path d="M6.21997 11.6097C6.21997 9.81482 7.67505 8.35974 9.46997 8.35974H11.47C13.2649 8.35974 14.72 9.81482 14.72 11.6097V12.6097H13.22V11.6097C13.22 10.6432 12.4365 9.85974 11.47 9.85974H9.46997C8.50347 9.85974 7.71997 10.6432 7.71997 11.6097V12.6097H6.21997V11.6097Z" fill="#202022"/>
<path d="M12.9675 19.168L20.0603 12.1427L19.0047 11.077L12.9726 17.0518L10.47 14.5492L3.9397 21.0796L5.00036 22.1402L10.47 16.6705L12.9675 19.168Z" fill="#202022"/>
</g>
</g>
</svg>
