<svg width="24" height="24" viewBox="0 0 24 24" fill="none" xmlns="http://www.w3.org/2000/svg">
<g id="Users Connected">
<g id="Shape">
<path d="M5.7998 19.0625C7.29097 19.0625 8.5 20.2715 8.5 21.7627V22.5H1.5V21.7627C1.5 20.2715 2.70903 19.0625 4.2002 19.0625H5.7998Z" fill="#202022"/>
<path d="M19.7998 19.0625C21.291 19.0625 22.5 20.2715 22.5 21.7627V22.5H15.5V21.7627C15.5 20.2715 16.709 19.0625 18.2002 19.0625H19.7998Z" fill="#202022"/>
<path d="M12.75 15.0664L15.8389 16.8506L15.0889 18.1494L12 16.3652L8.91113 18.1494L8.16113 16.8506L11.25 15.0664V11.5H12.75V15.0664Z" fill="#202022"/>
<path d="M5 14C6.10457 14 7 14.8954 7 16C7 17.1046 6.10457 18 5 18C3.89543 18 3 17.1046 3 16C3 14.8954 3.89543 14 5 14Z" fill="#202022"/>
<path d="M19 14C20.1046 14 21 14.8954 21 16C21 17.1046 20.1046 18 19 18C17.8954 18 17 17.1046 17 16C17 14.8954 17.8954 14 19 14Z" fill="#202022"/>
<path d="M12.7998 6.5625C14.291 6.5625 15.5 7.77153 15.5 9.2627V10H8.5V9.2627C8.5 7.77153 9.70903 6.5625 11.2002 6.5625H12.7998Z" fill="#202022"/>
<path d="M12 1.5C13.1046 1.5 14 2.39543 14 3.5C14 4.60457 13.1046 5.5 12 5.5C10.8954 5.5 10 4.60457 10 3.5C10 2.39543 10.8954 1.5 12 1.5Z" fill="#202022"/>
</g>
</g>
</svg>
