<svg width="24" height="24" viewBox="0 0 24 24" fill="none" xmlns="http://www.w3.org/2000/svg">
<g id="Type=Outline">
<g id="Shape">
<path fill-rule="evenodd" clip-rule="evenodd" d="M2.98486 4C2.98486 2.68832 4.04819 1.625 5.35986 1.625C6.67154 1.625 7.73486 2.68832 7.73486 4C7.73486 5.31168 6.67154 6.375 5.35986 6.375C4.04819 6.375 2.98486 5.31168 2.98486 4ZM5.35986 3.125C4.87661 3.125 4.48486 3.51675 4.48486 4C4.48486 4.48325 4.87661 4.875 5.35986 4.875C5.84311 4.875 6.23486 4.48325 6.23486 4C6.23486 3.51675 5.84311 3.125 5.35986 3.125Z" fill="#202022"/>
<path d="M1.60986 10.375C1.60986 8.58007 3.06494 7.125 4.85986 7.125H5.85986C7.65479 7.125 9.10986 8.58007 9.10986 10.375V10.875H7.60986V10.375C7.60986 9.4085 6.82636 8.625 5.85986 8.625H4.85986C3.89336 8.625 3.10986 9.4085 3.10986 10.375V10.875H1.60986V10.375Z" fill="#202022"/>
<path fill-rule="evenodd" clip-rule="evenodd" d="M15.3599 1.625C14.0482 1.625 12.9849 2.68832 12.9849 4C12.9849 5.31168 14.0482 6.375 15.3599 6.375C16.6715 6.375 17.7349 5.31168 17.7349 4C17.7349 2.68832 16.6715 1.625 15.3599 1.625ZM14.4849 4C14.4849 3.51675 14.8766 3.125 15.3599 3.125C15.8431 3.125 16.2349 3.51675 16.2349 4C16.2349 4.48325 15.8431 4.875 15.3599 4.875C14.8766 4.875 14.4849 4.48325 14.4849 4Z" fill="#202022"/>
<path d="M11.6099 10.375C11.6099 8.58007 13.0649 7.125 14.8599 7.125H15.8599C17.6548 7.125 19.1099 8.58007 19.1099 10.375V10.875H17.6099V10.375C17.6099 9.4085 16.8264 8.625 15.8599 8.625H14.8599C13.8934 8.625 13.1099 9.4085 13.1099 10.375V10.875H11.6099V10.375Z" fill="#202022"/>
<path fill-rule="evenodd" clip-rule="evenodd" d="M5.35986 13.125C4.04819 13.125 2.98486 14.1883 2.98486 15.5C2.98486 16.8117 4.04819 17.875 5.35986 17.875C6.67154 17.875 7.73486 16.8117 7.73486 15.5C7.73486 14.1883 6.67154 13.125 5.35986 13.125ZM4.48486 15.5C4.48486 15.0168 4.87661 14.625 5.35986 14.625C5.84311 14.625 6.23486 15.0168 6.23486 15.5C6.23486 15.9832 5.84311 16.375 5.35986 16.375C4.87661 16.375 4.48486 15.9832 4.48486 15.5Z" fill="#202022"/>
<path d="M1.60986 21.875C1.60986 20.0801 3.06494 18.625 4.85986 18.625H5.85986C7.65479 18.625 9.10986 20.0801 9.10986 21.875V22.375H7.60986V21.875C7.60986 20.9085 6.82636 20.125 5.85986 20.125H4.85986C3.89336 20.125 3.10986 20.9085 3.10986 21.875V22.375H1.60986V21.875Z" fill="#202022"/>
<path d="M15.3599 21.4357L22.3902 14.4054L21.3296 13.3447L15.3599 19.3144L12.8903 16.8447L11.8296 17.9054L15.3599 21.4357Z" fill="#202022"/>
</g>
</g>
</svg>
