<svg width="24" height="24" viewBox="0 0 24 24" fill="none" xmlns="http://www.w3.org/2000/svg">
<g id="Type=Filled">
<g id="Shape">
<path fill-rule="evenodd" clip-rule="evenodd" d="M17.125 11.4375C20.3006 11.4375 22.875 14.0119 22.875 17.1875C22.875 20.3631 20.3006 22.9375 17.125 22.9375C13.9494 22.9375 11.375 20.3631 11.375 17.1875C11.375 14.0119 13.9494 11.4375 17.125 11.4375ZM16.375 17.9375H21.125V16.4375H17.875V13.1875H16.375V17.9375Z" fill="#202022"/>
<path d="M11.1641 13.0625C10.3521 14.2336 9.875 15.6545 9.875 17.1875C9.875 18.8312 10.4229 20.3464 11.3447 21.5625H1.125V19.8125C1.125 16.0846 4.14708 13.0625 7.875 13.0625H11.1641Z" fill="#202022"/>
<path d="M9.875 1.0625C12.7745 1.0625 15.125 3.413 15.125 6.3125C15.125 9.212 12.7745 11.5625 9.875 11.5625C6.9755 11.5625 4.625 9.212 4.625 6.3125C4.625 3.413 6.9755 1.0625 9.875 1.0625Z" fill="#202022"/>
</g>
</g>
</svg>
