<svg width="24" height="24" viewBox="0 0 24 24" fill="none" xmlns="http://www.w3.org/2000/svg">
<g id="Type=Outline">
<g id="Shape">
<path fill-rule="evenodd" clip-rule="evenodd" d="M17.125 11.4375C20.3006 11.4375 22.875 14.0119 22.875 17.1875C22.875 20.3631 20.3006 22.9375 17.125 22.9375C13.9494 22.9375 11.375 20.3631 11.375 17.1875C11.375 14.0119 13.9494 11.4375 17.125 11.4375ZM16.375 17.9375H21.125V16.4375H17.875V13.1875H16.375V17.9375Z" fill="#202022"/>
<path d="M11.1641 13.0625C10.8426 13.5262 10.5736 14.0288 10.3662 14.5625H7.875C4.97551 14.5625 2.625 16.913 2.625 19.8125V20.0625H10.4678C10.7 20.5994 10.9958 21.1022 11.3447 21.5625H1.125V19.8125C1.125 16.0846 4.14708 13.0625 7.875 13.0625H11.1641Z" fill="#202022"/>
<path fill-rule="evenodd" clip-rule="evenodd" d="M9.875 1.0625C12.7745 1.0625 15.125 3.413 15.125 6.3125C15.125 9.212 12.7745 11.5625 9.875 11.5625C6.9755 11.5625 4.625 9.212 4.625 6.3125C4.625 3.413 6.9755 1.0625 9.875 1.0625ZM9.875 2.5625C7.80393 2.5625 6.125 4.24143 6.125 6.3125C6.125 8.38357 7.80393 10.0625 9.875 10.0625C11.9461 10.0625 13.625 8.38357 13.625 6.3125C13.625 4.24143 11.9461 2.5625 9.875 2.5625Z" fill="#202022"/>
</g>
</g>
</svg>
