<svg width="24" height="24" viewBox="0 0 24 24" fill="none" xmlns="http://www.w3.org/2000/svg">
<g id="Type=Filled">
<g id="Shape">
<path d="M7.96997 4.35974C7.96997 2.97903 9.08926 1.85974 10.47 1.85974C11.8507 1.85974 12.97 2.97903 12.97 4.35974C12.97 5.74045 11.8507 6.85974 10.47 6.85974C9.08926 6.85974 7.96997 5.74045 7.96997 4.35974Z" fill="#202022"/>
<path d="M6.21997 11.1097C6.21997 9.31482 7.67505 7.85974 9.46997 7.85974H11.47C13.2649 7.85974 14.72 9.31482 14.72 11.1097V12.3597H6.21997V11.1097Z" fill="#202022"/>
<path d="M12.9675 19.168L20.0603 12.1427L19.0047 11.077L12.9726 17.0518L10.47 14.5492L3.9397 21.0796L5.00036 22.1402L10.47 16.6705L12.9675 19.168Z" fill="#202022"/>
</g>
</g>
</svg>
