<svg width="24" height="24" viewBox="0 0 24 24" fill="none" xmlns="http://www.w3.org/2000/svg">
<g id="Type=Filled">
<g id="Shape">
<path d="M5.35986 5.90625C6.53347 5.90625 7.48486 4.95485 7.48486 3.78125C7.48486 2.60764 6.53347 1.65625 5.35986 1.65625C4.18626 1.65625 3.23486 2.60764 3.23486 3.78125C3.23486 4.95485 4.18626 5.90625 5.35986 5.90625Z" fill="#202022"/>
<path d="M1.60986 9.90625C1.60986 8.11132 3.06494 6.65625 4.85986 6.65625H5.85986C7.65479 6.65625 9.10986 8.11132 9.10986 9.90625V11.1562H1.60986V9.90625Z" fill="#202022"/>
<path d="M5.35986 17.0938C6.53347 17.0938 7.48486 16.1424 7.48486 14.9688C7.48486 13.7951 6.53347 12.8438 5.35986 12.8438C4.18626 12.8438 3.23486 13.7951 3.23486 14.9688C3.23486 16.1424 4.18626 17.0938 5.35986 17.0938Z" fill="#202022"/>
<path d="M4.85986 17.8438C3.06494 17.8438 1.60986 19.2988 1.60986 21.0938V22.3438H9.10986V21.0938C9.10986 19.2988 7.65479 17.8438 5.85986 17.8438H4.85986Z" fill="#202022"/>
<path d="M22.3902 13.9366L15.3599 20.967L11.8296 17.4366L12.8903 16.376L15.3599 18.8456L21.3296 12.876L22.3902 13.9366Z" fill="#202022"/>
<path d="M15.3599 5.90625C16.5335 5.90625 17.4849 4.95485 17.4849 3.78125C17.4849 2.60764 16.5335 1.65625 15.3599 1.65625C14.1863 1.65625 13.2349 2.60764 13.2349 3.78125C13.2349 4.95485 14.1863 5.90625 15.3599 5.90625Z" fill="#202022"/>
<path d="M14.8599 6.65625C13.0649 6.65625 11.6099 8.11132 11.6099 9.90625V11.1562H19.1099V9.90625C19.1099 8.11132 17.6548 6.65625 15.8599 6.65625H14.8599Z" fill="#202022"/>
</g>
</g>
</svg>
