<svg width="24" height="24" viewBox="0 0 24 24" fill="none" xmlns="http://www.w3.org/2000/svg">
<g id="V2 Add Circle Filled">
<path id="Vector" d="M10.952 13.048V16C10.952 16.297 11.052 16.546 11.253 16.747C11.454 16.948 11.703 17.048 12 17.048C12.297 17.048 12.546 16.948 12.747 16.747C12.948 16.546 13.048 16.297 13.048 16V13.048H16C16.297 13.048 16.546 12.948 16.747 12.747C16.948 12.546 17.048 12.297 17.048 12C17.048 11.703 16.948 11.454 16.747 11.253C16.546 11.052 16.297 10.952 16 10.952H13.048V8C13.048 7.703 12.948 7.454 12.747 7.253C12.546 7.052 12.297 6.952 12 6.952C11.703 6.952 11.454 7.052 11.253 7.253C11.052 7.454 10.952 7.703 10.952 8V10.952H8C7.703 10.952 7.454 11.052 7.253 11.253C7.052 11.454 6.952 11.703 6.952 12C6.952 12.297 7.052 12.546 7.253 12.747C7.454 12.948 7.703 13.048 8 13.048H10.952ZM12 22.203C10.585 22.203 9.257 21.935 8.016 21.4C6.775 20.865 5.696 20.138 4.779 19.221C3.861 18.303 3.135 17.224 2.6 15.984C2.065 14.744 1.797 13.416 1.797 12C1.797 10.585 2.065 9.257 2.6 8.016C3.135 6.775 3.862 5.696 4.779 4.779C5.697 3.861 6.776 3.135 8.016 2.6C9.256 2.065 10.584 1.797 12 1.797C13.415 1.797 14.743 2.065 15.984 2.6C17.225 3.135 18.304 3.862 19.221 4.779C20.139 5.697 20.865 6.776 21.401 8.016C21.937 9.256 22.204 10.584 22.204 12C22.204 13.415 21.936 14.743 21.401 15.984C20.866 17.225 20.139 18.304 19.221 19.221C18.303 20.139 17.224 20.865 15.984 21.4C14.744 21.935 13.416 22.203 12 22.203Z" fill="#202022"/>
</g>
</svg>
