<svg width="24" height="24" viewBox="0 0 24 24" fill="none" xmlns="http://www.w3.org/2000/svg">
<g id="V2 Airline Stops Filled">
<path id="Vector" d="M10.948 15.594C9.805 15.928 8.97 16.983 8.97 18.234C8.97 19.753 10.201 20.984 11.72 20.984C13.239 20.984 14.47 19.753 14.47 18.234C14.47 16.983 13.635 15.927 12.492 15.594C12.797 11.136 16.261 7.545 20.662 7.044L18.69 9.016L19.751 10.077L23.281 6.547L19.751 3.017L18.69 4.078L20.203 5.591C16.328 6.138 13.116 8.752 11.72 12.282C10.145 8.301 6.261 5.485 1.72 5.485H0.720001V6.985H1.72C6.613 6.985 10.619 10.785 10.948 15.595V15.594Z" fill="#202022"/>
</g>
</svg>
