<svg width="24" height="24" viewBox="0 0 24 24" fill="none" xmlns="http://www.w3.org/2000/svg">
<g id="V2 Auto Filled">
<path id="Vector" d="M8.90001 2.79999H15C17 2.79999 18.9 4.09999 19.5 5.99999L21 10.4C21.8 11.2 22.2 12.3 22.2 13.5V20C22.2 20.6 21.8 21 21.2 21H19.2C18.6 21 18.2 20.6 18.2 20V18.3H5.70001V20.1C5.70001 20.7 5.30001 21.1 4.70001 21.1H2.70001C2.10001 21.1 1.70001 20.7 1.70001 20.1V13.6C1.70001 12.4 2.20001 11.3 2.90001 10.5L4.40001 6.09999C5.00001 4.19999 6.90001 2.89999 8.90001 2.89999V2.79999ZM17.5 8.89999C18 8.89999 18.6 8.99999 19 9.09999L18.2 6.59999C17.8 5.29999 16.5 4.39999 15.1 4.39999H8.90001C7.50001 4.39999 6.30001 5.29999 5.80001 6.59999L5.00001 9.09999C5.40001 8.99999 6.00001 8.89999 6.50001 8.89999H17.5ZM6.50001 15.1C7.30001 15.1 8.00001 14.4 8.00001 13.6C8.00001 12.8 7.30001 12.1 6.50001 12.1C5.70001 12.1 5.00001 12.8 5.00001 13.6C5.00001 14.4 5.70001 15.1 6.50001 15.1ZM19 13.6C19 12.8 18.3 12.1 17.5 12.1C16.7 12.1 16 12.7 16 13.6C16 14.5 16.7 15.1 17.5 15.1C18.3 15.1 19 14.4 19 13.6ZM9.50001 14.4H14.5V12.9H9.50001V14.4Z" fill="#202022"/>
</g>
</svg>
