<svg width="24" height="24" viewBox="0 0 24 24" fill="none" xmlns="http://www.w3.org/2000/svg">
<g id="V2 Arrival">
<path id="Vector" d="M22 21.648H2V20.148H22V21.648Z" fill="#202022"/>
<path id="Vector_2" d="M10.398 2.70201C11.012 2.81001 11.539 3.19801 11.826 3.75101L16.296 12.373L19.996 13.025C20.779 13.163 21.476 13.607 21.932 14.259L21.981 14.329C22.456 15.008 22.291 15.943 21.613 16.418L21.543 16.467C20.891 16.923 20.085 17.102 19.301 16.964L4.604 14.372C3.809 14.232 3.176 13.627 3 12.839L1.871 7.79701L3.841 8.14401C4.461 8.25301 4.993 8.64801 5.278 9.21001L5.956 10.548L10.88 11.416L8.417 2.35101L10.398 2.70001V2.70201Z" fill="#202022"/>
</g>
</svg>
