<svg width="24" height="24" viewBox="0 0 24 24" fill="none" xmlns="http://www.w3.org/2000/svg">
<g id="V2 Arrow Right">
<path id="Vector" d="M11.204 19.288C10.989 19.073 10.877 18.807 10.869 18.489C10.861 18.171 10.964 17.906 11.179 17.69L15.732 13.137H5.047C4.728 13.137 4.458 13.027 4.239 12.808C4.02 12.589 3.91 12.319 3.91 12C3.91 11.681 4.02 11.412 4.239 11.192C4.458 10.972 4.728 10.863 5.047 10.863H15.732L11.179 6.30401C10.964 6.08901 10.86 5.82401 10.869 5.50801C10.878 5.19201 10.989 4.92801 11.204 4.71201C11.419 4.49601 11.685 4.38901 12.003 4.38901C12.32 4.38901 12.586 4.49701 12.802 4.71201L19.3 11.204C19.416 11.303 19.498 11.423 19.545 11.564C19.592 11.705 19.617 11.85 19.617 11.999C19.617 12.148 19.593 12.289 19.545 12.422C19.497 12.555 19.416 12.679 19.3 12.795L12.802 19.293C12.587 19.508 12.321 19.615 12.003 19.613C11.685 19.611 11.42 19.503 11.204 19.288Z" fill="#202022"/>
</g>
</svg>
