<svg width="24" height="24" viewBox="0 0 24 24" fill="none" xmlns="http://www.w3.org/2000/svg">
<g id="V2 Arrow Left">
<path id="Vector" d="M10.725 19.288L4.22701 12.796C4.11501 12.684 4.03401 12.561 3.98501 12.426C3.93601 12.291 3.91101 12.149 3.91101 12C3.91101 11.851 3.93601 11.709 3.98501 11.574C4.03401 11.439 4.11501 11.316 4.22701 11.204L10.725 4.70599C10.936 4.49499 11.198 4.38599 11.511 4.37999C11.824 4.37399 12.094 4.48399 12.322 4.71199C12.55 4.92699 12.668 5.18999 12.676 5.50099C12.684 5.81199 12.575 6.08099 12.347 6.30899L7.79401 10.862H18.479C18.798 10.862 19.068 10.972 19.287 11.191C19.506 11.41 19.616 11.68 19.616 11.999C19.616 12.318 19.506 12.588 19.287 12.807C19.068 13.027 18.798 13.136 18.479 13.136H7.79401L12.347 17.689C12.558 17.9 12.668 18.165 12.676 18.485C12.684 18.805 12.575 19.071 12.347 19.287C12.132 19.515 11.864 19.629 11.545 19.629C11.226 19.629 10.952 19.515 10.724 19.287L10.725 19.288Z" fill="#202022"/>
</g>
</svg>
