<svg width="24" height="24" viewBox="0 0 24 24" fill="none" xmlns="http://www.w3.org/2000/svg">
<g id="V2 Bags Filled">
<path id="Vector" d="M9.2 2.40001C9.2 1.40001 10 0.600006 11 0.600006H13C14 0.600006 14.8 1.40001 14.8 2.40001V4.60001H17C18.5 4.60001 19.8 5.80001 19.8 7.40001V18.4C19.8 19.9 18.6 21.2 17 21.2H16.8C16.9 21.4 17 21.7 17 22C17 22.8 16.3 23.5 15.5 23.5C14.7 23.5 14 22.7 14 21.9C14 21.6 14.1 21.4 14.2 21.1H9.8C9.9 21.3 10 21.6 10 21.9C10 22.7 9.3 23.4 8.5 23.4C7.7 23.4 7 22.7 7 21.9C7 21.6 7.1 21.4 7.2 21.1H7C5.5 21.1 4.2 19.9 4.2 18.3V7.30001C4.2 5.80001 5.4 4.50001 7 4.50001H9.2V2.40001ZM13.2 2.40001C13.2 2.20001 13.1 2.10001 12.9 2.20001H10.9C10.8 2.20001 10.7 2.30001 10.7 2.40001V4.60001H13.2V2.40001ZM7.2 7.90001V17.9H8.7V7.90001H7.2ZM15.2 17.9H16.7V7.90001H15.2V17.9ZM11.2 7.90001V17.9H12.7V7.90001H11.2Z" fill="#202022"/>
</g>
</svg>
