<svg width="24" height="24" viewBox="0 0 24 24" fill="none" xmlns="http://www.w3.org/2000/svg">
<g id="V2 Crib">
<path id="Vector" d="M12 19.928C12.301 19.928 12.603 19.91 12.904 19.874C13.205 19.838 13.509 19.785 13.814 19.713V16.005H10.185V19.713C10.49 19.784 10.794 19.838 11.095 19.874C11.396 19.91 11.698 19.928 11.999 19.928H12ZM12 22.203C10.85 22.203 9.73001 22.009 8.63901 21.622C7.54801 21.235 6.53501 20.679 5.59901 19.954C5.33001 19.747 5.19001 19.477 5.18001 19.143C5.17001 18.809 5.29901 18.511 5.56801 18.245C5.76701 18.046 6.01001 17.943 6.29601 17.937C6.58201 17.931 6.83701 18.019 7.06101 18.202C7.19501 18.319 7.33301 18.424 7.47601 18.516C7.61901 18.608 7.76301 18.698 7.91001 18.786V16.005H6.06501C5.43501 16.005 4.89901 15.783 4.45501 15.34C4.01101 14.897 3.79001 14.36 3.79001 13.73V7.85001C3.79001 6.69001 4.20201 5.69801 5.02501 4.87301C5.84801 4.04801 6.84001 3.63501 7.99901 3.63501H9.87901C10.505 3.63501 11.04 3.85801 11.486 4.30301C11.932 4.74801 12.154 5.28401 12.154 5.91001V8.63501H17.933C18.563 8.63501 19.099 8.85701 19.543 9.30001C19.987 9.74301 20.208 10.28 20.208 10.91V13.731C20.208 14.361 19.986 14.897 19.543 15.341C19.1 15.785 18.563 16.006 17.933 16.006H16.088V18.787C16.235 18.699 16.379 18.61 16.522 18.52C16.665 18.43 16.803 18.326 16.937 18.209C17.161 18.026 17.419 17.94 17.712 17.951C18.005 17.962 18.252 18.068 18.456 18.271C18.708 18.52 18.83 18.81 18.819 19.144C18.808 19.478 18.669 19.747 18.4 19.955C17.468 20.68 16.456 21.236 15.363 21.623C14.27 22.01 13.149 22.204 11.999 22.204L12 22.203Z" fill="#202022"/>
</g>
</svg>
