<svg width="24" height="24" viewBox="0 0 24 24" fill="none" xmlns="http://www.w3.org/2000/svg">
<g id="V2 Chevron Right">
<path id="Vector" d="M8.606 17.395C8.395 17.184 8.289 16.918 8.289 16.599C8.289 16.28 8.395 16.015 8.606 15.803L12.41 11.999L8.606 8.19501C8.395 7.98401 8.289 7.71901 8.289 7.39901C8.289 7.07901 8.395 6.81501 8.606 6.60301C8.817 6.39201 9.082 6.28601 9.402 6.28601C9.722 6.28601 9.986 6.39201 10.198 6.60301L14.798 11.203C14.91 11.315 14.991 11.438 15.04 11.573C15.089 11.708 15.115 11.849 15.115 11.999C15.115 12.148 15.09 12.29 15.04 12.425C14.99 12.56 14.91 12.683 14.798 12.795L10.198 17.395C9.987 17.606 9.722 17.712 9.402 17.712C9.082 17.712 8.818 17.606 8.606 17.395Z" fill="#202022"/>
</g>
</svg>
