<svg width="24" height="24" viewBox="0 0 24 24" fill="none" xmlns="http://www.w3.org/2000/svg">
<g id="V2 Close">
<path id="Vector" d="M12.002 13.591L7.198 18.395C6.987 18.606 6.722 18.712 6.402 18.712C6.082 18.712 5.818 18.606 5.606 18.395C5.395 18.184 5.289 17.918 5.289 17.599C5.289 17.28 5.395 17.015 5.606 16.803L10.41 11.999L5.606 7.19501C5.395 6.98401 5.289 6.71901 5.289 6.39901C5.289 6.07901 5.395 5.81501 5.606 5.60301C5.817 5.39201 6.082 5.28601 6.402 5.28601C6.722 5.28601 6.986 5.39201 7.198 5.60301L12.002 10.407L16.806 5.60301C17.017 5.39201 17.283 5.28601 17.602 5.28601C17.921 5.28601 18.186 5.39201 18.398 5.60301C18.609 5.81401 18.715 6.07901 18.715 6.39901C18.715 6.71901 18.609 6.98301 18.398 7.19501L13.594 11.999L18.398 16.803C18.609 17.014 18.715 17.279 18.715 17.599C18.715 17.919 18.609 18.183 18.398 18.395C18.187 18.606 17.922 18.712 17.602 18.712C17.282 18.712 17.017 18.606 16.806 18.395L12.002 13.591Z" fill="#202022"/>
</g>
</svg>
