<svg width="24" height="24" viewBox="0 0 24 24" fill="none" xmlns="http://www.w3.org/2000/svg">
<g id="V2 Comfort Filled">
<path id="Vector" d="M6.11499 5.875C7.21999 5.875 8.11499 4.98 8.11499 3.875C8.11499 2.77 7.21999 1.875 6.11499 1.875C5.00999 1.875 4.11499 2.77 4.11499 3.875C4.11499 4.98 5.00999 5.875 6.11499 5.875Z" fill="#202022"/>
<path id="Vector_2" d="M2.51903 4.39401L7.61503 16.625H15.365V18.125H8.86503V20.625H14.115V22.125H7.36503V18.125H6.61503L1.13403 4.97101L2.51903 4.39401Z" fill="#202022"/>
<path id="Vector_3" d="M19.1149 22.125H22.1149C22.5289 22.125 22.8649 21.789 22.8649 21.375C22.8649 20.961 22.5289 20.625 22.1149 20.625H21.1699L18.0199 13.918C17.6489 13.129 16.8559 12.625 15.9829 12.625H11.8909L9.95394 8.08999C9.51994 7.07399 8.34494 6.60199 7.32894 7.03599C6.31294 7.46999 5.84094 8.64499 6.27494 9.66099L8.60694 15.122L8.60994 15.121V15.126H15.8229L19.1079 22.118L19.1139 22.115V22.126L19.1149 22.125Z" fill="#202022"/>
</g>
</svg>
