<svg width="24" height="24" viewBox="0 0 24 24" fill="none" xmlns="http://www.w3.org/2000/svg">
<g id="V2 Checkbox Intermediate">
<path id="Vector" d="M8.176 13.066H15.824C16.125 13.066 16.377 12.963 16.582 12.759C16.787 12.555 16.889 12.302 16.889 12.001C16.889 11.7 16.786 11.448 16.582 11.243C16.377 11.038 16.125 10.936 15.824 10.936H8.176C7.875 10.936 7.622 11.039 7.418 11.243C7.214 11.447 7.11 11.7 7.11 12.001C7.11 12.302 7.213 12.554 7.418 12.759C7.623 12.964 7.875 13.066 8.176 13.066ZM5.224 21C4.608 21 4.083 20.783 3.65 20.35C3.217 19.917 3 19.391 3 18.776V5.22601C3 4.61001 3.217 4.08501 3.65 3.65201C4.083 3.21901 4.608 3.00201 5.224 3.00201H18.774C19.39 3.00201 19.915 3.21901 20.348 3.65201C20.781 4.08501 20.998 4.61001 20.998 5.22601V18.776C20.998 19.392 20.781 19.917 20.348 20.35C19.915 20.783 19.39 21 18.774 21H5.224Z" fill="#202022"/>
</g>
</svg>
