<svg width="24" height="24" viewBox="0 0 24 24" fill="none" xmlns="http://www.w3.org/2000/svg">
<g id="V2 Check Circle Filled">
<path id="Vector" d="M10.582 13.591L8.587 11.596C8.38 11.389 8.119 11.285 7.803 11.285C7.487 11.285 7.227 11.389 7.019 11.596C6.812 11.803 6.709 12.064 6.711 12.38C6.713 12.696 6.818 12.956 7.025 13.164L9.779 15.918C10.008 16.146 10.276 16.26 10.582 16.26C10.888 16.26 11.155 16.146 11.383 15.918L16.943 10.358C17.15 10.151 17.254 9.89 17.254 9.577C17.254 9.264 17.15 9.004 16.943 8.796C16.736 8.589 16.475 8.485 16.159 8.485C15.843 8.485 15.583 8.589 15.375 8.796L10.58 13.591H10.582ZM12 22.203C10.585 22.203 9.257 21.935 8.016 21.4C6.775 20.865 5.696 20.138 4.779 19.221C3.861 18.303 3.135 17.224 2.6 15.984C2.065 14.744 1.797 13.416 1.797 12C1.797 10.585 2.065 9.257 2.6 8.016C3.135 6.775 3.862 5.696 4.779 4.779C5.697 3.861 6.776 3.135 8.016 2.6C9.256 2.065 10.584 1.797 12 1.797C13.415 1.797 14.743 2.065 15.984 2.6C17.225 3.135 18.304 3.862 19.221 4.779C20.139 5.697 20.865 6.776 21.401 8.016C21.937 9.256 22.204 10.584 22.204 12C22.204 13.415 21.936 14.743 21.401 15.984C20.866 17.225 20.139 18.304 19.221 19.221C18.303 20.139 17.224 20.865 15.984 21.4C14.744 21.935 13.416 22.203 12 22.203Z" fill="#202022"/>
</g>
</svg>
