<svg width="24" height="24" viewBox="0 0 24 24" fill="none" xmlns="http://www.w3.org/2000/svg">
<g id="V2 Close Circle Filled">
<path id="Vector" d="M12 13.466L14.804 16.27C14.999 16.465 15.244 16.562 15.537 16.56C15.83 16.558 16.075 16.459 16.27 16.264C16.465 16.069 16.563 15.824 16.563 15.531C16.563 15.238 16.465 14.993 16.27 14.798L13.466 12L16.27 9.196C16.465 9.001 16.563 8.756 16.563 8.463C16.563 8.17 16.465 7.925 16.27 7.73C16.075 7.535 15.83 7.437 15.537 7.437C15.244 7.437 14.999 7.535 14.804 7.73L12 10.534L9.196 7.73C9.001 7.535 8.757 7.437 8.466 7.437C8.175 7.437 7.931 7.535 7.736 7.73C7.541 7.925 7.443 8.17 7.443 8.463C7.443 8.756 7.541 9.001 7.736 9.196L10.534 12L7.73 14.804C7.535 14.999 7.438 15.243 7.44 15.534C7.442 15.825 7.541 16.069 7.736 16.264C7.931 16.459 8.176 16.557 8.469 16.557C8.762 16.557 9.007 16.459 9.202 16.264L12 13.466ZM12 22.203C10.585 22.203 9.257 21.936 8.016 21.401C6.775 20.866 5.696 20.14 4.778 19.222C3.86 18.304 3.134 17.225 2.599 15.984C2.064 14.743 1.797 13.416 1.797 12C1.797 10.585 2.064 9.257 2.599 8.016C3.134 6.775 3.86 5.696 4.778 4.778C5.696 3.86 6.775 3.134 8.016 2.599C9.257 2.064 10.584 1.797 12 1.797C13.415 1.797 14.743 2.064 15.984 2.599C17.225 3.134 18.304 3.86 19.222 4.778C20.14 5.696 20.866 6.775 21.401 8.016C21.936 9.257 22.203 10.584 22.203 12C22.203 13.415 21.936 14.743 21.401 15.984C20.866 17.225 20.14 18.304 19.222 19.222C18.304 20.14 17.225 20.866 15.984 21.401C14.743 21.936 13.416 22.203 12 22.203Z" fill="#202022"/>
</g>
</svg>
