<svg width="24" height="24" viewBox="0 0 24 24" fill="none" xmlns="http://www.w3.org/2000/svg">
<g id="V2 Chevron Left">
<path id="Vector" d="M13.206 17.395L8.60598 12.795C8.49398 12.683 8.41298 12.56 8.36398 12.425C8.31498 12.29 8.28998 12.149 8.28998 11.999C8.28998 11.85 8.31498 11.708 8.36398 11.573C8.41298 11.438 8.49398 11.315 8.60598 11.203L13.206 6.60301C13.417 6.39201 13.683 6.28601 14.002 6.28601C14.321 6.28601 14.586 6.39201 14.798 6.60301C15.009 6.81401 15.115 7.07901 15.115 7.39901C15.115 7.71901 15.009 7.98301 14.798 8.19501L10.994 11.999L14.798 15.803C15.009 16.014 15.115 16.279 15.115 16.599C15.115 16.919 15.009 17.183 14.798 17.395C14.587 17.606 14.322 17.712 14.002 17.712C13.682 17.712 13.417 17.606 13.206 17.395Z" fill="#202022"/>
</g>
</svg>
