<svg width="24" height="24" viewBox="0 0 24 24" fill="none" xmlns="http://www.w3.org/2000/svg">
<g id="Type=Fill">
<path id="Vector" d="M10.613 13.188L8.657 11.237C8.455 11.035 8.2 10.934 7.893 10.936C7.586 10.938 7.332 11.04 7.129 11.243C6.927 11.445 6.825 11.699 6.825 12.004C6.825 12.309 6.926 12.562 7.129 12.764L9.828 15.469C10.051 15.692 10.313 15.804 10.612 15.804C10.911 15.804 11.173 15.692 11.396 15.469L16.834 10.026C17.037 9.82395 17.137 9.56895 17.135 9.26195C17.133 8.95495 17.031 8.70095 16.828 8.49795C16.625 8.29495 16.372 8.19395 16.067 8.19395C15.763 8.19395 15.509 8.29495 15.307 8.49795L10.613 13.186V13.188ZM5.224 21C4.608 21 4.083 20.783 3.65 20.35C3.217 19.917 3 19.391 3 18.776V5.22595C3 4.60995 3.217 4.08495 3.65 3.65195C4.083 3.21895 4.608 3.00195 5.224 3.00195H18.774C19.39 3.00195 19.915 3.21895 20.348 3.65195C20.781 4.08495 20.998 4.60995 20.998 5.22595V18.776C20.998 19.392 20.781 19.917 20.348 20.35C19.915 20.783 19.39 21 18.774 21H5.224Z" fill="#202022"/>
</g>
</svg>
