<svg width="24" height="24" viewBox="0 0 24 24" fill="none" xmlns="http://www.w3.org/2000/svg">
<g id="V2 Carryon">
<path id="Vector" d="M9.20001 2.90001V9.00001H7.00001C5.40001 9.00001 4.20001 10.3 4.20001 11.8V17.8C4.20001 19.4 5.50001 20.6 7.00001 20.6H7.20001C7.10001 20.9 7.00001 21.1 7.00001 21.4C7.00001 22.2 7.70001 22.9 8.50001 22.9C9.30001 22.9 10 22.2 10 21.4C10 21.1 9.90001 20.8 9.80001 20.6H14.2C14.1 20.9 14 21.1 14 21.4C14 22.2 14.7 23 15.5 23C16.3 23 17 22.3 17 21.5C17 21.2 16.9 20.9 16.8 20.7H17C18.6 20.7 19.8 19.4 19.8 17.9V11.9C19.8 10.3 18.5 9.10001 17 9.10001H14.8V2.90001C14.8 1.90001 14 1.10001 13 1.10001H11C10 1.10001 9.20001 1.90001 9.20001 2.90001ZM13.2 2.90001V9.10001H10.7V2.90001C10.7 2.80001 10.8 2.70001 10.9 2.70001H12.9C13.1 2.60001 13.2 2.70001 13.2 2.90001ZM7.20001 11.9H8.70001V17.9H7.20001V11.9ZM15.2 17.9V11.9H16.7V17.9H15.2ZM11.2 11.9H12.7V17.9H11.2V11.9Z" fill="#202022"/>
</g>
</svg>
