<svg width="24" height="24" viewBox="0 0 24 24" fill="none" xmlns="http://www.w3.org/2000/svg">
<g id="V2 Checkroom">
<path id="Vector" d="M10.25 6.17499C10.25 5.20899 11.033 4.42499 12 4.42499C12.967 4.42499 13.75 5.20799 13.75 6.17499C13.75 7.14099 12.967 7.92499 12 7.92499H11.25V10.316L1.74301 17.961C0.456006 18.996 1.18801 21.075 2.84001 21.075H21.161C22.813 21.075 23.545 18.996 22.258 17.961L12.751 10.316V9.33799C14.184 8.99899 15.251 7.71199 15.251 6.17499C15.251 4.37999 13.796 2.92499 12.001 2.92499C10.206 2.92499 8.75101 4.37999 8.75101 6.17499H10.251H10.25ZM2.68301 19.13L12 11.637L21.317 19.13C21.501 19.278 21.396 19.575 21.16 19.575H2.83901C2.60301 19.575 2.49801 19.278 2.68201 19.13H2.68301Z" fill="#202022"/>
</g>
</svg>
