<svg width="24" height="24" viewBox="0 0 24 24" fill="none" xmlns="http://www.w3.org/2000/svg">
<g id="Type=Outline">
<path id="Vector" d="M19.045 4.466C19.315 4.466 19.534 4.685 19.534 4.955V19.044C19.534 19.314 19.315 19.533 19.045 19.533H4.956C4.686 19.533 4.467 19.314 4.467 19.044V4.955C4.467 4.685 4.686 4.466 4.956 4.466H19.045ZM4.955 3C3.875 3 3 3.875 3 4.955V19.044C3 20.124 3.875 20.999 4.955 20.999H19.044C20.124 20.999 20.999 20.124 20.999 19.044V4.955C20.999 3.875 20.124 3 19.044 3H4.955Z" fill="#202022"/>
</g>
</svg>
