<svg width="24" height="24" viewBox="0 0 24 24" fill="none" xmlns="http://www.w3.org/2000/svg">
<g id="V2 Check">
<path id="Vector" d="M9.54898 17.713C9.39998 17.713 9.25799 17.688 9.12298 17.638C8.98798 17.588 8.86498 17.508 8.75299 17.396L4.45298 13.096C4.24198 12.885 4.13998 12.615 4.14898 12.288C4.15798 11.961 4.26698 11.691 4.47798 11.48C4.68898 11.269 4.95598 11.163 5.27998 11.163C5.60398 11.163 5.86998 11.269 6.08198 11.48L9.54898 14.947L17.916 6.58001C18.127 6.36901 18.397 6.26201 18.724 6.26001C19.051 6.25801 19.323 6.36501 19.538 6.58001C19.749 6.79101 19.855 7.06201 19.855 7.39101C19.855 7.72001 19.749 7.99101 19.538 8.20201L10.344 17.396C10.232 17.508 10.109 17.589 9.97398 17.638C9.83898 17.687 9.69798 17.713 9.54898 17.713Z" fill="#202022"/>
</g>
</svg>
