<svg width="24" height="24" viewBox="0 0 24 24" fill="none" xmlns="http://www.w3.org/2000/svg">
<g id="V2 Co2">
<path id="Vector" d="M10.999 15.073C10.702 15.073 10.449 14.97 10.24 14.765C10.031 14.56 9.92599 14.304 9.92599 14.001V10.001C9.92599 9.70401 10.029 9.45101 10.234 9.24201C10.439 9.03301 10.694 8.92801 10.998 8.92801H13.998C14.295 8.92801 14.548 9.03101 14.757 9.23601C14.966 9.44101 15.071 9.69601 15.071 10V14C15.071 14.297 14.968 14.55 14.763 14.759C14.558 14.968 14.303 15.073 13.999 15.073H10.999ZM11.571 13.428H13.425V10.574H11.571V13.428ZM3.99899 15.073C3.70199 15.073 3.44899 14.97 3.23999 14.765C3.03099 14.56 2.92599 14.304 2.92599 14.001V10.001C2.92599 9.70401 3.02899 9.45101 3.23399 9.24201C3.43899 9.03301 3.69399 8.92801 3.99799 8.92801H6.99799C7.29499 8.92801 7.54799 9.03101 7.75699 9.23601C7.96599 9.44101 8.07099 9.69601 8.07099 10V10.25C8.07099 10.48 7.99199 10.675 7.83399 10.834C7.67599 10.993 7.47699 11.073 7.23499 11.073C7.03999 11.073 6.86999 11.025 6.72399 10.929C6.57799 10.833 6.47899 10.715 6.42499 10.572H4.57099V13.426H6.42499C6.47899 13.284 6.57999 13.165 6.72699 13.069C6.874 12.973 7.048 12.925 7.24699 12.925C7.48499 12.925 7.68099 13.003 7.83699 13.158C7.99299 13.313 8.06999 13.51 8.06999 13.748V13.998C8.06999 14.295 7.96699 14.548 7.76199 14.757C7.55699 14.966 7.30199 15.071 6.99799 15.071H3.99799L3.99899 15.073ZM18.02 18.073C17.725 18.073 17.469 17.964 17.252 17.747C17.035 17.53 16.926 17.274 16.926 16.98V15.496C16.926 15.202 17.029 14.951 17.234 14.741C17.439 14.531 17.694 14.427 17.998 14.427H19.925V13.573H17.745C17.517 13.573 17.323 13.495 17.164 13.34C17.005 13.185 16.925 12.988 16.925 12.75C16.925 12.512 17.003 12.316 17.158 12.16C17.313 12.004 17.51 11.927 17.748 11.927H20.498C20.795 11.927 21.048 12.03 21.257 12.236C21.466 12.442 21.571 12.696 21.571 13V14.5C21.571 14.797 21.468 15.05 21.263 15.259C21.058 15.468 20.803 15.573 20.499 15.573H18.572V16.427H20.752C20.98 16.427 21.174 16.505 21.333 16.66C21.492 16.815 21.572 17.012 21.572 17.25C21.572 17.488 21.494 17.684 21.339 17.84C21.184 17.995 20.987 18.073 20.749 18.073H18.02Z" fill="#202022"/>
</g>
</svg>
