<svg width="24" height="24" viewBox="0 0 24 24" fill="none" xmlns="http://www.w3.org/2000/svg">
<g id="V2 Chevron Up">
<path id="Vector" d="M6.606 14.764C6.395 14.553 6.289 14.288 6.289 13.968C6.289 13.648 6.395 13.383 6.606 13.172L11.206 8.57201C11.318 8.46001 11.441 8.37901 11.576 8.33001C11.711 8.28101 11.853 8.25601 12.002 8.25601C12.151 8.25601 12.293 8.28101 12.428 8.33001C12.563 8.37901 12.686 8.46001 12.798 8.57201L17.423 13.197C17.634 13.408 17.739 13.666 17.737 13.971C17.735 14.276 17.622 14.54 17.398 14.764C17.187 14.975 16.922 15.081 16.602 15.081C16.282 15.081 16.017 14.975 15.806 14.764L12.002 10.96L8.173 14.789C7.962 15 7.704 15.105 7.399 15.103C7.094 15.101 6.83 14.988 6.606 14.764Z" fill="#202022"/>
</g>
</svg>
