<svg width="24" height="24" viewBox="0 0 24 24" fill="none" xmlns="http://www.w3.org/2000/svg">
<g id="V2 Chevron Down">
<path id="Vector" d="M11.999 15.082C11.85 15.082 11.708 15.057 11.573 15.008C11.438 14.959 11.315 14.878 11.203 14.766L6.57798 10.141C6.36698 9.93 6.26498 9.669 6.27398 9.358C6.28298 9.047 6.39198 8.786 6.60298 8.575C6.81398 8.364 7.07898 8.258 7.39898 8.258C7.71898 8.258 7.98298 8.364 8.19498 8.575L11.999 12.379L15.828 8.55C16.039 8.339 16.3 8.237 16.611 8.246C16.922 8.255 17.183 8.364 17.394 8.575C17.605 8.786 17.711 9.051 17.711 9.371C17.711 9.691 17.605 9.955 17.394 10.167L12.794 14.767C12.682 14.879 12.559 14.96 12.424 15.009C12.289 15.058 12.148 15.083 11.998 15.083L11.999 15.082Z" fill="#202022"/>
</g>
</svg>
