<svg width="24" height="24" viewBox="0 0 24 24" fill="none" xmlns="http://www.w3.org/2000/svg">
<g id="V2 Departure Filled">
<path id="Vector" d="M4.06099 21.137C3.74199 21.137 3.47199 21.027 3.25299 20.808C3.03399 20.589 2.92399 20.319 2.92399 20C2.92399 19.681 3.03399 19.412 3.25299 19.192C3.47199 18.972 3.74199 18.863 4.06099 18.863H20.061C20.38 18.863 20.65 18.973 20.869 19.192C21.088 19.411 21.198 19.681 21.198 20C21.198 20.319 21.088 20.589 20.869 20.808C20.65 21.028 20.38 21.137 20.061 21.137H4.06099ZM5.67199 15.926C5.42699 15.997 5.18999 15.985 4.95999 15.892C4.72999 15.799 4.54899 15.64 4.41599 15.416L2.50999 12.191C2.31899 11.881 2.28799 11.589 2.41699 11.315C2.54599 11.041 2.79399 10.868 3.16199 10.793C3.29499 10.76 3.44699 10.769 3.61899 10.821C3.79099 10.873 3.92699 10.947 4.02599 11.042L5.39699 12.244L9.95199 11.016L6.66099 5.441C6.45399 5.084 6.41599 4.741 6.54899 4.412C6.68199 4.083 6.94699 3.851 7.34499 3.719C7.55199 3.648 7.78499 3.644 8.04499 3.707C8.30499 3.77 8.51699 3.873 8.68299 4.018L14.948 9.645L19.876 8.325C20.457 8.18 20.983 8.292 21.454 8.662C21.925 9.032 22.161 9.522 22.161 10.133C22.161 10.532 22.038 10.886 21.791 11.198C21.544 11.51 21.23 11.719 20.848 11.827L5.67299 15.927L5.67199 15.926Z" fill="#202022"/>
</g>
</svg>
