<svg width="24" height="24" viewBox="0 0 24 24" fill="none" xmlns="http://www.w3.org/2000/svg">
<g id="V2 Edit Filled">
<path id="Vector" d="M19.323 8.98999L15.043 4.75399L16.407 3.38399C16.806 2.98499 17.295 2.78299 17.873 2.77899C18.451 2.77499 18.948 2.97699 19.363 3.38399L20.679 4.69399C21.094 5.10099 21.304 5.58699 21.309 6.14999C21.314 6.71299 21.116 7.19499 20.717 7.59399L19.322 8.98899L19.323 8.98999ZM4.09501 21.095C3.77601 21.095 3.50601 20.985 3.28701 20.766C3.06801 20.547 2.95801 20.277 2.95801 19.958V17.294C2.95801 17.141 2.98601 16.995 3.04201 16.856C3.09801 16.717 3.18401 16.59 3.30001 16.474L13.594 6.17999L17.88 10.46L7.58601 20.754C7.47001 20.87 7.34201 20.956 7.20101 21.012C7.06001 21.068 6.91301 21.096 6.76001 21.096H4.09601L4.09501 21.095Z" fill="#202022"/>
</g>
</svg>
