<svg width="24" height="24" viewBox="0 0 24 24" fill="none" xmlns="http://www.w3.org/2000/svg">
<g id="V2 Hotel Filled">
<path id="Vector" d="M3.25 4.875V10.326C2.629 10.995 2.25 11.891 2.25 12.876V20.876H3.75V17.626H20.25V20.876H21.75V12.876C21.75 11.892 21.371 10.995 20.75 10.326V4.875C20.75 3.909 19.967 3.125 19 3.125H5C4.034 3.125 3.25 3.908 3.25 4.875ZM11.25 9.125H6.25V6.875C6.25 6.323 6.698 5.875 7.25 5.875H10.25C10.802 5.875 11.25 6.323 11.25 6.875V9.125ZM17.75 9.125H12.75V6.875C12.75 6.323 13.198 5.875 13.75 5.875H16.75C17.302 5.875 17.75 6.323 17.75 6.875V9.125Z" fill="#202022"/>
</g>
</svg>
