<svg width="24" height="24" viewBox="0 0 24 24" fill="none" xmlns="http://www.w3.org/2000/svg">
<g id="V2 Hotelclass">
<path id="Vector" d="M13.059 8.91201L10.115 2.97101L7.171 8.91201L0.582001 9.86601L5.35 14.496L4.225 21.029L10.114 17.945L16.003 21.029L14.878 14.496L19.646 9.86601L13.057 8.91201H13.059ZM8.166 10.284L10.115 6.35001L12.064 10.284L16.415 10.914L13.267 13.971L14.011 18.292L10.115 16.252L6.219 18.292L6.963 13.971L3.815 10.914L8.166 10.284Z" fill="#202022"/>
<path id="Vector_2" d="M14.414 6.35001L15.077 7.68901L16.88 7.95001L14.413 2.97101L13.101 5.62001L13.938 7.30901L14.414 6.35001Z" fill="#202022"/>
<path id="Vector_3" d="M17.252 19.431L20.304 21.029L19.179 14.496L23.418 10.38L21.555 10.105L17.567 13.977L18.31 18.291L16.931 17.569L17.251 19.43L17.252 19.431Z" fill="#202022"/>
</g>
</svg>
