<svg width="24" height="24" viewBox="0 0 24 24" fill="none" xmlns="http://www.w3.org/2000/svg">
<g id="Type=Filled">
<path id="Shape" fill-rule="evenodd" clip-rule="evenodd" d="M0.408691 12C0.408691 8.82436 2.98305 6.25 6.15869 6.25C8.60697 6.25 10.6964 7.77957 11.5262 9.93421L20.3668 9.93421L23.5913 12.6815L19.1747 16.9306L16.1662 14.669L13.206 16.8943L10.9798 15.1345C9.95457 16.7082 8.17891 17.75 6.15869 17.75C2.98305 17.75 0.408691 15.1756 0.408691 12ZM3.3125 13C3.86478 13 4.3125 12.5523 4.3125 12C4.3125 11.4477 3.86478 11 3.3125 11C2.76022 11 2.3125 11.4477 2.3125 12C2.3125 12.5523 2.76022 13 3.3125 13Z" fill="#202022"/>
</g>
</svg>
