<svg width="24" height="24" viewBox="0 0 24 24" fill="none" xmlns="http://www.w3.org/2000/svg">
<g id="Type=Outline">
<g id="Shape">
<path d="M4.1875 13C4.73978 13 5.1875 12.5523 5.1875 12C5.1875 11.4477 4.73978 11 4.1875 11C3.63522 11 3.1875 11.4477 3.1875 12C3.1875 12.5523 3.63522 13 4.1875 13Z" fill="#202022"/>
<path fill-rule="evenodd" clip-rule="evenodd" d="M6.15869 6.25C2.98305 6.25 0.408691 8.82436 0.408691 12C0.408691 15.1756 2.98305 17.75 6.15869 17.75C8.17891 17.75 9.95457 16.7082 10.9798 15.1345L13.206 16.8943L16.1662 14.669L19.1747 16.9306L23.5913 12.6815L20.3668 9.93421L11.5262 9.93421C10.6964 7.77957 8.60697 6.25 6.15869 6.25ZM1.90869 12C1.90869 9.65279 3.81148 7.75 6.15869 7.75C8.11777 7.75 9.76902 9.07619 10.2601 10.8811L10.4105 11.4342L19.8144 11.4342L21.3576 12.749L19.0551 14.9641L16.1662 12.7925L13.229 15.0004L10.4465 12.801L10.0578 13.6941C9.40263 15.1997 7.90248 16.25 6.15869 16.25C3.81148 16.25 1.90869 14.3472 1.90869 12Z" fill="#202022"/>
</g>
</g>
</svg>
