<svg width="24" height="24" viewBox="0 0 24 24" fill="none" xmlns="http://www.w3.org/2000/svg">
<g id="V2 Location">
<path id="Vector" d="M11.999 21.492C11.751 21.492 11.503 21.448 11.255 21.361C11.007 21.274 10.786 21.143 10.592 20.968C9.485 19.956 8.506 18.973 7.657 18.019C6.808 17.065 6.099 16.138 5.531 15.239C4.963 14.339 4.532 13.468 4.238 12.625C3.944 11.782 3.798 10.966 3.798 10.176C3.798 7.62099 4.623 5.58599 6.272 4.06999C7.921 2.55399 9.831 1.79599 12.001 1.79599C14.172 1.79599 16.081 2.55399 17.731 4.06999C19.381 5.58599 20.205 7.62099 20.205 10.176C20.205 10.966 20.058 11.782 19.764 12.625C19.47 13.468 19.039 14.339 18.471 15.239C17.903 16.139 17.194 17.065 16.345 18.019C15.496 18.973 14.518 19.956 13.41 20.968C13.215 21.143 12.993 21.274 12.745 21.361C12.497 21.448 12.248 21.492 12 21.492H11.999ZM12 12.06C12.57 12.06 13.056 11.859 13.457 11.458C13.858 11.057 14.059 10.571 14.059 10.001C14.059 9.43099 13.858 8.94499 13.457 8.54399C13.056 8.14299 12.57 7.94199 12 7.94199C11.43 7.94199 10.944 8.14299 10.543 8.54399C10.142 8.94499 9.941 9.43099 9.941 10.001C9.941 10.571 10.142 11.057 10.543 11.458C10.944 11.859 11.43 12.06 12 12.06Z" fill="#202022"/>
</g>
</svg>
