<svg width="24" height="24" viewBox="0 0 24 24" fill="none" xmlns="http://www.w3.org/2000/svg">
<g id="V2 Out Of Policy">
<path id="Vector" d="M12 1.00699L12.59 1.75599C13.254 2.59999 14.701 3.46799 16.634 3.91899C18.312 4.30999 19.887 4.27699 20.999 3.94899L21.819 3.70799L21.952 4.55199C23.764 16.07 16.942 21.767 12.181 22.947L12.001 22.992L11.821 22.947C7.06 21.767 0.239004 16.07 2.05 4.55199L2.183 3.70799L3.003 3.94899C4.115 4.27599 5.69 4.30999 7.368 3.91899C9.301 3.46799 10.748 2.59999 11.412 1.75599L12.002 1.00699H12ZM9.53 15.548L12 13.078L14.47 15.548L15.531 14.487L13.061 12.017L15.531 9.54699L14.47 8.48599L12 10.956L9.53 8.48599L8.469 9.54699L10.939 12.017L8.469 14.487L9.53 15.548Z" fill="#202022"/>
</g>
</svg>
