<svg width="24" height="24" viewBox="0 0 24 24" fill="none" xmlns="http://www.w3.org/2000/svg">
<g id="V2 Price Cap">
<path id="Vector" d="M2 3.84399H22V2.34399H2V3.84399Z" fill="#202022"/>
<path id="Vector_2" d="M6 7.90601H6.25V5.65601H7.75V7.90601H10.5V9.40601H6C5.034 9.40601 4.25 10.19 4.25 11.156C4.25 12.122 5.033 12.906 6 12.906H8C9.795 12.906 11.25 14.361 11.25 16.156C11.25 17.951 9.795 19.406 8 19.406H7.75V21.656H6.25V19.406H3.5V17.906H8C8.966 17.906 9.75 17.123 9.75 16.156C9.75 15.189 8.967 14.406 8 14.406H6C4.205 14.406 2.75 12.951 2.75 11.156C2.75 9.36101 4.205 7.90601 6 7.90601Z" fill="#202022"/>
<path id="Vector_3" d="M21.53 11.626L16.5 6.59601L11.47 11.626L12.531 12.687L15.751 9.46701V21.656H17.251V9.46701L20.471 12.687L21.532 11.626H21.53Z" fill="#202022"/>
</g>
</svg>
