<svg width="24" height="24" viewBox="0 0 24 24" fill="none" xmlns="http://www.w3.org/2000/svg">
<g id="V2 Stops">
<path id="Vector" d="M19.002 21.185C18.292 21.185 17.666 20.982 17.124 20.575C16.582 20.168 16.206 19.659 15.998 19.048H11.002C9.88902 19.048 8.93602 18.651 8.14302 17.858C7.35002 17.065 6.95402 16.111 6.95402 14.997C6.95402 13.883 7.35002 12.93 8.14302 12.139C8.93602 11.348 9.88902 10.952 11.002 10.952H13.002C13.539 10.952 13.998 10.761 14.381 10.378C14.764 9.99499 14.954 9.53599 14.954 8.99799C14.954 8.45999 14.763 8.00099 14.381 7.61999C13.999 7.23799 13.539 7.04699 13.002 7.04699H8.00602C7.78502 7.65799 7.40702 8.16699 6.87102 8.57399C6.33502 8.98099 5.71202 9.18399 5.00202 9.18399C4.11702 9.18399 3.36502 8.87399 2.74602 8.25499C2.12702 7.63599 1.81702 6.88299 1.81702 5.99799C1.81702 5.11299 2.12702 4.36099 2.74602 3.74199C3.36502 3.12299 4.11702 2.81299 5.00202 2.81299C5.71202 2.81299 6.33502 3.01599 6.87102 3.42299C7.40702 3.82999 7.78602 4.33899 8.00602 4.94999H13.002C14.118 4.94999 15.072 5.34599 15.863 6.13699C16.654 6.92799 17.05 7.88199 17.05 8.99799C17.05 10.114 16.654 11.068 15.863 11.859C15.072 12.65 14.118 13.046 13.002 13.046H11.002C10.468 13.046 10.009 13.237 9.62502 13.619C9.24102 14.001 9.04902 14.46 9.04902 14.996C9.04902 15.532 9.24102 15.992 9.62502 16.376C10.009 16.76 10.468 16.952 11.002 16.952H15.998C16.219 16.341 16.597 15.832 17.133 15.425C17.669 15.018 18.292 14.815 19.002 14.815C19.887 14.815 20.639 15.125 21.258 15.744C21.877 16.363 22.187 17.116 22.187 18C22.187 18.885 21.877 19.637 21.258 20.256C20.639 20.875 19.887 21.185 19.002 21.185ZM5.00202 6.99999C5.28502 6.99999 5.52302 6.90399 5.71502 6.71199C5.90702 6.51999 6.00302 6.28299 6.00302 5.99899C6.00302 5.71599 5.90702 5.47799 5.71502 5.28699C5.52302 5.09599 5.28602 4.99899 5.00202 4.99899C4.71902 4.99899 4.48102 5.09499 4.28902 5.28699C4.09702 5.47899 4.00102 5.71599 4.00102 5.99899C4.00102 6.28199 4.09702 6.51999 4.28902 6.71199C4.48102 6.90399 4.71802 6.99999 5.00202 6.99999Z" fill="#202022"/>
</g>
</svg>
