<svg width="24" height="24" viewBox="0 0 24 24" fill="none" xmlns="http://www.w3.org/2000/svg">
<g id="V2 Search Outline">
<path id="Vector" d="M10.94 3C6.555 3 3 6.555 3 10.94C3 15.325 6.555 18.879 10.94 18.879C12.704 18.879 14.335 18.303 15.653 17.329L19.324 21L21 19.324L17.329 15.653C18.303 14.335 18.879 12.704 18.879 10.94C18.879 6.555 15.324 3 10.94 3ZM5.37 10.94C5.37 7.864 7.864 5.37 10.94 5.37C14.016 5.37 16.509 7.864 16.509 10.94C16.509 14.016 14.016 16.509 10.94 16.509C7.864 16.509 5.37 14.016 5.37 10.94Z" fill="#202022"/>
</g>
</svg>
