<svg width="24" height="24" viewBox="0 0 24 24" fill="none" xmlns="http://www.w3.org/2000/svg">
<g id="V2 Time Filled">
<path id="Vector" d="M13.09 11.552V8.119C13.09 7.81 12.986 7.551 12.777 7.343C12.568 7.135 12.309 7.03 12 7.03C11.691 7.03 11.433 7.134 11.224 7.343C11.015 7.552 10.911 7.811 10.911 8.119V11.956C10.911 12.109 10.939 12.256 10.995 12.395C11.051 12.534 11.135 12.66 11.247 12.771L14.451 15.975C14.654 16.178 14.907 16.28 15.211 16.28C15.515 16.28 15.769 16.178 15.977 15.975C16.184 15.772 16.288 15.516 16.288 15.209C16.288 14.902 16.184 14.645 15.977 14.437L13.091 11.551L13.09 11.552ZM12 22.203C10.585 22.203 9.257 21.935 8.016 21.4C6.775 20.865 5.696 20.138 4.779 19.221C3.861 18.303 3.135 17.224 2.6 15.984C2.065 14.744 1.797 13.416 1.797 12C1.797 10.585 2.065 9.257 2.6 8.016C3.135 6.775 3.862 5.696 4.779 4.779C5.697 3.861 6.776 3.135 8.016 2.6C9.256 2.065 10.584 1.797 12 1.797C13.415 1.797 14.743 2.065 15.984 2.6C17.225 3.135 18.304 3.862 19.221 4.779C20.139 5.697 20.865 6.776 21.401 8.016C21.937 9.256 22.204 10.584 22.204 12C22.204 13.415 21.936 14.743 21.401 15.984C20.866 17.225 20.139 18.304 19.221 19.221C18.303 20.139 17.224 20.865 15.984 21.4C14.744 21.935 13.416 22.203 12 22.203Z" fill="#202022"/>
</g>
</svg>
