<svg width="24" height="24" viewBox="0 0 24 24" fill="none" xmlns="http://www.w3.org/2000/svg">
<g id="V2 Travel Filled">
<path id="Vector" d="M9.525 21.863C9.198 21.958 8.922 21.919 8.699 21.745C8.476 21.571 8.364 21.319 8.364 20.987C8.364 20.83 8.408 20.667 8.497 20.5C8.586 20.333 8.69 20.201 8.81 20.106L10.363 18.935V13.686L3.323 15.751C2.921 15.867 2.577 15.819 2.291 15.608C2.005 15.397 1.862 15.074 1.862 14.638C1.862 14.435 1.922 14.227 2.042 14.016C2.162 13.805 2.314 13.651 2.496 13.556L10.361 8.91701V3.50101C10.361 3.02801 10.517 2.63701 10.828 2.32701C11.139 2.01701 11.53 1.86301 11.999 1.86301C12.472 1.86301 12.863 2.01801 13.173 2.32701C13.483 2.63601 13.637 3.02701 13.637 3.50101V8.91701L21.502 13.556C21.685 13.651 21.836 13.808 21.956 14.026C22.076 14.244 22.136 14.457 22.136 14.664C22.136 15.082 21.993 15.397 21.707 15.609C21.421 15.821 21.077 15.868 20.675 15.752L13.635 13.687V18.936L15.194 20.107C15.314 20.202 15.417 20.334 15.504 20.501C15.591 20.668 15.634 20.831 15.634 20.988C15.634 21.319 15.522 21.572 15.299 21.746C15.076 21.92 14.8 21.959 14.473 21.864L11.997 21.151L9.521 21.864L9.525 21.863Z" fill="#202022"/>
</g>
</svg>
