<svg width="24" height="24" viewBox="0 0 24 24" fill="none" xmlns="http://www.w3.org/2000/svg">
<g id="V2 Toilet">
<path id="Vector" d="M7.125 4.992C8.23 4.992 9.125 4.097 9.125 2.992C9.125 1.887 8.23 0.992004 7.125 0.992004C6.02 0.992004 5.125 1.887 5.125 2.992C5.125 4.097 6.02 4.992 7.125 4.992Z" fill="#202022"/>
<path id="Vector_2" d="M16.875 4.992C17.98 4.992 18.875 4.097 18.875 2.992C18.875 1.887 17.98 0.992004 16.875 0.992004C15.77 0.992004 14.875 1.887 14.875 2.992C14.875 4.097 15.77 4.992 16.875 4.992Z" fill="#202022"/>
<path id="Vector_3" d="M5.625 5.992C4.244 5.992 3.125 7.111 3.125 8.492V14.492H5.125V22.992H9.125V14.492H11.125V8.492C11.125 7.111 10.006 5.992 8.625 5.992H5.625Z" fill="#202022"/>
<path id="Vector_4" d="M19.249 7.957L20.875 16.492H18.375V23.008H15.375V16.492H12.875L14.501 7.957C14.718 6.817 15.715 5.992 16.875 5.992C18.035 5.992 19.032 6.817 19.249 7.957Z" fill="#202022"/>
</g>
</svg>
