<svg width="24" height="24" viewBox="0 0 24 24" fill="none" xmlns="http://www.w3.org/2000/svg">
<g id="V2 Thunderbolt Filled">
<path id="Vector" d="M8.82104 15.227H5.86404C5.40804 15.227 5.07204 15.024 4.85404 14.618C4.63604 14.212 4.66004 13.818 4.92504 13.437L12.699 2.25101C12.878 2.00201 13.109 1.82901 13.394 1.73401C13.679 1.63901 13.969 1.64501 14.264 1.75201C14.559 1.86001 14.78 2.04601 14.928 2.31001C15.076 2.57401 15.13 2.85801 15.093 3.16101L14.275 9.77301H18.019C18.508 9.77301 18.853 9.99101 19.054 10.426C19.255 10.861 19.196 11.267 18.877 11.644L10.347 21.883C10.152 22.116 9.91304 22.265 9.63004 22.332C9.34704 22.399 9.07104 22.372 8.80104 22.251C8.53104 22.13 8.32204 21.941 8.17504 21.684C8.02804 21.427 7.97204 21.148 8.01004 20.849L8.82204 15.228L8.82104 15.227Z" fill="#202022"/>
</g>
</svg>
