<svg width="24" height="24" viewBox="0 0 24 24" fill="none" xmlns="http://www.w3.org/2000/svg">
<g id="V2 Wifi">
<path id="Vector" d="M5.64601 14.547C5.30901 14.21 5.14901 13.814 5.16601 13.359C5.18301 12.904 5.36801 12.553 5.72101 12.308C6.61701 11.691 7.59001 11.201 8.64101 10.841C9.69201 10.481 10.811 10.3 11.999 10.3C13.183 10.3 14.301 10.478 15.354 10.835C16.407 11.192 17.381 11.679 18.277 12.296C18.63 12.541 18.82 12.888 18.847 13.337C18.874 13.786 18.711 14.187 18.358 14.54C18.063 14.835 17.68 14.999 17.211 15.032C16.742 15.065 16.301 14.95 15.89 14.689C15.335 14.334 14.73 14.069 14.076 13.895C13.422 13.721 12.73 13.634 11.999 13.634C11.268 13.634 10.577 13.72 9.92501 13.892C9.27301 14.064 8.66801 14.329 8.10801 14.689C7.70101 14.947 7.26201 15.061 6.79301 15.032C6.32401 15.003 5.94101 14.841 5.64601 14.546V14.547ZM1.17101 10.116C0.85101 9.796 0.69101 9.406 0.69101 8.947C0.69101 8.488 0.85901 8.119 1.19601 7.84C2.65901 6.619 4.30401 5.673 6.13201 5.004C7.96001 4.335 9.91601 4 12 4C14.084 4 16.041 4.335 17.871 5.004C19.701 5.673 21.347 6.619 22.81 7.84C23.147 8.119 23.318 8.483 23.324 8.934C23.33 9.385 23.165 9.779 22.829 10.115C22.534 10.41 22.152 10.573 21.685 10.604C21.218 10.635 20.805 10.501 20.448 10.202C19.285 9.284 17.995 8.576 16.578 8.08C15.161 7.584 13.636 7.335 12.001 7.335C10.366 7.335 8.84101 7.583 7.42401 8.08C6.00701 8.577 4.71801 9.284 3.55401 10.202C3.19701 10.501 2.78401 10.635 2.31701 10.604C1.85001 10.573 1.46801 10.41 1.17301 10.115L1.17101 10.116ZM12 21.185C11.259 21.185 10.634 20.929 10.125 20.418C9.61601 19.907 9.36101 19.28 9.36101 18.54C9.36101 17.8 9.61601 17.174 10.125 16.665C10.635 16.155 11.26 15.901 12 15.901C12.74 15.901 13.366 16.156 13.875 16.665C14.384 17.174 14.639 17.8 14.639 18.54C14.639 19.281 14.384 19.907 13.875 20.418C13.366 20.929 12.74 21.185 12 21.185Z" fill="#202022"/>
</g>
</svg>
