<svg width="24" height="24" viewBox="0 0 24 24" fill="none" xmlns="http://www.w3.org/2000/svg">
<g id="Variable">
<path id="Vector" d="M2.70697 2.75H7.32097V4.25H4.20697V19.75H7.32097V21.25H2.70697V2.75Z" fill="#202022"/>
<path id="Vector_2" d="M8.351 8.666C9.149 7.867 10.52 8.27799 10.732 9.44999L11.184 11.945L8.752 15.62H7.501V17.12H9.559L11.572 14.079L11.706 14.816C12.126 17.137 14.941 18.08 16.625 16.393L15.563 15.333C14.765 16.132 13.394 15.722 13.182 14.549L12.769 12.27L15.25 8.52099H16.501V7.02099H14.443L12.381 10.136L12.208 9.182C11.788 6.861 8.973 5.918 7.289 7.60599L8.351 8.666Z" fill="#202022"/>
<path id="Vector_3" d="M16.593 21.25H21.207V2.75H16.593V4.25H19.707V19.75H16.593V21.25Z" fill="#202022"/>
</g>
</svg>
