<svg width="24" height="24" viewBox="0 0 24 24" fill="none" xmlns="http://www.w3.org/2000/svg">
<g id="Variable Selector Mini">
<path id="Vector" d="M16.045 2.59801C14.883 3.76001 14.643 5.49501 15.325 6.89401L11.719 10.5H8.68702C8.10802 9.17601 6.78702 8.25001 5.24902 8.25001C3.17802 8.25001 1.49902 9.92901 1.49902 12C1.49902 14.071 3.17802 15.75 5.24902 15.75C6.78702 15.75 8.10802 14.824 8.68702 13.5H11.612L15.29 17.178C14.651 18.564 14.902 20.259 16.044 21.402C17.508 22.866 19.883 22.866 21.347 21.402C22.811 19.938 22.811 17.563 21.347 16.099C20.316 15.068 18.835 14.763 17.537 15.183L14.408 12.054L17.619 8.84301C18.897 9.22501 20.338 8.91101 21.348 7.90201C22.812 6.43801 22.812 4.06301 21.348 2.59901C19.884 1.13501 17.509 1.13401 16.045 2.59801Z" fill="#202022"/>
</g>
</svg>
