<svg width="24" height="24" viewBox="0 0 24 24" fill="none" xmlns="http://www.w3.org/2000/svg">
<g id="Type=Filled">
<path id="Vector" d="M10.762 12.363C10.079 11.68 10.079 10.572 10.762 9.88799C11.445 9.20399 12.553 9.20499 13.237 9.88799C13.92 10.571 13.92 11.679 13.237 12.363C12.554 13.047 11.446 13.046 10.762 12.363Z" fill="#202022"/>
<path id="Vector_2" d="M2.75 2.375H21.25V19.875H18.75V21.625H17.25V19.875H6.75V21.625H5.25V19.875H2.75V2.375ZM14.767 12.831C15.411 11.789 15.411 10.461 14.767 9.419L16.42 7.766L15.359 6.705L13.706 8.358C12.663 7.714 11.336 7.714 10.293 8.358L8.64 6.705L7.579 7.766L9.232 9.419C8.588 10.461 8.588 11.789 9.232 12.832L7.58 14.484L8.641 15.545L10.293 13.893C11.336 14.537 12.663 14.537 13.706 13.893L15.359 15.545L16.42 14.484L14.767 12.831Z" fill="#202022"/>
</g>
</svg>
