<svg width="24" height="24" viewBox="0 0 24 24" fill="none" xmlns="http://www.w3.org/2000/svg">
<g id="Type=Outline">
<path id="Vector" d="M8.641 6.70599L7.58 7.76699L9.232 9.41899C8.588 10.462 8.588 11.789 9.232 12.832L7.58 14.484L8.641 15.545L10.293 13.893C11.336 14.537 12.663 14.537 13.706 13.893L15.359 15.546L16.42 14.485L14.767 12.832C15.411 11.79 15.411 10.462 14.767 9.41999L16.42 7.76699L15.359 6.70599L13.706 8.35899C12.664 7.71499 11.336 7.71499 10.294 8.35899L8.642 6.70699L8.641 6.70599ZM10.762 12.363C10.079 11.679 10.079 10.572 10.762 9.88799C11.445 9.20399 12.553 9.20499 13.237 9.88799C13.92 10.571 13.92 11.679 13.237 12.363C12.554 13.047 11.446 13.046 10.762 12.363Z" fill="#202022"/>
<path id="Vector_2" d="M21.25 2.375H2.75V19.875H5.25V21.625H6.75V19.875H17.25V21.625H18.75V19.875H21.25V2.375ZM4.25 18.375V3.875H19.75V18.375H4.25Z" fill="#202022"/>
</g>
</svg>
