<svg width="24" height="24" viewBox="0 0 24 24" fill="none" xmlns="http://www.w3.org/2000/svg">
<g id="Type=Outline">
<path id="Vector" d="M3.25 2.25V5C3.25 6.069 3.86 6.995 4.75 7.45V20.25H2V21.75H22V20.25H19.25V7.45C20.14 6.995 20.75 6.069 20.75 5V2.25H3.25ZM17.75 20.25H6.25V14.75H17.75V20.25ZM17.75 13.25H6.25V7.739C6.938 7.677 7.552 7.362 8 6.888C8.501 7.419 9.212 7.751 10 7.751C10.788 7.751 11.499 7.42 12 6.888C12.501 7.419 13.212 7.751 14 7.751C14.788 7.751 15.499 7.42 16 6.888C16.448 7.362 17.062 7.677 17.75 7.739V13.25ZM15.25 3.75V5C15.25 5.69 14.69 6.25 14 6.25C13.31 6.25 12.75 5.69 12.75 5V3.75H15.25ZM16.75 3.75H19.25V5C19.25 5.69 18.69 6.25 18 6.25C17.31 6.25 16.75 5.69 16.75 5V3.75ZM11.25 3.75V5C11.25 5.69 10.69 6.25 10 6.25C9.31 6.25 8.75 5.69 8.75 5V3.75H11.25ZM7.25 3.75V5C7.25 5.69 6.69 6.25 6 6.25C5.31 6.25 4.75 5.69 4.75 5V3.75H7.25Z" fill="#202022"/>
</g>
</svg>
