<svg width="24" height="24" viewBox="0 0 24 24" fill="none" xmlns="http://www.w3.org/2000/svg">
<g id="Type=Filled">
<path id="Vector" d="M21.25 2.25V4.5C21.25 5.466 20.467 6.25 19.5 6.25C18.533 6.25 17.75 5.467 17.75 4.5V3.75H16.25V4.5C16.25 5.466 15.467 6.25 14.5 6.25C13.533 6.25 12.75 5.467 12.75 4.5V3.75H11.25V4.5C11.25 5.466 10.467 6.25 9.5 6.25C8.533 6.25 7.75 5.467 7.75 4.5V3.75H6.25V4.5C6.25 5.466 5.467 6.25 4.5 6.25C3.533 6.25 2.75 5.467 2.75 4.5V2.25H21.25Z" fill="#202022"/>
<path id="Vector_2" d="M4.75 7.74099V20.25H2V21.75H22V20.25H19.25V7.74099C18.701 7.69899 18.189 7.52099 17.75 7.23999V13.251H6.25V7.23999C5.811 7.52099 5.299 7.69999 4.75 7.74099Z" fill="#202022"/>
</g>
</svg>
