<svg width="24" height="24" viewBox="0 0 24 24" fill="none" xmlns="http://www.w3.org/2000/svg">
<g id="Type=Filled">
<path id="Vector" d="M7.727 4.52295C8.729 4.52295 9.684 4.71995 10.557 5.07695C8.565 6.72395 7.295 9.21395 7.295 11.9999C7.295 14.7859 8.564 17.2759 10.557 18.9229C9.684 19.28 8.729 19.4769 7.727 19.4769C3.597 19.4769 0.25 16.129 0.25 11.9999C0.25 7.87095 3.598 4.52295 7.727 4.52295Z" fill="#202022"/>
<path id="Vector_2" d="M8.79504 12C8.79504 14.541 10.062 16.786 11.999 18.137C13.936 16.786 15.204 14.541 15.204 12C15.204 9.45904 13.937 7.21404 12 5.86304C10.063 7.21404 8.79504 9.45904 8.79504 12Z" fill="#202022"/>
<path id="Vector_3" d="M16.704 11.9999C16.704 14.7869 15.434 17.2769 13.442 18.9229C14.315 19.28 15.271 19.4769 16.272 19.4769C20.402 19.4769 23.749 16.129 23.749 11.9999C23.749 7.87095 20.401 4.52295 16.272 4.52295C15.271 4.52295 14.315 4.71995 13.442 5.07695C15.434 6.72395 16.704 9.21395 16.704 11.9999Z" fill="#202022"/>
</g>
</svg>
