<svg width="24" height="24" viewBox="0 0 24 24" fill="none" xmlns="http://www.w3.org/2000/svg">
<g id="Type=Outline">
<path id="Vector" d="M12 5.361C10.832 4.656 9.464 4.25 8 4.25C3.72 4.25 0.25 7.72 0.25 12C0.25 16.28 3.72 19.75 8 19.75C9.464 19.75 10.832 19.344 12 18.639C13.168 19.344 14.537 19.75 16 19.75C20.28 19.75 23.75 16.28 23.75 12C23.75 7.72 20.28 4.25 16 4.25C14.536 4.25 13.168 4.656 12 5.361ZM1.801 12.801L7.199 18.199C4.388 17.839 2.161 15.612 1.801 12.801ZM12 16.803C10.841 15.837 10.038 14.459 9.814 12.895L12.856 15.937C12.6 16.253 12.313 16.543 12.001 16.804L12 16.803ZM8.354 13.273L3.145 8.064C3.419 7.727 3.727 7.419 4.064 7.145L8.276 11.357C8.259 11.569 8.25 11.783 8.25 12C8.25 12.434 8.286 12.859 8.354 13.273ZM13.696 14.576L9.874 10.754C9.968 10.29 10.113 9.846 10.303 9.425L14.125 13.247C14.031 13.71 13.886 14.155 13.696 14.576ZM13.311 17.644C13.54 17.429 13.755 17.199 13.957 16.958L15.199 18.2C14.531 18.115 13.896 17.924 13.312 17.645L13.311 17.644ZM20.855 15.936C20.581 16.273 20.273 16.581 19.936 16.855L15.724 12.643C15.741 12.431 15.75 12.217 15.75 12C15.75 11.566 15.714 11.141 15.646 10.727L20.855 15.936ZM17.247 18.126L14.815 15.694C15.036 15.286 15.222 14.857 15.369 14.409L18.631 17.671C18.195 17.874 17.731 18.028 17.247 18.126ZM11.145 8.064C11.401 7.748 11.688 7.458 12 7.198C13.159 8.164 13.962 9.541 14.187 11.106L11.145 8.064ZM21.671 14.631L13.369 6.329C13.805 6.126 14.269 5.972 14.753 5.874L22.126 13.247C22.028 13.731 21.874 14.194 21.671 14.631ZM16.801 5.801C19.612 6.161 21.84 8.388 22.199 11.199L16.801 5.801ZM9.185 8.306C8.964 8.714 8.778 9.143 8.632 9.591L5.37 6.329C5.806 6.126 6.27 5.972 6.754 5.874L9.185 8.306ZM10.689 6.356C10.46 6.571 10.244 6.801 10.043 7.042L8.801 5.8C9.469 5.885 10.104 6.077 10.689 6.356ZM10.631 17.671C10.195 17.874 9.731 18.028 9.247 18.126L1.875 10.754C1.973 10.27 2.127 9.806 2.33 9.37L10.632 17.672L10.631 17.671Z" fill="#202022"/>
</g>
</svg>
