<svg width="24" height="24" viewBox="0 0 24 24" fill="none" xmlns="http://www.w3.org/2000/svg">
<g id="Type=Outline">
<path id="Vector" d="M12 18.639C13.168 19.344 14.536 19.75 16 19.75C20.28 19.75 23.75 16.28 23.75 12C23.75 7.72 20.28 4.25 16 4.25C14.536 4.25 13.168 4.656 12 5.361C10.832 4.656 9.464 4.25 8 4.25C3.72 4.25 0.25 7.72 0.25 12C0.25 16.28 3.72 19.75 8 19.75C9.464 19.75 10.832 19.344 12 18.639ZM12 16.802C10.818 15.817 10.006 14.404 9.801 12.801L12.891 15.891C12.626 16.224 12.327 16.529 12 16.802ZM13.696 14.576L9.874 10.754C9.972 10.27 10.126 9.806 10.328 9.37L14.138 13.18C14.045 13.668 13.895 14.136 13.695 14.576H13.696ZM14.187 11.106L11.145 8.064C11.401 7.748 11.688 7.458 12 7.197C13.159 8.163 13.962 9.541 14.187 11.105V11.106ZM10.689 17.644C9.875 18.033 8.963 18.25 8 18.25C4.548 18.25 1.75 15.452 1.75 12C1.75 8.548 4.548 5.75 8 5.75C8.963 5.75 9.874 5.968 10.689 6.356C9.188 7.769 8.251 9.775 8.251 12C8.251 14.225 9.187 16.23 10.689 17.644ZM13.311 6.356C14.125 5.967 15.037 5.75 16 5.75C19.452 5.75 22.25 8.548 22.25 12C22.25 15.452 19.452 18.25 16 18.25C15.037 18.25 14.126 18.032 13.311 17.644C14.812 16.231 15.75 14.225 15.75 12C15.75 9.775 14.813 7.77 13.311 6.356Z" fill="#202022"/>
</g>
</svg>
