<svg width="24" height="24" viewBox="0 0 24 24" fill="none" xmlns="http://www.w3.org/2000/svg">
<g id="Type=Outline">
<path id="Vector" d="M10.417 15.644L16.281 9.77999L15.22 8.71899L10.417 13.522L8.281 11.386L7.22 12.447L10.417 15.644Z" fill="#202022"/>
<path id="Vector_2" d="M11.75 1C10.72 1 9.876 1.65 9.244 2.506C8.731 3.201 7.84 3.57 6.985 3.442C5.933 3.284 4.877 3.421 4.148 4.149C3.419 4.877 3.283 5.934 3.441 6.986C3.57 7.841 3.201 8.731 2.505 9.245C1.649 9.877 0.999001 10.721 0.999001 11.751C0.999001 12.781 1.649 13.625 2.505 14.257C3.2 14.77 3.569 15.661 3.441 16.516C3.283 17.568 3.42 18.624 4.148 19.353C4.876 20.082 5.933 20.218 6.985 20.06C7.84 19.931 8.73 20.3 9.244 20.996C9.876 21.852 10.72 22.502 11.75 22.502C12.78 22.502 13.624 21.852 14.256 20.996C14.769 20.301 15.66 19.932 16.515 20.06C17.567 20.218 18.623 20.081 19.352 19.353C20.081 18.625 20.217 17.568 20.059 16.516C19.93 15.661 20.299 14.771 20.995 14.257C21.851 13.625 22.501 12.781 22.501 11.751C22.501 10.721 21.851 9.877 20.995 9.245C20.3 8.732 19.931 7.841 20.059 6.986C20.217 5.934 20.08 4.878 19.352 4.149C18.624 3.42 17.567 3.284 16.515 3.442C15.66 3.571 14.77 3.202 14.256 2.506C13.624 1.65 12.78 1 11.75 1ZM10.451 3.397C10.951 2.72 11.403 2.5 11.75 2.5C12.097 2.5 12.549 2.72 13.049 3.397C13.892 4.539 15.333 5.136 16.737 4.925C17.569 4.8 18.045 4.964 18.29 5.209C18.535 5.454 18.7 5.93 18.574 6.762C18.363 8.166 18.959 9.607 20.102 10.451C20.779 10.951 20.999 11.403 20.999 11.75C20.999 12.097 20.779 12.549 20.102 13.049C18.96 13.892 18.363 15.333 18.574 16.737C18.699 17.569 18.535 18.044 18.289 18.29C18.043 18.536 17.568 18.7 16.736 18.575C15.332 18.364 13.891 18.96 13.047 20.103C12.547 20.78 12.095 21 11.748 21C11.401 21 10.949 20.78 10.449 20.103C9.605 18.96 8.165 18.364 6.76 18.575C5.928 18.7 5.453 18.536 5.207 18.291C4.961 18.046 4.797 17.57 4.923 16.738C5.134 15.334 4.538 13.893 3.395 13.05C2.718 12.55 2.498 12.098 2.498 11.751C2.498 11.404 2.718 10.952 3.395 10.452C4.537 9.608 5.134 8.168 4.923 6.763C4.798 5.931 4.962 5.456 5.207 5.21C5.452 4.964 5.928 4.8 6.76 4.926C8.164 5.137 9.605 4.541 10.449 3.398L10.451 3.397Z" fill="#202022"/>
</g>
</svg>
