<svg width="24" height="24" viewBox="0 0 24 24" fill="none" xmlns="http://www.w3.org/2000/svg">
<g id="Type=Filled">
<path id="Vector" d="M9.244 2.506C9.876 1.65 10.72 1 11.75 1C12.78 1 13.624 1.65 14.256 2.506C14.769 3.201 15.66 3.57 16.515 3.442C17.567 3.284 18.623 3.421 19.352 4.149C20.081 4.877 20.217 5.934 20.059 6.986C19.93 7.841 20.299 8.731 20.995 9.245C21.851 9.877 22.501 10.721 22.501 11.751C22.501 12.781 21.851 13.625 20.995 14.257C20.3 14.77 19.931 15.661 20.059 16.516C20.217 17.568 20.08 18.624 19.352 19.353C18.624 20.082 17.567 20.218 16.515 20.06C15.66 19.931 14.77 20.3 14.256 20.996C13.624 21.852 12.78 22.502 11.75 22.502C10.72 22.502 9.876 21.852 9.244 20.996C8.731 20.301 7.84 19.932 6.985 20.06C5.933 20.218 4.877 20.081 4.148 19.353C3.419 18.625 3.283 17.568 3.441 16.516C3.57 15.661 3.201 14.771 2.505 14.257C1.649 13.625 0.999 12.781 0.999 11.751C0.999 10.721 1.649 9.877 2.505 9.245C3.2 8.732 3.569 7.841 3.441 6.986C3.283 5.934 3.42 4.878 4.148 4.149C4.876 3.42 5.933 3.284 6.985 3.442C7.84 3.571 8.73 3.202 9.244 2.506ZM10.417 15.644L16.281 9.78L15.22 8.719L10.417 13.522L8.281 11.386L7.22 12.447L10.417 15.644Z" fill="#202022"/>
</g>
</svg>
