<svg width="24" height="24" viewBox="0 0 24 24" fill="none" xmlns="http://www.w3.org/2000/svg">
<g id="Visa Logo" clip-path="url(#clip0_4881_248)">
<path id="Vector" d="M12.412 10.505C12.398 11.585 13.374 12.187 14.109 12.545C14.864 12.913 15.118 13.148 15.115 13.477C15.109 13.98 14.513 14.202 13.954 14.211C12.98 14.226 12.413 13.948 11.963 13.738L11.612 15.38C12.064 15.588 12.901 15.77 13.768 15.778C15.805 15.778 17.137 14.773 17.144 13.214C17.152 11.236 14.408 11.126 14.426 10.242C14.433 9.97401 14.688 9.68801 15.249 9.61502C15.526 9.57802 16.293 9.55002 17.161 9.95002L17.502 8.36102C17.035 8.19102 16.435 8.02802 15.687 8.02802C13.77 8.02802 12.422 9.04701 12.411 10.506L12.412 10.505ZM20.779 8.16401C20.407 8.16401 20.094 8.38102 19.954 8.71402L17.045 15.661H19.08L19.485 14.542H21.972L22.207 15.661H24.001L22.436 8.16502H20.78L20.779 8.16401ZM21.063 10.189L21.65 13.004H20.041L21.063 10.189ZM9.945 8.16401L8.341 15.66H10.28L11.883 8.16401H9.945ZM7.076 8.16401L5.057 13.266L4.24 8.92802C4.144 8.44402 3.766 8.16401 3.346 8.16401H0.046L0 8.38202C0.677 8.52902 1.447 8.76602 1.913 9.02002C2.198 9.17502 2.28 9.31002 2.374 9.67902L3.921 15.661H5.971L9.113 8.16502H7.076V8.16401Z" fill="#202022"/>
</g>
<defs>
<clipPath id="clip0_4881_248">
<rect width="24" height="24" fill="white"/>
</clipPath>
</defs>
</svg>
