<svg width="24" height="24" viewBox="0 0 24 24" fill="none" xmlns="http://www.w3.org/2000/svg">
<g id="Type=Filled">
<path id="Vector" d="M10.5 11.75H12.25C12.94 11.75 13.5 11.19 13.5 10.5C13.5 9.81 12.94 9.25 12.25 9.25H10.5V11.75Z" fill="#202022"/>
<path id="Vector_2" d="M24 4H0V20H24V4ZM9 7.75H12.25C13.769 7.75 15 8.981 15 10.5C15 12.019 13.769 13.25 12.25 13.25H10.5V16.25H9V7.75ZM6.412 7.758H7.969L5.608 16.258H4.151L1.79 7.758H3.347L4.88 13.276L6.412 7.758ZM20.5 7.758H22V16.258H20.29L17.5 10.677V16.25H16V7.758H17.717L20.5 13.323V7.758Z" fill="#202022"/>
</g>
</svg>
