<svg width="24" height="24" viewBox="0 0 24 24" fill="none" xmlns="http://www.w3.org/2000/svg">
<g id="Type=Outline">
<path id="Vector" d="M23 4.75H1V3.25H23V4.75Z" fill="#202022"/>
<path id="Vector_2" d="M23 20.75H1V19.25H23V20.75Z" fill="#202022"/>
<path id="Vector_3" d="M7.96894 7.75806H6.41194L4.87894 13.2761L3.34594 7.75806H1.78894L4.14994 16.2581H5.60694L7.96894 7.75806Z" fill="#202022"/>
<path id="Vector_4" d="M9 7.75806V16.2501H10.5V13.2501H12.25C13.769 13.2501 15 12.0191 15 10.5001C15 9.05106 13.88 7.86506 12.459 7.75806H9ZM12.25 11.7501H10.5V9.25006H12.25C12.94 9.25006 13.5 9.81006 13.5 10.5001C13.5 11.1901 12.94 11.7501 12.25 11.7501Z" fill="#202022"/>
<path id="Vector_5" d="M20.5 7.75806H22V16.2581H20.29L17.5 10.6771V16.2501H16V7.75806H17.717L20.5 13.3231V7.75806Z" fill="#202022"/>
</g>
</svg>
