<svg width="24" height="24" viewBox="0 0 24 24" fill="none" xmlns="http://www.w3.org/2000/svg">
<g id="Type=Filled">
<g id="Shape">
<path d="M7.4375 12.75C7.95968 12.75 8.49208 13.1182 8.85352 13.7549C9.47997 14.8585 10.4928 15.75 12 15.75C13.5072 15.75 14.52 14.8585 15.1465 13.7549C15.5079 13.1182 16.0403 12.75 16.5625 12.75H22.75V17C22.75 18.5188 21.5188 19.75 20 19.75H4C2.48122 19.75 1.25 18.5188 1.25 17V12.75H7.4375Z" fill="#202022"/>
<path d="M22.75 11.25H16.5625C15.307 11.25 14.359 12.1054 13.8428 13.0146C13.3883 13.8153 12.7998 14.25 12 14.25C11.2002 14.25 10.6117 13.8153 10.1572 13.0146C9.64101 12.1054 8.69298 11.25 7.4375 11.25H1.25V8.5H22.75V11.25Z" fill="#202022"/>
<path d="M20 4.25C21.5188 4.25 22.75 5.48122 22.75 7H1.25C1.25 5.48122 2.48122 4.25 4 4.25H20Z" fill="#202022"/>
</g>
</g>
</svg>
