<svg width="24" height="24" viewBox="0 0 24 24" fill="none" xmlns="http://www.w3.org/2000/svg">
<g id="Type=Outline">
<path id="Shape" fill-rule="evenodd" clip-rule="evenodd" d="M20 4.25C21.5188 4.25 22.75 5.48122 22.75 7V17C22.75 18.5188 21.5188 19.75 20 19.75H4C2.48122 19.75 1.25 18.5188 1.25 17V7C1.25 5.48122 2.48122 4.25 4 4.25H20ZM2.75 17C2.75 17.6904 3.30964 18.25 4 18.25H20C20.6904 18.25 21.25 17.6904 21.25 17V12.75H16.5625C16.0403 12.75 15.5079 13.1182 15.1465 13.7549C14.52 14.8585 13.5072 15.75 12 15.75C10.4928 15.75 9.47997 14.8585 8.85352 13.7549C8.49208 13.1182 7.95968 12.75 7.4375 12.75H2.75V17ZM2.75 11.25H7.4375C8.69298 11.25 9.64101 12.1054 10.1572 13.0146C10.6117 13.8153 11.2002 14.25 12 14.25C12.7998 14.25 13.3883 13.8153 13.8428 13.0146C14.359 12.1054 15.307 11.25 16.5625 11.25H21.25V9.25H2.75V11.25ZM4 5.75C3.30964 5.75 2.75 6.30964 2.75 7V7.75H21.25V7C21.25 6.30964 20.6904 5.75 20 5.75H4Z" fill="#202022"/>
</g>
</svg>
