<svg width="24" height="24" viewBox="0 0 24 24" fill="none" xmlns="http://www.w3.org/2000/svg">
<g id="Type=Filled">
<path id="Vector" d="M6.368 8.40401C4.542 7.50301 2.616 7.26201 0.960002 7.81401L0.595002 7.93601L0.484002 8.33601C-0.342998 11.315 0.773002 15.091 3.331 17.895C5.217 19.963 7.586 21.171 9.789 21.3C7.33 19.226 5.976 15.576 5.976 11.844C5.976 10.674 6.109 9.51201 6.368 8.40401Z" fill="#202022"/>
<path id="Vector_2" d="M14.211 21.3C16.414 21.172 18.783 19.963 20.669 17.895C23.226 15.091 24.342 11.315 23.516 8.33601L23.405 7.93601L23.04 7.81401C21.384 7.26101 19.457 7.50301 17.632 8.40301C17.89 9.51101 18.023 10.673 18.023 11.843C18.023 15.575 16.67 19.225 14.21 21.299L14.211 21.3Z" fill="#202022"/>
<path id="Vector_3" d="M8.30999 7.16199C9.02899 5.28199 10.179 3.76499 11.622 2.92199L12.001 2.70099L12.38 2.92199C14.317 4.05499 15.727 6.40199 16.274 9.21099C16.438 10.054 16.525 10.938 16.525 11.843C16.525 15.768 14.898 19.293 12.38 20.765L12.001 20.986L11.622 20.765C9.10399 19.292 7.47699 15.768 7.47699 11.843C7.47699 10.166 7.77399 8.56299 8.30999 7.16099V7.16199Z" fill="#202022"/>
</g>
</svg>
