<svg width="24" height="24" viewBox="0 0 24 24" fill="none" xmlns="http://www.w3.org/2000/svg">
<g id="Type=Outline">
<path id="Vector" d="M12.379 2.91601C14.316 4.04901 15.726 6.39601 16.273 9.20501C18.466 7.67001 20.965 7.11601 23.04 7.80801L23.405 7.93001L23.516 8.33001C24.343 11.309 23.227 15.085 20.669 17.889C18.127 20.676 14.709 21.902 12 21.026C9.29098 21.901 5.87298 20.676 3.33098 17.889C0.773978 15.085 -0.342022 11.309 0.483978 8.33001L0.594978 7.93001L0.959978 7.80801C3.03398 7.11601 5.53198 7.66901 7.72698 9.20501C8.27398 6.39501 9.68398 4.04801 11.621 2.91601L12 2.69501L12.379 2.91601ZM16.495 10.939C16.514 11.236 16.524 11.536 16.524 11.838C16.524 15.032 15.447 17.96 13.689 19.734C15.574 19.781 17.815 18.802 19.659 16.781C21.822 14.41 22.677 11.438 22.246 9.20201C20.564 8.81201 18.422 9.37901 16.496 10.94L16.495 10.939ZM10.311 19.734C8.55298 17.96 7.47598 15.032 7.47598 11.838C7.47598 11.536 7.48598 11.235 7.50498 10.939C5.58098 9.38001 3.43798 8.81101 1.75498 9.20201C1.32398 11.438 2.17998 14.41 4.34198 16.781C6.18498 18.802 8.42698 19.782 10.312 19.734H10.311ZM8.97598 11.838C8.97598 15.2 10.283 17.958 11.999 19.216C13.716 17.958 15.023 15.2 15.023 11.838C15.023 8.47601 13.716 5.71801 11.999 4.46001C10.282 5.71801 8.97598 8.47601 8.97598 11.838Z" fill="#202022"/>
</g>
</svg>
