<svg width="24" height="24" viewBox="0 0 24 24" fill="none" xmlns="http://www.w3.org/2000/svg">
<g id="Wifi">
<path id="Vector" d="M1.28 9.44001C7.2 3.52001 16.799 3.52001 22.719 9.44001L23.78 8.37901C17.274 1.87301 6.725 1.87301 0.219002 8.37901L1.28 9.44001Z" fill="#202022"/>
<path id="Vector_2" d="M4.796 12.956C8.775 8.97698 15.225 8.97698 19.204 12.956L20.265 11.895C15.701 7.33098 8.3 7.33098 3.736 11.895L4.796 12.956Z" fill="#202022"/>
<path id="Vector_3" d="M8.312 16.471C10.349 14.434 13.652 14.434 15.689 16.471L16.75 15.41C14.127 12.787 9.875 12.787 7.252 15.41L8.312 16.471Z" fill="#202022"/>
<path id="Vector_4" d="M12.064 20.623C12.892 20.623 13.564 19.951 13.564 19.123C13.564 18.295 12.892 17.623 12.064 17.623C11.236 17.623 10.564 18.295 10.564 19.123C10.564 19.951 11.236 20.623 12.064 20.623Z" fill="#202022"/>
</g>
</svg>
