<svg width="24" height="24" viewBox="0 0 24 24" fill="none" xmlns="http://www.w3.org/2000/svg">
<g id="Windows Edge">
<path id="Vector" d="M21.963 9.75099C21.867 8.72199 21.574 7.75199 21.092 6.83899C20.411 5.54799 19.452 4.50299 18.247 3.69199C15.945 2.14199 13.409 1.51899 10.656 1.88699C8.47201 2.17899 6.59801 3.13899 5.02601 4.68199C3.96301 5.72499 3.17901 6.95299 2.66101 8.34999C2.59501 8.52899 2.53801 8.71099 2.47601 8.89099C2.48201 8.89399 2.48701 8.89499 2.49301 8.89799C2.50901 8.87799 2.52601 8.85999 2.54001 8.83799C3.22701 7.83099 4.14901 7.12199 5.28401 6.70099C6.85201 6.11699 8.46901 5.99099 10.108 6.30899C12.017 6.67899 13.387 7.77399 14.239 9.52199C14.46 9.97499 14.607 10.454 14.752 10.935C14.881 11.361 14.927 11.792 14.861 12.233C14.776 12.798 14.537 13.293 14.16 13.721C13.925 13.987 13.942 14.367 14.209 14.582C14.295 14.651 14.408 14.697 14.514 14.732C15.494 15.059 16.496 15.147 17.517 14.991C18.716 14.808 19.781 14.335 20.664 13.492C21.292 12.893 21.722 12.176 21.911 11.321C22.027 10.8 22.01 10.273 21.96 9.74499L21.961 9.74799L21.963 9.75099ZM11.584 22.151C10.258 21.74 9.16801 20.991 8.35201 19.861C7.41301 18.562 6.99801 17.098 7.01601 15.501C7.02701 14.546 7.21701 13.628 7.59601 12.751C8.00501 11.806 8.59801 11.003 9.42001 10.375C9.89901 10.009 10.431 9.74499 10.994 9.53599C11.794 9.23999 12.569 9.28399 13.327 9.67099C13.399 9.70799 13.47 9.74899 13.566 9.80299C13.538 9.74799 13.522 9.71699 13.507 9.68799C12.796 8.46199 11.759 7.65599 10.396 7.27499C9.69201 7.07799 8.97401 7.01399 8.24601 7.02999C7.40101 7.04799 6.56601 7.14999 5.75801 7.41099C4.63101 7.77399 3.68501 8.39699 3.00001 9.37599C2.36101 10.294 1.97901 11.304 2.00301 12.442C2.03701 13.957 2.39201 15.393 3.08601 16.738C4.12901 18.758 5.67901 20.266 7.72601 21.255C8.82701 21.786 9.99401 22.088 11.211 22.184C11.379 22.198 11.549 22.204 11.743 22.214C11.715 22.194 11.71 22.188 11.705 22.187C11.665 22.174 11.626 22.163 11.586 22.15L11.584 22.151ZM20.753 17.456C20.735 17.459 20.719 17.473 20.702 17.481C19.748 17.978 18.731 18.267 17.661 18.366C16.592 18.465 15.539 18.372 14.507 18.071C13.212 17.694 12.077 17.047 11.146 16.061C10.267 15.129 9.72201 14.035 9.57701 12.751C9.52501 12.286 9.53201 11.826 9.67601 11.375C9.70901 11.273 9.74501 11.172 9.78301 11.065C9.76701 11.069 9.76001 11.071 9.75601 11.074C9.73601 11.09 9.71601 11.107 9.69801 11.125C9.16101 11.628 8.75501 12.224 8.45701 12.895C8.04401 13.824 7.86601 14.801 7.89301 15.817C7.92001 16.836 8.15001 17.805 8.61101 18.714C9.11201 19.7 9.82001 20.498 10.771 21.069C11.771 21.668 12.865 21.929 14.022 21.957C14.272 21.963 14.535 21.98 14.773 21.92C17.195 21.304 19.126 19.962 20.583 17.93C20.672 17.805 20.756 17.676 20.836 17.546C20.85 17.525 20.84 17.488 20.842 17.458C20.812 17.458 20.783 17.452 20.754 17.457L20.753 17.456Z" fill="#202022"/>
</g>
</svg>
