<svg width="24" height="24" viewBox="0 0 24 24" fill="none" xmlns="http://www.w3.org/2000/svg">
<g id="Windows Smile">
<path id="Vector" d="M17.388 8.55499C18.786 8.55499 19.917 7.41899 19.917 6.01799C19.917 4.61699 18.784 3.48099 17.388 3.48099C15.992 3.48099 14.859 4.61699 14.859 6.01799C14.859 7.41899 15.992 8.55499 17.388 8.55499ZM21.347 13.114C20.708 12.725 19.874 12.928 19.485 13.57C18.717 14.838 17.634 15.899 16.353 16.637C15.033 17.397 13.527 17.8 11.994 17.8C10.461 17.8 8.96 17.4 7.643 16.642C6.363 15.906 5.281 14.849 4.512 13.585C4.123 12.944 3.288 12.742 2.65 13.132C2.011 13.523 1.809 14.36 2.199 15C3.205 16.653 4.622 18.036 6.296 18.999C8.023 19.993 9.995 20.519 11.996 20.519C13.997 20.519 15.976 19.992 17.706 18.995C19.383 18.028 20.799 16.641 21.804 14.982C22.192 14.341 21.99 13.505 21.349 13.114H21.347ZM6.612 8.55499C8.009 8.55499 9.141 7.41899 9.141 6.01799C9.141 4.61699 8.009 3.48099 6.612 3.48099C5.215 3.48099 4.083 4.61699 4.083 6.01799C4.083 7.41899 5.216 8.55499 6.612 8.55499Z" fill="#202022"/>
</g>
</svg>
