<svg width="24" height="24" viewBox="0 0 24 24" fill="none" xmlns="http://www.w3.org/2000/svg">
<g id="Type=Outline">
<path id="Vector" d="M11.25 9.75C9.869 9.75 8.75 10.869 8.75 12.25C8.75 13.631 9.869 14.75 11.25 14.75H12.75C13.302 14.75 13.75 15.198 13.75 15.75C13.75 16.302 13.302 16.75 12.75 16.75H9.5V18.25H11.25V20H12.75V18.25C14.131 18.25 15.25 17.131 15.25 15.75C15.25 14.369 14.131 13.25 12.75 13.25H11.25C10.698 13.25 10.25 12.802 10.25 12.25C10.25 11.698 10.698 11.25 11.25 11.25H14.5V9.75H12.75V8H11.25V9.75Z" fill="#202022"/>
<path id="Vector_2" d="M1.25 1.25V10.75H5.75V22.75H18.25V10.75H22.75V1.25H1.25ZM21.25 9.25H18.25V6.75H19.5V5.25H4.5V6.75H5.75V9.25H2.75V2.75H21.25V9.25ZM7.25 6.75H16.75V21.25H7.25V6.75Z" fill="#202022"/>
</g>
</svg>
