<svg width="24" height="24" viewBox="0 0 24 24" fill="none" xmlns="http://www.w3.org/2000/svg">
<g id="Type=Outline">
<path id="Vector" d="M5.598 5.29999C4.827 5.87999 4.827 6.81999 5.6 7.39999L4.4 8.29999C2.964 7.22299 2.964 5.47599 4.4 4.39799L4.402 4.39899C5.173 3.81899 5.173 2.87899 4.4 2.29899L5.6 1.39899C7.036 2.47599 7.036 4.22299 5.6 5.30099L5.598 5.29999Z" fill="#202022"/>
<path id="Vector_2" d="M10.598 5.29999C9.826 5.87999 9.827 6.81999 10.6 7.39999L9.4 8.29999C7.964 7.22299 7.964 5.47599 9.4 4.39799L9.402 4.39899C10.173 3.81899 10.173 2.87899 9.4 2.29899L10.6 1.39899C12.036 2.47599 12.036 4.22299 10.6 5.30099L10.598 5.29999Z" fill="#202022"/>
<path id="Vector_3" d="M15.598 5.29999C14.827 5.87999 14.827 6.81999 15.6 7.39999L14.4 8.29999C12.964 7.22299 12.964 5.47599 14.4 4.39799L14.402 4.39899C15.173 3.81899 15.173 2.87899 14.4 2.29899L15.6 1.39899C17.036 2.47599 17.036 4.22299 15.6 5.30099L15.598 5.29999Z" fill="#202022"/>
<path id="Vector_4" d="M2.25 10.1H18C20.071 10.1 21.75 11.779 21.75 13.85C21.75 15.921 20.071 17.6 18 17.6H17.248C16.138 20.523 13.312 22.6 10 22.6C5.72 22.6 2.25 19.13 2.25 14.85V10.1ZM17.65 16.1H18C19.243 16.1 20.25 15.093 20.25 13.85C20.25 12.607 19.243 11.6 18 11.6H17.75V14.85C17.75 15.276 17.716 15.693 17.65 16.1ZM3.75 11.6V14.85C3.75 18.302 6.548 21.1 10 21.1C13.452 21.1 16.25 18.302 16.25 14.85V11.6H3.75Z" fill="#202022"/>
</g>
</svg>
