<svg width="24" height="24" viewBox="0 0 24 24" fill="none" xmlns="http://www.w3.org/2000/svg">
<g id="Type=Filled">
<path id="Vector" d="M6.598 5.29999C5.827 5.87999 5.827 6.81999 6.6 7.39999L5.4 8.29999C3.964 7.22299 3.964 5.47599 5.4 4.39799L5.402 4.39899C6.173 3.81899 6.173 2.87899 5.4 2.29899L6.6 1.39899C8.036 2.47599 8.036 4.22299 6.6 5.30099L6.598 5.29999Z" fill="#202022"/>
<path id="Vector_2" d="M11.598 5.29999C10.827 5.87999 10.827 6.81999 11.6 7.39999L10.4 8.29999C8.964 7.22299 8.964 5.47599 10.4 4.39799L10.402 4.39899C11.173 3.81899 11.173 2.87899 10.4 2.29899L11.6 1.39899C13.036 2.47599 13.036 4.22299 11.6 5.30099L11.598 5.29999Z" fill="#202022"/>
<path id="Vector_3" d="M16.598 5.29999C15.827 5.87999 15.827 6.81999 16.6 7.39999L15.4 8.29999C13.964 7.22299 13.964 5.47599 15.4 4.39799L15.402 4.39899C16.173 3.81899 16.173 2.87899 15.4 2.29899L16.6 1.39899C18.036 2.47599 18.036 4.22299 16.6 5.30099L16.598 5.29999Z" fill="#202022"/>
<path id="Vector_4" d="M3.25 10.1H19C21.071 10.1 22.75 11.779 22.75 13.85C22.75 15.921 21.071 17.6 19 17.6H18.248C17.138 20.523 14.312 22.6 11 22.6C6.72 22.6 3.25 19.13 3.25 14.85V10.1ZM18.65 16.1H19C20.243 16.1 21.25 15.093 21.25 13.85C21.25 12.607 20.243 11.6 19 11.6H18.75V14.85C18.75 15.276 18.716 15.693 18.65 16.1Z" fill="#202022"/>
</g>
</svg>
