<svg width="24" height="24" viewBox="0 0 24 24" fill="none" xmlns="http://www.w3.org/2000/svg">
<g id="Type=Outline">
<path id="Vector" d="M4.11699 1.65604C6.30299 0.515039 9.06499 0.861039 10.902 2.69804C12.459 4.25504 12.945 6.47504 12.364 8.44504L22.311 18.391L18.393 22.309L8.44699 12.362C6.47599 12.943 4.25599 12.457 2.69999 10.9C0.862993 9.06304 0.516992 6.30104 1.65799 4.11504L2.13099 3.20904L5.73099 6.80904L6.81299 5.72704L3.21299 2.12704L4.11899 1.65404L4.11699 1.65604ZM5.81699 2.61304L8.93299 5.72904L5.72899 8.93304L2.61299 5.81704C2.28499 7.21804 2.66799 8.75104 3.75899 9.84204C5.00499 11.088 6.82699 11.411 8.37199 10.805L8.82899 10.626L18.392 20.189L20.189 18.392L10.626 8.82904L10.805 8.37204C11.411 6.82704 11.088 5.00504 9.84199 3.75904C8.75099 2.66804 7.21799 2.28504 5.81699 2.61304Z" fill="#202022"/>
</g>
</svg>
