<svg width="24" height="24" viewBox="0 0 24 24" fill="none" xmlns="http://www.w3.org/2000/svg">
<g id="Type=Outline">
<path id="Vector" d="M1 4.75H23V3.25H1V4.75Z" fill="#202022"/>
<path id="Vector_2" d="M6.32299 7.758H8.02899L5.85299 12.023L8.01399 16.258H6.30799L4.99999 13.695L3.69199 16.258H1.98599L4.14699 12.023L1.97099 7.758H3.67699L4.99999 10.351L6.32299 7.758Z" fill="#202022"/>
<path id="Vector_3" d="M15.5 7.758H13.811L12.251 11.117L10.696 7.758H9V16.25H10.5V10.905L11.705 13.508H12.795L14 10.912V16.25H15.5V7.758Z" fill="#202022"/>
<path id="Vector_4" d="M16.75 7.758H18.25V14.75H22V16.25H16.75V7.758Z" fill="#202022"/>
<path id="Vector_5" d="M23 20.75H1V19.25H23V20.75Z" fill="#202022"/>
</g>
</svg>
