<svg width="24" height="24" viewBox="0 0 24 24" fill="none" xmlns="http://www.w3.org/2000/svg">
<g id="Type=Outline">
<path id="Vector" d="M11.25 14.5V13H8.5V11.5H10.939L6.969 7.52999L8.03 6.46899L12 10.439L15.97 6.46899L17.031 7.52999L13.061 11.5H15.5V13H12.75V14.5H15.5V16H12.75V18.25H11.25V16H8.5V14.5H11.25Z" fill="#202022"/>
<path id="Vector_2" d="M1.75 12C1.75 6.339 6.339 1.75 12 1.75C17.661 1.75 22.25 6.339 22.25 12C22.25 17.661 17.661 22.25 12 22.25C6.339 22.25 1.75 17.661 1.75 12ZM12 3.25C7.168 3.25 3.25 7.168 3.25 12C3.25 16.832 7.168 20.75 12 20.75C16.833 20.75 20.75 16.832 20.75 12C20.75 7.168 16.832 3.25 12 3.25Z" fill="#202022"/>
</g>
</svg>
