<svg width="24" height="24" viewBox="0 0 24 24" fill="none" xmlns="http://www.w3.org/2000/svg">
<g id="Yubikey">
<path id="Vector" d="M10.169 6.57599H7.495L10.589 14.451L9.32199 17.43H12.091L16.508 6.57599H13.883L12.072 11.714L10.169 6.57599Z" fill="#202022"/>
<path id="Vector_2" d="M11.98 22.51C9.20402 22.512 6.54102 21.411 4.57502 19.45C2.60902 17.489 1.50402 14.828 1.49902 12.052V11.999C1.49902 9.22199 2.59902 6.55699 4.55902 4.58899C6.51902 2.62099 9.17902 1.50999 11.956 1.49899H12.032C14.806 1.50799 17.464 2.61399 19.425 4.57599C21.386 6.53799 22.491 9.19599 22.499 11.97V12.009C22.502 13.385 22.233 14.749 21.709 16.021C21.185 17.293 20.415 18.45 19.444 19.425C18.473 20.4 17.319 21.174 16.048 21.703C14.777 22.232 13.415 22.506 12.039 22.508H11.98V22.51ZM11.961 3.41799V3.41999C9.68802 3.42599 7.51002 4.33399 5.90602 5.94499C4.30202 7.55599 3.40302 9.73699 3.40702 12.01V12.049C3.41202 14.319 4.31702 16.494 5.92402 18.097C7.53102 19.7 9.70802 20.6 11.977 20.6H12.039C13.164 20.598 14.279 20.375 15.318 19.942C16.357 19.509 17.301 18.876 18.095 18.079C18.889 17.281 19.518 16.335 19.947 15.294C20.376 14.253 20.594 13.138 20.591 12.013V11.97C20.586 9.69999 19.681 7.52499 18.074 5.92199C16.467 4.31899 14.29 3.41899 12.021 3.41899H12.001V3.41699H11.962L11.961 3.41799Z" fill="#202022"/>
</g>
</svg>
