<svg width="24" height="24" viewBox="0 0 24 24" fill="none" xmlns="http://www.w3.org/2000/svg">
<g id="Type=Outline">
<path id="Vector" d="M23 4.75H1V3.25H23V4.75Z" fill="#202022"/>
<path id="Vector_2" d="M23 20.75H1V19.25H23V20.75Z" fill="#202022"/>
<path id="Vector_3" d="M8 9.652V7.75H2V9.25H6.369L2 14.347V16.249H8V14.749H3.631L8 9.651V9.652Z" fill="#202022"/>
<path id="Vector_4" d="M16 7.75H19.25C20.769 7.75 22 8.981 22 10.5C22 12.019 20.769 13.25 19.25 13.25H17.5V16.25H16V7.75ZM17.5 11.75H19.25C19.94 11.75 20.5 11.19 20.5 10.5C20.5 9.81 19.94 9.25 19.25 9.25H17.5V11.75Z" fill="#202022"/>
<path id="Vector_5" d="M14.5 9.25H12.75V14.75H14.5V16.25H9.5V14.75H11.25V9.25H9.5V7.75H14.5V9.25Z" fill="#202022"/>
</g>
</svg>
