<svg width="24" height="24" viewBox="0 0 24 24" fill="none" xmlns="http://www.w3.org/2000/svg">
<g id="Type=Filled">
<path id="Vector" d="M17.5 11.75H19.25C19.94 11.75 20.5 11.19 20.5 10.5C20.5 9.81 19.94 9.25 19.25 9.25H17.5V11.75Z" fill="#202022"/>
<path id="Vector_2" d="M24 4H0V20H24V4ZM8 9.652L3.631 14.75H8V16.25H2V14.348L6.369 9.251H2V7.751H8V9.652ZM16 7.75H19.25C20.769 7.75 22 8.981 22 10.5C22 12.019 20.769 13.25 19.25 13.25H17.5V16.25H16V7.75ZM14.5 9.25H12.75V14.75H14.5V16.25H9.5V14.75H11.25V9.25H9.5V7.75H14.5V9.25Z" fill="#202022"/>
</g>
</svg>
