<svg width="24" height="24" viewBox="0 0 24 24" fill="none" xmlns="http://www.w3.org/2000/svg">
<g id="Type=Outline">
<path id="Vector" d="M10.36 16.11V11.86H6.10999V10.36H10.36V6.10999H11.86V10.36H16.11V11.86H11.86V16.11H10.36Z" fill="#202022"/>
<path id="Vector_2" d="M1.36001 11.11C1.36001 5.72499 5.72501 1.35999 11.11 1.35999C16.495 1.35999 20.86 5.72499 20.86 11.11C20.86 13.532 19.976 15.748 18.514 17.454L22.64 21.58L21.579 22.641L17.453 18.515C15.748 19.977 13.532 20.861 11.109 20.861C5.72401 20.861 1.35901 16.496 1.35901 11.111L1.36001 11.11ZM11.11 2.85999C6.55401 2.85999 2.86001 6.55399 2.86001 11.11C2.86001 15.666 6.55401 19.36 11.11 19.36C15.666 19.36 19.36 15.666 19.36 11.11C19.36 6.55399 15.666 2.85999 11.11 2.85999Z" fill="#202022"/>
</g>
</svg>
